<svg width="300" height="300" viewBox="0 0 300 300" fill="none" xmlns="http://www.w3.org/2000/svg">
<path fill-rule="evenodd" clip-rule="evenodd" d="M143.321 140.434C137.321 133.408 134.272 130.067 120.082 126.184C107.785 122.819 96.196 127.434 96.196 140.434C77.3267 140.434 78.199 147.48 87.1905 152.684C96.1819 157.888 101.321 161.434 107.04 169.998C105.694 176.242 91.3452 180.987 87.1904 183.338C70.6984 192.666 55.2652 206.881 41.1879 219.252C31.0511 228.157 28.2742 264.345 27.1081 278.004C26.6492 283.344 26.7275 283.673 25.6178 288.847C24.312 294.875 25.3607 301.951 30.8366 295.662C34.5042 291.449 35.2801 291.753 38.5861 288.847C46.9816 281.467 52.9348 268.85 61.8419 261.025C78.3008 246.559 97.1495 233.741 120.082 227.081C135.153 222.704 151.225 221.431 165.937 215.922C174.041 212.89 181.896 209.164 190.489 207.482C191.612 207.262 197.877 205.031 198.901 205.835C209.534 214.233 222.795 226.522 235.386 232.875C237.414 233.901 244.928 240.463 246.183 240.217C248.367 239.79 251.484 229.922 252.538 228.063C258.199 218.079 267.921 208.465 273.111 199.311C273.995 197.752 263.736 191.907 262.781 191.153C254.192 184.37 235.918 175.297 225.536 172.987C223.601 172.558 209.562 171 210.209 167.991C212.84 155.758 220.72 145.886 223.404 133.408C228.846 108.118 233.073 77.7872 237.992 54.9216C238.902 50.6953 244.799 45.7776 247.488 42.8828C254.444 35.385 260.258 26.504 266.347 18.1016C267.322 16.7494 274.755 7.56995 274.178 7.11385C263.194 -1.56105 198.693 15.9911 188.992 24.516C175.14 36.6889 174.976 86.8847 165.937 109.284C161.418 120.481 157.772 131.435 143.321 140.434Z" fill="#665F4F"/>
</svg>
