<svg width="300" height="300" viewBox="0 0 300 300" fill="none" xmlns="http://www.w3.org/2000/svg">
<path fill-rule="evenodd" clip-rule="evenodd" d="M166.654 293C146.338 293.308 113.452 236.646 102.259 220.996C85.9405 198.182 86.0623 198.24 69.2532 175.665C56.8078 158.949 42.2012 141.698 33.4857 122.74C31.0795 117.505 26.3815 103.837 25.2029 100.468C18.6176 81.646 10.9754 59.6313 17.465 39.7366C21.852 26.2884 38.761 23.676 51.3181 23.8532C81.5014 24.2794 107.191 42.9442 124.183 65.8981C133.491 78.4713 139.5 92.5167 146.429 106.386C148.309 110.149 150.305 113.857 152.233 117.597C153.099 119.28 153.897 120.997 154.812 122.656C155.404 123.732 155.972 124.836 156.75 125.795C157.068 126.188 157.729 127.031 158.036 126.629C159.42 124.817 160.023 122.55 160.839 120.441C163.892 112.546 167.084 100.927 169.642 93.6162C171.677 87.8049 175.597 78.9781 178.697 73.7107C182.772 66.7876 186.897 59.8722 191.569 53.3101C196.244 46.7408 201.472 40.5485 206.696 34.3762C209.162 31.4619 211.882 28.7529 214.617 26.0722C226.487 14.4394 244.017 1.09749 262.174 6.41268C283.265 12.586 287.694 38.6145 286.917 56.8654C286.652 63.1086 286.263 69.3615 285.388 75.5528C277.059 134.471 245.713 187.469 212.845 236.569C208.253 243.429 179.407 292.803 166.654 293Z" fill="#AF968F"/>
</svg>
