<svg width="300" height="300" viewBox="0 0 300 300" fill="none" xmlns="http://www.w3.org/2000/svg">
<path fill-rule="evenodd" clip-rule="evenodd" d="M12.2821 31.8351C12.0685 31.9898 11.8624 32.1585 11.6637 32.3396C11.6344 32.3669 11.6097 32.4109 11.5903 32.471C7.351 36.8407 16.4694 47.858 21.898 43.2916C22.7252 42.5956 24.6426 40.9418 25.4241 40.4187L37.7137 32.6428C42.9643 29.4822 48.6456 27.1835 54.5287 25.4922C60.6494 23.7327 66.9738 22.5958 73.2624 21.8179C80.9693 20.8648 89.1089 20.2292 97.1907 20.4568C105.021 20.6775 112.798 21.6718 120.027 24.0226C129.531 27.1159 138.808 33.6873 145.344 42.1776C151.698 50.432 155.535 60.4914 154.202 70.8845C154.02 72.3035 153.565 73.6618 152.878 74.9643C142.546 59.5889 118.53 51.6145 94.0664 51.8855C65.3663 52.2033 37.3425 63.5444 32.9074 82.1016C30.8259 90.542 33.203 97.4445 37.9164 102.713C44.333 109.885 55.4692 113.884 65.1398 113.879C71.2719 113.897 77.3547 113.927 83.4251 113.588C87.5816 113.356 91.7325 112.953 95.8896 112.245C105.357 110.65 127.545 105.004 143.865 95.9687C143.33 101.019 141.591 106.414 139.329 111.807C133.425 125.881 123.3 139.74 115.829 148.081C112.07 152.314 107.856 156.1 103.989 160.217C102.103 162.226 100.302 164.313 98.6267 166.523C93.4406 173.405 85.8395 185.994 86.1721 195.906C86.3958 202.579 89.2727 208.518 96.4002 212.621C107.749 219.065 117.875 220.129 126.839 217.388C135.33 214.791 143.027 208.565 149.653 198.941C152.624 203.044 156.77 206.736 161.564 209.464C170.355 214.465 180.793 216.174 188.138 213.121C190.221 212.255 194.72 208.032 199.124 202.702L199.176 202.789C202.214 207.702 206.401 211.866 210.825 213.901C217.336 216.895 223.025 215.976 227.998 213.117C231.86 210.896 235.255 207.392 238.1 204.236L238.521 203.778L239.979 211.825L240.296 220.404C239.977 222.716 238.814 224.8 237.293 226.61C235.468 228.781 233.179 230.604 230.935 231.987C222.903 236.921 217.258 238.216 212.559 237.206C207.403 236.098 203.514 232.632 199.263 229.489C194.124 225.69 188.625 222.192 181.246 221.384C175.3 220.733 171.541 222.584 168.918 225.41C166.136 228.408 164.789 232.915 163.66 237.125C163.312 238.424 162.968 239.672 162.537 240.76C162.306 241.345 162.441 242.094 161.876 242.148L149.326 234.537C144.448 232.86 139.442 231.776 134.375 231.035C127.049 229.962 119.587 229.63 112.191 229.304C101.198 228.805 88.7602 229.978 79.7154 235.466C73.0368 239.518 68.054 245.809 66.3715 255.371C65.9355 257.849 65.552 261.131 65.6492 264.223C65.7303 266.807 66.1904 269.266 67.0414 271.243C71.541 281.697 84.0551 287.799 100.161 290.497C127.641 295.1 165.871 290.553 181.439 290.738C188.873 290.835 197.329 291.941 205.313 291.638C209.328 291.486 213.231 290.972 216.892 289.948C220.249 289.008 223.769 288.082 227.177 286.927C229.711 286.069 232.177 285.071 234.5 283.889C238.7 281.749 258.354 269.441 258.354 264.773C258.354 260.641 255 257.286 250.868 257.286C247.182 257.291 243.546 258.598 240.116 260.881C235.712 263.814 231.724 268.873 227.741 271.034C226.053 271.949 224.25 272.72 222.399 273.401C219.264 274.554 216.015 275.489 212.922 276.441C209.389 277.529 205.513 277.889 201.556 277.966C194.737 278.097 187.708 277.449 181.439 277.53C166.201 277.711 128.894 283.262 101.906 279.342C90.0753 277.624 80.1902 274.539 76.7468 266.952C76.2248 265.802 76.1242 264.271 76.1192 262.737C76.1124 260.716 76.3368 258.673 76.5873 257.065C77.5583 250.831 80.6608 246.64 84.9536 243.93C92.3622 239.254 102.727 238.501 111.835 238.771C118.919 238.991 126.069 239.182 133.094 240.133C137.605 240.744 142.064 241.67 146.413 243.125C149.667 244.222 153.645 248.344 157.198 249.995C159.143 250.899 161.033 251.285 162.756 251.113C166.712 250.717 169.281 248.151 170.897 244.05C172.354 240.355 172.584 234.723 175.528 231.618C176.506 230.587 177.993 230.25 180.181 230.52C187.077 231.374 191.661 235.537 196.338 239.168C200.65 242.516 205.018 245.526 210.368 246.818C216.87 248.387 224.947 247.545 236.295 240.971C240.167 238.738 244.111 235.562 246.982 231.741C249.137 228.872 250.648 225.616 251.252 222.102L251.361 210.945L249.64 199.136C247.403 188.815 241.896 188.073 238.117 189.015C235.541 189.658 232.016 192.852 228.192 196.768C225.092 199.943 221.527 204.623 216.491 202.101C214.207 200.957 212.285 198.508 210.778 195.878C209.468 193.595 208.471 191.733 208.31 188.816C208.113 185.246 210.801 182.443 210.94 180.046C211.164 176.172 209.91 173.213 207.663 171.231C205.133 169 202.616 168.873 200.343 169.686C199.026 170.157 196.345 171.531 195.349 175.32C194.938 176.887 195.378 180.012 194.517 182.837C193.255 186.98 190.591 189.649 188.537 192.176C186.336 194.884 182.875 198.125 182.086 198.854C178.509 199.988 173.836 198.061 169.771 195.57C165.732 193.095 162.016 189.715 161.614 185.925C161.614 185.925 166.465 173.699 160.25 166.523C154.035 159.347 147.108 165.999 143.903 173.597C142.763 176.142 141.423 178.614 139.982 181.028C138.48 183.544 136.849 185.984 135.178 188.358C131.099 194.234 126.745 198.431 121.568 199.983C116.762 201.425 111.46 200.254 105.386 196.802C103.184 195.569 104.239 193.199 104.962 190.988C106.687 185.707 110.239 180.366 112.719 176.914L128.566 159.075C136.602 149.413 147.351 133.434 153.394 117.407C157.567 106.342 159.487 95.2497 157.515 85.8928C161.504 81.7398 164.107 77.1672 164.818 72.35C166.779 59.0841 162.345 46.0656 154.443 35.3287C146.67 24.7673 135.491 16.5 123.953 12.4349C117.289 10.0854 110.198 8.70913 102.974 8.00749C92.5403 6.99457 81.8256 7.44538 71.7742 8.43877C64.7572 9.13234 57.6938 10.2417 50.8372 12.0319C43.7107 13.8925 36.8217 16.5229 30.4122 20.1697L17.3426 27.998C16.2642 28.6798 13.5675 30.8048 12.4206 31.7192L12.2821 31.8351ZM142.608 84.8564C136.834 70.1028 115.192 63.8957 93.9954 63.3999C70.4317 62.8493 46.1917 69.3252 42.0787 84.4446C40.4104 90.7562 43.0177 95.698 47.3414 99.0413C52.2337 102.825 59.1027 104.741 65.1398 104.736C71.0855 104.718 76.9844 104.735 82.8672 104.353C86.667 104.106 90.4588 103.683 94.2533 102.988C102.607 101.444 121.604 96.3953 136.411 88.4715C138.576 87.3122 140.668 86.1117 142.608 84.8564Z" fill="#3D5138"/>
<path fill-rule="evenodd" clip-rule="evenodd" d="M277.086 63.679C271.286 60.954 265.526 59.2249 260.323 58.2458C251.778 56.6373 245.038 56.7387 243.199 56.8137C239.293 56.9163 235.139 56.9315 231.049 57.1526C228.083 57.3129 225.151 57.5352 222.37 58.1236C215.793 58.7583 198.794 63.4456 188.991 70.7518C181.684 76.1981 179.002 83.5192 180.51 91.0979C181.195 93.8052 182.837 96.4075 185.155 98.6606C188.286 101.704 193.043 103.973 196.107 105.36C207.11 109.456 218.339 110.867 229.613 109.925C237.711 109.249 245.59 107.233 253.464 104.89C261.171 102.597 268.873 100.149 276.036 96.578C285.427 92.1887 289.153 86.2221 289.48 80.9991C289.808 75.7519 286.221 69.688 277.086 63.679ZM197.384 85.2787C197.301 84.1436 198.125 83.0665 199.117 81.9671C200.759 80.1483 202.65 78.2862 204.892 76.6966C211.797 71.8022 220.148 68.1669 224.073 67.0653C226.374 66.675 228.788 66.5355 231.226 66.5755C235.185 66.6406 239.178 67.1556 242.945 67.4355C244.494 67.5732 250.165 68.1828 257.131 70.5146C261.141 71.8571 265.485 73.9149 269.756 76.7363C272.241 77.921 274.218 78.9444 275.499 80.1964C276.034 80.7191 277.002 80.7374 276.782 81.3014C276.029 83.2218 273.95 85.0747 270.806 87.0741C264.596 90.8269 258.049 94.3081 251.022 96.2425C246.347 97.5295 241.505 98.0312 236.695 98.1648C225.197 98.4841 213.982 95.4962 203.774 89.3809C201.991 88.4917 195.543 86.8819 197.384 85.2787ZM197.384 85.2787L197.394 85.2684C197.589 85.1019 197.468 85.7561 197.546 85.975C197.45 85.7403 197.397 85.5084 197.384 85.2787Z" fill="#3D5138"/>
</svg>
