<svg width="357" height="713" viewBox="0 0 357 713" fill="none" xmlns="http://www.w3.org/2000/svg">
<path d="M229.243 22.7988C257.039 50.5953 257.44 95.4132 230.446 123.701L201.932 152.231V180.567C201.932 193.688 191.296 204.324 178.175 204.324C165.055 204.324 154.419 193.688 154.419 180.567L154.419 152.231L125.904 123.701C98.9101 95.4132 99.3114 50.5953 127.108 22.7988C155.312 -5.40493 201.039 -5.40493 229.243 22.7988Z" fill="#F4ADB3"/>
<path d="M16.8645 263.245C33.5896 298.784 75.5881 314.329 111.318 298.524L137.485 286.218C145.363 282.513 154.419 288.262 154.419 296.967L154.419 340.908C154.419 354.028 165.055 364.664 178.175 364.664C191.296 364.664 201.932 354.028 201.932 340.908V296.967C201.932 288.262 210.987 282.514 218.865 286.218L245.033 298.524C280.762 314.329 322.761 298.784 339.486 263.245C356.456 227.185 340.981 184.196 304.921 167.226C269.382 150.501 227.112 165.291 209.653 200.242L188.921 244.264C184.641 253.354 171.71 253.354 167.429 244.264L146.697 200.242C129.238 165.291 86.9684 150.501 51.4293 167.226C15.3696 184.196 -0.105592 227.185 16.8645 263.245Z" fill="#F4ADB3"/>
<path d="M111.318 475.511C75.5881 491.316 33.5896 475.771 16.8645 440.232C-0.105592 404.172 15.3696 361.183 51.4293 344.213C86.9684 327.488 129.238 342.278 146.697 377.229L167.429 421.251C171.71 430.341 184.641 430.341 188.921 421.251L209.653 377.229C227.112 342.278 269.382 327.488 304.921 344.213C340.981 361.183 356.456 404.172 339.486 440.232C322.761 475.771 280.762 491.316 245.033 475.511L218.865 463.205C210.987 459.5 201.932 465.249 201.932 473.954V517.894C201.932 531.015 191.296 541.651 178.175 541.651C165.055 541.651 154.419 531.015 154.419 517.894L154.419 473.954C154.419 465.249 145.363 459.5 137.485 463.205L111.318 475.511Z" fill="#F4ADB3"/>
<path d="M111.318 646.559C75.5881 662.363 33.5896 646.819 16.8645 611.28C-0.105592 575.22 15.3696 532.231 51.4293 515.261C86.9684 498.536 129.238 513.326 146.697 548.277L167.429 592.299C171.71 601.389 184.641 601.389 188.921 592.299L209.653 548.277C227.112 513.326 269.382 498.536 304.921 515.261C340.981 532.231 356.456 575.22 339.486 611.28C322.761 646.819 280.762 662.363 245.033 646.559L218.865 634.253C210.987 630.548 201.932 636.296 201.932 645.002V688.942C201.932 702.063 191.296 712.699 178.175 712.699C165.055 712.699 154.419 702.063 154.419 688.942L154.419 645.002C154.419 636.296 145.363 630.548 137.485 634.253L111.318 646.559Z" fill="#F4ADB3"/>
</svg>
