<svg width="600" height="300" viewBox="0 0 600 300" fill="none" xmlns="http://www.w3.org/2000/svg">
<path fill-rule="evenodd" clip-rule="evenodd" d="M0 216.668V266.754C23.2971 265.513 43.4753 261.394 65.4507 253.543C65.7775 253.426 66.1035 253.308 66.4286 253.189C75.5749 263.436 87.1444 272.634 101.789 279.143C131.982 292.563 170.921 293.199 200.577 287.47C228.818 282.014 254.974 270.904 277.952 257.992C300.087 269.086 324.504 281.065 348.806 283.809C369.391 286.133 388.516 282.684 405.239 278.112C430.232 271.279 453.006 260.817 473.086 247.558C489.917 257.151 509.389 262.554 527.465 264.735C544.456 266.785 574.489 267.415 600 266.708V216.693C576.701 217.381 548.13 216.867 533.456 215.096C527.114 214.33 521.023 213.068 515.374 211.399C536.085 188.782 550.869 163.816 562.483 138.806C568.84 125.116 574.396 109.691 575.843 92.5008L575.898 91.8538C576.618 83.4485 578.332 63.4344 563.559 47.3235C552.484 35.2464 537.566 31.283 525.859 30.3274C513.856 29.3479 501.801 31.1775 491.977 34.0735C463.441 42.4847 441.819 62.7645 428.596 80.6487C411.66 103.554 404.071 132.972 411.27 161.383C415.415 177.743 424.075 192.729 430.741 203.976C432.278 206.568 433.928 209.212 435.712 211.873C422.504 219.42 407.902 225.549 392.053 229.882C378.289 233.645 366.108 235.445 354.416 234.124C345.132 233.076 336.473 229.758 326.04 225.116C346.444 207.679 362.729 187.109 372.377 161.208C379.679 141.604 387.436 116.938 385.977 91.4168C384.762 70.1365 369.401 45.344 340.833 39.4187C310.933 33.2171 284.725 43.052 265.606 57.868C246.942 72.3313 233.447 92.6311 227.691 111.717C220.132 136.783 217.198 167.642 225.605 195.728C228.308 204.758 232.118 213.909 237.416 222.721C222.58 229.761 207.024 235.301 191.094 238.378C167.895 242.859 140.082 241.446 122.096 233.452C118.165 231.705 114.575 229.521 111.294 226.971C117.506 221.934 123.287 216.658 128.686 211.377C137.85 202.416 146.36 192.873 154.872 183.328C160.619 176.884 166.366 170.439 172.316 164.172C188.216 147.423 199.409 128.682 203.874 105.597C206.622 91.3885 209.826 66.323 195.155 44.928C183.502 27.9329 162.906 13.7352 138.732 10.4559C131.656 9.49589 117.381 7.55986 104.141 11.4051C86.679 16.4769 73.4884 28.8284 66.0434 37.1434C43.0341 62.8416 36.5102 97.9178 32.4421 120.31C26.9405 150.595 29.9283 180.383 40.6933 209.122C27.4381 213.275 14.7227 215.698 0 216.668ZM84.8861 183.841C87.8413 181.25 90.784 178.509 93.7268 175.63C102.574 166.978 110.79 157.74 119.007 148.501C124.622 142.188 130.237 135.874 136.054 129.747C146.881 118.343 152.502 107.901 154.784 96.1023C157.248 83.3626 156.248 76.6004 153.918 73.2034C149.79 67.1829 141.404 61.2762 132.01 60.0018C123.848 58.8943 119.745 58.9393 118.087 59.4207C116.372 59.9187 114.012 61.0706 111.157 63.1917C108.352 65.2757 105.653 67.8616 103.294 70.4964C91.0411 84.1805 86.0203 105.119 81.6369 129.248C78.3004 147.614 79.3696 165.732 84.8861 183.841ZM475.305 181.033C493.245 162.403 506.354 140.962 517.134 117.747C522.224 106.784 525.257 97.3645 526.019 88.3069C526.194 86.2229 526.299 84.6512 526.32 83.2654C526.335 82.2693 526.302 81.5462 526.253 81.0296C525.517 80.7459 524.133 80.3528 521.791 80.1619C517.087 79.7776 511.276 80.512 506.113 82.0335C491.469 86.3499 478.076 97.8284 468.799 110.375C459.531 122.911 456.708 137.142 459.738 149.102C461.886 157.579 466.859 166.85 473.753 178.481C474.266 179.347 474.783 180.197 475.305 181.033ZM280.47 197.291C303.475 180.86 317.984 163.991 325.521 143.755C332.449 125.157 336.888 108.78 336.059 94.2688C336.027 93.7068 335.645 92.1883 334.494 90.7381C333.539 89.5335 332.349 88.7234 330.678 88.3768C318.092 85.7659 306.45 89.4729 296.233 97.3899C285.562 105.66 278.236 117.285 275.561 126.153C269.917 144.868 268.696 165.324 273.505 181.39C275.21 187.086 277.5 192.424 280.47 197.291Z" fill="#D88D3A"/>
</svg>
