<svg width="600" height="300" viewBox="0 0 600 300" fill="none" xmlns="http://www.w3.org/2000/svg">
<path fill-rule="evenodd" clip-rule="evenodd" d="M0 196.964V180.863C9.38195 177.65 18.8741 177.257 27.6368 177.384C30.5068 177.426 33.2482 177.517 35.9023 177.605C42.5878 177.827 48.7197 178.031 54.9594 177.377C58.321 177.025 61.8341 175.305 65.9157 172.339C71.8752 168.01 77.2978 162.971 83.225 158.584C76.2858 145.623 70.515 116.667 77.1715 100.642C80.4654 92.7122 85.5587 85.6145 90.0289 79.5895C99.5525 66.7533 116.041 60.4072 132.057 67.9618C139.006 71.2397 143.32 75.9687 144.583 82.6093C145.53 87.5855 144.508 93.105 143.678 97.587C143.605 97.9812 143.533 98.3674 143.464 98.7444C139.704 119.427 128.365 137.332 114.895 151.851C111.624 155.375 107.901 158.633 104.092 161.675C108.652 165.938 115.65 169.626 123.835 172.678C132.278 175.826 141.284 178.047 148.66 179.578C157.252 181.361 166.3 182.474 173.348 180.805C176.698 180.012 180.057 177.843 183.938 174.425C185.74 172.838 187.492 171.133 189.369 169.306L189.72 168.965C190.717 167.995 191.757 166.986 192.825 165.987C192.047 165.252 191.283 164.505 190.537 163.746C183.344 156.432 176.936 147.227 174.666 137.803C172.545 129.003 172.938 118.509 175.22 108.861C177.492 99.2574 181.865 89.5295 188.608 82.7862C202.009 69.3849 221.289 73.1408 233.651 79.7343C242.718 84.5697 247.077 92.4707 248.505 100.724C249.879 108.669 248.595 117.023 246.664 124.006C242.961 137.392 229.704 150.923 219.256 161.587C218.216 162.648 217.203 163.681 216.231 164.683C217.65 165.436 219.026 166.067 220.335 166.563C228.24 169.554 237.596 172.452 246.909 174.007C256.315 175.577 265.091 175.676 272.146 173.608C278.857 171.641 285.453 169.318 291.339 166.319C287.018 156.742 284.643 145.706 284.232 135.033C283.532 116.841 288.465 96.9339 302.532 85.4723C308.021 80.9995 315.227 78.4325 322.346 78.7415C329.674 79.0595 337.015 82.4819 341.597 89.9274C346.584 98.0323 346.226 107.67 344.477 115.617C342.688 123.744 339.146 131.509 335.96 137.112C335.401 138.096 334.838 139.095 334.268 140.107C328.465 150.405 321.958 161.951 311.67 170.787C312.327 171.536 313.005 172.236 313.701 172.884C326.492 184.793 345.482 189.445 363.933 188.809C378.258 188.315 391.159 183.343 402.997 175.613C387.467 150.127 395.375 94.3254 432.265 85.9452C440 84.188 447.73 86.2156 455.099 91.6412C462.408 97.0227 466.168 103.992 466.88 111.673C467.558 118.992 465.414 126.265 462.408 132.677C456.419 145.453 445.716 157.469 438.903 164.586C434.337 169.354 429.491 174.007 424.34 178.345C432.652 186.257 443.889 191.923 456.956 193.968C471.915 196.31 486.318 191.206 500.013 182.031C501.76 180.86 503.485 179.63 505.185 178.352C504.185 176.753 503.252 175.053 502.395 173.243C496.02 159.784 496.678 137.568 498.304 122.077C498.925 116.172 500.462 109.746 504.448 103.934C511.202 94.0841 521.918 88.9988 532.548 86.9749C543.192 84.9483 554.558 85.8055 563.942 88.6205C568.203 89.8988 571.833 92.2654 574.207 95.9357C576.528 99.5235 577.117 103.538 576.919 107.187C576.539 114.175 573.163 121.756 569.501 128.262C561.99 141.605 550.771 154.675 547.739 158.108C541.641 165.014 534.638 172.587 526.859 179.74C534.032 184.766 543.544 187.635 555.16 190.152C561.279 191.478 568.581 190.756 576.683 188.702C584.541 186.71 592.453 183.659 600 180.733V196.806C593.888 199.126 587.161 201.52 580.369 203.242C571.307 205.54 561.384 206.848 551.983 204.812C539.058 202.011 525.593 198.273 515.113 189.647C512.91 191.332 510.659 192.953 508.362 194.492C492.916 204.841 474.692 211.927 454.636 208.788C437.808 206.154 423.031 198.513 412.243 187.481C398.386 196.739 382.573 203.175 364.45 203.8C343.645 204.517 320.179 199.41 303.479 183.862C301.936 182.425 300.484 180.857 299.125 179.177C291.63 183.121 283.637 185.871 276.365 188.003C266.247 190.968 254.93 190.554 244.439 188.802C233.855 187.035 223.51 183.802 215.027 180.592C211.661 179.318 208.204 177.53 204.802 175.366C203.351 176.644 201.848 178.093 200.18 179.716L199.772 180.113L199.771 180.114C197.952 181.885 195.947 183.837 193.852 185.682C189.398 189.605 183.783 193.749 176.805 195.401C166.283 197.893 154.389 196.087 145.612 194.265C137.871 192.659 128.041 190.255 118.594 186.733C109.29 183.263 99.6279 178.446 92.8339 171.652C92.5461 171.364 92.2621 171.074 91.9819 170.78C81.0377 178.846 70.6563 190.815 56.5222 192.296C49.1732 193.066 41.4831 192.809 34.4511 192.575C32.0146 192.494 29.6567 192.415 27.4198 192.383C18.2713 192.25 10.2344 192.801 2.82599 195.815L0 196.964ZM103.899 141.648C101.294 144.456 98.4458 146.984 95.4074 149.429C91.2354 140.637 86.3311 117.694 91.0239 106.396C93.5314 100.36 97.5791 94.5873 102.075 88.5272C108.13 80.3667 117.237 77.5564 125.658 81.5283C129.438 83.3117 129.699 84.6299 129.847 85.412C130.229 87.4209 129.779 90.1622 128.706 96.0611C125.622 113.026 116.161 128.432 103.899 141.648ZM536.496 148.179C530.522 154.944 523.944 162.029 516.841 168.575C516.533 168.007 516.236 167.422 515.951 166.822C510.831 156.012 511.907 136.166 513.222 123.644C513.7 119.097 514.768 115.407 516.818 112.417C520.634 106.853 527.198 103.263 535.353 101.71C543.495 100.16 552.42 100.825 559.632 102.988C561.212 103.462 561.552 103.989 561.611 104.08L561.612 104.082C561.72 104.249 562.024 104.844 561.941 106.373C561.758 109.743 559.868 114.795 556.429 120.904C549.738 132.79 539.412 144.876 536.496 148.179ZM428.068 154.212C423.869 158.598 419.542 162.747 415.064 166.547C410.489 158.513 414.478 80.3603 446.206 103.72C450.206 106.665 451.643 109.81 451.944 113.057C452.279 116.668 451.251 121.137 448.826 126.31C443.955 136.701 434.765 147.217 428.068 154.212ZM321.376 132.423C315.835 142.215 310.98 150.793 303.923 157.567C301.226 150.722 299.54 142.726 299.221 134.456C298.607 118.497 303.161 104.309 312.007 97.1008C314.833 94.7978 318.483 93.5879 321.696 93.7274C324.702 93.8578 327.173 95.1092 328.822 97.7889C330.818 101.033 331.236 105.991 329.827 112.392C328.458 118.613 325.623 124.947 322.921 129.698C322.399 130.616 321.885 131.525 321.376 132.423ZM206.787 152.959C205.766 153.972 204.801 154.928 203.916 155.817C203.006 154.985 202.109 154.121 201.232 153.229C195.011 146.903 190.629 140.019 189.248 134.289C187.798 128.271 187.947 120.221 189.817 112.313C191.698 104.36 195.088 97.5194 199.215 93.3928C205.523 87.0846 216.324 87.4928 226.593 92.9696C230.851 95.2406 232.934 98.7118 233.724 103.281C234.568 108.159 233.846 114.08 232.207 120.007C229.253 130.687 215.79 144.033 206.787 152.959Z" fill="#C9907C"/>
</svg>
