<svg width="600" height="300" viewBox="0 0 600 300" fill="none" xmlns="http://www.w3.org/2000/svg">
<path d="M0 236.829V257.356C4.15475 257.789 9.13998 257.088 13.5935 253.306C18.174 249.417 21.5452 244.003 24.1331 238.348C26.7681 232.59 28.9003 225.892 30.6632 218.755C34.1877 204.489 36.4774 187.462 38.0571 170.561C39.2511 157.787 40.0555 144.897 40.6628 133.066C41.6934 144.434 42.715 157.217 43.7138 171.451C43.9539 174.872 44.1588 178.809 44.3798 183.058L44.3799 183.059C45.0156 195.278 45.7857 210.079 47.9157 222.64C49.3559 231.132 51.578 239.787 55.4413 246.559C59.4359 253.561 66.1756 260.022 76.4393 260.022C80.4757 260.022 83.7755 258.392 86.1106 256.737C88.4577 255.075 90.4339 252.969 92.0588 250.927C95.3054 246.848 98.1885 241.689 100.587 236.79C109.243 219.106 114.746 200.335 119.23 181.23C122.217 168.499 125.012 155.74 127.629 142.967C127.674 149.394 127.755 155.82 127.888 162.237C128.516 192.606 132.492 223.895 147.056 251.034C150.766 257.948 156.07 265.444 164.077 270.551C168.656 273.472 174.278 274.629 179.749 272.161C184.394 270.066 187.06 266.131 188.5 263.481C196.841 248.129 198.434 228.048 199.854 210.141C200.18 206.022 200.498 202.019 200.886 198.214L200.886 198.21L200.887 198.207C201.56 191.616 202.217 185.174 203 178.987C204.439 167.619 206.019 156.285 207.8 144.988C208.008 157.047 209.005 169.277 211.527 181.388C216.525 205.389 224.272 235.733 245.281 251.457C249.234 254.416 256.401 258.191 264.763 255.042C285.997 247.046 295.497 203.902 301.003 178.898C301.988 174.424 302.845 170.531 303.619 167.524C307.145 187.117 312.806 205.87 319.758 224.489L319.759 224.491C320.785 227.239 322.524 231.897 324.917 235.975C327.933 241.116 333.125 247.471 341.848 249.591C348.664 251.247 354.161 248.313 357.606 244.835C360.733 241.678 362.746 237.627 364.058 234.406C365.439 231.013 366.43 227.549 367.119 224.882C368.112 221.032 369.112 217.186 370.11 213.342L370.112 213.334C376.293 189.547 382.455 165.83 387.182 141.637C387.533 151.133 388.214 160.679 389.493 170.168C392.898 195.441 400.774 224.01 415.723 245.465C417.107 247.452 419.078 249.888 421.69 251.808C424.366 253.777 428.44 255.7 433.439 254.998C439.812 254.103 443.583 249.558 445.299 247.083C457.939 228.847 461.079 204.326 463.962 181.822L463.962 181.82C464.655 176.408 465.333 171.112 466.125 166.049C468.106 191.877 471.935 219.216 481.176 243.749C482.897 248.319 486.663 256.469 495.077 259.449C502.529 262.087 508.41 257.955 511.259 255.119C514.222 252.171 516.46 248.326 518.046 245.162C521.042 239.186 523.127 232.672 523.685 230.927C530.796 208.616 533.373 188.053 536.166 165.771L536.167 165.77C538.058 150.678 540.049 134.798 543.614 117.052C545.083 109.735 548.043 123.081 552.698 144.069C561.674 184.538 576.952 253.421 600 257.375V236.699C595.11 221.171 591.55 205.148 588.004 189.191C586.698 183.317 585.395 177.452 584.028 171.623C572.25 121.403 557.646 59.1351 553.174 50.5C546.174 36.9852 531.355 39.7755 528.786 46.8072C513.803 87.8098 499.892 236.699 499.892 236.699L498.278 231.37C498.278 231.37 484.385 150.812 484.43 98.7317C484.438 89.7416 484.43 77.3483 484.43 77.3483C484.43 77.2801 484.431 77.1896 484.432 77.078L484.434 76.8149C484.484 71.6692 484.797 39.2948 473.506 40.2703C455.098 41.8606 450.57 132.811 446.726 162.287C443.67 185.726 440.396 210.836 430.797 231.884C419.784 212.181 412.321 189.817 409.314 167.498C406.654 147.754 406.771 127.879 406.892 107.281C406.918 102.939 406.944 98.5646 406.944 94.1523C406.944 89.0506 407.038 83.7518 407.134 78.3456C407.178 75.8561 407.527 72.6923 407.914 69.1849C409.126 58.2077 410.709 43.8647 404.475 36.2945C403.404 34.994 401.028 32.8504 397.263 32.6476C386.502 32.068 384.405 46.5428 383.072 55.7509L383.071 55.7525C382.816 57.5167 382.588 59.0875 382.333 60.322C376.187 90.0614 363.887 219.058 345.535 226.863C337.286 230.371 325.288 176.001 320.766 141.637C316.869 112.023 320.766 65.1512 320.766 65.1512C320.871 63.7228 321.102 62.0374 321.352 60.2047C322.363 52.821 323.7 43.0472 318.452 38.0642C317.276 36.9475 315.345 35.6736 312.689 35.3625C310.026 35.0507 307.786 36.2946 303.619 46.8072C295.747 66.6681 265.568 226.974 265.568 226.974C265.568 226.974 263.827 233.83 260.286 234.616C256.878 235.372 252.419 230.371 252.419 230.371C240.35 215.649 235.038 196.185 231.107 177.311C226.649 155.904 227.505 133.586 228.79 110.482C229.53 97.1866 231.097 84.5509 232.71 71.5465C232.913 69.9159 233.119 68.2856 233.326 66.6555C234.614 56.498 235.902 46.3426 236.109 36.1044C236.236 29.8502 231.525 27.2059 226.852 26.5891C219.92 25.6742 216.153 31.0756 213.679 36.7855C206.068 54.3484 201.785 72.6899 197.931 89.7416C191.406 118.611 186.816 147.571 183.159 176.476C180.063 200.94 179.307 225.998 172.491 249.801C156.205 219.453 148.661 199.407 147.883 161.823C147.419 139.399 145.915 116.48 148.447 94.1181C150.36 77.2178 154.032 44.7837 138.977 40.9293C133.624 39.5589 130.023 42.7976 129.109 43.735C116.294 56.8893 109.755 106.413 104.973 142.635C103.049 157.209 101.409 169.629 99.7586 176.66C95.6189 194.3 90.618 211.665 82.6236 227.996C80.4621 232.411 78.3247 236.067 76.4095 238.473C76.4095 238.473 70.1021 227.153 67.6342 219.296C61.4745 199.682 63.2857 169.552 63.3841 148.927C63.536 117.092 63.7702 68.0044 44.8572 52.1766C43.0198 50.639 39.9179 49.1565 36.1194 49.884C32.8308 50.5138 30.8415 52.4858 29.9901 53.4747C21.308 63.5593 21.5232 84.3807 21.6868 100.214C21.7311 104.497 21.7716 108.415 21.6311 111.657C21.5022 114.632 21.368 117.729 21.2238 120.913C20.5646 135.459 19.6829 152.234 18.1439 168.7C16.5992 185.226 14.4205 201.112 11.2469 213.959C9.66077 220.38 7.88656 225.787 5.94702 230.025C5.80501 230.336 5.65001 230.703 5.48083 231.103C4.37392 233.724 2.65973 237.782 0 236.829Z" fill="#42535D"/>
</svg>
