<svg width="300" height="300" viewBox="0 0 300 300" fill="none" xmlns="http://www.w3.org/2000/svg">
<path fill-rule="evenodd" clip-rule="evenodd" d="M168.691 19.6647C155.569 16.1625 138.683 16.1065 125.496 19.532C117.076 21.719 111.672 25.2061 105.7 31.0585C124.898 24.2149 144.49 25.7645 163.719 30.544C173.222 32.9058 182.135 36.0291 190.852 40.3091C196.042 42.8572 200.582 46.0145 204.765 49.1175C206.014 50.0434 207.214 50.9513 208.39 51.8412C211.274 54.0229 214.015 56.0959 216.965 58.0577C231.878 67.9742 243.993 79.6066 255.014 92.1039C254.748 89.0346 254.344 85.9619 253.839 82.9106C252.401 74.2211 250.221 66.7262 245.11 60.147C238.127 51.1586 228.552 45.6925 217.449 39.354C216.445 38.7805 215.428 38.1998 214.399 37.6088C209.21 34.6276 203.774 32.555 197.825 30.2869C195.702 29.4774 193.514 28.6431 191.248 27.7336C191.005 27.6362 190.763 27.539 190.521 27.4419C183.101 24.4624 176.033 21.6244 168.691 19.6647ZM266.321 105.588C266.856 97.3915 266.129 89.1839 264.847 81.4392C263.321 72.2245 260.82 62.8995 254.235 54.4227C245.907 43.7034 234.439 37.1795 223.62 31.0248C222.536 30.4087 221.46 29.7962 220.393 29.1835C214.344 25.7082 207.68 23.1704 201.5 20.8166C199.535 20.0683 197.619 19.3385 195.787 18.6031C195.469 18.4754 195.149 18.3472 194.83 18.2187C187.592 15.3113 179.922 12.2305 171.86 10.0786C156.694 6.03095 137.636 5.96918 122.405 9.92529C111.026 12.8811 103.816 17.9169 96.5149 25.2773C91.1625 30.6733 86.924 36.8436 83.4068 43.3078C76.0948 48.8242 69.6506 55.1138 63.6341 60.986C63.2445 61.3663 62.8566 61.7448 62.4705 62.1213C53.9368 70.4405 48.5684 80.4689 45.2168 90.9096C44.3864 93.4964 43.7118 95.8766 43.0622 98.1688C42.0919 101.593 41.1773 104.82 39.882 108.246C39.434 109.431 38.9618 110.643 38.48 111.881C36.2345 117.647 33.782 123.944 32.6133 130.442C30.801 140.519 31.1474 151.351 31.4694 161.421C31.5895 165.178 31.7063 168.829 31.7063 172.294C31.7063 192.73 35.8063 213.061 50.37 230.51C54.9808 236.034 60.4411 241.527 67.4268 245.626C68.394 249.12 69.406 252.588 70.4172 256.052C70.8937 257.684 71.3701 259.316 71.8415 260.95C74.3979 269.81 78.3426 275.105 84.2724 281.438C85.0591 282.279 85.7136 283.032 86.3853 283.805C86.625 284.081 86.867 284.359 87.1179 284.645C88.02 285.672 89.036 286.791 90.2379 287.829C92.8681 290.099 95.9929 291.643 100.601 292.574C120.288 296.555 141.257 293.863 159.604 289.489C162.539 288.79 165.291 287.883 167.85 286.991C168.65 286.712 169.417 286.439 170.166 286.173C171.896 285.559 173.527 284.98 175.24 284.434C176.08 284.166 176.928 283.9 177.783 283.633C183.438 281.863 189.382 280.002 195.244 276.754C207.024 270.226 216.403 261.044 225.016 252.611C225.289 252.344 225.561 252.078 225.832 251.812C237.324 240.568 248.618 227.825 257.012 214.154C258.204 212.213 259.45 210.222 260.723 208.189C266.677 198.681 273.198 188.265 277.322 177.829C282.667 164.302 283.666 150.983 282.645 137.132C281.859 126.462 275.481 117.131 269.609 109.71C268.517 108.331 267.422 106.956 266.321 105.588ZM254.896 108.481C241.724 92.3648 228.06 77.8757 210.345 66.0961C207.095 63.9353 203.943 61.5508 200.959 59.2935C199.841 58.4481 198.747 57.6206 197.681 56.8293C193.641 53.8327 189.756 51.166 185.516 49.0845C177.629 45.2121 169.524 42.3621 160.753 40.1821C140.301 35.0989 121.264 34.3671 103.11 43.1615C99.331 44.9924 95.7869 47.1756 92.3918 49.6126C91.0578 52.197 89.815 54.8713 88.6386 57.613C87.0586 61.2951 85.6345 65.0032 84.281 68.7177C87.3917 64.9755 90.7492 61.4815 94.2263 58.2919C103.452 49.8289 115.044 47.5533 126.315 46.9301C138.322 46.2661 147.486 51.1465 155.72 56.1459C158.542 57.8588 160.759 60.0506 162.564 62.0826C163.474 63.1065 164.329 64.1476 165.111 65.1068C165.199 65.2152 165.286 65.3224 165.373 65.4283C166.071 66.2857 166.707 67.0659 167.349 67.8093C168.039 68.6088 168.807 69.4553 169.617 70.3472C172.589 73.6217 176.116 77.509 178.392 81.9392C182.913 90.7409 183.432 101.503 178.747 110.596C177.309 113.387 176.164 116.347 174.911 119.585C174.621 120.335 174.325 121.1 174.018 121.881C172.447 125.883 170.621 130.223 167.952 134.186C163.068 141.436 156.99 149.036 150.876 155.504C150.527 155.874 150.179 156.246 149.832 156.618C145.594 161.152 141.326 165.719 132.436 167.611L132.428 167.613C130.042 168.121 126.348 168.907 122.602 169.301C119.103 169.67 114.413 169.844 110.587 168.316C104.852 166.026 99.8104 162.885 96.1806 158.567C92.5001 154.189 90.5197 148.892 90.4483 142.735C90.3249 132.092 90.7775 121.493 94.2439 110.591C95.0138 108.169 95.7901 105.758 96.5642 103.352C99.1394 95.3514 101.691 87.4228 103.907 79.4602C105.663 73.1467 108.64 66.5815 113.183 61.042C115.006 58.8189 118.489 58.3447 120.963 59.9827C123.437 61.6208 123.965 64.7509 122.142 66.974C118.67 71.2084 116.205 76.4887 114.703 81.8856C112.433 90.0434 109.804 98.2114 107.218 106.246C106.453 108.623 105.692 110.988 104.944 113.338C101.929 122.821 101.456 132.253 101.576 142.631C101.625 146.814 102.923 149.997 105.061 152.54C107.249 155.143 110.564 157.364 115.107 159.178C115.981 159.527 118.032 159.714 121.306 159.369C124.328 159.051 127.432 158.399 129.872 157.88C135.099 156.768 137.151 154.591 141.652 149.817C141.892 149.562 142.139 149.3 142.394 149.031C148.118 142.975 153.851 135.808 158.431 129.008C160.462 125.994 161.974 122.5 163.524 118.554C163.788 117.879 164.056 117.187 164.328 116.482C165.589 113.219 166.955 109.681 168.648 106.395C171.826 100.227 171.583 92.5457 168.288 86.1298C166.658 82.9564 164.347 80.4003 161.564 77.3217C160.614 76.2702 159.608 75.1579 158.556 73.9392C157.812 73.0776 157.08 72.1783 156.394 71.3361C156.306 71.2287 156.22 71.1222 156.134 71.0169C155.353 70.0592 154.619 69.1677 153.868 68.3222C152.351 66.6154 150.955 65.3211 149.49 64.4318C141.454 59.5528 135.011 56.4681 126.999 56.9112C116.805 57.4748 108.558 59.4356 102.176 65.2897C87.153 79.0705 75.8473 97.876 77.3644 116.28C77.4644 117.493 77.5483 118.661 77.6293 119.789C78.063 125.83 78.416 130.745 80.7437 135.586C83.9678 142.291 87.9241 148.906 92.184 155.269C93.5655 157.332 94.8068 159.295 95.9941 161.172C99.3168 166.427 102.217 171.013 106.588 175.268C114.638 183.105 123.916 191.175 134.164 197.142C139.884 200.472 145.799 203.085 151.882 204.657C152.202 203.856 152.517 203.046 152.829 202.226C153.307 200.973 153.786 199.677 154.275 198.355C155.474 195.111 156.731 191.709 158.164 188.398C158.791 186.951 159.407 185.599 159.992 184.314C162.366 179.097 164.233 174.996 164.233 170.22C164.233 167.458 166.725 165.22 169.798 165.22C172.871 165.22 175.362 167.458 175.362 170.22C175.362 177.165 172.445 183.487 169.987 188.816C169.473 189.929 168.979 190.999 168.536 192.023C167.209 195.089 166.094 198.108 164.934 201.246C164.424 202.624 163.906 204.026 163.358 205.465C163.253 205.741 163.147 206.019 163.039 206.297C164.217 206.335 165.401 206.33 166.59 206.28C171.603 206.066 176.733 205.617 181.255 204.374C185.739 203.141 189.201 201.245 191.429 198.39C204.605 181.508 226.294 170.291 236.629 151.348C237.142 150.408 237.691 149.402 238.308 148.314C238.957 147.171 239.601 146.045 240.239 144.931C245.534 135.673 250.328 127.291 253.079 117.691C253.938 114.692 254.53 111.613 254.896 108.481ZM158.752 216.039C161.488 216.304 164.277 216.389 167.116 216.268C172.357 216.045 178.618 215.556 184.511 213.936C190.441 212.306 196.418 209.414 200.54 204.132C211.109 190.59 226.23 178.643 238.699 166.872C242.64 163.152 244.951 158.874 246.943 155.187C247.38 154.379 247.801 153.599 248.221 152.859C248.858 151.738 249.502 150.614 250.148 149.487C255.384 140.347 260.774 130.939 263.856 120.184C263.875 120.118 263.894 120.051 263.913 119.984C268.034 125.794 271.091 131.693 271.541 137.793C272.497 150.764 271.52 162.627 266.835 174.483C263.063 184.028 257.13 193.516 251.194 203.006C249.878 205.112 248.561 207.217 247.268 209.324C239.461 222.038 228.802 234.122 217.636 245.048L217.244 245.432C208.314 254.17 199.849 262.453 189.403 268.242C184.646 270.878 179.923 272.363 174.212 274.158C173.339 274.433 172.442 274.715 171.519 275.009C169.611 275.618 167.689 276.3 165.883 276.941C165.176 277.192 164.487 277.437 163.823 277.668C161.374 278.522 159.08 279.268 156.75 279.824C139.118 284.027 120.185 286.284 103.044 282.818C100.192 282.242 98.9558 281.488 97.9476 280.617C97.3302 280.084 96.7076 279.422 95.8547 278.451C95.6653 278.235 95.4622 278.001 95.2463 277.753C94.5488 276.95 93.7182 275.994 92.7883 275.001C87.4772 269.328 84.608 265.352 82.614 258.44C82.1293 256.76 81.6449 255.1 81.1648 253.454C80.8709 252.446 80.5785 251.443 80.2886 250.445C82.2771 250.794 84.2497 250.999 86.1678 251.118C89.6688 251.336 93.3225 251.275 96.6107 251.22C97.7192 251.201 98.7862 251.183 99.7917 251.177C124.239 251.026 145.513 238.489 156.833 219.5C157.518 218.351 158.155 217.196 158.752 216.039ZM147.522 213.923C140.617 211.994 134.124 209.034 128.113 205.534C116.707 198.893 106.688 190.109 98.4107 182.051C93.0926 176.874 89.3181 170.894 85.8334 165.374C84.7563 163.668 83.7068 162.005 82.6481 160.424C78.2108 153.796 74.0012 146.776 70.5279 139.553C69.2808 136.959 68.4526 134.317 67.8817 131.699C67.8697 141.58 68.2755 151.348 68.686 161.23C68.9528 167.651 69.2215 174.119 69.3789 180.698C69.7162 194.792 71.2538 208.925 73.5779 222.947C74.491 228.456 75.7179 233.782 77.1175 239.108C79.9785 240.331 83.2318 240.912 86.9354 241.142C89.9091 241.327 92.8335 241.278 95.9726 241.226C97.1831 241.206 98.4255 241.185 99.715 241.177C119.784 241.053 137.48 230.786 147.024 214.778C147.193 214.494 147.359 214.209 147.522 213.923ZM63.4324 229.15C63.1226 227.586 62.8341 226.01 62.5706 224.42C60.1924 210.072 58.6022 195.511 58.2528 180.913C58.1036 174.678 57.8422 168.357 57.5791 161.994C57.1106 150.661 56.6364 139.191 56.7793 127.822C56.9635 113.173 62.303 97.2368 67.0903 84.2503C68.1797 81.2953 69.2705 78.171 70.393 74.9561C71.405 72.0576 72.4428 69.0856 73.5282 66.0976C72.7997 66.8058 72.0701 67.5173 71.3384 68.2308C71.1102 68.4533 70.8819 68.6759 70.6533 68.8988C63.5844 75.7901 58.9185 84.3081 55.9095 93.6812C55.289 95.6142 54.6774 97.7526 54.0422 99.9736C52.9575 103.767 51.8039 107.8 50.4192 111.463C49.9012 112.833 49.3817 114.171 48.8712 115.485C46.6472 121.213 44.5962 126.495 43.5995 132.037C41.9669 141.114 42.2665 150.456 42.578 160.172C42.7055 164.148 42.835 168.186 42.835 172.294C42.835 191.601 46.7186 209.468 59.273 224.51C60.6247 226.129 62.0051 227.682 63.4324 229.15Z" fill="#665F4F"/>
</svg>
