<svg width="300" height="600" viewBox="0 0 300 600" fill="none" xmlns="http://www.w3.org/2000/svg">
<path d="M94.8211 78.5491C92.2179 81.2722 81.1774 93.9364 79.6277 110.239C78.6022 121.026 79.9893 131.924 80.9293 142.718C81.608 150.508 87.7396 183.113 85.9055 194.348C79.9613 230.789 49.6008 259.65 49.8868 298.006C50.1119 328.053 75.741 348.898 84.857 375.932C95.8794 408.624 85.4125 443.654 93.2533 476.695C97.8499 496.066 113.517 505.865 124.406 521.056C137.793 539.733 132.922 541.439 136.363 565.055C137.285 571.384 136.094 580.505 141.762 583.464C149.71 587.612 158.063 575.893 165.677 571.16C186.461 558.241 198.815 533.766 209.515 513.121C220.362 492.195 231.338 464.749 239.149 442.058C242.633 431.94 250.129 411.512 249.999 398.544C249.787 377.748 236.467 359.192 230.753 339.195C223.634 314.282 236.571 288.829 228.654 263.622C222.163 242.953 200.991 230.996 195.066 210.091C188.808 188.014 197.01 162.828 185.62 141.867C180.384 132.232 174.235 123.146 167.902 114.17L162.344 106.352C154.999 96.0463 147.691 85.7165 141.535 74.692C130.233 54.45 135.264 31.8612 114.246 16.962C104.136 9.7967 106.601 29.945 106.764 31.3337C107.727 39.559 108.738 45.546 108.437 53.8222C108.291 57.8486 95.8778 77.4447 94.8211 78.5491Z" fill="#E0B48F"/>
</svg>
