<svg width="500" height="500" viewBox="0 0 500 500" fill="none" xmlns="http://www.w3.org/2000/svg">
<path fill-rule="evenodd" clip-rule="evenodd" d="M52.6058 0C65.8285 8.95523 76.6324 21.2126 83.8333 35.588C91.0342 21.2126 101.838 8.95523 115.061 0H219.606C232.526 8.75029 243.137 20.6533 250.333 34.6044C257.53 20.6533 268.141 8.75029 281.061 0H385.606C398.829 8.95523 409.632 21.2126 416.833 35.588C424.034 21.2126 434.838 8.95523 448.061 0H500V32.0621C499.888 31.8451 499.777 31.6277 499.667 31.4097C490.623 49.2861 475.996 63.8583 458.079 72.8333C475.996 81.8083 490.623 96.3805 499.667 114.257C499.777 114.039 499.888 113.822 500 113.605V199.062C499.888 198.845 499.777 198.628 499.667 198.41C490.789 215.958 476.531 230.322 459.062 239.333C476.531 248.345 490.789 262.709 499.667 280.257C499.777 280.039 499.888 279.822 500 279.605V365.062C499.888 364.845 499.777 364.628 499.667 364.41C490.623 382.286 475.996 396.858 458.079 405.833C475.996 414.808 490.623 429.38 499.667 447.257C499.777 447.039 499.888 446.822 500 446.605V500H448.061C451.273 497.825 453.628 495.844 457.108 494.075C439.756 484.992 425.615 470.61 416.833 453.079C407.968 470.777 393.641 485.266 376.062 494.333C379.363 496.036 382.549 497.93 385.606 500H281.061C284.118 497.93 287.304 496.036 290.604 494.333C273.353 485.434 259.233 471.314 250.333 454.062C241.348 471.482 227.039 485.708 209.559 494.591C212.683 496.227 216.702 498.034 219.606 500H115.061C118.273 497.825 120.628 495.844 124.108 494.075C106.756 484.992 92.6153 470.61 83.8333 453.079C74.9678 470.777 60.6408 485.266 43.0623 494.333C46.3629 496.036 49.549 497.93 52.6058 500H0V446.605C9.06782 429.026 23.5561 414.699 41.2547 405.833C23.5561 396.968 9.06782 382.641 0 365.062V279.605C8.89928 262.353 23.0193 248.233 40.2712 239.333C23.0193 230.434 8.89927 216.314 0 199.062V113.605C9.06782 96.026 23.5561 81.6989 41.2547 72.8333C23.5561 63.9677 9.06782 49.6407 0 32.0621V0H52.6058ZM154.635 5.09537C125.34 10.2093 102.02 32.7092 95.698 61.5713C124.993 56.4573 148.314 33.9575 154.635 5.09537ZM489.466 483.867C486.937 449.543 460.782 421.788 427.201 416.8C429.73 451.123 455.884 478.878 489.466 483.867ZM374.588 405.833C356.671 396.858 342.044 382.286 333 364.41C323.956 382.286 309.329 396.858 291.412 405.833C309.329 414.808 323.956 429.381 333 447.257C342.044 429.381 356.671 414.808 374.588 405.833ZM406.476 416.657C372.363 421.24 345.682 449.277 343.19 484.01C377.303 479.427 403.985 451.39 406.476 416.657ZM487.747 339.076C481.108 367.503 457.935 389.572 428.92 394.591C435.558 366.164 458.732 344.095 487.747 339.076ZM416.833 369.588C425.864 351.56 440.56 336.864 458.588 327.833C440.56 318.803 425.864 304.106 416.833 286.079C407.803 304.106 393.106 318.803 375.079 327.833C393.106 336.864 407.803 351.56 416.833 369.588ZM260.509 416.796C294.119 421.777 320.294 449.562 322.803 483.916C289.71 479.157 263.755 452.302 260.374 418.783C260.426 418.122 260.471 417.46 260.509 416.796ZM207.921 405.833C190.004 396.858 175.377 382.286 166.333 364.41C157.289 382.286 142.662 396.858 124.745 405.833C142.662 414.808 157.289 429.38 166.333 447.257C175.377 429.38 190.004 414.808 207.921 405.833ZM176.517 484.097C178.979 449.209 205.844 421.059 240.147 416.612C240.187 417.338 240.236 418.062 240.293 418.783C236.866 452.755 210.251 479.882 176.517 484.097ZM404.787 394.763C398.123 365.914 374.439 343.579 344.88 338.904C351.543 367.753 375.228 390.088 404.787 394.763ZM321.094 339.017C314.447 367.585 291.103 389.744 261.906 394.65C268.553 366.081 291.897 343.922 321.094 339.017ZM250.333 368.604C259.401 351.026 273.889 336.699 291.588 327.833C273.889 318.968 259.401 304.641 250.333 287.062C241.266 304.641 226.777 318.968 209.079 327.833C226.777 336.699 241.266 351.026 250.333 368.604ZM489.466 316.867C486.937 282.543 460.782 254.788 427.201 249.8C429.73 284.123 455.884 311.878 489.466 316.867ZM373.604 239.333C356.136 230.322 341.878 215.958 333 198.41C324.122 215.958 309.864 230.322 292.396 239.333C309.864 248.345 324.122 262.709 333 280.257C341.878 262.709 356.136 248.345 373.604 239.333ZM406.476 249.657C372.363 254.24 345.682 282.277 343.19 317.01C377.303 312.427 403.985 284.39 406.476 249.657ZM428.685 228.631C458.163 223.631 481.654 201.04 487.982 172.036C458.504 177.036 435.012 199.626 428.685 228.631ZM416.833 202.588C425.864 184.56 440.56 169.864 458.588 160.833C440.56 151.803 425.864 137.106 416.833 119.079C407.803 137.106 393.106 151.803 375.079 160.833C393.106 169.864 407.803 184.56 416.833 202.588ZM156.129 483.816C153.586 449.631 127.607 421.972 94.2044 416.851C96.7472 451.036 122.726 478.695 156.129 483.816ZM73.4796 416.612C39.1911 421.057 12.3341 449.187 9.85384 484.054C44.1423 479.609 70.9993 451.48 73.4796 416.612ZM238.811 394.869C232.13 365.744 208.106 343.237 178.189 338.798C184.87 367.923 208.894 390.43 238.811 394.869ZM95.9342 394.53C124.766 389.399 147.768 367.421 154.399 339.137C125.568 344.268 102.565 366.246 95.9342 394.53ZM83.8333 369.588C92.8637 351.56 107.56 336.864 125.588 327.833C107.56 318.803 92.8637 304.106 83.8333 286.079C74.803 304.106 60.1063 318.803 42.0787 327.833C60.1063 336.864 74.803 351.56 83.8333 369.588ZM71.7991 394.817C65.127 365.829 41.2726 343.408 11.5343 338.85C18.2065 367.837 42.0609 390.259 71.7991 394.817ZM206.938 239.333C189.469 248.345 175.211 262.709 166.333 280.257C157.455 262.709 143.198 248.345 125.729 239.333C143.198 230.322 157.455 215.958 166.333 198.41C175.211 215.958 189.469 230.322 206.938 239.333ZM156.129 316.816C153.586 282.631 127.607 254.972 94.2044 249.851C96.7471 284.036 122.726 311.695 156.129 316.816ZM73.4796 249.612C70.9994 284.48 44.1423 312.609 9.85384 317.054C12.3341 282.187 39.1911 254.057 73.4796 249.612ZM260.509 249.796C294.119 254.777 320.294 282.562 322.803 316.916C289.71 312.157 263.755 285.302 260.374 251.783C260.426 251.123 260.471 250.46 260.509 249.796ZM176.517 317.097C178.979 282.209 205.844 254.059 240.147 249.612C240.187 250.338 240.236 251.062 240.293 251.783C236.866 285.755 210.251 312.882 176.517 317.097ZM209.079 160.833C226.777 169.699 241.266 184.026 250.333 201.604C259.401 184.026 273.889 169.699 291.588 160.833C273.889 151.968 259.401 137.641 250.333 120.062C241.266 137.641 226.777 151.968 209.079 160.833ZM239.04 228.902C232.68 199.203 208.336 176.173 177.96 171.764C184.32 201.464 208.664 224.493 239.04 228.902ZM95.698 228.571C124.994 223.457 148.314 200.958 154.635 172.095C125.34 177.209 102.02 199.709 95.698 228.571ZM83.8333 202.588C92.8637 184.56 107.56 169.864 125.588 160.833C107.56 151.803 92.8637 137.106 83.8333 119.079C74.803 137.106 60.1063 151.803 42.0787 160.833C60.1063 169.864 74.803 184.56 83.8333 202.588ZM405.018 228.799C398.672 199.374 374.669 176.517 344.649 171.868C350.995 201.292 374.998 224.15 405.018 228.799ZM321.328 171.978C291.668 176.862 268.006 199.543 261.672 228.689C291.332 223.804 314.994 201.124 321.328 171.978ZM72.0294 228.852C41.8307 224.322 17.6572 201.378 11.304 171.815C41.5027 176.345 65.6762 199.289 72.0294 228.852ZM489.384 149.855C486.423 116.027 460.494 88.7837 427.282 83.8118C430.243 117.64 456.173 144.883 489.384 149.855ZM374.588 72.8333C356.671 63.8583 342.044 49.2862 333 31.4097C323.956 49.2862 309.329 63.8583 291.412 72.8333C309.329 81.8084 323.956 96.3805 333 114.257C342.044 96.3805 356.671 81.8083 374.588 72.8333ZM406.397 83.6675C372.653 88.2383 346.199 115.761 343.27 149.999C377.013 145.428 403.468 117.906 406.397 83.6675ZM73.4007 83.6226C39.4816 88.0572 12.8523 115.671 9.93267 150.044C43.8518 145.609 70.4811 117.996 73.4007 83.6226ZM94.2868 83.8632C97.2595 117.553 123.014 144.701 156.047 149.803C153.074 116.114 127.32 88.966 94.2868 83.8632ZM124.745 72.8333C142.662 81.8083 157.289 96.3804 166.333 114.257C175.377 96.3804 190.004 81.8083 207.921 72.8333C190.004 63.8584 175.377 49.2863 166.333 31.4099C157.289 49.2863 142.662 63.8584 124.745 72.8333ZM260.447 83.7868C293.756 88.694 319.777 115.996 322.722 149.905C289.667 145.114 263.753 118.275 260.374 84.7829C260.4 84.4514 260.424 84.1193 260.447 83.7868ZM176.596 150.087C179.5 115.647 206.207 87.983 240.207 83.6044C240.233 83.9979 240.262 84.3907 240.293 84.7829C236.868 118.729 210.292 145.841 176.596 150.087ZM239.04 61.9024C208.664 57.4932 184.32 34.4636 177.96 4.76426C208.336 9.17342 232.68 32.203 239.04 61.9024ZM428.685 61.6309C458.163 56.631 481.654 34.0402 487.982 5.03577C458.504 10.0357 435.012 32.6265 428.685 61.6309ZM405.018 61.7991C398.672 32.3744 374.669 9.51714 344.649 4.86762C350.995 34.2923 374.998 57.1495 405.018 61.7991ZM321.328 4.97797C291.668 9.86247 268.006 32.5431 261.672 61.6887C291.332 56.8042 314.994 34.1236 321.328 4.97797ZM11.304 4.81509C17.6572 34.3776 41.8307 57.3215 72.0294 61.8516C65.6762 32.2891 41.5027 9.34515 11.304 4.81509Z" fill="#292524"/>
</svg>
