<svg width="500" height="500" viewBox="0 0 500 500" fill="none" xmlns="http://www.w3.org/2000/svg">
<path d="M59.2282 0L125.031 39.4333L190.762 0H229.638L125.037 62.753L20.3201 0H59.2282Z" fill="#2E3120"/>
<path d="M440.771 0H479.679L374.966 62.7513L270.253 0H309.161L374.966 39.435L440.771 0Z" fill="#2E3120"/>
<path d="M0 59.251V35.9347L125.031 110.861L249.929 35.932L374.966 110.863L500 35.9337L500 59.25L374.966 134.179L249.935 59.2517L125.037 134.181L0 59.251Z" fill="#2E3120"/>
<path d="M0 130.679V107.363L125.031 182.29L249.929 107.36L374.966 182.291L500 107.362L500 130.678L374.966 205.608L249.935 130.68L125.037 205.609L0 130.679Z" fill="#2E3120"/>
<path d="M0 202.107V178.791L125.031 253.717L249.929 178.788L374.966 253.719L500 178.79L500 202.106L374.966 277.035L249.935 202.108L125.037 277.037L0 202.107Z" fill="#2E3120"/>
<path d="M0 273.535V250.219L125.031 325.146L249.929 250.216L374.966 325.147L500 250.218L500 273.534L374.966 348.464L249.935 273.536L125.037 348.465L0 273.535Z" fill="#2E3120"/>
<path d="M0 344.963V321.647L125.031 396.574L249.929 321.644L374.966 396.575L500 321.646L500 344.962L374.966 419.892L249.935 344.964L125.037 419.893L0 344.963Z" fill="#2E3120"/>
<path d="M0 416.391V393.075L125.031 468.002L249.929 393.072L374.966 468.003L500 393.074L500 416.39L374.966 491.32L249.935 416.392L125.037 491.321L0 416.391Z" fill="#2E3120"/>
<path d="M0 487.819V464.503L59.2341 500H20.326L0 487.819Z" fill="#2E3120"/>
<path d="M270.259 500L249.935 487.82L229.632 500H190.756L249.929 464.5L309.167 500H270.259Z" fill="#2E3120"/>
<path d="M500 464.502L440.765 500H479.673L500 487.818L500 464.502Z" fill="#2E3120"/>
</svg>
