<svg width="500" height="500" viewBox="0 0 500 500" fill="none" xmlns="http://www.w3.org/2000/svg">
<path fill-rule="evenodd" clip-rule="evenodd" d="M500 82.6675C483.999 83.0044 468.815 85.3165 454.065 88.7227C455.542 107.378 457.572 126.391 459.642 145.783L459.643 145.787L459.649 145.848C459.93 148.474 460.211 151.108 460.492 153.748C461.367 161.983 462.236 170.283 463.06 178.649C467.924 177.783 472.906 177.062 478.019 176.514C485.332 175.731 492.701 175.126 500 174.285V179.332C492.885 180.155 485.68 180.722 478.552 181.486C473.423 182.035 468.426 182.764 463.546 183.641C466.231 211.647 468.324 240.378 468.354 269.824C478.764 265.287 489.276 261.394 500 258.777V263.928C489.367 266.623 478.866 270.617 468.336 275.295C468.202 292.368 467.348 309.679 465.49 327.227C464.861 335.456 464.215 344.222 463.565 353.287C474.955 348.58 487.012 344.193 500 340.573V345.767C486.886 349.495 474.71 354.019 463.167 358.87C461.251 385.857 459.313 415.012 457.633 440.295L457.018 449.551C457.567 449.305 458.117 449.058 458.666 448.811C458.914 448.699 459.161 448.588 459.409 448.476C462.33 447.159 465.248 445.835 468.163 444.512C478.795 439.685 489.391 434.875 500 430.526V435.934C490.146 440.024 480.271 444.507 470.273 449.045C467.348 450.373 464.412 451.706 461.463 453.035C459.86 453.757 458.252 454.479 456.642 455.197C455.324 474.956 454.23 491.094 453.525 500H448.51C449.179 491.628 450.219 476.352 451.479 457.484C435.911 464.322 419.974 470.761 403.455 475.487C388.099 479.881 372.242 482.792 355.688 483.194C355.625 489.172 355.843 494.81 356.41 500H351.381C350.839 494.784 350.629 489.162 350.689 483.239C327.57 483.085 303.077 477.922 276.689 465.023C274.525 478.561 272.519 490.602 270.832 500H265.752C267.528 490.168 269.678 477.251 272.003 462.661C270.963 462.121 269.92 461.568 268.874 461.004C262.289 457.909 255.935 454.884 249.771 451.95L249.745 451.938L249.743 451.937C237.673 446.191 226.332 440.793 215.422 435.894C212 454.289 209.008 473.423 207.171 494.736C207.009 496.611 206.862 498.358 206.728 500H201.711C201.855 498.231 202.014 496.342 202.19 494.306C204.083 472.341 207.193 452.661 210.725 433.806C186.61 423.19 164.432 415.182 140.863 411.491C140.76 411.475 140.657 411.459 140.554 411.443L140.37 411.414C137.771 428.733 134.598 446.776 130.739 465.48C129.138 474.124 127.704 481.296 126.506 487.287C125.504 492.294 124.668 496.475 124.038 500H118.961C119.618 496.238 120.532 491.664 121.633 486.153C122.837 480.127 124.265 472.979 125.827 464.545L125.832 464.52L125.837 464.495C129.676 445.891 132.833 427.945 135.419 410.719C108.153 407.263 78.6471 409.658 41.9749 420.731C39.8694 447.291 38.1063 473.775 37.2835 500H32.2814C33.085 474.277 34.7897 448.318 36.8332 422.326C25.3079 425.993 13.0785 430.499 0 435.927L0 430.518C13.2055 425.093 25.5771 420.597 37.2605 416.949C38.4035 402.715 39.6365 388.474 40.8671 374.261L40.8674 374.257C41.5644 366.208 42.2606 358.167 42.9393 350.141C43.3478 345.309 43.75 340.483 44.1423 335.663C30.6342 338.196 16.0078 341.537 0 345.761V340.591C16.1305 336.362 30.8953 333.022 44.5588 330.499C46.6006 304.943 48.3263 279.577 49.1972 254.571C34.0742 256.561 17.8601 259.669 0 263.956V258.815C17.8615 254.562 34.1344 251.476 49.3619 249.507C50.1249 224.217 49.9727 199.308 48.3446 174.957C31.4521 175.639 16.8367 177.355 3.55313 178.915C2.35821 179.055 1.17406 179.194 0 179.331V174.288C0.822525 174.192 1.65106 174.094 2.48576 173.997C15.857 172.43 30.8116 170.678 47.9893 169.974C46.1186 145.318 43.0785 127.643 40.1369 110.54C39.1722 104.932 38.2181 99.3844 37.3193 93.6729C36.7427 90.0085 36.1904 86.2841 35.6745 82.4414C22.3756 82.2363 10.3148 82.3818 0 82.7477V77.745C10.1587 77.388 21.9945 77.2424 35.0322 77.4316C33.1263 61.8109 31.8689 43.9571 32.0041 20.2871C20.5501 19.7637 9.86076 19.3779 0 19.0925L0 14.0904C9.87503 14.3755 20.5806 14.761 32.0525 15.2841C32.1181 10.4362 32.2403 5.35081 32.4248 0H37.4278C37.239 5.44096 37.115 10.6039 37.0497 15.5185C47.5675 16.0254 58.698 16.6481 70.3947 17.4135C83.9136 18.2981 99.4166 20.6247 115.873 23.5309C116.354 16.1643 117.337 8.37099 118.931 0H124.023C122.321 8.72882 121.297 16.8057 120.826 24.4173C127.033 25.5415 133.358 26.7345 139.748 27.9514C141.933 28.3674 144.125 28.7863 146.323 29.2063L146.38 29.2171C164.29 32.639 182.594 36.1362 200.247 38.7821C199.626 25.6479 199.919 12.7294 201.493 0L206.532 0C204.888 12.9333 204.605 26.0863 205.286 39.5161C208.823 40.0159 212.33 40.4773 215.797 40.8927C230.899 42.7021 245.609 43.2902 260.047 42.9928C260.679 29.6876 262.442 15.4848 265.691 0H270.802C267.504 15.46 265.708 29.6078 265.059 42.8542C296.143 41.777 326.025 36.7427 355.919 31.1456C354.037 19.5881 352.46 9.18494 351.434 0L356.466 0C357.476 8.89292 359.012 18.9884 360.843 30.2191C363.764 29.6674 366.685 29.1121 369.608 28.5564L369.612 28.5555C395.141 23.7023 420.82 18.8203 447.309 16.0889C447.579 10.6977 447.962 5.33461 448.472 0L453.495 0C452.993 5.17082 452.613 10.3698 452.34 15.5975C467.892 14.1642 483.735 13.5136 500 14.0814V19.0845C483.663 18.5049 467.754 19.1724 452.11 20.639C451.306 41.2011 452.093 62.2068 453.68 83.688C468.527 80.303 483.87 78 500 77.6668V82.6675ZM209.181 105.962C210.878 114.916 212.701 123.977 214.552 133.152L214.895 134.85C219.256 156.459 223.754 178.745 227.172 201.862C197.618 191.309 171.426 183.984 148.027 179.018C144.932 146.727 138.269 122.685 132.292 101.121C131.179 97.1066 130.09 93.1776 129.052 89.2974C156.005 92.9489 183.488 98.3052 209.181 105.962ZM214.588 107.617C222.989 110.255 231.177 113.149 239.068 116.32L239.134 116.346L239.203 116.369C249.492 119.832 259.416 122.291 269.033 123.909C270.925 131.827 272.982 139.732 275.081 147.758L275.468 149.238C281.391 171.879 287.593 195.588 291.344 223.475C274.278 221.592 255.862 215.964 235.188 204.8L235.032 204.716L234.865 204.654C234.077 204.364 233.29 204.075 232.507 203.789C229.029 179.605 224.346 156.403 219.836 134.061L219.453 132.163C217.778 123.86 216.133 115.681 214.588 107.617ZM240.865 111.653C250.131 114.768 259.091 117.048 267.796 118.618C262.723 96.4142 259.168 73.8643 259.862 47.9966C245.306 48.2846 230.455 47.6847 215.203 45.8572C212.028 45.4768 208.821 45.0583 205.589 44.6075C206.851 63.171 209.843 82.2712 213.536 102.056C222.929 104.934 232.076 108.124 240.865 111.653ZM369.055 114.839C339.51 123.568 308.894 129.488 274.373 124.726C276.119 131.929 277.998 139.149 279.919 146.493L280.312 147.998C286.332 171.008 292.675 195.257 296.449 223.931C297.856 224.027 299.253 224.098 300.643 224.145C320.319 224.815 338.488 220.694 356.708 214.54C363.527 212.237 370.275 209.68 377.082 206.998C375.837 173.408 372.733 142.576 369.055 114.839ZM368.379 109.824C338.415 118.73 307.76 124.662 273.13 119.497C267.856 96.8253 264.134 74.0621 264.866 47.8628C296.473 46.7995 326.73 41.6969 356.729 36.0808C357.392 40.0901 358.085 44.2298 358.8 48.4975L358.808 48.5421C361.852 66.7137 365.285 87.2044 368.379 109.824ZM373.909 113.378C374.777 113.112 375.644 112.844 376.511 112.574C384.736 110.014 392.877 107.295 401.007 104.579C416.921 99.2636 432.788 93.9635 449.142 89.9029C450.617 108.359 452.619 127.104 454.65 146.126L454.651 146.13C454.94 148.84 455.23 151.556 455.52 154.277C456.41 162.656 457.293 171.091 458.128 179.583C441.936 182.834 427.038 187.63 412.905 192.875C404.54 195.979 396.533 199.202 388.695 202.356L388.694 202.357L388.692 202.358L388.689 202.359L388.671 202.366C386.435 203.266 384.213 204.16 382.001 205.045C380.695 171.628 377.577 140.949 373.909 113.378ZM399.094 99.9383C415.332 94.5102 431.734 89.0269 448.752 84.8543C447.135 63.21 446.311 41.9656 447.088 21.1376C421.108 23.8586 395.814 28.6658 370.446 33.4869C367.517 34.0436 364.587 34.6005 361.655 35.1543C362.303 39.0752 362.982 43.1255 363.683 47.3028L363.684 47.3112C366.71 65.3605 370.133 85.7792 373.231 108.356C373.829 108.172 374.427 107.987 375.025 107.8C383.044 105.304 391.049 102.628 399.094 99.9383ZM414.644 197.562C428.487 192.425 442.962 187.765 458.613 184.586C461.337 213.085 463.43 242.228 463.353 272.054C460.501 273.352 457.656 274.692 454.815 276.06C448.577 279.062 442.379 282.188 436.173 285.318C424.05 291.431 411.893 297.562 399.332 302.829C392.807 305.565 386.202 308.055 379.487 310.163C382.643 274.777 383.215 241.409 382.192 210.35C385.057 209.21 387.933 208.054 390.822 206.892C398.659 203.741 406.59 200.551 414.644 197.562ZM456.983 280.565C459.097 279.548 461.206 278.549 463.314 277.574C463.124 293.758 462.272 310.144 460.514 326.737L460.51 326.773L460.508 326.809C459.817 335.832 459.109 345.486 458.396 355.462C454.667 357.06 451.006 358.685 447.406 360.322C440.539 363.443 433.922 366.589 427.463 369.659L427.462 369.66L427.454 369.664L427.452 369.664C415.006 375.581 403.15 381.218 391.236 385.858C383.275 388.958 375.35 391.585 367.306 393.514C367.482 392.553 367.658 391.595 367.834 390.64C368.003 389.724 368.171 388.811 368.338 387.902C371.705 369.623 374.833 352.636 376.341 339.298C377.358 331.286 378.237 323.367 378.988 315.546C386.563 313.26 393.977 310.497 401.266 307.44C413.979 302.109 426.423 295.835 438.646 289.672C444.813 286.563 450.923 283.482 456.983 280.565ZM449.475 364.874C452.281 363.598 455.12 362.331 457.997 361.08C456.131 387.468 454.258 415.671 452.63 440.179L452.627 440.215L452.627 440.219C452.362 444.203 452.104 448.089 451.854 451.854C435.597 459.051 419.126 465.803 402.08 470.68C387.168 474.946 371.814 477.779 355.802 478.191C356.419 460.37 359.244 439.943 362.685 419.509C363.849 412.597 365.085 405.681 366.325 398.874C375.39 396.843 384.238 393.949 393.05 390.517C405.122 385.816 417.267 380.044 429.823 374.076L429.827 374.074L429.828 374.073L429.83 374.072L429.837 374.069L429.852 374.061C436.27 371.011 442.796 367.909 449.475 364.874ZM377.262 212.296C370.899 214.785 364.586 217.156 358.308 219.277C339.78 225.535 320.975 229.84 300.473 229.143C299.347 229.104 298.217 229.051 297.081 228.982C299.898 252.722 300.905 279.51 298.547 311.056C326.103 319.91 350.926 318.282 374.329 311.699C377.567 276.45 378.218 243.23 377.262 212.296ZM373.822 317.022C350.51 323.3 325.626 324.757 298.139 316.173C297.941 318.504 297.724 320.862 297.489 323.245L297.485 323.288L297.479 323.329C295.23 340.252 292.079 362.704 288.629 386.391C305.907 393.562 321.451 396.705 335.995 397.028C344.948 397.227 353.56 396.358 362.007 394.677C362.498 391.998 362.987 389.344 363.471 386.72L363.471 386.718C366.813 368.578 369.885 351.901 371.375 338.719L371.377 338.702L371.379 338.685C372.306 331.384 373.117 324.162 373.822 317.022ZM361.045 399.952C352.902 401.452 344.558 402.219 335.884 402.027C320.984 401.696 305.207 398.534 287.885 391.49C284.484 414.722 280.84 438.834 277.511 459.853C303.713 472.901 327.938 478.098 350.799 478.24C351.414 459.928 354.309 439.138 357.755 418.679C358.816 412.379 359.928 406.113 361.045 399.952ZM233.297 209.461C254.762 220.983 274.02 226.759 291.996 228.571C294.834 251.968 295.896 278.326 293.657 309.384C286.683 306.856 279.534 303.652 272.188 299.685L272.092 299.633L271.992 299.59C259.939 294.381 248.604 289.521 237.839 285.026C238.52 258.781 236.556 233.632 233.297 209.461ZM269.908 304.136C277.903 308.447 285.679 311.884 293.257 314.551C293.035 317.237 292.789 319.957 292.517 322.713C290.311 339.314 287.241 361.199 283.876 384.335C279.59 382.408 275.198 380.235 270.688 377.8L270.627 377.767L270.563 377.737C263.007 374.186 255.798 370.743 248.861 367.43L248.86 367.43C242.495 364.39 236.361 361.461 230.4 358.658C233.683 338.962 236.32 317.958 237.497 294.123C237.558 292.871 237.614 291.621 237.663 290.374C247.836 294.633 258.542 299.224 269.908 304.136ZM268.374 382.233C273.419 384.956 278.332 387.362 283.126 389.474C279.76 412.501 276.145 436.458 272.83 457.449C272.283 457.16 271.736 456.867 271.188 456.571L271.126 456.538L271.063 456.508C264.494 453.421 258.137 450.393 251.952 447.448L251.94 447.443L251.938 447.441C239.483 441.51 227.731 435.914 216.376 430.839C218.055 422.063 219.817 413.428 221.584 404.772L221.585 404.771L221.591 404.737L221.595 404.718C222.133 402.086 222.67 399.451 223.206 396.81C225.401 385.997 227.561 375.086 229.528 363.779C235.036 366.374 240.71 369.083 246.598 371.893C253.535 375.205 260.768 378.658 268.374 382.233ZM227.977 207.463C198.237 196.73 171.935 189.282 148.489 184.23C148.809 188.156 149.076 192.201 149.282 196.376L149.376 198.27L149.376 198.271C150.095 212.751 151.036 231.725 151.26 254.657C176.297 260.755 202.317 270.327 232.886 282.968C233.438 256.769 231.345 231.659 227.977 207.463ZM232.736 288.32C201.984 275.558 176.074 265.952 151.297 259.814C151.393 280.022 150.908 303.125 149.244 328.784C175.002 334.082 198.66 343.871 225.697 356.457C228.85 337.299 231.365 316.922 232.503 293.877C232.594 292.019 232.672 290.167 232.736 288.32ZM224.835 361.577C197.641 348.879 174.3 339.126 148.904 333.819C147.335 356.225 144.861 380.513 141.1 406.468L141.394 406.513L141.637 406.551C165.364 410.267 187.722 418.273 211.683 428.763C213.302 420.345 214.991 412.068 216.68 403.798L216.681 403.795L216.682 403.787C217.224 401.131 217.767 398.475 218.306 395.816C220.584 384.591 222.818 373.292 224.835 361.577ZM200.532 43.8797C182.44 41.1978 163.684 37.614 145.465 34.1328C143.239 33.7074 141.021 33.2836 138.813 32.8631C132.642 31.688 126.554 30.5397 120.591 29.4565C119.964 49.5333 123.173 66.5023 127.68 84.0695C154.656 87.6432 182.241 92.9042 208.15 100.447C204.59 81.1161 201.718 62.2844 200.532 43.8797ZM124.162 90.3644C124.004 89.773 123.847 89.1824 123.691 88.5925C94.1889 84.8292 65.5119 83.0731 40.7326 82.5354C41.2139 86.0728 41.7259 89.5104 42.2586 92.8957C43.1418 98.5085 44.0858 103.996 45.0445 109.569L45.0447 109.57C48.002 126.761 51.1 144.77 52.9905 169.802C58.9509 169.635 65.173 169.602 71.6819 169.751C92.1783 170.218 115.6 172.47 142.9 177.959C139.793 146.926 133.354 123.687 127.483 102.497L127.483 102.495C126.345 98.3886 125.228 94.3589 124.162 90.3644ZM71.568 174.749C92.1218 175.218 115.724 177.507 143.383 183.158C143.753 187.492 144.058 191.976 144.288 196.624L144.382 198.506C145.086 212.696 146.003 231.187 146.247 253.48C140.565 252.196 134.922 251.094 129.275 250.179C105.391 246.308 81.4958 245.784 54.3822 248.895C55.1213 223.79 54.9581 199.025 53.3445 174.789C59.1425 174.632 65.2052 174.604 71.568 174.749ZM128.475 255.114C134.397 256.074 140.318 257.243 146.29 258.617C146.411 278.854 145.951 302.039 144.295 327.826C117.344 322.943 87.8397 322.977 49.6473 329.589C51.6673 304.179 53.3706 278.903 54.2216 253.947C81.2594 250.786 104.902 251.294 128.475 255.114ZM49.234 334.737C87.885 327.931 117.274 327.937 143.96 332.848C142.401 355.32 139.927 379.701 136.148 405.772C108.499 402.252 78.7989 404.614 42.4031 415.385C43.4988 401.837 44.6731 388.272 45.8467 374.715L45.8495 374.683L45.8499 374.677C46.5462 366.635 47.2423 358.594 47.9215 350.562C48.3679 345.283 48.807 340.007 49.234 334.737ZM70.0682 22.4028C83.5135 23.2826 99.0194 25.6221 115.618 28.5639C114.896 48.8269 117.966 65.9675 122.347 83.3837C93.0342 79.7273 64.6248 78.0301 40.0807 77.5207C38.1573 61.9808 36.8755 44.2163 37.0028 20.522C47.4363 21.026 58.4734 21.6441 70.0682 22.4028Z" fill="#2E3120"/>
</svg>
