<svg width="500" height="500" viewBox="0 0 500 500" fill="none" xmlns="http://www.w3.org/2000/svg">
<path d="M0 333.333H83.3333V416.667H0V333.333Z" fill="#2E3120"/>
<path d="M0 166.667H83.3333V250H0V166.667Z" fill="#2E3120"/>
<path d="M0 8.01375e-06H83.3333V83.3333H0V8.01375e-06Z" fill="#2E3120"/>
<path d="M166.667 416.667V500H83.3333V416.667H166.667Z" fill="#2E3120"/>
<path d="M333.333 416.667V500H250V416.667H333.333Z" fill="#2E3120"/>
<path d="M500 416.667V500H416.667V416.667H500Z" fill="#2E3120"/>
<path d="M250 3.64262e-06V83.3333H166.667V0L250 3.64262e-06Z" fill="#2E3120"/>
<path d="M250 166.667V250L166.667 250V166.667H250Z" fill="#2E3120"/>
<path d="M250 333.333V416.667H166.667V333.333H250Z" fill="#2E3120"/>
<path d="M416.667 3.64262e-06V83.3333H333.333V0L416.667 3.64262e-06Z" fill="#2E3120"/>
<path d="M416.667 166.667V250L333.333 250V166.667H416.667Z" fill="#2E3120"/>
<path d="M416.667 333.333V416.667H333.333V333.333H416.667Z" fill="#2E3120"/>
<path d="M166.667 83.3333V166.667H83.3333V83.3333H166.667Z" fill="#2E3120"/>
<path d="M166.667 250V333.333H83.3333V250H166.667Z" fill="#2E3120"/>
<path d="M333.333 83.3333V166.667H250V83.3333H333.333Z" fill="#2E3120"/>
<path d="M333.333 250V333.333H250V250L333.333 250Z" fill="#2E3120"/>
<path d="M416.667 250L500 250V333.333H416.667V250Z" fill="#2E3120"/>
<path d="M416.667 83.3333H500V166.667H416.667V83.3333Z" fill="#2E3120"/>
</svg>
