<svg width="500" height="500" viewBox="0 0 500 500" fill="none" xmlns="http://www.w3.org/2000/svg">
<path d="M245.36 416.667C245.36 462.69 208.05 500 162.026 500C116.003 500 78.6934 462.69 78.6934 416.667C78.6934 370.643 116.003 333.333 162.026 333.333C208.05 333.333 245.36 370.643 245.36 416.667Z" fill="#F5BD33"/>
<path d="M245.36 250C245.36 296.024 208.05 333.333 162.026 333.333C116.003 333.333 78.6934 296.024 78.6934 250C78.6934 203.976 116.003 166.667 162.026 166.667C208.05 166.667 245.36 203.976 245.36 250Z" fill="#336BB7"/>
<path d="M245.36 83.3333C245.36 129.357 208.05 166.667 162.026 166.667C116.003 166.667 78.6934 129.357 78.6934 83.3333C78.6934 37.3096 116.003 0 162.026 0C208.05 0 245.36 37.3096 245.36 83.3333Z" fill="#43A363"/>
<path d="M412.028 416.667C412.028 462.69 374.718 500 328.694 500C282.67 500 245.361 462.69 245.361 416.667C245.361 370.643 282.67 333.333 328.694 333.333C374.718 333.333 412.028 370.643 412.028 416.667Z" fill="#336BB7"/>
<path d="M412.028 250C412.028 296.024 374.718 333.333 328.694 333.333C282.67 333.333 245.361 296.024 245.361 250C245.361 203.976 282.67 166.667 328.694 166.667C374.718 166.667 412.028 203.976 412.028 250Z" fill="#43A363"/>
<path d="M412.028 83.3333C412.028 129.357 374.718 166.667 328.694 166.667C282.67 166.667 245.361 129.357 245.361 83.3333C245.361 37.3096 282.67 0 328.694 0C374.718 0 412.028 37.3096 412.028 83.3333Z" fill="#F5BD33"/>
<path d="M0 166.54C43.8658 164.133 78.694 127.8 78.694 83.3333C78.694 38.8663 43.8658 2.53388 0 0.126953V166.54Z" fill="#336BB7"/>
<path d="M0 333.206V166.794C43.8658 169.2 78.694 205.533 78.694 250C78.694 294.467 43.8658 330.799 0 333.206Z" fill="#F5BD33"/>
<path d="M0 499.873V333.46C43.8658 335.867 78.694 372.199 78.694 416.667C78.694 461.134 43.8658 497.466 0 499.873Z" fill="#43A363"/>
<path d="M499.999 0.126959V166.54C498.463 166.624 496.917 166.667 495.36 166.667C449.336 166.667 412.027 129.357 412.027 83.3333C412.027 37.3096 449.336 0 495.36 0C496.917 0 498.463 0.0426889 499.999 0.126959Z" fill="#336BB7"/>
<path d="M499.999 166.794V333.206C498.463 333.291 496.917 333.333 495.36 333.333C449.336 333.333 412.027 296.024 412.027 250C412.027 203.976 449.336 166.667 495.36 166.667C496.917 166.667 498.463 166.709 499.999 166.794Z" fill="#F5BD33"/>
<path d="M499.999 499.873C498.463 499.957 496.917 500 495.36 500C449.336 500 412.027 462.69 412.027 416.667C412.027 370.643 449.336 333.333 495.36 333.333C496.917 333.333 498.463 333.376 499.999 333.46V499.873Z" fill="#43A363"/>
</svg>
