<svg width="500" height="500" viewBox="0 0 500 500" fill="none" xmlns="http://www.w3.org/2000/svg">
<path d="M305.83 128.333V118.333H315.83V128.333H305.83Z" fill="#F5BD33"/>
<path d="M305.83 315.833V305.833H315.83V315.833H305.83Z" fill="#336BB7"/>
<path d="M305.83 65.834V55.834H315.83V65.834H305.83Z" fill="#336BB7"/>
<path d="M305.83 253.333V243.333H315.83V253.333H305.83Z" fill="#F5BD33"/>
<path d="M305.83 190.833V180.833H315.83V190.833H305.83Z" fill="#336BB7"/>
<path d="M305.83 378.333V368.333H315.83V378.333H305.83Z" fill="#F5BD33"/>
<path d="M305.83 440.833V430.833H315.83V440.833H305.83Z" fill="#336BB7"/>
<path d="M118.33 128.333V118.333H128.33V128.333H118.33Z" fill="#336BB7"/>
<path d="M118.33 315.833V305.833H128.33V315.833H118.33Z" fill="#F5BD33"/>
<path d="M118.33 65.834V55.834H128.33V65.834H118.33Z" fill="#F5BD33"/>
<path d="M118.33 253.333V243.333H128.33V253.333H118.33Z" fill="#336BB7"/>
<path d="M118.33 190.833V180.833H128.33V190.833H118.33Z" fill="#F5BD33"/>
<path d="M118.33 378.333V368.333H128.33V378.333H118.33Z" fill="#336BB7"/>
<path d="M118.33 440.833V430.833H128.33V440.833H118.33Z" fill="#F5BD33"/>
<path d="M430.83 128.333V118.333H440.83V128.333H430.83Z" fill="#F5BD33"/>
<path d="M430.83 315.833V305.833H440.83V315.833H430.83Z" fill="#336BB7"/>
<path d="M430.83 65.834V55.834H440.83V65.834H430.83Z" fill="#336BB7"/>
<path d="M430.83 253.333V243.333H440.83V253.333H430.83Z" fill="#F5BD33"/>
<path d="M430.83 190.833V180.833H440.83V190.833H430.83Z" fill="#336BB7"/>
<path d="M430.83 378.333V368.333H440.83V378.333H430.83Z" fill="#F5BD33"/>
<path d="M430.83 440.833V430.833H440.83V440.833H430.83Z" fill="#336BB7"/>
<path d="M243.33 128.333V118.333H253.33V128.333H243.33Z" fill="#336BB7"/>
<path d="M243.33 315.833V305.833H253.33V315.833H243.33Z" fill="#F5BD33"/>
<path d="M243.33 65.834V55.834H253.33V65.834H243.33Z" fill="#F5BD33"/>
<path d="M243.33 253.333V243.333H253.33V253.333H243.33Z" fill="#336BB7"/>
<path d="M243.33 190.833V180.833H253.33V190.833H243.33Z" fill="#F5BD33"/>
<path d="M243.33 378.333V368.333H253.33V378.333H243.33Z" fill="#336BB7"/>
<path d="M243.33 440.833V430.833H253.33V440.833H243.33Z" fill="#F5BD33"/>
<path d="M55.8301 128.333V118.333H65.8301V128.333H55.8301Z" fill="#F5BD33"/>
<path d="M55.8301 315.833V305.833H65.8301V315.833H55.8301Z" fill="#336BB7"/>
<path d="M55.8301 65.834V55.834H65.8301V65.834H55.8301Z" fill="#336BB7"/>
<path d="M55.8301 253.333V243.333H65.8301V253.333H55.8301Z" fill="#F5BD33"/>
<path d="M55.8301 190.833V180.833H65.8301V190.833H55.8301Z" fill="#336BB7"/>
<path d="M55.8301 378.333V368.333H65.8301V378.333H55.8301Z" fill="#F5BD33"/>
<path d="M55.8301 440.833V430.833H65.8301V440.833H55.8301Z" fill="#336BB7"/>
<path d="M368.33 128.333V118.333H378.33V128.333H368.33Z" fill="#336BB7"/>
<path d="M368.33 315.833V305.833H378.33V315.833H368.33Z" fill="#F5BD33"/>
<path d="M368.33 65.834V55.834H378.33V65.834H368.33Z" fill="#F5BD33"/>
<path d="M368.33 253.333V243.333H378.33V253.333H368.33Z" fill="#336BB7"/>
<path d="M368.33 190.833V180.833H378.33V190.833H368.33Z" fill="#F5BD33"/>
<path d="M368.33 378.333V368.333H378.33V378.333H368.33Z" fill="#336BB7"/>
<path d="M368.33 440.833V430.833H378.33V440.833H368.33Z" fill="#F5BD33"/>
<path d="M180.83 128.333V118.333H190.83V128.333H180.83Z" fill="#F5BD33"/>
<path d="M180.83 315.833V305.833H190.83V315.833H180.83Z" fill="#336BB7"/>
<path d="M180.83 65.834V55.834H190.83V65.834H180.83Z" fill="#336BB7"/>
<path d="M180.83 253.333V243.333H190.83V253.333H180.83Z" fill="#F5BD33"/>
<path d="M180.83 190.833V180.833H190.83V190.833H180.83Z" fill="#336BB7"/>
<path d="M180.83 378.333V368.333H190.83V378.333H180.83Z" fill="#F5BD33"/>
<path d="M180.83 440.833V430.833H190.83V440.833H180.83Z" fill="#336BB7"/>
<path d="M5 0V5H0V0H5Z" fill="#336BB7"/>
<path d="M0 65.834V55.834H5V65.834H0Z" fill="#F5BD33"/>
<path d="M0 128.333V118.333H5V128.333H0Z" fill="#336BB7"/>
<path d="M0 190.833V180.833H5V190.833H0Z" fill="#F5BD33"/>
<path d="M0 253.333V243.333H5V253.333H0Z" fill="#336BB7"/>
<path d="M0 315.833V305.833H5V315.833H0Z" fill="#F5BD33"/>
<path d="M0 378.333V368.333H5V378.333H0Z" fill="#336BB7"/>
<path d="M0 440.833V430.833H5V440.833H0Z" fill="#F5BD33"/>
<path d="M5 500H0V495H5V500Z" fill="#336BB7"/>
<path d="M65.8301 500H55.8301V495H65.8301V500Z" fill="#F5BD33"/>
<path d="M128.33 500H118.33V495H128.33V500Z" fill="#336BB7"/>
<path d="M190.83 500H180.83V495H190.83V500Z" fill="#F5BD33"/>
<path d="M253.33 500H243.33V495H253.33V500Z" fill="#336BB7"/>
<path d="M315.83 500H305.83V495H315.83V500Z" fill="#F5BD33"/>
<path d="M378.33 500H368.33V495H378.33V500Z" fill="#336BB7"/>
<path d="M440.83 500H430.83V495H440.83V500Z" fill="#F5BD33"/>
<path d="M500 495V500H495V495H500Z" fill="#336BB7"/>
<path d="M500 430.833V440.833H495V430.833H500Z" fill="#F5BD33"/>
<path d="M500 368.333V378.333H495V368.333H500Z" fill="#336BB7"/>
<path d="M500 305.833V315.833H495V305.833H500Z" fill="#F5BD33"/>
<path d="M500 243.333V253.333H495V243.333H500Z" fill="#336BB7"/>
<path d="M500 180.833V190.833H495V180.833H500Z" fill="#F5BD33"/>
<path d="M500 118.333V128.333H495V118.333H500Z" fill="#336BB7"/>
<path d="M500 55.834V65.834H495V55.834H500Z" fill="#F5BD33"/>
<path d="M495 0V5H500V0H495Z" fill="#336BB7"/>
<path d="M430.83 0V5H440.83V0H430.83Z" fill="#F5BD33"/>
<path d="M368.33 0V5H378.33V0H368.33Z" fill="#336BB7"/>
<path d="M305.83 0V5H315.83V0H305.83Z" fill="#F5BD33"/>
<path d="M243.33 0V5H253.33V0H243.33Z" fill="#336BB7"/>
<path d="M180.83 0V5H190.83V0H180.83Z" fill="#F5BD33"/>
<path d="M118.33 0V5H128.33V0H118.33Z" fill="#336BB7"/>
<path d="M55.8301 0V5H65.8301V0H55.8301Z" fill="#F5BD33"/>
</svg>
