<svg width="500" height="500" viewBox="0 0 500 500" fill="none" xmlns="http://www.w3.org/2000/svg">
<path d="M150 200L200 150L250 200L200 250L150 200Z" fill="#43A363"/>
<path d="M50 200L99.9999 150L150 200L99.9999 250L50 200Z" fill="#336BB7"/>
<path d="M250 200L300 150L350 200L300 250L250 200Z" fill="#43A363"/>
<path d="M150 400L200 350L250 400L200 450L150 400Z" fill="#336BB7"/>
<path d="M50 400L99.9999 350L150 400L99.9999 450L50 400Z" fill="#43A363"/>
<path d="M250 400L300 350L350 400L300 450L250 400Z" fill="#336BB7"/>
<path d="M150 100L200 50L250 100L200 150L150 100Z" fill="#336BB7"/>
<path d="M50 100L99.9999 50L150 100L99.9999 150L50 100Z" fill="#43A363"/>
<path d="M250 100L300 50L350 100L300 150L250 100Z" fill="#336BB7"/>
<path d="M150 300L200 250L250 300L200 350L150 300Z" fill="#43A363"/>
<path d="M50 300L99.9999 250L150 300L99.9999 350L50 300Z" fill="#336BB7"/>
<path d="M250 300L300 250L350 300L300 350L250 300Z" fill="#43A363"/>
<path d="M350 200L400 150L450 200L400 250L350 200Z" fill="#336BB7"/>
<path d="M350 400L400 350L450 400L400 450L350 400Z" fill="#43A363"/>
<path d="M350 100L400 50L450 100L400 150L350 100Z" fill="#43A363"/>
<path d="M350 300L400 250L450 300L400 350L350 300Z" fill="#336BB7"/>
<path d="M50 0H0V50L50 0Z" fill="#43A363"/>
<path d="M0 150V50L50 100L0 150Z" fill="#43A363"/>
<path d="M150 0H50L99.9999 50L150 0Z" fill="#43A363"/>
<path d="M250 0H150L200 50L250 0Z" fill="#336BB7"/>
<path d="M350 0H250L300 50L350 0Z" fill="#336BB7"/>
<path d="M450 0H350L400 50L450 0Z" fill="#43A363"/>
<path d="M500 50V0H450L500 50Z" fill="#43A363"/>
<path d="M500 50V150L450 100L500 50Z" fill="#43A363"/>
<path d="M500 150V250L450 200L500 150Z" fill="#336BB7"/>
<path d="M500 250V350L450 300L500 250Z" fill="#336BB7"/>
<path d="M500 350V450L450 400L500 350Z" fill="#43A363"/>
<path d="M500 450V500H450L500 450Z" fill="#43A363"/>
<path d="M450 500H350L400 450L450 500Z" fill="#43A363"/>
<path d="M350 500H250L300 450L350 500Z" fill="#336BB7"/>
<path d="M250 500H150L200 450L250 500Z" fill="#336BB7"/>
<path d="M150 500H50L99.9999 450L150 500Z" fill="#43A363"/>
<path d="M50 500H0V450L50 500Z" fill="#43A363"/>
<path d="M0 450V350L50 400L0 450Z" fill="#43A363"/>
<path d="M0 350V250L50 300L0 350Z" fill="#336BB7"/>
<path d="M0 250V150L50 200L0 250Z" fill="#336BB7"/>
</svg>
