<svg width="500" height="500" viewBox="0 0 500 500" fill="none" xmlns="http://www.w3.org/2000/svg">
<path d="M0 487.5V457.499H235.388V42.5013H0V12.5H500V42.5013H265.388V457.499H500V487.5H0Z" fill="#336BB7"/>
<path d="M202.263 440.93H0V410.929H172.263V97.3499H0V67.3486H202.263V440.93Z" fill="#F5BD33"/>
<path d="M0 377.14H140.133V122.859H0V152.861H110.133V347.139H0V377.14Z" fill="#336BB7"/>
<path d="M77.5043 321.96H0V291.959H47.5043V208.04H0V178.039H77.5043V321.96Z" fill="#F5BD33"/>
<path d="M298.514 67.3486H500.001V97.3499H328.514V410.929H500.001V440.93H298.514V67.3486Z" fill="#F5BD33"/>
<path d="M500.001 122.859H360.645V377.14H500.001V347.139H390.645V152.861H500.001V122.859Z" fill="#336BB7"/>
<path d="M423.271 178.039H499.999V208.04H453.271V291.959H499.999V321.96H423.271V178.039Z" fill="#F5BD33"/>
</svg>
