<svg width="500" height="500" viewBox="0 0 500 500" fill="none" xmlns="http://www.w3.org/2000/svg">
<path d="M5 0V500H7V0H5Z" fill="#2E3120"/>
<path d="M1 0V500H0V0H1Z" fill="#2E3120"/>
<path d="M11.5 0V500H13.5V0H11.5Z" fill="#2E3120"/>
<path d="M18 0V500H20V0H18Z" fill="#2E3120"/>
<path d="M24 0V500H26V0H24Z" fill="#2E3120"/>
<path d="M30.25 0V500H32.25V0H30.25Z" fill="#2E3120"/>
<path d="M36.5 0V500H38.5V0H36.5Z" fill="#2E3120"/>
<path d="M42.75 0V500H44.75V0H42.75Z" fill="#2E3120"/>
<path d="M49 0V500H51V0H49Z" fill="#2E3120"/>
<path d="M55.25 0V500H57.25V0H55.25Z" fill="#2E3120"/>
<path d="M61.5 0V500H63.5V0H61.5Z" fill="#2E3120"/>
<path d="M67.75 0V500H69.75V0H67.75Z" fill="#2E3120"/>
<path d="M74 0V500H76V0H74Z" fill="#2E3120"/>
<path d="M80.25 0V500H82.25V0H80.25Z" fill="#2E3120"/>
<path d="M86.5 0V500H88.5V0H86.5Z" fill="#2E3120"/>
<path d="M92.75 0V500H94.75V0H92.75Z" fill="#2E3120"/>
<path d="M99 0V500H101V0H99Z" fill="#2E3120"/>
<path d="M105.25 0V500H107.25V0H105.25Z" fill="#2E3120"/>
<path d="M111.5 0V500H113.5V0H111.5Z" fill="#2E3120"/>
<path d="M117.75 0V500H119.75V0H117.75Z" fill="#2E3120"/>
<path d="M124 0V500H126V0H124Z" fill="#2E3120"/>
<path d="M130.25 0V500H132.25V0H130.25Z" fill="#2E3120"/>
<path d="M136.5 0V500H138.5V0H136.5Z" fill="#2E3120"/>
<path d="M142.75 0V500H144.75V0H142.75Z" fill="#2E3120"/>
<path d="M149 0V500H151V0H149Z" fill="#2E3120"/>
<path d="M155.25 0V500H157.25V0H155.25Z" fill="#2E3120"/>
<path d="M161.5 0V500H163.5V0H161.5Z" fill="#2E3120"/>
<path d="M167.75 0V500H169.75V0H167.75Z" fill="#2E3120"/>
<path d="M174 0V500H176V0H174Z" fill="#2E3120"/>
<path d="M180.25 0V500H182.25V0H180.25Z" fill="#2E3120"/>
<path d="M186.5 0V500H188.5V0H186.5Z" fill="#2E3120"/>
<path d="M192.75 0V500H194.75V0H192.75Z" fill="#2E3120"/>
<path d="M199 0V500H201V0H199Z" fill="#2E3120"/>
<path d="M205.25 0V500H207.25V0H205.25Z" fill="#2E3120"/>
<path d="M211.5 0V500H213.5V0H211.5Z" fill="#2E3120"/>
<path d="M217.75 0V500H219.75V0H217.75Z" fill="#2E3120"/>
<path d="M224 0V500H226V0H224Z" fill="#2E3120"/>
<path d="M230.25 0V500H232.25V0H230.25Z" fill="#2E3120"/>
<path d="M236.5 0V500H238.5V0H236.5Z" fill="#2E3120"/>
<path d="M242.75 0V500H244.75V0H242.75Z" fill="#2E3120"/>
<path d="M249 0V500H251V0H249Z" fill="#2E3120"/>
<path d="M255.25 0V500H257.25V0H255.25Z" fill="#2E3120"/>
<path d="M261.5 0V500H263.5V0H261.5Z" fill="#2E3120"/>
<path d="M267.75 0V500H269.75V0H267.75Z" fill="#2E3120"/>
<path d="M274 0V500H276V0H274Z" fill="#2E3120"/>
<path d="M280.25 0V500H282.25V0H280.25Z" fill="#2E3120"/>
<path d="M286.5 0V500H288.5V0H286.5Z" fill="#2E3120"/>
<path d="M292.75 0V500H294.75V0H292.75Z" fill="#2E3120"/>
<path d="M299 0V500H301V0H299Z" fill="#2E3120"/>
<path d="M305.25 0V500H307.25V0H305.25Z" fill="#2E3120"/>
<path d="M311.5 0V500H313.5V0H311.5Z" fill="#2E3120"/>
<path d="M317.75 0V500H319.75V0H317.75Z" fill="#2E3120"/>
<path d="M324 0V500H326V0H324Z" fill="#2E3120"/>
<path d="M330.25 0V500H332.25V0H330.25Z" fill="#2E3120"/>
<path d="M336.5 0V500H338.5V0H336.5Z" fill="#2E3120"/>
<path d="M342.75 0V500H344.75V0H342.75Z" fill="#2E3120"/>
<path d="M349 0V500H351V0H349Z" fill="#2E3120"/>
<path d="M355.25 0V500H357.25V0H355.25Z" fill="#2E3120"/>
<path d="M361.5 0V500H363.5V0H361.5Z" fill="#2E3120"/>
<path d="M367.75 0V500H369.75V0H367.75Z" fill="#2E3120"/>
<path d="M374 0V500H376V0H374Z" fill="#2E3120"/>
<path d="M380.25 0V500H382.25V0H380.25Z" fill="#2E3120"/>
<path d="M386.5 0V500H388.5V0H386.5Z" fill="#2E3120"/>
<path d="M392.75 0V500H394.75V0H392.75Z" fill="#2E3120"/>
<path d="M399 0V500H401V0H399Z" fill="#2E3120"/>
<path d="M405.25 0V500H407.25V0H405.25Z" fill="#2E3120"/>
<path d="M411.5 0V500H413.5V0H411.5Z" fill="#2E3120"/>
<path d="M417.75 0V500H419.75V0H417.75Z" fill="#2E3120"/>
<path d="M424 0V500H426V0H424Z" fill="#2E3120"/>
<path d="M430.25 0V500H432.25V0H430.25Z" fill="#2E3120"/>
<path d="M436.5 0V500H438.5V0H436.5Z" fill="#2E3120"/>
<path d="M442.75 0V500H444.75V0H442.75Z" fill="#2E3120"/>
<path d="M449 0V500H451V0H449Z" fill="#2E3120"/>
<path d="M455.25 0V500H457.25V0H455.25Z" fill="#2E3120"/>
<path d="M461.5 0V500H463.5V0H461.5Z" fill="#2E3120"/>
<path d="M467.75 0V500H469.75V0H467.75Z" fill="#2E3120"/>
<path d="M474 0V500H476V0H474Z" fill="#2E3120"/>
<path d="M480.25 0V500H482.25V0H480.25Z" fill="#2E3120"/>
<path d="M486.5 0V500H488.5V0H486.5Z" fill="#2E3120"/>
<path d="M492.75 0V500H494.75V0H492.75Z" fill="#2E3120"/>
<path d="M499 0V500H500V0H499Z" fill="#2E3120"/>
</svg>
