<svg width="500" height="500" viewBox="0 0 500 500" fill="none" xmlns="http://www.w3.org/2000/svg">
<path fill-rule="evenodd" clip-rule="evenodd" d="M0 34.6046V92.0007C0.111054 92.0002 0.222166 92 0.333336 92C36.1389 92 65.9553 117.665 72.3834 151.597C40.7819 155.175 13.9639 174.535 0 201.605V259.001C0.111054 259 0.222166 259 0.333336 259C36.4828 259 66.5275 285.16 72.5621 319.577C40.883 323.102 13.9902 342.484 0 369.605V427.001C0.111054 427 0.222166 427 0.333336 427C35.7941 427 65.3804 452.173 72.1912 485.619C57.5785 487.304 42.4935 492.364 30.7354 500H135.265C123.681 492.478 108.825 487.455 94.4593 485.696C101.232 452.248 130.784 427.053 166.22 427H166.447C201.884 427.053 231.433 452.248 238.207 485.697C223.842 487.455 208.985 492.478 197.402 500H301.931C290.435 492.535 275.693 487.531 261.452 485.737C268.191 452.361 297.605 427.193 332.926 427.001L333.072 427H333.333H333.339C368.809 427.003 398.405 452.195 405.199 485.657C390.71 487.38 375.74 492.421 364.069 500H468.598C456.927 492.421 441.956 487.38 427.467 485.657C434.262 452.193 463.86 427 499.333 427H499.514L499.741 427.001C499.827 427.002 499.914 427.002 500 427.003V369.605C499.888 369.822 499.777 370.039 499.667 370.257C485.821 342.888 458.888 323.265 427.098 319.614C433.116 285.18 463.172 259 499.333 259H499.514L499.741 259.001C499.827 259.002 499.914 259.002 500 259.003V201.605C499.888 201.822 499.777 202.039 499.667 202.257C485.846 174.939 458.989 155.338 427.276 151.635C433.688 117.685 463.516 92 499.333 92L499.514 92.0002L499.741 92.0011C499.827 92.0016 499.914 92.0022 500 92.003V34.6045C499.888 34.8215 499.777 35.039 499.667 35.257C492.466 21.0245 481.727 8.88642 468.606 0H364.061C350.94 8.88642 340.2 21.0244 333 35.257C325.8 21.0244 315.06 8.88642 301.939 0H197.394C184.273 8.88636 173.534 21.0243 166.333 35.2567C159.133 21.0243 148.394 8.88636 135.273 0H30.7276C17.8074 8.75033 7.19663 20.6535 0 34.6046ZM83.4763 171.002L83.2938 171.001L83.1723 171H83.0001C44.1311 171 12.325 201.24 9.82501 239.477C41.916 242.718 69.2048 262.214 83.3337 289.607C97.3652 262.402 124.375 242.986 156.18 239.546C153.724 201.433 122.152 171.247 83.4763 171.002ZM94.2684 151.673C100.658 117.74 130.44 92.054 166.22 92.0001H166.447C202.228 92.054 232.007 117.739 238.398 151.673C206.827 155.473 180.106 175.033 166.333 202.257C152.56 175.033 125.839 155.473 94.2684 151.673ZM261.261 151.713C292.69 155.608 319.275 175.127 333 202.257C346.82 174.939 373.678 155.338 405.391 151.635C398.98 117.686 369.154 92.0026 333.339 92H333.333L333.072 92.0003L332.926 92.0011C297.262 92.1947 267.619 117.852 261.261 151.713ZM83.3337 122.607C69.2048 95.2139 41.916 75.7176 9.82501 72.4767C12.325 34.2399 44.1311 4 83.0001 4C121.893 4 153.714 34.2764 156.18 72.5459C124.375 75.9863 97.3652 95.4022 83.3337 122.607ZM176.487 72.5459C208.673 76.0277 235.95 95.8709 249.833 123.59C263.669 95.9662 290.806 76.1643 322.849 72.5824C320.4 34.2957 288.571 4 249.667 4C210.774 4 178.953 34.2765 176.487 72.5459ZM416.333 122.608C402.253 95.3081 375.104 75.8517 343.156 72.5106C345.639 34.2578 377.453 4 416.333 4C455.214 4 487.027 34.2579 489.511 72.5107C457.562 75.8517 430.413 95.3081 416.333 122.608ZM166.333 370.257C152.535 342.982 125.739 323.399 94.091 319.652C100.087 285.235 130.096 259.055 166.22 259H166.447C202.571 259.055 232.578 285.234 238.575 319.652C206.927 323.399 180.132 342.982 166.333 370.257ZM333 370.257C319.249 343.076 292.59 323.534 261.085 319.691C267.05 285.348 296.919 259.197 332.926 259.001L333.072 259H333.333H333.339C369.497 259.003 399.551 285.182 405.569 319.614C373.778 323.265 346.846 342.888 333 370.257ZM176.487 239.546C208.673 243.028 235.95 262.871 249.833 290.59C263.669 262.966 290.806 243.164 322.849 239.582C320.4 201.296 288.571 171 249.667 171C210.774 171 178.953 201.276 176.487 239.546ZM416.333 289.608C402.253 262.308 375.104 242.852 343.156 239.511C345.639 201.258 377.453 171 416.333 171C455.214 171 487.027 201.258 489.511 239.511C457.562 242.852 430.413 262.308 416.333 289.608ZM83.3337 457.607C69.2048 430.214 41.916 410.718 9.82501 407.477C12.325 369.24 44.1311 339 83.0001 339C121.893 339 153.714 369.276 156.18 407.546C124.375 410.986 97.3652 430.402 83.3337 457.607ZM176.487 407.546C208.673 411.028 235.95 430.871 249.833 458.59C263.669 430.966 290.806 411.164 322.849 407.582C320.4 369.296 288.571 339 249.667 339C210.774 339 178.953 369.276 176.487 407.546ZM416.333 457.608C402.253 430.308 375.104 410.852 343.156 407.511C345.639 369.258 377.453 339 416.333 339C455.214 339 487.027 369.258 489.511 407.511C457.562 410.852 430.413 430.308 416.333 457.608Z" fill="#292524"/>
</svg>
