<svg width="500" height="500" viewBox="0 0 500 500" fill="none" xmlns="http://www.w3.org/2000/svg">
<path d="M409.75 134.903V115.097H384.903V90.25H365.097V115.097H340.25V134.903H365.097V159.75H384.903V134.903H409.75Z" fill="#292524"/>
<path d="M409.75 259.903V240.097H384.903V215.25H365.097V240.097H340.25V259.903H365.097V284.75H384.903V259.903H409.75Z" fill="#292524"/>
<path d="M409.75 384.903V365.097H384.903V340.25H365.097V365.097H340.25V384.903H365.097V409.75H384.903V384.903H409.75Z" fill="#292524"/>
<path d="M284.75 134.903V115.097H259.903V90.25H240.097V115.097H215.25V134.903H240.097V159.75H259.903V134.903H284.75Z" fill="#292524"/>
<path d="M284.75 259.903V240.097H259.903V215.25H240.097V240.097H215.25V259.903H240.097V284.75H259.903V259.903H284.75Z" fill="#292524"/>
<path d="M284.75 384.903V365.097H259.903V340.25H240.097V365.097H215.25V384.903H240.097V409.75H259.903V384.903H284.75Z" fill="#292524"/>
<path d="M159.75 134.903V115.097H134.903V90.25H115.097L115.097 115.097H90.25V134.903H115.097V159.75H134.903V134.903H159.75Z" fill="#292524"/>
<path d="M159.75 259.903V240.097H134.903V215.25H115.097L115.097 240.097H90.25V259.903H115.097V284.75H134.903V259.903H159.75Z" fill="#292524"/>
<path d="M159.75 384.903V365.097H134.903V340.25H115.097L115.097 365.097H90.25V384.903H115.097V409.75H134.903V384.903H159.75Z" fill="#292524"/>
<path d="M34.7483 0H0V34.75H9.90118V9.90289H34.7483V0Z" fill="#292524"/>
<path d="M0 159.75V90.25H9.90118V115.097H34.7483V134.903H9.90118V159.75H0Z" fill="#292524"/>
<path d="M0 284.75V215.25H9.90118V240.097H34.7483V259.903H9.90118V284.75H0Z" fill="#292524"/>
<path d="M0 409.75V340.25H9.90118V365.097H34.7483V384.903H9.90118V409.75H0Z" fill="#292524"/>
<path d="M34.7483 500H0V465.25H9.90118V490.097H34.7483V500Z" fill="#292524"/>
<path d="M159.75 500H90.25V490.097H115.097L115.097 465.25H134.903V490.097H159.75V500Z" fill="#292524"/>
<path d="M284.75 500H215.25V490.097H240.097V465.25H259.903V490.097H284.75V500Z" fill="#292524"/>
<path d="M409.75 500H340.25V490.097H365.097V465.25H384.903V490.097H409.75V500Z" fill="#292524"/>
<path d="M500 465.25V500H465.25V490.097H490.097V465.25H500Z" fill="#292524"/>
<path d="M500 340.25V409.75H490.097V384.903H465.25V365.097H490.097V340.25H500Z" fill="#292524"/>
<path d="M500 215.25V284.75H490.097V259.903H465.25V240.097H490.097V215.25H500Z" fill="#292524"/>
<path d="M500 90.25V159.75H490.097V134.903H465.25V115.097H490.097V90.25H500Z" fill="#292524"/>
<path d="M500 34.75V0H465.25V9.90289H490.097V34.75H500Z" fill="#292524"/>
<path d="M409.75 0V9.9029L384.903 9.90289V34.75H365.097V9.90289H340.25V0H409.75Z" fill="#292524"/>
<path d="M284.75 0V9.9029L259.903 9.90289V34.75H240.097V9.90289H215.25V0H284.75Z" fill="#292524"/>
<path d="M159.75 0V9.9029L134.903 9.90289V34.75H115.097V9.90289H90.25V0H159.75Z" fill="#292524"/>
</svg>
