<svg width="500" height="500" viewBox="0 0 500 500" fill="none" xmlns="http://www.w3.org/2000/svg">
<path fill-rule="evenodd" clip-rule="evenodd" d="M477.5 0H472.5V22.5H427.5V0H422.5V22.5H377.5V0H372.5V22.5H327.5V0H322.5V22.5H277.5V0H272.5V22.5H227.5V0H222.5V22.5H177.5V0H172.5V22.5H127.5V0H122.5V22.5H77.5V0H72.5V22.5H27.5V0H22.5V22.5H0V27.5H22.5V72.5H0V77.5H22.5V122.5H0V127.5H22.5V172.5H0V177.5H22.5V222.5H0V227.5H22.5V272.5H0V277.5H22.5V322.5H0V327.5H22.5V372.5H0V377.5H22.5V422.5H0V427.5H22.5V472.5H0V477.5H22.5V500H27.5V477.5H72.5V500H77.5V477.5H122.5V500H127.5V477.5H172.5V500H177.5V477.5H222.5V500H227.5V477.5H272.5V500H277.5V477.5H322.5V500H327.5V477.5H372.5V500H377.5V477.5H422.5V500H427.5V477.5H472.5V500H477.5V477.5H500V472.5H477.5V427.5H500V422.5H477.5V377.5H500V372.5H477.5V327.5H500V322.5H477.5V277.5H500V272.5H477.5V227.5H500V222.5H477.5V177.5H500V172.5H477.5V127.5H500V122.5H477.5V77.5H500V72.5H477.5V27.5H500V22.5H477.5V0ZM427.5 72.5H472.5V27.5H427.5V72.5ZM427.5 122.5H472.5V77.5H427.5V122.5ZM427.5 172.5H472.5V127.5H427.5V172.5ZM427.5 222.5H472.5V177.5H427.5V222.5ZM427.5 272.5H472.5V227.5H427.5V272.5ZM427.5 322.5H472.5V277.5H427.5V322.5ZM427.5 372.5H472.5V327.5H427.5V372.5ZM427.5 422.5H472.5V377.5H427.5V422.5ZM427.5 472.5H472.5V427.5H427.5V472.5ZM72.5 427.5H27.5V472.5H72.5V427.5ZM72.5 377.5H27.5V422.5H72.5V377.5ZM72.5 327.5H27.5V372.5H72.5V327.5ZM72.5 277.5H27.5V322.5H72.5V277.5ZM72.5 227.5H27.5V272.5H72.5V227.5ZM72.5 177.5H27.5V222.5H72.5V177.5ZM72.5 127.5H27.5V172.5H72.5V127.5ZM72.5 77.5H27.5V122.5H72.5V77.5ZM72.5 27.5H27.5V72.5H72.5V27.5ZM377.5 72.5H422.5V27.5H377.5V72.5ZM377.5 122.5H422.5V77.5H377.5V122.5ZM377.5 172.5H422.5V127.5H377.5V172.5ZM377.5 222.5H422.5V177.5H377.5V222.5ZM377.5 272.5H422.5V227.5H377.5V272.5ZM377.5 322.5H422.5V277.5H377.5V322.5ZM377.5 372.5H422.5V327.5H377.5V372.5ZM377.5 422.5H422.5V377.5H377.5V422.5ZM122.5 377.5H77.5V422.5H122.5V377.5ZM122.5 327.5H77.5V372.5H122.5V327.5ZM122.5 277.5H77.5V322.5H122.5V277.5ZM122.5 227.5H77.5V272.5H122.5V227.5ZM122.5 177.5H77.5V222.5H122.5V177.5ZM122.5 127.5H77.5V172.5H122.5V127.5ZM122.5 77.5H77.5V122.5H122.5V77.5ZM327.5 122.5H372.5V77.5H327.5V122.5ZM327.5 172.5H372.5V127.5H327.5V172.5ZM327.5 222.5H372.5V177.5H327.5V222.5ZM327.5 272.5H372.5V227.5H327.5V272.5ZM327.5 322.5H372.5V277.5H327.5V322.5ZM327.5 372.5H372.5V327.5H327.5V372.5ZM172.5 327.5H127.5V372.5H172.5V327.5ZM172.5 277.5H127.5V322.5H172.5V277.5ZM172.5 227.5H127.5V272.5H172.5V227.5ZM172.5 177.5H127.5V222.5H172.5V177.5ZM172.5 127.5H127.5V172.5H172.5V127.5ZM277.5 172.5H322.5V127.5H277.5V172.5ZM277.5 222.5H322.5V177.5H277.5V222.5ZM277.5 272.5H322.5V227.5H277.5V272.5ZM277.5 322.5H322.5V277.5H277.5V322.5ZM222.5 277.5H177.5V322.5H222.5V277.5ZM222.5 227.5H177.5V272.5H222.5V227.5ZM222.5 177.5H177.5V222.5H222.5V177.5ZM227.5 222.5H272.5V177.5H227.5V222.5ZM227.5 272.5H272.5V227.5H227.5V272.5ZM272.5 277.5H227.5V322.5H272.5V277.5ZM227.5 172.5H272.5V127.5H227.5V172.5ZM177.5 172.5H222.5V127.5H177.5V172.5ZM222.5 327.5H177.5V372.5H222.5V327.5ZM272.5 327.5H227.5V372.5H272.5V327.5ZM322.5 327.5H277.5V372.5H322.5V327.5ZM277.5 122.5H322.5V77.5H277.5V122.5ZM227.5 122.5H272.5V77.5H227.5V122.5ZM177.5 122.5H222.5V77.5H177.5V122.5ZM127.5 122.5H172.5V77.5H127.5V122.5ZM172.5 377.5H127.5V422.5H172.5V377.5ZM222.5 377.5H177.5V422.5H222.5V377.5ZM272.5 377.5H227.5V422.5H272.5V377.5ZM322.5 377.5H277.5V422.5H322.5V377.5ZM372.5 377.5H327.5V422.5H372.5V377.5ZM327.5 72.5H372.5V27.5H327.5V72.5ZM277.5 72.5H322.5V27.5H277.5V72.5ZM227.5 72.5H272.5V27.5H227.5V72.5ZM177.5 72.5H222.5V27.5H177.5V72.5ZM127.5 72.5H172.5V27.5H127.5V72.5ZM77.5 72.5H122.5V27.5H77.5V72.5ZM122.5 427.5H77.5V472.5H122.5V427.5ZM172.5 427.5H127.5V472.5H172.5V427.5ZM222.5 427.5H177.5V472.5H222.5V427.5ZM272.5 427.5H227.5V472.5H272.5V427.5ZM322.5 427.5H277.5V472.5H322.5V427.5ZM372.5 427.5H327.5V472.5H372.5V427.5ZM422.5 427.5H377.5V472.5H422.5V427.5Z" fill="#292524"/>
</svg>
