<svg width="600" height="300" viewBox="0 0 600 300" fill="none" xmlns="http://www.w3.org/2000/svg">
<path d="M60.4036 140.152C79.0377 134.109 99.0787 124.319 114.925 108.455C155.965 67.3693 153.326 1.10742 153.326 1.10742C153.326 1.10742 84.1468 1.45863 43.1066 42.5443C11.6839 74.0019 5.86752 120.219 4.8671 140.152H0V160.152H4.88269C5.92708 180.248 11.8429 226.157 43.1066 257.455C84.1468 298.541 153.326 298.892 153.326 298.892C153.326 298.892 155.965 232.63 114.925 191.545C99.3423 175.945 79.7034 166.217 61.3347 160.152H152.205C153.25 180.248 159.166 226.157 190.429 257.455C231.47 298.541 300.648 298.892 300.648 298.892C300.648 298.892 303.288 232.63 262.247 191.545C246.665 175.945 227.026 166.217 208.658 160.152H299.528C300.573 180.248 306.489 226.157 337.752 257.455C378.793 298.541 447.971 298.892 447.971 298.892C447.971 298.892 450.611 232.63 409.57 191.545C393.988 175.945 374.349 166.217 355.98 160.152H446.852C447.896 180.248 453.812 226.157 485.075 257.455C526.116 298.541 595.294 298.892 595.294 298.892C595.294 298.892 597.934 232.63 556.893 191.545C541.311 175.945 521.672 166.217 503.303 160.152H600V140.152H502.372C521.006 134.109 541.047 124.319 556.893 108.455C597.934 67.3693 595.294 1.10742 595.294 1.10742C595.294 1.10742 526.116 1.45863 485.075 42.5443C453.653 74.0019 447.836 120.219 446.836 140.152H355.049C373.683 134.109 393.724 124.319 409.57 108.455C450.611 67.3693 447.971 1.10742 447.971 1.10742C447.971 1.10742 378.793 1.45863 337.752 42.5443C306.33 74.0019 300.513 120.219 299.513 140.152H207.726C226.36 134.109 246.401 124.319 262.247 108.455C303.288 67.3693 300.648 1.10742 300.648 1.10742C300.648 1.10742 231.47 1.45863 190.429 42.5443C159.007 74.0019 153.19 120.219 152.19 140.152H60.4036Z" fill="#E55733"/>
</svg>
