<svg width="600" height="300" viewBox="0 0 600 300" fill="none" xmlns="http://www.w3.org/2000/svg">
<path d="M0 222.436V172.429C0.5814 172.442 1.16476 172.448 1.75001 172.448C43.4283 172.448 75.5 140.226 75.5 102.552H125.5C125.5 140.226 157.572 172.448 199.25 172.448C240.928 172.448 273 140.226 273 102.552H323C323 140.226 355.072 172.448 396.75 172.448C438.428 172.448 470.5 140.226 470.5 102.552H520.5C520.5 140.226 552.572 172.448 594.25 172.448C596.188 172.448 598.106 172.378 600 172.242V222.32C598.093 222.405 596.176 222.448 594.25 222.448C554.313 222.448 518.254 203.926 495.5 174.862C472.746 203.926 436.687 222.448 396.75 222.448C356.813 222.448 320.754 203.926 298 174.862C275.246 203.926 239.187 222.448 199.25 222.448C159.313 222.448 123.254 203.926 100.5 174.862C77.7463 203.926 41.6874 222.448 1.75001 222.448C1.16583 222.448 0.582486 222.444 0 222.436Z" fill="#336BB7"/>
</svg>
