<svg width="600" height="300" viewBox="0 0 600 300" fill="none" xmlns="http://www.w3.org/2000/svg">
<path d="M0 229.457V279.49C40.6683 278.642 73.375 245.41 73.375 204.538V105.32C73.375 81.6822 88.5803 70.4941 98.3438 70.4941C108.107 70.4941 123.312 81.6822 123.312 105.32V194.681C123.312 237.125 152.851 279.507 198.281 279.507C243.712 279.507 273.25 237.125 273.25 194.681V105.32C273.25 81.6822 288.455 70.4941 298.219 70.4941C307.982 70.4941 323.188 81.6822 323.188 105.32V194.681C323.188 237.125 352.726 279.507 398.156 279.507C443.587 279.507 473.125 237.125 473.125 194.681V105.32C473.125 81.6822 488.33 70.4941 498.094 70.4941C507.857 70.4941 523.062 81.6822 523.062 105.32V194.681C523.062 237.125 552.601 279.507 598.031 279.507C598.691 279.507 599.347 279.498 600 279.48V229.364C599.325 229.459 598.666 229.507 598.031 229.507C588.268 229.507 573.062 218.319 573.062 194.681V105.32C573.062 62.8762 543.524 20.4941 498.094 20.4941C452.663 20.4941 423.125 62.8762 423.125 105.32V194.681C423.125 218.319 407.92 229.507 398.156 229.507C388.393 229.507 373.188 218.319 373.188 194.681V105.32C373.188 62.8762 343.649 20.4941 298.219 20.4941C252.788 20.4941 223.25 62.8762 223.25 105.32V194.681C223.25 218.319 208.045 229.507 198.281 229.507C188.518 229.507 173.312 218.319 173.312 194.681V105.32C173.312 62.8762 143.774 20.4941 98.3438 20.4941C52.9132 20.4941 23.375 62.8762 23.375 105.32V204.538C23.375 217.793 13.0472 228.635 0 229.457Z" fill="#F5BD33"/>
</svg>
