<svg width="300" height="600" viewBox="0 0 300 600" fill="none" xmlns="http://www.w3.org/2000/svg">
<path d="M162.285 38.4744C161.102 54.2616 175.737 79.2798 185.076 85.2392C185.118 85.9269 185.179 86.6641 185.261 87.4529C186.193 96.4375 188.402 128.826 188.523 132.878C188.706 138.962 189.083 145.19 189.505 151.404C187.32 145.138 184.511 139.144 181.625 133.179C174.073 117.566 158.87 108.85 140.223 110.373C129.907 111.215 114.432 119.749 119.842 133.179C122.177 138.975 128.348 143.96 133.491 148.115C134.48 148.914 135.431 149.682 136.309 150.42C151.046 162.79 172.29 174.333 191.22 179.154C192.041 200.974 187.656 222.126 185.261 243.682C183.712 255.087 182.183 266.353 180.101 277.503C175.712 253.861 154.228 215.638 137.121 212.776C128.779 211.381 119.731 211.763 115.499 220.676C112.225 227.571 114.067 237.521 116.644 244.227C121.152 255.958 129.666 266.094 138.601 274.437C149.576 284.685 162.255 290.17 176.928 292.385C176.17 295.501 175.347 298.609 174.447 301.708C170.038 316.901 164.16 331.539 158.188 346.411C156.623 350.306 155.052 354.218 153.5 358.16C152.749 360.067 152.005 361.977 151.258 363.886C148.134 372.106 144.853 380.306 141.164 388.29C143.048 371.811 138.473 346.481 125.235 334.06C113.375 322.931 95.1643 328.938 95.1643 345.289C95.1643 368.637 119.07 387.838 135.588 399.736C127.95 415.479 121.252 431.328 115.007 447.75C112.909 453.268 110.413 459.255 107.84 465.429C106.95 467.562 106.062 469.696 105.18 471.832C104.966 469.506 104.593 467.077 104.253 464.857C102.672 454.536 103.257 443.468 98.4582 433.978C94.4852 426.12 87.832 418.545 81.1317 413.159C75.5908 408.706 67.1334 406.257 60.4162 409.184C51.6876 412.988 49.5195 423.47 49.6289 432.239C49.9219 455.726 81.6741 483.179 98.6011 488.492C96.3609 494.581 94.4218 500.518 93.0845 506.037C86.6597 532.549 79.125 563.703 75.0845 587.037C75.0845 589.953 97.4212 593.578 98.625 588.331C98.9911 585.336 99.336 582.524 99.661 579.875C102.443 557.197 103.761 546.449 104.375 535.331C105.364 517.426 111.506 492.03 117.334 472.491C130.634 472.592 143.702 473.984 156.929 475.615C172.526 477.538 206.928 481.07 210.102 457.281C211.173 449.253 208.922 440.611 204.04 434.326C196.503 424.621 189.14 420.523 177.215 422.053C166.291 423.455 150.965 433.601 141.942 440.079C138.634 442.454 135.502 445.17 132.369 447.887C129.219 450.619 126.068 453.352 122.734 455.742C123.303 454.126 123.846 452.641 124.354 451.304C131.284 433.08 138.753 415.644 147.443 398.305C151.786 389.64 155.427 380.656 158.91 371.778C168.753 372.2 186.5 372.679 196.165 371.225C196.767 371.134 197.404 371.041 198.071 370.943C212.724 368.789 241.747 364.523 237.262 343.252C236.091 337.7 232.662 332.799 228.288 329.488C222.372 325.01 216.042 325.886 209.301 326.82C208.351 326.951 207.393 327.084 206.427 327.203C198.388 328.193 190.179 330.117 183.134 334.457C178.099 337.559 173.65 341.547 169.279 345.628C174.647 332.221 179.972 318.553 184.051 304.496C186.177 297.172 187.898 289.733 189.363 282.245C193.032 283.293 203.851 280.464 213.327 277.986C216.764 277.087 220.025 276.234 222.703 275.63C238.624 272.035 262.551 263.164 262.702 242.539C262.746 236.551 261.546 222.629 254.015 221.323C246.995 220.105 238.579 222.452 232.201 225.298C213.884 233.469 198.796 254.197 192.101 266.542C193.274 259.047 194.295 251.548 195.307 244.109C196.562 234.885 197.804 225.753 199.31 216.835C201.735 202.481 201.827 188.67 201.125 174.633C200.891 169.951 200.395 164.987 199.786 159.964C203.811 161.99 211.655 162.494 215.264 162.726C215.647 162.751 215.982 162.772 216.259 162.792C222.374 163.231 229.213 162.182 235.065 160.308C252.757 154.641 262.255 136.73 266.186 118.472C267.524 112.261 265.841 101.445 260.602 97.2561C257.66 94.9039 253.992 94.9827 250.477 95.0581C250.287 95.0622 250.098 95.0662 249.91 95.0699C231.23 95.4334 215.524 118.746 203.719 136.271C201.609 139.401 199.625 142.347 197.77 144.944C196.58 136.405 195.499 128.354 195.307 121.953C195.082 114.483 192.875 96.2669 190.729 85.4396C194.723 80.1613 197.384 56.2836 197.384 42.6527C197.384 41.6748 197.39 40.7031 197.395 39.7384C197.459 28.0366 197.518 17.3716 187.956 9.12888C178.799 1.23545 174.626 6.8913 169.193 15.7365C165.256 22.1474 162.847 30.9803 162.285 38.4744Z" fill="#3D5138"/>
</svg>
