<svg width="300" height="300" viewBox="0 0 300 300" fill="none" xmlns="http://www.w3.org/2000/svg">
<path d="M96.0065 5.38503C104.377 5.79052 105.65 16.9511 105.245 25.3215C105.021 29.9464 104.812 35.0138 104.632 40.2666L104.47 45.3338C104.075 58.4701 100.963 78.8213 100.963 78.8213C100.963 78.8213 130.999 118.897 139.529 118.897C148.059 118.897 136.309 72.986 138.176 56.8257C138.638 52.9802 139.062 49.1302 139.529 45.2853C140.54 36.9663 148.103 31.0419 156.422 32.0528C164.741 33.0637 170.666 40.6271 169.655 48.9462C169.236 52.393 168.836 55.8423 168.444 59.2922C166.81 73.4582 164.598 92.648 162.457 103.936C160.749 112.942 159.298 121.994 157.582 130.998C156.835 134.917 156.01 139.012 155.085 142.931C158.919 149.351 172.999 182.188 179.999 175.789C185.303 170.94 186.096 105.078 183.218 89.8213C183.218 81.8213 182.905 72.6821 190.781 69.8213C198.658 66.9605 203.295 66.8112 206.156 74.688C210.095 85.5342 210.003 97.8111 208.286 109.147C207.719 112.889 206.923 117.494 205.978 122.591C201.13 148.72 200.999 191.405 200.999 197.597C200.999 203.789 208.953 212.6 215.499 220.289C222.977 196.991 226.348 164.325 221.013 140.47C219.183 132.292 224.33 124.18 232.508 122.35C240.686 120.521 248.799 125.668 250.628 133.846C255.448 155.395 251.8 177.691 246.592 197.597C242.354 213.8 227.45 240.321 231.95 245.603C233.675 247.628 235.214 248.763 236.931 250.25L261.342 271.328C267.683 276.807 268.383 286.389 262.904 292.73C257.425 299.071 247.843 299.771 241.502 294.292C230.326 284.637 227.07 277.524 215.499 271.328C208.286 267.466 178.701 266.505 159.824 267.102C146.473 267.523 132.751 267.743 121.513 267.466C115.916 267.329 110.687 267.063 106.317 266.596C102.751 266.215 97.3149 265.505 93.0534 263.359C85.5686 259.59 82.5564 250.467 86.3255 242.982C91.5341 232.638 107.747 239.376 116.596 240.321C141.561 242.989 200.444 258.327 196.499 250.25C190.548 238.067 183.218 232.506 176.999 230.321C159.824 224.289 87.5204 217.483 67.8073 215.753C59.9757 215.065 53.0108 212.612 47.6395 210.591C39.7963 207.639 35.831 198.888 38.7828 191.045C41.7345 183.201 50.4855 179.236 58.3287 182.188C63.4009 184.097 67.0534 185.222 70.4614 185.521C95.2273 187.696 157.582 206.981 157.582 200.789C157.582 186.586 140.058 167.769 134.999 167.368C127.499 166.772 112.462 167.409 100.855 167.368C92.4613 167.338 84.0293 167.16 75.742 166.985L75.7397 166.985L75.7361 166.985L65.7648 166.784C61.8859 166.714 58.5258 166.789 54.7344 166.873H54.7341C53.8542 166.892 52.9503 166.913 52.012 166.931C47.0859 167.031 41.6057 167.083 34.5744 166.772C26.2023 166.402 19.7152 159.316 20.0849 150.943C20.4547 142.571 27.5414 136.084 35.9135 136.454C50.986 137.12 116.596 153.559 116.596 142.931C116.596 130.998 101.899 112.02 98.7789 112.939C78.9529 118.776 61.5999 116.667 41.7299 118.897C31.6499 120.028 21.1301 116.591 15.0959 105.078C13.6083 102.24 12.3256 96.6091 19.7481 92.7188C35.9135 85.0479 97.8751 106.616 86.8056 92.7188C75.7361 78.8213 60.5166 71.7172 52.012 65.6057C41.7299 63.1392 38.7828 59.2922 24.0959 62.3215C15.8885 64.0144 8.35783 61.3435 4.75029 55.1848C-9.46785 30.9119 38.6956 48.9566 38.7828 48.9462C36.6293 39.8347 20.0111 15.4078 38.7828 12.8215C47.231 11.6576 41.3228 25.3215 52.012 40.2666C62.7012 55.2117 75.7397 62.5764 83.0959 59.2922C90.4405 56.0132 82.6094 35.3639 83.0959 25.3215C83.5014 16.9511 87.6361 4.97955 96.0065 5.38503Z" fill="#CF6F49"/>
</svg>
