<svg width="300" height="600" viewBox="0 0 300 600" fill="none" xmlns="http://www.w3.org/2000/svg">
<path fill-rule="evenodd" clip-rule="evenodd" d="M279.646 62.4651C258.682 51.4651 172.65 108.665 146.308 120.444C130.089 127.697 37.1753 184.787 34.6091 206.099C30.6069 239.344 84.5378 212.127 99.2167 212.127C103.23 212.127 120.182 207.592 118.927 210.621C111.11 229.48 -16.7177 345.068 10.5138 369.094C27.9421 384.47 103.592 362.977 113.085 372.866C115.628 375.515 93.0742 420.324 87.8973 430.595C70.3163 465.47 32.5435 564.483 36.5164 569.4C46.4215 581.658 281.222 390.814 272.611 358.155C264.452 327.214 194.839 341.083 168.211 327.214C156.807 321.275 310.723 202.415 291.646 167.965C286.447 158.576 217.694 188.617 202.162 196.658C201.373 197.066 191.109 202.599 190.477 200.81C187.851 193.368 222.526 159.845 243.512 135.33C262.574 113.062 291.646 68.7614 279.646 62.4651Z" fill="#FFBA03"/>
</svg>
