<svg width="500" height="500" viewBox="0 0 500 500" fill="none" xmlns="http://www.w3.org/2000/svg">
<path d="M86.4349 385.956C87.5674 370.128 89.9574 344.134 100.432 331.333C102.505 333.384 105.223 333.039 107.167 334.622C112.377 338.866 117.238 343.932 122.27 348.425C125.294 351.125 127.966 355.36 126.215 359.323C123.405 365.684 122.903 370.012 122.422 376.732C121.941 383.45 123.904 390.518 124.217 397.279C124.49 403.2 123.762 408.912 123.704 414.828C123.647 420.589 124.638 426.221 122.219 431.349C120.649 434.679 116.22 438.422 113.079 440.429C106.183 444.836 99.6542 450.304 93.5027 455.699C89.2829 459.4 86.9921 463.079 81.0571 464.258C78.1912 464.827 55.1309 470.941 60.6181 465.266C63.1676 462.629 64.3611 459.16 64.4525 455.495C64.5972 449.697 64.29 444.982 66.8612 439.576C71.02 430.831 79.0347 423.213 84.7048 415.329C91.6125 405.723 85.6675 396.682 86.4349 385.956Z" fill="#2E3120"/>
<path d="M432.802 384.003C440.196 375.497 452.765 361.679 466.466 357.5C467.302 359.23 469.639 359.805 470.561 361.237C473.032 365.076 474.885 369.274 477.111 373.201C478.449 375.56 478.874 378.677 475.838 380.392C470.963 383.144 468.786 385.416 465.647 389.027C462.509 392.637 461.202 397.133 458.687 400.991C456.485 404.369 453.559 407.349 451.09 410.631C448.686 413.827 447.182 417.248 443.129 419.424C440.497 420.836 435.388 421.672 432.029 421.904C424.655 422.413 417.143 423.617 409.965 424.887C405.042 425.759 401.685 427.163 396.409 426.143C393.861 425.651 372.73 422.545 379.486 420.931C382.624 420.181 385.008 418.584 386.582 416.566C389.072 413.374 390.754 410.658 395.044 408.37C401.983 404.669 411.575 402.686 419.382 399.892C428.894 396.488 427.792 389.766 432.802 384.003Z" fill="#2E3120"/>
<path d="M222.031 217.486C220.741 213.036 217.629 206.626 217.629 201.915C218.599 201.915 220.36 203.323 221.057 204.136C222.689 206.038 223.571 208.526 225.162 210.453C226.255 211.777 226.609 213.567 227.405 215.092C228.453 217.1 230.215 219.127 231.806 220.571C233.886 222.457 236.509 223.514 238.662 225.358C241.226 227.554 243.183 230.479 245.052 233.452C247.536 237.401 249.315 241.533 252.162 245.199C255.683 249.733 258.52 254.916 262.065 259.413C265.192 263.381 268.644 267.273 272.983 269.333C276.12 270.823 278.446 272.337 281.151 274.664C289.497 281.844 299.97 285.622 309.886 288.878C319.125 291.912 328.013 295.896 337.309 298.749C341.027 299.89 344.57 300.915 348.354 301.611C351.428 302.177 354.468 303.328 357.241 304.968C362.149 307.87 363.706 314.358 368.075 317.849C372.062 321.035 377.923 320.839 382.464 322.291C386.929 323.719 391.348 324.929 395.964 325.499C403.638 326.447 411.443 325.574 419.112 326.388C427.323 327.258 435.192 330.939 443.446 331.866C448.672 332.453 454.142 331.226 459.316 332.162C461.105 332.486 459.461 333.116 458.935 333.618C457.829 334.674 457.012 336.061 456.438 337.567C456.102 338.448 452.585 339.332 451.72 340.034C449.883 341.524 446.618 341.836 444.419 341.836C441.261 341.836 438.471 343.612 435.3 343.612H424.804C420.391 343.612 416.056 344.214 411.664 344.476C405.065 344.871 398.298 344.466 391.753 345.611C387.083 346.428 382.359 346.596 377.682 347.388C373.66 348.069 369.749 349.387 365.663 349.387C361.927 349.387 356.108 350.565 354.533 345.315C353.867 343.097 354.418 340.553 353.56 338.48C351.963 334.624 348.596 331.104 345.921 328.263C343.09 325.257 340.12 322.554 336.716 320.49C333.093 318.292 329.65 318.293 325.686 318.293H325.502C317.62 318.293 309.801 313.909 302.205 311.853C293.257 309.43 283.898 307.175 275.247 303.561C270.337 301.509 265.241 298.356 260.816 295.121C256.549 292.002 252.777 288.841 250.596 283.449C248.287 277.74 247.022 271.793 243.55 266.792C240.856 262.911 238.153 259.033 235.573 255.045C232.434 250.195 230.708 244.602 228.844 238.98C226.481 231.853 224.129 224.731 222.031 217.486Z" fill="#2E3120"/>
<path fill-rule="evenodd" clip-rule="evenodd" d="M164.062 315.384C159.471 313.737 154.88 312.09 150.257 310.515C147.337 309.521 144.993 307.948 142.7 306.409C140.597 304.997 138.536 303.615 136.113 302.733C134.582 302.177 133.455 300.99 132.346 299.823C132.084 299.546 131.822 299.271 131.556 299.005C131.177 298.626 130.495 297.895 129.959 297.256C129.959 296.798 129.934 296.374 129.456 296.135C128.875 295.845 129.309 296.482 129.959 297.256V297.407C129.959 302.631 130.13 308.375 130.521 313.652C131.157 322.235 134.964 329.563 138.791 336.929C140.164 339.57 141.538 342.216 142.771 344.927C143.629 346.816 144.42 348.815 145.22 350.839C147.265 356.007 149.376 361.344 152.86 365.462C156.524 369.792 162.631 372.084 167.973 374.09C168.568 374.314 169.154 374.534 169.726 374.753C178.166 377.982 185.122 382.815 192.379 387.857C193.314 388.507 194.253 389.16 195.202 389.813C197.633 391.488 200.189 393.029 202.75 394.572C207.868 397.657 213.007 400.754 217.216 404.963C222.943 410.69 227.247 419.243 230.324 426.651C233.776 434.962 237.942 443.968 245.888 448.784C251.552 452.217 257.657 454.045 263.791 455.881C268.054 457.157 272.332 458.438 276.483 460.264C278.666 461.225 280.835 462.256 283.009 463.289C288.899 466.088 294.823 468.903 301.16 470.384C306.962 471.74 313.465 471.479 319.72 471.228C322.14 471.13 324.522 471.035 326.813 471.035H401.525C403.956 471.035 406.516 471.146 409.127 471.26C415.751 471.549 422.707 471.853 428.747 470.384C434.347 469.022 440.202 466.486 445.435 464.111C445.867 463.915 451.34 461.117 449.962 460.945C447.156 460.594 444.277 460.663 441.397 460.732C438.942 460.791 436.486 460.85 434.073 460.649C421.447 459.597 408.922 458.448 396.317 457.187C381.839 455.739 369.564 440.878 363.119 429.078C357.594 418.963 352.176 408.54 347.289 398.098C346.768 396.985 346.255 395.869 345.743 394.753C343.855 390.644 341.971 386.544 339.684 382.623C337.065 378.133 333.602 374.711 330.003 371.154C329.465 370.622 328.924 370.087 328.381 369.545C319.597 360.76 308.502 355.133 297.017 350.49C285.924 346.005 274.221 344.307 262.505 342.607C253.917 341.361 245.321 340.113 236.952 337.767C230.204 335.874 223.527 333.64 216.858 331.408C213.447 330.267 210.038 329.126 206.623 328.032C201.809 326.49 196.906 325.268 192.004 324.047C186.265 322.617 180.527 321.188 174.934 319.244C171.299 317.981 167.68 316.683 164.062 315.384ZM195 347.529C198.085 350.267 204.184 354.102 208.014 355.283C211.071 356.226 214.098 357.258 217.125 358.29C220.758 359.529 224.391 360.767 228.075 361.852C239.525 365.222 251.256 367.814 262.946 370.397C266.28 371.133 269.611 371.869 272.932 372.622C275.831 373.28 279.014 373.745 282.289 374.224C292.581 375.727 303.788 377.365 309.977 385.523C313.247 389.833 316.012 394.22 318.44 399.075C318.865 399.926 319.466 400.896 320.1 401.92C321.602 404.346 323.292 407.075 323.292 409.253C323.292 412.229 315.888 410.995 314.356 410.496C312.002 409.729 309.751 408.651 307.494 407.57C305.36 406.548 303.221 405.524 300.982 404.756C295.021 402.711 289.556 400.267 283.88 397.595C279.05 395.323 273.529 394.209 268.101 393.113C265.52 392.592 262.96 392.076 260.505 391.441C257.509 390.666 254.556 389.749 251.603 388.832C247.786 387.646 243.968 386.46 240.059 385.582C229.958 383.315 219.584 380.416 211.446 373.688C203.958 367.495 195.801 357.915 195 347.529Z" fill="#2E3120"/>
<path d="M19.8583 161.28C25.0842 153.684 22.8642 139.193 29.5037 133.223C36.1431 127.254 35.9001 142.809 38.4011 141.903L38.4095 141.9C41.6815 140.714 44.1345 139.826 47.5867 141.995C52.6673 145.189 57.5675 149.335 62.9925 151.158C67.1755 152.564 81.0101 156.061 80.1956 164.024C79.4279 171.529 79.003 179.619 77.4045 186.803C75.9789 193.208 72.48 216.81 62.6186 211.314C58.6432 209.098 55.5377 203.539 52.9478 199.379C49.9097 194.499 44.54 190.335 40.0523 187.49C31.0037 181.754 25.3795 178.883 20.1464 167.838C18.7248 164.838 18.1262 163.798 19.8583 161.28Z" fill="#2E3120"/>
<path d="M449.86 201.464C438.477 199.567 428.953 193.535 418.117 189.824C406.868 185.971 395.6 184.202 383.868 183.323C377.511 182.848 372.152 182.29 365.899 183.709C362.455 184.49 359.436 185.739 356.178 186.91C354.824 187.397 353.431 187.274 352.133 187.66C348.911 188.618 348.445 195.327 347.643 197.676C344.835 205.904 338.263 212.833 333.826 220.308C329.442 227.694 326.107 234.9 323.49 242.988C321.993 247.616 315.534 249.759 312.935 253.909C311.848 255.645 313.511 250.621 313.599 250.227C314.297 247.122 313.981 243.683 313.586 240.494C312.88 234.8 312.754 228.815 311.074 223.214C308.237 213.753 302.968 205.496 298.53 196.633C296.402 192.385 293.027 188.614 290.901 184.363C288.978 180.518 285.815 177.182 284.542 173.14C283.857 170.966 282.511 168.953 283.243 166.691C283.859 164.788 286.386 166.14 287.998 166.661C292.507 168.12 296.246 170.064 299.955 172.932C301.714 174.292 303.059 175.911 304.742 177.348C306.5 178.85 308.639 179.797 310.459 181.208C312.482 182.777 314.86 184.636 316.365 186.623C317.344 187.916 318.672 191.939 320.327 192.561C324.278 194.046 326.653 189.697 327.627 186.983C328.468 184.638 330.068 182.633 331.865 180.832C334.09 178.602 335.487 175.762 337.729 173.515C341.155 170.081 345.683 168.746 349.622 166.091C354.732 162.648 361.996 161.781 368.416 161.611C370.303 161.56 374.432 161.62 374.976 159.518C375.609 157.075 369.078 155.785 367.354 155.287C362.958 154.019 357.229 155.286 352.741 155.166C348.459 155.052 344.271 155.658 339.998 155.698C332.293 155.772 324.402 154.439 316.69 154.577C315.317 154.601 306.444 154.75 307.281 152.61C307.992 150.789 311.823 148.651 313.518 147.571C316.511 145.664 319.438 143.125 321.686 140.51C323.793 138.058 327.713 135.66 330.737 134.151C333.682 132.68 336.388 131.24 339.855 130.755C349.843 129.355 359.539 133.791 368.991 136.85C380.453 140.559 391.907 144.898 403.951 145.614C410.987 146.032 417.911 145.521 424.952 146.577C429.889 147.318 434.469 147.264 439.378 147.275C447.127 147.293 452.325 142.82 459.159 140.86C462.317 139.954 465.376 138.438 468.769 138.088C472.578 137.695 469.11 143.295 468.431 144.62C464.22 152.843 456.864 158.22 450.645 164.939C446.75 169.148 447.136 174.354 450.652 179.154C455.28 185.473 458.811 192.092 463.857 198.204C465.338 199.997 466.803 202.121 468.192 204.018C468.868 204.941 470.17 207.253 470.026 208.385C469.703 210.92 468.753 210.154 465.996 209.262C463.734 208.53 462.601 207.525 460.728 206.332C458.352 204.819 451.278 202.085 449.86 201.464Z" fill="#2E3120"/>
<path d="M239.803 31.7708C235.311 31.8255 231.202 31.8868 226.82 32.951C228.883 34.0973 232.679 36.9037 234.382 38.5462C236.84 40.9165 240.718 42.4891 243.737 44.0541C245.942 45.1974 248.082 46.5912 250.206 47.8789C252.397 49.2066 254.791 49.5958 257.2 50.3488C268.585 53.9066 279.259 47.4643 290.728 48.9936C297.361 49.878 302.92 52.8858 309.263 54.5014C315.183 56.0094 321.241 57.3176 327.01 59.3536C332.918 61.4388 338.141 63.6376 344.517 63.6376C348.83 63.6376 353.179 63.2441 357.434 63.2441C363.62 63.2441 369.065 59.2915 374.985 57.9548C377.011 57.4974 379.535 57.6863 381.52 58.3046C383.617 58.9578 383.514 60.4608 384.012 62.2388C385.012 65.8103 387.706 69.0017 389.673 72.0742C391.661 75.1813 391.729 78.8781 393.235 82.1062C394.789 85.4353 396.108 88.9131 398.044 92.051C399.176 93.8854 400.64 95.5685 401.279 97.6682C401.578 98.6525 401.517 100.206 402.677 99.0451C404.592 97.1303 406.302 95.0785 408.185 93.1439C409.611 91.6794 412.513 89.7686 412.513 87.6359C412.513 84.6991 412.216 81.9737 411.813 79.0683C411.141 74.2149 409.966 69.96 407.704 65.6047C405.962 62.2488 402.585 59.6091 401.279 56.0751C400.047 52.7433 401.698 47.7855 402.765 44.666C404.42 39.8291 407.822 36.2704 411.726 33.1259C412.359 32.6162 419.042 26.6562 416.228 26.6562C413.393 26.6562 410.447 27.1199 407.661 27.6616C400.329 29.0873 392.923 29.8616 385.586 31.2243C375.016 33.1872 364.208 34.8542 353.5 35.9016C347.992 36.4405 342.423 36.8907 336.933 35.9235C331.034 34.8844 325.08 33.7452 319.207 32.5575C314.587 31.623 310.052 30.7998 305.372 30.1971C301.628 29.7149 297.894 29.9099 294.138 29.607C283.111 28.7177 272.093 27.7169 261.047 28.8419C253.944 29.5654 246.956 31.6835 239.803 31.7708Z" fill="#2E3120"/>
<path d="M419.981 223.148C425.092 222.476 430.19 222.767 435.281 221.796L460.778 216.638C460.8 218.052 459.164 220.24 458.162 221.184C455.989 223.232 455.646 227.319 454.375 229.963C452.876 233.085 451.659 236.135 449.644 238.911C446.973 242.593 441.488 245.02 437.773 247.45C432.215 251.085 426.363 254.233 420.847 257.924C414.677 262.053 408.365 266.768 401.425 269.501C388.348 274.652 376.711 273.049 363.097 271.322C355.58 270.369 348.755 269.929 341.18 270.527C337.673 270.803 340.67 268.623 341.943 266.793C348.358 257.572 354.338 247.559 363.901 241.305C371.182 236.542 378.458 233.864 386.648 230.99C393.364 228.633 400.509 226.046 407.59 225.131C411.742 224.595 415.835 223.693 419.981 223.148Z" fill="#2E3120"/>
<path d="M102.55 69.976C82.8311 68.5214 75.168 42.623 75.168 42.623C75.168 42.623 103.271 46.0092 106.343 48.1279C111.549 51.7181 116.965 53.1004 123.115 54.3743C131.474 56.1059 139.604 58.9807 148.072 60.1643C157.225 61.4438 166.439 62.827 175.425 65.0416C179.761 66.1105 184.022 68.12 188.488 68.5214C193.804 68.9992 200.095 68.4068 205.402 67.8654C211.423 67.2509 217.612 67.496 223.627 68.008C228.644 68.4349 233.793 68.4584 238.83 68.664C243.893 68.8706 248.836 69.7449 253.918 69.6623C260.67 69.5525 267.252 68.1221 274.084 68.1221C278.505 68.1221 280.545 70.1215 284.437 71.6018C293.549 75.0667 302.083 79.8582 311.248 83.5242C316.358 85.5681 320.908 87.8324 325.681 90.4836C330.697 93.2706 337.351 94.3446 342.908 95.0472C352.623 96.2755 361.888 97.9888 371.373 100.466C373.741 101.085 379.691 101.12 378.162 104.688C376.002 109.728 370.373 108.313 365.669 108.909C354.372 110.341 341.714 111.748 330.472 108.938C318.683 105.99 306.105 107.535 294.163 105.829C289.825 105.209 285.441 104.853 281.129 104.06C275.055 102.943 269.38 100.935 263.388 99.4967C258.952 98.432 254.373 97.7964 249.897 96.9012C247.457 96.4132 244.741 95.6403 242.224 95.9599C239.019 96.3669 240.544 97.7003 241.853 99.2115C244.153 101.865 247.218 104.75 248.784 107.882C250.993 112.299 251.983 117.681 253.291 122.429C254.947 128.441 256.882 134.102 257.769 140.312C258.637 146.39 259.415 152.314 260.707 158.31C263.786 172.609 267.143 186.643 271.26 200.694C273.664 208.899 276.08 217.203 276.479 225.794C276.542 227.143 276.962 227.689 276.137 226.992C275.014 226.041 273.559 225.527 272.401 224.596C268.444 221.416 264.959 217.71 261.077 214.442C257.141 211.127 253.06 208.212 249.298 204.659C230.498 186.903 230.985 159.256 227.478 135.406C226.907 131.526 227.185 127.589 226.594 123.684C225.874 118.933 224.709 114.393 222.857 109.964C220.814 105.078 218.245 100.47 213.759 97.386C208.971 94.0948 204.077 94.3491 198.471 94.3056C188.972 94.232 180.642 91.2979 171.774 88.1448C161.158 84.3701 150.326 81.2459 139.543 77.9908C127.415 74.3293 115.239 70.9121 102.55 69.976Z" fill="#2E3120"/>
<path d="M0 118.067V48.9445C1.5418 45.6655 2.68413 42.1481 3.85271 38.5498C5.51571 33.4291 7.23188 28.1447 10.2282 23.1508L21.25 11.625C22.2416 13.2661 21.969 24.6035 21.6881 36.2868C21.3813 49.05 21.0645 62.2261 22.375 63.625C23.7245 65.0653 28.3915 56.3955 33.5844 46.7488C38.0511 38.451 42.9069 29.4305 46.375 25.5L62.75 13.75C60.0499 22.2103 59.3158 30.7526 58.5759 39.3625C57.8418 47.9058 57.1019 56.5155 54.4299 65.1774C52.1802 70.1765 49.4886 74.823 46.7863 79.4877C44.971 82.6214 43.1509 85.7634 41.4568 89.0261C40.4845 90.8986 39.5985 92.8022 38.7204 94.6887C35.8908 100.768 33.1439 106.67 27.8622 110.777C23.3686 114.273 14.6433 116.341 8.90756 116.914C5.94789 117.21 2.97521 117.601 0 118.067Z" fill="#2E3120"/>
<path d="M0 348.615V176.281C0.415877 176.625 0.807548 176.973 1.16435 177.33C1.90245 178.068 2.64227 178.787 3.37629 179.501C6.08865 182.139 8.72184 184.699 10.8966 187.841C13.5968 191.741 14.6715 197.362 15.6522 202.491C16.0022 204.322 16.3402 206.09 16.7359 207.694C17.7962 211.995 18.6815 216.332 19.5665 220.668C20.5594 225.532 21.5521 230.395 22.7915 235.204C23.234 236.921 23.6969 238.651 24.1626 240.392C26.4565 248.965 28.819 257.795 29.1499 266.563C29.8864 286.082 22.5772 300.694 14.0894 317.663C13.9338 317.974 13.7779 318.286 13.6216 318.598C8.82613 328.189 5.04073 337.097 2.28896 347.492C1.59981 350.096 0.842493 349.821 0 348.615Z" fill="#2E3120"/>
<path d="M0 496.515V414.323C1.16213 412.629 2.30106 410.922 3.41522 409.203C7.10012 403.515 10.3783 397.354 12.8248 391.026C15.1096 385.115 16.9543 379.577 18.7436 374.206C22.7169 362.279 26.417 351.171 34.0573 338.619C37.5876 332.819 41.4837 326.7 45.9424 321.597C48.3006 318.898 50.485 316.093 52.6669 313.29C55.6633 309.441 58.655 305.598 62.086 302.046L89.1431 274.036C89.7583 273.399 90.3924 272.646 91.0488 271.867C92.5386 270.099 94.1429 268.194 95.9005 267.201C96.3561 266.943 96.8365 266.683 97.3282 266.418C99.2834 265.361 101.416 264.209 102.875 262.699C103.62 261.927 104.269 262.245 104.808 263.176C105.177 263.815 103.837 265.537 103.064 266.53C102.864 266.787 102.701 266.996 102.617 267.124C99.7736 271.439 97.6143 276.087 95.4456 280.756C94.4294 282.944 93.4112 285.136 92.3195 287.3C88.8973 294.085 83.8495 299.635 78.7925 305.195C76.3059 307.929 73.817 310.665 71.5182 313.552C62.2304 325.216 56.9805 339.203 53.036 353.476C52.0994 356.865 50.8957 360.186 49.6926 363.505C48.2348 367.527 46.778 371.547 45.7982 375.682C44.5976 380.748 43.6904 385.89 42.7834 391.03C42.146 394.642 41.5088 398.254 40.77 401.838C39.7481 406.795 38.4958 411.696 37.2437 416.597C35.8626 422.003 34.4816 427.407 33.4103 432.886C33.0131 434.917 32.7203 436.981 32.4271 439.048C31.9539 442.385 31.4798 445.727 30.5647 448.946C29.1923 453.773 26.7917 458.241 24.2385 462.532L17.7576 471.72C16.2448 474.881 13.8155 477.591 11.4369 480.244C10.6984 481.068 9.9647 481.886 9.26487 482.711C7.47308 484.822 6.04654 487.227 4.62202 489.628C3.19983 492.025 1.77964 494.419 0 496.515Z" fill="#2E3120"/>
<path d="M166.393 500H142.305C142.331 499.664 142.355 499.33 142.378 499C142.663 494.951 143.142 490.898 143.622 486.843C144.358 480.619 145.094 474.391 145.128 468.167C145.167 461.173 145.394 454.014 146.434 447.083C146.983 443.424 148.419 439.997 149.849 436.584C150.553 434.904 151.256 433.228 151.851 431.528C152.705 429.087 153.897 429.35 156.073 430.833C161.017 434.204 165.63 437.873 170.28 441.573C171.402 442.465 172.525 443.358 173.656 444.25C178.5 448.069 183.696 451.233 188.933 454.422C189.793 454.946 190.656 455.471 191.517 456C193.554 457.249 195.617 458.452 197.68 459.655C199.634 460.794 201.587 461.933 203.517 463.111C205.161 464.114 206.69 465.276 208.219 466.437C209.812 467.648 211.406 468.858 213.128 469.889C220.123 474.073 227.114 477.978 234.601 481.222C239.292 483.255 243.756 485.595 248.239 487.945C250.52 489.141 252.806 490.339 255.128 491.5C259.481 493.677 263.871 495.353 268.628 496.278C268.967 496.344 269.324 496.411 269.695 496.48C272.275 496.964 275.501 497.569 277.601 498.75C278.152 499.06 278.542 499.497 278.841 500H212.865C211.045 498.854 209.238 497.626 207.406 496.278C203.141 493.139 198.345 490.496 193.656 488.028C192.255 487.29 190.773 486.663 189.29 486.035C187.161 485.134 185.029 484.232 183.128 483C180.568 481.34 178.053 479.792 175.156 478.778C173.079 478.051 171.946 478.714 171.24 480.833C170.299 483.655 169.72 486.691 169.146 489.701C168.826 491.378 168.507 493.047 168.128 494.667C167.701 496.495 167.081 498.258 166.393 500Z" fill="#2E3120"/>
<path d="M496.716 500H446.18C446.95 494.387 448.36 488.473 450.145 483.42C450.305 482.967 450.465 482.513 450.625 482.058C452.778 475.937 454.977 469.683 458.614 464.257C462.139 458.999 466.198 454.567 470.587 450.023C481.261 438.974 491.283 427.023 500 414.322V496.514C499.748 496.81 499.49 497.099 499.224 497.382C498.401 498.256 497.565 499.13 496.716 500Z" fill="#2E3120"/>
<path d="M499.999 176.281V348.616C499.667 348.141 499.322 347.522 498.963 346.878C498.548 346.133 498.113 345.354 497.659 344.724C496.385 342.96 495.087 341.2 493.787 339.436C485.584 328.31 477.253 317.01 473.912 303.459C470.964 291.505 470.798 280.534 470.798 268.25C470.798 267.785 470.797 267.318 470.797 266.85C470.792 257.186 470.787 246.968 472.787 237.54C473.41 234.603 473.901 231.641 474.392 228.681C474.869 225.801 475.346 222.921 475.945 220.065C476.593 216.976 477.48 213.976 478.366 210.978C479.529 207.045 480.691 203.116 481.308 199L486.369 162.537C488.267 163.17 490.422 166.379 491.214 168.16C492.316 170.64 494.896 172.506 497.378 174.302C498.291 174.962 499.19 175.613 499.999 176.281Z" fill="#2E3120"/>
<path d="M500 118.067C490.316 119.583 480.606 121.89 471.23 124.294C469.25 124.802 467.419 125.383 465.659 125.941C459.942 127.754 454.969 129.331 448.081 127.402C447.495 127.238 446.333 126.956 444.791 126.583C434.875 124.181 409.2 117.962 419.182 114.506C424.542 112.651 428.613 108.7 431.301 103.708C431.862 102.667 432.398 101.647 432.924 100.646C436.388 94.059 439.39 88.3477 445.75 83.4334C453.467 77.4703 463.106 73.31 472.573 69.2238C477.642 67.0361 482.661 64.8695 487.31 62.4589C493.867 59.0591 497.471 54.322 500 48.9434V118.067Z" fill="#2E3120"/>
<path d="M496.72 0C490.145 6.73311 482.744 13.2261 474.347 17.3828C473.137 17.9821 471.97 18.632 470.809 19.2789C468.65 20.4821 466.51 21.6746 464.142 22.51C463.58 22.7082 462.974 22.9117 462.345 23.1233C459.631 24.0352 456.465 25.0993 454.37 26.5492C452.811 27.628 451.22 28.6725 449.611 29.6765C449.498 29.7472 449.178 29.9909 448.762 30.3088C447.481 31.2878 445.28 32.9697 445.337 32.4614C445.713 29.136 446.009 26.1625 445.523 22.7537C444.778 17.5339 445.154 12.2409 445.525 7.00534C445.573 6.32672 445.621 5.64906 445.667 4.97265C445.775 3.36394 445.949 1.69571 446.182 0H496.72Z" fill="#2E3120"/>
<path d="M278.839 0H212.859C217.099 2.66991 221.406 4.88957 226.24 7.11486C231.165 9.38261 236.255 11.0439 241.352 12.7076C244.781 13.8267 248.213 14.947 251.601 16.2537C258.063 18.7465 263.729 20.1893 270.74 19.2815C272.178 19.0953 288.491 16.3717 288.017 14.8926C287.648 13.7387 286.481 12.6599 285.34 11.6054C284.496 10.8243 283.665 10.0565 283.184 9.28152C281.713 6.91155 280.367 4.25858 279.517 1.61486C279.335 1.04854 279.131 0.492015 278.839 0Z" fill="#2E3120"/>
<path d="M166.396 0H142.306C142.125 2.36887 141.886 4.87855 141.639 7.46641C140.733 16.9572 139.727 27.4995 141.129 36.0037C142.609 36.0037 143.43 33.4215 144.059 31.4429C144.264 30.7972 144.449 30.2157 144.629 29.8093C145.691 27.4206 148.273 25.2472 150.484 23.386C151.081 22.8833 151.651 22.4034 152.157 21.9482C152.848 21.3263 153.571 20.7086 154.301 20.0841C157.785 17.1048 161.447 13.9727 162.741 9.50375C163.409 7.19606 164.334 4.98394 165.257 2.77616C165.643 1.85224 166.029 0.929087 166.396 0Z" fill="#2E3120"/>
<path d="M82.8453 127.792C87.445 135.636 92.0488 143.487 94.7956 152.201C96.8994 158.875 98.1399 166.306 99.1289 173.229C100.095 179.988 102.386 186.304 105.352 192.451C106.127 194.059 106.847 195.776 107.577 197.519C109.447 201.979 111.387 206.609 114.518 210.007C117.404 213.138 120.542 216.072 123.679 219.007C126.216 221.38 128.753 223.752 131.157 226.229C133.594 228.74 135.974 231.325 138.356 233.912C146.474 242.728 154.618 251.571 165.129 257.618C168.862 259.765 172.903 261.01 176.959 262.261C178.519 262.741 180.081 263.223 181.629 263.757C185.819 265.202 189.742 267.553 193.435 269.979C194.444 270.642 195.564 271.143 196.686 271.644C197.993 272.228 199.301 272.812 200.431 273.653L200.518 273.729C201.57 274.65 202.369 275.367 202.643 275.614C202.448 275.438 201.97 275.001 201.129 274.229C200.906 274.024 200.673 273.833 200.431 273.653C199.413 272.764 198.388 271.891 197.367 271.022C192.668 267.024 188.045 263.09 184.518 257.84C180.206 251.422 177.185 242.763 177.185 234.979C177.185 228.561 180.941 222.533 184.248 217.228L184.352 217.062C188.161 210.949 191.594 204.362 194.074 197.59C198.366 185.869 201.994 172.837 203.018 160.34C203.302 156.884 203.241 153.372 203.18 149.879C203.155 148.417 203.129 146.957 203.129 145.507C203.129 141.81 202.732 137.178 200.102 134.285C194.189 127.781 184.923 125.084 176.696 122.69C176.037 122.498 175.384 122.308 174.741 122.118C174.608 122.079 174.474 122.039 174.341 122C176.22 123.644 177.629 125.521 177.629 127.75C177.629 131.303 175.369 133.979 173.121 136.641C171.855 138.14 170.593 139.634 169.741 141.278C168.337 143.985 166.845 146.641 165.354 149.296C163.879 151.924 162.405 154.551 161.018 157.222C160.116 158.96 158.825 160.427 157.532 161.897C156.523 163.044 155.513 164.193 154.685 165.472C152.615 168.671 152.621 171.738 152.629 175.353C152.629 175.567 152.629 175.782 152.629 176C152.629 178.737 152.504 181.459 152.379 184.178C152.254 186.894 152.129 189.608 152.129 192.333V205.917C152.129 206.142 152.13 206.353 152.132 206.545C152.144 208.147 152.149 208.555 151.102 206.722C150.484 205.642 149.837 204.562 149.186 203.476C146.81 199.511 144.38 195.458 143.157 190.972C142.07 186.986 142.122 182.894 142.175 178.804C142.226 174.92 142.278 171.038 141.352 167.25C138.965 157.487 133.122 149.29 127.359 141.206C125.8 139.018 124.246 136.839 122.768 134.639C121.164 132.251 119.57 129.831 117.971 127.404C113.996 121.369 109.992 115.291 105.741 109.556C104.214 107.496 102.627 105.542 100.943 103.723C98.4435 102.542 95.5152 101.967 92.7222 101.419C91.9837 101.274 91.2547 101.131 90.5456 100.979C77.6555 96.3181 71.4015 91.2993 68.7652 89.1837C67.5838 88.2356 67.1289 87.8706 67.1289 88.3821C67.663 96.5722 71.0521 105.127 74.49 112.479C76.9459 117.731 79.8948 122.76 82.8453 127.792Z" fill="#2E3120"/>
</svg>
