<svg width="500" height="500" viewBox="0 0 500 500" fill="none" xmlns="http://www.w3.org/2000/svg">
<path d="M56.144 0H0V9.77298C3.65071 8.07012 6.74956 7.15799 10.1157 7.15799C21.8683 7.15799 32.3066 10.3782 43.6436 16.0467C48.0048 18.2273 51.9523 20.5234 56.1747 22.9795L56.1757 22.98L56.1771 22.9809C58.4096 24.2795 60.719 25.6227 63.2071 27.0173C70.0636 30.8604 77.6359 34.6899 86.3351 37.2081C95.5947 39.8885 107.154 39.4375 117.155 36.0038C127.119 32.5825 137.61 25.3857 141.131 12.8654C142.308 8.67926 142.587 4.2933 142.255 0H122.149C122.548 2.93623 122.426 5.50157 121.878 7.45053C120.805 11.2652 117.195 14.8439 110.66 17.0878C104.161 19.3192 96.823 19.423 91.8963 17.9968C85.3793 16.1103 79.3673 13.1477 72.9857 9.57086C71.081 8.50324 69.0622 7.33066 66.9661 6.11319L66.9649 6.11251L66.9615 6.11053C63.5103 4.10589 59.8497 1.97967 56.144 0Z" fill="#2E3120"/>
<path d="M203.025 0C205.586 3.66836 208.333 6.90699 210.877 9.56842C215.801 14.7206 221.793 16.8649 227.908 16.7228C233.47 16.5936 238.618 14.5902 242.656 12.6575C245.588 11.254 248.691 9.49181 251.334 7.9903C252.276 7.45583 253.159 6.9542 253.955 6.51375C257.478 4.56525 259.71 3.56407 261.209 3.2291C266.177 2.1183 271.823 1.54258 276.485 2.29505C280.996 3.02316 283.251 4.69235 284.407 7.0258C292.204 22.7665 304.945 39.6956 325.506 45.5553C340.49 49.8258 354.448 44.1948 364.735 38.0336C369.631 35.1017 373.677 31.804 377.223 28.7967C377.933 28.1941 378.616 27.6103 379.28 27.0426L379.289 27.0347C382.066 24.6593 384.513 22.5674 387.276 20.567L395.377 14.7035L384.734 0H381.581L375.549 4.3659C372.063 6.88918 368.871 9.6222 366.056 12.0327C365.448 12.5533 364.858 13.0588 364.286 13.544C360.923 16.3962 357.894 18.8181 354.459 20.8755C345.8 26.0616 337.962 28.3089 330.987 26.3212C319.015 22.9092 309.997 12.8824 303.27 0H203.025Z" fill="#2E3120"/>
<path d="M422.404 0C424.742 4.87668 427.928 9.39032 432.079 13.2547C438.724 19.4414 448.837 21.4686 456.718 21.9961C465.005 22.5507 473.982 21.6411 480.437 19.3681C485.443 17.6055 490.37 14.8995 494.274 12.7559C495.529 12.0663 496.679 11.4349 497.691 10.9119C498.489 10.5 499.256 10.12 500 9.77284V0H475.14C474.701 0.173964 474.253 0.341735 473.794 0.503418C470.568 1.63937 464.449 2.46877 458.054 2.04073C453.557 1.73977 450.216 0.904647 448.067 0H422.404Z" fill="#2E3120"/>
<path d="M499.999 53.4653C490.435 47.4939 477.519 43.9614 465.59 45.2725C454.791 46.4594 445.354 52.7501 438.695 59.5742C432.126 66.3061 426.682 75.1815 425.454 83.6026C423.385 97.7837 427.074 117.199 442.14 128.79C450.348 135.104 460.488 138.102 469.031 140.378C470.51 140.772 471.943 141.145 473.334 141.508H473.337C480.653 143.415 486.799 145.016 492.145 147.655C495.622 149.37 498.17 151.366 499.999 153.451V129.239C492.878 125.892 484.824 123.811 477.898 122.022C476.615 121.691 475.371 121.369 474.179 121.052C465.536 118.75 459.022 116.544 454.335 112.938C446.783 107.128 443.85 96.0479 445.244 86.49C445.652 83.6941 448.172 78.4993 453.009 73.5419C457.757 68.6768 463.168 65.6591 467.775 65.1528C475.986 64.2503 485.856 67.4307 491.719 72.0458C492.105 72.3496 492.715 73.0441 493.453 74.7001C494.066 76.0765 494.49 77.4166 495.046 79.1715V79.1732C495.22 79.7223 495.407 80.312 495.616 80.9562L498.707 90.4666L499.999 90.0466V53.4653Z" fill="#2E3120"/>
<path d="M500.001 176.732C497.739 179.855 494.518 183.009 490.506 185.504C483.85 189.643 476.136 191.291 468.56 188.871C462.673 186.992 460.652 183.765 459.839 180.074C458.851 175.586 459.664 169.749 461.577 164.231L464.852 154.782L445.955 148.232L442.68 157.681C440.147 164.989 438.211 174.857 440.307 184.375C442.579 194.69 449.474 203.771 462.475 207.923C476.351 212.355 489.685 209.216 500.001 203.134V176.732Z" fill="#2E3120"/>
<path d="M499.999 310.807C498.385 307.13 497.329 302.92 497.329 299.584C497.329 298.129 497.551 296.549 497.95 294.256C497.988 294.042 498.027 293.819 498.068 293.587L498.086 293.485C498.439 291.491 498.903 288.873 499.077 286.198C499.766 275.612 498.397 264.939 491.721 255.016C487.84 249.248 481.731 242.183 472.478 239.685C465.411 237.778 457.559 238.836 452.699 239.491L452.687 239.492C452.164 239.563 451.675 239.629 451.226 239.685C444.65 240.518 439.158 240.499 433.92 238.951C428.736 237.42 424.826 234.024 422.969 228.12C419.701 217.734 411.193 204.144 396.452 202.19C385.894 200.792 376.087 206.175 369.518 212.751C362.831 219.444 357.615 229.17 357.615 239.662C357.615 250.663 361.253 262.18 365.712 271.308C367.976 275.943 370.587 280.242 373.327 283.797C375.907 287.147 379.204 290.633 383.055 292.688C388.174 295.418 393.438 296.821 398.154 297.746C400.513 298.208 402.85 298.571 404.992 298.896L405.735 299.009C407.644 299.298 409.382 299.56 411.091 299.868C416.693 300.876 422.207 302.511 427.593 304.742C436.982 308.633 443.084 316.916 445.054 330.008C445.148 351.146 449.347 366.462 456.72 378.346C464.121 390.274 474.133 397.747 483.578 404C487.014 406.275 491.43 407.694 495.525 408.546C496.962 408.844 498.46 409.093 499.999 409.286V389.045C499.864 389.019 499.73 388.992 499.597 388.964C496.634 388.348 495.028 387.594 494.618 387.323C485.777 381.47 478.766 375.943 473.715 367.802C468.722 359.754 465.052 348.146 465.052 329.278V328.588L464.958 327.906C462.368 309.218 452.871 293.567 435.249 286.265C428.588 283.505 421.697 281.456 414.633 280.185C412.631 279.825 410.602 279.518 408.726 279.234L407.995 279.122C405.858 278.797 403.898 278.49 402.001 278.118C398.204 277.374 395.111 276.45 392.468 275.041C392.471 275.043 392.472 275.044 392.471 275.043L392.468 275.041L392.466 275.04C392.42 275.01 392.089 274.798 391.497 274.235C390.851 273.62 390.061 272.748 389.171 271.592C387.384 269.273 385.457 266.161 383.682 262.528C380.062 255.117 377.615 246.661 377.615 239.662C377.615 235.674 379.781 230.775 383.666 226.886C387.669 222.88 391.624 221.726 393.825 222.017C396.902 222.425 401.453 226.372 403.891 234.121C407.87 246.772 417.092 254.833 428.254 258.131C437.243 260.786 445.848 260.526 453.738 259.527L454.428 259.44C460.439 258.677 464.283 258.188 467.267 258.994C469.446 259.582 472.09 261.667 475.127 266.181C478.503 271.199 479.636 276.962 479.119 284.901C479.022 286.402 478.763 287.877 478.391 289.997C478.345 290.261 478.297 290.538 478.247 290.824C477.839 293.168 477.329 296.243 477.329 299.584C477.329 306.66 479.437 313.906 481.964 319.467C485.586 327.437 493.121 332.789 498.595 335.438C499.059 335.662 499.527 335.913 499.999 336.185V310.807Z" fill="#2E3120"/>
<path d="M500 434.018C498.054 433.273 495.865 432.32 493.341 431.125C487.327 428.276 479.373 424.942 470.946 423.317C462.569 421.701 452.601 421.56 443.486 426.468C428.589 434.49 420.115 450.957 417.85 466.897C416.308 477.75 417.458 489.687 422.402 500H448.058C446.961 499.538 446.176 499.057 445.707 498.621C439.01 492.385 435.982 481.456 437.651 469.71C439.326 457.918 445.332 448.189 452.968 444.078C456.433 442.212 461.136 441.793 467.158 442.955C473.129 444.106 479.301 446.604 484.779 449.199C489.962 451.655 494.936 453.723 500 454.976V434.018Z" fill="#2E3120"/>
<path d="M500 488.51C495.649 489.671 491.843 491.426 488.51 493.148C486.543 494.164 484.84 495.1 483.277 495.958C480.348 497.567 477.911 498.906 475.15 500H500V488.51Z" fill="#2E3120"/>
<path d="M384.732 500L383.65 498.505L381.584 500H384.732Z" fill="#2E3120"/>
<path d="M303.27 500C302.951 499.39 302.638 498.773 302.33 498.151C297.319 488.036 287.996 483.897 279.673 482.553C271.501 481.234 263.061 482.324 256.845 483.714C252.242 484.743 247.758 487.089 244.276 489.015C243.045 489.696 241.907 490.343 240.825 490.957L240.815 490.963L240.811 490.965C238.408 492.33 236.28 493.539 234.022 494.62C230.804 496.16 228.736 496.701 227.445 496.731C226.707 496.748 226.21 496.667 225.337 495.753C218.558 488.66 213.201 479.751 212.966 472.625C212.894 470.472 213.219 468.266 213.794 465.177C213.852 464.864 213.914 464.537 213.979 464.198L213.98 464.189C214.497 461.465 215.165 457.937 215.327 454.235C215.719 445.279 214.207 436.898 212.038 429.06L209.372 419.422L190.096 424.755L192.762 434.393C194.601 441.037 195.615 447.209 195.346 453.361C195.251 455.543 194.861 457.622 194.318 460.524L194.316 460.533C194.256 460.85 194.195 461.178 194.132 461.516C193.541 464.691 192.827 468.769 192.976 473.287C193.303 483.15 197.772 492.478 203.024 500H303.27Z" fill="#2E3120"/>
<path d="M142.254 500C141.936 495.902 141.061 491.889 139.878 488.214C137.436 480.627 133.264 473.168 127.965 467.869C125.53 465.434 122.358 462.707 119.622 460.356C118.154 459.094 116.811 457.939 115.776 456.996C112.175 453.717 109.641 450.852 108.06 447.69C107.362 446.294 107.081 444.5 107.079 440.794C107.079 440.358 107.085 439.872 107.091 439.342C107.13 436.127 107.187 431.327 106.039 426.737C104.645 421.157 101.35 415.244 97.5925 410.439C93.921 405.746 88.6825 400.668 82.4975 398.278C75.5155 395.581 68.0946 397.013 62.7383 398.972C57.1672 401.009 51.7867 404.349 48.0446 408.091C45.0082 411.127 41.8114 414.975 39.0113 418.345C37.6552 419.978 36.3918 421.498 35.285 422.76C31.3509 427.246 27.9339 430.373 24.2411 432.17C17.3176 435.538 12.9972 436.42 9.25198 436.244C6.63353 436.12 3.77344 435.461 0 434.017V454.976C2.7285 455.65 5.483 456.088 8.31021 456.221C16.6077 456.613 24.368 454.349 32.9904 450.154C40.3572 446.57 45.9102 440.977 50.3212 435.948C52.2578 433.74 53.8743 431.782 55.3673 429.973C57.6928 427.155 59.7186 424.701 62.1868 422.233C63.6366 420.783 66.4399 418.914 69.6072 417.755C72.9893 416.518 74.8614 416.769 75.2895 416.934C76.6199 417.448 79.1461 419.318 81.8392 422.761C84.4458 426.094 86.1162 429.506 86.6365 431.587C87.1106 433.484 87.1015 435.344 87.0857 438.602V438.603C87.0825 439.273 87.0789 440.002 87.0792 440.802C87.0808 444.87 87.2343 450.76 90.1714 456.634C93.393 463.077 98.0641 467.917 102.309 471.783C104.38 473.669 106.114 475.143 107.7 476.492C109.852 478.322 111.734 479.923 113.822 482.011C116.437 484.626 119.161 489.124 120.84 494.343C121.479 496.327 121.909 498.231 122.149 500H142.254Z" fill="#2E3120"/>
<path d="M56.1367 500C54.9565 499.37 53.7718 498.754 52.5879 498.162C39.4504 491.593 25.9065 487.162 10.1157 487.162C6.45212 487.162 3.08873 487.686 0 488.51V500H56.1367Z" fill="#2E3120"/>
<path d="M0 409.287C3.0589 409.672 6.27627 409.836 9.47902 409.724C14.2394 409.559 19.4184 408.77 24.1407 406.854C28.871 404.935 33.8317 401.58 36.7625 395.928C42.8905 384.111 42.3574 374.088 41.8116 363.826L41.8096 363.789C40.9865 348.312 34.2889 338.175 24.1656 329.606C23.7835 329.283 23.3828 328.941 22.9649 328.585L22.9638 328.584C18.9271 325.141 13.2838 320.327 7.30727 317.435C3.95647 315.814 1.08351 313.197 0.172699 311.193C0.114453 311.065 0.0568798 310.936 0 310.807V336.185C3.11936 337.986 6.42571 340.788 10.382 344.141L10.3975 344.154C10.6763 344.391 10.9583 344.63 11.2438 344.871C18.1122 350.685 21.3676 356.009 21.8378 364.851C22.3831 375.102 22.409 380.162 19.0077 386.721C18.9458 386.84 18.5231 387.55 16.6215 388.321C14.7118 389.096 12.0102 389.624 8.78363 389.737C5.76294 389.842 2.67569 389.568 0 389.045V409.287Z" fill="#2E3120"/>
<path d="M0 203.133C0.358381 202.921 0.713119 202.706 1.06411 202.488C11.2985 196.124 19.4726 186.223 22.4925 176.017C25.0557 167.354 24.835 158.161 21.1128 149.74C17.38 141.294 10.4679 134.395 0.995872 129.72C0.66611 129.557 0.334082 129.397 0 129.24V153.453C1.25774 154.888 2.17509 156.366 2.82006 157.825C4.41359 161.43 4.68883 165.697 3.31439 170.342C2.73848 172.289 1.61332 174.501 0 176.729V203.133Z" fill="#2E3120"/>
<path d="M0 90.0463L17.7266 84.2861L14.6361 74.7756C14.5355 74.4658 14.4216 74.1033 14.2948 73.6995L14.2944 73.6982C13.7089 71.8337 12.8464 69.0873 11.7214 66.5619C10.2849 63.3373 8.0066 59.4154 4.08907 56.3314C2.81249 55.3264 1.44449 54.3688 0 53.4668V90.0463Z" fill="#2E3120"/>
<path d="M194.102 143.709C195.979 142.5 199.906 142.14 205.914 143.497C216.208 145.821 220.981 151.199 221.548 156.628C222.112 162.016 222.066 167.482 222.014 173.634L222.009 174.242C221.958 180.438 221.922 187.328 222.803 194.331C224.122 204.822 226.735 221.181 244.501 228.499C248.502 230.148 254.082 231.286 259.178 231.801C264.041 232.293 270.439 232.434 275.509 230.749C285.615 227.388 290.259 219.129 292.621 212.483C293.811 209.135 294.589 205.75 295.186 202.939C295.366 202.088 295.526 201.316 295.672 200.606C296.057 198.742 296.354 197.303 296.715 195.983C298.489 189.478 301.911 180.21 306.898 174.124C309.314 171.174 311.577 169.618 313.556 169.006C315.261 168.479 317.777 168.323 321.707 170.262C328.108 173.422 331.816 179.044 333.251 185.994C334.73 193.155 333.617 201.181 330.666 207.47C321.514 226.968 299.379 237.378 272.211 242.89C261.036 245.158 249.944 246.428 238.382 247.751H238.381C232.801 248.39 227.112 249.041 221.251 249.823C212.029 251.053 201.231 252.731 191.167 256.079C181.125 259.419 170.88 264.718 163.6 273.818C158.358 280.372 155.84 288.081 157.229 296.215C158.561 304.011 163.229 310.701 169.274 316.181C175.184 321.539 183.71 324.144 191.689 325.546C200.021 327.01 209.472 327.438 218.712 327.274C237.117 326.948 256.18 324.234 266.573 321.522C281.157 317.717 324.442 308.588 339.003 306.936L348.939 305.809L346.685 285.937L336.749 287.064C320.826 288.87 276.499 298.263 261.524 302.17C252.929 304.412 235.476 306.974 218.357 307.278C209.834 307.429 201.77 307.011 195.15 305.848C188.176 304.623 184.311 302.818 182.708 301.365C178.669 297.703 177.27 294.759 176.944 292.847C176.675 291.273 176.908 289.199 179.218 286.312C183.133 281.417 189.316 277.772 197.479 275.057C205.62 272.349 214.807 270.86 223.896 269.647C228.957 268.972 234.217 268.368 239.583 267.752H239.586H239.588C251.611 266.372 264.164 264.931 276.188 262.491C304.548 256.736 335.323 244.619 348.771 215.967C353.471 205.953 355.231 193.537 352.838 181.948C350.4 170.147 343.489 158.71 330.559 152.328C322.691 148.444 314.896 147.66 307.652 149.897C300.682 152.051 295.358 156.651 291.428 161.448C283.72 170.855 279.407 183.437 277.42 190.718C276.879 192.701 276.398 195.035 275.975 197.085L275.974 197.092C275.852 197.686 275.734 198.256 275.621 198.787C275.062 201.423 274.503 203.739 273.776 205.785C272.302 209.931 270.786 211.243 269.198 211.77C268.334 212.058 265.48 212.337 261.19 211.903C257.132 211.492 253.657 210.641 252.118 210.007C245.754 207.385 243.978 202.427 242.646 191.835C241.955 186.339 241.956 180.716 242.008 174.407L242.017 173.44C242.067 167.583 242.124 161.09 241.44 154.548C239.612 137.067 224.903 127.28 210.319 123.988C203.606 122.472 192.457 120.979 183.271 126.896C173.447 133.224 167.546 142.816 164.704 152.261C160.626 165.813 157.594 178.87 154.975 192.538C153.559 199.926 151.922 207.359 150.041 214.6C149.922 215.059 149.798 215.573 149.689 216.02L149.626 216.282C149.493 216.826 149.367 217.336 149.231 217.843C149.11 218.294 148.99 218.708 148.871 219.084L148.848 219.061C147.285 217.538 145.9 215.165 145.196 213.435C142.654 207.185 141.701 200.434 140.539 192.204C140.407 191.275 140.274 190.327 140.135 189.359C138.843 180.368 137.087 169.764 131.506 159.927C126.577 151.238 117.027 140.506 101.584 140.506C91.6344 140.506 83.9746 145.796 78.8006 151.27C73.609 156.764 69.9884 163.367 67.8474 168.505C60.1902 186.878 61.6566 206.965 62.8511 223.326L62.8512 223.327C62.92 224.269 62.9878 225.199 63.053 226.115C64.4673 246 71.9568 265.171 78.6009 282.179L78.6017 282.181C79.1632 283.618 79.7187 285.04 80.2639 286.446L83.8805 295.769L102.527 288.536L98.9101 279.213C98.4245 277.961 97.9396 276.716 97.4571 275.476C90.5835 257.824 84.1913 241.408 83.0026 224.696L82.9151 223.468C81.6523 205.765 80.532 190.059 86.3084 176.198C87.823 172.564 90.278 168.244 93.3365 165.008C96.4128 161.752 99.1779 160.506 101.584 160.506C106.463 160.506 110.684 163.755 114.11 169.796C117.645 176.027 119.048 183.224 120.338 192.203C120.471 193.13 120.603 194.083 120.739 195.058C121.834 202.942 123.129 212.264 126.669 220.97C128.079 224.436 130.805 229.401 134.884 233.38C138.982 237.376 146.02 241.727 154.914 239.406C162.105 237.53 165.393 231.515 166.801 228.213C168.041 225.307 168.843 221.945 169.228 220.33C169.3 220.031 169.357 219.792 169.4 219.626C171.404 211.905 173.133 204.046 174.617 196.302C177.139 183.144 180.019 170.775 183.856 158.024C185.622 152.155 189.061 146.957 194.102 143.709Z" fill="#2E3120"/>
<path d="M329.746 91.2387L337.5 72.8027L346.718 76.6794C377.638 89.6829 409.692 120.209 404.109 160.951L402.751 170.858L382.937 168.143L384.294 158.236C388.066 130.71 366.295 106.609 338.964 95.1154L329.746 91.2387Z" fill="#2E3120"/>
<path fill-rule="evenodd" clip-rule="evenodd" d="M332.342 363.413L332.604 363.387C352.613 361.365 365.787 360.034 379.753 368.905C383.991 371.597 387.64 376.431 390.26 382.866C392.856 389.244 394.115 396.433 394.115 402.686C394.115 412.62 388.095 423.595 379.607 430.871C372.322 437.115 366.149 440.778 360.643 441.839C355.865 442.759 350.424 441.952 343.497 436.209C342.687 435.538 341.893 434.887 341.116 434.251C336.801 430.715 333.039 427.633 330.373 424.118C327.652 420.529 327.243 418.07 328.399 415.178C329.592 412.197 332.621 408.523 337.07 405.457C341.507 402.399 346.123 400.799 349.472 400.679C352.18 400.583 354.986 400.756 357.145 401.353C358.56 401.744 359.082 402.13 359.22 402.258L363.643 411.102L381.531 402.158L377.059 393.214C373.662 386.42 367.331 383.418 362.473 382.075C357.519 380.706 352.417 380.562 348.758 380.692C340.582 380.984 332.335 384.431 325.721 388.988C319.12 393.538 312.911 400.047 309.83 407.75C305.213 419.291 309.078 429.136 314.437 436.203C318.682 441.8 324.613 446.622 328.827 450.048L328.829 450.05C329.514 450.607 330.153 451.126 330.733 451.607C341.616 460.628 352.996 463.68 364.427 461.478C375.13 459.416 384.552 452.974 392.623 446.056C404.304 436.043 414.115 419.915 414.115 402.686C414.115 394.018 412.417 384.251 408.784 375.326C405.175 366.458 399.324 357.642 390.476 352.022C370.583 339.387 351.037 341.392 332.732 343.269L331.141 343.432C330.871 343.46 330.601 343.487 330.332 343.514C310.778 345.489 293.672 351.955 278.375 365.102C266.175 375.586 254.881 386.747 248.682 404.367L245.363 413.8L264.229 420.438L267.548 411.005C271.942 398.517 279.858 390.197 291.41 380.27C303.205 370.134 316.305 365.033 332.342 363.413ZM359.262 402.302C359.261 402.302 359.254 402.295 359.243 402.279C359.257 402.293 359.262 402.301 359.262 402.302Z" fill="#2E3120"/>
<path d="M61.8926 317.686H71.8926C96.2297 317.686 113.744 332.229 123.924 351.175C127.919 358.61 130.715 366.957 133.113 374.919C133.908 377.561 134.653 380.13 135.382 382.648C136.946 388.044 138.442 393.206 140.228 398.342C145.412 413.25 151.737 423.746 163.293 428.724L172.477 432.68L164.565 451.048L155.381 447.092C135.783 438.65 126.983 421.148 121.337 404.911C119.374 399.265 117.632 393.258 115.996 387.614L115.994 387.609V387.607V387.606L115.99 387.595C115.299 385.209 114.626 382.888 113.963 380.687C111.627 372.933 109.297 366.207 106.306 360.641C98.6153 346.328 86.9758 337.686 71.8926 337.686H61.8926V317.686Z" fill="#2E3120"/>
<path fill-rule="evenodd" clip-rule="evenodd" d="M157.429 83.7339C146.297 72.197 133.443 59.5241 114.044 54.6956C104.697 52.3689 91.6907 49.2074 78.7713 53.6768C66.6939 57.8548 59.3049 66.1465 54.1242 74.8117C51.5793 79.0683 49.4904 83.5404 47.638 87.7234C47.0113 89.1385 46.4237 90.4913 45.8536 91.8039L45.8529 91.8056L45.8518 91.8079L45.851 91.8099L45.8498 91.8126L45.8457 91.8222C44.6556 94.5622 43.5415 97.1274 42.3069 99.7195C39.1772 106.291 35.6604 116.933 42.9947 127.298C46.0088 131.557 50.6018 134.129 54.5449 135.475C58.5142 136.83 63.5876 137.547 68.4125 136.242C75.5675 134.307 82.4676 128.707 86.099 125.405C88.7935 122.954 90.528 119.934 91.4721 118.29L91.5677 118.123L91.6468 117.986C92.8279 115.942 93.2045 115.444 93.4916 115.178C94.7238 114.04 95.9982 113.626 98.5578 114.199C101.59 114.878 105.216 116.79 109.152 119.419C109.777 119.836 110.469 120.364 111.541 121.18L111.78 121.362C112.867 122.189 114.282 123.26 115.817 124.252C118.662 126.09 123.536 128.762 129.526 128.244C138.216 127.492 147.496 123.258 153.724 116.976C157.048 113.625 160.148 108.648 161.625 103.295C163.078 98.0293 163.476 90.0008 157.429 83.7339ZM109.214 74.1034C122.292 77.3588 131.562 85.7644 142.524 97.0912C142.499 97.3148 142.446 97.6108 142.345 97.9759C142.117 98.8049 141.704 99.7691 141.138 100.729C140.569 101.695 139.97 102.443 139.522 102.895C136.801 105.639 132.187 107.827 128.179 108.28C127.968 108.197 127.487 107.98 126.67 107.452C125.854 106.926 124.992 106.284 123.894 105.448L123.578 105.207C122.639 104.491 121.437 103.574 120.261 102.788C115.832 99.8298 109.689 96.1967 102.928 94.6827C95.6947 93.0629 87.1516 93.8075 79.9201 100.488C77.1918 103.008 75.4524 106.03 74.4798 107.72C74.428 107.81 74.3784 107.896 74.3309 107.978C73.7623 108.962 73.4232 109.54 73.0874 110.033C72.7849 110.477 72.6427 110.609 72.6427 110.609C69.248 113.696 65.427 116.303 63.2482 116.92C63.2064 116.924 63.0316 116.941 62.711 116.916C62.2329 116.879 61.6341 116.762 61.0056 116.548C60.3752 116.332 59.863 116.07 59.5151 115.838C59.3753 115.745 59.2897 115.675 59.2463 115.638C58.7308 114.872 58.6217 114.284 58.6775 113.489C58.757 112.359 59.2176 110.725 60.3637 108.319C61.7498 105.408 63.0968 102.309 64.3584 99.4054L64.3599 99.4019C64.8984 98.1627 65.4213 96.9593 65.9251 95.8217C67.6955 91.8239 69.3891 88.2545 71.2902 85.0747C75.0016 78.867 79.1584 74.7058 85.3099 72.5777C91.8708 70.3081 99.2583 71.6254 109.214 74.1034Z" fill="#2E3120"/>
<path d="M157.15 334.148L162.494 342.599C171.44 356.745 182.228 365.685 197.975 374.32C200.98 375.969 205.618 376.408 210.233 375.268L219.942 372.87L224.737 392.287L215.029 394.684C206.995 396.669 196.917 396.55 188.358 391.856C170.499 382.063 156.806 371.023 145.591 353.289L140.246 344.837L157.15 334.148Z" fill="#2E3120"/>
<path d="M30.3657 218.388L25.0215 209.936L8.11719 220.625L13.4614 229.077C17.7038 235.787 19.3054 242.619 21.2753 251.022C21.6946 252.81 22.1305 254.67 22.6121 256.615C25.4182 267.945 26.2345 275.965 21.2186 283.256L15.5509 291.495L32.0285 302.83L37.6962 294.592C48.1515 279.393 44.8629 263.263 42.0256 251.807C41.6776 250.402 41.3335 248.904 40.9724 247.332C39.0241 238.851 36.5818 228.219 30.3657 218.388Z" fill="#2E3120"/>
<path d="M234.597 59.9172C225.877 57.3409 219.71 55.72 212.518 56.1431C208.95 56.353 205.166 57.4309 200.805 59.1752C198.637 60.0423 196.449 61.0222 194.111 62.0863C193.781 62.2365 193.446 62.389 193.108 62.5433C191.116 63.452 188.993 64.4199 186.887 65.3124L177.68 69.2138L169.877 50.7988L179.084 46.8973C180.92 46.1197 182.763 45.2793 184.766 44.3658C185.114 44.207 185.467 44.046 185.826 43.8827C188.185 42.8092 190.741 41.6602 193.378 40.6055C198.626 38.5062 204.696 36.5686 211.343 36.1776C222.412 35.5266 231.634 38.1872 240.264 40.7369C250.898 43.8789 259.9 47.8322 269.396 53.3458C273.337 55.6342 276.875 57.5268 280.148 58.618L289.635 61.7803L283.31 80.7539L273.824 77.5917C268.433 75.7947 263.354 72.9647 259.353 70.6416C251.164 65.8866 243.625 62.5847 234.597 59.9172Z" fill="#2E3120"/>
</svg>
