<svg width="500" height="500" viewBox="0 0 500 500" fill="none" xmlns="http://www.w3.org/2000/svg">
<path fill-rule="evenodd" clip-rule="evenodd" d="M122.462 192.022C136.231 190.905 143.978 190.38 158.125 198.395C185.467 213.888 208.796 270.282 182.209 301.643C168.166 318.207 153.02 319.333 135.852 322.285C126.798 323.844 107.641 319.469 99.5023 314.669C89.8068 308.951 81.2435 303.942 74.7563 291.445C48.0501 239.996 89.7288 192.022 122.462 192.022Z" fill="#939878"/>
<path fill-rule="evenodd" clip-rule="evenodd" d="M125.144 433.852C139.569 434.804 147.685 435.251 162.507 428.423C191.153 415.225 215.595 367.181 187.74 340.465C173.026 326.354 157.159 325.395 139.172 322.879C129.686 321.552 109.616 325.279 101.089 329.368C90.9308 334.239 81.9592 338.507 75.1626 349.153C47.1829 392.983 90.8492 433.852 125.144 433.852Z" fill="#42535D"/>
<path d="M0 434.302V325.606C3.46825 325.591 7.14075 325.835 11.4058 326.129C43.3244 326.129 83.966 365.902 57.9244 408.556C51.6282 418.867 43.3267 423.03 33.927 427.743L33.7941 427.809C26.3232 431.556 9.33191 434.989 0 434.302Z" fill="#939878"/>
<path fill-rule="evenodd" clip-rule="evenodd" d="M122.462 192.367C136.231 193.486 143.978 194.011 158.125 185.985C185.467 170.472 208.796 114.003 182.209 82.6019C168.166 66.0164 153.02 64.8888 135.852 61.9324C126.798 60.3723 107.641 64.7523 99.5024 69.559C89.8068 75.2844 81.2436 80.3001 74.7563 92.8133C48.0501 144.33 89.7289 192.367 122.462 192.367Z" fill="#42535D"/>
<path fill-rule="evenodd" clip-rule="evenodd" d="M377.64 327.901C390.424 329.069 397.618 329.617 410.754 321.244C436.142 305.06 457.805 246.15 433.117 213.391C420.077 196.088 406.014 194.912 390.072 191.828C381.665 190.2 363.878 194.769 356.321 199.784C347.318 205.757 339.367 210.989 333.343 224.044C308.545 277.788 347.246 327.901 377.64 327.901Z" fill="#939878"/>
<path fill-rule="evenodd" clip-rule="evenodd" d="M395.058 431.091C383.078 431.969 364.777 432.072 349.571 424.236C317.056 407.479 319.936 369.657 343.07 345.039C355.29 332.036 368.469 331.152 383.408 328.835C391.286 327.612 413.24 330.666 420.322 334.434C428.758 338.922 430.924 343.234 436.569 353.044C459.807 393.432 423.54 431.091 395.058 431.091Z" fill="#42535D"/>
<path fill-rule="evenodd" clip-rule="evenodd" d="M391.775 193.73C378.99 194.898 359.461 195.036 343.235 184.608C308.537 162.309 311.61 111.979 336.297 79.2203C349.337 61.9178 363.401 60.7414 379.342 57.6573C387.749 56.0297 411.177 60.0936 418.735 65.1081C427.737 71.0811 430.048 76.819 436.072 89.8732C460.87 143.617 422.169 193.73 391.775 193.73Z" fill="#42535D"/>
<path fill-rule="evenodd" clip-rule="evenodd" d="M320.572 221.762C335.737 249.025 317.307 274.439 310.376 288.466C296.978 315.575 249.114 330.549 216.653 307.548C199.509 295.399 197.636 275.042 193.624 258.938C191.507 250.445 198.054 234.521 202.227 226.438C207.197 216.809 221.08 206.925 232.901 199.855C268.899 178.324 305.408 194.498 320.572 221.762Z" fill="#42535D"/>
<path fill-rule="evenodd" clip-rule="evenodd" d="M205.475 346.59C191.693 370.413 208.597 392.712 214.966 405.01C227.277 428.78 271.045 442.023 300.64 421.981C316.272 411.395 317.929 393.58 321.552 379.493C323.463 372.065 317.44 358.107 313.606 351.019C309.04 342.576 296.331 333.884 285.512 327.661C252.569 308.712 219.257 322.767 205.475 346.59Z" fill="#939878"/>
<path fill-rule="evenodd" clip-rule="evenodd" d="M196.387 93.275C181.871 120.422 199.344 145.626 205.902 159.547C218.578 186.452 264.102 201.186 295.072 178.223C311.43 166.093 313.271 145.853 317.138 129.832C319.177 121.384 312.99 105.576 309.041 97.5548C304.337 87.9988 291.149 78.2177 279.915 71.2264C245.707 49.9374 210.903 66.1279 196.387 93.275Z" fill="#939878"/>
<path d="M66.2274 0H0V65.5011C9.33191 66.3308 26.3232 62.1895 33.7941 57.6705L33.927 57.5902C43.3266 51.9055 51.6282 46.885 57.9244 34.4468C63.9212 22.5991 66.3819 10.9357 66.2274 0Z" fill="#42535D"/>
<path d="M0 194.286V65.6083C3.46825 65.5892 7.14075 65.8789 11.4058 66.2274C43.3244 66.2274 83.966 113.312 57.9244 163.807C51.6282 176.015 43.3266 180.942 33.9269 186.521L33.7941 186.6C26.3232 191.035 9.33191 195.1 0 194.286Z" fill="#939878"/>
<path d="M0 325.499V194.391C3.46825 194.372 7.14075 194.667 11.4058 195.022C43.3244 195.022 83.966 242.996 57.9244 294.445C51.6282 306.883 43.3266 311.905 33.927 317.589L33.7941 317.669C26.3232 322.188 9.33191 326.329 0 325.499Z" fill="#42535D"/>
<path d="M66.2274 500.001H0V434.391C3.46825 434.372 7.14075 434.668 11.4058 435.023C35.9746 435.023 65.7117 463.447 66.2274 500.001Z" fill="#42535D"/>
<path d="M193.556 500H66.2654C65.1075 462.013 96.5809 432.022 122.462 432.022C136.231 430.905 143.978 430.38 158.125 438.395C175.375 448.169 191.027 474.223 193.556 500Z" fill="#939878"/>
<path d="M324.844 500H193.518C192.414 490.863 198.409 475.702 202.318 467.781C207.262 457.762 221.119 447.506 232.922 440.174C268.866 417.85 305.429 434.818 320.675 463.276C327.626 476.249 327.592 488.8 324.844 500Z" fill="#42535D"/>
<path d="M443.329 500H325.436C325.293 488.584 327.637 476.41 333.343 464.044C339.338 451.051 347.243 445.806 356.194 439.868L356.321 439.784C363.878 434.769 381.665 430.2 390.072 431.828C391.464 432.097 392.841 432.352 394.205 432.604C408.461 435.24 421.215 437.598 433.117 453.391C442.829 466.278 445.368 483.212 443.329 500Z" fill="#939878"/>
<path d="M500.001 434.391V500H442.422C445.73 475.226 460.459 450.79 476.627 441.395C486.042 435.925 492.549 434.433 500.001 434.391Z" fill="#42535D"/>
<path d="M499.999 325.5V434.391C499.416 434.348 498.863 434.29 498.344 434.213C496.883 433.999 495.436 433.797 494.005 433.596C479.033 431.5 465.639 429.625 453.14 417.069C427.214 391.022 449.963 344.185 476.625 331.317C486.04 326.774 492.547 325.534 499.999 325.5Z" fill="#939878"/>
<path d="M499.999 194.391V325.5C499.416 325.448 498.863 325.377 498.344 325.285C496.883 325.028 495.436 324.784 494.004 324.543C479.033 322.019 465.639 319.761 453.14 304.643C427.214 273.282 449.963 216.888 476.625 201.395C486.04 195.925 492.547 194.433 499.999 194.391Z" fill="#42535D"/>
<path d="M499.999 65.6084V194.286C499.416 194.235 498.863 194.165 498.344 194.076C496.883 193.823 495.436 193.583 494.005 193.346C479.033 190.869 465.639 188.654 453.14 173.816C427.214 143.037 449.963 87.6877 476.625 72.4823C486.04 67.1138 492.547 65.6489 499.999 65.6084Z" fill="#939878"/>
<path d="M500.001 65.5015V0H442.422C440.274 16.0795 442.938 32.3013 453.142 44.6448C465.641 59.7627 479.035 62.0205 494.006 64.5443C495.438 64.7856 496.885 65.0294 498.346 65.2871C498.865 65.3787 499.418 65.4498 500.001 65.5015Z" fill="#42535D"/>
<path d="M410.754 61.2455C397.618 69.6182 390.424 69.0701 377.64 67.9028C354.239 67.9028 325.914 38.1973 325.436 0H443.329C440.185 25.8878 426.155 51.4281 410.754 61.2455Z" fill="#939878"/>
<path d="M324.845 0C322.366 10.1062 317.678 19.1129 313.917 26.338C312.702 28.6711 311.584 30.8184 310.669 32.7569C297.347 60.9657 249.516 76.4203 216.982 52.3512C202.42 41.5774 198.811 24.6955 195.578 9.57408C194.996 6.85152 194.426 4.18603 193.807 1.62353C193.682 1.1075 193.586 0.565279 193.518 0H324.845Z" fill="#42535D"/>
<path d="M193.554 0C195.034 15.0817 192.021 30.0687 182.207 41.6448C169.389 56.7627 155.654 59.0205 140.3 61.5443C138.831 61.7856 137.348 62.0294 135.85 62.2871C126.796 63.8452 107.639 59.4709 99.5007 54.6705L99.3645 54.5902C89.725 48.9055 81.2115 43.885 74.7547 31.4468C69.1639 20.6761 66.5701 10.0578 66.2637 0H193.554Z" fill="#939878"/>
</svg>
