<svg width="500" height="500" viewBox="0 0 500 500" fill="none" xmlns="http://www.w3.org/2000/svg">
<path d="M134.871 141.063C136.838 132.213 141.802 133.563 150.816 133.563C154.054 133.563 154.498 134.379 157.816 134.563C161.071 134.744 162.816 135.813 165.816 140.341C168.877 142.142 165.817 150.362 165.038 152.785C163.34 158.066 161.643 158.659 157.316 161.063C153.665 163.091 145.467 161.563 141.371 161.563C137.042 161.563 133.816 156.449 133.816 152.619C133.816 149.026 134.089 144.58 134.871 141.063Z" fill="#2E3120"/>
<path d="M51.7782 184.063C53.7448 175.213 58.7088 176.563 67.7227 176.563C70.9611 176.563 71.4056 177.379 74.7227 177.563C77.9781 177.744 79.7227 178.813 82.7227 183.341C85.784 185.142 82.7237 193.362 81.9449 195.785C80.2475 201.066 78.5499 201.659 74.2227 204.063C70.572 206.091 62.3746 204.563 58.2782 204.563C53.9494 204.563 50.7227 199.449 50.7227 195.619C50.7227 192.026 50.9966 187.58 51.7782 184.063Z" fill="#2E3120"/>
<path d="M100.551 423.353C102.518 414.503 107.482 415.853 116.496 415.853C119.734 415.853 120.179 416.668 123.496 416.853C126.751 417.033 128.496 418.103 131.496 422.63C134.557 424.431 131.497 432.652 130.718 435.075C129.021 440.356 127.323 440.949 122.996 443.353C119.345 445.381 111.148 443.853 107.051 443.853C102.723 443.853 99.4961 438.739 99.4961 434.908C99.4961 431.315 99.77 426.87 100.551 423.353Z" fill="#2E3120"/>
<path d="M307.418 431.798C309.385 422.949 314.349 424.298 323.363 424.298C326.601 424.298 327.046 425.114 330.363 425.298C333.618 425.479 335.363 426.548 338.363 431.076C341.424 432.877 338.364 441.098 337.585 443.521C335.887 448.801 334.19 449.394 329.863 451.798C326.212 453.826 318.014 452.298 313.918 452.298C309.589 452.298 306.363 447.184 306.363 443.354C306.363 439.761 306.636 435.316 307.418 431.798Z" fill="#2E3120"/>
<path d="M56.204 237.296C58.1705 228.447 63.1345 229.796 72.1484 229.796C75.3868 229.796 75.8314 230.612 79.1484 230.796C82.4038 230.977 84.1484 232.046 87.1484 236.574C90.2097 238.375 87.1495 246.595 86.3706 249.018C84.6732 254.299 82.9756 254.892 78.6484 257.296C74.9977 259.324 66.8003 257.796 62.704 257.796C58.3752 257.796 55.1484 252.682 55.1484 248.852C55.1484 245.259 55.4223 240.814 56.204 237.296Z" fill="#2E3120"/>
<path d="M429.15 371.896C431.116 363.047 436.08 364.396 445.094 364.396C448.333 364.396 448.777 365.212 452.094 365.396C455.349 365.577 457.094 366.646 460.094 371.174C463.155 372.975 460.095 381.196 459.316 383.619C457.619 388.9 455.921 389.492 451.594 391.896C447.943 393.925 439.746 392.396 435.65 392.396C431.321 392.396 428.094 387.283 428.094 383.452C428.094 379.859 428.368 375.414 429.15 371.896Z" fill="#2E3120"/>
<path d="M399.219 455.29C401.186 446.44 406.15 447.79 415.164 447.79C418.402 447.79 418.847 448.606 422.164 448.79C425.419 448.971 427.164 450.04 430.164 454.568C433.225 456.369 430.165 464.589 429.386 467.012C427.689 472.293 425.991 472.886 421.664 475.29C418.013 477.318 409.816 475.79 405.719 475.79C401.391 475.79 398.164 470.676 398.164 466.846C398.164 463.253 398.438 458.807 399.219 455.29Z" fill="#2E3120"/>
<path d="M466.688 136.327C468.655 127.477 473.619 128.827 482.633 128.827C485.871 128.827 486.316 129.642 489.633 129.827C492.888 130.007 494.633 131.077 497.633 135.604C500.694 137.405 497.634 145.626 496.855 148.049C495.158 153.33 493.46 153.923 489.133 156.327C485.482 158.355 477.285 156.827 473.188 156.827C468.859 156.827 465.633 151.713 465.633 147.882C465.633 144.29 465.907 139.844 466.688 136.327Z" fill="#2E3120"/>
<path d="M140.364 282.619C142.331 273.77 147.295 275.119 156.309 275.119C159.547 275.119 159.992 275.935 163.309 276.119C166.564 276.3 168.309 277.369 171.309 281.897C174.37 283.698 171.31 291.918 170.531 294.341C168.834 299.622 167.136 300.215 162.809 302.619C159.158 304.647 150.961 303.119 146.864 303.119C142.535 303.119 139.309 298.005 139.309 294.175C139.309 290.582 139.583 286.137 140.364 282.619Z" fill="#2E3120"/>
<path d="M208.364 218.619C210.331 209.77 215.295 211.119 224.309 211.119C227.547 211.119 227.992 211.935 231.309 212.119C234.564 212.3 236.309 213.369 239.309 217.897C242.37 219.698 239.31 227.918 238.531 230.341C236.834 235.622 235.136 236.215 230.809 238.619C227.158 240.647 218.961 239.119 214.864 239.119C210.535 239.119 207.309 234.005 207.309 230.175C207.309 226.582 207.583 222.137 208.364 218.619Z" fill="#2E3120"/>
<path d="M249.364 184.063C251.331 175.213 256.295 176.563 265.309 176.563C268.547 176.563 268.992 177.379 272.309 177.563C275.564 177.744 277.309 178.813 280.309 183.341C283.37 185.142 280.31 193.362 279.531 195.785C277.834 201.066 276.136 201.659 271.809 204.063C268.158 206.091 259.961 204.563 255.864 204.563C251.535 204.563 248.309 199.449 248.309 195.619C248.309 192.026 248.583 187.58 249.364 184.063Z" fill="#2E3120"/>
<path d="M290.364 141.063C292.331 132.213 297.295 133.563 306.309 133.563C309.547 133.563 309.992 134.379 313.309 134.563C316.564 134.744 318.309 135.813 321.309 140.341C324.37 142.142 321.31 150.362 320.531 152.785C318.834 158.066 317.136 158.659 312.809 161.063C309.158 163.091 300.961 161.563 296.864 161.563C292.535 161.563 289.309 156.449 289.309 152.619C289.309 149.026 289.583 144.58 290.364 141.063Z" fill="#2E3120"/>
<path d="M363.896 212.689C365.862 203.839 370.826 205.189 379.84 205.189C383.079 205.189 383.523 206.005 386.84 206.189C390.096 206.37 391.84 207.439 394.84 211.967C397.902 213.768 394.841 221.988 394.063 224.411C392.365 229.692 390.668 230.285 386.34 232.689C382.69 234.717 374.492 233.189 370.396 233.189C366.067 233.189 362.84 228.075 362.84 224.245C362.84 220.652 363.114 216.206 363.896 212.689Z" fill="#2E3120"/>
<path d="M397.232 16.7114C399.198 7.8619 404.162 9.21141 413.176 9.21141C416.415 9.21141 416.859 10.0271 420.176 10.2114C423.431 10.3923 425.176 11.4614 428.176 15.9892C431.237 17.79 428.177 26.0106 427.398 28.4336C425.701 33.7145 424.003 34.3074 419.676 36.7114C416.025 38.7396 407.828 37.2114 403.732 37.2114C399.403 37.2114 396.176 32.0975 396.176 28.267C396.176 24.6743 396.45 20.2288 397.232 16.7114Z" fill="#2E3120"/>
<path d="M34.0634 401.338C36.0299 392.488 40.9939 393.838 50.0078 393.838C53.2462 393.838 53.6908 394.654 57.0078 394.838C60.2632 395.019 62.0078 396.088 65.0078 400.616C68.0691 402.416 65.0088 410.637 64.23 413.06C62.5326 418.341 60.835 418.934 56.5078 421.338C52.8571 423.366 44.6597 421.838 40.5634 421.838C36.2346 421.838 33.0078 416.724 33.0078 412.893C33.0078 409.301 33.2817 404.855 34.0634 401.338Z" fill="#2E3120"/>
<path d="M266.032 362.338C267.999 353.488 272.963 354.838 281.977 354.838C285.215 354.838 285.66 355.654 288.977 355.838C292.232 356.019 293.977 357.088 296.977 361.616C300.038 363.416 296.978 371.637 296.199 374.06C294.501 379.341 292.804 379.934 288.477 382.338C284.826 384.366 276.629 382.838 272.532 382.838C268.203 382.838 264.977 377.724 264.977 373.893C264.977 370.301 265.25 365.855 266.032 362.338Z" fill="#2E3120"/>
<path d="M450.686 297.761C451.096 299.22 451.535 300.844 452.699 301.886C457.782 306.433 464.645 305.511 467.686 305.511C470.031 305.511 473.216 305.675 475.311 304.566C477.449 303.434 479.214 300.483 480.199 298.372C480.827 297.027 482.268 295.374 482.311 293.872C482.347 292.583 482.317 291.494 481.936 290.275C481.39 288.529 480.987 287.007 479.949 285.497C478.694 283.67 476.247 283.107 474.366 282.066C472.022 280.77 470.322 280.261 467.644 280.261C464.754 280.261 461.931 280.567 459.061 280.747C456.159 280.928 454.975 281.616 453.186 283.872C451.593 285.88 450.855 288.207 450.366 290.705C449.962 292.772 450.121 295.754 450.686 297.761Z" fill="#2E3120"/>
<path d="M192.338 193.989C192.748 195.448 193.187 197.072 194.352 198.114C199.434 202.661 206.298 201.739 209.338 201.739C211.684 201.739 214.868 201.904 216.963 200.795C219.102 199.662 220.866 196.712 221.852 194.6C222.479 193.255 223.92 191.602 223.963 190.1C224 188.812 223.969 187.723 223.588 186.503C223.042 184.757 222.64 183.235 221.602 181.725C220.346 179.898 217.9 179.335 216.018 178.295C213.674 176.998 211.974 176.489 209.296 176.489C206.407 176.489 203.583 176.796 200.713 176.975C197.811 177.157 196.627 177.845 194.838 180.1C193.245 182.109 192.507 184.435 192.018 186.934C191.614 189.001 191.773 191.982 192.338 193.989Z" fill="#2E3120"/>
<path d="M274.338 50.9648C274.748 52.4238 275.187 54.0477 276.352 55.0898C281.434 59.6369 288.298 58.7148 291.338 58.7148C293.684 58.7148 296.868 58.8794 298.963 57.7703C301.102 56.638 302.866 53.687 303.852 51.5759C304.479 50.2307 305.92 48.5779 305.963 47.0759C306 45.7871 305.969 44.6982 305.588 43.4786C305.042 41.7326 304.64 40.2105 303.602 38.7009C302.346 36.874 299.9 36.311 298.018 35.2703C295.674 33.9737 293.974 33.4648 291.296 33.4648C288.407 33.4648 285.583 33.7715 282.713 33.9509C279.811 34.1322 278.627 34.8201 276.838 37.0759C275.245 39.0844 274.507 41.4105 274.018 43.9092C273.614 45.9761 273.773 48.9576 274.338 50.9648Z" fill="#2E3120"/>
<path d="M200.674 53.5645C201.084 55.0235 201.523 56.6474 202.688 57.6895C207.77 62.2366 214.634 61.3145 217.674 61.3145C220.02 61.3145 223.204 61.4791 225.299 60.3701C227.438 59.2377 229.203 56.2868 230.188 54.1756C230.816 52.8304 232.256 51.1776 232.299 49.6756C232.336 48.3869 232.305 47.298 231.924 46.0784C231.378 44.3324 230.976 42.8103 229.938 41.3006C228.682 39.4737 226.236 38.9107 224.355 37.8701C222.011 36.5734 220.311 36.0645 217.632 36.0645C214.743 36.0645 211.92 36.3712 209.049 36.5506C206.148 36.7319 204.963 37.4199 203.174 39.6756C201.581 41.6842 200.844 44.0102 200.355 46.5089C199.95 48.5759 200.11 51.5573 200.674 53.5645Z" fill="#2E3120"/>
<path d="M33.5528 226.644C33.9631 228.103 34.402 229.727 35.5666 230.769C40.6487 235.316 47.5125 234.394 50.5528 234.394C52.8986 234.394 56.0829 234.559 58.1778 233.45C60.3166 232.317 62.0814 229.366 63.0666 227.255C63.6944 225.91 65.1348 224.257 65.1778 222.755C65.2146 221.466 65.1839 220.378 64.8028 219.158C64.2571 217.412 63.8545 215.89 62.8166 214.38C61.5607 212.553 59.1145 211.99 57.2333 210.95C54.8894 209.653 53.1893 209.144 50.5111 209.144C47.6215 209.144 44.7982 209.451 41.9278 209.63C39.0264 209.811 37.8418 210.499 36.0528 212.755C34.4597 214.764 33.7222 217.09 33.2333 219.588C32.8289 221.655 32.9882 224.637 33.5528 226.644Z" fill="#2E3120"/>
<path d="M183.021 460.62C183.432 462.079 183.871 463.703 185.035 464.745C190.117 469.293 196.981 468.37 200.021 468.37C202.367 468.37 205.551 468.535 207.646 467.426C209.785 466.294 211.55 463.343 212.535 461.231C213.163 459.886 214.603 458.233 214.646 456.731C214.683 455.443 214.652 454.354 214.271 453.134C213.726 451.388 213.323 449.866 212.285 448.356C211.029 446.53 208.583 445.967 206.702 444.926C204.358 443.629 202.658 443.12 199.98 443.12C197.09 443.12 194.267 443.427 191.396 443.606C188.495 443.788 187.31 444.476 185.521 446.731C183.928 448.74 183.191 451.066 182.702 453.565C182.297 455.632 182.457 458.613 183.021 460.62Z" fill="#2E3120"/>
<path d="M54.3379 329.938C54.7483 331.396 55.1871 333.02 56.3518 334.062C61.4339 338.609 68.2977 337.688 71.3379 337.688C73.6838 337.688 76.868 337.852 78.9629 336.743C81.1017 335.61 82.8666 332.661 83.8518 330.549C84.4796 329.204 85.92 327.551 85.9629 326.049C85.9997 324.761 85.969 323.672 85.5879 322.452C85.0423 320.706 84.6397 319.184 83.6018 317.674C82.3458 315.847 79.8997 315.283 78.0185 314.243C75.6746 312.946 73.9745 312.438 71.2963 312.438C68.4066 312.438 65.5834 312.745 62.7129 312.924C59.8115 313.106 58.6269 313.794 56.8379 316.049C55.2449 318.058 54.5074 320.384 54.0185 322.883C53.6141 324.95 53.7734 327.931 54.3379 329.938Z" fill="#2E3120"/>
<path d="M385.202 357.951C385.612 359.41 386.051 361.034 387.216 362.076C392.298 366.623 399.162 365.701 402.202 365.701C404.548 365.701 407.732 365.866 409.827 364.757C411.966 363.624 413.731 360.673 414.716 358.562C415.344 357.217 416.784 355.564 416.827 354.062C416.864 352.774 416.833 351.685 416.452 350.465C415.906 348.719 415.504 347.197 414.466 345.687C413.21 343.86 410.764 343.297 408.882 342.257C406.539 340.96 404.838 340.451 402.16 340.451C399.271 340.451 396.447 340.758 393.577 340.937C390.676 341.119 389.491 341.807 387.702 344.062C386.109 346.071 385.371 348.397 384.882 350.896C384.478 352.963 384.637 355.944 385.202 357.951Z" fill="#2E3120"/>
<path d="M274.338 295.844C274.748 297.303 275.187 298.927 276.352 299.969C281.434 304.516 288.298 303.594 291.338 303.594C293.684 303.594 296.868 303.759 298.963 302.65C301.102 301.517 302.866 298.567 303.852 296.455C304.479 295.11 305.92 293.457 305.963 291.955C306 290.667 305.969 289.578 305.588 288.358C305.042 286.612 304.64 285.09 303.602 283.58C302.346 281.753 299.9 281.19 298.018 280.15C295.674 278.853 293.974 278.344 291.296 278.344C288.407 278.344 285.583 278.651 282.713 278.83C279.811 279.012 278.627 279.7 276.838 281.955C275.245 283.964 274.507 286.29 274.018 288.789C273.614 290.856 273.773 293.837 274.338 295.844Z" fill="#2E3120"/>
<path d="M13.127 34.8896C13.5374 36.3487 13.9762 37.9726 15.1409 39.0146C20.223 43.5618 27.0868 42.6396 30.127 42.6396C32.4729 42.6396 35.6571 42.8043 37.752 41.6952C39.8908 40.5629 41.6557 37.6119 42.6409 35.5008C43.2687 34.1556 44.7091 32.5027 44.752 31.0008C44.7888 29.712 44.7581 28.6231 44.377 27.4035C43.8314 25.6575 43.4288 24.1354 42.3909 22.6258C41.1349 20.7989 38.6888 20.2359 36.8076 19.1952C34.4637 17.8986 32.7636 17.3896 30.0854 17.3896C27.1957 17.3896 24.3725 17.6964 21.502 17.8758C18.6006 18.0571 17.416 18.745 15.627 21.0008C14.034 23.0093 13.2964 25.3354 12.8076 27.8341C12.4032 29.901 12.5625 32.8825 13.127 34.8896Z" fill="#2E3120"/>
<path d="M236.323 436.831C236.733 438.29 237.172 439.913 238.337 440.956C243.419 445.503 250.283 444.581 253.323 444.581C255.669 444.581 258.853 444.745 260.948 443.636C263.087 442.504 264.852 439.553 265.837 437.442C266.465 436.096 267.905 434.444 267.948 432.942C267.985 431.653 267.954 430.564 267.573 429.344C267.027 427.598 266.625 426.076 265.587 424.567C264.331 422.74 261.885 422.177 260.003 421.136C257.66 419.839 255.959 419.331 253.281 419.331C250.392 419.331 247.568 419.637 244.698 419.817C241.797 419.998 240.612 420.686 238.823 422.942C237.23 424.95 236.492 427.276 236.003 429.775C235.599 431.842 235.758 434.823 236.323 436.831Z" fill="#2E3120"/>
<path d="M105.491 319.093C105.901 320.552 106.34 322.176 107.504 323.218C112.587 327.765 119.45 326.843 122.491 326.843C124.836 326.843 128.021 327.007 130.116 325.898C132.254 324.766 134.019 321.815 135.004 319.704C135.632 318.359 137.073 316.706 137.116 315.204C137.152 313.915 137.122 312.826 136.741 311.607C136.195 309.861 135.792 308.339 134.754 306.829C133.498 305.002 131.052 304.439 129.171 303.398C126.827 302.102 125.127 301.593 122.449 301.593C119.559 301.593 116.736 301.899 113.866 302.079C110.964 302.26 109.78 302.948 107.991 305.204C106.398 307.212 105.66 309.539 105.171 312.037C104.767 314.104 104.926 317.086 105.491 319.093Z" fill="#2E3120"/>
<path d="M79.5762 393.531C79.9866 394.99 80.4254 396.614 81.5901 397.656C86.6722 402.203 93.536 401.281 96.5762 401.281C98.9221 401.281 102.106 401.445 104.201 400.336C106.34 399.204 108.105 396.253 109.09 394.142C109.718 392.797 111.158 391.144 111.201 389.642C111.238 388.353 111.207 387.264 110.826 386.045C110.281 384.299 109.878 382.777 108.84 381.267C107.584 379.44 105.138 378.877 103.257 377.836C100.913 376.54 99.2128 376.031 96.5346 376.031C93.6449 376.031 90.8217 376.337 87.9512 376.517C85.0498 376.698 83.8652 377.386 82.0762 379.642C80.4832 381.65 79.7457 383.977 79.2568 386.475C78.8524 388.542 79.0117 391.524 79.5762 393.531Z" fill="#2E3120"/>
<path d="M242.537 269.336C242.947 270.795 243.386 272.419 244.551 273.461C249.633 278.008 256.497 277.086 259.537 277.086C261.883 277.086 265.067 277.251 267.162 276.141C269.301 275.009 271.066 272.058 272.051 269.947C272.679 268.602 274.119 266.949 274.162 265.447C274.199 264.158 274.168 263.069 273.787 261.85C273.241 260.104 272.839 258.582 271.801 257.072C270.545 255.245 268.099 254.682 266.218 253.641C263.874 252.345 262.174 251.836 259.495 251.836C256.606 251.836 253.782 252.143 250.912 252.322C248.011 252.503 246.826 253.191 245.037 255.447C243.444 257.456 242.706 259.782 242.218 262.28C241.813 264.347 241.973 267.329 242.537 269.336Z" fill="#2E3120"/>
<path d="M310.229 238.346C310.639 239.805 311.078 241.429 312.242 242.471C317.325 247.018 324.188 246.096 327.229 246.096C329.574 246.096 332.759 246.261 334.854 245.152C336.992 244.019 338.757 241.068 339.742 238.957C340.37 237.612 341.811 235.959 341.854 234.457C341.89 233.169 341.86 232.08 341.479 230.86C340.933 229.114 340.53 227.592 339.492 226.082C338.236 224.255 335.79 223.692 333.909 222.652C331.565 221.355 329.865 220.846 327.187 220.846C324.297 220.846 321.474 221.153 318.604 221.332C315.702 221.514 314.518 222.202 312.729 224.457C311.136 226.466 310.398 228.792 309.909 231.291C309.505 233.358 309.664 236.339 310.229 238.346Z" fill="#2E3120"/>
<path d="M368.698 262.651C369.108 264.11 369.547 265.734 370.712 266.776C375.794 271.323 382.657 270.401 385.698 270.401C388.043 270.401 391.228 270.566 393.323 269.457C395.461 268.324 397.226 265.373 398.212 263.262C398.839 261.917 400.28 260.264 400.323 258.762C400.359 257.474 400.329 256.385 399.948 255.165C399.402 253.419 398.999 251.897 397.962 250.387C396.706 248.56 394.259 247.997 392.378 246.957C390.034 245.66 388.334 245.151 385.656 245.151C382.766 245.151 379.943 245.458 377.073 245.637C374.171 245.819 372.987 246.507 371.198 248.762C369.605 250.771 368.867 253.097 368.378 255.596C367.974 257.663 368.133 260.644 368.698 262.651Z" fill="#2E3120"/>
<path d="M417.862 128.583C418.272 130.042 418.711 131.666 419.876 132.708C424.958 137.256 431.822 136.333 434.862 136.333C437.208 136.333 440.392 136.498 442.487 135.389C444.626 134.257 446.391 131.306 447.376 129.195C448.004 127.849 449.444 126.197 449.487 124.695C449.524 123.406 449.493 122.317 449.112 121.097C448.566 119.351 448.164 117.829 447.126 116.32C445.87 114.493 443.424 113.93 441.542 112.889C439.199 111.592 437.498 111.083 434.82 111.083C431.931 111.083 429.107 111.39 426.237 111.57C423.336 111.751 422.151 112.439 420.362 114.695C418.769 116.703 418.031 119.029 417.542 121.528C417.138 123.595 417.297 126.576 417.862 128.583Z" fill="#2E3120"/>
<path d="M442.291 434.078C442.701 435.537 443.14 437.161 444.305 438.203C449.387 442.75 456.251 441.828 459.291 441.828C461.637 441.828 464.821 441.993 466.916 440.884C469.055 439.751 470.82 436.8 471.805 434.689C472.433 433.344 473.873 431.691 473.916 430.189C473.953 428.901 473.922 427.812 473.541 426.592C472.996 424.846 472.593 423.324 471.555 421.814C470.299 419.987 467.853 419.424 465.972 418.384C463.628 417.087 461.928 416.578 459.249 416.578C456.36 416.578 453.537 416.885 450.666 417.064C447.765 417.246 446.58 417.934 444.791 420.189C443.198 422.198 442.461 424.524 441.972 427.023C441.567 429.09 441.727 432.071 442.291 434.078Z" fill="#2E3120"/>
<path d="M72.1798 15.9245C72.4462 14.539 74.9992 8.31348 83.3742 5.79953C87.685 5.18371 92.2468 5.63578 96.2909 7.36897C98.5851 8.35223 101.258 9.54655 102.638 11.7023C104.092 13.9748 104.374 15.9316 104.374 18.5773C104.374 21.5221 104.002 24.0863 103.263 26.9384C102.738 28.9622 100.975 30.0368 99.152 31.0495C94.9972 33.3578 91.058 36.1414 86.0687 36.0634C83.5247 36.0237 79.1582 35.0548 77.3881 33.0634C76.0766 31.588 75.5712 29.7676 74.9992 27.9245C74.2195 25.412 73.072 23.1801 72.1242 20.7579C71.5494 19.289 71.8919 17.4212 72.1798 15.9245Z" fill="#2E3120"/>
<path d="M323.008 53.9148C323.274 52.5293 325.827 46.3037 334.202 43.7898C338.513 43.174 343.075 43.626 347.119 45.3592C349.413 46.3425 352.086 47.5368 353.466 49.6926C354.92 51.965 355.202 53.9218 355.202 56.5676C355.202 59.5123 354.83 62.0766 354.091 64.9287C353.566 66.9524 351.803 68.027 349.98 69.0398C345.825 71.348 341.886 74.1316 336.896 74.0537C334.352 74.0139 329.986 73.0451 328.216 71.0537C326.904 69.5783 326.399 67.7579 325.827 65.9148C325.047 63.4022 323.9 61.1703 322.952 58.7481C322.377 57.2792 322.72 55.4115 323.008 53.9148Z" fill="#2E3120"/>
<path d="M181.387 365.151C181.654 363.765 184.207 357.54 192.582 355.026C196.892 354.41 201.454 354.862 205.498 356.595C207.793 357.578 210.466 358.773 211.846 360.928C213.3 363.201 213.582 365.158 213.582 367.803C213.582 370.748 213.21 373.312 212.471 376.164C211.946 378.188 210.182 379.263 208.359 380.276C204.205 382.584 200.265 385.367 195.276 385.289C192.732 385.25 188.366 384.281 186.596 382.289C185.284 380.814 184.779 378.994 184.207 377.151C183.427 374.638 182.28 372.406 181.332 369.984C180.757 368.515 181.099 366.647 181.387 365.151Z" fill="#2E3120"/>
<path d="M363.981 299.745C364.247 298.359 366.8 292.134 375.175 289.62C379.486 289.004 384.048 289.456 388.092 291.189C390.386 292.173 393.059 293.367 394.439 295.523C395.893 297.795 396.175 299.752 396.175 302.398C396.175 305.342 395.803 307.907 395.064 310.759C394.539 312.783 392.776 313.857 390.953 314.87C386.798 317.178 382.859 319.962 377.87 319.884C375.326 319.844 370.959 318.875 369.189 316.884C367.878 315.408 367.372 313.588 366.8 311.745C366.02 309.232 364.873 307 363.925 304.578C363.35 303.109 363.693 301.242 363.981 299.745Z" fill="#2E3120"/>
<path d="M363.207 113.349C363.473 111.963 366.026 105.738 374.401 103.224C378.712 102.608 383.274 103.06 387.318 104.793C389.612 105.777 392.285 106.971 393.665 109.127C395.119 111.399 395.401 113.356 395.401 116.002C395.401 118.946 395.029 121.511 394.29 124.363C393.765 126.386 392.002 127.461 390.179 128.474C386.024 130.782 382.085 133.566 377.095 133.488C374.551 133.448 370.185 132.479 368.415 130.488C367.103 129.012 366.598 127.192 366.026 125.349C365.246 122.836 364.099 120.604 363.151 118.182C362.576 116.713 362.919 114.846 363.207 113.349Z" fill="#2E3120"/>
<path d="M213.949 98.0856C214.215 96.7001 216.768 90.4746 225.143 87.9606C229.454 87.3448 234.016 87.7969 238.06 89.5301C240.354 90.5133 243.028 91.7076 244.407 93.8634C245.862 96.1359 246.143 98.0927 246.143 100.738C246.143 103.683 245.772 106.247 245.032 109.099C244.508 111.123 242.744 112.198 240.921 113.21C236.766 115.519 232.827 118.302 227.838 118.224C225.294 118.185 220.927 117.216 219.157 115.224C217.846 113.749 217.34 111.929 216.768 110.085C215.989 107.573 214.841 105.341 213.893 102.919C213.319 101.45 213.661 99.5823 213.949 98.0856Z" fill="#2E3120"/>
<path d="M451.375 98.0856C451.642 96.7001 454.195 90.4746 462.57 87.9606C466.881 87.3448 471.442 87.7969 475.487 89.5301C477.781 90.5133 480.454 91.7076 481.834 93.8634C483.288 96.1359 483.57 98.0927 483.57 100.738C483.57 103.683 483.198 106.247 482.459 109.099C481.934 111.123 480.171 112.198 478.348 113.21C474.193 115.519 470.254 118.302 465.264 118.224C462.72 118.185 458.354 117.216 456.584 115.224C455.272 113.749 454.767 111.929 454.195 110.085C453.415 107.573 452.268 105.341 451.32 102.919C450.745 101.45 451.088 99.5823 451.375 98.0856Z" fill="#2E3120"/>
<path d="M82.3594 68.2585C82.6259 66.873 85.1789 60.6475 93.5539 58.1335C97.8646 57.5177 102.426 57.9698 106.471 59.703C108.765 60.6862 111.438 61.8805 112.818 64.0363C114.272 66.3088 114.554 68.2655 114.554 70.9113C114.554 73.8561 114.182 76.4203 113.443 79.2724C112.918 81.2962 111.155 82.3708 109.332 83.3835C105.177 85.6917 101.238 88.4754 96.2483 88.3974C93.7044 88.3577 89.3379 87.3888 87.5678 85.3974C86.2563 83.922 85.7509 82.1016 85.1789 80.2585C84.3991 77.746 83.2517 75.5141 82.3039 73.0918C81.7291 71.623 82.0716 69.7552 82.3594 68.2585Z" fill="#2E3120"/>
<path d="M141.889 23.5632C142.243 23.515 142.592 23.4671 142.933 23.4177C144.05 23.1697 145.344 22.7282 146.125 23.1188C147.102 23.6072 148.042 23.5633 149.125 23.5633C150.988 23.5633 152.809 24.3207 154.639 24.5494C155.859 24.7019 157.702 24.9474 158.625 25.9244C161.138 28.5846 160.871 34.6752 159.75 37.8133C158.529 41.2336 156.518 44.4792 155.625 48.0494C155.238 49.5994 153.68 49.8453 152.5 50.5633C150.051 52.0539 148.24 52.5633 145.32 52.5633C142.683 52.5633 140.542 51.9349 138.07 51.0077C135.682 50.1125 133.945 48.6832 131.875 47.1883C127.832 44.2682 128.528 39.0106 128.625 34.6188C128.685 31.9327 129.443 29.4327 131.264 27.4383C133.835 24.6223 138.152 24.0727 141.889 23.5632Z" fill="#2E3120"/>
<path d="M198.569 127.023C198.922 126.975 199.271 126.927 199.613 126.878C200.729 126.63 202.023 126.188 202.805 126.579C203.781 127.067 204.721 127.023 205.805 127.023C207.667 127.023 209.489 127.781 211.319 128.009C212.538 128.162 214.382 128.407 215.305 129.384C217.817 132.045 217.55 138.135 216.43 141.273C215.208 144.694 213.197 147.939 212.305 151.509C211.917 153.059 210.359 153.305 209.18 154.023C206.731 155.514 204.919 156.023 201.999 156.023C199.362 156.023 197.222 155.395 194.749 154.468C192.362 153.572 190.625 152.143 188.555 150.648C184.511 147.728 185.207 142.471 185.305 138.079C185.364 135.393 186.123 132.893 187.944 130.898C190.515 128.082 194.831 127.533 198.569 127.023Z" fill="#2E3120"/>
<path d="M76.5062 271.741C76.8601 271.693 77.2089 271.645 77.5504 271.596C78.6668 271.348 79.9611 270.906 80.7423 271.297C81.719 271.785 82.6589 271.741 83.7423 271.741C85.6049 271.741 87.4264 272.499 89.2562 272.727C90.4761 272.88 92.3196 273.125 93.2423 274.102C95.7547 276.763 95.488 282.853 94.3673 285.991C93.1458 289.412 91.1348 292.657 90.2423 296.227C89.8548 297.777 88.2968 298.023 87.1173 298.741C84.6683 300.232 82.8569 300.741 79.9367 300.741C77.3001 300.741 75.1594 300.113 72.6867 299.186C70.2994 298.29 68.5622 296.861 66.4923 295.366C62.4492 292.446 63.1447 287.189 63.2423 282.797C63.302 280.111 64.0602 277.611 65.8812 275.616C68.4523 272.8 72.7687 272.251 76.5062 271.741Z" fill="#2E3120"/>
<path d="M205.873 409.538C206.227 409.489 206.576 409.441 206.917 409.392C208.034 409.144 209.328 408.703 210.109 409.093C211.086 409.582 212.026 409.538 213.109 409.538C214.972 409.538 216.793 410.295 218.623 410.524C219.843 410.676 221.687 410.922 222.609 411.899C225.122 414.559 224.855 420.65 223.734 423.788C222.513 427.208 220.502 430.454 219.609 434.024C219.222 435.574 217.664 435.82 216.484 436.538C214.035 438.028 212.224 438.538 209.304 438.538C206.667 438.538 204.526 437.909 202.054 436.982C199.666 436.087 197.929 434.658 195.859 433.163C191.816 430.243 192.512 424.985 192.609 420.593C192.669 417.907 193.427 415.407 195.248 413.413C197.819 410.597 202.136 410.047 205.873 409.538Z" fill="#2E3120"/>
<path d="M40.9633 77.4031C41.3172 77.3548 41.6659 77.3069 42.0075 77.2575C43.1239 77.0095 44.4181 76.568 45.1994 76.9587C46.1761 77.447 47.116 77.4031 48.1994 77.4031C50.062 77.4031 51.8835 78.1605 53.7133 78.3892C54.9331 78.5417 56.7767 78.7873 57.6994 79.7642C60.2118 82.4244 59.9451 88.515 58.8244 91.6531C57.6028 95.0734 55.5919 98.3191 54.6994 101.89C54.3119 103.44 52.7539 103.686 51.5744 104.404C49.1254 105.894 47.314 106.404 44.3938 106.404C41.7572 106.404 39.6164 105.775 37.1438 104.848C34.7565 103.953 33.0192 102.524 30.9494 101.029C26.9062 98.1081 27.6018 92.8504 27.6994 88.4587C27.7591 85.7725 28.5173 83.2725 30.3383 81.2781C32.9093 78.4621 37.2258 77.9126 40.9633 77.4031Z" fill="#2E3120"/>
<path d="M355.171 338.914C355.525 338.866 355.874 338.818 356.215 338.769C357.332 338.521 358.626 338.079 359.407 338.47C360.384 338.958 361.324 338.914 362.407 338.914C364.27 338.914 366.091 339.671 367.921 339.9C369.141 340.053 370.984 340.298 371.907 341.275C374.42 343.935 374.153 350.026 373.032 353.164C371.811 356.584 369.8 359.83 368.907 363.4C368.52 364.95 366.962 365.196 365.782 365.914C363.333 367.405 361.522 367.914 358.602 367.914C355.965 367.914 353.824 367.286 351.352 366.359C348.964 365.463 347.227 364.034 345.157 362.539C341.114 359.619 341.809 354.361 341.907 349.97C341.967 347.284 342.725 344.783 344.546 342.789C347.117 339.973 351.433 339.424 355.171 338.914Z" fill="#2E3120"/>
<path d="M246.936 311.451C247.29 311.403 247.639 311.355 247.98 311.305C249.097 311.057 250.391 310.616 251.172 311.007C252.149 311.495 253.089 311.451 254.172 311.451C256.035 311.451 257.856 312.208 259.686 312.437C260.906 312.59 262.749 312.835 263.672 313.812C266.184 316.472 265.918 322.563 264.797 325.701C263.575 329.121 261.565 332.367 260.672 335.937C260.284 337.487 258.727 337.733 257.547 338.451C255.098 339.942 253.287 340.451 250.366 340.451C247.73 340.451 245.589 339.823 243.116 338.895C240.729 338 238.992 336.571 236.922 335.076C232.879 332.156 233.574 326.898 233.672 322.507C233.732 319.82 234.49 317.32 236.311 315.326C238.882 312.51 243.198 311.96 246.936 311.451Z" fill="#2E3120"/>
<path d="M111.897 203.311C112.251 203.263 112.6 203.215 112.942 203.166C114.058 202.918 115.352 202.476 116.133 202.867C117.11 203.355 118.05 203.311 119.133 203.311C120.996 203.311 122.818 204.069 124.647 204.297C125.867 204.45 127.71 204.695 128.632 205.672C131.145 208.333 130.878 214.423 129.757 217.561C128.536 220.982 126.526 224.227 125.633 227.797C125.246 229.347 123.688 229.593 122.508 230.311C120.059 231.802 118.248 232.311 115.328 232.311C112.691 232.311 110.551 231.683 108.078 230.756C105.691 229.861 103.953 228.431 101.883 226.936C97.8398 224.016 98.5354 218.759 98.633 214.367C98.6927 211.681 99.4509 209.181 101.272 207.186C103.843 204.37 108.16 203.821 111.897 203.311Z" fill="#2E3120"/>
<path d="M339.143 86.3563C339.497 86.308 339.846 86.2601 340.187 86.2107C341.304 85.9627 342.598 85.5212 343.379 85.9118C344.356 86.4002 345.296 86.3563 346.379 86.3563C348.242 86.3563 350.063 87.1137 351.893 87.3424C353.113 87.4949 354.956 87.7405 355.879 88.7174C358.391 91.3776 358.125 97.4682 357.004 100.606C355.783 104.026 353.772 107.272 352.879 110.842C352.492 112.392 350.934 112.638 349.754 113.356C347.305 114.847 345.494 115.356 342.573 115.356C339.937 115.356 337.796 114.728 335.323 113.8C332.936 112.905 331.199 111.476 329.129 109.981C325.086 107.061 325.781 101.803 325.879 97.4118C325.939 94.7257 326.697 92.2257 328.518 90.2313C331.089 87.4153 335.405 86.8657 339.143 86.3563Z" fill="#2E3120"/>
<path d="M472.061 447.829C472.415 447.781 472.764 447.733 473.105 447.683C474.222 447.435 475.516 446.994 476.297 447.384C477.274 447.873 478.214 447.829 479.297 447.829C481.16 447.829 482.981 448.586 484.811 448.815C486.031 448.967 487.875 449.213 488.797 450.19C491.31 452.85 491.043 458.941 489.922 462.079C488.701 465.499 486.69 468.745 485.797 472.315C485.41 473.865 483.852 474.111 482.672 474.829C480.223 476.32 478.412 476.829 475.492 476.829C472.855 476.829 470.714 476.201 468.242 475.273C465.854 474.378 464.117 472.949 462.047 471.454C458.004 468.534 458.7 463.276 458.797 458.884C458.857 456.198 459.615 453.698 461.436 451.704C464.007 448.888 468.324 448.338 472.061 447.829Z" fill="#2E3120"/>
<path d="M148.629 114.305C147.619 112.285 147.245 109.084 147.824 106.833C149.685 99.5945 155.37 100.576 158.157 100.069C159.543 99.8172 160.52 98.9008 161.962 98.6386C163.823 98.3003 166.382 98.4098 168.254 98.597C168.916 98.6632 169.683 98.8138 170.268 99.1386C170.583 99.3136 170.91 99.791 171.268 99.8331C172.011 99.9205 172.593 100.333 173.407 100.333C174.705 100.333 175.765 100.555 177.018 100.833C178.313 101.121 179.64 102.71 180.268 103.833C180.726 104.653 181.018 104.862 181.018 105.833V107.833C181.018 109.836 180.406 111.631 180.018 113.569C179.449 116.413 178.946 119.048 178.018 121.833C177.488 123.422 176.873 126.379 174.893 126.819C171.981 127.466 167.661 128.013 164.768 127.083C163.168 126.569 161.707 125.947 160.004 125.847L159.967 125.845C158.474 125.757 157.489 125.699 156.518 124.458C154.924 122.422 152.617 121.141 151.074 119.083C149.978 117.622 149.43 115.908 148.629 114.305Z" fill="#2E3120"/>
<path d="M24.4187 276.085C23.4087 274.065 23.0342 270.864 23.6131 268.612C25.4745 261.374 31.1597 262.355 33.9465 261.849C35.3323 261.597 36.3099 260.68 37.752 260.418C39.613 260.08 42.1718 260.189 44.0437 260.376C44.7056 260.442 45.4727 260.593 46.0576 260.918C46.3724 261.093 46.7 261.57 47.0576 261.612C47.8002 261.7 48.3823 262.112 49.1965 262.112C50.4945 262.112 51.555 262.334 52.8076 262.612C54.1027 262.9 55.4299 264.489 56.0576 265.612C56.516 266.433 56.8076 266.642 56.8076 267.612V269.612C56.8076 271.615 56.1952 273.41 55.8076 275.349C55.2388 278.192 54.7359 280.827 53.8076 283.612C53.2781 285.201 52.6628 288.158 50.6826 288.599C47.7705 289.246 43.4504 289.792 40.5576 288.862C38.958 288.348 37.4963 287.726 35.7937 287.626L35.7571 287.624C34.2633 287.536 33.2788 287.478 32.3076 286.237C30.7137 284.201 28.4064 282.92 26.8631 280.862C25.7676 279.402 25.22 277.687 24.4187 276.085Z" fill="#2E3120"/>
<path d="M46.7742 57.2994C45.7642 55.2795 45.3897 52.0784 45.9686 49.8272C47.8299 42.5886 53.5152 43.57 56.3019 43.0633C57.6878 42.8113 58.6654 41.8949 60.1075 41.6327C61.9685 41.2944 64.5273 41.4039 66.3992 41.5911C67.0611 41.6573 67.8282 41.8078 68.413 42.1327C68.7279 42.3076 69.0555 42.7851 69.413 42.8272C70.1557 42.9146 70.7377 43.3272 71.5519 43.3272C72.8499 43.3272 73.9105 43.5488 75.163 43.8272C76.4582 44.115 77.7854 45.704 78.413 46.8272C78.8714 47.6475 79.163 47.8565 79.163 48.8272V50.8272C79.163 52.8296 78.5507 54.6252 78.163 56.5633C77.5943 59.4069 77.0914 62.0422 76.163 64.8272C75.6336 66.4156 75.0183 69.3732 73.038 69.8133C70.126 70.4604 65.8059 71.007 62.913 70.0772C61.3135 69.563 59.8518 68.9412 58.1492 68.8411L58.1125 68.8389C56.6188 68.7511 55.6343 68.6933 54.663 67.4522C53.0692 65.4156 50.7619 64.1349 49.2186 62.0772C48.1231 60.6165 47.5754 58.902 46.7742 57.2994Z" fill="#2E3120"/>
<path d="M192.872 324.198C191.862 322.178 191.487 318.977 192.066 316.725C193.927 309.487 199.613 310.468 202.399 309.962C203.785 309.71 204.763 308.793 206.205 308.531C208.066 308.193 210.625 308.302 212.497 308.489C213.159 308.556 213.926 308.706 214.511 309.031C214.825 309.206 215.153 309.683 215.511 309.725C216.253 309.813 216.835 310.225 217.649 310.225C218.947 310.225 220.008 310.447 221.261 310.725C222.556 311.013 223.883 312.602 224.511 313.725C224.969 314.546 225.261 314.755 225.261 315.725V317.725C225.261 319.728 224.648 321.523 224.261 323.462C223.692 326.305 223.189 328.94 222.261 331.725C221.731 333.314 221.116 336.271 219.136 336.712C216.224 337.359 211.903 337.905 209.011 336.975C207.411 336.461 205.949 335.839 204.247 335.739L204.21 335.737C202.716 335.649 201.732 335.592 200.761 334.35C199.167 332.314 196.859 331.033 195.316 328.975C194.221 327.515 193.673 325.8 192.872 324.198Z" fill="#2E3120"/>
<path d="M238.262 475.316C237.252 473.296 236.878 470.095 237.457 467.843C239.318 460.605 245.003 461.586 247.79 461.079C249.176 460.828 250.153 459.911 251.596 459.649C253.457 459.311 256.015 459.42 257.887 459.607C258.549 459.673 259.316 459.824 259.901 460.149C260.216 460.324 260.544 460.801 260.901 460.843C261.644 460.931 262.226 461.343 263.04 461.343C264.338 461.343 265.398 461.565 266.651 461.843C267.946 462.131 269.273 463.72 269.901 464.843C270.359 465.664 270.651 465.873 270.651 466.843V468.843C270.651 470.846 270.039 472.641 269.651 474.579C269.082 477.423 268.579 480.058 267.651 482.843C267.122 484.432 266.506 487.389 264.526 487.829C261.614 488.477 257.294 489.023 254.401 488.093C252.802 487.579 251.34 486.957 249.637 486.857L249.601 486.855C248.107 486.767 247.122 486.709 246.151 485.468C244.557 483.432 242.25 482.151 240.707 480.093C239.611 478.633 239.063 476.918 238.262 475.316Z" fill="#2E3120"/>
<path d="M119.747 369C118.737 366.98 118.362 363.779 118.941 361.527C120.803 354.289 126.488 355.27 129.275 354.764C130.66 354.512 131.638 353.595 133.08 353.333C134.941 352.995 137.5 353.104 139.372 353.291C140.034 353.358 140.801 353.508 141.386 353.833C141.7 354.008 142.028 354.485 142.386 354.527C143.128 354.615 143.71 355.027 144.525 355.027C145.823 355.027 146.883 355.249 148.136 355.527C149.431 355.815 150.758 357.404 151.386 358.527C151.844 359.348 152.136 359.557 152.136 360.527V362.527C152.136 364.53 151.523 366.326 151.136 368.264C150.567 371.107 150.064 373.742 149.136 376.527C148.606 378.116 147.991 381.073 146.011 381.514C143.099 382.161 138.779 382.707 135.886 381.777C134.286 381.263 132.824 380.641 131.122 380.541L131.085 380.539C129.591 380.451 128.607 380.394 127.636 379.152C126.042 377.116 123.734 375.835 122.191 373.777C121.096 372.317 120.548 370.602 119.747 369Z" fill="#2E3120"/>
<path d="M74.6336 149.375C73.6236 147.355 73.2491 144.154 73.828 141.902C75.6894 134.664 81.3746 135.645 84.1613 135.139C85.5472 134.887 86.5248 133.97 87.9669 133.708C89.8279 133.37 92.3867 133.479 94.2586 133.666C94.9205 133.733 95.6876 133.883 96.2725 134.208C96.5873 134.383 96.9149 134.86 97.2725 134.902C98.0151 134.99 98.5971 135.402 99.4113 135.402C100.709 135.402 101.77 135.624 103.022 135.902C104.317 136.19 105.645 137.779 106.272 138.902C106.731 139.723 107.022 139.932 107.022 140.902V142.902C107.022 144.905 106.41 146.7 106.022 148.639C105.453 151.482 104.95 154.117 104.022 156.902C103.493 158.491 102.877 161.448 100.897 161.889C97.9854 162.536 93.6653 163.082 90.7725 162.152C89.1729 161.638 87.7112 161.016 86.0086 160.916L85.9719 160.914C84.4782 160.826 83.4937 160.769 82.5225 159.527C80.9286 157.491 78.6213 156.21 77.078 154.152C75.9825 152.692 75.4349 150.977 74.6336 149.375Z" fill="#2E3120"/>
<path d="M44.6961 442.51C43.6861 440.49 43.3116 437.289 43.8905 435.038C45.7519 427.799 51.4371 428.78 54.2238 428.274C55.6097 428.022 56.5873 427.105 58.0294 426.843C59.8904 426.505 62.4492 426.614 64.3211 426.802C64.983 426.868 65.7501 427.018 66.335 427.343C66.6498 427.518 66.9774 427.996 67.335 428.038C68.0776 428.125 68.6596 428.538 69.4738 428.538C70.7719 428.538 71.8324 428.759 73.085 429.038C74.3801 429.326 75.7073 430.915 76.335 432.038C76.7933 432.858 77.085 433.067 77.085 434.038V436.038C77.085 438.04 76.4726 439.836 76.085 441.774C75.5162 444.617 75.0133 447.253 74.085 450.038C73.5555 451.626 72.9402 454.584 70.96 455.024C68.0479 455.671 63.7278 456.218 60.8349 455.288C59.2354 454.774 57.7737 454.152 56.0711 454.052L56.0344 454.049C54.5407 453.962 53.5562 453.904 52.5849 452.663C50.9911 450.626 48.6838 449.345 47.1405 447.288C46.045 445.827 45.4973 444.112 44.6961 442.51Z" fill="#2E3120"/>
<path d="M123.653 78.3307C122.643 76.3109 122.268 73.1097 122.847 70.8585C124.709 63.6199 130.394 64.6013 133.181 64.0946C134.566 63.8426 135.544 62.9262 136.986 62.6641C138.847 62.3257 141.406 62.4352 143.278 62.6224C143.94 62.6886 144.707 62.8391 145.292 63.1641C145.606 63.339 145.934 63.8164 146.292 63.8585C147.034 63.9459 147.616 64.3585 148.431 64.3585C149.729 64.3585 150.789 64.5801 152.042 64.8585C153.337 65.1463 154.664 66.7353 155.292 67.8585C155.75 68.6788 156.042 68.8878 156.042 69.8585V71.8585C156.042 73.8609 155.429 75.6566 155.042 77.5946C154.473 80.4383 153.97 83.0735 153.042 85.8585C152.512 87.4469 151.897 90.4045 149.917 90.8446C147.005 91.4917 142.685 92.0383 139.792 91.1085C138.192 90.5944 136.73 89.9725 135.028 89.8724L134.991 89.8702C133.497 89.7825 132.513 89.7246 131.542 88.4835C129.948 86.4469 127.64 85.1662 126.097 83.1085C125.002 81.6478 124.454 79.9333 123.653 78.3307Z" fill="#2E3120"/>
<path d="M152.743 189.284C151.733 187.264 151.359 184.063 151.938 181.812C153.799 174.574 159.484 175.555 162.271 175.048C163.657 174.796 164.634 173.88 166.077 173.618C167.938 173.279 170.496 173.389 172.368 173.576C173.03 173.642 173.797 173.793 174.382 174.118C174.697 174.293 175.025 174.77 175.382 174.812C176.125 174.899 176.707 175.312 177.521 175.312C178.819 175.312 179.88 175.534 181.132 175.812C182.427 176.1 183.754 177.689 184.382 178.812C184.841 179.632 185.132 179.841 185.132 180.812V182.812C185.132 184.815 184.52 186.61 184.132 188.548C183.563 191.392 183.06 194.027 182.132 196.812C181.603 198.401 180.987 201.358 179.007 201.798C176.095 202.445 171.775 202.992 168.882 202.062C167.283 201.548 165.821 200.926 164.118 200.826L164.082 200.824C162.588 200.736 161.603 200.678 160.632 199.437C159.038 197.401 156.731 196.12 155.188 194.062C154.092 192.601 153.545 190.887 152.743 189.284Z" fill="#2E3120"/>
<path d="M411.818 78.3307C410.808 76.3109 410.433 73.1097 411.012 70.8585C412.873 63.6199 418.558 64.6013 421.344 64.0946C422.73 63.8426 423.708 62.9262 425.15 62.6641C427.011 62.3257 429.571 62.4352 431.443 62.6224C432.104 62.6886 432.872 62.8391 433.456 63.1641C433.771 63.339 434.099 63.8164 434.456 63.8585C435.199 63.9459 435.78 64.3585 436.594 64.3585C437.892 64.3585 438.954 64.5801 440.206 64.8585C441.502 65.1463 442.829 66.7353 443.456 67.8585C443.915 68.6788 444.206 68.8878 444.206 69.8585V71.8585C444.206 73.8609 443.594 75.6566 443.206 77.5946C442.638 80.4383 442.135 83.0735 441.206 85.8585C440.677 87.4469 440.062 90.4045 438.081 90.8446C435.169 91.4917 430.849 92.0383 427.956 91.1085C426.357 90.5944 424.895 89.9725 423.193 89.8724L423.155 89.8702C421.661 89.7825 420.678 89.7246 419.706 88.4835C418.113 86.4469 415.805 85.1662 414.262 83.1085C413.166 81.6478 412.619 79.9333 411.818 78.3307Z" fill="#2E3120"/>
<path d="M299.321 195.87C298.311 193.85 297.937 190.649 298.515 188.398C300.377 181.159 306.062 182.141 308.849 181.634C310.235 181.382 311.212 180.466 312.654 180.204C314.515 179.865 317.074 179.975 318.946 180.162C319.608 180.228 320.375 180.379 320.96 180.704C321.275 180.879 321.602 181.356 321.96 181.398C322.703 181.485 323.285 181.898 324.099 181.898C325.397 181.898 326.457 182.12 327.71 182.398C329.005 182.686 330.332 184.275 330.96 185.398C331.418 186.218 331.71 186.427 331.71 187.398V189.398C331.71 191.4 331.098 193.196 330.71 195.134C330.141 197.978 329.638 200.613 328.71 203.398C328.18 204.986 327.565 207.944 325.585 208.384C322.673 209.031 318.353 209.578 315.46 208.648C313.86 208.134 312.399 207.512 310.696 207.412L310.659 207.41C309.166 207.322 308.181 207.264 307.21 206.023C305.616 203.986 303.309 202.706 301.765 200.648C300.67 199.187 300.122 197.473 299.321 195.87Z" fill="#2E3120"/>
<path d="M417.751 261.772C416.741 259.752 416.366 256.551 416.945 254.299C418.806 247.061 424.492 248.042 427.278 247.536C428.664 247.284 429.642 246.367 431.084 246.105C432.945 245.767 435.504 245.876 437.376 246.063C438.038 246.129 438.805 246.28 439.39 246.605C439.704 246.78 440.032 247.257 440.39 247.299C441.132 247.387 441.714 247.799 442.528 247.799C443.826 247.799 444.887 248.021 446.14 248.299C447.435 248.587 448.762 250.176 449.39 251.299C449.848 252.12 450.14 252.329 450.14 253.299V255.299C450.14 257.302 449.527 259.097 449.14 261.036C448.571 263.879 448.068 266.514 447.14 269.299C446.61 270.888 445.995 273.845 444.015 274.286C441.103 274.933 436.782 275.479 433.89 274.549C432.29 274.035 430.828 273.413 429.126 273.313L429.089 273.311C427.595 273.223 426.611 273.165 425.64 271.924C424.046 269.888 421.738 268.607 420.195 266.549C419.1 265.089 418.552 263.374 417.751 261.772Z" fill="#2E3120"/>
<path d="M356.282 394.521C355.272 392.501 354.897 389.3 355.476 387.049C357.338 379.81 363.023 380.792 365.81 380.285C367.195 380.033 368.173 379.117 369.615 378.854C371.476 378.516 374.035 378.626 375.907 378.813C376.569 378.879 377.336 379.03 377.921 379.354C378.236 379.529 378.563 380.007 378.921 380.049C379.663 380.136 380.245 380.549 381.06 380.549C382.358 380.549 383.418 380.771 384.671 381.049C385.966 381.337 387.293 382.926 387.921 384.049C388.379 384.869 388.671 385.078 388.671 386.049V388.049C388.671 390.051 388.058 391.847 387.671 393.785C387.102 396.629 386.599 399.264 385.671 402.049C385.141 403.637 384.526 406.595 382.546 407.035C379.634 407.682 375.314 408.229 372.421 407.299C370.821 406.785 369.359 406.163 367.657 406.063L367.62 406.061C366.126 405.973 365.142 405.915 364.171 404.674C362.577 402.637 360.27 401.357 358.726 399.299C357.631 397.838 357.083 396.124 356.282 394.521Z" fill="#2E3120"/>
<path d="M74.0298 467.603C75.3643 464.467 78.0889 462.788 80.9326 461.159C87.722 457.269 92.6472 461.159 98.9187 461.159C102.176 461.159 104.658 462.634 106.294 465.465C107.791 468.054 108.071 469.796 107.794 472.77C107.522 475.692 106.319 478.425 105.044 481.034C103.936 483.3 102.209 485.287 99.9326 486.465C96.8964 488.035 94.2978 488.409 90.9048 488.409C84.8896 488.409 78.7434 488.045 75.3493 482.52C72.4156 477.744 71.8043 472.833 74.0298 467.603Z" fill="#2E3120"/>
<path d="M94.0181 254.593C95.3526 251.457 98.0772 249.777 100.921 248.148C107.71 244.258 112.635 248.148 118.907 248.148C122.164 248.148 124.646 249.623 126.282 252.454C127.779 255.043 128.059 256.785 127.782 259.759C127.51 262.681 126.307 265.414 125.032 268.023C123.924 270.289 122.197 272.277 119.921 273.454C116.885 275.024 114.286 275.398 110.893 275.398C104.878 275.398 98.7316 275.035 95.3376 269.509C92.4039 264.734 91.7926 259.823 94.0181 254.593Z" fill="#2E3120"/>
<path d="M452.812 331.155C454.146 328.019 456.871 326.34 459.714 324.711C466.504 320.821 471.429 324.711 477.7 324.711C480.957 324.711 483.439 326.186 485.075 329.016C486.572 331.605 486.852 333.348 486.575 336.322C486.304 339.244 485.101 341.977 483.825 344.586C482.718 346.851 480.99 348.839 478.714 350.016C475.678 351.587 473.08 351.961 469.687 351.961C463.671 351.961 457.525 351.597 454.131 346.072C451.197 341.296 450.586 336.385 452.812 331.155Z" fill="#2E3120"/>
<path d="M337.651 464.189C338.985 461.053 341.71 459.374 344.553 457.744C351.343 453.855 356.268 457.744 362.539 457.744C365.796 457.744 368.278 459.22 369.914 462.05C371.411 464.639 371.691 466.381 371.414 469.355C371.143 472.277 369.94 475.011 368.664 477.619C367.557 479.885 365.829 481.873 363.553 483.05C360.517 484.62 357.919 484.994 354.526 484.994C348.51 484.994 342.364 484.631 338.97 479.105C336.036 474.33 335.425 469.419 337.651 464.189Z" fill="#2E3120"/>
<path d="M420.167 169.503C421.501 166.367 424.226 164.687 427.07 163.058C433.859 159.168 438.784 163.058 445.056 163.058C448.312 163.058 450.794 164.533 452.431 167.364C453.928 169.953 454.207 171.695 453.931 174.669C453.659 177.591 452.456 180.324 451.181 182.933C450.073 185.199 448.345 187.187 446.07 188.364C443.033 189.934 440.435 190.308 437.042 190.308C431.027 190.308 424.88 189.944 421.486 184.419C418.553 179.643 417.941 174.733 420.167 169.503Z" fill="#2E3120"/>
<path d="M175.177 79.1154C175.139 76.3757 176.281 74.1926 178.177 72.2266C182.3 67.9509 188.229 66.7266 193.927 66.7266C195.993 66.7266 198.134 66.7349 200.177 67.0321C201.654 67.2469 204.354 67.3557 205.122 68.9766C205.354 69.4661 205.012 69.9209 204.941 70.3793C204.826 71.1314 204.927 71.9649 204.927 72.7266V78.3516C204.927 81.6334 204.601 84.7961 203.677 87.9627C203.097 89.9521 202.639 91.4912 200.788 92.6016C199.56 93.3385 197.649 95.2266 196.233 95.2266C194.155 95.2266 192.281 95.1072 190.233 94.7821C187.747 94.3875 185.269 94.2824 182.83 93.7404C181.63 93.4738 179.488 92.0426 178.802 90.9766C177.843 89.4836 176.914 87.6198 176.622 85.8654C176.44 84.7758 176.457 83.6597 176.177 82.5877C175.855 81.3518 175.196 80.4445 175.177 79.1154Z" fill="#2E3120"/>
<path d="M55.9502 116.365C55.9116 113.625 57.0543 111.442 58.9502 109.476C63.0731 105.2 69.0014 103.976 74.7002 103.976C76.7662 103.976 78.9066 103.984 80.9502 104.281C82.427 104.496 85.1268 104.605 85.8946 106.226C86.1265 106.715 85.7846 107.17 85.714 107.629C85.5983 108.381 85.7002 109.214 85.7002 109.976V115.601C85.7002 118.883 85.3737 122.045 84.4502 125.212C83.8699 127.201 83.4119 128.74 81.5613 129.851C80.333 130.588 78.4215 132.476 77.0057 132.476C74.9282 132.476 73.0539 132.356 71.0057 132.031C68.5196 131.637 66.0419 131.532 63.6029 130.99C62.4032 130.723 60.2604 129.292 59.5752 128.226C58.6154 126.733 57.687 124.869 57.3946 123.115C57.213 122.025 57.2298 120.909 56.9502 119.837C56.6278 118.601 55.9689 117.694 55.9502 116.365Z" fill="#2E3120"/>
<path d="M103.657 180.819C103.619 178.079 104.762 175.896 106.657 173.93C110.78 169.654 116.709 168.43 122.407 168.43C124.473 168.43 126.614 168.438 128.657 168.736C130.134 168.951 132.834 169.059 133.602 170.68C133.834 171.17 133.492 171.624 133.421 172.083C133.306 172.835 133.407 173.669 133.407 174.43V180.055C133.407 183.337 133.081 186.5 132.157 189.666C131.577 191.656 131.119 193.195 129.269 194.305C128.04 195.042 126.129 196.93 124.713 196.93C122.635 196.93 120.761 196.811 118.713 196.486C116.227 196.091 113.749 195.986 111.31 195.444C110.11 195.177 107.968 193.746 107.282 192.68C106.323 191.187 105.394 189.323 105.102 187.569C104.92 186.479 104.937 185.363 104.657 184.291C104.335 183.055 103.676 182.148 103.657 180.819Z" fill="#2E3120"/>
<path d="M83.5166 346.219C83.478 343.48 84.6208 341.297 86.5166 339.331C90.6396 335.055 96.5679 333.831 102.266 333.831C104.332 333.831 106.473 333.839 108.516 334.136C109.993 334.351 112.693 334.46 113.461 336.081C113.693 336.57 113.351 337.025 113.28 337.483C113.165 338.235 113.266 339.069 113.266 339.831V345.456C113.266 348.737 112.94 351.9 112.016 355.067C111.436 357.056 110.978 358.595 109.127 359.706C107.899 360.443 105.988 362.331 104.572 362.331C102.494 362.331 100.62 362.211 98.5722 361.886C96.0861 361.491 93.6084 361.386 91.1694 360.844C89.9696 360.578 87.8269 359.147 87.1416 358.081C86.1819 356.588 85.2535 354.724 84.9611 352.969C84.7795 351.88 84.7963 350.764 84.5166 349.692C84.1942 348.456 83.5353 347.548 83.5166 346.219Z" fill="#2E3120"/>
<path d="M273.22 103.004C273.181 100.264 274.324 98.0813 276.22 96.1152C280.343 91.8395 286.271 90.6152 291.97 90.6152C294.036 90.6152 296.176 90.6235 298.22 90.9208C299.697 91.1356 302.397 91.2444 303.164 92.8652C303.396 93.3548 303.054 93.8095 302.984 94.268C302.868 95.0201 302.97 95.8536 302.97 96.6152V102.24C302.97 105.522 302.643 108.685 301.72 111.851C301.14 113.841 300.682 115.38 298.831 116.49C297.603 117.227 295.691 119.115 294.275 119.115C292.198 119.115 290.324 118.996 288.275 118.671C285.789 118.276 283.312 118.171 280.873 117.629C279.673 117.363 277.53 115.931 276.845 114.865C275.885 113.372 274.957 111.508 274.664 109.754C274.483 108.664 274.5 107.548 274.22 106.476C273.897 105.241 273.239 104.333 273.22 103.004Z" fill="#2E3120"/>
<path d="M440.407 56.9299C440.368 54.1902 441.511 52.0071 443.407 50.041C447.53 45.7653 453.458 44.541 459.157 44.541C461.223 44.541 463.363 44.5493 465.407 44.8466C466.883 45.0614 469.583 45.1701 470.351 46.791C470.583 47.2805 470.241 47.7353 470.17 48.1938C470.055 48.9459 470.157 49.7794 470.157 50.541V56.166C470.157 59.4478 469.83 62.6105 468.907 65.7771C468.326 67.7665 467.868 69.3057 466.018 70.416C464.789 71.1529 462.878 73.041 461.462 73.041C459.385 73.041 457.51 72.9217 455.462 72.5966C452.976 72.2019 450.498 72.0969 448.059 71.5549C446.86 71.2883 444.717 69.857 444.032 68.791C443.072 67.2981 442.143 65.4342 441.851 63.6799C441.669 62.5902 441.686 61.4742 441.407 60.4021C441.084 59.1663 440.425 58.2589 440.407 56.9299Z" fill="#2E3120"/>
<path d="M452.274 222.547C452.236 219.807 453.379 217.624 455.274 215.658C459.397 211.382 465.326 210.158 471.024 210.158C473.09 210.158 475.231 210.166 477.274 210.463C478.751 210.678 481.451 210.787 482.219 212.408C482.451 212.897 482.109 213.352 482.038 213.81C481.923 214.563 482.024 215.396 482.024 216.158V221.783C482.024 225.065 481.698 228.227 480.774 231.394C480.194 233.383 479.736 234.922 477.886 236.033C476.657 236.77 474.746 238.658 473.33 238.658C471.253 238.658 469.378 238.538 467.33 238.213C464.844 237.819 462.366 237.714 459.927 237.172C458.727 236.905 456.585 235.474 455.899 234.408C454.94 232.915 454.011 231.051 453.719 229.297C453.537 228.207 453.554 227.091 453.274 226.019C452.952 224.783 452.293 223.876 452.274 222.547Z" fill="#2E3120"/>
<path d="M383.153 157.288C383.115 154.548 384.258 152.365 386.153 150.399C390.276 146.123 396.205 144.899 401.903 144.899C403.969 144.899 406.11 144.907 408.153 145.204C409.63 145.419 412.33 145.528 413.098 147.149C413.33 147.638 412.988 148.093 412.917 148.552C412.802 149.304 412.903 150.137 412.903 150.899V156.524C412.903 159.806 412.577 162.968 411.653 166.135C411.073 168.124 410.615 169.664 408.765 170.774C407.536 171.511 405.625 173.399 404.209 173.399C402.131 173.399 400.257 173.28 398.209 172.954C395.723 172.56 393.245 172.455 390.806 171.913C389.606 171.646 387.464 170.215 386.778 169.149C385.819 167.656 384.89 165.792 384.598 164.038C384.416 162.948 384.433 161.832 384.153 160.76C383.831 159.524 383.172 158.617 383.153 157.288Z" fill="#2E3120"/>
<path d="M306.282 323.24C306.244 320.501 307.386 318.318 309.282 316.352C313.405 312.076 319.334 310.852 325.032 310.852C327.098 310.852 329.239 310.86 331.282 311.157C332.759 311.372 335.459 311.481 336.227 313.102C336.459 313.591 336.117 314.046 336.046 314.504C335.93 315.256 336.032 316.09 336.032 316.852V322.477C336.032 325.758 335.706 328.921 334.782 332.088C334.202 334.077 333.744 335.616 331.893 336.727C330.665 337.464 328.754 339.352 327.338 339.352C325.26 339.352 323.386 339.232 321.338 338.907C318.852 338.512 316.374 338.407 313.935 337.865C312.735 337.599 310.593 336.168 309.907 335.102C308.948 333.609 308.019 331.745 307.727 329.99C307.545 328.901 307.562 327.785 307.282 326.713C306.96 325.477 306.301 324.569 306.282 323.24Z" fill="#2E3120"/>
<path d="M198.571 277.482C198.533 274.742 199.675 272.559 201.571 270.593C205.694 266.317 211.622 265.093 217.321 265.093C219.387 265.093 221.528 265.101 223.571 265.398C225.048 265.613 227.748 265.722 228.516 267.343C228.747 267.832 228.406 268.287 228.335 268.746C228.219 269.498 228.321 270.331 228.321 271.093V276.718C228.321 280 227.995 283.162 227.071 286.329C226.491 288.318 226.033 289.857 224.182 290.968C222.954 291.705 221.042 293.593 219.627 293.593C217.549 293.593 215.675 293.473 213.627 293.148C211.141 292.754 208.663 292.649 206.224 292.107C205.024 291.84 202.881 290.409 202.196 289.343C201.236 287.85 200.308 285.986 200.016 284.232C199.834 283.142 199.851 282.026 199.571 280.954C199.249 279.718 198.59 278.811 198.571 277.482Z" fill="#2E3120"/>
<path d="M142.618 403.219C142.58 400.48 143.723 398.297 145.618 396.331C149.741 392.055 155.67 390.831 161.368 390.831C163.434 390.831 165.575 390.839 167.618 391.136C169.095 391.351 171.795 391.46 172.563 393.081C172.795 393.57 172.453 394.025 172.382 394.483C172.267 395.235 172.368 396.069 172.368 396.831V402.456C172.368 405.737 172.042 408.9 171.118 412.067C170.538 414.056 170.08 415.595 168.229 416.706C167.001 417.443 165.09 419.331 163.674 419.331C161.596 419.331 159.722 419.211 157.674 418.886C155.188 418.491 152.71 418.386 150.271 417.844C149.071 417.578 146.929 416.147 146.243 415.081C145.284 413.588 144.355 411.724 144.063 409.969C143.881 408.88 143.898 407.764 143.618 406.692C143.296 405.456 142.637 404.548 142.618 403.219Z" fill="#2E3120"/>
<path d="M277.317 463.7C277.279 460.96 278.422 458.777 280.317 456.811C284.44 452.535 290.369 451.311 296.067 451.311C298.133 451.311 300.274 451.319 302.317 451.616C303.794 451.831 306.494 451.94 307.262 453.561C307.494 454.05 307.152 454.505 307.081 454.964C306.966 455.716 307.067 456.549 307.067 457.311V462.936C307.067 466.218 306.741 469.38 305.817 472.547C305.237 474.536 304.779 476.075 302.928 477.186C301.7 477.923 299.789 479.811 298.373 479.811C296.295 479.811 294.421 479.691 292.373 479.366C289.887 478.972 287.409 478.867 284.97 478.325C283.77 478.058 281.628 476.627 280.942 475.561C279.983 474.068 279.054 472.204 278.762 470.45C278.58 469.36 278.597 468.244 278.317 467.172C277.995 465.936 277.336 465.029 277.317 463.7Z" fill="#2E3120"/>
<path d="M220.767 374.719C220.729 371.98 221.872 369.797 223.767 367.831C227.89 363.555 233.819 362.331 239.517 362.331C241.583 362.331 243.724 362.339 245.767 362.636C247.244 362.851 249.944 362.96 250.712 364.581C250.944 365.07 250.602 365.525 250.531 365.983C250.416 366.735 250.517 367.569 250.517 368.331V373.956C250.517 377.237 250.191 380.4 249.267 383.567C248.687 385.556 248.229 387.095 246.379 388.206C245.15 388.943 243.239 390.831 241.823 390.831C239.745 390.831 237.871 390.711 235.823 390.386C233.337 389.991 230.859 389.886 228.42 389.344C227.22 389.078 225.078 387.647 224.392 386.581C223.433 385.088 222.504 383.224 222.212 381.469C222.03 380.38 222.047 379.264 221.767 378.192C221.445 376.956 220.786 376.048 220.767 374.719Z" fill="#2E3120"/>
<path d="M349.481 431.604C349.443 428.865 350.585 426.682 352.481 424.716C356.604 420.44 362.532 419.216 368.231 419.216C370.297 419.216 372.438 419.224 374.481 419.521C375.958 419.736 378.658 419.845 379.426 421.466C379.657 421.955 379.316 422.41 379.245 422.868C379.129 423.62 379.231 424.454 379.231 425.216V430.841C379.231 434.122 378.905 437.285 377.981 440.452C377.401 442.441 376.943 443.98 375.092 445.091C373.864 445.828 371.952 447.716 370.537 447.716C368.459 447.716 366.585 447.596 364.537 447.271C362.051 446.876 359.573 446.771 357.134 446.229C355.934 445.963 353.791 444.532 353.106 443.466C352.146 441.973 351.218 440.109 350.926 438.354C350.744 437.265 350.761 436.149 350.481 435.077C350.159 433.841 349.5 432.934 349.481 431.604Z" fill="#2E3120"/>
<path d="M401.478 213.044C401.439 210.304 402.582 208.121 404.478 206.155C408.601 201.879 414.529 200.655 420.228 200.655C422.294 200.655 424.434 200.663 426.478 200.96C427.954 201.175 430.654 201.284 431.422 202.905C431.654 203.394 431.312 203.849 431.241 204.308C431.126 205.06 431.228 205.893 431.228 206.655V212.28C431.228 215.562 430.901 218.724 429.978 221.891C429.397 223.88 428.939 225.419 427.089 226.53C425.86 227.267 423.949 229.155 422.533 229.155C420.456 229.155 418.581 229.035 416.533 228.71C414.047 228.316 411.569 228.211 409.13 227.669C407.931 227.402 405.788 225.971 405.103 224.905C404.143 223.412 403.214 221.548 402.922 219.794C402.74 218.704 402.757 217.588 402.478 216.516C402.155 215.28 401.496 214.373 401.478 213.044Z" fill="#2E3120"/>
<path d="M248.23 56.0149C245.731 56.0149 243.207 55.9149 240.716 56.1537C236.791 56.5301 233.563 58.8298 233.563 64.0149C233.563 68.0018 232.001 71.7322 232.369 75.7371C232.649 78.7811 233.822 81.1688 235.313 83.8204C236.327 85.623 237.368 86.5087 239.258 87.2649C241.708 88.245 244.362 88.2238 246.952 88.4593C249.628 88.7026 252.635 89.0347 255.313 88.7371C260.057 88.21 264.589 83.7889 267.174 80.0287C267.891 78.9859 267.563 77.3344 267.563 76.126C267.563 72.873 266.721 70.3542 264.466 67.9037C263.478 66.8298 263.421 65.2855 262.786 64.0149C262.111 62.665 261.126 61.7169 259.799 61.0149C256.877 59.4675 253.952 57.9846 251.077 56.4037C250.182 55.9116 249.221 56.0149 248.23 56.0149Z" fill="#2E3120"/>
<path d="M112.808 94.5344C110.309 94.5344 107.786 94.4344 105.295 94.6733C101.369 95.0497 98.1413 97.3493 98.1413 102.535C98.1413 106.522 96.5785 110.252 96.9468 114.257C97.2267 117.301 98.3997 119.689 99.8913 122.34C100.906 124.143 101.946 125.029 103.836 125.785C106.287 126.765 108.94 126.744 111.531 126.979C114.207 127.222 117.213 127.554 119.892 127.257C124.635 126.73 129.168 122.309 131.753 118.549C132.47 117.506 132.142 115.854 132.142 114.646C132.142 111.393 131.299 108.874 129.045 106.424C128.057 105.35 127.999 103.805 127.364 102.535C126.689 101.185 125.704 100.237 124.378 99.5344C121.455 97.987 118.53 96.5041 115.656 94.9233C114.761 94.4311 113.799 94.5344 112.808 94.5344Z" fill="#2E3120"/>
<path d="M191.093 227.626C188.593 227.626 186.07 227.526 183.579 227.765C179.654 228.141 176.426 230.441 176.426 235.626C176.426 239.613 174.863 243.343 175.232 247.348C175.511 250.392 176.685 252.78 178.176 255.431C179.19 257.234 180.23 258.12 182.12 258.876C184.571 259.856 187.225 259.835 189.815 260.07C192.491 260.313 195.498 260.646 198.176 260.348C202.92 259.821 207.452 255.4 210.037 251.64C210.754 250.597 210.426 248.945 210.426 247.737C210.426 244.484 209.583 241.965 207.329 239.515C206.341 238.441 206.284 236.896 205.648 235.626C204.973 234.276 203.988 233.328 202.662 232.626C199.739 231.078 196.814 229.595 193.94 228.015C193.045 227.523 192.083 227.626 191.093 227.626Z" fill="#2E3120"/>
<path d="M54.5892 345.921C52.0896 345.921 49.5665 345.821 47.0753 346.06C43.15 346.436 39.9225 348.736 39.9225 353.921C39.9225 357.908 38.3598 361.638 38.728 365.643C39.008 368.687 40.181 371.075 41.6725 373.726C42.6865 375.529 43.7266 376.415 45.6169 377.171C48.0674 378.151 50.7211 378.13 53.3114 378.365C55.9873 378.609 58.9942 378.941 61.6725 378.643C66.4162 378.116 70.9485 373.695 73.5336 369.935C74.2505 368.892 73.9225 367.24 73.9225 366.032C73.9225 362.779 73.0797 360.26 70.8253 357.81C69.8373 356.736 69.78 355.192 69.1447 353.921C68.4698 352.571 67.4846 351.623 66.1586 350.921C63.2358 349.374 60.3107 347.891 57.4364 346.31C56.5416 345.818 55.5797 345.921 54.5892 345.921Z" fill="#2E3120"/>
<path d="M286.566 393.785C284.067 393.785 281.544 393.685 279.052 393.924C275.127 394.3 271.9 396.6 271.9 401.785C271.9 405.772 270.337 409.502 270.705 413.507C270.985 416.551 272.158 418.939 273.65 421.59C274.664 423.393 275.704 424.279 277.594 425.035C280.045 426.015 282.698 425.994 285.289 426.229C287.964 426.473 290.971 426.805 293.65 426.507C298.393 425.98 302.926 421.559 305.511 417.799C306.228 416.756 305.9 415.104 305.9 413.896C305.9 410.643 305.057 408.124 302.802 405.674C301.814 404.6 301.757 403.056 301.122 401.785C300.447 400.435 299.462 399.487 298.136 398.785C295.213 397.238 292.288 395.755 289.414 394.174C288.519 393.682 287.557 393.785 286.566 393.785Z" fill="#2E3120"/>
<path d="M335.796 260.753C333.296 260.753 330.773 260.653 328.282 260.892C324.357 261.268 321.129 263.568 321.129 268.753C321.129 272.74 319.566 276.47 319.935 280.475C320.215 283.519 321.388 285.907 322.879 288.559C323.893 290.361 324.933 291.247 326.824 292.003C329.274 292.983 331.928 292.962 334.518 293.198C337.194 293.441 340.201 293.773 342.879 293.475C347.623 292.948 352.155 288.527 354.74 284.767C355.457 283.724 355.129 282.073 355.129 280.864C355.129 277.611 354.286 275.093 352.032 272.642C351.044 271.568 350.987 270.024 350.351 268.753C349.676 267.403 348.691 266.455 347.365 265.753C344.442 264.206 341.517 262.723 338.643 261.142C337.748 260.65 336.786 260.753 335.796 260.753Z" fill="#2E3120"/>
<path d="M348.745 144.92C346.246 144.92 343.723 144.82 341.232 145.059C337.306 145.435 334.079 147.735 334.079 152.92C334.079 156.907 332.516 160.637 332.884 164.642C333.164 167.686 334.337 170.074 335.829 172.725C336.843 174.528 337.883 175.414 339.773 176.17C342.224 177.15 344.877 177.129 347.468 177.364C350.144 177.607 353.15 177.939 355.829 177.642C360.573 177.115 365.105 172.694 367.69 168.934C368.407 167.891 368.079 166.239 368.079 165.031C368.079 161.778 367.236 159.259 364.982 156.809C363.994 155.735 363.936 154.19 363.301 152.92C362.626 151.57 361.641 150.622 360.315 149.92C357.392 148.372 354.467 146.889 351.593 145.309C350.698 144.816 349.736 144.92 348.745 144.92Z" fill="#2E3120"/>
<path d="M378.757 47.1233C376.257 47.1233 373.734 47.0233 371.243 47.2622C367.317 47.6386 364.09 49.9382 364.09 55.1233C364.09 59.1102 362.527 62.8406 362.896 66.8455C363.175 69.8896 364.348 72.2773 365.84 74.9289C366.854 76.7315 367.894 77.6172 369.784 78.3733C372.235 79.3535 374.889 79.3323 377.479 79.5677C380.155 79.811 383.162 80.1431 385.84 79.8455C390.584 79.3184 395.116 74.8974 397.701 71.1372C398.418 70.0944 398.09 68.4428 398.09 67.2344C398.09 63.9815 397.247 61.4627 394.993 59.0122C394.005 57.9383 393.947 56.3939 393.312 55.1233C392.637 53.7735 391.652 52.8253 390.326 52.1233C387.403 50.5759 384.478 49.093 381.604 47.5122C380.709 47.0201 379.747 47.1233 378.757 47.1233Z" fill="#2E3120"/>
<path d="M269.601 222.662C272.244 219.616 276.761 218.464 280.573 217.857C285.406 217.087 288.824 217.74 293.546 218.496C296.018 218.891 297.147 222.144 298.157 224.135C300.239 228.241 302.979 231.844 301.754 236.746C300.826 240.459 298.052 243.196 294.726 245.037C291.083 247.054 285.843 246.279 281.851 246.246C276.149 246.198 268.824 244.915 265.212 239.885C263.665 237.73 265.089 233.315 265.712 231.024C266.562 227.903 267.447 225.146 269.601 222.662Z" fill="#2E3120"/>
<path d="M239.594 135.596C242.236 132.549 246.754 131.398 250.566 130.79C255.398 130.021 258.815 130.674 263.537 131.429C266.009 131.825 267.14 135.078 268.149 137.068C270.232 141.175 272.972 144.778 271.747 149.679C270.818 153.393 268.044 156.13 264.718 157.971C261.075 159.988 255.836 159.213 251.844 159.179C246.141 159.132 238.816 157.849 235.204 152.818C233.657 150.663 235.08 146.248 235.704 143.957C236.553 140.837 237.44 138.08 239.594 135.596Z" fill="#2E3120"/>
<path d="M135.152 225.426C137.794 222.379 142.312 221.228 146.124 220.621C150.956 219.851 154.374 220.504 159.096 221.259C161.568 221.655 162.698 224.908 163.707 226.898C165.789 231.005 168.53 234.608 167.305 239.509C166.376 243.223 163.603 245.96 160.277 247.801C156.634 249.818 151.393 249.043 147.402 249.009C141.7 248.962 134.375 247.679 130.763 242.648C129.216 240.493 130.639 236.078 131.263 233.787C132.112 230.667 132.998 227.91 135.152 225.426Z" fill="#2E3120"/>
<path d="M400.949 405.484C403.591 402.438 408.109 401.286 411.921 400.679C416.753 399.909 420.172 400.562 424.893 401.318C427.365 401.713 428.495 404.966 429.505 406.957C431.587 411.063 434.327 414.666 433.102 419.568C432.173 423.281 429.4 426.018 426.074 427.859C422.431 429.876 417.191 429.101 413.199 429.068C407.497 429.02 400.172 427.737 396.56 422.707C395.013 420.552 396.437 416.137 397.06 413.846C397.909 410.725 398.795 407.968 400.949 405.484Z" fill="#2E3120"/>
<path d="M409.437 302.245C412.079 299.198 416.597 298.047 420.409 297.439C425.241 296.67 428.659 297.323 433.381 298.078C435.853 298.474 436.983 301.727 437.992 303.717C440.074 307.824 442.815 311.427 441.589 316.328C440.661 320.042 437.887 322.779 434.562 324.62C430.919 326.637 425.678 325.862 421.687 325.828C415.984 325.781 408.659 324.498 405.048 319.467C403.501 317.312 404.924 312.897 405.548 310.606C406.397 307.486 407.282 304.729 409.437 302.245Z" fill="#2E3120"/>
<path d="M311.367 374.228C314.009 371.181 318.527 370.03 322.339 369.422C327.171 368.653 330.589 369.306 335.311 370.061C337.783 370.457 338.913 373.709 339.922 375.7C342.005 379.807 344.745 383.409 343.52 388.311C342.591 392.025 339.818 394.762 336.492 396.603C332.849 398.619 327.609 397.844 323.617 397.811C317.915 397.764 310.59 396.481 306.978 391.45C305.431 389.295 306.854 384.88 307.478 382.589C308.327 379.469 309.213 376.712 311.367 374.228Z" fill="#2E3120"/>
<path d="M155.57 326.342C158.212 323.295 162.73 322.144 166.542 321.537C171.374 320.767 174.792 321.42 179.514 322.175C181.986 322.571 183.116 325.824 184.125 327.814C186.208 331.921 188.948 335.524 187.723 340.425C186.794 344.139 184.021 346.876 180.695 348.717C177.052 350.734 171.812 349.959 167.82 349.925C162.118 349.878 154.793 348.595 151.181 343.564C149.634 341.41 151.057 336.994 151.681 334.703C152.53 331.583 153.416 328.826 155.57 326.342Z" fill="#2E3120"/>
<path d="M140.187 452.38C142.829 449.333 147.347 448.182 151.159 447.575C155.991 446.805 159.409 447.458 164.131 448.214C166.603 448.609 167.733 451.862 168.742 453.852C170.824 457.959 173.565 461.562 172.339 466.464C171.411 470.177 168.637 472.914 165.312 474.755C161.669 476.772 156.428 475.997 152.437 475.964C146.734 475.916 139.409 474.633 135.798 469.602C134.251 467.448 135.674 463.032 136.298 460.741C137.147 457.621 138.032 454.864 140.187 452.38Z" fill="#2E3120"/>
<path d="M11.1211 463.237C11.3876 461.852 13.9406 455.626 22.3156 453.112C26.6263 452.496 31.1881 452.948 35.2322 454.681C37.5265 455.665 40.1998 456.859 41.5794 459.015C43.0338 461.287 43.3156 463.244 43.3156 465.89C43.3156 468.835 42.9439 471.399 42.2044 474.251C41.6798 476.275 39.9163 477.349 38.0933 478.362C33.9386 480.67 29.9993 483.454 25.01 483.376C22.4661 483.336 18.0996 482.367 16.3294 480.376C15.018 478.901 14.5125 477.08 13.9406 475.237C13.1608 472.724 12.0134 470.493 11.0656 468.07C10.4908 466.602 10.8333 464.734 11.1211 463.237Z" fill="#2E3120"/>
<path d="M7.6882 309.708C6.67827 307.688 6.30376 304.487 6.88264 302.236C8.74399 294.997 14.4293 295.979 17.216 295.472C18.6018 295.22 19.5794 294.304 21.0215 294.041C22.8826 293.703 25.4413 293.813 27.3132 294C27.9751 294.066 28.7423 294.217 29.3271 294.541C29.6419 294.716 29.9695 295.194 30.3271 295.236C31.0698 295.323 31.6518 295.736 32.466 295.736C33.764 295.736 34.8245 295.958 36.0771 296.236C37.3722 296.524 38.6994 298.113 39.3271 299.236C39.7855 300.056 40.0771 300.265 40.0771 301.236V303.236C40.0771 305.238 39.4647 307.034 39.0771 308.972C38.5083 311.816 38.0054 314.451 37.0771 317.236C36.5476 318.824 35.9323 321.782 33.9521 322.222C31.04 322.869 26.72 323.416 23.8271 322.486C22.2275 321.972 20.7658 321.35 19.0632 321.25L19.0266 321.248C17.5328 321.16 16.5484 321.102 15.5771 319.861C13.9832 317.824 11.6759 316.544 10.1326 314.486C9.03715 313.025 8.48949 311.311 7.6882 309.708Z" fill="#2E3120"/>
<path d="M17.1822 164.62C18.5166 161.484 21.2412 159.805 24.0849 158.176C30.8743 154.286 35.7995 158.176 42.071 158.176C45.3278 158.176 47.8098 159.651 49.446 162.481C50.9429 165.07 51.2227 166.812 50.946 169.787C50.6742 172.709 49.4714 175.442 48.196 178.051C47.0884 180.316 45.3607 182.304 43.0849 183.481C40.0487 185.052 37.4501 185.426 34.0572 185.426C28.0419 185.426 21.8957 185.062 18.5016 179.537C15.5679 174.761 14.9566 169.85 17.1822 164.62Z" fill="#2E3120"/>
<path d="M0.85251 350.1C0.813922 347.36 1.95667 345.177 3.8525 343.211C7.9755 338.935 13.9038 337.711 19.6025 337.711C21.6686 337.711 23.809 337.719 25.8525 338.016C27.3293 338.231 30.0292 338.34 30.797 339.961C31.0289 340.45 30.687 340.905 30.6164 341.364C30.5007 342.116 30.6025 342.949 30.6025 343.711V349.336C30.6025 352.618 30.2761 355.78 29.3525 358.947C28.7723 360.936 28.3142 362.476 26.4637 363.586C25.2354 364.323 23.3239 366.211 21.9081 366.211C19.8306 366.211 17.9563 366.092 15.9081 365.766C13.422 365.372 10.9443 365.267 8.50529 364.725C7.30554 364.458 5.1628 363.027 4.4775 361.961C3.51775 360.468 2.58934 358.604 2.29695 356.85C2.11534 355.76 2.13217 354.644 1.8525 353.572C1.53011 352.336 0.871229 351.429 0.85251 350.1Z" fill="#2E3120"/>
<path d="M19.261 101.816C16.7615 101.816 14.2383 101.716 11.7471 101.955C7.82185 102.332 4.59437 104.631 4.59437 109.816C4.59437 113.803 3.03166 117.534 3.39993 121.539C3.67984 124.583 4.85286 126.97 6.34437 129.622C7.35834 131.425 8.39849 132.31 10.2888 133.066C12.7392 134.047 15.3929 134.025 17.9832 134.261C20.6592 134.504 23.666 134.836 26.3444 134.539C31.0881 134.012 35.6203 129.59 38.2055 125.83C38.9224 124.787 38.5944 123.136 38.5944 121.928C38.5944 118.675 37.7516 116.156 35.4971 113.705C34.5091 112.631 34.4519 111.087 33.8166 109.816C33.1417 108.467 32.1565 107.518 30.8305 106.816C27.9076 105.269 24.9825 103.786 22.1082 102.205C21.2135 101.713 20.2516 101.816 19.261 101.816Z" fill="#2E3120"/>
<path d="M15.7805 0C15.0724 1.59261 13.5138 2.53203 11.909 3.42355C11.2963 3.76394 10.6883 4.11466 10.0809 4.46503C6.89805 6.30105 3.73244 8.12711 0 8.40318V0H15.7805Z" fill="#2E3120"/>
<path d="M385.507 500H352.322C352.233 498.818 352.303 497.637 352.559 496.642C354.108 490.616 358.307 490.286 361.278 490.053C361.876 490.006 362.425 489.963 362.892 489.878C363.578 489.753 364.164 489.466 364.756 489.175C365.359 488.879 365.969 488.58 366.697 488.447C368.558 488.109 371.117 488.218 372.989 488.406C373.651 488.472 374.418 488.622 375.003 488.947C375.124 489.015 375.248 489.127 375.374 489.243C375.575 489.426 375.783 489.616 376.003 489.642C376.327 489.68 376.62 489.78 376.915 489.88C377.297 490.01 377.683 490.142 378.142 490.142C379.44 490.142 380.5 490.363 381.753 490.642C383.048 490.93 384.375 492.519 385.003 493.642C385.102 493.818 385.193 493.967 385.275 494.1C385.573 494.587 385.753 494.88 385.753 495.642V497.642C385.753 498.454 385.652 499.232 385.507 500Z" fill="#2E3120"/>
<path d="M468.607 500H433.684C433.904 498.875 434.257 497.736 434.748 496.582C436.082 493.446 438.807 491.767 441.651 490.138C446.143 487.564 449.819 488.396 453.609 489.254C455.547 489.692 457.515 490.138 459.637 490.138C462.894 490.138 465.376 491.613 467.012 494.443C468.191 496.482 468.615 497.996 468.607 500Z" fill="#2E3120"/>
<path d="M499.999 477.911V500H487.663C487.182 498.518 486.58 497.129 485.974 495.734C485.602 494.876 485.229 494.015 484.882 493.13C484.307 491.661 484.65 489.793 484.938 488.296C485.204 486.911 487.757 480.685 496.132 478.171C497.406 477.989 498.701 477.901 499.999 477.911Z" fill="#2E3120"/>
<path d="M499.999 409.881V434.45C499.902 434.349 499.805 434.238 499.709 434.115C498.931 433.121 497.982 432.306 497.035 431.493C496.044 430.642 495.054 429.793 494.265 428.74C493.514 427.739 493.021 426.619 492.527 425.497C492.3 424.982 492.073 424.467 491.821 423.963C490.811 421.943 490.436 418.742 491.015 416.49C492.564 410.465 496.763 410.135 499.734 409.902C499.823 409.895 499.912 409.888 499.999 409.881Z" fill="#2E3120"/>
<path d="M500.001 377.48V407.022C499.741 407.074 499.481 407.114 499.22 407.143C496.778 407.415 494.063 407.163 491.575 406.932C491.334 406.909 491.095 406.887 490.858 406.866C490.329 406.817 489.796 406.78 489.263 406.743C487.191 406.597 485.113 406.451 483.164 405.671C481.274 404.915 480.233 404.029 479.22 402.227C477.728 399.575 476.555 397.187 476.275 394.143C476.072 391.934 476.457 389.808 476.842 387.676C477.156 385.944 477.47 384.208 477.47 382.421C477.47 377.236 480.697 374.936 484.622 374.56C486.546 374.376 488.49 374.393 490.426 374.411C490.997 374.416 491.567 374.421 492.136 374.421C492.283 374.421 492.43 374.419 492.576 374.417C493.411 374.404 494.222 374.391 494.983 374.81C496.642 375.722 498.318 376.602 500.001 377.48Z" fill="#2E3120"/>
<path d="M500 253.185V278.336C496.706 278.262 492.579 277.642 489.227 274.643C488.085 273.621 487.641 272.04 487.237 270.604C487.229 270.575 487.221 270.546 487.213 270.518C486.649 268.51 486.489 265.529 486.894 263.462C487.383 260.963 488.12 258.637 489.713 256.629C491.502 254.373 492.687 253.685 495.588 253.504C496.437 253.451 497.282 253.386 498.125 253.322C498.75 253.275 499.375 253.227 500 253.185Z" fill="#2E3120"/>
<path d="M499.999 171.655V200.231C498.893 200.532 497.726 200.655 496.292 200.655C493.656 200.655 491.515 200.026 489.042 199.099C487.014 198.339 485.455 197.192 483.762 195.948C483.463 195.728 483.159 195.504 482.848 195.28C479.244 192.677 479.405 188.216 479.552 184.167C479.57 183.674 479.587 183.187 479.598 182.71C479.658 180.024 480.416 177.524 482.237 175.53C484.769 172.757 488.993 172.182 492.691 171.678C492.748 171.67 492.805 171.663 492.862 171.655C493.216 171.607 493.565 171.559 493.906 171.509C494.102 171.466 494.302 171.417 494.505 171.367C495.46 171.132 496.454 170.888 497.098 171.21C498 171.661 498.87 171.658 499.851 171.655C499.9 171.655 499.949 171.655 499.999 171.655Z" fill="#2E3120"/>
<path d="M499.998 214.397V232.083C499.976 232.011 499.954 231.94 499.932 231.869C499.897 231.756 499.862 231.643 499.827 231.53C499.332 229.937 498.69 228.456 498.044 226.968C497.672 226.11 497.299 225.25 496.952 224.364C496.377 222.895 496.72 221.027 497.008 219.53C497.151 218.782 497.962 216.622 499.998 214.397Z" fill="#2E3120"/>
<path d="M500.001 60.4385V87.3284C499.974 87.3186 499.948 87.3086 499.921 87.2987C497.892 86.5379 496.333 85.3916 494.64 84.147C494.341 83.927 494.037 83.7038 493.726 83.4792C490.122 80.8761 490.284 76.4152 490.43 72.3661C490.448 71.8732 490.466 71.3864 490.476 70.9098C490.536 68.2236 491.294 65.7236 493.115 63.7292C494.853 61.8266 497.387 60.9586 500.001 60.4385Z" fill="#2E3120"/>
<path d="M499.999 21.8269V46.9271C499.761 47.0715 499.521 47.2112 499.277 47.346C496.369 48.9559 492.443 48.7867 488.947 48.636C488.063 48.5979 487.207 48.561 486.402 48.5543C480.7 48.5068 473.375 47.2238 469.763 42.1932C468.342 40.2131 469.428 36.3245 470.098 33.9291C470.157 33.7177 470.213 33.5179 470.263 33.3321C471.113 30.2118 471.998 27.4549 474.152 24.971C476.795 21.9243 481.312 20.7727 485.124 20.1654C489.66 19.443 492.95 19.974 497.241 20.6666C497.522 20.7119 497.807 20.7579 498.097 20.8043C498.841 20.9235 499.464 21.3018 499.999 21.8269Z" fill="#2E3120"/>
<path d="M500.001 8.40335C499.616 8.43172 499.226 8.44365 498.828 8.43744C496.284 8.39769 491.918 7.42884 490.148 5.43744C488.917 4.05246 488.396 2.36347 487.864 0.637094C487.829 0.524381 487.794 0.411509 487.759 0.298552C487.728 0.1986 487.696 0.0990929 487.664 0H500.001V8.40335Z" fill="#2E3120"/>
<path d="M468.608 0C468.605 0.541254 468.572 1.11825 468.513 1.75101C468.241 4.67292 467.038 7.40612 465.763 10.0149C464.655 12.2805 462.928 14.2684 460.652 15.4455C457.616 17.0159 455.017 17.3899 451.624 17.3899C445.609 17.3899 439.463 17.0262 436.069 11.501C433.782 7.77852 432.906 3.97387 433.685 0H468.608Z" fill="#2E3120"/>
<path d="M352.324 0C352.437 1.49299 352.802 2.9886 353.366 4.11611C353.618 4.62046 353.845 5.1359 354.072 5.65103C354.566 6.77272 355.06 7.89292 355.811 8.89388C356.6 9.94644 357.589 10.7957 358.581 11.6468C359.528 12.4596 360.476 13.274 361.255 14.2689C362.226 15.51 363.211 15.5678 364.704 15.6556L364.741 15.6578C366.096 15.7375 367.299 16.1478 368.54 16.5712C368.858 16.6797 369.179 16.789 369.505 16.8939C372.398 17.8237 376.718 17.2771 379.63 16.63C381.344 16.2492 382.035 13.9834 382.533 12.3508C382.611 12.0966 382.684 11.8578 382.755 11.6439C383.63 9.01955 384.127 6.52812 384.657 3.87001C384.69 3.70732 384.722 3.544 384.755 3.38C384.864 2.83528 384.991 2.30182 385.116 1.77186C385.257 1.18048 385.396 0.593449 385.509 0H352.324Z" fill="#2E3120"/>
<path d="M339.561 0C341.13 2.94465 342.406 5.86769 341.497 9.50648C340.568 13.2202 337.795 15.957 334.469 17.7981C331.561 19.408 327.635 19.2388 324.138 19.0882C323.255 19.0501 322.399 19.0132 321.594 19.0065C315.892 18.959 308.567 17.6759 304.955 12.6454C303.533 10.6653 304.62 6.77663 305.289 4.38122C305.349 4.16982 305.404 3.97006 305.455 3.78426C305.815 2.45964 306.182 1.20053 306.65 0H339.561Z" fill="#2E3120"/>
<path d="M260.332 0C259.578 0.801877 258.939 1.72215 258.471 2.82141C256.246 8.05141 256.857 12.9624 259.791 17.7381C263.185 23.2633 269.331 23.627 275.346 23.627C278.739 23.627 281.338 23.253 284.374 21.6825C286.65 20.5054 288.378 18.5176 289.485 16.252C290.761 13.6432 291.963 10.91 292.235 7.98808C292.512 5.01386 292.232 3.27167 290.735 0.68252C290.598 0.445485 290.455 0.217955 290.306 0H260.332Z" fill="#2E3120"/>
<path d="M241.127 0C240.984 1.07424 240.754 2.06255 240.469 2.86014C239.972 4.25186 239.344 5.61468 238.714 6.98221C237.796 8.97551 236.874 10.9788 236.344 13.0962C236.057 14.2439 235.129 14.6766 234.187 15.1154C233.857 15.2692 233.525 15.4238 233.219 15.6101C230.77 17.1008 228.959 17.6101 226.039 17.6101C223.402 17.6101 221.261 16.9818 218.789 16.0546C216.76 15.2938 215.201 14.1475 213.508 12.9029C213.209 12.6829 212.905 12.4597 212.594 12.2351C208.99 9.63201 209.151 5.1711 209.298 1.12205C209.312 0.743822 209.325 0.369189 209.336 0H241.127Z" fill="#2E3120"/>
<path d="M156.138 0C155.626 2.2386 156.007 5.32072 156.989 7.2853C157.241 7.78965 157.469 8.30509 157.695 8.82022C158.19 9.94191 158.683 11.0621 159.434 12.0631C160.223 13.1156 161.212 13.9649 162.204 14.816C163.151 15.6288 164.1 16.4432 164.878 17.4381C165.849 18.6792 166.834 18.737 168.328 18.8248L168.364 18.827C169.72 18.9067 170.922 19.317 172.164 19.7404C172.481 19.8489 172.802 19.9582 173.128 20.0631C176.021 20.9929 180.341 20.4463 183.253 19.7992C184.967 19.4184 185.658 17.1526 186.156 15.52C186.234 15.2658 186.307 15.027 186.378 14.8131C187.253 12.1888 187.75 9.69733 188.28 7.03923C188.313 6.87653 188.345 6.7132 188.378 6.54918C188.487 6.00447 188.614 5.47101 188.74 4.94105C189.062 3.58544 189.378 2.25271 189.378 0.813074V0H156.138Z" fill="#2E3120"/>
<path d="M142.133 0C140.651 4.12233 139.051 5.00112 135.613 6.89007C135.326 7.04775 135.026 7.21247 134.713 7.3867C132.06 8.86079 127.004 8.45624 122.868 8.12519C121.313 8.00075 119.888 7.8867 118.768 7.8867C114.828 7.8867 111.801 3.64953 111.289 0H142.133Z" fill="#2E3120"/>
<path d="M35.7762 9.64921C35.7681 9.62041 35.76 9.59167 35.752 9.56299C35.1874 7.55583 35.0281 4.57437 35.4325 2.50743C35.6004 1.6493 35.7976 0.811537 36.0488 0H66.3396C66.5147 0.497957 66.6722 1.00915 66.8357 1.53998C66.8902 1.71669 66.9453 1.89558 67.002 2.07688C67.3831 3.29647 67.4138 4.38538 67.377 5.6741C67.3479 6.6906 66.6788 7.77617 66.0547 8.78873C65.7566 9.27233 65.4688 9.73929 65.2658 10.1741C64.2806 12.2853 62.5158 15.2362 60.377 16.3685C58.515 17.3543 55.7925 17.3338 53.5629 17.3171C53.284 17.315 53.0128 17.313 52.752 17.313C52.3627 17.313 51.9108 17.3281 51.408 17.3449C47.9835 17.4595 42.1973 17.653 37.7658 13.688C36.624 12.6664 36.1798 11.0856 35.7762 9.64921Z" fill="#2E3120"/>
<path d="M290.306 500H260.328C261.727 498.513 263.524 497.433 265.372 496.375C269.864 493.801 273.54 494.633 277.33 495.491C279.268 495.929 281.236 496.375 283.358 496.375C286.343 496.375 288.677 497.614 290.306 500Z" fill="#2E3120"/>
<path d="M339.561 500H306.648C307.283 498.372 308.103 496.851 309.343 495.421C311.985 492.374 316.503 491.223 320.315 490.615C324.85 489.893 328.14 490.424 332.431 491.117C332.712 491.162 332.997 491.208 333.287 491.254C335.388 491.59 336.52 493.991 337.432 495.926C337.593 496.268 337.747 496.595 337.898 496.893C338.245 497.576 338.609 498.246 338.971 498.909C339.17 499.274 339.368 499.637 339.561 500Z" fill="#2E3120"/>
<path d="M0 46.926V21.8291C0.972647 22.7857 1.65245 24.2281 2.24089 25.4766C2.40179 25.818 2.55585 26.1449 2.70721 26.4434C3.05361 27.1265 3.41823 27.7958 3.77978 28.4594C5.59145 31.7846 7.32599 34.9682 6.30443 39.0545C5.4442 42.4954 2.99999 45.0977 0 46.926Z" fill="#2E3120"/>
<path d="M0 87.3294V60.4382C1.19503 60.2005 2.40671 60.0355 3.56652 59.8776C3.62371 59.8698 3.68078 59.8621 3.73772 59.8543C4.09164 59.8061 4.44037 59.7582 4.78193 59.7087C4.97731 59.6653 5.17814 59.616 5.38072 59.5663C6.33562 59.3317 7.3293 59.0876 7.97379 59.4099C8.87537 59.8607 9.74565 59.8579 10.7263 59.8548C10.808 59.8546 10.8905 59.8543 10.9738 59.8543C12.0749 59.8543 13.1617 60.119 14.2443 60.3827C14.993 60.5651 15.7396 60.7469 16.4877 60.8404C17.7076 60.9929 19.5511 61.2385 20.4738 62.2154C22.9862 64.8757 22.7195 70.9662 21.5988 74.1043C21.1018 75.496 20.474 76.8589 19.8441 78.2264C18.9259 80.2197 18.0032 82.223 17.4738 84.3404C17.1869 85.4881 16.2583 85.9208 15.3168 86.3596C14.9867 86.5134 14.655 86.668 14.3488 86.8543C11.8998 88.345 10.0885 88.8543 7.16824 88.8543C4.56075 88.8543 2.43819 88.2398 0 87.3294Z" fill="#2E3120"/>
<path d="M0 200.23V171.655C0.0323152 171.655 0.064755 171.655 0.0973244 171.655C1.19847 171.655 2.28524 171.919 3.36785 172.183C4.1165 172.366 4.86317 172.547 5.61122 172.641C6.83111 172.793 8.67467 173.039 9.59733 174.016C12.1098 176.676 11.8431 182.767 10.7223 185.905C10.2253 187.297 9.59753 188.659 8.96762 190.027C8.04946 192.02 7.12668 194.023 6.59733 196.141C6.31041 197.289 5.38182 197.721 4.44029 198.16C4.11019 198.314 3.77851 198.468 3.47233 198.655C2.22653 199.413 1.14572 199.917 0 200.23Z" fill="#2E3120"/>
<path d="M0 278.336V253.184C1.38296 253.09 2.76858 253.018 4.16979 253.018C6.84801 253.018 8.54813 253.527 10.892 254.823C11.4356 255.124 12.0263 255.385 12.6218 255.648C14.0874 256.295 15.5823 256.955 16.4754 258.254C17.4055 259.607 17.8254 260.969 18.2953 262.495C18.3497 262.671 18.4048 262.85 18.4615 263.031C18.8426 264.251 18.8733 265.34 18.8365 266.629C18.8074 267.645 18.1383 268.731 17.5142 269.743C17.2161 270.227 16.9283 270.694 16.7254 271.129C15.7401 273.24 13.9753 276.191 11.8365 277.323C9.97452 278.309 7.25199 278.288 5.02244 278.272C4.74351 278.27 4.4723 278.268 4.21146 278.268C3.82224 278.268 3.37034 278.283 2.86754 278.299C2.0338 278.327 1.06007 278.36 0 278.336Z" fill="#2E3120"/>
<path d="M0 407.021V377.481C0.225094 377.599 0.450309 377.716 0.67562 377.834C1.68357 378.36 2.69345 378.887 3.70305 379.421C5.02907 380.123 6.01425 381.071 6.68916 382.421C6.93131 382.905 7.08948 383.429 7.24721 383.952C7.50332 384.801 7.75828 385.645 8.36971 386.31C10.6242 388.76 11.4669 391.279 11.4669 394.532C11.4669 394.811 11.4844 395.113 11.5024 395.425C11.5627 396.47 11.6297 397.632 11.0781 398.435C8.63558 401.988 4.45493 406.13 0 407.021Z" fill="#2E3120"/>
<path d="M0 232.09V214.395C1.73279 212.501 4.35241 210.561 8.20228 209.405C12.513 208.79 17.0748 209.242 21.119 210.975C23.4132 211.958 26.0865 213.152 27.4662 215.308C28.9206 217.581 29.2023 219.538 29.2023 222.183C29.2023 225.128 28.8306 227.692 28.0912 230.544C27.5665 232.568 25.803 233.643 23.9801 234.655C23.3674 234.996 22.7594 235.347 22.152 235.697C18.6406 237.722 15.1503 239.736 10.8967 239.669C8.35278 239.63 3.98631 238.661 2.21617 236.669C1.03758 235.343 0.509966 233.739 0 232.09Z" fill="#2E3120"/>
<path d="M0 434.452V409.88C0.495032 409.841 0.950692 409.799 1.34757 409.726C2.03358 409.602 2.61958 409.314 3.2114 409.024C3.81512 408.728 4.4249 408.428 5.15312 408.296C7.01417 407.958 9.57291 408.067 11.4448 408.254C12.1067 408.32 12.8739 408.471 13.4587 408.796C13.5802 408.863 13.7036 408.976 13.83 409.091C14.0309 409.275 14.2391 409.465 14.4587 409.49C14.7824 409.528 15.0756 409.628 15.3709 409.729C15.7529 409.859 16.1383 409.99 16.5976 409.99C17.8956 409.99 18.9561 410.212 20.2087 410.49C21.5038 410.778 22.831 412.367 23.4587 413.49C23.5574 413.667 23.6483 413.815 23.7303 413.949C24.0291 414.436 24.2087 414.729 24.2087 415.49V417.49C24.2087 418.93 23.8922 420.263 23.5702 421.618C23.4443 422.148 23.3176 422.682 23.2087 423.226C23.1759 423.39 23.1433 423.554 23.1108 423.716C22.5805 426.375 22.0835 428.866 21.2087 431.49C21.1374 431.704 21.0645 431.943 20.9869 432.197C20.4887 433.83 19.7972 436.096 18.0837 436.476C15.1717 437.124 10.8516 437.67 7.95868 436.74C7.63247 436.635 7.312 436.526 6.99404 436.418C5.75292 435.994 4.55018 435.584 3.19479 435.504L3.15817 435.502C1.81332 435.423 0.881276 435.368 0 434.452Z" fill="#2E3120"/>
<path d="M15.7795 500H0V477.911C3.09371 477.935 6.19924 478.52 9.04791 479.741C11.3422 480.724 14.0155 481.918 15.3951 484.074C16.8495 486.347 17.1312 488.303 17.1312 490.949C17.1312 493.894 16.7596 496.458 16.0201 499.31C15.9571 499.553 15.8762 499.783 15.7795 500Z" fill="#2E3120"/>
<path d="M66.3392 500H36.0469C36.527 498.448 37.2043 496.991 38.2507 495.672C40.0398 493.416 41.2244 492.728 44.1257 492.547C44.9745 492.494 45.8192 492.43 46.6627 492.366C48.6717 492.213 50.6739 492.061 52.7091 492.061C55.3873 492.061 57.0874 492.57 59.4313 493.866C59.9748 494.167 60.5655 494.428 61.1611 494.691C62.6267 495.338 64.1215 495.998 65.0146 497.297C65.6215 498.18 66.0111 499.067 66.3392 500Z" fill="#2E3120"/>
<path d="M142.13 500H111.288C111.237 499.639 111.211 499.285 111.211 498.94C111.211 495.347 111.485 490.902 112.266 487.384C113.99 479.628 118.017 479.707 125.055 479.845C126.046 479.864 127.098 479.884 128.211 479.884C129.924 479.884 130.856 480.113 131.844 480.355C132.724 480.571 133.649 480.798 135.211 480.884C138.466 481.065 140.211 482.134 143.211 486.662C146.025 488.318 143.667 495.397 142.662 498.412C142.574 498.677 142.496 498.911 142.433 499.107C142.332 499.421 142.231 499.718 142.13 500Z" fill="#2E3120"/>
<path d="M189.377 500H156.137C156.151 499.936 156.167 499.873 156.183 499.811C157.732 493.786 161.931 493.456 164.902 493.222C165.5 493.175 166.049 493.132 166.516 493.047C167.202 492.922 167.788 492.635 168.38 492.344C168.984 492.048 169.593 491.749 170.322 491.616C172.183 491.278 174.741 491.388 176.613 491.575C177.275 491.641 178.042 491.792 178.627 492.116C178.749 492.184 178.872 492.297 178.998 492.412C179.199 492.595 179.408 492.785 179.627 492.811C179.951 492.849 180.244 492.949 180.539 493.049C180.921 493.18 181.307 493.311 181.766 493.311C183.064 493.311 184.125 493.533 185.377 493.811C186.672 494.099 188 495.688 188.627 496.811C188.726 496.987 188.817 497.136 188.899 497.269C189.198 497.757 189.377 498.049 189.377 498.811V500Z" fill="#2E3120"/>
<path d="M241.126 500H209.336C209.339 499.887 209.342 499.775 209.344 499.663C209.404 496.977 210.162 494.477 211.983 492.483C214.515 489.71 218.74 489.135 222.437 488.631C222.494 488.623 222.551 488.616 222.608 488.608C222.962 488.56 223.311 488.512 223.652 488.462C223.848 488.419 224.049 488.37 224.251 488.32C225.206 488.085 226.2 487.841 226.844 488.163C227.746 488.614 228.616 488.612 229.597 488.608C229.678 488.608 229.761 488.608 229.844 488.608C230.945 488.608 232.032 488.873 233.115 489.136C233.863 489.319 234.61 489.501 235.358 489.594C236.578 489.747 238.422 489.992 239.344 490.969C241.219 492.954 241.546 496.847 241.126 500Z" fill="#2E3120"/>
</svg>
