<svg width="500" height="500" viewBox="0 0 500 500" fill="none" xmlns="http://www.w3.org/2000/svg">
<path d="M84.2038 130.311C85.506 127.117 86.9892 126.861 90.074 127.366C97.2728 127.366 96.2103 136.558 92.36 139.827C90.944 141.029 87.4423 141.073 85.8972 140.11C83.9992 138.928 83.9781 138 83.9781 135.919C83.9781 134.28 83.5673 131.873 84.2038 130.311Z" fill="#42535D"/>
<path d="M78.9655 439.407C80.2677 436.213 81.7509 435.957 84.8358 436.462C92.0345 436.462 90.972 445.654 87.1218 448.923C85.7057 450.125 82.204 450.168 80.6589 449.206C78.7609 448.024 78.7398 447.096 78.7398 445.015C78.7398 443.376 78.329 440.969 78.9655 439.407Z" fill="#42535D"/>
<path d="M336.55 130.311C337.852 127.117 339.335 126.861 342.42 127.366C349.619 127.366 348.556 136.558 344.706 139.827C343.29 141.029 339.788 141.073 338.243 140.11C336.345 138.928 336.324 138 336.324 135.919C336.324 134.28 335.913 131.873 336.55 130.311Z" fill="#D88D3A"/>
<path d="M331.312 439.407C332.614 436.213 334.097 435.957 337.182 436.462C344.381 436.462 343.319 445.654 339.468 448.923C338.052 450.125 334.55 450.168 333.005 449.206C331.107 448.024 331.086 447.096 331.086 445.015C331.086 443.376 330.675 440.969 331.312 439.407Z" fill="#939878"/>
<path d="M84.2038 284.335C85.506 281.141 86.9892 280.885 90.074 281.39C97.2728 281.39 96.2103 290.582 92.36 293.851C90.944 295.053 87.4423 295.096 85.8972 294.134C83.9992 292.952 83.9781 292.024 83.9781 289.943C83.9781 288.304 83.5673 285.897 84.2038 284.335Z" fill="#D88D3A"/>
<path d="M336.55 284.335C337.852 281.141 339.335 280.885 342.42 281.39C349.619 281.39 348.556 290.582 344.706 293.851C343.29 295.053 339.788 295.096 338.243 294.134C336.345 292.952 336.324 292.024 336.324 289.943C336.324 288.304 335.913 285.897 336.55 284.335Z" fill="#939878"/>
<path d="M212.034 50.6798C213.336 47.4858 214.819 47.2291 217.904 47.7345C225.103 47.7345 224.04 56.9262 220.19 60.1954C218.774 61.3978 215.272 61.441 213.727 60.4786C211.829 59.2965 211.808 58.3684 211.808 56.2872C211.808 54.6482 211.397 52.2413 212.034 50.6798Z" fill="#939878"/>
<path d="M206.796 359.776C208.098 356.582 209.581 356.325 212.666 356.831C219.865 356.831 218.802 366.022 214.952 369.292C213.536 370.494 210.034 370.537 208.489 369.575C206.591 368.393 206.57 367.465 206.57 365.383C206.57 363.744 206.159 361.337 206.796 359.776Z" fill="#D88D3A"/>
<path d="M464.209 50.6798C465.512 47.4858 466.995 47.2291 470.08 47.7345C477.278 47.7345 476.216 56.9262 472.366 60.1954C470.95 61.3978 467.448 61.441 465.903 60.4786C464.005 59.2965 463.984 58.3684 463.984 56.2872C463.984 54.6482 463.573 52.2413 464.209 50.6798Z" fill="#42535D"/>
<path d="M458.972 359.776C460.274 356.582 461.757 356.325 464.842 356.831C472.041 356.831 470.978 366.022 467.128 369.292C465.712 370.494 462.21 370.537 460.665 369.575C458.767 368.393 458.746 367.465 458.746 365.383C458.746 363.744 458.335 361.337 458.972 359.776Z" fill="#42535D"/>
<path d="M212.034 204.704C213.336 201.51 214.819 201.253 217.904 201.759C225.103 201.759 224.04 210.95 220.19 214.219C218.774 215.422 215.272 215.465 213.727 214.503C211.829 213.321 211.808 212.392 211.808 210.311C211.808 208.672 211.397 206.265 212.034 204.704Z" fill="#42535D"/>
<path d="M464.209 204.704C465.512 201.51 466.995 201.253 470.08 201.759C477.278 201.759 476.216 210.95 472.366 214.219C470.95 215.422 467.448 215.465 465.903 214.503C464.005 213.321 463.984 212.392 463.984 210.311C463.984 208.672 463.573 206.265 464.209 204.704Z" fill="#42535D"/>
<path d="M149.167 91.5431C150.469 88.3491 151.952 88.0924 155.037 88.5978C162.236 88.5978 161.173 97.7895 157.323 101.059C155.907 102.261 152.405 102.305 150.86 101.342C148.962 100.16 148.941 99.2317 148.941 97.1505C148.941 95.5115 148.53 93.1046 149.167 91.5431Z" fill="#42535D"/>
<path d="M143.929 400.639C145.231 397.445 146.714 397.189 149.799 397.694C156.998 397.694 155.935 406.886 152.085 410.155C150.669 411.357 147.167 411.401 145.622 410.438C143.724 409.256 143.703 408.328 143.703 406.247C143.703 404.608 143.292 402.201 143.929 400.639Z" fill="#D88D3A"/>
<path d="M401.512 91.5431C402.814 88.3491 404.298 88.0924 407.382 88.5978C414.581 88.5978 413.519 97.7895 409.668 101.059C408.252 102.261 404.751 102.305 403.206 101.342C401.308 100.16 401.286 99.2317 401.286 97.1505C401.286 95.5115 400.876 93.1046 401.512 91.5431Z" fill="#939878"/>
<path d="M396.274 400.639C397.577 397.445 399.06 397.189 402.145 397.694C409.343 397.694 408.281 406.886 404.431 410.155C403.015 411.357 399.513 411.401 397.968 410.438C396.07 409.256 396.049 408.328 396.049 406.247C396.049 404.608 395.638 402.201 396.274 400.639Z" fill="#939878"/>
<path d="M149.167 245.567C150.469 242.373 151.952 242.117 155.037 242.622C162.236 242.622 161.173 251.814 157.323 255.083C155.907 256.285 152.405 256.329 150.86 255.366C148.962 254.184 148.941 253.256 148.941 251.175C148.941 249.536 148.53 247.129 149.167 245.567Z" fill="#42535D"/>
<path d="M401.512 245.567C402.814 242.373 404.298 242.117 407.382 242.622C414.581 242.622 413.519 251.814 409.668 255.083C408.252 256.285 404.751 256.329 403.206 255.366C401.308 254.184 401.286 253.256 401.286 251.175C401.286 249.536 400.876 247.129 401.512 245.567Z" fill="#939878"/>
<path d="M276.997 11.9122C278.299 8.71815 279.782 8.4615 282.867 8.9669C290.066 8.9669 289.004 18.1585 285.153 21.4278C283.737 22.6302 280.236 22.6734 278.69 21.711C276.792 20.5289 276.771 19.6008 276.771 17.5196C276.771 15.8806 276.361 13.4736 276.997 11.9122Z" fill="#D88D3A"/>
<path d="M271.756 321.008C273.058 317.814 274.542 317.557 277.626 318.063C284.825 318.063 283.763 327.254 279.912 330.524C278.496 331.726 274.995 331.769 273.45 330.807C271.552 329.625 271.53 328.697 271.53 326.615C271.53 324.976 271.12 322.569 271.756 321.008Z" fill="#D88D3A"/>
<path d="M276.997 165.936C278.299 162.742 279.782 162.485 282.867 162.991C290.066 162.991 289.004 172.182 285.153 175.451C283.737 176.654 280.236 176.697 278.69 175.735C276.792 174.553 276.771 173.624 276.771 171.543C276.771 169.904 276.361 167.497 276.997 165.936Z" fill="#D88D3A"/>
<path d="M271.756 475.032C273.058 471.838 274.542 471.581 277.626 472.087C284.825 472.087 283.763 481.278 279.912 484.547C278.496 485.75 274.995 485.793 273.45 484.831C271.552 483.648 271.53 482.72 271.53 480.639C271.53 479 271.12 476.593 271.756 475.032Z" fill="#D88D3A"/>
<path d="M114.368 116.296C113.845 113.645 114.821 110.666 117.848 110.399C120.483 111.444 124.243 110.836 125.501 114.063C126.962 117.812 127.693 122.932 124.981 126.373C123.446 128.321 121.092 128.524 118.772 127.89C116.764 127.341 117.068 125.111 117.068 123.524C117.068 122.467 117.037 121.378 116.606 120.39C115.979 118.95 114.678 117.869 114.368 116.296Z" fill="#D88D3A"/>
<path d="M109.128 425.392C108.605 422.741 109.581 419.762 112.608 419.495C115.243 420.54 119.003 419.932 120.261 423.159C121.723 426.908 122.453 432.028 119.741 435.468C118.206 437.417 115.852 437.62 113.532 436.986C111.524 436.437 111.828 434.207 111.828 432.62C111.828 431.563 111.797 430.474 111.366 429.486C110.739 428.046 109.439 426.965 109.128 425.392Z" fill="#D88D3A"/>
<path d="M366.714 116.296C366.19 113.645 367.167 110.666 370.194 110.399C372.829 111.444 376.589 110.836 377.847 114.063C379.308 117.812 380.039 122.932 377.327 126.373C375.791 128.321 373.438 128.524 371.119 127.89C369.111 127.341 369.414 125.111 369.414 123.524C369.414 122.467 369.382 121.378 368.952 120.39C368.324 118.95 367.024 117.869 366.714 116.296Z" fill="#42535D"/>
<path d="M361.474 425.392C360.95 422.741 361.927 419.762 364.954 419.495C367.589 420.54 371.349 419.932 372.607 423.159C374.068 426.908 374.799 432.028 372.087 435.468C370.551 437.417 368.197 437.62 365.878 436.986C363.87 436.437 364.174 434.207 364.174 432.62C364.174 431.563 364.142 430.474 363.712 429.486C363.084 428.046 361.784 426.965 361.474 425.392Z" fill="#D88D3A"/>
<path d="M114.368 270.32C113.845 267.669 114.821 264.69 117.848 264.423C120.483 265.468 124.243 264.86 125.501 268.087C126.962 271.836 127.693 276.956 124.981 280.396C123.446 282.345 121.092 282.548 118.772 281.914C116.764 281.365 117.068 279.135 117.068 277.548C117.068 276.491 117.037 275.402 116.606 274.414C115.979 272.974 114.678 271.893 114.368 270.32Z" fill="#D88D3A"/>
<path d="M366.714 270.32C366.19 267.669 367.167 264.69 370.194 264.423C372.829 265.468 376.589 264.86 377.847 268.087C379.308 271.836 380.039 276.956 377.327 280.396C375.791 282.345 373.438 282.548 371.119 281.914C369.111 281.365 369.414 279.135 369.414 277.548C369.414 276.491 369.382 275.402 368.952 274.414C368.324 272.974 367.024 271.893 366.714 270.32Z" fill="#42535D"/>
<path d="M242.197 36.6646C241.674 34.0129 242.65 31.0343 245.677 30.7676C248.312 31.8124 252.072 31.204 253.331 34.4318C254.792 38.1804 255.522 43.3003 252.811 46.7409C251.275 48.689 248.921 48.8923 246.602 48.2581C244.594 47.7091 244.898 45.4795 244.898 43.8926C244.898 42.8351 244.866 41.7463 244.436 40.7581C243.808 39.3181 242.508 38.2374 242.197 36.6646Z" fill="#42535D"/>
<path d="M236.958 345.761C236.435 343.109 237.411 340.131 240.438 339.864C243.074 340.909 246.833 340.3 248.092 343.528C249.553 347.277 250.284 352.397 247.572 355.837C246.036 357.785 243.682 357.989 241.363 357.354C239.355 356.805 239.659 354.576 239.659 352.989C239.659 351.931 239.627 350.843 239.197 349.854C238.569 348.414 237.269 347.334 236.958 345.761Z" fill="#42535D"/>
<path d="M242.197 190.689C241.674 188.037 242.65 185.058 245.677 184.792C248.312 185.837 252.072 185.228 253.331 188.456C254.792 192.205 255.522 197.324 252.811 200.765C251.275 202.713 248.921 202.916 246.602 202.282C244.594 201.733 244.898 199.504 244.898 197.917C244.898 196.859 244.866 195.77 244.436 194.782C243.808 193.342 242.508 192.261 242.197 190.689Z" fill="#42535D"/>
<path d="M179.329 77.5279C178.806 74.8762 179.783 71.8976 182.81 71.6309C185.445 72.6757 189.205 72.0673 190.463 75.2951C191.924 79.0437 192.655 84.1636 189.943 87.6042C188.407 89.5523 186.053 89.7556 183.734 89.1214C181.726 88.5724 182.03 86.3428 182.03 84.7559C182.03 83.6984 181.998 82.6096 181.568 81.6214C180.94 80.1814 179.64 79.1007 179.329 77.5279Z" fill="#42535D"/>
<path d="M174.091 386.624C173.568 383.973 174.545 380.994 177.572 380.727C180.207 381.772 183.967 381.164 185.225 384.391C186.686 388.14 187.417 393.26 184.705 396.701C183.169 398.649 180.815 398.852 178.496 398.218C176.488 397.669 176.792 395.439 176.792 393.852C176.792 392.795 176.76 391.706 176.33 390.718C175.702 389.278 174.402 388.197 174.091 386.624Z" fill="#42535D"/>
<path d="M431.505 77.5279C430.982 74.8762 431.958 71.8976 434.985 71.6309C437.62 72.6757 441.38 72.0673 442.638 75.2951C444.1 79.0437 444.83 84.1636 442.119 87.6042C440.583 89.5523 438.229 89.7556 435.909 89.1214C433.902 88.5724 434.205 86.3428 434.205 84.7559C434.205 83.6984 434.174 82.6096 433.743 81.6214C433.116 80.1814 431.816 79.1007 431.505 77.5279Z" fill="#42535D"/>
<path d="M426.267 386.624C425.744 383.973 426.72 380.994 429.747 380.727C432.382 381.772 436.142 381.164 437.4 384.391C438.862 388.14 439.592 393.26 436.881 396.701C435.345 398.649 432.991 398.852 430.671 398.218C428.664 397.669 428.968 395.439 428.968 393.852C428.968 392.795 428.936 391.706 428.505 390.718C427.878 389.278 426.578 388.197 426.267 386.624Z" fill="#D88D3A"/>
<path d="M179.329 231.552C178.806 228.901 179.783 225.922 182.81 225.655C185.445 226.7 189.205 226.092 190.463 229.319C191.924 233.068 192.655 238.188 189.943 241.629C188.407 243.577 186.053 243.78 183.734 243.146C181.726 242.597 182.03 240.367 182.03 238.78C182.03 237.723 181.998 236.634 181.568 235.646C180.94 234.206 179.64 233.125 179.329 231.552Z" fill="#D88D3A"/>
<path d="M431.505 231.552C430.982 228.901 431.958 225.922 434.985 225.655C437.62 226.7 441.38 226.092 442.638 229.319C444.1 233.068 444.83 238.188 442.119 241.629C440.583 243.577 438.229 243.78 435.909 243.146C433.902 242.597 434.205 240.367 434.205 238.78C434.205 237.723 434.174 236.634 433.743 235.646C433.116 234.206 431.816 233.125 431.505 231.552Z" fill="#D88D3A"/>
<path d="M145.759 130.989C144.825 136.538 151.276 136.776 154.876 136.533C157.371 136.366 159.971 134.446 160.308 131.749C160.724 128.42 156.403 126.449 154.322 125.476C150.992 123.918 146.42 127.054 145.759 130.989Z" fill="#939878"/>
<path d="M140.519 440.085C139.585 445.634 146.036 445.872 149.636 445.629C152.131 445.462 154.731 443.542 155.068 440.845C155.484 437.516 151.163 435.545 149.082 434.572C145.752 433.014 141.18 436.15 140.519 440.085Z" fill="#939878"/>
<path d="M398.103 130.989C397.169 136.538 403.621 136.776 407.221 136.533C409.715 136.366 412.316 134.446 412.653 131.749C413.069 128.42 408.747 126.449 406.666 125.476C403.336 123.918 398.765 127.054 398.103 130.989Z" fill="#D88D3A"/>
<path d="M392.865 440.085C391.932 445.634 398.383 445.872 401.983 445.629C404.477 445.462 407.078 443.542 407.415 440.845C407.831 437.516 403.509 435.545 401.429 434.572C398.098 433.014 393.527 436.15 392.865 440.085Z" fill="#939878"/>
<path d="M145.759 285.013C144.825 290.562 151.276 290.799 154.876 290.557C157.371 290.39 159.971 288.47 160.308 285.773C160.724 282.444 156.403 280.473 154.322 279.5C150.992 277.942 146.42 281.078 145.759 285.013Z" fill="#D88D3A"/>
<path d="M398.103 285.013C397.169 290.562 403.621 290.799 407.221 290.557C409.715 290.39 412.316 288.47 412.653 285.773C413.069 282.444 408.747 280.473 406.666 279.5C403.336 277.942 398.765 281.078 398.103 285.013Z" fill="#939878"/>
<path d="M273.587 51.357C272.653 56.9068 279.105 57.1438 282.705 56.9017C285.199 56.734 287.8 54.8141 288.137 52.1175C288.553 48.7879 284.231 46.8172 282.15 45.8441C278.82 44.2865 274.249 47.4227 273.587 51.357Z" fill="#D88D3A"/>
<path d="M268.349 360.453C267.415 366.003 273.867 366.24 277.467 365.998C279.961 365.83 282.562 363.91 282.899 361.214C283.315 357.884 278.993 355.914 276.912 354.94C273.582 353.383 269.011 356.519 268.349 360.453Z" fill="#939878"/>
<path d="M273.587 205.381C272.653 210.931 279.105 211.168 282.705 210.926C285.199 210.758 287.8 208.838 288.137 206.142C288.553 202.812 284.231 200.841 282.15 199.868C278.82 198.311 274.249 201.447 273.587 205.381Z" fill="#D88D3A"/>
<path d="M210.72 92.2214C209.786 97.7711 216.238 98.0081 219.838 97.766C222.332 97.5983 224.933 95.6784 225.27 92.9818C225.686 89.6522 221.364 87.6815 219.283 86.7084C215.953 85.1508 211.382 88.287 210.72 92.2214Z" fill="#939878"/>
<path d="M205.482 401.317C204.549 406.867 211 407.104 214.6 406.862C217.094 406.694 219.695 404.774 220.032 402.077C220.448 398.748 216.126 396.777 214.046 395.804C210.715 394.246 206.144 397.383 205.482 401.317Z" fill="#42535D"/>
<path d="M462.896 92.2214C461.962 97.7711 468.413 98.0081 472.013 97.766C474.508 97.5983 477.108 95.6784 477.445 92.9818C477.861 89.6522 473.54 87.6815 471.459 86.7084C468.129 85.1508 463.558 88.287 462.896 92.2214Z" fill="#D88D3A"/>
<path d="M457.658 401.317C456.724 406.867 463.176 407.104 466.776 406.862C469.27 406.694 471.87 404.774 472.207 402.077C472.624 398.748 468.302 396.777 466.221 395.804C462.891 394.246 458.32 397.383 457.658 401.317Z" fill="#42535D"/>
<path d="M210.72 246.245C209.786 251.794 216.238 252.032 219.838 251.789C222.332 251.622 224.933 249.702 225.27 247.005C225.686 243.676 221.364 241.705 219.283 240.732C215.953 239.174 211.382 242.31 210.72 246.245Z" fill="#42535D"/>
<path d="M462.896 246.245C461.962 251.794 468.413 252.032 472.013 251.789C474.508 251.622 477.108 249.702 477.445 247.005C477.861 243.676 473.54 241.705 471.459 240.732C468.129 239.174 463.558 242.31 462.896 246.245Z" fill="#42535D"/>
<path d="M21.0717 12.5895C20.1382 18.1392 26.5894 18.3763 30.1895 18.1342C32.6837 17.9664 35.2844 16.0466 35.6213 13.3499C36.0374 10.0204 31.7159 8.04967 29.6352 7.07651C26.305 5.51897 21.7335 8.65519 21.0717 12.5895Z" fill="#42535D"/>
<path d="M15.8335 321.685C14.9 327.235 21.3512 327.472 24.9513 327.23C27.4455 327.062 30.0462 325.142 30.3831 322.446C30.7992 319.116 26.4777 317.146 24.397 316.172C21.0668 314.615 16.4953 317.751 15.8335 321.685Z" fill="#42535D"/>
<path d="M21.0717 173.438C20.1382 179.492 26.5894 179.751 30.1895 179.487C32.6837 179.304 35.2844 177.21 35.6213 174.268C36.0374 170.636 31.7159 168.486 29.6352 167.424C26.305 165.725 21.7335 169.146 21.0717 173.438Z" fill="#42535D"/>
<path d="M15.8335 482.534C14.9 488.588 21.3512 488.847 24.9513 488.583C27.4455 488.4 30.0462 486.306 30.3831 483.364C30.7992 479.732 26.4777 477.582 24.397 476.52C21.0668 474.821 16.4953 478.242 15.8335 482.534Z" fill="#D88D3A"/>
<path d="M180.375 113.44C181.733 111.123 183.732 111.17 185.793 111.866C187.067 112.356 188.539 112.103 189.362 112.356C191.246 112.935 192.178 114.695 192.549 116.727C192.674 117.417 193.184 122.616 192.341 122.847C190.886 123.246 188.608 122.567 187.067 122.567C185.031 122.567 179.113 120.237 179.196 117.601C179.242 116.149 179.661 114.66 180.375 113.44Z" fill="#D88D3A"/>
<path d="M175.137 422.536C176.495 420.219 178.494 420.266 180.555 420.962C181.829 421.452 183.301 421.199 184.124 421.452C186.008 422.031 186.94 423.791 187.311 425.823C187.436 426.513 187.946 431.712 187.103 431.943C185.648 432.342 183.37 431.663 181.829 431.663C179.793 431.663 173.875 429.333 173.958 426.697C174.004 425.245 174.423 423.756 175.137 422.536Z" fill="#D88D3A"/>
<path d="M432.553 113.44C433.91 111.123 435.909 111.17 437.97 111.866C439.245 112.356 440.717 112.103 441.54 112.356C443.424 112.935 444.356 114.695 444.726 116.727C444.852 117.417 445.362 122.616 444.519 122.847C443.063 123.246 440.785 122.567 439.245 122.567C437.209 122.567 431.291 120.237 431.374 117.601C431.419 116.149 431.838 114.66 432.553 113.44Z" fill="#939878"/>
<path d="M427.313 422.536C428.67 420.219 430.669 420.266 432.73 420.962C434.005 421.452 435.477 421.199 436.3 421.452C438.184 422.031 439.116 423.791 439.486 425.823C439.612 426.513 440.122 431.712 439.279 431.943C437.823 432.342 435.546 431.663 434.005 431.663C431.969 431.663 426.051 429.333 426.134 426.697C426.18 425.245 426.599 423.756 427.313 422.536Z" fill="#D88D3A"/>
<path d="M180.375 267.464C181.733 265.147 183.732 265.194 185.793 265.89C187.067 266.38 188.539 266.127 189.362 266.38C191.246 266.959 192.178 268.719 192.549 270.751C192.674 271.441 193.184 276.639 192.341 276.871C190.886 277.27 188.608 276.591 187.067 276.591C185.031 276.591 179.113 274.261 179.196 271.625C179.242 270.173 179.661 268.684 180.375 267.464Z" fill="#939878"/>
<path d="M432.553 267.464C433.91 265.147 435.909 265.194 437.97 265.89C439.245 266.38 440.717 266.127 441.54 266.38C443.424 266.959 444.356 268.719 444.726 270.751C444.852 271.441 445.362 276.639 444.519 276.871C443.063 277.27 440.785 276.591 439.245 276.591C437.209 276.591 431.291 274.261 431.374 271.625C431.419 270.173 431.838 268.684 432.553 267.464Z" fill="#939878"/>
<path d="M245.338 74.6727C246.695 72.3559 248.694 72.4032 250.755 73.0991C252.03 73.5887 253.501 73.3358 254.324 73.5887C256.209 74.1677 257.141 75.9276 257.511 77.9599C257.637 78.6497 258.147 83.8482 257.304 84.0795C255.848 84.4789 253.57 83.7997 252.03 83.7997C249.993 83.7997 244.076 81.4696 244.159 78.8341C244.204 77.3821 244.623 75.8923 245.338 74.6727Z" fill="#42535D"/>
<path d="M240.1 383.768C241.457 381.451 243.456 381.499 245.517 382.195C246.792 382.684 248.263 382.431 249.086 382.684C250.971 383.263 251.903 385.023 252.273 387.055C252.399 387.745 252.909 392.944 252.066 393.175C250.61 393.574 248.332 392.895 246.792 392.895C244.755 392.895 238.838 390.565 238.921 387.93C238.966 386.478 239.385 384.988 240.1 383.768Z" fill="#D88D3A"/>
<path d="M245.338 228.696C246.695 226.379 248.694 226.427 250.755 227.122C252.03 227.612 253.501 227.359 254.324 227.612C256.209 228.191 257.141 229.951 257.511 231.983C257.637 232.673 258.147 237.872 257.304 238.103C255.848 238.502 253.57 237.823 252.03 237.823C249.993 237.823 244.076 235.493 244.159 232.857C244.204 231.405 244.623 229.916 245.338 228.696Z" fill="#939878"/>
<path d="M50.4514 306.232C51.8087 303.915 53.8077 303.963 55.8689 304.659C57.1436 305.148 58.615 304.895 59.438 305.148C61.3224 305.727 62.2544 307.487 62.6248 309.519C62.7505 310.209 63.2606 315.408 62.4176 315.639C60.9619 316.038 58.6839 315.359 57.1436 315.359C55.1072 315.359 49.1895 313.029 49.2723 310.394C49.318 308.942 49.737 307.452 50.4514 306.232Z" fill="#D88D3A"/>
<path d="M302.797 306.232C304.154 303.915 306.153 303.963 308.214 304.659C309.489 305.148 310.961 304.895 311.784 305.148C313.668 305.727 314.6 307.487 314.97 309.519C315.096 310.209 315.606 315.408 314.763 315.639C313.307 316.038 311.029 315.359 309.489 315.359C307.453 315.359 301.535 313.029 301.618 310.394C301.663 308.942 302.082 307.452 302.797 306.232Z" fill="#42535D"/>
<path d="M55.6897 149.065C57.047 146.748 59.046 146.795 61.1072 147.491C62.3819 147.981 63.8533 147.728 64.6763 147.981C66.5607 148.56 67.4926 150.32 67.863 152.352C67.9888 153.042 68.4988 158.24 67.6559 158.471C66.2002 158.871 63.9222 158.192 62.3819 158.192C60.3454 158.192 54.4278 155.862 54.5106 153.226C54.5562 151.774 54.9753 150.284 55.6897 149.065Z" fill="#42535D"/>
<path d="M50.4514 458.161C51.8087 455.844 53.8077 455.891 55.8689 456.587C57.1436 457.077 58.615 456.824 59.438 457.077C61.3224 457.656 62.2544 459.416 62.6248 461.448C62.7505 462.138 63.2606 467.336 62.4176 467.567C60.9619 467.967 58.6839 467.288 57.1436 467.288C55.1072 467.288 49.1895 464.957 49.2723 462.322C49.318 460.87 49.737 459.38 50.4514 458.161Z" fill="#D88D3A"/>
<path d="M308.035 149.065C309.392 146.748 311.391 146.795 313.452 147.491C314.727 147.981 316.198 147.728 317.021 147.981C318.906 148.56 319.838 150.32 320.208 152.352C320.334 153.042 320.844 158.24 320.001 158.471C318.545 158.871 316.267 158.192 314.727 158.192C312.69 158.192 306.773 155.862 306.856 153.226C306.901 151.774 307.32 150.284 308.035 149.065Z" fill="#939878"/>
<path d="M302.797 458.161C304.154 455.844 306.153 455.891 308.214 456.587C309.489 457.077 310.961 456.824 311.784 457.077C313.668 457.656 314.6 459.416 314.97 461.448C315.096 462.138 315.606 467.336 314.763 467.567C313.307 467.967 311.029 467.288 309.489 467.288C307.453 467.288 301.535 464.957 301.618 462.322C301.663 460.87 302.082 459.38 302.797 458.161Z" fill="#D88D3A"/>
<path d="M212.935 136.726C210.403 135.593 212.217 128.257 213.819 128.257C215.421 128.257 219.756 127.87 220.75 129.359C221.735 130.836 223.086 134.859 221.234 136.218C218.713 138.07 215.737 137.979 212.935 136.726Z" fill="#42535D"/>
<path d="M207.697 445.821C205.165 444.688 206.979 437.353 208.581 437.353C210.183 437.353 214.518 436.965 215.512 438.455C216.497 439.932 217.848 443.954 215.997 445.314C213.475 447.166 210.499 447.075 207.697 445.821Z" fill="#939878"/>
<path d="M465.111 136.726C462.579 135.593 464.393 128.257 465.995 128.257C467.597 128.257 471.931 127.87 472.925 129.359C473.911 130.836 475.261 134.859 473.41 136.218C470.888 138.07 467.912 137.979 465.111 136.726Z" fill="#D88D3A"/>
<path d="M459.873 445.821C457.341 444.688 459.155 437.353 460.757 437.353C462.359 437.353 466.693 436.965 467.687 438.455C468.673 439.932 470.023 443.954 468.172 445.314C465.65 447.166 462.675 447.075 459.873 445.821Z" fill="#939878"/>
<path d="M212.935 290.749C210.403 289.616 212.217 282.281 213.819 282.281C215.421 282.281 219.756 281.893 220.75 283.383C221.735 284.86 223.086 288.882 221.234 290.242C218.713 292.094 215.737 292.003 212.935 290.749Z" fill="#42535D"/>
<path d="M465.111 290.749C462.579 289.616 464.393 282.281 465.995 282.281C467.597 282.281 471.931 281.893 472.925 283.383C473.911 284.86 475.261 288.882 473.41 290.242C470.888 292.094 467.912 292.003 465.111 290.749Z" fill="#42535D"/>
<path d="M23.2869 56.0461C20.7545 54.913 22.569 47.5776 24.171 47.5776C25.773 47.5776 30.1073 47.19 31.1014 48.6796C32.0869 50.1566 33.4374 54.1791 31.5863 55.5386C29.0644 57.3907 26.0884 57.2996 23.2869 56.0461Z" fill="#939878"/>
<path d="M18.0467 365.142C15.5143 364.009 17.3287 356.674 18.9308 356.674C20.5328 356.674 24.8671 356.286 25.8611 357.776C26.8467 359.253 28.1971 363.275 26.346 364.635C23.8241 366.487 20.8482 366.396 18.0467 365.142Z" fill="#D88D3A"/>
<path d="M23.2869 217.405C20.7545 216.272 22.569 208.936 24.171 208.936C25.773 208.936 30.1073 208.549 31.1014 210.038C32.0869 211.515 33.4374 215.538 31.5863 216.897C29.0644 218.749 26.0884 218.658 23.2869 217.405Z" fill="#D88D3A"/>
<path d="M277.899 97.9573C275.366 96.8243 277.181 89.4888 278.783 89.4888C280.385 89.4888 284.719 89.1012 285.713 90.5909C286.699 92.0678 288.049 96.0903 286.198 97.4498C283.676 99.3019 280.7 99.2108 277.899 97.9573Z" fill="#939878"/>
<path d="M272.658 407.054C270.125 405.92 271.94 398.585 273.542 398.585C275.144 398.585 279.478 398.197 280.472 399.687C281.458 401.164 282.808 405.186 280.957 406.546C278.435 408.398 275.459 408.307 272.658 407.054Z" fill="#939878"/>
<path d="M277.899 251.982C275.366 250.848 277.181 243.513 278.783 243.513C280.385 243.513 284.719 243.125 285.713 244.615C286.699 246.092 288.049 250.114 286.198 251.474C283.676 253.326 280.7 253.235 277.899 251.982Z" fill="#42535D"/>
<path d="M88.2498 18.3264C85.7174 17.1933 87.5319 9.8579 89.1339 9.8579C90.7359 9.8579 95.0702 9.47035 96.0643 10.9599C97.0498 12.4369 98.4002 16.4594 96.5491 17.8188C94.0272 19.671 91.0513 19.5799 88.2498 18.3264Z" fill="#42535D"/>
<path d="M83.0096 327.422C80.4773 326.289 82.2917 318.954 83.8937 318.954C85.4958 318.954 89.83 318.566 90.8241 320.056C91.8096 321.533 93.16 325.555 91.3089 326.915C88.787 328.767 85.8111 328.676 83.0096 327.422Z" fill="#D88D3A"/>
<path d="M340.596 18.3264C338.063 17.1933 339.878 9.8579 341.48 9.8579C343.082 9.8579 347.416 9.47035 348.41 10.9599C349.396 12.4369 350.746 16.4594 348.895 17.8188C346.373 19.671 343.397 19.5799 340.596 18.3264Z" fill="#939878"/>
<path d="M335.356 327.422C332.823 326.289 334.638 318.954 336.24 318.954C337.842 318.954 342.176 318.566 343.17 320.056C344.156 321.533 345.506 325.555 343.655 326.915C341.133 328.767 338.157 328.676 335.356 327.422Z" fill="#D88D3A"/>
<path d="M88.2498 172.35C85.7174 171.217 87.5319 163.882 89.1339 163.882C90.7359 163.882 95.0702 163.494 96.0643 164.984C97.0498 166.461 98.4002 170.483 96.5491 171.843C94.0272 173.695 91.0513 173.604 88.2498 172.35Z" fill="#939878"/>
<path d="M83.0096 485.113C80.4773 483.98 82.2917 476.645 83.8937 476.645C85.4958 476.645 89.83 476.257 90.8241 477.747C91.8096 479.224 93.16 483.246 91.3089 484.606C88.787 486.458 85.8111 486.367 83.0096 485.113Z" fill="#42535D"/>
<path d="M340.596 172.35C338.063 171.217 339.878 163.882 341.48 163.882C343.082 163.882 347.416 163.494 348.41 164.984C349.396 166.461 350.746 170.483 348.895 171.843C346.373 173.695 343.397 173.604 340.596 172.35Z" fill="#42535D"/>
<path d="M335.356 481.446C332.823 480.313 334.638 472.978 336.24 472.978C337.842 472.978 342.176 472.59 343.17 474.08C344.156 475.557 345.506 479.579 343.655 480.939C341.133 482.791 338.157 482.7 335.356 481.446Z" fill="#42535D"/>
<path d="M248.923 111.485C245.893 111.248 242.933 112.085 241.527 114.787C239.67 118.359 243.274 120.219 245.947 121.292C248.127 122.167 252.203 121.991 254.527 121.618C256.286 121.336 257.589 122.508 258.829 121.292C259.588 120.547 260.233 116.442 259.583 115.439C258.716 114.104 257.181 113.564 255.885 112.747C255.049 112.219 253.776 112.147 252.823 112.038C251.53 111.891 250.205 111.586 248.923 111.485Z" fill="#939878"/>
<path d="M243.684 420.581C240.654 420.344 237.694 421.181 236.289 423.883C234.431 427.455 238.035 429.315 240.708 430.388C242.888 431.263 246.964 431.087 249.288 430.714C251.047 430.432 252.35 431.604 253.59 430.388C254.349 429.643 254.994 425.538 254.344 424.535C253.478 423.2 251.942 422.66 250.646 421.843C249.81 421.315 248.537 421.243 247.584 421.134C246.291 420.987 244.966 420.682 243.684 420.581Z" fill="#D88D3A"/>
<path d="M248.923 265.509C245.893 265.272 242.933 266.109 241.527 268.811C239.67 272.383 243.274 274.243 245.947 275.316C248.127 276.191 252.203 276.015 254.527 275.642C256.286 275.36 257.589 276.532 258.829 275.316C259.588 274.571 260.233 270.466 259.583 269.463C258.716 268.128 257.181 267.588 255.885 266.771C255.049 266.243 253.776 266.171 252.823 266.062C251.53 265.915 250.205 265.61 248.923 265.509Z" fill="#D88D3A"/>
<path d="M59.2736 31.8539C56.2439 31.6161 53.2836 32.4533 51.8782 35.1559C50.0211 38.727 53.6245 40.5874 56.2981 41.6606C58.4779 42.5355 62.5534 42.3597 64.878 41.9865C66.6368 41.7041 67.94 42.8765 69.1794 41.6606C69.9389 40.9154 70.5838 36.8104 69.9334 35.8077C69.0672 34.4722 67.5316 33.9325 66.2357 33.1152C65.3997 32.5879 64.1271 32.5151 63.1735 32.4066C61.8807 32.2595 60.5556 31.9545 59.2736 31.8539Z" fill="#42535D"/>
<path d="M54.0353 340.95C51.0056 340.712 48.0453 341.549 46.6399 344.252C44.7828 347.823 48.3862 349.684 51.0598 350.757C53.2396 351.632 57.3151 351.456 59.6396 351.083C61.3985 350.8 62.7017 351.973 63.9411 350.757C64.7006 350.012 65.3455 345.907 64.6951 344.904C63.8289 343.568 62.2933 343.029 60.9974 342.211C60.1614 341.684 58.8888 341.611 57.9352 341.503C56.6424 341.356 55.3172 341.051 54.0353 340.95Z" fill="#D88D3A"/>
<path d="M311.62 31.8539C308.59 31.6161 305.63 32.4533 304.224 35.1559C302.367 38.727 305.971 40.5874 308.644 41.6606C310.824 42.5355 314.9 42.3597 317.224 41.9865C318.983 41.7041 320.286 42.8765 321.526 41.6606C322.285 40.9154 322.93 36.8104 322.28 35.8077C321.413 34.4722 319.878 33.9325 318.582 33.1152C317.746 32.5879 316.473 32.5151 315.52 32.4066C314.227 32.2595 312.902 31.9545 311.62 31.8539Z" fill="#42535D"/>
<path d="M306.379 340.95C303.349 340.712 300.389 341.549 298.984 344.252C297.126 347.823 300.73 349.684 303.403 350.757C305.583 351.632 309.659 351.456 311.983 351.083C313.742 350.8 315.045 351.973 316.285 350.757C317.044 350.012 317.689 345.907 317.039 344.904C316.173 343.568 314.637 343.029 313.341 342.211C312.505 341.684 311.232 341.611 310.279 341.503C308.986 341.356 307.661 341.051 306.379 340.95Z" fill="#939878"/>
<path d="M59.2736 185.878C56.2439 185.64 53.2836 186.477 51.8782 189.18C50.0211 192.751 53.6245 194.612 56.2981 195.685C58.4779 196.56 62.5534 196.384 64.878 196.011C66.6368 195.728 67.94 196.901 69.1794 195.685C69.9389 194.94 70.5838 190.835 69.9334 189.832C69.0672 188.496 67.5316 187.957 66.2357 187.139C65.3997 186.612 64.1271 186.539 63.1735 186.431C61.8807 186.284 60.5556 185.979 59.2736 185.878Z" fill="#42535D"/>
<path d="M311.62 185.878C308.59 185.64 305.63 186.477 304.224 189.18C302.367 192.751 305.971 194.612 308.644 195.685C310.824 196.56 314.9 196.384 317.224 196.011C318.983 195.728 320.286 196.901 321.526 195.685C322.285 194.94 322.93 190.835 322.28 189.832C321.413 188.496 319.878 187.957 318.582 187.139C317.746 186.612 316.473 186.539 315.52 186.431C314.227 186.284 312.902 185.979 311.62 185.878Z" fill="#D88D3A"/>
<path d="M118.997 305.326C115.967 305.088 113.007 305.925 111.601 308.627C109.744 312.199 113.348 314.059 116.021 315.132C118.201 316.007 122.277 315.831 124.601 315.458C126.36 315.176 127.663 316.348 128.903 315.132C129.662 314.387 130.307 310.282 129.657 309.279C128.79 307.944 127.255 307.404 125.959 306.587C125.123 306.059 123.85 305.987 122.897 305.878C121.604 305.731 120.279 305.426 118.997 305.326Z" fill="#939878"/>
<path d="M371.342 305.326C368.313 305.088 365.352 305.925 363.947 308.627C362.09 312.199 365.693 314.059 368.367 315.132C370.547 316.007 374.622 315.831 376.947 315.458C378.706 315.176 380.009 316.348 381.248 315.132C382.008 314.387 382.653 310.282 382.002 309.279C381.136 307.944 379.601 307.404 378.305 306.587C377.469 306.059 376.196 305.987 375.242 305.878C373.95 305.731 372.624 305.426 371.342 305.326Z" fill="#D88D3A"/>
<path d="M124.235 147.11C121.205 146.872 118.245 147.71 116.839 150.412C114.982 153.983 118.586 155.844 121.259 156.917C123.439 157.792 127.515 157.616 129.839 157.243C131.598 156.96 132.901 158.133 134.141 156.917C134.9 156.172 135.545 152.067 134.895 151.064C134.028 149.728 132.493 149.189 131.197 148.371C130.361 147.844 129.088 147.771 128.135 147.663C126.842 147.516 125.517 147.211 124.235 147.11Z" fill="#D88D3A"/>
<path d="M118.997 456.206C115.967 455.968 113.007 456.805 111.601 459.508C109.744 463.079 113.348 464.94 116.021 466.013C118.201 466.888 122.277 466.712 124.601 466.339C126.36 466.056 127.663 467.229 128.903 466.013C129.662 465.268 130.307 461.163 129.657 460.16C128.79 458.824 127.255 458.285 125.959 457.467C125.123 456.94 123.85 456.867 122.897 456.759C121.604 456.612 120.279 456.307 118.997 456.206Z" fill="#D88D3A"/>
<path d="M376.582 147.11C373.553 146.872 370.592 147.71 369.187 150.412C367.33 153.983 370.933 155.844 373.607 156.917C375.787 157.792 379.862 157.616 382.187 157.243C383.945 156.96 385.249 158.133 386.488 156.917C387.248 156.172 387.892 152.067 387.242 151.064C386.376 149.728 384.84 149.189 383.544 148.371C382.708 147.844 381.436 147.771 380.482 147.663C379.189 147.516 377.864 147.211 376.582 147.11Z" fill="#939878"/>
<path d="M369.798 457.254C366.768 457.016 363.808 457.853 362.402 460.556C360.545 464.127 364.149 465.987 366.822 467.06C369.002 467.935 373.077 467.76 375.402 467.386C377.161 467.104 378.464 468.276 379.704 467.06C380.463 466.315 381.108 462.21 380.458 461.208C379.591 459.872 378.056 459.332 376.76 458.515C375.924 457.988 374.651 457.915 373.698 457.807C372.405 457.659 371.08 457.354 369.798 457.254Z" fill="#D88D3A"/>
<path d="M283.05 127.219C285.949 125.922 288.893 125.334 292.479 127.945C294.272 130.736 293.117 132.469 291.881 133.819C290.035 135.835 289.27 136.93 286.569 136.502C284.247 136.134 278.734 133.879 278.734 130.736C278.734 129.186 282.043 127.67 283.05 127.219Z" fill="#42535D"/>
<path d="M277.811 436.315C280.71 435.018 283.654 434.43 287.24 437.041C289.033 439.833 287.878 441.565 286.642 442.915C284.796 444.931 284.031 446.026 281.331 445.598C279.008 445.23 273.496 442.975 273.496 439.833C273.496 438.282 276.804 436.766 277.811 436.315Z" fill="#42535D"/>
<path d="M283.05 281.243C285.949 279.946 288.893 279.358 292.479 281.968C294.272 284.76 293.117 286.493 291.881 287.842C290.035 289.859 289.27 290.954 286.569 290.526C284.247 290.158 278.734 287.902 278.734 284.76C278.734 283.21 282.043 281.694 283.05 281.243Z" fill="#939878"/>
<path d="M93.4038 47.5877C96.302 46.2904 99.2468 45.7022 102.832 48.3129C104.625 51.1048 103.47 52.8378 102.235 54.1869C100.388 56.2035 99.6233 57.2982 96.9229 56.8701C94.6005 56.5019 89.0879 54.2469 89.0879 51.1049C89.0879 49.5542 92.3968 48.0384 93.4038 47.5877Z" fill="#939878"/>
<path d="M88.1636 356.684C91.0618 355.387 94.0066 354.798 97.5921 357.409C99.3849 360.201 98.2298 361.934 96.9946 363.283C95.1481 365.3 94.3831 366.395 91.6827 365.966C89.3603 365.598 83.8477 363.343 83.8477 360.201C83.8477 358.65 87.1566 357.135 88.1636 356.684Z" fill="#D88D3A"/>
<path d="M345.75 47.5877C348.648 46.2904 351.592 45.7022 355.178 48.3129C356.971 51.1048 355.816 52.8378 354.58 54.1869C352.734 56.2035 351.969 57.2982 349.269 56.8701C346.946 56.5019 341.434 54.2469 341.434 51.1049C341.434 49.5542 344.742 48.0384 345.75 47.5877Z" fill="#D88D3A"/>
<path d="M340.508 356.684C343.407 355.387 346.351 354.798 349.937 357.409C351.73 360.201 350.575 361.934 349.339 363.283C347.493 365.3 346.728 366.395 344.028 365.966C341.705 365.598 336.193 363.343 336.193 360.201C336.193 358.65 339.501 357.135 340.508 356.684Z" fill="#42535D"/>
<path d="M93.4038 201.612C96.302 200.315 99.2468 199.726 102.832 202.337C104.625 205.129 103.47 206.862 102.235 208.211C100.388 210.228 99.6233 211.322 96.9229 210.894C94.6005 210.526 89.0879 208.271 89.0879 205.129C89.0879 203.578 92.3968 202.063 93.4038 201.612Z" fill="#D88D3A"/>
<path d="M345.75 201.612C348.648 200.315 351.592 199.726 355.178 202.337C356.971 205.129 355.816 206.862 354.58 208.211C352.734 210.228 351.969 211.322 349.269 210.894C346.946 210.526 341.434 208.271 341.434 205.129C341.434 203.578 344.742 202.063 345.75 201.612Z" fill="#939878"/>
<path d="M30.5366 87.4041C33.4348 86.1069 36.3796 85.5187 39.9651 88.1293C41.7579 90.9213 40.6028 92.6542 39.3675 94.0034C37.5211 96.02 36.756 97.1147 34.0557 96.6866C31.7332 96.3184 26.2207 94.0633 26.2207 90.9213C26.2207 89.3707 29.5296 87.8549 30.5366 87.4041Z" fill="#42535D"/>
<path d="M25.2964 396.5C28.1946 395.202 31.1394 394.614 34.7249 397.225C36.5176 400.017 35.3626 401.75 34.1273 403.099C32.2809 405.116 31.5158 406.21 28.8155 405.782C26.493 405.414 20.9805 403.159 20.9805 400.017C20.9805 398.466 24.2894 396.95 25.2964 396.5Z" fill="#939878"/>
<path d="M30.5366 248.762C33.4348 247.465 36.3796 246.877 39.9651 249.487C41.7579 252.279 40.6028 254.012 39.3675 255.361C37.5211 257.378 36.756 258.473 34.0557 258.044C31.7332 257.676 26.2207 255.421 26.2207 252.279C26.2207 250.729 29.5296 249.213 30.5366 248.762Z" fill="#D88D3A"/>
<path d="M158.366 8.82015C161.265 7.52285 164.209 6.93465 167.795 9.54535C169.588 12.3373 168.433 14.0702 167.197 15.4194C165.351 17.436 164.586 18.5307 161.886 18.1026C159.563 17.7344 154.051 15.4793 154.051 12.3373C154.051 10.7867 157.359 9.27091 158.366 8.82015Z" fill="#42535D"/>
<path d="M153.126 317.916C156.025 316.619 158.969 316.031 162.555 318.641C164.348 321.433 163.193 323.166 161.957 324.515C160.111 326.532 159.346 327.627 156.646 327.198C154.323 326.83 148.811 324.575 148.811 321.433C148.811 319.883 152.119 318.367 153.126 317.916Z" fill="#42535D"/>
<path d="M410.711 8.82015C413.609 7.52285 416.554 6.93465 420.139 9.54535C421.932 12.3373 420.777 14.0702 419.542 15.4194C417.695 17.436 416.93 18.5307 414.23 18.1026C411.908 17.7344 406.395 15.4793 406.395 12.3373C406.395 10.7867 409.704 9.27091 410.711 8.82015Z" fill="#42535D"/>
<path d="M405.472 317.916C408.37 316.619 411.315 316.031 414.901 318.641C416.693 321.433 415.538 323.166 414.303 324.515C412.457 326.532 411.691 327.627 408.991 327.198C406.669 326.83 401.156 324.575 401.156 321.433C401.156 319.883 404.465 318.367 405.472 317.916Z" fill="#42535D"/>
<path d="M158.366 162.844C161.265 161.547 164.209 160.958 167.795 163.569C169.588 166.361 168.433 168.094 167.197 169.443C165.351 171.46 164.586 172.555 161.886 172.126C159.563 171.758 154.051 169.503 154.051 166.361C154.051 164.81 157.359 163.295 158.366 162.844Z" fill="#42535D"/>
<path d="M151.554 477.179C154.452 475.882 157.397 475.293 160.982 477.904C162.775 480.696 161.62 482.429 160.385 483.778C158.538 485.795 157.773 486.889 155.073 486.461C152.75 486.093 147.238 483.838 147.238 480.696C147.238 479.145 150.547 477.63 151.554 477.179Z" fill="#939878"/>
<path d="M410.711 162.844C413.609 161.547 416.554 160.958 420.139 163.569C421.932 166.361 420.777 168.094 419.542 169.443C417.695 171.46 416.93 172.555 414.23 172.126C411.908 171.758 406.395 169.503 406.395 166.361C406.395 164.81 409.704 163.295 410.711 162.844Z" fill="#D88D3A"/>
<path d="M405.472 471.94C408.37 470.643 411.315 470.054 414.901 472.665C416.693 475.457 415.538 477.19 414.303 478.539C412.457 480.556 411.691 481.65 408.991 481.222C406.669 480.854 401.156 478.599 401.156 475.457C401.156 473.906 404.465 472.391 405.472 471.94Z" fill="#42535D"/>
<path d="M123.923 43.3223C121.518 41.4344 122.943 35.5591 124.131 33.6468C125.031 30.8214 129.173 31.8908 131.002 32.7461C131.957 33.1928 133.969 33.9073 134.111 35.2449C134.303 37.0528 133.53 38.7693 132.931 40.4168C132.106 42.6863 131.39 44.0181 128.878 44.3102C127.23 44.5019 125.3 44.4039 123.923 43.3223Z" fill="#D88D3A"/>
<path d="M118.685 352.418C116.28 350.531 117.706 344.655 118.893 342.743C119.793 339.918 123.935 340.987 125.764 341.842C126.719 342.289 128.731 343.003 128.873 344.341C129.065 346.149 128.292 347.865 127.693 349.513C126.868 351.782 126.152 353.114 123.64 353.406C121.992 353.598 120.063 353.5 118.685 352.418Z" fill="#42535D"/>
<path d="M376.269 43.3223C373.864 41.4344 375.29 35.5591 376.477 33.6468C377.377 30.8214 381.519 31.8908 383.348 32.7461C384.303 33.1928 386.315 33.9073 386.457 35.2449C386.649 37.0528 385.876 38.7693 385.277 40.4168C384.452 42.6863 383.737 44.0181 381.224 44.3102C379.576 44.5019 377.647 44.4039 376.269 43.3223Z" fill="#D88D3A"/>
<path d="M371.03 352.418C368.625 350.531 370.051 344.655 371.239 342.743C372.138 339.918 376.28 340.987 378.109 341.842C379.064 342.289 381.076 343.003 381.218 344.341C381.41 346.149 380.638 347.865 380.039 349.513C379.213 351.782 378.498 353.114 375.986 353.406C374.338 353.598 372.408 353.5 371.03 352.418Z" fill="#D88D3A"/>
<path d="M123.923 197.346C121.518 195.459 122.943 189.583 124.131 187.671C125.031 184.846 129.173 185.915 131.002 186.77C131.957 187.217 133.969 187.931 134.111 189.269C134.303 191.077 133.53 192.793 132.931 194.441C132.106 196.71 131.39 198.042 128.878 198.334C127.23 198.526 125.3 198.428 123.923 197.346Z" fill="#939878"/>
<path d="M376.269 197.346C373.864 195.459 375.29 189.583 376.477 187.671C377.377 184.846 381.519 185.915 383.348 186.77C384.303 187.217 386.315 187.931 386.457 189.269C386.649 191.077 385.876 192.793 385.277 194.441C384.452 196.71 383.737 198.042 381.224 198.334C379.576 198.526 377.647 198.428 376.269 197.346Z" fill="#939878"/>
<path d="M61.0577 84.1856C58.6527 82.2977 60.0783 76.4223 61.2659 74.5101C62.1657 71.6846 66.3076 72.754 68.1365 73.6093C69.0917 74.056 71.1037 74.7705 71.2457 76.1081C71.4376 77.9161 70.6648 79.6325 70.0659 81.28C69.2407 83.5495 68.5252 84.8813 66.0129 85.1735C64.3648 85.3651 62.4355 85.2672 61.0577 84.1856Z" fill="#939878"/>
<path d="M55.8175 393.282C53.4125 391.394 54.8381 385.519 56.0257 383.607C56.9255 380.781 61.0674 381.85 62.8963 382.706C63.8515 383.152 65.8635 383.867 66.0055 385.205C66.1974 387.013 65.4246 388.729 64.8257 390.376C64.0005 392.646 63.285 393.978 60.7727 394.27C59.1246 394.462 57.1953 394.364 55.8175 393.282Z" fill="#42535D"/>
<path d="M313.401 84.1856C310.996 82.2977 312.422 76.4223 313.61 74.5101C314.509 71.6846 318.651 72.754 320.48 73.6093C321.435 74.056 323.447 74.7705 323.589 76.1081C323.781 77.9161 323.009 79.6325 322.41 81.28C321.585 83.5495 320.869 84.8813 318.357 85.1735C316.709 85.3651 314.779 85.2672 313.401 84.1856Z" fill="#D88D3A"/>
<path d="M308.163 393.282C305.758 391.394 307.184 385.519 308.372 383.607C309.271 380.781 313.413 381.85 315.242 382.706C316.197 383.152 318.209 383.867 318.351 385.205C318.543 387.013 317.771 388.729 317.172 390.376C316.346 392.646 315.631 393.978 313.119 394.27C311.471 394.462 309.541 394.364 308.163 393.282Z" fill="#42535D"/>
<path d="M61.0577 238.21C58.6527 236.322 60.0783 230.447 61.2659 228.534C62.1657 225.709 66.3076 226.778 68.1365 227.634C69.0917 228.08 71.1037 228.795 71.2457 230.132C71.4376 231.94 70.6648 233.657 70.0659 235.304C69.2407 237.574 68.5252 238.906 66.0129 239.198C64.3648 239.389 62.4355 239.292 61.0577 238.21Z" fill="#42535D"/>
<path d="M304.114 231.923C301.709 230.035 303.135 224.16 304.323 222.248C305.222 219.422 309.364 220.492 311.193 221.347C312.148 221.794 314.16 222.508 314.302 223.846C314.494 225.654 313.722 227.37 313.123 229.018C312.297 231.287 311.582 232.619 309.07 232.911C307.421 233.103 305.492 233.005 304.114 231.923Z" fill="#939878"/>
<path d="M183.647 315.746C181.242 313.858 182.668 307.983 183.856 306.071C184.755 303.245 188.897 304.315 190.726 305.17C191.681 305.617 193.693 306.331 193.835 307.669C194.027 309.477 193.254 311.193 192.656 312.841C191.83 315.11 191.115 316.442 188.603 316.734C186.954 316.926 185.025 316.828 183.647 315.746Z" fill="#939878"/>
<path d="M435.823 315.746C433.418 313.858 434.844 307.983 436.031 306.071C436.931 303.245 441.073 304.315 442.902 305.17C443.857 305.617 445.869 306.331 446.011 307.669C446.203 309.477 445.43 311.193 444.831 312.841C444.006 315.11 443.291 316.442 440.778 316.734C439.13 316.926 437.201 316.828 435.823 315.746Z" fill="#939878"/>
<path d="M188.886 158.579C186.481 156.691 187.907 150.815 189.094 148.903C189.994 146.078 194.136 147.147 195.965 148.002C196.92 148.449 198.932 149.163 199.074 150.501C199.266 152.309 198.493 154.025 197.894 155.673C197.069 157.943 196.354 159.274 193.841 159.566C192.193 159.758 190.264 159.66 188.886 158.579Z" fill="#939878"/>
<path d="M183.647 467.674C181.242 465.787 182.668 459.911 183.856 457.999C184.755 455.174 188.897 456.243 190.726 457.098C191.681 457.545 193.693 458.259 193.835 459.597C194.027 461.405 193.254 463.121 192.656 464.769C191.83 467.038 191.115 468.37 188.603 468.662C186.954 468.854 185.025 468.756 183.647 467.674Z" fill="#42535D"/>
<path d="M441.062 158.579C438.657 156.691 440.083 150.815 441.27 148.903C442.17 146.078 446.312 147.147 448.141 148.002C449.096 148.449 451.108 149.163 451.25 150.501C451.442 152.309 450.669 154.025 450.07 155.673C449.245 157.943 448.53 159.274 446.017 159.566C444.369 159.758 442.44 159.66 441.062 158.579Z" fill="#42535D"/>
<path d="M435.823 467.674C433.418 465.787 434.844 459.911 436.031 457.999C436.931 455.174 441.073 456.243 442.902 457.098C443.857 457.545 445.869 458.259 446.011 459.597C446.203 461.405 445.43 463.121 444.831 464.769C444.006 467.038 443.291 468.37 440.778 468.662C439.13 468.854 437.201 468.756 435.823 467.674Z" fill="#42535D"/>
<path d="M26.8871 137.263C23.465 135.157 26.0854 129.132 26.8871 126.501C26.8871 126.501 32.5837 125.634 33.64 126.501C34.3515 127.085 34.2264 129.32 34.3601 130.11C34.7244 132.262 34.5816 134.52 34.5352 136.688C34.4639 140.024 28.8066 138.444 26.8871 137.263Z" fill="#D88D3A"/>
<path d="M21.6488 446.359C18.2267 444.253 20.8471 438.228 21.6488 435.597C21.6488 435.597 27.3454 434.73 28.4017 435.597C29.1132 436.181 28.9881 438.416 29.1218 439.206C29.4861 441.358 29.3433 443.616 29.2969 445.784C29.2256 449.12 23.5683 447.54 21.6488 446.359Z" fill="#939878"/>
<path d="M26.8871 297.692C23.465 295.762 26.0854 290.239 26.8871 287.827C26.8871 287.827 32.5837 287.033 33.64 287.827C34.3515 288.363 34.2264 290.412 34.3601 291.136C34.7244 293.109 34.5816 295.179 34.5352 297.166C34.4639 300.224 28.8066 298.775 26.8871 297.692Z" fill="#42535D"/>
<path d="M154.717 57.7501C151.295 55.8198 153.915 50.2973 154.717 47.8853C154.717 47.8853 160.414 47.0908 161.47 47.8853C162.181 48.4203 162.056 50.4691 162.19 51.1931C162.554 53.1658 162.411 55.2356 162.365 57.2232C162.294 60.2809 156.636 58.8328 154.717 57.7501Z" fill="#42535D"/>
<path d="M149.479 366.846C146.057 364.916 148.677 359.393 149.479 356.981C149.479 356.981 155.176 356.187 156.232 356.981C156.943 357.517 156.818 359.565 156.952 360.289C157.316 362.262 157.174 364.332 157.127 366.319C157.056 369.377 151.399 367.929 149.479 366.846Z" fill="#42535D"/>
<path d="M407.063 57.7501C403.641 55.8198 406.262 50.2973 407.063 47.8853C407.063 47.8853 412.76 47.0908 413.816 47.8853C414.528 48.4203 414.403 50.4691 414.536 51.1931C414.901 53.1658 414.758 55.2356 414.712 57.2232C414.64 60.2809 408.983 58.8328 407.063 57.7501Z" fill="#939878"/>
<path d="M401.825 366.846C398.403 364.916 401.023 359.393 401.825 356.981C401.825 356.981 407.521 356.187 408.578 356.981C409.289 357.517 409.164 359.565 409.298 360.289C409.662 362.262 409.519 364.332 409.473 366.319C409.401 369.377 403.744 367.929 401.825 366.846Z" fill="#42535D"/>
<path d="M154.717 211.774C151.295 209.844 153.915 204.321 154.717 201.909C154.717 201.909 160.414 201.115 161.47 201.909C162.181 202.445 162.056 204.493 162.19 205.217C162.554 207.19 162.411 209.26 162.365 211.247C162.294 214.305 156.636 212.857 154.717 211.774Z" fill="#42535D"/>
<path d="M407.063 211.774C403.641 209.844 406.262 204.321 407.063 201.909C407.063 201.909 412.76 201.115 413.816 201.909C414.528 202.445 414.403 204.493 414.536 205.217C414.901 207.19 414.758 209.26 414.712 211.247C414.64 214.305 408.983 212.857 407.063 211.774Z" fill="#D88D3A"/>
<path d="M91.85 98.6135C88.4279 96.6831 91.0483 91.1606 91.85 88.7486C91.85 88.7486 97.5466 87.9541 98.6029 88.7486C99.3144 89.2836 99.1893 91.3324 99.323 92.0564C99.6873 94.0291 99.5445 96.0989 99.4981 98.0865C99.4268 101.145 93.7695 99.6961 91.85 98.6135Z" fill="#42535D"/>
<path d="M86.6118 407.71C83.1896 405.78 85.81 400.257 86.6118 397.845C86.6118 397.845 92.3083 397.05 93.3647 397.845C94.0761 398.38 93.951 400.429 94.0847 401.153C94.449 403.125 94.3062 405.195 94.2599 407.183C94.1885 410.241 88.5312 408.793 86.6118 407.71Z" fill="#42535D"/>
<path d="M344.196 98.6135C340.773 96.6831 343.394 91.1606 344.196 88.7486C344.196 88.7486 349.892 87.9541 350.949 88.7486C351.66 89.2836 351.535 91.3324 351.669 92.0564C352.033 94.0291 351.89 96.0989 351.844 98.0865C351.772 101.145 346.115 99.6961 344.196 98.6135Z" fill="#D88D3A"/>
<path d="M338.957 407.71C335.535 405.78 338.155 400.257 338.957 397.845C338.957 397.845 344.653 397.05 345.71 397.845C346.421 398.38 346.296 400.429 346.43 401.153C346.794 403.125 346.651 405.195 346.605 407.183C346.534 410.241 340.876 408.793 338.957 407.71Z" fill="#939878"/>
<path d="M91.85 252.638C88.4279 250.707 91.0483 245.185 91.85 242.773C91.85 242.773 97.5466 241.978 98.6029 242.773C99.3144 243.308 99.1893 245.357 99.323 246.081C99.6873 248.053 99.5445 250.123 99.4981 252.111C99.4268 255.169 93.7695 253.72 91.85 252.638Z" fill="#D88D3A"/>
<path d="M344.196 243.732C340.773 241.801 343.394 236.279 344.196 233.867C344.196 233.867 349.892 233.072 350.949 233.867C351.66 234.402 351.535 236.451 351.669 237.175C352.033 239.147 351.89 241.217 351.844 243.205C351.772 246.262 346.115 244.814 344.196 243.732Z" fill="#D88D3A"/>
<path d="M219.68 18.9826C216.258 17.0523 218.879 11.5297 219.68 9.11777C219.68 9.11777 225.377 8.32326 226.433 9.11775C227.145 9.65282 227.02 11.7015 227.153 12.4255C227.518 14.3982 227.375 16.468 227.328 18.4557C227.257 21.5133 221.6 20.0653 219.68 18.9826Z" fill="#42535D"/>
<path d="M214.44 328.078C211.017 326.148 213.638 320.626 214.44 318.214C214.44 318.214 220.136 317.419 221.193 318.214C221.904 318.749 221.779 320.797 221.913 321.521C222.277 323.494 222.134 325.564 222.088 327.552C222.016 330.609 216.359 329.161 214.44 328.078Z" fill="#939878"/>
<path d="M471.856 18.9826C468.434 17.0523 471.054 11.5297 471.856 9.11777C471.856 9.11777 477.553 8.32326 478.609 9.11775C479.321 9.65282 479.195 11.7015 479.329 12.4255C479.693 14.3982 479.551 16.468 479.504 18.4557C479.433 21.5133 473.776 20.0653 471.856 18.9826Z" fill="#D88D3A"/>
<path d="M466.615 328.078C463.193 326.148 465.814 320.626 466.615 318.214C466.615 318.214 472.312 317.419 473.368 318.214C474.08 318.749 473.955 320.797 474.088 321.521C474.453 323.494 474.31 325.564 474.263 327.552C474.192 330.609 468.535 329.161 466.615 328.078Z" fill="#D88D3A"/>
<path d="M219.68 173.006C216.258 171.076 218.879 165.553 219.68 163.141C219.68 163.141 225.377 162.347 226.433 163.141C227.145 163.677 227.02 165.725 227.153 166.449C227.518 168.422 227.375 170.492 227.328 172.479C227.257 175.537 221.6 174.089 219.68 173.006Z" fill="#939878"/>
<path d="M217.584 483.15C214.162 481.22 216.782 475.697 217.584 473.285C217.584 473.285 223.28 472.491 224.337 473.285C225.048 473.82 224.923 475.869 225.057 476.593C225.421 478.566 225.278 480.636 225.232 482.623C225.161 485.681 219.503 484.233 217.584 483.15Z" fill="#D88D3A"/>
<path d="M471.856 173.006C468.434 171.076 471.054 165.553 471.856 163.141C471.856 163.141 477.553 162.347 478.609 163.141C479.321 163.677 479.195 165.725 479.329 166.449C479.693 168.422 479.551 170.492 479.504 172.479C479.433 175.537 473.776 174.089 471.856 173.006Z" fill="#939878"/>
<path d="M461.377 482.102C457.955 480.172 460.576 474.649 461.377 472.237C461.377 472.237 467.074 471.443 468.13 472.237C468.842 472.772 468.717 474.821 468.85 475.545C469.215 477.518 469.072 479.588 469.025 481.575C468.954 484.633 463.297 483.185 461.377 482.102Z" fill="#939878"/>
<path d="M61.9321 115.472C64.5522 114.999 65.6153 116.476 66.1885 118.406C66.4951 119.636 67.5102 120.542 67.7593 121.297C68.3296 123.025 67.4208 124.805 65.9826 126.35C65.4944 126.874 61.5743 130.508 60.923 130.043C59.7983 129.24 59.092 127.164 58.2434 126.049C57.1215 124.575 55.7442 118.827 57.9197 117.232C59.1182 116.353 60.553 115.72 61.9321 115.472Z" fill="#D88D3A"/>
<path d="M56.6939 424.568C59.314 424.095 60.3771 425.572 60.9503 427.502C61.2569 428.732 62.272 429.638 62.5211 430.393C63.0914 432.121 62.1826 433.901 60.7443 435.446C60.2561 435.97 56.3361 439.604 55.6848 439.139C54.5601 438.336 53.8538 436.26 53.0052 435.145C51.8832 433.671 50.506 427.923 52.6814 426.328C53.88 425.449 55.3148 424.816 56.6939 424.568Z" fill="#939878"/>
<path d="M314.277 115.472C316.898 114.999 317.961 116.476 318.534 118.406C318.841 119.636 319.856 120.542 320.105 121.297C320.675 123.025 319.766 124.805 318.328 126.35C317.84 126.874 313.92 130.508 313.268 130.043C312.144 129.24 311.437 127.164 310.589 126.049C309.467 124.575 308.09 118.827 310.265 117.232C311.464 116.353 312.898 115.72 314.277 115.472Z" fill="#939878"/>
<path d="M309.42 417.074C312.041 416.602 313.104 418.079 313.677 420.008C313.983 421.238 314.999 422.145 315.248 422.899C315.818 424.627 314.909 426.408 313.471 427.952C312.983 428.476 309.063 432.111 308.411 431.646C307.287 430.843 306.58 428.767 305.732 427.652C304.61 426.177 303.233 420.43 305.408 418.834C306.607 417.955 308.041 417.323 309.42 417.074Z" fill="#D88D3A"/>
<path d="M61.9321 269.496C64.5522 269.023 65.6153 270.5 66.1885 272.429C66.4951 273.66 67.5102 274.566 67.7593 275.321C68.3296 277.049 67.4208 278.829 65.9826 280.374C65.4944 280.898 61.5743 284.532 60.923 284.067C59.7983 283.264 59.092 281.188 58.2434 280.073C57.1215 278.599 55.7442 272.851 57.9197 271.256C59.1182 270.377 60.553 269.744 61.9321 269.496Z" fill="#42535D"/>
<path d="M316.245 255.004C318.865 254.531 319.928 256.008 320.501 257.937C320.808 259.168 321.823 260.074 322.072 260.829C322.642 262.557 321.734 264.337 320.295 265.882C319.807 266.406 315.887 270.04 315.236 269.575C314.111 268.772 313.405 266.696 312.556 265.581C311.434 264.107 310.057 258.359 312.233 256.764C313.431 255.885 314.866 255.252 316.245 255.004Z" fill="#939878"/>
<path d="M189.762 35.8407C192.382 35.3682 193.446 36.8451 194.019 38.7745C194.325 40.0048 195.34 40.9113 195.59 41.666C196.16 43.3939 195.251 45.174 193.813 46.7185C193.325 47.2428 189.405 50.8772 188.753 50.4122C187.629 49.6091 186.922 47.5333 186.074 46.4182C184.952 44.9438 183.574 39.1961 185.75 37.6007C186.948 36.7218 188.383 36.0894 189.762 35.8407Z" fill="#939878"/>
<path d="M184.522 344.936C187.142 344.464 188.206 345.941 188.779 347.87C189.085 349.1 190.1 350.007 190.35 350.762C190.92 352.49 190.011 354.27 188.573 355.814C188.085 356.338 184.165 359.973 183.513 359.508C182.389 358.705 181.682 356.629 180.834 355.514C179.712 354.039 178.334 348.292 180.51 346.696C181.708 345.817 183.143 345.185 184.522 344.936Z" fill="#939878"/>
<path d="M441.936 35.8407C444.556 35.3682 445.619 36.8451 446.192 38.7745C446.499 40.0048 447.514 40.9113 447.763 41.666C448.333 43.3939 447.425 45.174 445.986 46.7185C445.498 47.2428 441.578 50.8772 440.927 50.4122C439.802 49.6091 439.096 47.5333 438.247 46.4182C437.125 44.9438 435.748 39.1961 437.924 37.6007C439.122 36.7218 440.557 36.0894 441.936 35.8407Z" fill="#42535D"/>
<path d="M436.698 344.936C439.318 344.464 440.381 345.941 440.955 347.87C441.261 349.1 442.276 350.007 442.525 350.762C443.096 352.49 442.187 354.27 440.749 355.814C440.26 356.338 436.34 359.973 435.689 359.508C434.564 358.705 433.858 356.629 433.009 355.514C431.887 354.039 430.51 348.292 432.686 346.696C433.884 345.817 435.319 345.185 436.698 344.936Z" fill="#939878"/>
<path d="M189.762 189.864C192.382 189.392 193.446 190.869 194.019 192.798C194.325 194.028 195.34 194.935 195.59 195.69C196.16 197.417 195.251 199.198 193.813 200.742C193.325 201.266 189.405 204.901 188.753 204.436C187.629 203.633 186.922 201.557 186.074 200.442C184.952 198.967 183.574 193.22 185.75 191.624C186.948 190.745 188.383 190.113 189.762 189.864Z" fill="#D88D3A"/>
<path d="M441.936 189.864C444.556 189.392 445.619 190.869 446.192 192.798C446.499 194.028 447.514 194.935 447.763 195.69C448.333 197.417 447.425 199.198 445.986 200.742C445.498 201.266 441.578 204.901 440.927 204.436C439.802 203.633 439.096 201.557 438.247 200.442C437.125 198.967 435.748 193.22 437.924 191.624C439.122 190.745 440.557 190.113 441.936 189.864Z" fill="#D88D3A"/>
<path d="M124.682 70.5936C127.302 70.1211 128.365 71.598 128.938 73.5273C129.245 74.7577 130.26 75.6642 130.509 76.4188C131.079 78.1467 130.171 79.9268 128.732 81.4714C128.244 81.9957 124.324 85.63 123.673 85.165C122.548 84.3619 121.842 82.2862 120.993 81.171C119.871 79.6967 118.494 73.9489 120.669 72.3536C121.868 71.4747 123.303 70.8423 124.682 70.5936Z" fill="#42535D"/>
<path d="M119.444 379.69C122.064 379.218 123.127 380.694 123.7 382.624C124.007 383.854 125.022 384.761 125.271 385.515C125.841 387.243 124.933 389.023 123.494 390.568C123.006 391.092 119.086 394.727 118.435 394.261C117.31 393.458 116.604 391.383 115.755 390.267C114.633 388.793 113.256 383.045 115.432 381.45C116.63 380.571 118.065 379.939 119.444 379.69Z" fill="#939878"/>
<path d="M377.027 70.5936C379.648 70.1211 380.711 71.598 381.284 73.5273C381.59 74.7577 382.606 75.6642 382.855 76.4188C383.425 78.1467 382.516 79.9268 381.078 81.4714C380.59 81.9957 376.67 85.63 376.018 85.165C374.894 84.3619 374.187 82.2862 373.339 81.171C372.217 79.6967 370.84 73.9489 373.015 72.3536C374.214 71.4747 375.648 70.8423 377.027 70.5936Z" fill="#D88D3A"/>
<path d="M371.789 379.69C374.41 379.218 375.473 380.694 376.046 382.624C376.352 383.854 377.368 384.761 377.617 385.515C378.187 387.243 377.278 389.023 375.84 390.568C375.352 391.092 371.432 394.727 370.78 394.261C369.656 393.458 368.949 391.383 368.101 390.267C366.979 388.793 365.602 383.045 367.777 381.45C368.976 380.571 370.41 379.939 371.789 379.69Z" fill="#42535D"/>
<path d="M126.894 230.728C129.515 230.255 130.578 231.732 131.151 233.662C131.457 234.892 132.473 235.798 132.722 236.553C133.292 238.281 132.383 240.061 130.945 241.606C130.457 242.13 126.537 245.764 125.885 245.299C124.761 244.496 124.054 242.42 123.206 241.305C122.084 239.831 120.707 234.083 122.882 232.488C124.08 231.609 125.515 230.977 126.894 230.728Z" fill="#939878"/>
<path d="M381.22 221.57C383.84 221.098 384.903 222.575 385.476 224.504C385.783 225.734 386.798 226.641 387.047 227.395C387.617 229.123 386.708 230.903 385.27 232.448C384.782 232.972 380.862 236.607 380.21 236.142C379.086 235.339 378.379 233.263 377.531 232.148C376.409 230.673 375.032 224.926 377.207 223.33C378.406 222.451 379.84 221.819 381.22 221.57Z" fill="#939878"/>
<path d="M5.96854 0C6.36428 2.80956 6.05249 5.74394 4.29538 7.97325C3.18443 9.38276 1.64488 9.87887 0 9.80524V0H5.96854Z" fill="#D88D3A"/>
<path d="M249.485 303.202C252.105 302.729 253.168 304.206 253.741 306.136C254.048 307.366 255.063 308.273 255.312 309.027C255.882 310.755 254.974 312.535 253.535 314.08C253.047 314.604 249.127 318.238 248.476 317.773C247.351 316.97 246.645 314.895 245.796 313.779C244.674 312.305 243.297 306.557 245.472 304.962C246.671 304.083 248.106 303.451 249.485 303.202Z" fill="#939878"/>
<path d="M254.723 151.096C257.343 150.624 258.406 152.101 258.979 154.03C259.286 155.261 260.301 156.167 260.55 156.922C261.12 158.65 260.211 160.43 258.773 161.974C258.285 162.498 254.365 166.133 253.714 165.668C252.589 164.865 251.883 162.789 251.034 161.674C249.912 160.2 248.535 154.452 250.71 152.856C251.909 151.977 253.344 151.345 254.723 151.096Z" fill="#939878"/>
<path d="M249.485 460.192C252.105 459.72 253.168 461.197 253.741 463.126C254.048 464.356 255.063 465.263 255.312 466.018C255.882 467.745 254.974 469.526 253.535 471.07C253.047 471.594 249.127 475.229 248.476 474.764C247.351 473.961 246.645 471.885 245.796 470.77C244.674 469.295 243.297 463.548 245.472 461.952C246.671 461.073 248.106 460.441 249.485 460.192Z" fill="#42535D"/>
<path d="M67.7766 0C67.8083 0.139627 67.8371 0.280908 67.863 0.423531C67.9888 1.11336 68.4989 6.31192 67.6559 6.54316C66.7448 6.79311 65.5116 6.6206 64.3388 6.45654C63.6377 6.35847 62.9581 6.26341 62.3819 6.26341C60.3454 6.26341 54.4278 3.93327 54.5106 1.29776C54.5242 0.865817 54.5708 0.430526 54.6484 0H67.7766Z" fill="#939878"/>
<path d="M0 46.9117V36.3779C0.0483599 36.3935 0.0967617 36.4095 0.145198 36.4259C0.891392 36.7125 1.70502 36.7446 2.41651 36.7728C2.92043 36.7927 3.37313 36.8106 3.71434 36.9154C5.59873 37.4944 6.53069 39.2544 6.90108 41.2866C7.02681 41.9764 7.53688 47.175 6.69394 47.4062C5.78284 47.6562 4.54965 47.4837 3.37681 47.3196C2.67571 47.2215 1.99618 47.1265 1.41989 47.1265C1.05321 47.1265 0.560679 47.0509 0 46.9117Z" fill="#42535D"/>
<path d="M0 84.1186V73.7402C0.13526 73.7465 0.270792 73.7549 0.406463 73.7656C1.12923 73.8223 1.86575 73.944 2.60246 74.0658C3.17241 74.1599 3.74248 74.2541 4.3064 74.3183C4.42217 74.3315 4.54266 74.3441 4.66649 74.3571C5.56256 74.4511 6.63406 74.5636 7.36856 75.0269C7.70581 75.2396 8.05929 75.4335 8.41297 75.6275C9.41837 76.179 10.4255 76.7314 11.0663 77.7194C11.7166 78.7221 11.0717 82.8271 10.3123 83.5722C9.55986 84.3105 8.78389 84.1684 7.89675 84.006C7.32259 83.9009 6.70186 83.7872 6.01081 83.8982C4.43357 84.1514 2.0503 84.3137 0 84.1186Z" fill="#D88D3A"/>
<path d="M0 121.828V112.793C0.100936 112.581 0.202612 112.392 0.3026 112.231C1.20242 109.405 5.34432 110.475 7.17326 111.33C7.28886 111.384 7.41993 111.442 7.5613 111.505C8.58802 111.959 10.1576 112.653 10.2824 113.829C10.4496 115.403 9.88485 116.909 9.34058 118.36C9.25999 118.574 9.17985 118.788 9.1026 119.001C8.27747 121.27 7.56195 122.602 5.0496 122.894C3.40157 123.086 1.47221 122.988 0.0943905 121.906C0.0622459 121.881 0.0307857 121.855 0 121.828Z" fill="#D88D3A"/>
<path d="M0 166.972V149.857C2.00104 150.227 3.97115 150.666 4.81522 152.831C6.27643 156.58 7.00717 161.7 4.29538 165.14C3.18443 166.55 1.64488 167.046 0 166.972Z" fill="#939878"/>
<path d="M0 204.079V193.546C0.0483599 193.561 0.0967617 193.577 0.145198 193.593C0.891392 193.88 1.70502 193.912 2.41651 193.94C2.92043 193.96 3.37313 193.978 3.71434 194.083C5.59873 194.662 6.53069 196.422 6.90108 198.454C7.02681 199.144 7.53688 204.343 6.69394 204.574C5.78284 204.824 4.54965 204.651 3.37681 204.487C2.67571 204.389 1.99618 204.294 1.41989 204.294C1.05321 204.294 0.560679 204.219 0 204.079Z" fill="#42535D"/>
<path d="M0 241.286V230.907C0.13526 230.913 0.270792 230.922 0.406463 230.933C1.12923 230.989 1.86575 231.111 2.60246 231.233C3.17241 231.327 3.74248 231.421 4.3064 231.485C4.42217 231.498 4.54266 231.511 4.66649 231.524C5.56256 231.618 6.63406 231.731 7.36856 232.194C7.70581 232.407 8.05929 232.601 8.41297 232.795C9.41837 233.346 10.4255 233.898 11.0663 234.886C11.7166 235.889 11.0717 239.994 10.3123 240.739C9.55986 241.477 8.78389 241.335 7.89675 241.173C7.32259 241.068 6.70186 240.954 6.01081 241.065C4.43357 241.318 2.0503 241.481 0 241.286Z" fill="#D88D3A"/>
<path d="M0 278.996V269.96C0.100936 269.748 0.202612 269.559 0.3026 269.398C1.20242 266.572 5.34432 267.642 7.17326 268.497C7.28886 268.551 7.41993 268.609 7.5613 268.672C8.58802 269.126 10.1576 269.82 10.2824 270.996C10.4496 272.571 9.88485 274.076 9.34058 275.527C9.25999 275.742 9.17985 275.955 9.1026 276.168C8.27747 278.437 7.56195 279.769 5.0496 280.061C3.40157 280.253 1.47221 280.155 0.0943905 279.073C0.0622459 279.048 0.0307857 279.022 0 278.996Z" fill="#939878"/>
<path d="M0 315.535V305.954C0.971744 308.982 1.3647 312.618 0 315.535Z" fill="#D88D3A"/>
<path d="M0 356.62V346.896C0.897001 347.741 1.40988 348.999 1.66219 350.383C1.78792 351.073 2.29799 356.271 1.45505 356.503C1.02773 356.62 0.529564 356.644 0 356.62Z" fill="#939878"/>
<path d="M0 393.102V383.516C0.751374 383.608 1.54668 383.755 2.12967 384.123C2.46692 384.335 2.8204 384.529 3.17408 384.723C4.17948 385.275 5.18657 385.827 5.82738 386.815C6.47775 387.818 5.83285 391.923 5.07339 392.668C4.32097 393.406 3.545 393.264 2.65785 393.102C2.0837 392.997 1.46297 392.883 0.771919 392.994C0.531936 393.032 0.273292 393.069 0 393.102Z" fill="#42535D"/>
<path d="M0 431.966V419.753C0.743559 419.936 1.42771 420.189 1.93437 420.426C2.04996 420.48 2.18104 420.538 2.32241 420.6C3.34913 421.055 4.9187 421.749 5.04352 422.925C5.21069 424.499 4.64596 426.005 4.10169 427.456C4.0211 427.67 3.94096 427.884 3.86371 428.097C3.05969 430.308 2.35973 431.629 0 431.966Z" fill="#42535D"/>
<path d="M0 472.926V455.815C1.99211 456.184 3.94885 456.628 4.78928 458.784C6.25049 462.533 6.98123 467.653 4.26944 471.093C3.16433 472.495 1.63512 472.993 0 472.926Z" fill="#939878"/>
<path d="M5.96854 500H0V492.69C2.00104 493.06 3.97115 493.499 4.81522 495.664C5.32964 496.984 5.75352 498.474 5.96854 500Z" fill="#D88D3A"/>
<path d="M67.7767 500H54.6484C54.8317 498.983 55.1878 497.993 55.6897 497.136C57.047 494.819 59.046 494.867 61.1072 495.563C61.8534 495.849 62.667 495.882 63.3785 495.91C63.8824 495.93 64.3351 495.947 64.6763 496.052C66.4285 496.591 67.3572 498.15 67.7767 500Z" fill="#939878"/>
<path d="M134.768 500H116.623C116.684 499.847 116.756 499.691 116.839 499.532C118.245 496.829 121.205 495.992 124.235 496.23C124.958 496.286 125.694 496.408 126.431 496.53C127.001 496.624 127.571 496.718 128.135 496.782C128.25 496.795 128.371 496.808 128.495 496.821C129.391 496.915 130.462 497.028 131.197 497.491C131.534 497.704 131.888 497.897 132.241 498.091C133.183 498.608 134.126 499.125 134.768 500Z" fill="#42535D"/>
<path d="M199.043 500H187.957C188.256 498.741 188.689 497.627 189.094 496.975C189.994 494.149 194.136 495.219 195.965 496.074C196.081 496.128 196.212 496.186 196.353 496.249C197.38 496.703 198.949 497.397 199.074 498.573C199.125 499.055 199.108 499.53 199.043 500Z" fill="#D88D3A"/>
<path d="M260.574 500H249.605C249.452 498.288 249.688 496.617 250.712 495.866C251.911 494.987 253.346 494.355 254.725 494.106C257.345 493.634 258.408 495.111 258.981 497.04C259.161 497.76 259.583 498.369 259.952 498.902C260.214 499.279 260.449 499.618 260.552 499.931C260.56 499.954 260.567 499.977 260.574 500Z" fill="#939878"/>
<path d="M320.123 500H306.994C307.178 498.983 307.534 497.993 308.036 497.136C309.393 494.819 311.392 494.867 313.453 495.563C314.199 495.849 315.013 495.882 315.724 495.91C316.228 495.93 316.681 495.947 317.022 496.052C318.774 496.591 319.703 498.15 320.123 500Z" fill="#D88D3A"/>
<path d="M387.114 500H368.969C369.031 499.847 369.103 499.691 369.186 499.532C370.591 496.829 373.552 495.992 376.581 496.23C377.304 496.286 378.041 496.408 378.777 496.53C379.347 496.624 379.917 496.718 380.481 496.782C380.597 496.795 380.717 496.808 380.841 496.821C381.737 496.915 382.809 497.028 383.543 497.491C383.881 497.704 384.234 497.897 384.588 498.091C385.529 498.608 386.472 499.125 387.114 500Z" fill="#42535D"/>
<path d="M451.219 500H440.133C440.432 498.741 440.865 497.627 441.27 496.975C442.17 494.149 446.312 495.219 448.141 496.074C448.256 496.128 448.387 496.186 448.529 496.249C449.556 496.703 451.125 497.397 451.25 498.573C451.301 499.055 451.284 499.53 451.219 500Z" fill="#939878"/>
<path d="M500 492.69V500H494.686C494.241 499.351 493.837 498.686 493.681 497.897C493.157 495.245 494.134 492.267 497.161 492C497.957 492.316 498.856 492.48 499.757 492.646C499.838 492.66 499.919 492.675 500 492.69Z" fill="#D88D3A"/>
<path d="M500.001 455.815V472.926C499.364 472.9 498.711 472.788 498.06 472.61C496.279 472.123 496.317 470.315 496.348 468.805C496.352 468.612 496.356 468.424 496.356 468.245C496.356 467.187 496.325 466.099 495.894 465.11C495.637 464.521 495.268 463.992 494.9 463.464C494.368 462.703 493.839 461.946 493.656 461.017C493.132 458.365 494.109 455.387 497.136 455.12C497.932 455.436 498.831 455.6 499.732 455.766C499.822 455.782 499.911 455.798 500.001 455.815Z" fill="#939878"/>
<path d="M500 419.753V431.965C499.938 431.974 499.874 431.982 499.81 431.99C498.161 432.182 496.232 432.084 494.854 431.002C492.449 429.114 493.875 423.239 495.063 421.327C495.713 419.283 498.059 419.277 500 419.753Z" fill="#42535D"/>
<path d="M500 383.516V393.102C497.626 393.392 494.146 393.453 492.191 392.668C489.517 391.595 485.914 389.734 487.771 386.163C489.176 383.461 492.137 382.624 495.166 382.861C495.889 382.918 496.626 383.04 497.362 383.161C497.932 383.256 498.502 383.35 499.066 383.414C499.182 383.427 499.303 383.44 499.426 383.453C499.612 383.472 499.804 383.492 500 383.516Z" fill="#42535D"/>
<path d="M499.999 346.897V356.62C499.399 356.593 498.759 356.503 498.136 356.416C497.435 356.318 496.755 356.223 496.179 356.223C494.142 356.223 488.225 353.893 488.307 351.257C488.353 349.805 488.772 348.315 489.487 347.096C490.844 344.779 492.843 344.826 494.904 345.522C495.65 345.809 496.464 345.841 497.175 345.869C497.679 345.889 498.132 345.907 498.473 346.012C499.075 346.197 499.579 346.502 499.999 346.897Z" fill="#939878"/>
<path d="M499.999 305.957V315.532C499.747 316.072 499.434 316.587 499.054 317.069C497.519 319.017 495.164 319.221 492.845 318.586C491.064 318.099 491.102 316.291 491.133 314.781C491.137 314.588 491.141 314.401 491.141 314.221C491.141 313.163 491.11 312.075 490.679 311.086C490.422 310.497 490.053 309.968 489.685 309.44C489.153 308.679 488.624 307.922 488.441 306.993C487.917 304.341 488.894 301.363 491.921 301.096C492.717 301.412 493.616 301.576 494.517 301.742C496.6 302.123 498.696 302.508 499.574 304.76C499.724 305.146 499.867 305.546 499.999 305.957Z" fill="#D88D3A"/>
<path d="M500 269.958V278.997C497.919 277.198 498.917 272.234 500 269.958Z" fill="#939878"/>
<path d="M499.999 230.907V241.286C499.027 241.193 498.13 241.021 497.429 240.739C494.755 239.666 491.152 237.806 493.009 234.235C494.351 231.653 497.113 230.773 499.999 230.907Z" fill="#D88D3A"/>
<path d="M500.001 193.546V204.08C497.448 203.446 493.481 201.49 493.548 199.328C493.594 197.876 494.013 196.387 494.728 195.167C496.053 192.904 497.991 192.897 500.001 193.546Z" fill="#42535D"/>
<path d="M500 149.857V166.973C499.371 166.944 498.727 166.833 498.085 166.658C496.304 166.171 496.342 164.362 496.373 162.852C496.377 162.66 496.381 162.472 496.381 162.292C496.381 161.235 496.35 160.146 495.919 159.158C495.662 158.568 495.293 158.039 494.925 157.512C494.393 156.751 493.864 155.993 493.681 155.064C493.157 152.413 494.134 149.434 497.161 149.167C497.957 149.483 498.856 149.648 499.757 149.813C499.838 149.828 499.919 149.843 500 149.857Z" fill="#939878"/>
<path d="M500 112.791V121.829C497.919 120.031 498.917 115.067 500 112.791Z" fill="#D88D3A"/>
<path d="M499.999 73.7396V84.1182C499.027 84.0257 498.13 83.853 497.429 83.5716C494.755 82.4985 491.152 80.6381 493.009 77.0669C494.351 74.485 497.113 73.6057 499.999 73.7396Z" fill="#D88D3A"/>
<path d="M500.001 36.3787V46.9123C497.448 46.2784 493.481 44.3225 493.548 42.1612C493.594 40.7092 494.013 39.2194 494.728 37.9999C496.053 35.737 497.991 35.7294 500.001 36.3787Z" fill="#42535D"/>
<path d="M500 9.80529C499.371 9.77725 498.727 9.66588 498.085 9.49042C496.304 9.00354 496.342 7.19502 496.373 5.68511C496.377 5.49241 496.381 5.30457 496.381 5.12497C496.381 4.06747 496.35 2.9787 495.919 1.99044C495.662 1.40108 495.293 0.871903 494.925 0.34454C494.844 0.229808 494.764 0.115161 494.686 0H500V9.80529Z" fill="#D88D3A"/>
<path d="M440.133 0C439.556 2.43176 439.477 5.40641 441.062 6.65024C442.44 7.73183 444.369 7.82979 446.017 7.63813C448.53 7.34596 449.245 6.01421 450.07 3.74468C450.147 3.5322 450.228 3.31857 450.308 3.10375C450.686 2.09708 451.073 1.06415 451.219 0H440.133Z" fill="#939878"/>
<path d="M387.115 0H368.97C367.65 3.26735 371.053 5.01102 373.607 6.03618C375.787 6.9111 379.862 6.73533 382.187 6.36213C382.878 6.25118 383.498 6.36482 384.073 6.46993C384.96 6.63234 385.736 6.7744 386.488 6.03618C387.248 5.29107 387.892 1.18607 387.242 0.183377C387.201 0.120526 387.159 0.0594376 387.115 0Z" fill="#42535D"/>
<path d="M320.122 0C320.153 0.139627 320.182 0.280908 320.208 0.423531C320.334 1.11336 320.844 6.31192 320.001 6.54316C319.09 6.79311 317.857 6.6206 316.684 6.45654C315.983 6.35847 315.303 6.26341 314.727 6.26341C312.69 6.26341 306.773 3.93327 306.856 1.29776C306.869 0.865817 306.916 0.430526 306.993 0H320.122Z" fill="#D88D3A"/>
<path d="M260.573 0C261.097 1.70632 260.192 3.45976 258.773 4.98385C258.285 5.50814 254.366 9.14252 253.715 8.67749C253.011 8.17485 252.471 7.17371 251.957 6.22155C251.65 5.65237 251.353 5.1007 251.035 4.68348C250.441 3.9031 249.776 1.92543 249.604 0H260.573Z" fill="#939878"/>
<path d="M187.957 0C187.38 2.43176 187.302 5.40641 188.886 6.65024C190.264 7.73183 192.193 7.82979 193.841 7.63813C196.354 7.34596 197.069 6.01421 197.894 3.74468C197.972 3.5322 198.052 3.31857 198.132 3.10375C198.51 2.09708 198.898 1.06415 199.044 0H187.957Z" fill="#D88D3A"/>
<path d="M134.77 0H116.625C115.304 3.26735 118.707 5.01102 121.261 6.03618C123.441 6.9111 127.517 6.73533 129.841 6.36213C130.532 6.25118 131.153 6.36482 131.727 6.46993C132.614 6.63234 133.39 6.7744 134.143 6.03618C134.902 5.29107 135.547 1.18607 134.897 0.183377C134.856 0.120526 134.814 0.0594376 134.77 0Z" fill="#42535D"/>
</svg>
