<svg width="500" height="500" viewBox="0 0 500 500" fill="none" xmlns="http://www.w3.org/2000/svg">
<path d="M194.061 166C186.897 180.806 180.247 195.934 174.645 211.269C174.645 211.269 176.479 211.729 177.656 211.729C179.734 211.729 181.853 212.057 183.921 212.24C185.145 212.349 186.478 212.838 187.723 212.637C188.492 212.513 189.84 208.614 190.071 208.046C191.552 204.404 193.109 200.775 194.867 197.228C196.023 194.896 197.463 192.749 198.238 190.271C199.268 186.972 200.295 183.662 201.205 180.335C202.207 176.667 202.992 173.056 204.287 169.452C204.332 169.327 205.778 166.187 206.015 166.767C206.629 168.266 206.736 169.899 207.11 171.447C207.864 174.571 208.818 177.619 209.386 180.782C210.903 189.24 212.673 197.649 215.478 205.859C216.266 208.166 217.501 210.766 217.667 213.2C217.739 214.246 217.852 214.529 219.093 214.67C224.742 215.315 230.654 215.015 236.319 214.772C238.336 214.686 240.31 214.701 242.311 214.504C242.741 214.462 243.71 214.615 243.089 214.031C242.237 213.23 241.442 212.145 240.813 211.205C238.368 207.551 236.365 203.558 234.332 199.708C228.907 189.438 224.376 178.783 218.661 168.634C215.193 162.476 212.671 155.992 209.558 149.695C209.405 149.384 208.03 144.789 206.534 145.488C206.014 145.731 205.631 146.353 205.338 146.767L205.306 146.812C204.419 148.066 203.536 149.315 202.616 150.552C199.028 155.376 196.622 160.706 194.061 166Z" fill="#939878"/>
<path d="M194.061 331.523C186.897 346.328 180.247 361.457 174.645 376.792C174.645 376.792 176.479 377.252 177.656 377.252C179.734 377.252 181.853 377.58 183.921 377.763C185.145 377.872 186.478 378.361 187.723 378.16C188.492 378.036 189.84 374.137 190.071 373.569C191.552 369.927 193.109 366.298 194.867 362.75C196.023 360.419 197.463 358.272 198.238 355.794C199.268 352.495 200.295 349.185 201.205 345.858C202.207 342.19 202.992 338.579 204.287 334.975C204.332 334.85 205.778 331.71 206.015 332.29C206.629 333.789 206.736 335.422 207.11 336.97C207.864 340.094 208.818 343.142 209.386 346.305C210.903 354.763 212.673 363.172 215.478 371.382C216.266 373.689 217.501 376.289 217.667 378.723C217.739 379.769 217.852 380.051 219.093 380.193C224.742 380.838 230.654 380.538 236.319 380.295C238.336 380.209 240.31 380.224 242.311 380.027C242.741 379.984 243.71 380.138 243.089 379.554C242.237 378.753 241.442 377.668 240.813 376.728C238.368 373.074 236.365 369.081 234.332 365.231C228.907 354.961 224.376 344.306 218.661 334.157C215.193 327.999 212.671 321.515 209.558 315.218C209.405 314.907 208.03 310.311 206.534 311.011C206.014 311.253 205.631 311.876 205.338 312.29L205.306 312.335C204.419 313.589 203.536 314.838 202.616 316.075C199.028 320.899 196.622 326.229 194.061 331.523Z" fill="#939878"/>
<path d="M241.567 84.7676C234.403 99.5736 227.754 114.702 222.152 130.037C222.152 130.037 223.986 130.497 225.162 130.497C227.241 130.497 229.36 130.825 231.428 131.009C232.652 131.117 233.985 131.606 235.23 131.405C235.998 131.281 237.347 127.382 237.578 126.814C239.059 123.172 240.616 119.543 242.374 115.996C243.529 113.664 244.97 111.517 245.744 109.039C246.775 105.74 247.802 102.43 248.711 99.1028C249.714 95.4351 250.498 91.8239 251.793 88.2204C251.838 88.0953 253.284 84.955 253.522 85.5349C254.136 87.0336 254.243 88.6672 254.616 90.2153C255.37 93.339 256.325 96.3873 256.892 99.5504C258.41 108.008 260.179 116.417 262.985 124.627C263.773 126.934 265.008 129.534 265.174 131.968C265.245 133.014 265.359 133.297 266.6 133.438C272.249 134.083 278.16 133.783 283.826 133.541C285.842 133.454 287.816 133.469 289.817 133.272C290.247 133.23 291.217 133.383 290.595 132.799C289.744 131.999 288.949 130.913 288.32 129.973C285.874 126.319 283.871 122.326 281.838 118.476C276.414 108.206 271.883 97.5508 266.168 87.4019C262.7 81.2438 260.178 74.7605 257.065 68.4631C256.911 68.152 255.537 63.5566 254.04 64.2559C253.521 64.4986 253.137 65.1211 252.845 65.5347L252.813 65.5801C251.926 66.8344 251.043 68.0831 250.123 69.3199C246.534 74.1442 244.129 79.4741 241.567 84.7676Z" fill="#939878"/>
<path d="M241.567 247.232C234.403 262.037 227.754 277.166 222.152 292.501C222.152 292.501 223.986 292.961 225.162 292.961C227.241 292.961 229.36 293.289 231.428 293.472C232.652 293.581 233.985 294.07 235.23 293.869C235.998 293.745 237.347 289.845 237.578 289.278C239.059 285.636 240.616 282.007 242.374 278.459C243.529 276.128 244.97 273.981 245.744 271.503C246.775 268.203 247.802 264.894 248.711 261.567C249.714 257.899 250.498 254.288 251.793 250.684C251.838 250.559 253.284 247.419 253.522 247.999C254.136 249.498 254.243 251.131 254.616 252.679C255.37 255.803 256.325 258.851 256.892 262.014C258.41 270.472 260.179 278.881 262.985 287.091C263.773 289.398 265.008 291.998 265.174 294.432C265.245 295.478 265.359 295.76 266.6 295.902C272.249 296.547 278.16 296.247 283.826 296.004C285.842 295.918 287.816 295.933 289.817 295.736C290.247 295.693 291.217 295.847 290.595 295.263C289.744 294.462 288.949 293.377 288.32 292.437C285.874 288.783 283.871 284.79 281.838 280.94C276.414 270.67 271.883 260.015 266.168 249.866C262.7 243.708 260.178 237.224 257.065 230.927C256.911 230.616 255.537 226.02 254.04 226.72C253.521 226.962 253.137 227.585 252.845 227.999L252.813 228.044C251.926 229.298 251.043 230.547 250.123 231.784C246.534 236.608 244.129 241.938 241.567 247.232Z" fill="#939878"/>
<path d="M241.567 413.752C234.403 428.558 227.754 443.687 222.152 459.021C222.152 459.021 223.986 459.481 225.162 459.481C227.241 459.481 229.36 459.809 231.428 459.993C232.652 460.102 233.985 460.59 235.23 460.389C235.998 460.265 237.347 456.366 237.578 455.799C239.059 452.157 240.616 448.528 242.374 444.98C243.529 442.649 244.97 440.501 245.744 438.023C246.775 434.724 247.802 431.415 248.711 428.087C249.714 424.419 250.498 420.808 251.793 417.205C251.838 417.08 253.284 413.939 253.522 414.519C254.136 416.018 254.243 417.652 254.616 419.2C255.37 422.323 256.325 425.372 256.892 428.535C258.41 436.992 260.179 445.401 262.985 453.612C263.773 455.919 265.008 458.519 265.174 460.952C265.245 461.999 265.359 462.281 266.6 462.423C272.249 463.067 278.16 462.767 283.826 462.525C285.842 462.439 287.816 462.454 289.817 462.256C290.247 462.214 291.217 462.368 290.595 461.783C289.744 460.983 288.949 459.897 288.32 458.957C285.874 455.303 283.871 451.31 281.838 447.461C276.414 437.19 271.883 426.535 266.168 416.386C262.7 410.228 260.178 403.745 257.065 397.447C256.911 397.136 255.537 392.541 254.04 393.24C253.521 393.483 253.137 394.106 252.845 394.519L252.813 394.564C251.926 395.819 251.043 397.067 250.123 398.304C246.534 403.129 244.129 408.458 241.567 413.752Z" fill="#939878"/>
<path d="M101.451 194.254C98.457 200.042 95.0065 203.642 93.2695 209.811C98.1914 209.811 103.122 209.166 108.108 209.032C109.719 208.988 111.333 209.017 112.944 209.017C113.915 209.017 114.15 207.622 114.435 206.958C116.105 203.067 117.124 199.016 119.204 195.254C120.791 192.386 122.27 189.465 123.742 186.549C125.054 183.95 126.274 181.312 127.187 178.579C127.233 178.442 128.076 175.566 128.38 176.05C131.077 180.361 131.459 186.18 132.801 190.901C134.678 197.505 136.949 204.111 139.31 210.59C140.226 213.104 140.954 212.987 143.782 212.987H151.847C152.853 212.987 154.101 213.168 155.093 212.972C156.246 212.745 151.702 201.278 151.4 200.547C149.76 196.575 148.305 192.576 146.465 188.666C144.138 183.723 141.09 179.14 139.409 173.962C136.414 164.735 134.698 157.313 133.447 147.76C132.965 144.078 130.476 145.373 129.324 147.303C126.601 151.863 124.482 156.725 122.119 161.434C119.489 166.676 116.272 171.678 112.977 176.609C109.089 182.429 104.638 188.092 101.451 194.254Z" fill="#939878"/>
<path d="M101.451 359.777C98.457 365.565 95.0065 369.165 93.2695 375.334C98.1914 375.334 103.122 374.689 108.108 374.555C109.719 374.511 111.333 374.54 112.944 374.54C113.915 374.54 114.15 373.145 114.435 372.481C116.105 368.59 117.124 364.539 119.204 360.777C120.791 357.909 122.27 354.987 123.742 352.072C125.054 349.473 126.274 346.835 127.187 344.102C127.233 343.965 128.076 341.089 128.38 341.573C131.077 345.883 131.459 351.702 132.801 356.424C134.678 363.028 136.949 369.634 139.31 376.113C140.226 378.627 140.954 378.51 143.782 378.51H151.847C152.853 378.51 154.101 378.691 155.093 378.495C156.246 378.268 151.702 366.801 151.4 366.07C149.76 362.098 148.305 358.099 146.465 354.189C144.138 349.246 141.09 344.663 139.409 339.485C136.414 330.258 134.698 322.836 133.447 313.283C132.965 309.601 130.476 310.896 129.324 312.826C126.601 317.385 124.482 322.248 122.119 326.957C119.489 332.199 116.272 337.201 112.977 342.132C109.089 347.952 104.638 353.615 101.451 359.777Z" fill="#939878"/>
<path d="M148.958 113.022C145.964 118.81 142.514 122.41 140.777 128.579C145.699 128.579 150.629 127.934 155.616 127.8C157.226 127.756 158.841 127.785 160.452 127.785C161.422 127.785 161.658 126.39 161.942 125.727C163.612 121.835 164.631 117.784 166.712 114.022C168.298 111.154 169.778 108.233 171.25 105.317C172.562 102.718 173.781 100.08 174.695 97.3473C174.741 97.2097 175.584 94.3339 175.887 94.8181C178.584 99.1286 178.967 104.948 180.309 109.669C182.186 116.273 184.457 122.879 186.818 129.358C187.734 131.872 188.461 131.755 191.289 131.755H199.355C200.361 131.755 201.609 131.936 202.601 131.741C203.753 131.513 199.209 120.046 198.908 119.315C197.267 115.344 195.813 111.344 193.972 107.434C191.645 102.491 188.598 97.9076 186.917 92.7301C183.922 83.5035 182.206 76.0813 180.955 66.5281C180.473 62.8464 177.984 64.1408 176.831 66.0713C174.109 70.6306 171.989 75.4932 169.627 80.2021C166.997 85.4444 163.779 90.4465 160.485 95.3769C156.596 101.197 152.146 106.86 148.958 113.022Z" fill="#42535D"/>
<path d="M148.958 275.486C145.964 281.274 142.514 284.874 140.777 291.043C145.699 291.043 150.629 290.398 155.616 290.264C157.226 290.22 158.841 290.249 160.452 290.249C161.422 290.249 161.658 288.854 161.942 288.19C163.612 284.299 164.631 280.248 166.712 276.486C168.298 273.618 169.778 270.696 171.25 267.781C172.562 265.182 173.781 262.544 174.695 259.811C174.741 259.674 175.584 256.798 175.887 257.282C178.584 261.592 178.967 267.411 180.309 272.133C182.186 278.737 184.457 285.343 186.818 291.822C187.734 294.336 188.461 294.219 191.289 294.219H199.355C200.361 294.219 201.609 294.4 202.601 294.204C203.753 293.977 199.209 282.51 198.908 281.779C197.267 277.807 195.813 273.808 193.972 269.898C191.645 264.955 188.598 260.372 186.917 255.194C183.922 245.967 182.206 238.545 180.955 228.992C180.473 225.31 177.984 226.605 176.831 228.535C174.109 233.094 171.989 237.957 169.627 242.666C166.997 247.908 163.779 252.91 160.485 257.841C156.596 263.661 152.146 269.324 148.958 275.486Z" fill="#42535D"/>
<path d="M148.958 442.006C145.964 447.794 142.514 451.395 140.777 457.564C145.699 457.564 150.629 456.918 155.616 456.784C157.226 456.741 158.841 456.769 160.452 456.769C161.422 456.769 161.658 455.374 161.942 454.711C163.612 450.819 164.631 446.768 166.712 443.006C168.298 440.138 169.778 437.217 171.25 434.301C172.562 431.703 173.781 429.065 174.695 426.332C174.741 426.194 175.584 423.318 175.887 423.803C178.584 428.113 178.967 433.932 180.309 438.654C182.186 445.257 184.457 451.863 186.818 458.343C187.734 460.857 188.461 460.74 191.289 460.74H199.355C200.361 460.74 201.609 460.921 202.601 460.725C203.753 460.497 199.209 449.031 198.908 448.3C197.267 444.328 195.813 440.329 193.972 436.419C191.645 431.476 188.598 426.892 186.917 421.715C183.922 412.488 182.206 405.066 180.955 395.512C180.473 391.831 177.984 393.125 176.831 395.056C174.109 399.615 171.989 404.478 169.627 409.186C166.997 414.429 163.779 419.431 160.485 424.361C156.596 430.181 152.146 435.844 148.958 442.006Z" fill="#42535D"/>
<path d="M15.5451 196.225C12.8614 201.733 10.411 203.283 8.32422 211.694C9.65255 212.349 20.4454 211.503 20.5632 211.032C20.8059 210.062 21.6245 208.886 22.0372 207.93C22.7027 206.387 23.4693 204.932 23.7596 203.283C24.6142 198.427 26.6793 194.624 29.0586 190.243L29.0758 190.211C32.2394 184.385 36.4774 179.14 39.6089 173.301C39.9296 172.703 40.6264 169.831 41.1822 171.257C41.5047 172.084 42.2327 172.809 42.6065 173.639C45.2944 179.605 45.6077 186.032 47.4259 192.167C49.224 198.233 51.8921 204.068 52.974 210.312C53.2615 211.971 54.2406 212.935 56.22 213.003C58.6822 213.087 61.2463 213.148 63.6727 212.723C65.3015 212.438 66.8979 211.964 68.5418 211.753C70.1657 211.544 73.9077 211.973 73.9077 209.973C73.9077 209.214 73.6012 208.376 73.3115 207.665C72.2491 205.057 71.3147 202.399 70.2642 199.783C66.8876 191.376 65.0826 182.578 61.205 174.316C58.9906 169.597 56.5626 165.005 53.8021 160.523C51.1842 156.273 47.8566 152.331 45.4882 147.98C45.1749 147.405 43.3074 142.138 41.6459 143.613C34.443 150.008 31.5846 159.022 28.1318 167.258C24.0581 176.975 20.1858 186.701 15.5451 196.225Z" fill="#42535D"/>
<path d="M15.5451 361.748C12.8614 367.256 10.411 368.806 8.32422 377.217C9.65255 377.872 20.4454 377.026 20.5632 376.556C20.8059 375.586 21.6245 374.41 22.0372 373.453C22.7027 371.91 23.4693 370.456 23.7596 368.806C24.6142 363.95 26.6793 360.148 29.0586 355.766L29.0758 355.734C32.2394 349.909 36.4774 344.663 39.6089 338.824C39.9296 338.226 40.6264 335.355 41.1822 336.781C41.5047 337.608 42.2327 338.333 42.6065 339.163C45.2944 345.129 45.6077 351.556 47.4259 357.69C49.224 363.757 51.8921 369.591 52.974 375.835C53.2615 377.494 54.2406 378.458 56.22 378.526C58.6822 378.61 61.2463 378.671 63.6727 378.247C65.3015 377.961 66.8979 377.487 68.5418 377.276C70.1657 377.067 73.9077 377.496 73.9077 375.497C73.9077 374.737 73.6012 373.9 73.3115 373.188C72.2491 370.581 71.3147 367.923 70.2642 365.307C66.8876 356.9 65.0826 348.102 61.205 339.839C58.9906 335.12 56.5626 330.528 53.8021 326.046C51.1842 321.796 47.8566 317.854 45.4882 313.504C45.1749 312.928 43.3074 307.661 41.6459 309.137C34.443 315.532 31.5846 324.545 28.1318 332.781C24.0581 342.498 20.1858 352.224 15.5451 361.748Z" fill="#42535D"/>
<path d="M63.0489 114.994C60.3652 120.501 57.9148 122.052 55.8281 130.462C57.1564 131.118 67.9492 130.271 68.067 129.801C68.3097 128.831 69.1283 127.655 69.541 126.698C70.2065 125.155 70.9731 123.701 71.2634 122.052C72.118 117.195 74.1831 113.393 76.5625 109.011L76.5796 108.979C79.7432 103.154 83.9812 97.9082 87.1127 92.0696C87.4334 91.4716 88.1302 88.6 88.686 90.0257C89.0085 90.8528 89.7365 91.578 90.1103 92.4078C92.7982 98.374 93.1115 104.801 94.9297 110.935C96.7278 117.002 99.3959 122.837 100.478 129.08C100.765 130.739 101.744 131.703 103.724 131.771C106.186 131.855 108.75 131.917 111.177 131.492C112.805 131.207 114.402 130.732 116.046 130.521C117.669 130.313 121.412 130.741 121.412 128.742C121.412 127.982 121.105 127.145 120.815 126.433C119.753 123.826 118.819 121.168 117.768 118.552C114.391 110.145 112.586 101.347 108.709 93.0842C106.494 88.3655 104.066 83.7733 101.306 79.2916C98.688 75.0414 95.3605 71.0996 92.992 66.7489C92.6787 66.1733 90.8112 60.9066 89.1498 62.3817C81.9468 68.7769 79.0884 77.7902 75.6356 86.0261C71.5619 95.7431 67.6897 105.469 63.0489 114.994Z" fill="#939878"/>
<path d="M63.0489 277.457C60.3652 282.965 57.9148 284.515 55.8281 292.926C57.1564 293.581 67.9492 292.735 68.067 292.265C68.3097 291.295 69.1283 290.119 69.541 289.162C70.2065 287.619 70.9731 286.165 71.2634 284.515C72.118 279.659 74.1831 275.857 76.5625 271.475L76.5796 271.443C79.7432 265.618 83.9812 260.372 87.1127 254.533C87.4334 253.935 88.1302 251.064 88.686 252.49C89.0085 253.317 89.7365 254.042 90.1103 254.872C92.7982 260.838 93.1115 267.265 94.9297 273.399C96.7278 279.466 99.3959 285.3 100.478 291.544C100.765 293.203 101.744 294.167 103.724 294.235C106.186 294.319 108.75 294.38 111.177 293.956C112.805 293.67 114.402 293.196 116.046 292.985C117.669 292.776 121.412 293.205 121.412 291.206C121.412 290.446 121.105 289.609 120.815 288.897C119.753 286.29 118.819 283.632 117.768 281.016C114.391 272.609 112.586 263.811 108.709 255.548C106.494 250.829 104.066 246.237 101.306 241.755C98.688 237.505 95.3605 233.563 92.992 229.213C92.6787 228.637 90.8112 223.37 89.1498 224.846C81.9468 231.241 79.0884 240.254 75.6356 248.49C71.5619 258.207 67.6897 267.933 63.0489 277.457Z" fill="#42535D"/>
<path d="M63.0489 443.977C60.3652 449.485 57.9148 451.035 55.8281 459.446C57.1564 460.102 67.9492 459.255 68.067 458.785C68.3097 457.815 69.1283 456.639 69.541 455.682C70.2065 454.139 70.9731 452.685 71.2634 451.035C72.118 446.179 74.1831 442.377 76.5625 437.995L76.5796 437.963C79.7432 432.138 83.9812 426.892 87.1127 421.053C87.4334 420.455 88.1302 417.584 88.686 419.01C89.0085 419.837 89.7365 420.562 90.1103 421.392C92.7982 427.358 93.1115 433.785 94.9297 439.919C96.7278 445.986 99.3959 451.82 100.478 458.064C100.765 459.723 101.744 460.687 103.724 460.755C106.186 460.839 108.75 460.9 111.177 460.476C112.805 460.19 114.402 459.716 116.046 459.505C117.669 459.296 121.412 459.725 121.412 457.726C121.412 456.966 121.105 456.129 120.815 455.417C119.753 452.81 118.819 450.152 117.768 447.536C114.391 439.129 112.586 430.331 108.709 422.068C106.494 417.349 104.066 412.757 101.306 408.275C98.688 404.025 95.3605 400.083 92.992 395.733C92.6787 395.157 90.8112 389.89 89.1498 391.366C81.9468 397.761 79.0884 406.774 75.6356 415.01C71.5619 424.727 67.6897 434.453 63.0489 443.977Z" fill="#939878"/>
<path d="M448.393 166C441.229 180.806 434.579 195.934 428.977 211.269C428.977 211.269 430.811 211.729 431.988 211.729C434.066 211.729 436.185 212.057 438.253 212.24C439.477 212.349 440.81 212.838 442.055 212.637C442.824 212.513 444.172 208.614 444.403 208.046C445.884 204.404 447.441 200.775 449.199 197.228C450.354 194.896 451.795 192.749 452.569 190.271C453.6 186.972 454.627 183.662 455.537 180.335C456.539 176.667 457.323 173.056 458.619 169.452C458.664 169.327 460.11 166.187 460.347 166.767C460.961 168.266 461.068 169.899 461.442 171.447C462.196 174.571 463.15 177.619 463.717 180.782C465.235 189.24 467.004 197.649 469.81 205.859C470.598 208.166 471.833 210.766 471.999 213.2C472.071 214.246 472.184 214.529 473.425 214.67C479.074 215.315 484.986 215.015 490.651 214.772C492.668 214.686 494.642 214.701 496.643 214.504C497.072 214.462 498.042 214.615 497.421 214.031C496.569 213.23 495.774 212.145 495.145 211.205C492.7 207.551 490.697 203.558 488.663 199.708C483.239 189.438 478.708 178.783 472.993 168.634C469.525 162.476 467.003 155.992 463.89 149.695C463.737 149.384 462.362 144.789 460.866 145.488C460.346 145.731 459.963 146.353 459.67 146.767L459.638 146.812C458.751 148.066 457.868 149.315 456.948 150.552C453.36 155.376 450.954 160.706 448.393 166Z" fill="#939878"/>
<path d="M448.393 331.523C441.229 346.328 434.579 361.457 428.977 376.792C428.977 376.792 430.811 377.252 431.988 377.252C434.066 377.252 436.185 377.58 438.253 377.763C439.477 377.872 440.81 378.361 442.055 378.16C442.824 378.036 444.172 374.137 444.403 373.569C445.884 369.927 447.441 366.298 449.199 362.75C450.354 360.419 451.795 358.272 452.569 355.794C453.6 352.495 454.627 349.185 455.537 345.858C456.539 342.19 457.323 338.579 458.619 334.975C458.664 334.85 460.11 331.71 460.347 332.29C460.961 333.789 461.068 335.422 461.442 336.97C462.196 340.094 463.15 343.142 463.717 346.305C465.235 354.763 467.004 363.172 469.81 371.382C470.598 373.689 471.833 376.289 471.999 378.723C472.071 379.769 472.184 380.051 473.425 380.193C479.074 380.838 484.986 380.538 490.651 380.295C492.668 380.209 494.642 380.224 496.643 380.027C497.072 379.984 498.042 380.138 497.421 379.554C496.569 378.753 495.774 377.668 495.145 376.728C492.7 373.074 490.697 369.081 488.663 365.231C483.239 354.961 478.708 344.306 472.993 334.157C469.525 327.999 467.003 321.515 463.89 315.218C463.737 314.907 462.362 310.311 460.866 311.011C460.346 311.253 459.963 311.876 459.67 312.29L459.638 312.335C458.751 313.589 457.868 314.838 456.948 316.075C453.36 320.899 450.954 326.229 448.393 331.523Z" fill="#42535D"/>
<path d="M355.784 194.254C352.79 200.042 349.339 203.642 347.602 209.811C352.524 209.811 357.455 209.166 362.441 209.032C364.052 208.988 365.666 209.017 367.277 209.017C368.248 209.017 368.483 207.622 368.768 206.958C370.437 203.067 371.457 199.016 373.537 195.254C375.124 192.386 376.603 189.465 378.075 186.549C379.387 183.95 380.607 181.312 381.52 178.579C381.566 178.442 382.409 175.566 382.712 176.05C385.41 180.361 385.792 186.18 387.134 190.901C389.011 197.505 391.282 204.111 393.643 210.59C394.559 213.104 395.287 212.987 398.115 212.987H406.18C407.186 212.987 408.434 213.168 409.426 212.972C410.579 212.745 406.035 201.278 405.733 200.547C404.093 196.575 402.638 192.576 400.798 188.666C398.471 183.723 395.423 179.14 393.742 173.962C390.747 164.735 389.031 157.313 387.78 147.76C387.298 144.078 384.809 145.373 383.656 147.303C380.934 151.863 378.815 156.725 376.452 161.434C373.822 166.676 370.605 171.678 367.31 176.609C363.421 182.429 358.971 188.092 355.784 194.254Z" fill="#42535D"/>
<path d="M355.784 359.777C352.79 365.565 349.339 369.165 347.602 375.334C352.524 375.334 357.455 374.689 362.441 374.555C364.052 374.511 365.666 374.54 367.277 374.54C368.248 374.54 368.483 373.145 368.768 372.481C370.437 368.59 371.457 364.539 373.537 360.777C375.124 357.909 376.603 354.987 378.075 352.072C379.387 349.473 380.607 346.835 381.52 344.102C381.566 343.965 382.409 341.089 382.712 341.573C385.41 345.883 385.792 351.702 387.134 356.424C389.011 363.028 391.282 369.634 393.643 376.113C394.559 378.627 395.287 378.51 398.115 378.51H406.18C407.186 378.51 408.434 378.691 409.426 378.495C410.579 378.268 406.035 366.801 405.733 366.07C404.093 362.098 402.638 358.099 400.798 354.189C398.471 349.246 395.423 344.663 393.742 339.485C390.747 330.258 389.031 322.836 387.78 313.283C387.298 309.601 384.809 310.896 383.656 312.826C380.934 317.385 378.815 322.248 376.452 326.957C373.822 332.199 370.605 337.201 367.31 342.132C363.421 347.952 358.971 353.615 355.784 359.777Z" fill="#42535D"/>
<path d="M403.29 113.022C400.296 118.81 396.846 122.41 395.109 128.579C400.031 128.579 404.961 127.934 409.948 127.8C411.558 127.756 413.173 127.785 414.784 127.785C415.754 127.785 415.99 126.39 416.274 125.727C417.944 121.835 418.963 117.784 421.044 114.022C422.63 111.154 424.11 108.233 425.582 105.317C426.894 102.718 428.113 100.08 429.027 97.3473C429.073 97.2097 429.916 94.3339 430.219 94.8181C432.916 99.1286 433.299 104.948 434.641 109.669C436.518 116.273 438.789 122.879 441.15 129.358C442.066 131.872 442.793 131.755 445.621 131.755H453.687C454.693 131.755 455.941 131.936 456.933 131.741C458.085 131.513 453.541 120.046 453.239 119.315C451.599 115.344 450.145 111.344 448.304 107.434C445.977 102.491 442.93 97.9076 441.249 92.7301C438.254 83.5035 436.538 76.0813 435.287 66.5281C434.805 62.8464 432.316 64.1408 431.163 66.0713C428.441 70.6306 426.321 75.4932 423.959 80.2021C421.329 85.4444 418.111 90.4465 414.817 95.3769C410.928 101.197 406.478 106.86 403.29 113.022Z" fill="#42535D"/>
<path d="M403.29 275.486C400.296 281.274 396.846 284.874 395.109 291.043C400.031 291.043 404.961 290.398 409.948 290.264C411.558 290.22 413.173 290.249 414.784 290.249C415.754 290.249 415.99 288.854 416.274 288.19C417.944 284.299 418.963 280.248 421.044 276.486C422.63 273.618 424.11 270.696 425.582 267.781C426.894 265.182 428.113 262.544 429.027 259.811C429.073 259.674 429.916 256.798 430.219 257.282C432.916 261.592 433.299 267.411 434.641 272.133C436.518 278.737 438.789 285.343 441.15 291.822C442.066 294.336 442.793 294.219 445.621 294.219H453.687C454.693 294.219 455.941 294.4 456.933 294.204C458.085 293.977 453.541 282.51 453.239 281.779C451.599 277.807 450.145 273.808 448.304 269.898C445.977 264.955 442.93 260.372 441.249 255.194C438.254 245.967 436.538 238.545 435.287 228.992C434.805 225.31 432.316 226.605 431.163 228.535C428.441 233.094 426.321 237.957 423.959 242.666C421.329 247.908 418.111 252.91 414.817 257.841C410.928 263.661 406.478 269.324 403.29 275.486Z" fill="#939878"/>
<path d="M403.29 442.006C400.296 447.794 396.846 451.395 395.109 457.564C400.031 457.564 404.961 456.918 409.948 456.784C411.558 456.741 413.173 456.769 414.784 456.769C415.754 456.769 415.99 455.374 416.274 454.711C417.944 450.819 418.963 446.768 421.044 443.006C422.63 440.138 424.11 437.217 425.582 434.301C426.894 431.703 428.113 429.065 429.027 426.332C429.073 426.194 429.916 423.318 430.219 423.803C432.916 428.113 433.299 433.932 434.641 438.654C436.518 445.257 438.789 451.863 441.15 458.343C442.066 460.857 442.793 460.74 445.621 460.74H453.687C454.693 460.74 455.941 460.921 456.933 460.725C458.085 460.497 453.541 449.031 453.239 448.3C451.599 444.328 450.145 440.329 448.304 436.419C445.977 431.476 442.93 426.892 441.249 421.715C438.254 412.488 436.538 405.066 435.287 395.512C434.805 391.831 432.316 393.125 431.163 395.056C428.441 399.615 426.321 404.478 423.959 409.186C421.329 414.429 418.111 419.431 414.817 424.361C410.928 430.181 406.478 435.844 403.29 442.006Z" fill="#939878"/>
<path d="M321.019 196.225C323.703 201.733 326.153 203.283 328.24 211.694C326.911 212.349 316.119 211.503 316.001 211.032C315.758 210.062 314.94 208.886 314.527 207.93C313.861 206.387 313.095 204.932 312.804 203.283C311.95 198.427 309.885 194.624 307.505 190.243L307.488 190.211C304.325 184.385 300.087 179.14 296.955 173.301C296.634 172.703 295.938 169.831 295.382 171.257C295.059 172.084 294.331 172.809 293.958 173.639C291.27 179.605 290.956 186.032 289.138 192.167C287.34 198.233 284.672 204.068 283.59 210.312C283.303 211.971 282.323 212.935 280.344 213.003C277.882 213.087 275.318 213.148 272.891 212.723C271.263 212.438 269.666 211.964 268.022 211.753C266.398 211.544 262.656 211.973 262.656 209.973C262.656 209.214 262.963 208.376 263.253 207.665C264.315 205.057 265.249 202.399 266.3 199.783C269.676 191.376 271.481 182.578 275.359 174.316C277.573 169.597 280.001 165.005 282.762 160.523C285.38 156.273 288.707 152.331 291.076 147.98C291.389 147.405 293.257 142.138 294.918 143.613C302.121 150.008 304.979 159.022 308.432 167.258C312.506 176.975 316.378 186.701 321.019 196.225Z" fill="#42535D"/>
<path d="M321.019 361.748C323.703 367.256 326.153 368.806 328.24 377.217C326.911 377.872 316.119 377.026 316.001 376.556C315.758 375.586 314.94 374.41 314.527 373.453C313.861 371.91 313.095 370.456 312.804 368.806C311.95 363.95 309.885 360.148 307.505 355.766L307.488 355.734C304.325 349.909 300.087 344.663 296.955 338.824C296.634 338.226 295.938 335.355 295.382 336.781C295.059 337.608 294.331 338.333 293.958 339.163C291.27 345.129 290.956 351.556 289.138 357.69C287.34 363.757 284.672 369.591 283.59 375.835C283.303 377.494 282.323 378.458 280.344 378.526C277.882 378.61 275.318 378.671 272.891 378.247C271.263 377.961 269.666 377.487 268.022 377.276C266.398 377.067 262.656 377.496 262.656 375.497C262.656 374.737 262.963 373.9 263.253 373.188C264.315 370.581 265.249 367.923 266.3 365.307C269.676 356.9 271.481 348.102 275.359 339.839C277.573 335.12 280.001 330.528 282.762 326.046C285.38 321.796 288.707 317.854 291.076 313.504C291.389 312.928 293.257 307.661 294.918 309.137C302.121 315.532 304.979 324.545 308.432 332.781C312.506 342.498 316.378 352.224 321.019 361.748Z" fill="#939878"/>
<path d="M368.522 114.994C371.206 120.501 373.657 122.052 375.743 130.462C374.415 131.118 363.622 130.271 363.504 129.801C363.262 128.831 362.443 127.655 362.03 126.698C361.365 125.155 360.598 123.701 360.308 122.052C359.453 117.195 357.388 113.393 355.009 109.011L354.992 108.979C351.828 103.154 347.59 97.9082 344.459 92.0696C344.138 91.4716 343.441 88.6 342.885 90.0257C342.563 90.8528 341.835 91.578 341.461 92.4078C338.773 98.374 338.46 104.801 336.642 110.935C334.844 117.002 332.175 122.837 331.094 129.08C330.806 130.739 329.827 131.703 327.848 131.771C325.385 131.855 322.821 131.917 320.395 131.492C318.766 131.207 317.17 130.732 315.526 130.521C313.902 130.313 310.16 130.741 310.16 128.742C310.16 127.982 310.466 127.145 310.756 126.433C311.818 123.826 312.753 121.168 313.803 118.552C317.18 110.145 318.985 101.347 322.863 93.0842C325.077 88.3655 327.505 83.7733 330.266 79.2916C332.883 75.0414 336.211 71.0996 338.579 66.7489C338.893 66.1733 340.76 60.9066 342.422 62.3817C349.625 68.7769 352.483 77.7902 355.936 86.0261C360.009 95.7431 363.882 105.469 368.522 114.994Z" fill="#939878"/>
<path d="M368.522 277.457C371.206 282.965 373.657 284.515 375.743 292.926C374.415 293.581 363.622 292.735 363.504 292.265C363.262 291.295 362.443 290.119 362.03 289.162C361.365 287.619 360.598 286.165 360.308 284.515C359.453 279.659 357.388 275.857 355.009 271.475L354.992 271.443C351.828 265.618 347.59 260.372 344.459 254.533C344.138 253.935 343.441 251.064 342.885 252.49C342.563 253.317 341.835 254.042 341.461 254.872C338.773 260.838 338.46 267.265 336.642 273.399C334.844 279.466 332.175 285.3 331.094 291.544C330.806 293.203 329.827 294.167 327.848 294.235C325.385 294.319 322.821 294.38 320.395 293.956C318.766 293.67 317.17 293.196 315.526 292.985C313.902 292.776 310.16 293.205 310.16 291.206C310.16 290.446 310.466 289.609 310.756 288.897C311.818 286.29 312.753 283.632 313.803 281.016C317.18 272.609 318.985 263.811 322.863 255.548C325.077 250.829 327.505 246.237 330.266 241.755C332.883 237.505 336.211 233.563 338.579 229.213C338.893 228.637 340.76 223.37 342.422 224.846C349.625 231.241 352.483 240.254 355.936 248.49C360.009 258.207 363.882 267.933 368.522 277.457Z" fill="#42535D"/>
<path d="M368.522 443.977C371.206 449.485 373.657 451.035 375.743 459.446C374.415 460.102 363.622 459.255 363.504 458.785C363.262 457.815 362.443 456.639 362.03 455.682C361.365 454.139 360.598 452.685 360.308 451.035C359.453 446.179 357.388 442.377 355.009 437.995L354.992 437.963C351.828 432.138 347.59 426.892 344.459 421.053C344.138 420.455 343.441 417.584 342.885 419.01C342.563 419.837 341.835 420.562 341.461 421.392C338.773 427.358 338.46 433.785 336.642 439.919C334.844 445.986 332.175 451.82 331.094 458.064C330.806 459.723 329.827 460.687 327.848 460.755C325.385 460.839 322.821 460.9 320.395 460.476C318.766 460.19 317.17 459.716 315.526 459.505C313.902 459.296 310.16 459.725 310.16 457.726C310.16 456.966 310.466 456.129 310.756 455.417C311.818 452.81 312.753 450.152 313.803 447.536C317.18 439.129 318.985 430.331 322.863 422.068C325.077 417.349 327.505 412.757 330.266 408.275C332.883 404.025 336.211 400.083 338.579 395.733C338.893 395.157 340.76 389.89 342.422 391.366C349.625 397.761 352.483 406.774 355.936 415.01C360.009 424.727 363.882 434.453 368.522 443.977Z" fill="#42535D"/>
<path d="M0 109.28V76.4786C1.31423 74.017 2.75186 71.6115 4.45628 69.3199C5.37615 68.0832 6.25911 66.8346 7.14612 65.5804L7.17846 65.5347C7.21303 65.4858 7.24888 65.434 7.28608 65.3802C7.56352 64.9793 7.91598 64.4699 8.37391 64.2559C9.66879 63.6508 10.8723 67.0102 11.2727 68.1276C11.335 68.3016 11.3778 68.4212 11.3986 68.4631C12.5871 70.8675 13.6895 73.299 14.7912 75.7291C16.5751 79.6638 18.3574 83.595 20.5013 87.4019C23.7573 93.1838 26.6289 99.1299 29.5003 105.076C31.669 109.566 33.8377 114.057 36.1718 118.476C36.4672 119.036 36.762 119.598 37.0576 120.162C38.7963 123.479 40.5631 126.85 42.6531 129.973C43.2822 130.913 44.0774 131.999 44.9288 132.799C45.4198 133.26 44.9179 133.262 44.4735 133.263C44.3554 133.263 44.2413 133.263 44.1511 133.272C42.793 133.406 41.4472 133.442 40.0923 133.478C39.4508 133.496 38.8073 133.513 38.1594 133.541C37.8876 133.552 37.6152 133.564 37.3423 133.576C31.9273 133.81 26.3111 134.052 20.9334 133.438C19.6924 133.297 19.5789 133.014 19.5075 131.968C19.3829 130.144 18.6578 128.226 17.9704 126.408C17.7408 125.801 17.5155 125.205 17.3182 124.627C14.5127 116.417 12.7431 108.008 11.2257 99.5504C10.8544 97.4805 10.3174 95.4598 9.7793 93.435C9.4951 92.3655 9.2106 91.2949 8.95003 90.2153C8.82047 89.6785 8.72295 89.1314 8.62524 88.5832C8.44116 87.5505 8.25638 86.514 7.8554 85.5349C7.61787 84.955 6.17201 88.0953 6.12704 88.2204C5.20003 90.7992 4.53478 93.382 3.8639 95.9867C3.59734 97.0216 3.32989 98.0599 3.04479 99.1028C2.13513 102.43 1.10851 105.74 0.0777607 109.039C0.0525372 109.12 0.026606 109.2 0 109.28Z" fill="#42535D"/>
<path d="M428.977 48.8048C434.579 33.4703 441.229 18.3417 448.393 3.53571C448.67 2.96308 448.945 2.39003 449.22 1.81724C449.511 1.21093 449.802 0.604913 450.095 0H469.82C470.812 2.07975 471.851 4.1425 472.993 6.17C476.249 11.9518 479.121 17.8979 481.992 23.8436C484.161 28.3345 486.329 32.8251 488.663 37.2445C488.959 37.8039 489.254 38.3662 489.549 38.9302C491.288 42.2472 493.055 45.6178 495.145 48.7408C495.774 49.6808 496.569 50.7666 497.421 51.5669C497.912 52.0285 497.41 52.0297 496.965 52.0307C496.847 52.0309 496.733 52.0312 496.643 52.0401C495.285 52.1741 493.939 52.2101 492.584 52.2465C491.943 52.2637 491.299 52.2809 490.651 52.3086C490.379 52.3203 490.107 52.332 489.834 52.3438C484.419 52.5777 478.803 52.8202 473.425 52.2063C472.184 52.0647 472.071 51.7823 471.999 50.7357C471.875 48.9116 471.149 46.9937 470.462 45.1758C470.233 44.5688 470.007 43.973 469.81 43.3955C467.004 35.1849 465.235 26.776 463.717 18.3185C463.346 16.2486 462.809 14.2279 462.271 12.203C461.987 11.1336 461.702 10.063 461.442 8.98334C461.312 8.44654 461.215 7.89946 461.117 7.35129C460.933 6.31859 460.748 5.28202 460.347 4.30297C460.11 3.72303 458.664 6.86333 458.619 6.98843C457.692 9.56731 457.026 12.1501 456.356 14.7547C456.089 15.7896 455.822 16.828 455.537 17.8709C454.627 21.1984 453.6 24.5077 452.569 27.8071C452.038 29.5095 451.191 31.0558 450.339 32.6129C449.95 33.3223 449.561 34.034 449.199 34.7637C447.441 38.3114 445.884 41.9402 444.403 45.5822C444.372 45.6596 444.319 45.7988 444.251 45.9819C443.815 47.1424 442.719 50.0659 442.055 50.1731C441.244 50.3041 440.394 50.1419 439.562 49.9831C439.118 49.8983 438.679 49.8144 438.253 49.7766C437.632 49.7215 437.007 49.6534 436.379 49.5851C434.917 49.4257 433.442 49.2651 431.988 49.2651C430.811 49.2651 428.977 48.8048 428.977 48.8048Z" fill="#939878"/>
<path d="M306.478 500H281.59C281.974 499.351 282.364 498.704 282.761 498.059C283.877 496.247 285.122 494.491 286.367 492.736C288.042 490.373 289.716 488.012 291.075 485.516C291.12 485.433 291.199 485.25 291.305 485.002C291.927 483.551 293.497 479.889 294.917 481.149C300.741 486.32 303.724 493.201 306.478 500Z" fill="#939878"/>
<path d="M390.458 500H375.93C376.107 499.658 376.283 499.314 376.455 498.97C377.157 497.57 377.838 496.157 378.52 494.742C380.131 491.397 381.746 488.043 383.659 484.839C384.812 482.909 387.301 481.614 387.783 485.296C388.482 490.634 389.326 495.306 390.458 500Z" fill="#42535D"/>
<path d="M469.823 500H450.098C452.087 495.894 454.162 491.838 456.951 488.088C457.871 486.851 458.754 485.603 459.641 484.348L459.673 484.303C459.708 484.254 459.744 484.202 459.781 484.148C460.058 483.747 460.411 483.238 460.869 483.024C462.164 482.419 463.367 485.778 463.767 486.896C463.83 487.07 463.873 487.189 463.893 487.231C465.082 489.636 466.184 492.067 467.286 494.497C468.12 496.336 468.953 498.175 469.823 500Z" fill="#939878"/>
<path d="M500 405.461V438.261C499.465 439.87 498.658 441.345 497.845 442.829C497.457 443.539 497.067 444.25 496.706 444.98C494.948 448.528 493.391 452.157 491.91 455.799C491.878 455.876 491.826 456.015 491.757 456.198C491.322 457.359 490.225 460.282 489.562 460.389C488.75 460.52 487.901 460.358 487.069 460.199C486.625 460.115 486.185 460.031 485.759 459.993C485.139 459.938 484.513 459.87 483.886 459.801C482.423 459.642 480.949 459.481 479.494 459.481C478.318 459.481 476.484 459.021 476.484 459.021C482.085 443.687 488.735 428.558 495.899 413.752C496.176 413.179 496.452 412.606 496.727 412.034C497.787 409.826 498.846 407.622 500 405.461Z" fill="#42535D"/>
<path d="M500 238.94V271.74C499.465 273.35 498.658 274.824 497.845 276.309C497.457 277.018 497.067 277.73 496.706 278.459C494.948 282.007 493.391 285.636 491.91 289.278C491.878 289.355 491.826 289.495 491.757 289.678C491.322 290.838 490.225 293.762 489.562 293.869C488.75 294 487.901 293.838 487.069 293.679C486.625 293.594 486.185 293.51 485.759 293.472C485.139 293.417 484.513 293.349 483.886 293.281C482.423 293.122 480.949 292.961 479.494 292.961C478.318 292.961 476.484 292.501 476.484 292.501C482.085 277.166 488.735 262.037 495.899 247.232C496.176 246.659 496.452 246.086 496.727 245.513C497.787 243.305 498.846 241.101 500 238.94Z" fill="#939878"/>
<path d="M500 76.4766V109.277C499.465 110.886 498.658 112.361 497.845 113.845C497.457 114.554 497.067 115.266 496.706 115.996C494.948 119.543 493.391 123.172 491.91 126.814C491.878 126.891 491.826 127.031 491.757 127.214C491.322 128.374 490.225 131.298 489.562 131.405C488.75 131.536 487.901 131.374 487.069 131.215C486.625 131.13 486.185 131.046 485.759 131.009C485.139 130.953 484.513 130.885 483.886 130.817C482.423 130.658 480.949 130.497 479.494 130.497C478.318 130.497 476.484 130.037 476.484 130.037C482.085 114.702 488.735 99.5738 495.899 84.7678C496.176 84.1952 496.452 83.6222 496.727 83.0494C497.787 80.8415 498.846 78.6374 500 76.4766Z" fill="#42535D"/>
<path d="M98.1858 37.3416C99.2669 35.625 100.387 33.8455 101.451 31.7901C103.701 27.4392 106.581 23.3371 109.449 19.253C110.643 17.5527 111.834 15.8556 112.977 14.145C116.055 9.53841 119.066 4.86916 121.594 0H136.122C137.015 3.7068 138.088 7.42683 139.409 11.4982C140.5 14.8561 142.164 17.9642 143.835 21.0826C144.74 22.7724 145.647 24.4652 146.465 26.2025C147.72 28.8684 148.795 31.5759 149.872 34.2879C150.375 35.5534 150.878 36.8198 151.4 38.0835C151.702 38.8142 156.246 50.2812 155.093 50.5086C154.415 50.6424 153.618 50.6002 152.859 50.56C152.508 50.5414 152.166 50.5233 151.847 50.5233H143.782C143.657 50.5233 143.537 50.5235 143.421 50.5238C140.889 50.5285 140.186 50.5298 139.31 48.1265C136.949 41.6472 134.678 35.0411 132.801 28.4375C132.384 26.9687 132.059 25.3938 131.729 23.7911C130.997 20.2415 130.238 16.5558 128.38 13.5862C128.102 13.142 127.369 15.525 127.214 16.0284C127.2 16.0738 127.191 16.104 127.187 16.1153C126.274 18.8484 125.054 21.4865 123.742 24.085C122.27 27.0007 120.791 29.9219 119.204 32.79C117.91 35.1303 117.026 37.5827 116.141 40.0389C115.604 41.5308 115.066 43.0241 114.435 44.4946C114.378 44.6258 114.324 44.7857 114.266 44.9577C114.028 45.6554 113.723 46.5532 112.944 46.5532C112.486 46.5532 112.027 46.5508 111.568 46.5485C110.415 46.5427 109.261 46.5369 108.108 46.5679C105.893 46.6275 103.689 46.7879 101.492 46.9478C98.7436 47.1479 96.0052 47.3472 93.2695 47.3472C94.3897 43.3689 96.2224 40.4589 98.1858 37.3416Z" fill="#42535D"/>
<path d="M174.645 48.8047C180.247 33.4703 186.897 18.3417 194.061 3.5357C194.338 2.96308 194.613 2.39003 194.888 1.81724C195.179 1.21093 195.47 0.604911 195.763 0H215.489C216.48 2.07975 217.519 4.1425 218.661 6.17C221.917 11.9518 224.789 17.898 227.66 23.8437C229.829 28.3345 231.997 32.8251 234.332 37.2445C234.627 37.8039 234.922 38.3662 235.217 38.9302C236.956 42.2472 238.723 45.6178 240.813 48.7408C241.442 49.6808 242.237 50.7666 243.089 51.5669C243.58 52.0285 243.078 52.0296 242.633 52.0306C242.515 52.0309 242.401 52.0312 242.311 52.0401C240.953 52.1741 239.607 52.2101 238.252 52.2464C237.611 52.2636 236.967 52.2809 236.319 52.3086C236.047 52.3202 235.775 52.332 235.502 52.3438C230.087 52.5777 224.471 52.8202 219.093 52.2063C217.852 52.0647 217.739 51.7823 217.667 50.7357C217.543 48.9116 216.818 46.9937 216.13 45.1758C215.901 44.5688 215.675 43.973 215.478 43.3955C212.673 35.1848 210.903 26.776 209.386 18.3185C209.014 16.2486 208.477 14.2279 207.939 12.203C207.655 11.1336 207.37 10.063 207.11 8.98333C206.98 8.44654 206.883 7.89946 206.785 7.35129C206.601 6.31859 206.416 5.28202 206.015 4.30297C205.778 3.72303 204.332 6.86332 204.287 6.98843C203.36 9.56731 202.695 12.1501 202.024 14.7547C201.757 15.7896 201.49 16.828 201.205 17.8709C200.295 21.1984 199.268 24.5077 198.238 27.8071C197.706 29.5095 196.859 31.0558 196.007 32.6129C195.618 33.3223 195.229 34.034 194.867 34.7637C193.109 38.3114 191.552 41.9402 190.071 45.5822C190.04 45.6595 189.987 45.7988 189.919 45.9819C189.483 47.1424 188.387 50.0659 187.723 50.173C186.912 50.3041 186.062 50.1419 185.23 49.9831C184.786 49.8983 184.347 49.8144 183.921 49.7766C183.3 49.7215 182.675 49.6534 182.048 49.5851C180.585 49.4257 179.11 49.2651 177.656 49.2651C176.479 49.2651 174.645 48.8047 174.645 48.8047Z" fill="#42535D"/>
<path d="M323.554 38.243C322.736 36.9193 321.89 35.5486 321.019 33.7611C317.279 26.0857 314.038 18.279 310.789 10.4517C310.006 8.56635 309.223 6.67986 308.432 4.79371C307.935 3.60835 307.451 2.40688 306.964 1.19943C306.803 0.80015 306.641 0.400219 306.479 0H281.591C279.307 3.86456 277.255 7.81177 275.359 11.8518C273.151 16.5567 271.615 21.4353 270.078 26.3165C268.916 30.0073 267.754 33.6996 266.3 37.3195C265.802 38.558 265.331 39.8059 264.86 41.0534C264.336 42.4409 263.812 43.8279 263.253 45.201C262.963 45.9123 262.656 46.7497 262.656 47.5096C262.656 49.0744 264.949 49.1517 266.724 49.2116C267.217 49.2282 267.67 49.2435 268.022 49.2888C268.979 49.4118 269.921 49.6239 270.861 49.836C271.536 49.9881 272.211 50.1402 272.891 50.2593C275.318 50.6841 277.882 50.6227 280.344 50.5387C282.323 50.4711 283.303 49.5069 283.59 47.8478C284.288 43.8196 285.646 39.9616 287.005 36.1017C287.753 33.9788 288.5 31.8553 289.138 29.7027C289.843 27.3231 290.322 24.8994 290.801 22.4757C291.557 18.6515 292.312 14.8271 293.958 11.1754C294.134 10.7832 294.39 10.4144 294.645 10.0472C294.929 9.63734 295.212 9.22947 295.382 8.79327C295.805 7.70861 296.309 9.11117 296.667 10.1076C296.78 10.4209 296.878 10.6941 296.955 10.8372C298.542 13.7966 300.414 16.6037 302.286 19.4112C304.107 22.1426 305.928 24.8743 307.488 27.7471L307.505 27.7786C309.885 32.1602 311.95 35.9631 312.804 40.8191C313.037 42.1388 313.574 43.3336 314.12 44.5488C314.257 44.8524 314.394 45.1573 314.527 45.4657C314.684 45.831 314.901 46.2283 315.123 46.634C315.481 47.2905 315.851 47.9688 316.001 48.5683C316.119 49.039 326.911 49.8852 328.24 49.23C326.83 43.5489 325.255 40.9978 323.554 38.243Z" fill="#939878"/>
<path d="M352.518 37.3416C353.6 35.625 354.72 33.8455 355.784 31.7901C358.034 27.4392 360.914 23.3371 363.782 19.253C364.976 17.5527 366.167 15.8556 367.31 14.145C370.388 9.53841 373.399 4.86916 375.927 0H390.455C391.348 3.7068 392.421 7.42683 393.742 11.4982C394.833 14.8561 396.497 17.9642 398.168 21.0826C399.073 22.7724 399.98 24.4652 400.798 26.2025C402.053 28.8684 403.128 31.5759 404.205 34.2879C404.708 35.5534 405.211 36.8198 405.733 38.0835C406.035 38.8142 410.579 50.2812 409.426 50.5086C408.748 50.6424 407.951 50.6002 407.192 50.56C406.841 50.5414 406.499 50.5233 406.18 50.5233H398.115C397.99 50.5233 397.87 50.5235 397.754 50.5238C395.222 50.5285 394.519 50.5298 393.643 48.1265C391.282 41.6472 389.011 35.0411 387.134 28.4375C386.717 26.9687 386.392 25.3938 386.062 23.7911C385.33 20.2415 384.571 16.5558 382.712 13.5862C382.435 13.142 381.702 15.525 381.547 16.0284C381.533 16.0738 381.524 16.104 381.52 16.1153C380.607 18.8484 379.387 21.4865 378.075 24.085C376.603 27.0007 375.124 29.9219 373.537 32.79C372.243 35.1303 371.359 37.5827 370.474 40.0389C369.937 41.5308 369.399 43.0241 368.768 44.4946C368.711 44.6258 368.657 44.7857 368.599 44.9577C368.361 45.6554 368.056 46.5532 367.277 46.5532C366.819 46.5532 366.36 46.5508 365.901 46.5485C364.748 46.5427 363.593 46.5369 362.441 46.5679C360.226 46.6275 358.022 46.7879 355.825 46.9478C353.076 47.1479 350.338 47.3472 347.602 47.3472C348.722 43.3689 350.555 40.4589 352.518 37.3416Z" fill="#42535D"/>
<path d="M54.9701 500H30.082C32.8359 493.201 35.8196 486.32 41.6431 481.149C43.0627 479.889 44.6328 483.551 45.2552 485.002C45.3612 485.25 45.4397 485.433 45.4853 485.516C46.844 488.012 48.5183 490.373 50.1931 492.736C51.4379 494.491 52.6831 496.247 53.7992 498.059C54.1962 498.704 54.5864 499.351 54.9701 500Z" fill="#939878"/>
<path d="M136.122 500H121.594C121.771 499.658 121.947 499.314 122.119 498.97C122.822 497.57 123.502 496.157 124.184 494.742C125.795 491.397 127.411 488.043 129.324 484.839C130.476 482.909 132.965 481.614 133.447 485.296C134.146 490.634 134.99 495.306 136.122 500Z" fill="#42535D"/>
<path d="M215.488 500H195.762C197.751 495.894 199.826 491.838 202.615 488.088C203.535 486.851 204.418 485.603 205.305 484.348L205.337 484.303C205.372 484.254 205.408 484.202 205.445 484.148C205.722 483.747 206.075 483.238 206.533 483.024C207.828 482.419 209.031 485.778 209.432 486.896C209.494 487.07 209.537 487.189 209.557 487.231C210.746 489.636 211.848 492.067 212.95 494.497C213.784 496.336 214.617 498.175 215.488 500Z" fill="#42535D"/>
<path d="M0 438.265V405.463C1.31423 403.001 2.75186 400.596 4.45628 398.304C5.37615 397.068 6.25912 395.819 7.14613 394.565L7.17846 394.519C7.21303 394.47 7.24888 394.418 7.28608 394.365C7.56352 393.964 7.91598 393.454 8.37391 393.24C9.66879 392.635 10.8723 395.995 11.2727 397.112C11.335 397.286 11.3778 397.406 11.3986 397.448C12.5871 399.852 13.6895 402.283 14.7912 404.714C16.5751 408.648 18.3574 412.579 20.5013 416.386C23.7573 422.168 26.6289 428.114 29.5003 434.06C31.669 438.551 33.8377 443.041 36.1718 447.461C36.4672 448.02 36.762 448.583 37.0576 449.146C38.7963 452.464 40.5631 455.834 42.6531 458.957C43.2822 459.897 44.0774 460.983 44.9288 461.783C45.4198 462.245 44.9179 462.246 44.4735 462.247C44.3554 462.247 44.2413 462.247 44.1511 462.256C42.793 462.39 41.4472 462.426 40.0923 462.463C39.4508 462.48 38.8073 462.497 38.1594 462.525C37.8876 462.537 37.6152 462.548 37.3423 462.56C31.9273 462.794 26.3111 463.037 20.9334 462.423C19.6924 462.281 19.5789 461.999 19.5075 460.952C19.3829 459.128 18.6578 457.21 17.9704 455.392C17.7408 454.785 17.5155 454.189 17.3182 453.612C14.5127 445.401 12.7431 436.992 11.2257 428.535C10.8544 426.465 10.3174 424.444 9.7793 422.419C9.4951 421.35 9.2106 420.279 8.95003 419.2C8.82047 418.663 8.72295 418.116 8.62524 417.568C8.44116 416.535 8.25638 415.498 7.8554 414.519C7.61787 413.939 6.17201 417.08 6.12704 417.205C5.20004 419.784 4.53478 422.366 3.86391 424.971C3.59734 426.006 3.3299 427.044 3.04479 428.087C2.13513 431.415 1.10851 434.724 0.0777607 438.023C0.0525372 438.104 0.026606 438.185 0 438.265Z" fill="#42535D"/>
<path d="M0 271.744V238.942C1.31423 236.481 2.75186 234.075 4.45628 231.784C5.37615 230.547 6.25912 229.298 7.14613 228.044L7.17846 227.999C7.21303 227.95 7.24888 227.898 7.28608 227.844C7.56352 227.443 7.91598 226.934 8.37391 226.72C9.66879 226.115 10.8723 229.474 11.2727 230.592C11.335 230.765 11.3778 230.885 11.3986 230.927C12.5871 233.331 13.6895 235.763 14.7912 238.193C16.5751 242.128 18.3574 246.059 20.5013 249.866C23.7573 255.648 26.6289 261.594 29.5003 267.539C31.669 272.03 33.8377 276.521 36.1718 280.94C36.4672 281.5 36.762 282.062 37.0576 282.626C38.7963 285.943 40.5631 289.314 42.6531 292.437C43.2822 293.377 44.0774 294.462 44.9288 295.263C45.4198 295.724 44.9179 295.725 44.4735 295.726C44.3554 295.727 44.2413 295.727 44.1511 295.736C42.793 295.87 41.4472 295.906 40.0923 295.942C39.4508 295.959 38.8073 295.977 38.1594 296.004C37.8876 296.016 37.6152 296.028 37.3423 296.04C31.9273 296.273 26.3111 296.516 20.9334 295.902C19.6924 295.76 19.5789 295.478 19.5075 294.432C19.3829 292.607 18.6578 290.69 17.9704 288.872C17.7408 288.265 17.5155 287.669 17.3182 287.091C14.5127 278.881 12.7431 270.472 11.2257 262.014C10.8544 259.944 10.3174 257.924 9.7793 255.899C9.4951 254.829 9.2106 253.759 8.95003 252.679C8.82047 252.142 8.72295 251.595 8.62524 251.047C8.44116 250.014 8.25638 248.978 7.8554 247.999C7.61787 247.419 6.17201 250.559 6.12704 250.684C5.20004 253.263 4.53478 255.846 3.86391 258.451C3.59734 259.485 3.3299 260.524 3.04479 261.567C2.13513 264.894 1.10851 268.203 0.0777607 271.503C0.0525372 271.584 0.026606 271.664 0 271.744Z" fill="#939878"/>
<path d="M13.0102 38.243C13.8276 36.9193 14.6741 35.5486 15.5451 33.7611C19.285 26.0857 22.5258 18.2791 25.7752 10.4518C26.5579 8.56643 27.341 6.6799 28.1318 4.79371C28.6287 3.60837 29.1134 2.40687 29.6004 1.19944L29.6008 1.19846C29.7617 0.799502 29.9229 0.399895 30.0849 0H54.973C57.2566 3.86456 59.3091 7.81177 61.205 11.8518C63.413 16.5567 64.949 21.4353 66.4858 26.3165C67.6478 30.0073 68.8103 33.6997 70.2642 37.3195C70.7616 38.558 71.2329 39.8059 71.7041 41.0534C72.2282 42.4408 72.7521 43.828 73.3115 45.201C73.6012 45.9123 73.9077 46.7497 73.9077 47.5096C73.9077 49.0744 71.6148 49.1517 69.8397 49.2116C69.3472 49.2282 68.8945 49.2435 68.5418 49.2888L63.6727 50.2593C61.2463 50.6841 58.6822 50.6227 56.22 50.5387C54.2406 50.4711 53.2615 49.5069 52.974 47.8478C52.276 43.8196 50.9178 39.9616 49.5589 36.1017C48.8115 33.9788 48.0639 31.8553 47.4259 29.7027C46.7206 27.3231 46.2417 24.8994 45.7629 22.4757C44.9559 18.3912 44.3498 13.5516 41.9194 10.0472C41.6352 9.63734 41.3523 9.22947 41.1822 8.79327C40.7593 7.70861 40.2549 9.11118 39.8965 10.1076C38.6981 13.4398 36.2264 16.4891 34.2782 19.4112C32.4571 22.1426 30.6358 24.8743 29.0758 27.7471L29.0586 27.7786C26.6793 32.1602 24.6142 35.9631 23.7596 40.8191C23.5273 42.1388 22.9901 43.3336 22.4438 44.5488C22.3073 44.8524 22.1702 45.1573 22.0372 45.4657C21.8796 45.831 21.6628 46.2283 21.4415 46.634C21.0833 47.2905 20.7132 47.9688 20.5632 48.5683C20.4454 49.039 9.65255 49.8852 8.32422 49.23C9.7337 43.5489 11.3091 40.9978 13.0102 38.243Z" fill="#939878"/>
</svg>
