<svg width="500" height="500" viewBox="0 0 500 500" fill="none" xmlns="http://www.w3.org/2000/svg">
<path d="M500 13.0464C496.302 12.9638 492.835 12.8328 489.88 12.625C478.87 12.64 468.601 10.6857 458.357 8.73628C447.205 6.61389 436.082 4.49713 424.065 4.93315C414.084 5.29496 404.114 5.11555 394.17 3.86281C384.177 2.60401 374.032 2.33695 363.825 2.57883C352.889 2.83756 341.882 3.67702 330.912 4.51363C317.996 5.49871 305.132 6.47984 292.496 6.50436C278.035 6.53288 263.578 6.4426 249.128 6.35237C223.229 6.19064 197.351 6.02904 171.511 6.55174C144.661 7.09396 117.851 8.36787 91.099 11.1969C78.1803 12.5444 65.2257 13.1259 52.2658 13.3325C40.2514 13.5248 28.2323 13.3961 16.2334 13.2677C10.8174 13.2098 5.40547 13.1518 0 13.1235V8.54409C5.40734 8.5661 10.8211 8.61752 16.239 8.66899C28.2168 8.78277 40.2148 8.89675 52.208 8.69341C65.0655 8.47672 77.9168 7.89519 90.7322 6.54871C117.588 3.76606 144.498 2.51734 171.447 2.05373C197.35 1.60784 223.289 1.87962 249.25 2.15162C263.659 2.3026 278.076 2.45365 292.496 2.48207C305.119 2.50659 317.973 1.57597 330.879 0.641605C333.886 0.42393 336.896 0.206052 339.906 0H392.429C393.126 0.0809653 393.822 0.166499 394.517 0.256758C404.313 1.52966 414.138 1.74433 423.974 1.4198C436.041 1.02151 447 2.95007 458.001 4.88596C468.045 6.65343 478.124 8.427 489.112 8.44143C490.721 8.4428 492.923 8.4724 495.49 8.50691C496.897 8.52581 498.412 8.54619 500 8.5642V13.0464Z" fill="#D88D3A"/>
<path d="M0 22.5974V20.1291C18.3693 19.6685 39.0563 19.6101 60.3546 19.55C81.8666 19.4893 104.002 19.4269 125.003 18.9465C171.012 17.9226 216.845 17.7213 262.664 18.3823C308.483 19.0425 354.284 20.565 400.235 22.711C411.712 23.2501 422.523 22.9115 433.394 22.5711C442.793 22.2768 452.236 21.9811 462.192 22.25C469.762 22.4543 476.114 21.822 482.531 21.1831C488.035 20.6352 493.588 20.0824 500 20.0485V22.636C493.341 22.6802 487.846 23.21 482.252 23.7493C476.187 24.334 470.008 24.9298 462.106 24.9298C452.132 24.684 442.672 25.0044 433.256 25.3232C422.377 25.6917 411.557 26.0581 400.072 25.5469C354.155 23.493 308.387 22.1546 262.608 21.4936C216.833 20.8319 171.046 20.8475 125.078 21.7761C104.107 22.1865 82.0063 22.1884 60.5247 22.1904C39.1638 22.1923 18.4154 22.1941 0 22.5974Z" fill="#42535D"/>
<path d="M500 42.5266C485.611 42.5266 473.111 42.484 461.763 42.4453C453.693 42.4177 446.205 42.3921 439.033 42.3853C413.164 42.3502 387.322 42.0755 361.498 41.4949C335.662 40.9135 309.843 40.027 284.03 38.7776C276.965 38.435 269.798 38.3313 262.614 38.3875C251.884 38.4718 241.114 38.9134 230.583 39.4487C221.224 39.9248 211.593 40.0755 201.968 39.9748C192.325 39.8749 182.688 39.5221 173.338 38.9883C165.818 38.5599 158.283 38.485 150.741 38.5895C143.057 38.6968 135.366 38.9919 127.679 39.2867L127.678 39.2868L127.673 39.2869C117.906 39.6616 108.147 40.036 98.417 40.0247C94.8284 40.0256 91.2196 40.0214 87.5951 40.0172C69.8862 39.9963 51.8025 39.975 33.8611 40.5554C22.473 40.9237 11.1421 41.5349 0 42.5397V46.1228C11.1874 45.1129 22.5674 44.5067 34.0055 44.1443C51.8953 43.5772 69.9267 43.6079 87.585 43.638H87.5889C91.2155 43.6441 94.8263 43.6502 98.417 43.6511C108.169 43.6397 117.949 43.2416 127.737 42.8433L127.739 42.8432L127.742 42.843C135.43 42.5301 143.122 42.2171 150.808 42.0911C158.247 41.9686 165.679 42.0224 173.096 42.4267C182.515 42.9386 192.219 43.2679 201.929 43.3405C211.642 43.4131 221.358 43.2297 230.799 42.7193C241.27 42.1535 251.98 41.6806 262.652 41.5636C269.761 41.4863 276.853 41.5659 283.847 41.8835C309.697 43.0588 335.551 43.868 361.422 44.3768C387.272 44.8849 413.139 45.0933 439.033 45.0582C456.258 45.0426 482.484 45.5555 500 45.9995V42.5266Z" fill="#D88D3A"/>
<path d="M500 55.7928C490.358 55.7747 478.567 54.6754 466.869 53.5847C456.27 52.5964 445.747 51.6153 436.968 51.4521C418.499 51.1074 400.026 50.5893 381.643 49.8758C363.451 49.1693 345.228 48.9194 326.996 48.8821C312.917 48.8535 298.833 48.9495 284.755 49.0454L284.747 49.0455L284.734 49.0456H284.733C271.512 49.1357 258.295 49.2258 245.091 49.2126C233.023 49.2265 220.946 49.175 208.864 49.1235L208.854 49.1234H208.708C191.759 49.0514 174.803 48.9794 157.853 49.0857C138.438 49.2066 119.034 49.5664 99.661 50.4009C85.3149 51.0234 70.9843 51.9031 56.6565 52.7827C42.7991 53.6335 28.944 54.4841 15.0811 55.1015C10.0553 55.3252 5.02852 55.5183 0 55.6696V58.8121C5.06253 58.6839 10.1236 58.5133 15.1835 58.3115C29.0576 57.7573 42.9242 56.9685 56.7937 56.1795L56.7949 56.1794L56.8103 56.1781C71.1239 55.3637 85.4411 54.5492 99.7721 53.9918C119.113 53.2339 138.485 52.9638 157.866 52.9034C174.589 52.8506 191.318 52.9568 208.039 53.0629H208.041L208.045 53.063H208.101C220.437 53.1412 232.769 53.2194 245.091 53.2339C258.474 53.2191 271.87 53.1013 285.271 52.9835H285.276H285.337C303.769 52.8217 322.209 52.6599 340.636 52.7643C354.281 52.8419 367.919 53.0606 381.54 53.5433C399.943 54.1964 418.436 54.651 436.923 54.9392C445.664 55.0749 456.131 55.9392 466.682 56.8104C478.441 57.7814 490.305 58.761 500 58.7501V55.7928Z" fill="#42535D"/>
<path d="M500 77.1415C497.275 77.3082 494.424 77.4375 490.942 77.4375C460.559 77.3917 445.983 75.7807 422.289 73.162L422.288 73.1619L422.284 73.1615L422.274 73.1604C414.198 72.2678 405.062 71.2582 393.88 70.1536C367.763 67.5737 346.126 66.3752 335.95 66.3561C307.002 66.2976 278.049 66.9638 249.107 68.1128C205.706 69.8362 162.329 72.64 119.03 75.6756C111.956 76.1765 104.859 76.2783 97.7528 76.1886C90.1571 76.0931 82.5509 75.7731 74.9514 75.4533C65.8606 75.0708 56.7787 74.6887 47.7366 74.6919C43.2728 74.693 38.824 74.8109 34.3846 75.0004C27.7222 75.2842 21.0804 75.7282 14.4409 76.172C9.62871 76.4937 4.81698 76.8154 0 77.0759V81.6748C4.8757 81.4181 9.7453 81.098 14.6161 80.7778C25.6219 80.0543 36.634 79.3304 47.7366 79.3361C56.6624 79.3393 65.6259 79.7264 74.5991 80.1138C82.3011 80.4464 90.0104 80.7792 97.7091 80.87C104.914 80.9557 112.11 80.8237 119.281 80.2986C162.539 77.1047 205.874 74.1477 249.238 72.258C278.134 70.9982 307.043 70.2121 335.95 70.1536C363.446 70.1061 381.431 72.5483 405.447 75.8094L405.45 75.8098C417.088 77.39 430.142 79.1625 446.38 80.9372C465.005 82.1247 477.144 82.1348 487.317 82.1247C491.206 82.1211 495.661 81.9367 500 81.6903V77.1415Z" fill="#D88D3A"/>
<path d="M500 97.4559C495.583 97.4208 491.305 97.4972 486.505 97.6245C478.355 97.8414 469.646 96.6129 460.977 95.3898L460.975 95.3897C453.092 94.2775 445.241 93.1698 437.871 93.1578C425.259 93.1377 412.66 93.0339 400.067 92.7285C387.48 92.4231 374.899 91.9152 362.317 91.0888C346.651 90.0607 330.937 89.6657 315.201 89.6435C296.657 89.6185 278.084 90.0932 259.53 90.5675C241.469 91.0292 223.425 91.4904 205.441 91.4899C181.861 91.5282 158.284 92.1329 134.713 93.0097C115.128 93.7381 95.5471 94.6517 75.9701 95.5651L75.9584 95.5658L75.9536 95.566C60.215 96.3003 44.479 97.0344 28.746 97.672C21.8946 97.951 14.9406 97.7784 7.96638 97.6054L7.96518 97.6053C5.31156 97.5395 2.65499 97.4736 0 97.4324V100.54C2.68616 100.594 5.37392 100.673 8.05872 100.752C15.033 100.958 21.9871 101.163 28.8406 100.916L134.811 96.7095C158.351 95.9224 181.895 95.3811 205.441 95.4194C223.709 95.4184 242.04 94.9559 260.387 94.493C278.656 94.032 296.942 93.5706 315.199 93.564C330.874 93.559 346.529 93.8744 362.135 94.846C374.758 95.6321 387.379 96.0987 400.005 96.3628C412.619 96.6268 425.238 96.6914 437.871 96.6702C445.216 96.6587 453.023 97.6066 460.863 98.5586C469.564 99.6151 478.307 100.677 486.505 100.437C490.967 100.307 495.519 100.358 500 100.505V97.4559Z" fill="#42535D"/>
<path d="M500 111.661L490.737 111.566C479.764 111.552 469.329 109.772 458.912 107.994H458.911C447.473 106.043 436.056 104.095 423.974 104.494C414.137 104.818 404.313 104.603 394.517 103.33C384.392 102.016 374.111 101.704 363.763 101.909C352.839 102.126 341.841 102.922 330.88 103.715H330.878C317.972 104.65 305.118 105.58 292.496 105.556C278.078 105.527 263.665 105.376 249.258 105.225H249.25H249.237C223.281 104.953 197.346 104.682 171.447 105.127C144.498 105.591 117.588 106.84 90.7322 109.622C77.9167 110.969 65.0654 111.55 52.208 111.767C40.2248 111.97 28.2371 111.857 16.2696 111.743H16.2671H16.2023H16.1861H16.184C10.7844 111.691 5.38901 111.64 0 111.618V116.197C5.40558 116.226 10.8176 116.283 16.2338 116.341C28.2325 116.47 40.2515 116.598 52.2657 116.406C65.2256 116.2 78.1802 115.618 91.0989 114.271C117.851 111.442 144.661 110.168 171.511 109.625C197.345 109.103 223.217 109.264 249.11 109.426H249.128C263.578 109.516 278.035 109.607 292.496 109.578C305.131 109.554 317.996 108.572 330.912 107.587H330.913C341.883 106.751 352.889 105.911 363.825 105.653C374.032 105.411 384.177 105.678 394.17 106.937C404.114 108.189 414.084 108.369 424.065 108.007C436.099 107.57 448.308 109.81 460.501 112.046C471.669 114.094 482.824 116.14 493.817 116.125C495.521 116.124 497.621 116.156 500 116.194V111.661Z" fill="#D88D3A"/>
<path d="M500 134.873V138.085C489.364 138.555 486.389 138.415 480.427 138.134C478.062 138.022 475.226 137.888 471.255 137.762C461.058 137.437 449.217 138.369 437.3 139.307C424.094 140.347 410.794 141.394 399.533 140.747C353.615 138.094 307.848 136.366 262.068 135.512C216.294 134.657 170.507 134.677 124.538 135.877C104.98 136.371 84.7588 136.628 65.0094 136.879H65.0028C42.111 137.171 19.8539 137.454 0 138.088V134.905C19.7451 134.191 41.8639 133.83 64.6176 133.459H64.6198C84.4692 133.135 104.802 132.803 124.463 132.222C170.473 130.9 216.306 130.64 262.125 131.494C307.943 132.346 353.744 134.313 399.696 137.084C410.945 137.767 424.232 136.755 437.425 135.751C449.329 134.845 461.157 133.945 471.342 134.301L472.354 134.336C485.333 134.788 487.151 134.852 500 134.873Z" fill="#42535D"/>
<path d="M0 163.288C5.40125 163.31 10.809 163.361 16.2209 163.413H16.2239H16.2437C28.2198 163.526 40.2163 163.64 52.208 163.437C65.0654 163.22 77.9167 162.639 90.7322 161.292C117.588 158.51 144.498 157.261 171.447 156.797C197.35 156.352 223.288 156.623 249.248 156.895C263.658 157.046 278.075 157.197 292.496 157.226C305.117 157.25 317.97 156.32 330.874 155.385H330.875H330.879C341.84 154.592 352.838 153.795 363.763 153.579C374.111 153.374 384.392 153.686 394.517 155C404.313 156.273 414.138 156.488 423.974 156.163C436.041 155.765 447 157.694 458.001 159.63C468.044 161.397 478.124 163.171 489.112 163.185C490.711 163.186 492.897 163.216 495.445 163.25H495.453H495.466L495.472 163.251H495.498C496.902 163.269 498.415 163.29 500 163.308V167.79C496.302 167.707 492.835 167.576 489.88 167.369C478.87 167.384 468.602 165.429 458.358 163.48C447.205 161.358 436.082 159.241 424.065 159.677C414.084 160.039 404.114 159.859 394.17 158.606C384.177 157.348 374.032 157.081 363.825 157.323C352.889 157.581 341.882 158.421 330.913 159.257C317.997 160.242 305.131 161.223 292.496 161.248C278.048 161.276 263.604 161.186 249.167 161.096H249.164H249.156H249.113C223.219 160.934 197.347 160.773 171.511 161.295C144.661 161.838 117.851 163.112 91.099 165.941C78.1803 167.288 65.2257 167.87 52.2659 168.076C40.2561 168.268 28.2418 168.14 16.2477 168.011H16.2446H16.2098H16.2045H16.2032C10.7972 167.953 5.39538 167.895 0 167.867V163.288Z" fill="#D88D3A"/>
<path d="M0 174.873V177.341C18.4154 176.938 39.1638 176.936 60.5249 176.934C82.0065 176.932 104.107 176.93 125.078 176.52C171.046 175.591 216.833 175.576 262.608 176.237C308.387 176.898 354.155 178.237 400.072 180.291C411.545 180.802 422.354 180.435 433.221 180.067H433.222H433.256C442.672 179.748 452.132 179.428 462.106 179.673C470.008 179.673 476.187 179.078 482.252 178.493C487.845 177.954 493.342 177.424 500 177.38V174.792C493.588 174.826 488.035 175.379 482.531 175.927C476.114 176.566 469.763 177.198 462.192 176.994C452.238 176.725 442.796 177.02 433.398 177.315H433.394H433.369H433.368C422.506 177.655 411.703 177.994 400.235 177.455C354.284 175.309 308.483 173.786 262.664 173.126C216.845 172.465 171.012 172.666 125.003 173.69C104.005 174.17 81.8723 174.233 60.3628 174.294H60.3098C39.0277 174.354 18.3572 174.412 0 174.873Z" fill="#42535D"/>
<path d="M500 197.271C485.608 197.271 473.107 197.228 461.757 197.189C453.689 197.162 446.203 197.136 439.033 197.129C413.164 197.094 387.322 196.82 361.498 196.239C335.662 195.658 309.843 194.771 284.03 193.522C276.965 193.179 269.798 193.075 262.614 193.132C251.884 193.216 241.114 193.658 230.583 194.193C221.224 194.669 211.593 194.82 201.968 194.719C192.325 194.619 182.688 194.266 173.338 193.732C165.818 193.304 158.283 193.229 150.741 193.334C143.072 193.441 135.396 193.736 127.725 194.031H127.72H127.674C117.907 194.406 108.147 194.78 98.417 194.769C94.8282 194.77 91.2194 194.766 87.5947 194.761C69.886 194.74 51.8024 194.719 33.8611 195.299C22.473 195.668 11.1421 196.279 0 197.284V200.867C11.1874 199.857 22.5674 199.251 34.0055 198.888C51.8961 198.321 69.9283 198.352 87.5872 198.382H87.5905H87.646C91.2534 198.388 94.8452 198.394 98.417 198.395C108.168 198.384 117.947 197.986 127.734 197.588L127.738 197.587H127.739C135.428 197.274 143.121 196.961 150.808 196.835C158.247 196.713 165.679 196.767 173.096 197.171C182.515 197.683 192.219 198.012 201.929 198.085C211.642 198.157 221.358 197.974 230.799 197.464C241.27 196.898 251.98 196.425 262.652 196.308C269.761 196.23 276.853 196.31 283.847 196.628C309.697 197.803 335.551 198.612 361.422 199.121C387.272 199.629 413.139 199.837 439.033 199.802C456.258 199.787 482.484 200.3 500 200.744V197.271Z" fill="#D88D3A"/>
<path d="M500 210.536C490.358 210.518 478.568 209.419 466.87 208.328H466.867C456.268 207.34 445.746 206.359 436.968 206.196C418.499 205.851 400.026 205.333 381.643 204.619C363.451 203.913 345.228 203.663 326.996 203.626C312.915 203.597 298.828 203.693 284.747 203.789H284.589H284.577H284.576C271.407 203.879 258.242 203.969 245.091 203.956C232.974 203.97 220.848 203.919 208.717 203.867C191.765 203.795 174.806 203.723 157.853 203.829C138.438 203.95 119.034 204.31 99.661 205.145C85.3147 205.767 70.9838 206.647 56.6559 207.526C42.7985 208.377 28.944 209.228 15.0811 209.845C10.0553 210.069 5.02852 210.262 0 210.413V213.556C5.06253 213.428 10.1236 213.257 15.1835 213.055C29.0256 212.502 42.8602 211.715 56.6978 210.927H56.7057L56.8104 210.922H56.8295H56.831C71.1379 210.107 85.4478 209.293 99.7721 208.735C119.113 207.978 138.485 207.708 157.866 207.647C174.591 207.594 191.323 207.7 208.047 207.807H208.051H208.103H208.118C220.449 207.885 232.775 207.963 245.091 207.978C258.496 207.963 271.914 207.845 285.337 207.727C303.768 207.565 322.209 207.404 340.636 207.508C354.281 207.586 367.919 207.804 381.54 208.287C399.943 208.94 418.436 209.395 436.923 209.683C445.664 209.819 456.131 210.683 466.682 211.554H466.683C478.442 212.525 490.306 213.505 500 213.494V210.536Z" fill="#42535D"/>
<path d="M500 231.885C497.275 232.052 494.424 232.181 490.942 232.181C460.559 232.135 445.983 230.524 422.289 227.906L422.286 227.905H422.28L422.258 227.902C414.186 227.01 405.054 226.001 393.88 224.897C367.763 222.317 346.126 221.119 335.95 221.1C307.002 221.041 278.049 221.707 249.107 222.856C205.706 224.58 162.329 227.384 119.03 230.419C111.956 230.92 104.859 231.022 97.7528 230.932C90.157 230.837 82.5507 230.517 74.951 230.197C65.8601 229.814 56.7788 229.432 47.7366 229.436C43.2728 229.437 38.824 229.555 34.3846 229.744C27.7234 230.028 21.0829 230.472 14.4446 230.915L14.4402 230.916H14.4387H14.4358H14.4327H14.4316C9.62229 231.238 4.81411 231.559 0 231.82V236.418C4.87587 236.162 9.74569 235.842 14.6167 235.521C25.6222 234.798 36.6344 234.074 47.7366 234.08C56.6621 234.083 65.6254 234.47 74.5985 234.857L74.6044 234.858C82.3047 235.19 90.0121 235.523 97.7091 235.614C104.914 235.699 112.11 235.567 119.281 235.042C162.539 231.848 205.874 228.891 249.238 227.002C278.134 225.742 307.043 224.956 335.95 224.897C363.446 224.85 381.432 227.292 405.448 230.553L405.45 230.554H405.454L405.463 230.555L405.476 230.557C417.107 232.136 430.154 233.908 446.38 235.681C465.005 236.868 477.144 236.878 487.317 236.868C491.206 236.865 495.661 236.68 500 236.434V231.885Z" fill="#D88D3A"/>
<path d="M500 252.2C495.583 252.165 491.305 252.241 486.505 252.369C478.355 252.586 469.646 251.357 460.977 250.134C453.093 249.022 445.241 247.914 437.871 247.902C425.259 247.882 412.66 247.778 400.067 247.473C387.48 247.167 374.899 246.659 362.317 245.833C346.651 244.805 330.937 244.41 315.201 244.388C296.658 244.363 278.087 244.837 259.533 245.311L259.529 245.312H259.521H259.52C241.462 245.773 223.422 246.234 205.441 246.234C181.861 246.272 158.284 246.877 134.713 247.754C115.127 248.482 95.545 249.396 75.9672 250.309L75.9357 250.311H75.9269H75.9253C60.1961 251.045 44.4696 251.779 28.746 252.416C21.8959 252.695 14.9433 252.523 7.9703 252.35H7.96582C5.31201 252.284 2.65522 252.218 0 252.177V255.284C2.68616 255.337 5.37392 255.417 8.05872 255.496C15.033 255.702 21.9871 255.907 28.8406 255.659L134.811 251.454C158.351 250.667 181.895 250.125 205.441 250.164C223.709 250.163 242.04 249.7 260.387 249.237H260.399H260.401C278.666 248.776 296.947 248.315 315.199 248.308C330.874 248.303 346.529 248.619 362.135 249.59C374.758 250.376 387.379 250.843 400.005 251.107C412.619 251.371 425.238 251.435 437.871 251.414C445.216 251.403 453.023 252.351 460.863 253.303C469.564 254.359 478.307 255.421 486.505 255.181C490.967 255.051 495.519 255.101 500 255.249V252.2Z" fill="#42535D"/>
<path d="M500 266.405L490.737 266.31C479.763 266.296 469.328 264.515 458.911 262.738C447.472 260.786 436.056 258.838 423.974 259.237C414.137 259.562 404.313 259.347 394.517 258.074C384.392 256.76 374.111 256.448 363.763 256.653C352.838 256.869 341.84 257.665 330.879 258.459H330.868H330.867C317.965 259.393 305.115 260.324 292.496 260.299C278.075 260.271 263.658 260.12 249.248 259.969C223.288 259.697 197.35 259.425 171.447 259.871C144.498 260.335 117.588 261.583 90.7322 264.366C77.9167 265.713 65.0654 266.294 52.208 266.511C40.2162 266.714 28.2198 266.6 16.2437 266.486H16.1914C10.7893 266.435 5.39148 266.384 0 266.362V270.941C5.38381 270.969 10.774 271.027 16.1684 271.085H16.1742H16.2651C28.2534 271.214 40.2619 271.342 52.2657 271.15C65.2256 270.943 78.1802 270.362 91.0989 269.014C117.851 266.185 144.661 264.911 171.511 264.369C197.343 263.846 223.211 264.008 249.102 264.17H249.222C263.641 264.26 278.066 264.35 292.496 264.322C305.131 264.297 317.996 263.316 330.912 262.331C341.882 261.494 352.889 260.655 363.825 260.396C374.032 260.154 384.177 260.421 394.17 261.68C404.114 262.933 414.084 263.112 424.065 262.751C436.098 262.314 448.308 264.553 460.501 266.789C471.669 268.838 482.824 270.884 493.817 270.869C495.521 270.867 497.62 270.9 500 270.938V266.405Z" fill="#D88D3A"/>
<path d="M500 289.617V292.829C489.364 293.299 486.389 293.159 480.427 292.877C478.062 292.766 475.226 292.632 471.255 292.505C461.058 292.181 449.218 293.113 437.301 294.051H437.299H437.298C424.093 295.091 410.794 296.138 399.533 295.49C353.615 292.838 307.848 291.109 262.068 290.256C216.294 289.401 170.507 289.421 124.538 290.62C104.977 291.115 84.7529 291.372 65.0011 291.623H64.9974C42.1074 291.914 19.8523 292.197 0 292.832V289.648C19.74 288.935 41.8526 288.574 64.6 288.203H64.6165H64.6323C84.4779 287.879 104.806 287.547 124.463 286.966C170.473 285.644 216.306 285.384 262.125 286.237C307.943 287.09 353.744 289.056 399.696 291.828C410.944 292.51 424.232 291.499 437.425 290.495C449.329 289.589 461.157 288.689 471.342 289.044L472.354 289.08H472.355C485.333 289.532 487.151 289.596 500 289.617Z" fill="#42535D"/>
<path d="M0 319.952C5.40047 319.974 10.8074 320.026 16.2185 320.077H16.2437C28.2198 320.191 40.2163 320.305 52.208 320.102C65.0654 319.885 77.9167 319.303 90.7322 317.957C117.588 315.174 144.498 313.926 171.447 313.462C197.35 313.016 223.288 313.288 249.248 313.56C263.658 313.711 278.075 313.862 292.496 313.89C305.117 313.915 317.97 312.984 330.875 312.05H330.876H330.879C341.84 311.256 352.838 310.46 363.763 310.244C374.111 310.038 384.392 310.351 394.517 311.665C404.313 312.938 414.138 313.153 423.974 312.828C436.041 312.43 447 314.358 458.001 316.294C468.044 318.061 478.124 319.835 489.112 319.85C490.72 319.851 492.92 319.881 495.484 319.915H495.49H495.496C496.901 319.934 498.414 319.954 500 319.972V324.455C496.302 324.372 492.835 324.241 489.88 324.033C478.87 324.048 468.602 322.094 458.358 320.145C447.205 318.022 436.082 315.905 424.065 316.341C414.084 316.703 404.114 316.524 394.17 315.271C384.177 314.012 374.032 313.745 363.825 313.987C352.889 314.246 341.882 315.085 330.913 315.922C317.997 316.907 305.131 317.888 292.496 317.913C278.049 317.941 263.607 317.851 249.171 317.761H249.112C223.218 317.599 197.346 317.437 171.511 317.96C144.661 318.502 117.851 319.776 91.099 322.605C78.1803 323.953 65.2257 324.534 52.2659 324.741C40.2552 324.933 28.2398 324.804 16.2448 324.676H16.2157H16.2104C10.802 324.618 5.39778 324.56 0 324.532V319.952Z" fill="#D88D3A"/>
<path d="M0 331.537V334.006C18.4154 333.602 39.1638 333.6 60.5249 333.599C82.0065 333.597 104.107 333.595 125.078 333.184C171.046 332.256 216.833 332.24 262.608 332.902C308.387 333.563 354.155 334.901 400.072 336.955C411.546 337.466 422.354 337.1 433.222 336.732L433.224 336.731H433.256C442.672 336.413 452.132 336.092 462.106 336.338C470.008 336.338 476.187 335.742 482.252 335.158C487.845 334.618 493.342 334.088 500 334.044V331.457C493.588 331.491 488.035 332.043 482.531 332.591C476.114 333.23 469.763 333.862 462.192 333.658C452.238 333.389 442.796 333.685 433.398 333.979H433.394H433.369C422.506 334.32 411.703 334.658 400.235 334.119C354.284 331.973 308.483 330.451 262.664 329.79C216.845 329.129 171.012 329.331 125.003 330.355C104.005 330.835 81.8723 330.898 60.3628 330.958H60.3113C39.0287 331.018 18.3575 331.077 0 331.537Z" fill="#42535D"/>
<path d="M500 353.935C485.608 353.935 473.107 353.893 461.757 353.854C453.689 353.826 446.203 353.801 439.033 353.794C413.164 353.759 387.322 353.484 361.498 352.904C335.662 352.322 309.843 351.436 284.03 350.186C276.965 349.844 269.798 349.74 262.614 349.796C251.884 349.88 241.114 350.322 230.583 350.857C221.224 351.333 211.593 351.484 201.968 351.383C192.325 351.284 182.688 350.931 173.338 350.397C165.818 349.969 158.283 349.894 150.741 349.998C143.07 350.105 135.393 350.401 127.72 350.696H127.718H127.674C117.907 351.07 108.147 351.445 98.417 351.433C94.8282 351.434 91.2194 351.43 87.5947 351.426C69.886 351.405 51.8024 351.384 33.8611 351.964C22.473 352.332 11.1421 352.944 0 353.948V357.531C11.1874 356.522 22.5674 355.915 34.0055 355.553C51.8961 354.986 69.9283 355.017 87.5872 355.047H87.5905H87.646C91.2534 355.053 94.8452 355.059 98.417 355.06C108.168 355.048 117.947 354.65 127.734 354.252H127.738H127.739C135.428 353.939 143.121 353.626 150.808 353.5C158.247 353.377 165.679 353.431 173.096 353.835C182.515 354.347 192.219 354.677 201.929 354.749C211.642 354.822 221.358 354.638 230.799 354.128C241.27 353.562 251.98 353.089 262.652 352.972C269.761 352.895 276.853 352.975 283.847 353.292C309.697 354.467 335.551 355.277 361.422 355.786C387.272 356.294 413.139 356.502 439.033 356.467C456.258 356.451 482.484 356.964 500 357.408V353.935Z" fill="#D88D3A"/>
<path d="M500 367.201C490.358 367.183 478.568 366.084 466.87 364.993H466.867C456.268 364.005 445.746 363.023 436.968 362.86C418.499 362.516 400.026 361.998 381.643 361.284C363.451 360.578 345.228 360.328 326.996 360.29C312.915 360.262 298.828 360.358 284.747 360.454H284.602H284.589H284.588C271.415 360.544 258.246 360.634 245.091 360.621C232.974 360.635 220.848 360.583 208.717 360.532C191.765 360.46 174.806 360.388 157.853 360.494C138.438 360.615 119.034 360.975 99.661 361.809C85.3147 362.432 70.9838 363.311 56.6559 364.191C42.7985 365.042 28.944 365.892 15.0811 366.51C10.0553 366.733 5.02852 366.927 0 367.078V370.22C5.06253 370.092 10.1236 369.921 15.1835 369.72C29.0283 369.167 42.8656 368.379 56.7058 367.591H56.7137L56.8104 367.586H56.828H56.8311H56.8326C71.1389 366.772 85.4483 365.957 99.7721 365.4C119.113 364.642 138.485 364.372 157.866 364.312C174.59 364.259 191.321 364.365 208.044 364.471H208.103H208.118C220.449 364.549 232.775 364.628 245.091 364.642C258.496 364.627 271.914 364.51 285.337 364.392C303.768 364.23 322.209 364.068 340.636 364.172C354.281 364.25 367.919 364.469 381.54 364.952C399.943 365.605 418.436 366.059 436.923 366.347C445.664 366.483 456.131 367.347 466.682 368.219H466.683C478.442 369.19 490.306 370.169 500 370.158V367.201Z" fill="#42535D"/>
<path d="M500 388.55C497.275 388.716 494.424 388.846 490.942 388.846C460.559 388.8 445.983 387.189 422.289 384.57H422.286L422.28 384.569L422.258 384.567C414.186 383.675 405.054 382.666 393.88 381.562C367.763 378.982 346.126 377.783 335.95 377.764C307.002 377.706 278.049 378.372 249.107 379.521C205.706 381.244 162.329 384.048 119.03 387.084C111.956 387.585 104.859 387.687 97.7528 387.597C90.157 387.501 82.5507 387.181 74.951 386.862C65.8601 386.479 56.7788 386.097 47.7366 386.1C43.2728 386.101 38.824 386.219 34.3846 386.409C27.7234 386.692 21.0829 387.136 14.4446 387.58H14.4402H14.4387L14.4358 387.581H14.4327C9.62304 387.902 4.81449 388.224 0 388.484V393.083C4.87587 392.826 9.74569 392.506 14.6167 392.186H14.618C25.6232 391.463 36.6347 390.739 47.7366 390.744C56.6621 390.748 65.6254 391.135 74.5985 391.522H74.6044C82.3047 391.855 90.0121 392.187 97.7091 392.278C104.914 392.364 112.11 392.232 119.281 391.707C162.539 388.513 205.874 385.556 249.238 383.666C278.134 382.406 307.043 381.62 335.95 381.562C363.446 381.514 381.432 383.957 405.448 387.218H405.45L405.454 387.219L405.463 387.22L405.476 387.222C417.107 388.801 430.154 390.572 446.38 392.345C465.005 393.533 477.144 393.543 487.317 393.533C491.206 393.529 495.661 393.345 500 393.099V388.55Z" fill="#D88D3A"/>
<path d="M500 408.865C495.583 408.83 491.305 408.906 486.505 409.033C478.355 409.25 469.646 408.022 460.977 406.799L460.976 406.798C453.092 405.686 445.241 404.579 437.871 404.567C425.259 404.546 412.66 404.443 400.067 404.137C387.48 403.832 374.899 403.324 362.317 402.497C346.651 401.469 330.937 401.074 315.201 401.052C296.658 401.027 278.087 401.502 259.533 401.976H259.529H259.521H259.52C241.462 402.438 223.422 402.899 205.441 402.899C181.861 402.937 158.284 403.542 134.713 404.418C115.127 405.147 95.545 406.06 75.9672 406.974L75.9357 406.975H75.9283H75.9268L75.9231 406.976C60.1946 407.71 44.4688 408.443 28.746 409.081C21.8964 409.36 14.9444 409.187 7.97194 409.014H7.96582C5.31201 408.948 2.65522 408.882 0 408.841V411.948C2.68616 412.002 5.37392 412.081 8.05872 412.16C15.033 412.366 21.9871 412.571 28.8406 412.324L134.811 408.118C158.351 407.331 181.895 406.79 205.441 406.828C223.709 406.827 242.04 406.365 260.387 405.902H260.403C278.667 405.441 296.947 404.979 315.199 404.973C330.874 404.968 346.529 405.283 362.135 406.255C374.758 407.041 387.379 407.507 400.005 407.771C412.619 408.036 425.238 408.1 437.871 408.079C445.216 408.067 453.023 409.015 460.863 409.967C469.564 411.024 478.307 412.085 486.505 411.846C490.967 411.716 495.519 411.766 500 411.914V408.865Z" fill="#42535D"/>
<path d="M500 423.07L490.737 422.975C479.763 422.96 469.328 421.18 458.911 419.402C447.472 417.451 436.056 415.503 423.974 415.902C414.137 416.226 404.313 416.012 394.517 414.739C384.392 413.424 374.111 413.112 363.763 413.318C352.838 413.534 341.84 414.33 330.879 415.123H330.869L330.868 415.124C317.966 416.058 305.115 416.989 292.496 416.964C278.075 416.936 263.658 416.785 249.248 416.634C223.288 416.362 197.35 416.09 171.447 416.536C144.498 416.999 117.588 418.248 90.7322 421.031C77.9167 422.377 65.0654 422.959 52.208 423.175C40.2162 423.379 28.2198 423.265 16.2437 423.151H16.1951C10.7918 423.1 5.39269 423.048 0 423.026V427.605C5.38577 427.634 10.778 427.692 16.1743 427.75H16.1801H16.2622C28.2514 427.878 40.2609 428.007 52.2657 427.814C65.2256 427.608 78.1802 427.026 91.0989 425.679C117.851 422.85 144.661 421.576 171.511 421.034C197.343 420.511 223.212 420.673 249.103 420.834H249.215C263.636 420.924 278.064 421.015 292.496 420.986C305.131 420.962 317.996 419.981 330.912 418.996C341.882 418.159 352.889 417.32 363.825 417.061C374.032 416.819 384.177 417.086 394.17 418.345C404.114 419.597 414.084 419.777 424.065 419.415C436.098 418.978 448.308 421.218 460.501 423.454C471.669 425.502 482.824 427.548 493.817 427.533C495.521 427.532 497.62 427.565 500 427.602V423.07Z" fill="#D88D3A"/>
<path d="M500 446.281V449.493C489.364 449.964 486.389 449.823 480.427 449.542C478.062 449.43 475.226 449.296 471.255 449.17C461.058 448.845 449.218 449.777 437.301 450.715L437.299 450.716H437.298C424.093 451.755 410.794 452.802 399.533 452.155C353.615 449.502 307.848 447.774 262.068 446.92C216.294 446.065 170.507 446.086 124.538 447.285C104.977 447.779 84.7529 448.036 65.0011 448.288H64.9974C42.1074 448.579 19.8523 448.862 0 449.497V446.313C19.74 445.599 41.8526 445.239 64.6 444.867H64.6165H64.6322C84.4778 444.543 104.806 444.211 124.463 443.631C170.473 442.308 216.306 442.048 262.125 442.902C307.943 443.755 353.744 445.721 399.696 448.492C410.944 449.175 424.232 448.164 437.425 447.16C449.329 446.254 461.157 445.354 471.342 445.709L472.354 445.744H472.355C485.333 446.197 487.151 446.26 500 446.281Z" fill="#42535D"/>
<path d="M0 469.401C5.40171 469.423 10.8099 469.474 16.2222 469.525H16.2437C28.2198 469.639 40.2163 469.753 52.208 469.55C65.0654 469.333 77.9167 468.752 90.7322 467.405C117.588 464.622 144.498 463.374 171.447 462.91C197.35 462.464 223.288 462.736 249.248 463.008C263.658 463.159 278.075 463.31 292.496 463.339C305.118 463.363 317.971 462.432 330.876 461.498H330.877H330.879C341.84 460.704 352.838 459.908 363.763 459.692C374.111 459.487 384.392 459.799 394.517 461.113C404.313 462.386 414.138 462.601 423.974 462.276C436.041 461.878 447 463.806 458.001 465.742C468.044 467.51 478.124 469.283 489.112 469.298C490.718 469.299 492.916 469.329 495.478 469.363H495.484H495.494C496.899 469.382 498.414 469.403 500 469.421V473.903C496.302 473.82 492.835 473.689 489.88 473.481C478.87 473.496 468.602 471.542 458.358 469.593C447.205 467.47 436.082 465.354 424.065 465.79C414.084 466.151 404.114 465.972 394.17 464.719C384.177 463.46 374.032 463.193 363.825 463.435C352.889 463.694 341.882 464.533 330.913 465.37C317.997 466.355 305.131 467.336 292.496 467.361C278.047 467.389 263.602 467.299 249.164 467.209H249.114C223.219 467.047 197.347 466.886 171.511 467.408C144.661 467.95 117.851 469.224 91.099 472.053C78.1803 473.401 65.2257 473.982 52.2659 474.189C40.2542 474.381 28.2379 474.253 16.2418 474.124H16.2216H16.2162C10.8059 474.066 5.39974 474.008 0 473.98V469.401Z" fill="#D88D3A"/>
<path d="M0 480.985V483.454C18.4154 483.051 39.1638 483.049 60.5249 483.047C82.0065 483.045 104.107 483.043 125.078 482.633C171.046 481.704 216.833 481.688 262.608 482.35C308.387 483.011 354.155 484.349 400.072 486.403C411.546 486.915 422.355 486.548 433.224 486.18H433.225H433.256C442.672 485.861 452.132 485.54 462.106 485.786C470.008 485.786 476.187 485.19 482.252 484.606C487.845 484.067 493.342 483.537 500 483.492V480.905C493.588 480.939 488.035 481.492 482.531 482.04C476.114 482.678 469.763 483.311 462.192 483.106C452.238 482.838 442.796 483.133 433.398 483.427L433.394 483.428H433.37C422.507 483.768 411.704 484.106 400.235 483.567C354.284 481.421 308.483 479.899 262.664 479.239C216.845 478.578 171.012 478.779 125.003 479.803C104.005 480.283 81.8723 480.346 60.3628 480.406H60.3127C39.0297 480.467 18.3579 480.525 0 480.985Z" fill="#42535D"/>
<path d="M392.413 500C382.969 498.904 373.395 498.646 363.764 498.838C355.845 498.994 347.888 499.456 339.934 500H392.413Z" fill="#D88D3A"/>
</svg>
