<svg width="500" height="500" viewBox="0 0 500 500" fill="none" xmlns="http://www.w3.org/2000/svg">
<path fill-rule="evenodd" clip-rule="evenodd" d="M141.834 96.3237C142.644 97.1229 144.284 98.7391 143.544 99.7345C141.327 102.715 138.369 106.439 136.02 109.361C131.731 114.695 127.505 120.255 122.701 125.129C122.187 125.65 118.806 130.233 117.721 130.182C116.358 130.118 112.094 126.432 111.219 125.57C110.712 125.07 107.012 120.967 106.795 120.409C106.241 118.986 112.708 113.846 113.487 113.055L129.925 96.3773C130.926 95.3617 135.207 91.3381 136.498 91.3991C138.887 91.5136 139.163 93.6915 141.834 96.3237Z" fill="#939878"/>
<path fill-rule="evenodd" clip-rule="evenodd" d="M131.699 85.6771C132.208 84.4065 125.118 77.4336 123.245 77.3451C122.073 77.2897 117.133 82.9831 116.238 83.8911C109.941 90.2795 106.876 93.3899 97.3433 103.626C95.2284 105.772 93.0016 107.674 93.6551 109.353C94.4059 111.282 100.156 116.663 101.565 116.251C102.974 115.839 106.258 112.534 108.501 110.258C110.744 107.983 131.19 86.9479 131.699 85.6771Z" fill="#42535D"/>
<path fill-rule="evenodd" clip-rule="evenodd" d="M159.417 109.116C159.77 111.517 136.597 141.363 130.842 143.045C129.485 143.441 123.366 138.309 123.144 136.484C122.806 133.714 147.253 106.878 152.759 103.324C154.017 102.512 159.065 106.716 159.417 109.116Z" fill="#939878"/>
<path fill-rule="evenodd" clip-rule="evenodd" d="M59.6189 92.689C58.8752 91.9427 57.3711 90.4335 56.2573 91.3195C52.9234 93.9717 48.7361 97.4815 45.4476 100.266C39.4458 105.347 33.2154 110.388 27.6358 115.949C27.0387 116.544 21.9139 120.594 21.851 121.714C21.772 123.12 25.1457 127.106 25.9478 127.911C26.413 128.378 30.2809 131.729 30.8374 131.888C32.2573 132.294 38.2914 124.977 39.1965 124.075L58.2883 105.048C59.4509 103.889 64.0907 98.9713 64.1655 97.6394C64.3023 95.1752 62.0684 95.1469 59.6189 92.689Z" fill="#D88D3A"/>
<path fill-rule="evenodd" clip-rule="evenodd" d="M69.599 101.939C70.974 101.26 77.4616 107.787 77.353 109.719C77.285 110.929 70.8394 116.728 69.8 117.764C62.4868 125.052 58.9263 128.6 47.268 139.702C44.8116 142.15 42.5964 144.685 40.9216 144.206C38.9972 143.656 34.0202 138.33 34.5993 136.819C35.1783 135.309 38.9653 131.511 41.5701 128.915C44.1749 126.319 68.2238 102.618 69.599 101.939Z" fill="#42535D"/>
<path fill-rule="evenodd" clip-rule="evenodd" d="M48.2069 75.968C45.7502 75.8867 12.2523 103.461 9.88747 109.63C9.33085 111.084 14.0095 116.823 15.8818 116.837C18.7244 116.858 49.2312 88.3196 53.5141 82.1873C54.4923 80.7865 50.6636 76.0494 48.2069 75.968Z" fill="#42535D"/>
<path fill-rule="evenodd" clip-rule="evenodd" d="M69.5007 135.516C70.2424 134.768 71.7424 133.254 72.8585 134.137C76.1996 136.781 80.3964 140.279 83.6924 143.054C89.7079 148.119 95.9519 153.144 101.547 158.689C102.146 159.283 107.281 163.319 107.347 164.439C107.43 165.844 104.067 169.839 103.267 170.646C102.803 171.114 98.9441 174.476 98.388 174.637C96.9692 175.047 90.9153 167.745 90.0078 166.846L70.8646 147.871C69.6989 146.715 65.0459 141.81 64.9675 140.479C64.8241 138.015 67.0578 137.981 69.5007 135.516Z" fill="#D88D3A"/>
<path fill-rule="evenodd" clip-rule="evenodd" d="M59.5469 144.793C58.17 144.117 51.7002 150.662 51.814 152.594C51.8852 153.803 58.3465 159.585 59.3887 160.618C66.7215 167.886 70.2916 171.425 81.9798 182.495C84.4429 184.936 86.6649 187.466 88.3384 186.982C90.2613 186.427 95.2238 181.087 94.6407 179.578C94.0576 178.07 90.2604 174.281 87.6486 171.693C85.0368 169.104 60.9239 145.468 59.5469 144.793Z" fill="#939878"/>
<path fill-rule="evenodd" clip-rule="evenodd" d="M80.8684 118.763C83.3248 118.676 116.897 146.159 119.278 152.322C119.839 153.774 115.176 159.526 113.303 159.545C110.461 159.574 79.8774 131.118 75.578 124.997C74.5959 123.599 78.4119 118.851 80.8684 118.763Z" fill="#42535D"/>
<path fill-rule="evenodd" clip-rule="evenodd" d="M70.7352 53.9685C71.4769 53.2202 72.9769 51.7069 74.093 52.5899C77.4341 55.2331 81.6308 58.7316 84.9269 61.5064C90.9424 66.571 97.1863 71.5961 102.781 77.1415C103.379 77.735 108.515 81.7712 108.581 82.891C108.664 84.2969 105.301 88.2917 104.501 89.0987C104.037 89.5668 100.178 92.9287 99.6225 93.0893C98.2037 93.499 92.1498 86.1978 91.2423 85.2983L72.0991 66.3231C70.9334 65.1677 66.2804 60.2628 66.2019 58.9311C66.0586 56.4674 68.2923 56.433 70.7352 53.9685Z" fill="#D88D3A"/>
<path fill-rule="evenodd" clip-rule="evenodd" d="M60.7793 63.2449C59.4024 62.5696 52.9325 69.1142 53.0464 71.0464C53.1176 72.2555 59.5788 78.0369 60.621 79.07C67.9539 86.3384 71.524 89.8772 83.2122 100.947C85.6752 103.389 87.8973 105.918 89.5707 105.435C91.4937 104.88 96.4562 99.5394 95.8731 98.0308C95.2899 96.5221 91.4927 92.7337 88.881 90.145C86.2692 87.5562 62.1563 63.9202 60.7793 63.2449Z" fill="#42535D"/>
<path fill-rule="evenodd" clip-rule="evenodd" d="M82.1008 37.216C84.5573 37.128 118.129 64.6118 120.511 70.7745C121.071 72.2268 116.408 77.9783 114.536 77.9975C111.694 78.0266 81.1098 49.5703 76.8105 43.4496C75.8284 42.0515 79.6444 37.304 82.1008 37.216Z" fill="#939878"/>
<path fill-rule="evenodd" clip-rule="evenodd" d="M308.01 96.9943C308.784 97.7573 310.35 99.3003 309.643 100.251C307.527 103.096 304.703 106.651 302.459 109.441C298.364 114.533 294.33 119.842 289.744 124.495C289.253 124.993 286.025 129.368 284.989 129.32C283.688 129.258 279.617 125.739 278.782 124.917C278.297 124.439 274.765 120.522 274.557 119.989C274.028 118.63 280.203 113.723 280.947 112.968L296.64 97.0454C297.596 96.0758 301.683 92.2344 302.916 92.2926C305.197 92.4019 305.46 94.4813 308.01 96.9943Z" fill="#D88D3A"/>
<path fill-rule="evenodd" clip-rule="evenodd" d="M298.335 86.8302C298.821 85.6171 292.053 78.9598 290.264 78.8754C289.145 78.8225 284.429 84.2581 283.574 85.125C277.563 91.2242 274.636 94.1937 265.534 103.966C263.515 106.015 261.389 107.831 262.013 109.434C262.73 111.275 268.22 116.413 269.565 116.02C270.911 115.626 274.046 112.47 276.187 110.298C278.328 108.125 297.849 88.0434 298.335 86.8302Z" fill="#42535D"/>
<path fill-rule="evenodd" clip-rule="evenodd" d="M324.799 109.208C325.136 111.499 303.012 139.994 297.517 141.601C296.222 141.979 290.379 137.079 290.167 135.337C289.845 132.692 313.185 107.07 318.442 103.677C319.643 102.902 324.462 106.916 324.799 109.208Z" fill="#42535D"/>
<path fill-rule="evenodd" clip-rule="evenodd" d="M229.518 93.524C228.808 92.8115 227.372 91.3706 226.308 92.2165C223.125 94.7487 219.128 98.0995 215.988 100.758C210.258 105.608 204.31 110.422 198.983 115.731C198.412 116.299 193.52 120.166 193.46 121.235C193.384 122.577 196.605 126.383 197.371 127.151C197.815 127.597 201.508 130.797 202.039 130.948C203.395 131.336 209.156 124.35 210.02 123.489L228.247 105.323C229.357 104.217 233.787 99.5218 233.858 98.2502C233.989 95.8977 231.856 95.8706 229.518 93.524Z" fill="#D88D3A"/>
<path fill-rule="evenodd" clip-rule="evenodd" d="M239.046 102.355C240.358 101.707 246.552 107.938 246.449 109.783C246.384 110.938 240.23 116.474 239.237 117.463C232.255 124.421 228.856 127.809 217.726 138.408C215.38 140.745 213.265 143.166 211.666 142.709C209.829 142.184 205.078 137.098 205.63 135.656C206.183 134.214 209.799 130.588 212.286 128.109C214.772 125.631 237.733 103.003 239.046 102.355Z" fill="#42535D"/>
<path fill-rule="evenodd" clip-rule="evenodd" d="M218.624 77.5597C216.279 77.4821 184.297 103.808 182.04 109.698C181.508 111.086 185.975 116.565 187.763 116.578C190.476 116.599 219.602 89.3521 223.691 83.4974C224.625 82.1601 220.97 77.6374 218.624 77.5597Z" fill="#42535D"/>
<path fill-rule="evenodd" clip-rule="evenodd" d="M238.953 134.412C239.661 133.698 241.093 132.253 242.159 133.096C245.349 135.62 249.355 138.96 252.502 141.609C258.245 146.444 264.207 151.242 269.548 156.536C270.12 157.103 275.023 160.956 275.086 162.026C275.165 163.368 271.954 167.182 271.191 167.952C270.748 168.399 267.064 171.609 266.533 171.762C265.178 172.153 259.398 165.183 258.532 164.324L240.255 146.208C239.142 145.105 234.7 140.422 234.625 139.15C234.488 136.798 236.621 136.765 238.953 134.412Z" fill="#939878"/>
<path fill-rule="evenodd" clip-rule="evenodd" d="M229.449 143.269C228.135 142.624 221.958 148.872 222.066 150.717C222.134 151.871 228.303 157.391 229.298 158.377C236.299 165.317 239.707 168.695 250.866 179.264C253.218 181.595 255.339 184.01 256.937 183.548C258.773 183.018 263.511 177.92 262.954 176.48C262.397 175.039 258.772 171.422 256.278 168.951C253.785 166.479 230.764 143.913 229.449 143.269Z" fill="#42535D"/>
<path fill-rule="evenodd" clip-rule="evenodd" d="M249.805 118.418C252.151 118.334 284.203 144.574 286.477 150.457C287.012 151.844 282.56 157.335 280.772 157.353C278.059 157.381 248.859 130.213 244.755 124.37C243.817 123.035 247.46 118.502 249.805 118.418Z" fill="#42535D"/>
<path fill-rule="evenodd" clip-rule="evenodd" d="M240.131 56.556C240.839 55.8416 242.271 54.3969 243.337 55.2399C246.527 57.7634 250.533 61.1035 253.68 63.7527C259.423 68.588 265.385 73.3856 270.726 78.68C271.298 79.2466 276.201 83.1001 276.264 84.1692C276.343 85.5114 273.132 89.3254 272.369 90.0959C271.926 90.5427 268.241 93.7525 267.711 93.9058C266.356 94.2969 260.576 87.3262 259.71 86.4674L241.433 68.3514C240.32 67.2482 235.878 62.5654 235.803 61.294C235.666 58.9418 237.799 58.909 240.131 56.556Z" fill="#42535D"/>
<path fill-rule="evenodd" clip-rule="evenodd" d="M230.627 65.4136C229.312 64.7689 223.136 71.017 223.244 72.8618C223.312 74.0162 229.481 79.536 230.476 80.5222C237.477 87.4616 240.885 90.8402 252.044 101.409C254.396 103.74 256.517 106.154 258.115 105.693C259.951 105.163 264.689 100.065 264.132 98.6245C263.575 97.1842 259.95 93.5673 257.456 91.0957C254.963 88.6242 231.942 66.0583 230.627 65.4136Z" fill="#42535D"/>
<path fill-rule="evenodd" clip-rule="evenodd" d="M250.982 40.5627C253.328 40.4787 285.38 66.7183 287.654 72.6019C288.189 73.9885 283.737 79.4796 281.949 79.4979C279.236 79.5257 250.036 52.3577 245.932 46.5141C244.994 45.1793 248.637 40.6468 250.982 40.5627Z" fill="#D88D3A"/>
<path fill-rule="evenodd" clip-rule="evenodd" d="M473.221 96.9943C473.995 97.7573 475.561 99.3003 474.854 100.251C472.738 103.096 469.913 106.651 467.67 109.441C463.575 114.533 459.541 119.842 454.955 124.495C454.464 124.993 451.236 129.368 450.2 129.32C448.898 129.258 444.827 125.739 443.993 124.917C443.508 124.439 439.976 120.522 439.768 119.989C439.239 118.63 445.414 113.723 446.158 112.968L461.851 97.0454C462.807 96.0758 466.894 92.2344 468.127 92.2926C470.407 92.4019 470.671 94.4813 473.221 96.9943Z" fill="#D88D3A"/>
<path fill-rule="evenodd" clip-rule="evenodd" d="M463.546 86.8302C464.032 85.6171 457.264 78.9598 455.475 78.8754C454.356 78.8225 449.639 84.2581 448.785 85.125C442.774 91.2242 439.847 94.1937 430.745 103.966C428.726 106.015 426.6 107.831 427.224 109.434C427.941 111.275 433.431 116.413 434.776 116.02C436.122 115.626 439.257 112.47 441.398 110.298C443.539 108.125 463.06 88.0434 463.546 86.8302Z" fill="#42535D"/>
<path fill-rule="evenodd" clip-rule="evenodd" d="M490.01 109.208C490.347 111.499 468.223 139.994 462.728 141.601C461.433 141.979 455.59 137.079 455.378 135.337C455.056 132.692 478.396 107.07 483.653 103.677C484.854 102.902 489.673 106.916 490.01 109.208Z" fill="#42535D"/>
<path fill-rule="evenodd" clip-rule="evenodd" d="M394.729 93.524C394.019 92.8115 392.582 91.3706 391.519 92.2165C388.336 94.7487 384.339 98.0995 381.199 100.758C375.469 105.608 369.52 110.422 364.193 115.731C363.623 116.299 358.731 120.166 358.671 121.235C358.595 122.577 361.816 126.383 362.582 127.151C363.026 127.597 366.719 130.797 367.25 130.948C368.606 131.336 374.367 124.35 375.231 123.489L393.458 105.323C394.568 104.217 398.998 99.5218 399.069 98.2502C399.2 95.8977 397.067 95.8706 394.729 93.524Z" fill="#939878"/>
<path fill-rule="evenodd" clip-rule="evenodd" d="M404.257 102.355C405.569 101.706 411.763 107.938 411.659 109.783C411.595 110.938 405.441 116.474 404.448 117.463C397.466 124.421 394.067 127.809 382.937 138.408C380.591 140.745 378.476 143.166 376.877 142.708C375.04 142.183 370.289 137.098 370.841 135.656C371.394 134.214 375.01 130.588 377.497 128.109C379.983 125.631 402.944 103.003 404.257 102.355Z" fill="#D88D3A"/>
<path fill-rule="evenodd" clip-rule="evenodd" d="M383.835 77.5597C381.49 77.482 349.508 103.808 347.251 109.698C346.719 111.086 351.186 116.565 352.974 116.578C355.687 116.599 384.813 89.3521 388.902 83.4974C389.836 82.16 386.181 77.6374 383.835 77.5597Z" fill="#42535D"/>
<path fill-rule="evenodd" clip-rule="evenodd" d="M404.164 134.412C404.872 133.698 406.304 132.253 407.37 133.096C410.56 135.62 414.566 138.96 417.713 141.609C423.456 146.444 429.418 151.242 434.759 156.536C435.331 157.103 440.234 160.956 440.297 162.026C440.376 163.368 437.165 167.182 436.401 167.952C435.959 168.399 432.274 171.609 431.744 171.762C430.389 172.153 424.609 165.183 423.743 164.324L405.466 146.208C404.353 145.105 399.911 140.422 399.836 139.15C399.699 136.798 401.832 136.765 404.164 134.412Z" fill="#D88D3A"/>
<path fill-rule="evenodd" clip-rule="evenodd" d="M394.66 143.269C393.345 142.624 387.168 148.872 387.277 150.717C387.345 151.871 393.514 157.391 394.509 158.377C401.51 165.317 404.918 168.695 416.077 179.264C418.429 181.595 420.55 184.01 422.148 183.548C423.984 183.018 428.722 177.92 428.165 176.48C427.608 175.039 423.983 171.422 421.489 168.951C418.996 166.479 395.975 143.913 394.66 143.269Z" fill="#42535D"/>
<path fill-rule="evenodd" clip-rule="evenodd" d="M415.016 118.418C417.362 118.334 449.414 144.574 451.688 150.457C452.223 151.844 447.771 157.335 445.983 157.353C443.269 157.381 414.07 130.213 409.966 124.37C409.028 123.035 412.671 118.502 415.016 118.418Z" fill="#939878"/>
<path fill-rule="evenodd" clip-rule="evenodd" d="M405.342 56.556C406.05 55.8416 407.482 54.3969 408.548 55.2399C411.738 57.7634 415.744 61.1035 418.891 63.7527C424.634 68.588 430.596 73.3856 435.937 78.68C436.509 79.2466 441.412 83.1001 441.475 84.1692C441.554 85.5114 438.343 89.3254 437.579 90.0959C437.137 90.5427 433.452 93.7525 432.922 93.9058C431.567 94.2969 425.787 87.3262 424.921 86.4674L406.644 68.3514C405.531 67.2482 401.089 62.5654 401.014 61.294C400.877 58.9418 403.01 58.909 405.342 56.556Z" fill="#939878"/>
<path fill-rule="evenodd" clip-rule="evenodd" d="M395.838 65.4136C394.523 64.7689 388.346 71.017 388.455 72.8618C388.523 74.0162 394.692 79.536 395.687 80.5222C402.688 87.4616 406.096 90.8402 417.255 101.409C419.607 103.74 421.728 106.154 423.326 105.693C425.162 105.163 429.9 100.065 429.343 98.6245C428.786 97.1842 425.161 93.5673 422.667 91.0957C420.174 88.6242 397.153 66.0583 395.838 65.4136Z" fill="#939878"/>
<path fill-rule="evenodd" clip-rule="evenodd" d="M416.194 40.5627C418.54 40.4787 450.592 66.7183 452.866 72.6019C453.401 73.9885 448.949 79.4796 447.161 79.4979C444.447 79.5257 415.248 52.3577 411.143 46.5141C410.206 45.1793 413.849 40.6468 416.194 40.5627Z" fill="#D88D3A"/>
<path fill-rule="evenodd" clip-rule="evenodd" d="M473.221 262.128C473.995 262.891 475.561 264.434 474.854 265.384C472.738 268.229 469.913 271.785 467.67 274.575C463.575 279.667 459.541 284.975 454.955 289.628C454.464 290.126 451.236 294.502 450.2 294.453C448.898 294.391 444.827 290.873 443.993 290.05C443.508 289.573 439.976 285.655 439.768 285.123C439.239 283.764 445.414 278.856 446.158 278.102L461.851 262.179C462.807 261.209 466.894 257.368 468.127 257.426C470.407 257.535 470.671 259.615 473.221 262.128Z" fill="#D88D3A"/>
<path fill-rule="evenodd" clip-rule="evenodd" d="M463.546 251.963C464.032 250.75 457.264 244.092 455.475 244.008C454.356 243.955 449.639 249.391 448.785 250.258C442.774 256.357 439.847 259.326 430.745 269.099C428.726 271.148 426.6 272.964 427.224 274.567C427.941 276.408 433.431 281.546 434.776 281.153C436.122 280.759 439.257 277.603 441.398 275.431C443.539 273.258 463.06 253.176 463.546 251.963Z" fill="#42535D"/>
<path fill-rule="evenodd" clip-rule="evenodd" d="M490.01 274.341C490.347 276.633 468.223 305.127 462.728 306.734C461.433 307.112 455.59 302.212 455.378 300.47C455.056 297.825 478.396 272.203 483.653 268.81C484.854 268.035 489.673 272.049 490.01 274.341Z" fill="#42535D"/>
<path fill-rule="evenodd" clip-rule="evenodd" d="M394.729 258.657C394.019 257.945 392.582 256.504 391.519 257.35C388.336 259.882 384.339 263.233 381.199 265.89C375.469 270.741 369.52 275.555 364.193 280.864C363.623 281.432 358.731 285.299 358.671 286.368C358.595 287.71 361.816 291.516 362.582 292.284C363.026 292.73 366.719 295.929 367.25 296.081C368.606 296.469 374.367 289.482 375.231 288.621L393.458 270.456C394.568 269.35 398.998 264.655 399.069 263.383C399.2 261.031 397.067 261.004 394.729 258.657Z" fill="#D88D3A"/>
<path fill-rule="evenodd" clip-rule="evenodd" d="M404.257 267.488C405.569 266.84 411.763 273.071 411.659 274.916C411.595 276.071 405.441 281.607 404.448 282.596C397.466 289.555 394.067 292.942 382.937 303.541C380.591 305.878 378.476 308.299 376.877 307.842C375.04 307.317 370.289 302.231 370.841 300.789C371.394 299.348 375.01 295.721 377.497 293.243C379.983 290.764 402.944 268.136 404.257 267.488Z" fill="#42535D"/>
<path fill-rule="evenodd" clip-rule="evenodd" d="M383.835 242.693C381.49 242.615 349.508 268.941 347.251 274.831C346.719 276.219 351.186 281.698 352.974 281.711C355.687 281.732 384.813 254.485 388.902 248.63C389.836 247.293 386.181 242.77 383.835 242.693Z" fill="#42535D"/>
<path fill-rule="evenodd" clip-rule="evenodd" d="M404.164 299.545C404.872 298.831 406.304 297.386 407.37 298.229C410.56 300.753 414.566 304.093 417.713 306.742C423.456 311.577 429.418 316.375 434.759 321.669C435.331 322.236 440.234 326.09 440.297 327.159C440.376 328.501 437.165 332.315 436.401 333.085C435.959 333.532 432.274 336.742 431.744 336.895C430.389 337.286 424.609 330.316 423.743 329.457L405.466 311.341C404.353 310.238 399.911 305.555 399.836 304.283C399.699 301.931 401.832 301.898 404.164 299.545Z" fill="#939878"/>
<path fill-rule="evenodd" clip-rule="evenodd" d="M394.66 308.402C393.345 307.757 387.168 314.005 387.277 315.85C387.345 317.005 393.514 322.524 394.509 323.511C401.51 330.45 404.918 333.829 416.077 344.398C418.429 346.728 420.55 349.143 422.148 348.682C423.984 348.152 428.722 343.053 428.165 341.613C427.608 340.173 423.983 336.556 421.489 334.084C418.996 331.613 395.975 309.047 394.66 308.402Z" fill="#42535D"/>
<path fill-rule="evenodd" clip-rule="evenodd" d="M415.016 283.551C417.362 283.467 449.414 309.707 451.688 315.59C452.223 316.977 447.771 322.468 445.983 322.486C443.269 322.514 414.07 295.346 409.966 289.503C409.028 288.168 412.671 283.635 415.016 283.551Z" fill="#D88D3A"/>
<path fill-rule="evenodd" clip-rule="evenodd" d="M405.342 221.69C406.05 220.975 407.482 219.531 408.548 220.374C411.738 222.897 415.744 226.237 418.891 228.886C424.634 233.722 430.596 238.519 435.937 243.814C436.509 244.38 441.412 248.234 441.475 249.303C441.554 250.645 438.343 254.459 437.579 255.23C437.137 255.676 433.452 258.886 432.922 259.039C431.567 259.431 425.787 252.46 424.921 251.601L406.644 233.485C405.531 232.382 401.089 227.699 401.014 226.428C400.877 224.075 403.01 224.043 405.342 221.69Z" fill="#D88D3A"/>
<path fill-rule="evenodd" clip-rule="evenodd" d="M395.838 230.546C394.523 229.902 388.346 236.15 388.455 237.995C388.523 239.149 394.692 244.669 395.687 245.655C402.688 252.594 406.096 255.973 417.255 266.542C419.607 268.873 421.728 271.287 423.326 270.826C425.162 270.296 429.9 265.198 429.343 263.757C428.786 262.317 425.161 258.7 422.667 256.228C420.174 253.757 397.153 231.191 395.838 230.546Z" fill="#939878"/>
<path fill-rule="evenodd" clip-rule="evenodd" d="M416.194 205.696C418.54 205.612 450.592 231.851 452.866 237.735C453.401 239.122 448.949 244.613 447.161 244.631C444.447 244.659 415.248 217.491 411.143 211.647C410.206 210.312 413.849 205.78 416.194 205.696Z" fill="#42535D"/>
<path fill-rule="evenodd" clip-rule="evenodd" d="M141.834 262.324C142.644 263.123 144.284 264.739 143.544 265.735C141.327 268.715 138.369 272.439 136.02 275.361C131.731 280.695 127.505 286.255 122.701 291.129C122.187 291.65 118.806 296.233 117.721 296.182C116.358 296.118 112.094 292.432 111.219 291.57C110.712 291.07 107.012 286.967 106.795 286.409C106.241 284.986 112.708 279.846 113.487 279.055L129.925 262.378C130.926 261.362 135.207 257.338 136.498 257.399C138.887 257.514 139.163 259.692 141.834 262.324Z" fill="#D88D3A"/>
<path fill-rule="evenodd" clip-rule="evenodd" d="M131.699 251.677C132.208 250.406 125.118 243.434 123.245 243.345C122.073 243.29 117.133 248.983 116.238 249.891C109.941 256.28 106.876 259.39 97.3433 269.626C95.2284 271.772 93.0016 273.674 93.6551 275.353C94.4059 277.282 100.156 282.663 101.565 282.251C102.974 281.839 106.258 278.534 108.501 276.258C110.744 273.983 131.19 252.948 131.699 251.677Z" fill="#42535D"/>
<path fill-rule="evenodd" clip-rule="evenodd" d="M159.417 275.116C159.77 277.517 136.597 307.363 130.842 309.045C129.485 309.441 123.366 304.309 123.144 302.484C122.806 299.714 147.253 272.878 152.759 269.324C154.017 268.512 159.065 272.716 159.417 275.116Z" fill="#42535D"/>
<path fill-rule="evenodd" clip-rule="evenodd" d="M59.6189 258.69C58.8752 257.943 57.3711 256.434 56.2573 257.32C52.9234 259.973 48.7361 263.482 45.4476 266.266C39.4458 271.347 33.2154 276.389 27.6358 281.949C27.0387 282.544 21.9139 286.594 21.851 287.714C21.772 289.12 25.1457 293.106 25.9478 293.911C26.413 294.378 30.2809 297.729 30.8374 297.888C32.2573 298.294 38.2914 290.977 39.1965 290.075L58.2883 271.048C59.4509 269.889 64.0907 264.972 64.1655 263.64C64.3023 261.176 62.0684 261.148 59.6189 258.69Z" fill="#D88D3A"/>
<path fill-rule="evenodd" clip-rule="evenodd" d="M69.599 267.939C70.974 267.26 77.4616 273.787 77.353 275.719C77.285 276.929 70.8394 282.728 69.8 283.764C62.4868 291.052 58.9263 294.6 47.268 305.702C44.8116 308.15 42.5964 310.685 40.9216 310.206C38.9972 309.656 34.0202 304.33 34.5993 302.819C35.1783 301.309 38.9653 297.511 41.5701 294.915C44.1749 292.319 68.2238 268.618 69.599 267.939Z" fill="#939878"/>
<path fill-rule="evenodd" clip-rule="evenodd" d="M48.2069 241.968C45.7502 241.887 12.2523 269.461 9.88747 275.63C9.33085 277.084 14.0095 282.823 15.8818 282.837C18.7244 282.858 49.2312 254.32 53.5141 248.187C54.4923 246.787 50.6636 242.049 48.2069 241.968Z" fill="#42535D"/>
<path fill-rule="evenodd" clip-rule="evenodd" d="M69.5007 301.516C70.2424 300.768 71.7424 299.254 72.8585 300.137C76.1996 302.781 80.3964 306.279 83.6924 309.054C89.7079 314.119 95.9519 319.144 101.547 324.689C102.146 325.283 107.281 329.319 107.347 330.439C107.43 331.844 104.067 335.839 103.267 336.646C102.803 337.114 98.9441 340.476 98.388 340.637C96.9692 341.047 90.9153 333.745 90.0078 332.846L70.8646 313.871C69.6989 312.715 65.0459 307.81 64.9675 306.479C64.8241 304.015 67.0578 303.981 69.5007 301.516Z" fill="#42535D"/>
<path fill-rule="evenodd" clip-rule="evenodd" d="M59.5469 310.793C58.17 310.117 51.7002 316.662 51.814 318.594C51.8852 319.803 58.3465 325.585 59.3887 326.618C66.7215 333.886 70.2916 337.425 81.9798 348.495C84.4429 350.936 86.6649 353.466 88.3384 352.982C90.2613 352.427 95.2238 347.087 94.6407 345.578C94.0576 344.07 90.2604 340.281 87.6486 337.693C85.0368 335.104 60.9239 311.468 59.5469 310.793Z" fill="#D88D3A"/>
<path fill-rule="evenodd" clip-rule="evenodd" d="M80.8684 284.764C83.3248 284.676 116.897 312.16 119.278 318.322C119.839 319.775 115.176 325.526 113.303 325.545C110.461 325.574 79.8774 297.118 75.578 290.997C74.5959 289.599 78.4119 284.852 80.8684 284.764Z" fill="#42535D"/>
<path fill-rule="evenodd" clip-rule="evenodd" d="M70.7352 219.968C71.4769 219.22 72.9769 217.707 74.093 218.59C77.4341 221.233 81.6308 224.731 84.9269 227.506C90.9424 232.571 97.1863 237.596 102.781 243.141C103.379 243.735 108.515 247.771 108.581 248.891C108.664 250.297 105.301 254.292 104.501 255.099C104.037 255.567 100.178 258.929 99.6225 259.089C98.2037 259.499 92.1498 252.198 91.2423 251.298L72.0991 232.323C70.9334 231.168 66.2804 226.263 66.2019 224.931C66.0586 222.467 68.2923 222.433 70.7352 219.968Z" fill="#D88D3A"/>
<path fill-rule="evenodd" clip-rule="evenodd" d="M60.7793 229.245C59.4024 228.57 52.9325 235.114 53.0464 237.046C53.1176 238.256 59.5788 244.037 60.621 245.07C67.9539 252.339 71.524 255.877 83.2122 266.947C85.6752 269.389 87.8973 271.918 89.5707 271.435C91.4937 270.88 96.4562 265.539 95.8731 264.031C95.2899 262.522 91.4927 258.734 88.881 256.145C86.2692 253.556 62.1563 229.92 60.7793 229.245Z" fill="#42535D"/>
<path fill-rule="evenodd" clip-rule="evenodd" d="M82.1008 203.216C84.5573 203.128 118.129 230.612 120.511 236.775C121.071 238.227 116.408 243.978 114.536 243.998C111.694 244.027 81.1098 215.57 76.8105 209.45C75.8284 208.052 79.6444 203.304 82.1008 203.216Z" fill="#939878"/>
<path fill-rule="evenodd" clip-rule="evenodd" d="M307.793 265.555C308.575 266.326 310.157 267.886 309.443 268.846C307.304 271.722 304.45 275.316 302.182 278.136C298.043 283.283 293.966 288.648 289.33 293.352C288.834 293.855 285.571 298.278 284.524 298.228C283.208 298.166 279.093 294.61 278.249 293.778C277.76 293.295 274.189 289.336 273.98 288.798C273.445 287.424 279.686 282.464 280.438 281.701L296.301 265.607C297.266 264.627 301.398 260.744 302.644 260.803C304.949 260.913 305.215 263.015 307.793 265.555Z" fill="#D88D3A"/>
<path fill-rule="evenodd" clip-rule="evenodd" d="M298.013 255.281C298.504 254.054 291.662 247.325 289.855 247.24C288.723 247.187 283.956 252.681 283.093 253.557C277.017 259.722 274.058 262.723 264.859 272.601C262.818 274.672 260.669 276.508 261.3 278.128C262.024 279.989 267.574 285.182 268.933 284.785C270.293 284.387 273.462 281.197 275.626 279.001C277.79 276.806 297.521 256.507 298.013 255.281Z" fill="#42535D"/>
<path fill-rule="evenodd" clip-rule="evenodd" d="M324.759 277.9C325.1 280.216 302.737 309.018 297.183 310.641C295.874 311.023 289.969 306.071 289.755 304.31C289.429 301.637 313.021 275.739 318.334 272.31C319.548 271.526 324.419 275.583 324.759 277.9Z" fill="#42535D"/>
<path fill-rule="evenodd" clip-rule="evenodd" d="M228.453 262.048C227.736 261.327 226.284 259.871 225.209 260.726C221.992 263.286 217.951 266.672 214.778 269.359C208.986 274.262 202.974 279.127 197.589 284.493C197.013 285.068 192.068 288.976 192.007 290.057C191.931 291.414 195.186 295.26 195.96 296.036C196.409 296.487 200.142 299.721 200.679 299.875C202.049 300.266 207.872 293.205 208.745 292.334L227.169 273.974C228.291 272.855 232.769 268.11 232.841 266.825C232.973 264.447 230.817 264.42 228.453 262.048Z" fill="#D88D3A"/>
<path fill-rule="evenodd" clip-rule="evenodd" d="M238.086 270.973C239.413 270.318 245.673 276.617 245.568 278.482C245.503 279.649 239.283 285.245 238.28 286.244C231.222 293.278 227.787 296.702 216.536 307.415C214.166 309.777 212.028 312.224 210.412 311.762C208.555 311.231 203.752 306.091 204.311 304.633C204.87 303.176 208.524 299.51 211.038 297.005C213.551 294.5 236.759 271.629 238.086 270.973Z" fill="#42535D"/>
<path fill-rule="evenodd" clip-rule="evenodd" d="M217.44 245.911C215.07 245.833 182.744 272.442 180.462 278.395C179.925 279.798 184.44 285.336 186.247 285.35C188.99 285.371 218.429 257.831 222.562 251.913C223.506 250.561 219.811 245.99 217.44 245.911Z" fill="#42535D"/>
<path fill-rule="evenodd" clip-rule="evenodd" d="M237.99 303.376C238.706 302.654 240.153 301.194 241.231 302.046C244.455 304.596 248.505 307.972 251.685 310.65C257.49 315.538 263.516 320.387 268.915 325.738C269.492 326.311 274.448 330.206 274.512 331.286C274.592 332.643 271.347 336.498 270.575 337.277C270.127 337.729 266.403 340.973 265.867 341.128C264.497 341.523 258.655 334.477 257.78 333.609L239.306 315.298C238.181 314.183 233.691 309.45 233.616 308.165C233.477 305.787 235.633 305.754 237.99 303.376Z" fill="#D88D3A"/>
<path fill-rule="evenodd" clip-rule="evenodd" d="M228.383 312.328C227.054 311.676 220.811 317.992 220.921 319.856C220.989 321.023 227.224 326.602 228.23 327.599C235.306 334.613 238.752 338.028 250.031 348.711C252.408 351.067 254.552 353.507 256.167 353.041C258.022 352.505 262.811 347.352 262.249 345.896C261.686 344.44 258.022 340.785 255.501 338.286C252.981 335.788 229.712 312.979 228.383 312.328Z" fill="#42535D"/>
<path fill-rule="evenodd" clip-rule="evenodd" d="M248.959 287.21C251.33 287.125 283.727 313.647 286.025 319.594C286.566 320.995 282.066 326.545 280.26 326.564C277.517 326.592 248.003 299.132 243.854 293.225C242.906 291.876 246.589 287.294 248.959 287.21Z" fill="#42535D"/>
<path fill-rule="evenodd" clip-rule="evenodd" d="M239.18 224.682C239.896 223.96 241.343 222.499 242.42 223.351C245.644 225.902 249.694 229.278 252.875 231.956C258.68 236.843 264.705 241.692 270.104 247.044C270.682 247.617 275.638 251.511 275.702 252.592C275.782 253.949 272.536 257.804 271.764 258.583C271.317 259.034 267.593 262.279 267.056 262.434C265.687 262.829 259.845 255.783 258.969 254.915L240.496 236.604C239.371 235.489 234.881 230.756 234.805 229.471C234.667 227.093 236.822 227.06 239.18 224.682Z" fill="#D88D3A"/>
<path fill-rule="evenodd" clip-rule="evenodd" d="M229.575 233.634C228.247 232.982 222.003 239.297 222.113 241.162C222.182 242.329 228.417 247.908 229.423 248.905C236.499 255.919 239.944 259.334 251.223 270.017C253.6 272.373 255.744 274.813 257.359 274.347C259.215 273.811 264.004 268.658 263.441 267.202C262.878 265.746 259.214 262.09 256.694 259.592C254.173 257.094 230.904 234.285 229.575 233.634Z" fill="#939878"/>
<path fill-rule="evenodd" clip-rule="evenodd" d="M250.15 208.515C252.52 208.43 284.918 234.953 287.216 240.9C287.757 242.301 283.257 247.851 281.45 247.87C278.707 247.898 249.194 220.437 245.045 214.531C244.097 213.182 247.779 208.6 250.15 208.515Z" fill="#42535D"/>
<path fill-rule="evenodd" clip-rule="evenodd" d="M61.2504 14.1217C62.1145 14.9733 63.862 16.6957 63.0729 17.7564C60.7109 20.9318 57.5587 24.9008 55.0546 28.015C50.4841 33.6985 45.9813 39.6235 40.862 44.8176C40.3141 45.3735 36.7113 50.2574 35.5544 50.2028C34.1019 50.1342 29.5578 46.2066 28.626 45.2881C28.0854 44.7554 24.1422 40.383 23.9108 39.7885C23.3204 38.2717 30.2125 32.7941 31.0429 31.9516L48.5597 14.1788C49.6264 13.0966 54.1885 8.80882 55.5644 8.87378C58.11 8.9958 58.4044 11.3167 61.2504 14.1217Z" fill="#D88D3A"/>
<path fill-rule="evenodd" clip-rule="evenodd" d="M79.9875 27.7549C80.3635 30.3128 55.6688 62.1185 49.5355 63.9116C48.09 64.3335 41.5686 58.8641 41.3318 56.9198C40.9724 53.968 67.0245 25.3692 72.8921 21.5819C74.2323 20.7168 79.6115 25.197 79.9875 27.7549Z" fill="#42535D"/>
<path fill-rule="evenodd" clip-rule="evenodd" d="M61.2504 179.352C62.1145 180.203 63.862 181.926 63.0729 182.986C60.7109 186.162 57.5587 190.131 55.0546 193.245C50.4841 198.929 45.9813 204.854 40.862 210.048C40.3141 210.603 36.7113 215.487 35.5544 215.433C34.1019 215.364 29.5578 211.437 28.626 210.518C28.0854 209.985 24.1422 205.613 23.9108 205.018C23.3204 203.502 30.2125 198.024 31.0429 197.182L48.5597 179.409C49.6264 178.327 54.1885 174.039 55.5644 174.104C58.11 174.226 58.4044 176.547 61.2504 179.352Z" fill="#D88D3A"/>
<path fill-rule="evenodd" clip-rule="evenodd" d="M50.4491 168.006C50.9919 166.652 43.4365 159.221 41.4402 159.127C40.191 159.068 34.9266 165.135 33.9729 166.102C27.2631 172.91 23.9963 176.225 13.8372 187.133C11.5834 189.42 9.21046 191.447 9.90682 193.236C10.707 195.292 16.8352 201.026 18.3366 200.587C19.838 200.148 23.3381 196.626 25.7279 194.201C28.1178 191.776 49.9062 169.36 50.4491 168.006Z" fill="#42535D"/>
<path fill-rule="evenodd" clip-rule="evenodd" d="M79.9875 192.984C80.3635 195.542 55.6688 227.348 49.5355 229.141C48.09 229.563 41.5686 224.093 41.3318 222.149C40.9724 219.197 67.0245 190.598 72.8921 186.811C74.2323 185.946 79.6115 190.426 79.9875 192.984Z" fill="#42535D"/>
<path fill-rule="evenodd" clip-rule="evenodd" d="M61.2504 344.581C62.1145 345.433 63.862 347.155 63.0729 348.216C60.7109 351.391 57.5587 355.36 55.0546 358.474C50.4841 364.158 45.9813 370.083 40.862 375.277C40.3141 375.833 36.7113 380.717 35.5544 380.662C34.1019 380.594 29.5578 376.666 28.626 375.748C28.0854 375.215 24.1422 370.842 23.9108 370.248C23.3204 368.731 30.2125 363.254 31.0429 362.411L48.5597 344.638C49.6264 343.556 54.1885 339.268 55.5644 339.333C58.11 339.455 58.4044 341.776 61.2504 344.581Z" fill="#D88D3A"/>
<path fill-rule="evenodd" clip-rule="evenodd" d="M50.4491 333.235C50.9919 331.881 43.4365 324.451 41.4402 324.356C40.191 324.297 34.9266 330.364 33.9729 331.332C27.2631 338.14 23.9963 341.454 13.8372 352.363C11.5834 354.649 9.21046 356.676 9.90682 358.465C10.707 360.521 16.8352 366.256 18.3366 365.817C19.838 365.378 23.3381 361.855 25.7279 359.43C28.1178 357.005 49.9062 334.589 50.4491 333.235Z" fill="#42535D"/>
<path fill-rule="evenodd" clip-rule="evenodd" d="M79.9875 358.214C80.3635 360.771 55.6688 392.577 49.5355 394.37C48.09 394.792 41.5686 389.323 41.3318 387.378C40.9724 384.427 67.0245 355.828 72.8921 352.04C74.2323 351.175 79.6115 355.656 79.9875 358.214Z" fill="#42535D"/>
<path fill-rule="evenodd" clip-rule="evenodd" d="M230.887 14.1217C231.751 14.9733 233.499 16.6957 232.71 17.7564C230.348 20.9318 227.195 24.9008 224.691 28.015C220.121 33.6985 215.618 39.6235 210.499 44.8176C209.951 45.3735 206.348 50.2574 205.191 50.2028C203.739 50.1342 199.194 46.2066 198.263 45.2881C197.722 44.7554 193.779 40.383 193.547 39.7885C192.957 38.2717 199.849 32.7941 200.68 31.9516L218.196 14.1788C219.263 13.0966 223.825 8.80882 225.201 8.87378C227.747 8.9958 228.041 11.3167 230.887 14.1217Z" fill="#939878"/>
<path fill-rule="evenodd" clip-rule="evenodd" d="M249.626 27.7549C250.002 30.3128 225.307 62.1185 219.173 63.9116C217.728 64.3335 211.207 58.8641 210.97 56.9198C210.61 53.968 236.663 25.3692 242.531 21.5819C243.871 20.7168 249.25 25.197 249.626 27.7549Z" fill="#D88D3A"/>
<path fill-rule="evenodd" clip-rule="evenodd" d="M143.277 10.2488C142.484 9.4536 140.881 7.84529 139.694 8.78945C136.142 11.6158 131.679 15.356 128.175 18.3225C121.779 23.737 115.14 29.1099 109.194 35.0355C108.557 35.6697 103.096 39.9857 103.029 41.1792C102.945 42.6776 106.54 46.9251 107.395 47.7827C107.891 48.2802 112.012 51.8518 112.605 52.0213C114.119 52.4538 120.549 44.6558 121.513 43.6946L141.859 23.4186C143.098 22.1839 148.042 16.9436 148.122 15.5242C148.268 12.8983 145.887 12.8682 143.277 10.2488Z" fill="#D88D3A"/>
<path fill-rule="evenodd" clip-rule="evenodd" d="M153.91 20.1062C155.375 19.3826 162.288 26.3382 162.173 28.3976C162.1 29.6863 155.231 35.866 154.124 36.9699C146.33 44.7366 142.536 48.518 130.112 60.3485C127.495 62.9573 125.134 65.6589 123.349 65.1487C121.298 64.5625 115.995 58.8862 116.612 57.2769C117.229 55.6675 121.265 51.6195 124.04 48.8532C126.816 46.0869 152.444 20.8298 153.91 20.1062Z" fill="#42535D"/>
<path fill-rule="evenodd" clip-rule="evenodd" d="M153.807 55.8871C154.598 55.0897 156.196 53.4771 157.386 54.4181C160.946 57.2348 165.418 60.963 168.931 63.92C175.341 69.3172 181.995 74.6721 187.957 80.5817C188.595 81.2142 194.068 85.5154 194.138 86.7087C194.227 88.2069 190.643 92.464 189.79 93.324C189.296 93.8228 185.184 97.4055 184.591 97.5766C183.079 98.0132 176.628 90.2326 175.661 89.274L155.261 69.053C154.019 67.8217 149.06 62.5948 148.976 61.1756C148.824 58.5501 151.204 58.5135 153.807 55.8871Z" fill="#D88D3A"/>
<path fill-rule="evenodd" clip-rule="evenodd" d="M143.198 65.7735C141.731 65.0539 134.836 72.0281 134.957 74.0872C135.033 75.3757 141.919 81.5368 143.029 82.6377C150.844 90.3834 154.648 94.1545 167.104 105.951C169.728 108.553 172.096 111.248 173.88 110.733C175.929 110.141 181.217 104.451 180.596 102.843C179.974 101.235 175.928 97.1985 173.145 94.4397C170.361 91.681 144.665 66.4932 143.198 65.7735Z" fill="#42535D"/>
<path fill-rule="evenodd" clip-rule="evenodd" d="M165.92 38.0354C168.537 37.9416 204.314 67.23 206.852 73.7972C207.449 75.3449 202.48 81.474 200.485 81.4945C197.455 81.5255 164.864 51.2009 160.282 44.6782C159.235 43.1884 163.302 38.1292 165.92 38.0354Z" fill="#42535D"/>
<path fill-rule="evenodd" clip-rule="evenodd" d="M230.887 179.352C231.751 180.203 233.499 181.926 232.71 182.986C230.348 186.162 227.195 190.131 224.691 193.245C220.121 198.929 215.618 204.854 210.499 210.048C209.951 210.603 206.348 215.487 205.191 215.433C203.739 215.364 199.194 211.437 198.263 210.518C197.722 209.985 193.779 205.613 193.547 205.018C192.957 203.502 199.849 198.024 200.68 197.182L218.196 179.409C219.263 178.327 223.825 174.039 225.201 174.104C227.747 174.226 228.041 176.547 230.887 179.352Z" fill="#D88D3A"/>
<path fill-rule="evenodd" clip-rule="evenodd" d="M220.088 168.006C220.631 166.652 213.075 159.221 211.079 159.127C209.83 159.068 204.566 165.135 203.612 166.102C196.902 172.91 193.635 176.225 183.476 187.133C181.222 189.42 178.849 191.447 179.546 193.236C180.346 195.292 186.474 201.026 187.976 200.587C189.477 200.148 192.977 196.626 195.367 194.201C197.757 191.776 219.545 169.36 220.088 168.006Z" fill="#939878"/>
<path fill-rule="evenodd" clip-rule="evenodd" d="M249.626 192.984C250.002 195.542 225.307 227.348 219.173 229.141C217.728 229.563 211.207 224.093 210.97 222.149C210.61 219.197 236.663 190.598 242.531 186.811C243.871 185.946 249.25 190.426 249.626 192.984Z" fill="#42535D"/>
<path fill-rule="evenodd" clip-rule="evenodd" d="M143.277 175.479C142.484 174.683 140.881 173.075 139.694 174.019C136.142 176.846 131.679 180.586 128.175 183.552C121.779 188.967 115.14 194.34 109.194 200.265C108.557 200.9 103.096 205.215 103.029 206.409C102.945 207.907 106.54 212.155 107.395 213.013C107.891 213.51 112.012 217.082 112.605 217.251C114.119 217.684 120.549 209.886 121.513 208.924L141.859 188.648C143.098 187.414 148.042 182.173 148.122 180.754C148.268 178.128 145.887 178.098 143.277 175.479Z" fill="#D88D3A"/>
<path fill-rule="evenodd" clip-rule="evenodd" d="M153.91 185.335C155.375 184.612 162.288 191.567 162.173 193.627C162.1 194.916 155.231 201.095 154.124 202.199C146.33 209.966 142.536 213.747 130.112 225.578C127.495 228.187 125.134 230.888 123.349 230.378C121.298 229.792 115.995 224.116 116.612 222.506C117.229 220.897 121.265 216.849 124.04 214.082C126.816 211.316 152.444 186.059 153.91 185.335Z" fill="#42535D"/>
<path fill-rule="evenodd" clip-rule="evenodd" d="M131.114 157.659C128.496 157.572 92.7991 186.957 90.2791 193.531C89.6859 195.081 94.6718 201.196 96.667 201.211C99.6962 201.234 132.206 170.822 136.77 164.287C137.812 162.794 133.732 157.746 131.114 157.659Z" fill="#42535D"/>
<path fill-rule="evenodd" clip-rule="evenodd" d="M153.807 221.117C154.598 220.32 156.196 218.707 157.386 219.648C160.946 222.465 165.418 226.193 168.931 229.15C175.341 234.547 181.995 239.902 187.957 245.812C188.595 246.444 194.068 250.745 194.138 251.939C194.227 253.437 190.643 257.694 189.79 258.554C189.296 259.053 185.184 262.635 184.591 262.807C183.079 263.243 176.628 255.463 175.661 254.504L155.261 234.283C154.019 233.052 149.06 227.825 148.976 226.406C148.824 223.78 151.204 223.744 153.807 221.117Z" fill="#42535D"/>
<path fill-rule="evenodd" clip-rule="evenodd" d="M143.198 231.003C141.731 230.283 134.836 237.257 134.957 239.316C135.033 240.605 141.919 246.766 143.029 247.867C150.844 255.612 154.648 259.384 167.104 271.181C169.728 273.782 172.096 276.477 173.88 275.962C175.929 275.371 181.217 269.68 180.596 268.072C179.974 266.465 175.928 262.428 173.145 259.669C170.361 256.91 144.665 231.722 143.198 231.003Z" fill="#939878"/>
<path fill-rule="evenodd" clip-rule="evenodd" d="M165.92 203.265C168.537 203.171 204.314 232.459 206.852 239.027C207.449 240.574 202.48 246.703 200.485 246.724C197.455 246.755 164.864 216.43 160.282 209.908C159.235 208.418 163.302 203.359 165.92 203.265Z" fill="#D88D3A"/>
<path fill-rule="evenodd" clip-rule="evenodd" d="M155.121 134.215C155.911 133.418 157.51 131.805 158.699 132.746C162.26 135.563 166.732 139.291 170.244 142.248C176.655 147.645 183.309 153 189.271 158.91C189.909 159.542 195.382 163.844 195.452 165.037C195.54 166.535 191.957 170.792 191.104 171.652C190.61 172.151 186.498 175.734 185.905 175.905C184.393 176.341 177.942 168.561 176.975 167.602L156.575 147.381C155.332 146.15 150.374 140.923 150.29 139.504C150.137 136.878 152.518 136.842 155.121 134.215Z" fill="#D88D3A"/>
<path fill-rule="evenodd" clip-rule="evenodd" d="M144.512 144.101C143.044 143.381 136.15 150.356 136.271 152.415C136.347 153.703 143.232 159.864 144.343 160.965C152.157 168.711 155.962 172.482 168.418 184.279C171.042 186.881 173.41 189.576 175.194 189.061C177.243 188.469 182.531 182.778 181.91 181.171C181.288 179.563 177.242 175.526 174.458 172.767C171.675 170.008 145.979 144.821 144.512 144.101Z" fill="#42535D"/>
<path fill-rule="evenodd" clip-rule="evenodd" d="M167.233 116.363C169.851 116.269 205.628 145.558 208.165 152.125C208.763 153.672 203.793 159.802 201.798 159.822C198.769 159.853 166.177 129.528 161.596 123.006C160.549 121.516 164.616 116.457 167.233 116.363Z" fill="#42535D"/>
<path fill-rule="evenodd" clip-rule="evenodd" d="M230.887 344.581C231.751 345.433 233.499 347.155 232.71 348.216C230.348 351.391 227.195 355.36 224.691 358.474C220.121 364.158 215.618 370.083 210.499 375.277C209.951 375.833 206.348 380.717 205.191 380.662C203.739 380.594 199.194 376.666 198.263 375.748C197.722 375.215 193.779 370.842 193.547 370.248C192.957 368.731 199.849 363.254 200.68 362.411L218.196 344.638C219.263 343.556 223.825 339.268 225.201 339.333C227.747 339.455 228.041 341.776 230.887 344.581Z" fill="#D88D3A"/>
<path fill-rule="evenodd" clip-rule="evenodd" d="M220.088 333.235C220.631 331.881 213.075 324.451 211.079 324.356C209.83 324.297 204.566 330.364 203.612 331.332C196.902 338.14 193.635 341.454 183.476 352.363C181.222 354.649 178.849 356.676 179.546 358.465C180.346 360.521 186.474 366.256 187.976 365.817C189.477 365.378 192.977 361.855 195.367 359.43C197.757 357.005 219.545 334.589 220.088 333.235Z" fill="#42535D"/>
<path fill-rule="evenodd" clip-rule="evenodd" d="M249.626 358.214C250.002 360.771 225.307 392.577 219.173 394.37C217.728 394.792 211.207 389.323 210.97 387.378C210.61 384.427 236.663 355.828 242.531 352.04C243.871 351.175 249.25 355.656 249.626 358.214Z" fill="#42535D"/>
<path fill-rule="evenodd" clip-rule="evenodd" d="M143.277 340.708C142.484 339.913 140.881 338.305 139.694 339.249C136.142 342.075 131.679 345.815 128.175 348.782C121.779 354.196 115.14 359.569 109.194 365.495C108.557 366.129 103.096 370.445 103.029 371.638C102.945 373.137 106.54 377.384 107.395 378.242C107.891 378.739 112.012 382.311 112.605 382.481C114.119 382.913 120.549 375.115 121.513 374.154L141.859 353.878C143.098 352.643 148.042 347.403 148.122 345.984C148.268 343.358 145.887 343.327 143.277 340.708Z" fill="#939878"/>
<path fill-rule="evenodd" clip-rule="evenodd" d="M153.91 350.565C155.375 349.841 162.288 356.797 162.173 358.856C162.1 360.145 155.231 366.325 154.124 367.429C146.33 375.195 142.536 378.977 130.112 390.807C127.495 393.416 125.134 396.118 123.349 395.608C121.298 395.021 115.995 389.345 116.612 387.736C117.229 386.126 121.265 382.078 124.04 379.312C126.816 376.546 152.444 351.289 153.91 350.565Z" fill="#42535D"/>
<path fill-rule="evenodd" clip-rule="evenodd" d="M131.114 322.889C128.496 322.802 92.7991 352.187 90.2791 358.761C89.6859 360.31 94.6718 366.426 96.667 366.441C99.6962 366.464 132.206 336.051 136.77 329.516C137.812 328.023 133.732 322.975 131.114 322.889Z" fill="#D88D3A"/>
<path fill-rule="evenodd" clip-rule="evenodd" d="M153.807 386.347C154.598 385.549 156.196 383.937 157.386 384.878C160.946 387.694 165.418 391.422 168.931 394.379C175.341 399.777 181.995 405.132 187.957 411.041C188.595 411.674 194.068 415.975 194.138 417.168C194.227 418.666 190.643 422.924 189.79 423.783C189.296 424.282 185.184 427.865 184.591 428.036C183.079 428.473 176.628 420.692 175.661 419.733L155.261 399.512C154.019 398.281 149.06 393.054 148.976 391.635C148.824 389.01 151.204 388.973 153.807 386.347Z" fill="#42535D"/>
<path fill-rule="evenodd" clip-rule="evenodd" d="M143.198 396.232C141.731 395.513 134.836 402.487 134.957 404.546C135.033 405.834 141.919 411.995 143.029 413.096C150.844 420.842 154.648 424.613 167.104 436.41C169.728 439.012 172.096 441.707 173.88 441.192C175.929 440.6 181.217 434.91 180.596 433.302C179.974 431.694 175.928 427.657 173.145 424.898C170.361 422.14 144.665 396.952 143.198 396.232Z" fill="#939878"/>
<path fill-rule="evenodd" clip-rule="evenodd" d="M165.92 368.494C168.537 368.401 204.314 397.689 206.852 404.256C207.449 405.804 202.48 411.933 200.485 411.953C197.455 411.984 164.864 381.66 160.282 375.137C159.235 373.647 163.302 368.588 165.92 368.494Z" fill="#D88D3A"/>
<path fill-rule="evenodd" clip-rule="evenodd" d="M155.121 299.445C155.911 298.647 157.51 297.035 158.699 297.976C162.26 300.792 166.732 304.521 170.244 307.478C176.655 312.875 183.309 318.23 189.271 324.139C189.909 324.772 195.382 329.073 195.452 330.266C195.54 331.764 191.957 336.022 191.104 336.882C190.61 337.38 186.498 340.963 185.905 341.134C184.393 341.571 177.942 333.79 176.975 332.832L156.575 312.611C155.332 311.379 150.374 306.152 150.29 304.733C150.137 302.108 152.518 302.071 155.121 299.445Z" fill="#D88D3A"/>
<path fill-rule="evenodd" clip-rule="evenodd" d="M144.512 309.33C143.044 308.611 136.15 315.585 136.271 317.644C136.347 318.932 143.232 325.094 144.343 326.194C152.157 333.94 155.962 337.711 168.418 349.508C171.042 352.11 173.41 354.805 175.194 354.29C177.243 353.698 182.531 348.008 181.91 346.4C181.288 344.792 177.242 340.755 174.458 337.996C171.675 335.238 145.979 310.05 144.512 309.33Z" fill="#42535D"/>
<path fill-rule="evenodd" clip-rule="evenodd" d="M167.233 281.592C169.851 281.499 205.628 310.787 208.165 317.354C208.763 318.902 203.793 325.031 201.798 325.051C198.769 325.082 166.177 294.758 161.596 288.235C160.549 286.745 164.616 281.686 167.233 281.592Z" fill="#42535D"/>
<path fill-rule="evenodd" clip-rule="evenodd" d="M396.067 14.1217C396.931 14.9733 398.678 16.6957 397.889 17.7564C395.527 20.9318 392.375 24.9008 389.871 28.015C385.3 33.6985 380.798 39.6235 375.678 44.8176C375.13 45.3735 371.528 50.2574 370.371 50.2028C368.918 50.1342 364.374 46.2066 363.442 45.2881C362.902 44.7554 358.959 40.383 358.727 39.7885C358.137 38.2717 365.029 32.7941 365.859 31.9516L383.376 14.1788C384.443 13.0966 389.005 8.80882 390.381 8.87378C392.926 8.9958 393.221 11.3167 396.067 14.1217Z" fill="#D88D3A"/>
<path fill-rule="evenodd" clip-rule="evenodd" d="M414.804 27.7549C415.18 30.3128 390.485 62.1185 384.352 63.9116C382.907 64.3335 376.385 58.8641 376.148 56.9198C375.789 53.968 401.841 25.3692 407.709 21.5819C409.049 20.7168 414.428 25.197 414.804 27.7549Z" fill="#42535D"/>
<path fill-rule="evenodd" clip-rule="evenodd" d="M308.454 10.2488C307.662 9.4536 306.059 7.84529 304.872 8.78945C301.319 11.6158 296.857 15.356 293.353 18.3225C286.957 23.737 280.317 29.1099 274.371 35.0355C273.735 35.6697 268.274 39.9857 268.207 41.1792C268.122 42.6776 271.718 46.9251 272.572 47.7827C273.068 48.2802 277.19 51.8518 277.783 52.0213C279.296 52.4538 285.727 44.6558 286.691 43.6946L307.036 23.4186C308.275 22.1839 313.22 16.9436 313.299 15.5242C313.445 12.8983 311.065 12.8682 308.454 10.2488Z" fill="#D88D3A"/>
<path fill-rule="evenodd" clip-rule="evenodd" d="M319.089 20.1062C320.555 19.3826 327.468 26.3382 327.352 28.3976C327.28 29.6863 320.411 35.866 319.303 36.9699C311.51 44.7366 307.716 48.518 295.292 60.3485C292.674 62.9573 290.314 65.6589 288.529 65.1487C286.478 64.5625 281.174 58.8862 281.792 57.2769C282.409 55.6675 286.444 51.6195 289.22 48.8532C291.996 46.0869 317.624 20.8298 319.089 20.1062Z" fill="#42535D"/>
<path fill-rule="evenodd" clip-rule="evenodd" d="M318.984 55.8871C319.774 55.0897 321.373 53.4771 322.562 54.4181C326.123 57.2348 330.595 60.963 334.107 63.92C340.518 69.3172 347.172 74.6721 353.134 80.5817C353.772 81.2142 359.245 85.5154 359.315 86.7087C359.403 88.2069 355.819 92.464 354.967 93.324C354.473 93.8228 350.36 97.4055 349.768 97.5766C348.256 98.0132 341.805 90.2326 340.838 89.274L320.437 69.053C319.195 67.8217 314.237 62.5948 314.153 61.1756C314 58.5501 316.381 58.5135 318.984 55.8871Z" fill="#D88D3A"/>
<path fill-rule="evenodd" clip-rule="evenodd" d="M308.377 65.7735C306.909 65.0539 300.015 72.0281 300.136 74.0872C300.212 75.3757 307.097 81.5368 308.208 82.6377C316.022 90.3834 319.827 94.1545 332.282 105.951C334.907 108.553 337.275 111.248 339.058 110.733C341.108 110.141 346.396 104.451 345.775 102.843C345.153 101.235 341.107 97.1985 338.323 94.4397C335.54 91.681 309.844 66.4932 308.377 65.7735Z" fill="#42535D"/>
<path fill-rule="evenodd" clip-rule="evenodd" d="M331.097 38.0354C333.715 37.9416 369.491 67.23 372.029 73.7972C372.627 75.3449 367.657 81.474 365.662 81.4945C362.633 81.5255 330.041 51.2009 325.459 44.6782C324.413 43.1884 328.479 38.1292 331.097 38.0354Z" fill="#939878"/>
<path fill-rule="evenodd" clip-rule="evenodd" d="M396.067 179.352C396.931 180.203 398.678 181.926 397.889 182.986C395.527 186.162 392.375 190.131 389.871 193.245C385.3 198.929 380.798 204.854 375.678 210.048C375.13 210.603 371.528 215.487 370.371 215.433C368.918 215.364 364.374 211.437 363.442 210.518C362.902 209.985 358.959 205.613 358.727 205.018C358.137 203.502 365.029 198.024 365.859 197.182L383.376 179.409C384.443 178.327 389.005 174.039 390.381 174.104C392.926 174.226 393.221 176.547 396.067 179.352Z" fill="#D88D3A"/>
<path fill-rule="evenodd" clip-rule="evenodd" d="M385.266 168.006C385.809 166.652 378.253 159.221 376.257 159.127C375.008 159.068 369.743 165.135 368.79 166.102C362.08 172.91 358.813 176.225 348.654 187.133C346.4 189.42 344.027 191.447 344.723 193.236C345.524 195.292 351.652 201.026 353.153 200.587C354.655 200.148 358.155 196.626 360.545 194.201C362.934 191.776 384.723 169.36 385.266 168.006Z" fill="#42535D"/>
<path fill-rule="evenodd" clip-rule="evenodd" d="M414.804 192.984C415.18 195.542 390.485 227.348 384.352 229.141C382.907 229.563 376.385 224.093 376.148 222.149C375.789 219.197 401.841 190.598 407.709 186.811C409.049 185.946 414.428 190.426 414.804 192.984Z" fill="#42535D"/>
<path fill-rule="evenodd" clip-rule="evenodd" d="M308.454 175.479C307.662 174.683 306.059 173.075 304.872 174.019C301.319 176.846 296.857 180.586 293.353 183.552C286.957 188.967 280.317 194.34 274.371 200.265C273.735 200.9 268.274 205.215 268.207 206.409C268.122 207.907 271.718 212.155 272.572 213.013C273.068 213.51 277.19 217.082 277.783 217.251C279.296 217.684 285.727 209.886 286.691 208.924L307.036 188.648C308.275 187.414 313.22 182.173 313.299 180.754C313.445 178.128 311.065 178.098 308.454 175.479Z" fill="#D88D3A"/>
<path fill-rule="evenodd" clip-rule="evenodd" d="M319.089 185.335C320.555 184.612 327.468 191.567 327.352 193.627C327.28 194.916 320.411 201.095 319.303 202.199C311.51 209.966 307.716 213.747 295.292 225.578C292.674 228.187 290.314 230.888 288.529 230.378C286.478 229.792 281.174 224.116 281.792 222.506C282.409 220.897 286.444 216.849 289.22 214.082C291.996 211.316 317.624 186.059 319.089 185.335Z" fill="#42535D"/>
<path fill-rule="evenodd" clip-rule="evenodd" d="M296.293 157.659C293.675 157.572 257.978 186.957 255.457 193.531C254.864 195.081 259.85 201.196 261.845 201.211C264.875 201.234 297.384 170.822 301.948 164.287C302.991 162.794 298.911 157.746 296.293 157.659Z" fill="#42535D"/>
<path fill-rule="evenodd" clip-rule="evenodd" d="M318.984 221.117C319.774 220.32 321.373 218.707 322.562 219.648C326.123 222.465 330.595 226.193 334.107 229.15C340.518 234.547 347.172 239.902 353.134 245.812C353.772 246.444 359.245 250.745 359.315 251.939C359.403 253.437 355.819 257.694 354.967 258.554C354.473 259.053 350.36 262.635 349.768 262.807C348.256 263.243 341.805 255.463 340.838 254.504L320.437 234.283C319.195 233.052 314.237 227.825 314.153 226.406C314 223.78 316.381 223.744 318.984 221.117Z" fill="#D88D3A"/>
<path fill-rule="evenodd" clip-rule="evenodd" d="M308.377 231.003C306.909 230.283 300.015 237.257 300.136 239.316C300.212 240.605 307.097 246.766 308.208 247.867C316.022 255.612 319.827 259.384 332.282 271.181C334.907 273.782 337.275 276.477 339.058 275.962C341.108 275.371 346.396 269.68 345.775 268.072C345.153 266.465 341.107 262.428 338.323 259.669C335.54 256.91 309.844 231.722 308.377 231.003Z" fill="#939878"/>
<path fill-rule="evenodd" clip-rule="evenodd" d="M331.097 203.265C333.715 203.171 369.491 232.459 372.029 239.027C372.627 240.574 367.657 246.703 365.662 246.724C362.633 246.755 330.041 216.43 325.459 209.908C324.413 208.418 328.479 203.359 331.097 203.265Z" fill="#42535D"/>
<path fill-rule="evenodd" clip-rule="evenodd" d="M320.301 134.215C321.091 133.418 322.69 131.805 323.879 132.746C327.44 135.563 331.912 139.291 335.424 142.248C341.835 147.645 348.489 153 354.451 158.91C355.089 159.542 360.561 163.844 360.632 165.037C360.72 166.535 357.136 170.792 356.284 171.652C355.789 172.151 351.677 175.734 351.085 175.905C349.573 176.341 343.121 168.561 342.154 167.602L321.754 147.381C320.512 146.15 315.553 140.923 315.47 139.504C315.317 136.878 317.697 136.842 320.301 134.215Z" fill="#D88D3A"/>
<path fill-rule="evenodd" clip-rule="evenodd" d="M309.691 144.101C308.224 143.381 301.329 150.356 301.451 152.415C301.527 153.703 308.412 159.864 309.523 160.965C317.337 168.711 321.141 172.482 333.597 184.279C336.222 186.881 338.59 189.576 340.373 189.061C342.422 188.469 347.711 182.778 347.089 181.171C346.468 179.563 342.421 175.526 339.638 172.767C336.855 170.008 311.159 144.821 309.691 144.101Z" fill="#42535D"/>
<path fill-rule="evenodd" clip-rule="evenodd" d="M332.414 116.363C335.032 116.269 370.808 145.558 373.346 152.125C373.943 153.672 368.974 159.802 366.979 159.822C363.95 159.853 331.358 129.528 326.776 123.006C325.73 121.516 329.796 116.457 332.414 116.363Z" fill="#42535D"/>
<path fill-rule="evenodd" clip-rule="evenodd" d="M398.317 344.581C399.181 345.433 400.928 347.155 400.139 348.216C397.777 351.391 394.625 355.36 392.121 358.474C387.55 364.158 383.048 370.083 377.928 375.277C377.38 375.833 373.778 380.717 372.621 380.662C371.168 380.594 366.624 376.666 365.692 375.748C365.152 375.215 361.209 370.842 360.977 370.248C360.387 368.731 367.279 363.254 368.109 362.411L385.626 344.638C386.693 343.556 391.255 339.268 392.631 339.333C395.176 339.455 395.471 341.776 398.317 344.581Z" fill="#939878"/>
<path fill-rule="evenodd" clip-rule="evenodd" d="M387.516 333.235C388.059 331.881 380.503 324.451 378.507 324.356C377.258 324.297 371.993 330.364 371.04 331.332C364.33 338.14 361.063 341.454 350.904 352.363C348.65 354.649 346.277 356.676 346.973 358.465C347.774 360.521 353.902 366.256 355.403 365.817C356.905 365.378 360.405 361.855 362.795 359.43C365.184 357.005 386.973 334.589 387.516 333.235Z" fill="#42535D"/>
<path fill-rule="evenodd" clip-rule="evenodd" d="M417.054 358.214C417.43 360.771 392.735 392.577 386.602 394.37C385.157 394.792 378.635 389.323 378.398 387.378C378.039 384.427 404.091 355.828 409.959 352.04C411.299 351.175 416.678 355.656 417.054 358.214Z" fill="#D88D3A"/>
<path fill-rule="evenodd" clip-rule="evenodd" d="M310.704 340.708C309.912 339.913 308.309 338.305 307.122 339.249C303.569 342.075 299.107 345.815 295.603 348.782C289.207 354.196 282.567 359.569 276.621 365.495C275.985 366.129 270.524 370.445 270.457 371.638C270.372 373.137 273.968 377.384 274.822 378.242C275.318 378.739 279.44 382.311 280.033 382.481C281.546 382.913 287.977 375.115 288.941 374.154L309.286 353.878C310.525 352.643 315.47 347.403 315.549 345.984C315.695 343.358 313.315 343.327 310.704 340.708Z" fill="#D88D3A"/>
<path fill-rule="evenodd" clip-rule="evenodd" d="M321.339 350.565C322.805 349.841 329.718 356.797 329.602 358.856C329.53 360.145 322.661 366.325 321.553 367.429C313.76 375.195 309.966 378.977 297.542 390.807C294.924 393.416 292.564 396.118 290.779 395.608C288.728 395.021 283.424 389.345 284.042 387.736C284.659 386.126 288.694 382.078 291.47 379.312C294.246 376.546 319.874 351.289 321.339 350.565Z" fill="#939878"/>
<path fill-rule="evenodd" clip-rule="evenodd" d="M298.543 322.889C295.925 322.802 260.228 352.187 257.707 358.761C257.114 360.31 262.1 366.426 264.095 366.441C267.125 366.464 299.634 336.051 304.198 329.516C305.241 328.023 301.161 322.975 298.543 322.889Z" fill="#42535D"/>
<path fill-rule="evenodd" clip-rule="evenodd" d="M321.234 386.347C322.024 385.549 323.623 383.937 324.812 384.878C328.373 387.694 332.845 391.422 336.357 394.379C342.768 399.777 349.422 405.132 355.384 411.041C356.022 411.674 361.495 415.975 361.565 417.168C361.653 418.666 358.069 422.924 357.217 423.783C356.723 424.282 352.61 427.865 352.018 428.036C350.506 428.473 344.055 420.692 343.088 419.733L322.687 399.512C321.445 398.281 316.487 393.054 316.403 391.635C316.25 389.01 318.631 388.973 321.234 386.347Z" fill="#939878"/>
<path fill-rule="evenodd" clip-rule="evenodd" d="M310.627 396.232C309.159 395.513 302.265 402.487 302.386 404.546C302.462 405.834 309.347 411.995 310.458 413.096C318.272 420.842 322.077 424.613 334.532 436.41C337.157 439.012 339.525 441.707 341.308 441.192C343.358 440.6 348.646 434.91 348.025 433.302C347.403 431.694 343.357 427.657 340.573 424.898C337.79 422.14 312.094 396.952 310.627 396.232Z" fill="#42535D"/>
<path fill-rule="evenodd" clip-rule="evenodd" d="M333.347 368.494C335.965 368.401 371.741 397.689 374.279 404.256C374.877 405.804 369.907 411.933 367.912 411.953C364.883 411.984 332.291 381.66 327.709 375.137C326.663 373.647 330.729 368.588 333.347 368.494Z" fill="#D88D3A"/>
<path fill-rule="evenodd" clip-rule="evenodd" d="M322.551 299.445C323.341 298.647 324.94 297.035 326.129 297.976C329.69 300.792 334.162 304.521 337.674 307.478C344.085 312.875 350.739 318.23 356.701 324.139C357.339 324.772 362.811 329.073 362.882 330.266C362.97 331.764 359.386 336.022 358.534 336.882C358.039 337.38 353.927 340.963 353.335 341.134C351.823 341.571 345.371 333.79 344.404 332.832L324.004 312.611C322.762 311.379 317.803 306.152 317.72 304.733C317.567 302.108 319.947 302.071 322.551 299.445Z" fill="#939878"/>
<path fill-rule="evenodd" clip-rule="evenodd" d="M311.941 309.33C310.474 308.611 303.579 315.585 303.701 317.644C303.777 318.932 310.662 325.094 311.773 326.194C319.587 333.94 323.391 337.711 335.847 349.508C338.472 352.11 340.84 354.805 342.623 354.29C344.672 353.698 349.961 348.008 349.339 346.4C348.718 344.792 344.671 340.755 341.888 337.996C339.105 335.238 313.409 310.05 311.941 309.33Z" fill="#42535D"/>
<path fill-rule="evenodd" clip-rule="evenodd" d="M334.664 281.592C337.282 281.499 373.058 310.787 375.596 317.354C376.193 318.902 371.224 325.031 369.229 325.051C366.2 325.082 333.608 294.758 329.026 288.235C327.98 286.745 332.046 281.686 334.664 281.592Z" fill="#D88D3A"/>
<path fill-rule="evenodd" clip-rule="evenodd" d="M473.632 10.2488C472.839 9.4536 471.237 7.84529 470.05 8.78945C466.497 11.6158 462.035 15.356 458.53 18.3225C452.134 23.737 445.495 29.1099 439.549 35.0355C438.913 35.6697 433.451 39.9857 433.384 41.1792C433.3 42.6776 436.895 46.9251 437.75 47.7827C438.246 48.2802 442.368 51.8518 442.961 52.0213C444.474 52.4538 450.904 44.6558 451.869 43.6946L472.214 23.4186C473.453 22.1839 478.397 16.9436 478.477 15.5242C478.623 12.8983 476.242 12.8682 473.632 10.2488Z" fill="#D88D3A"/>
<path fill-rule="evenodd" clip-rule="evenodd" d="M484.268 20.1062C485.733 19.3826 492.647 26.3382 492.531 28.3976C492.459 29.6863 485.59 35.866 484.482 36.9699C476.689 44.7366 472.895 48.518 460.471 60.3485C457.853 62.9573 455.492 65.6589 453.708 65.1487C451.657 64.5625 446.353 58.8862 446.97 57.2769C447.587 55.6675 451.623 51.6195 454.399 48.8532C457.175 46.0869 482.803 20.8298 484.268 20.1062Z" fill="#42535D"/>
<path fill-rule="evenodd" clip-rule="evenodd" d="M473.632 175.479C472.839 174.683 471.237 173.075 470.05 174.019C466.497 176.846 462.035 180.586 458.53 183.552C452.134 188.967 445.495 194.34 439.549 200.265C438.913 200.9 433.451 205.215 433.384 206.409C433.3 207.907 436.895 212.155 437.75 213.013C438.246 213.51 442.368 217.082 442.961 217.251C444.474 217.684 450.904 209.886 451.869 208.924L472.214 188.648C473.453 187.414 478.397 182.173 478.477 180.754C478.623 178.128 476.242 178.098 473.632 175.479Z" fill="#939878"/>
<path fill-rule="evenodd" clip-rule="evenodd" d="M484.268 185.335C485.733 184.612 492.647 191.567 492.531 193.627C492.459 194.916 485.59 201.095 484.482 202.199C476.689 209.966 472.895 213.747 460.471 225.578C457.853 228.187 455.492 230.888 453.708 230.378C451.657 229.792 446.353 224.116 446.97 222.506C447.587 220.897 451.623 216.849 454.399 214.082C457.175 211.316 482.803 186.059 484.268 185.335Z" fill="#D88D3A"/>
<path fill-rule="evenodd" clip-rule="evenodd" d="M461.473 157.659C458.855 157.572 423.157 186.957 420.637 193.531C420.044 195.081 425.03 201.196 427.025 201.211C430.054 201.234 462.564 170.822 467.128 164.287C468.171 162.794 464.091 157.746 461.473 157.659Z" fill="#42535D"/>
<path fill-rule="evenodd" clip-rule="evenodd" d="M473.632 340.708C472.839 339.913 471.237 338.305 470.05 339.249C466.497 342.075 462.035 345.815 458.53 348.782C452.134 354.196 445.495 359.569 439.549 365.495C438.913 366.129 433.451 370.445 433.384 371.638C433.3 373.137 436.895 377.384 437.75 378.242C438.246 378.739 442.368 382.311 442.961 382.481C444.474 382.913 450.904 375.115 451.869 374.154L472.214 353.878C473.453 352.643 478.397 347.403 478.477 345.984C478.623 343.358 476.242 343.327 473.632 340.708Z" fill="#D88D3A"/>
<path fill-rule="evenodd" clip-rule="evenodd" d="M484.268 350.565C485.733 349.841 492.647 356.797 492.531 358.856C492.459 360.145 485.59 366.325 484.482 367.429C476.689 375.195 472.895 378.977 460.471 390.807C457.853 393.416 455.492 396.118 453.708 395.608C451.657 395.021 446.353 389.345 446.97 387.736C447.587 386.126 451.623 382.078 454.399 379.312C457.175 376.546 482.803 351.289 484.268 350.565Z" fill="#42535D"/>
<path fill-rule="evenodd" clip-rule="evenodd" d="M461.473 322.889C458.855 322.802 423.157 352.187 420.637 358.761C420.044 360.31 425.03 366.426 427.025 366.441C430.054 366.464 462.564 336.051 467.128 329.516C468.171 328.023 464.091 322.975 461.473 322.889Z" fill="#42535D"/>
<path fill-rule="evenodd" clip-rule="evenodd" d="M139.806 435.259C140.599 436.04 142.202 437.621 141.478 438.594C139.311 441.508 136.418 445.151 134.12 448.008C129.926 453.224 125.794 458.661 121.096 463.428C120.593 463.938 117.287 468.42 116.225 468.369C114.893 468.306 110.723 464.702 109.867 463.859C109.371 463.37 105.753 459.358 105.541 458.813C104.999 457.421 111.323 452.394 112.085 451.621L128.16 435.311C129.139 434.318 133.325 430.383 134.588 430.443C136.924 430.555 137.194 432.685 139.806 435.259Z" fill="#42535D"/>
<path fill-rule="evenodd" clip-rule="evenodd" d="M129.894 424.847C130.392 423.605 123.459 416.786 121.627 416.699C120.481 416.645 115.65 422.213 114.774 423.101C108.617 429.348 105.619 432.39 96.2964 442.4C94.2281 444.498 92.0506 446.358 92.6896 448C93.4239 449.887 99.0475 455.149 100.425 454.746C101.803 454.343 105.015 451.111 107.208 448.885C109.401 446.66 129.396 426.09 129.894 424.847Z" fill="#D88D3A"/>
<path fill-rule="evenodd" clip-rule="evenodd" d="M157 447.769C157.346 450.116 134.684 479.303 129.056 480.949C127.729 481.336 121.745 476.317 121.527 474.533C121.198 471.824 145.105 445.58 150.489 442.104C151.719 441.31 156.655 445.422 157 447.769Z" fill="#939878"/>
<path fill-rule="evenodd" clip-rule="evenodd" d="M59.406 431.705C58.6787 430.975 57.2078 429.499 56.1187 430.366C52.8583 432.96 48.7635 436.392 45.5476 439.114C39.6784 444.083 33.5855 449.013 28.1291 454.451C27.5452 455.033 22.5336 458.994 22.472 460.089C22.3947 461.464 25.694 465.362 26.4783 466.149C26.9333 466.605 30.7158 469.883 31.26 470.038C32.6485 470.435 38.5494 463.279 39.4345 462.397L58.1048 443.791C59.2417 442.658 63.779 437.849 63.8522 436.546C63.9859 434.137 61.8014 434.109 59.406 431.705Z" fill="#D88D3A"/>
<path fill-rule="evenodd" clip-rule="evenodd" d="M69.165 440.75C70.5097 440.086 76.854 446.469 76.7478 448.359C76.6813 449.542 70.378 455.213 69.3616 456.226C62.2099 463.353 58.728 466.823 47.3271 477.679C44.9249 480.073 42.7586 482.553 41.1208 482.084C39.2389 481.546 34.3719 476.337 34.9381 474.861C35.5044 473.384 39.2077 469.669 41.755 467.13C44.3023 464.592 67.8202 441.414 69.165 440.75Z" fill="#42535D"/>
<path fill-rule="evenodd" clip-rule="evenodd" d="M48.2465 415.353C45.844 415.273 13.0858 442.239 10.7732 448.272C10.2289 449.693 14.8043 455.306 16.6352 455.319C19.415 455.34 49.2482 427.432 53.4365 421.435C54.3932 420.065 50.6489 415.432 48.2465 415.353Z" fill="#42535D"/>
<path fill-rule="evenodd" clip-rule="evenodd" d="M80.1855 457.203C82.5878 457.117 115.419 483.994 117.747 490.021C118.296 491.441 113.735 497.065 111.904 497.084C109.125 497.113 79.2164 469.285 75.012 463.299C74.0516 461.932 77.7833 457.289 80.1855 457.203Z" fill="#42535D"/>
<path fill-rule="evenodd" clip-rule="evenodd" d="M70.2755 393.839C71.0009 393.107 72.4677 391.627 73.5592 392.491C76.8265 395.076 80.9306 398.497 84.1538 401.21C90.0365 406.163 96.1426 411.077 101.614 416.5C102.2 417.081 107.222 421.028 107.286 422.123C107.367 423.498 104.079 427.404 103.297 428.193C102.843 428.651 99.0687 431.939 98.5249 432.096C97.1375 432.497 91.2173 425.356 90.3298 424.477L71.6093 405.921C70.4694 404.791 65.9191 399.994 65.8423 398.692C65.7021 396.282 67.8865 396.249 70.2755 393.839Z" fill="#D88D3A"/>
<path fill-rule="evenodd" clip-rule="evenodd" d="M60.5401 402.911C59.1937 402.25 52.8667 408.65 52.978 410.54C53.0476 411.722 59.3662 417.376 60.3854 418.386C67.5563 425.494 71.0476 428.955 82.4777 439.781C84.8864 442.168 87.0594 444.641 88.6959 444.169C90.5763 443.626 95.4293 438.404 94.8591 436.928C94.2888 435.453 90.5754 431.748 88.0213 429.217C85.4672 426.685 61.8867 403.571 60.5401 402.911Z" fill="#939878"/>
<path fill-rule="evenodd" clip-rule="evenodd" d="M81.3927 377.457C83.7949 377.37 116.626 404.247 118.955 410.274C119.503 411.694 114.943 417.319 113.112 417.337C110.332 417.366 80.4236 389.538 76.2191 383.552C75.2587 382.185 78.9905 377.543 81.3927 377.457Z" fill="#42535D"/>
<path fill-rule="evenodd" clip-rule="evenodd" d="M306.01 437.314C306.784 438.077 308.35 439.62 307.643 440.571C305.527 443.415 302.703 446.971 300.459 449.761C296.364 454.853 292.33 460.161 287.744 464.815C287.253 465.313 284.025 469.688 282.989 469.639C281.688 469.578 277.617 466.059 276.782 465.236C276.297 464.759 272.765 460.842 272.557 460.309C272.028 458.95 278.203 454.043 278.947 453.288L294.64 437.365C295.596 436.396 299.683 432.554 300.916 432.613C303.197 432.722 303.46 434.801 306.01 437.314Z" fill="#D88D3A"/>
<path fill-rule="evenodd" clip-rule="evenodd" d="M296.335 427.15C296.821 425.936 290.053 419.279 288.264 419.195C287.145 419.142 282.429 424.577 281.574 425.444C275.563 431.544 272.636 434.513 263.534 444.286C261.515 446.334 259.389 448.15 260.013 449.753C260.73 451.595 266.22 456.733 267.565 456.339C268.911 455.946 272.046 452.79 274.187 450.618C276.328 448.445 295.849 428.363 296.335 427.15Z" fill="#939878"/>
<path fill-rule="evenodd" clip-rule="evenodd" d="M322.799 449.528C323.136 451.819 301.012 480.314 295.517 481.921C294.222 482.299 288.379 477.398 288.167 475.657C287.845 473.012 311.185 447.39 316.442 443.997C317.643 443.222 322.462 447.236 322.799 449.528Z" fill="#42535D"/>
<path fill-rule="evenodd" clip-rule="evenodd" d="M227.518 433.844C226.808 433.131 225.372 431.69 224.308 432.536C221.125 435.068 217.128 438.419 213.988 441.077C208.258 445.928 202.31 450.741 196.983 456.05C196.412 456.618 191.52 460.485 191.46 461.554C191.384 462.897 194.605 466.702 195.371 467.47C195.815 467.916 199.508 471.116 200.039 471.268C201.395 471.655 207.156 464.669 208.02 463.808L226.247 445.643C227.357 444.536 231.787 439.842 231.858 438.57C231.989 436.217 229.856 436.19 227.518 433.844Z" fill="#42535D"/>
<path fill-rule="evenodd" clip-rule="evenodd" d="M237.046 442.674C238.358 442.026 244.552 448.258 244.449 450.103C244.384 451.257 238.23 456.794 237.237 457.783C230.255 464.741 226.856 468.129 215.726 478.728C213.38 481.065 211.265 483.485 209.666 483.028C207.829 482.503 203.078 477.417 203.63 475.976C204.183 474.534 207.799 470.907 210.286 468.429C212.772 465.951 235.733 443.323 237.046 442.674Z" fill="#D88D3A"/>
<path fill-rule="evenodd" clip-rule="evenodd" d="M216.624 417.879C214.279 417.801 182.297 444.127 180.04 450.017C179.508 451.405 183.975 456.884 185.763 456.898C188.476 456.918 217.602 429.671 221.691 423.817C222.625 422.479 218.97 417.957 216.624 417.879Z" fill="#42535D"/>
<path fill-rule="evenodd" clip-rule="evenodd" d="M247.805 458.738C250.151 458.654 282.203 484.894 284.477 490.777C285.012 492.164 280.56 497.655 278.772 497.673C276.059 497.701 246.859 470.533 242.755 464.689C241.817 463.355 245.46 458.822 247.805 458.738Z" fill="#42535D"/>
<path fill-rule="evenodd" clip-rule="evenodd" d="M238.131 396.876C238.839 396.162 240.271 394.717 241.337 395.56C244.527 398.084 248.533 401.424 251.68 404.073C257.423 408.908 263.385 413.706 268.726 419C269.298 419.567 274.201 423.42 274.264 424.489C274.343 425.832 271.132 429.646 270.369 430.416C269.926 430.863 266.241 434.073 265.711 434.226C264.356 434.617 258.576 427.646 257.71 426.788L239.433 408.672C238.32 407.568 233.878 402.886 233.803 401.614C233.666 399.262 235.799 399.229 238.131 396.876Z" fill="#D88D3A"/>
<path fill-rule="evenodd" clip-rule="evenodd" d="M228.627 405.733C227.312 405.088 221.136 411.336 221.244 413.181C221.312 414.335 227.481 419.855 228.476 420.842C235.477 427.781 238.885 431.159 250.044 441.728C252.396 444.059 254.517 446.474 256.115 446.013C257.951 445.482 262.689 440.384 262.132 438.944C261.575 437.503 257.95 433.887 255.456 431.415C252.963 428.943 229.942 406.378 228.627 405.733Z" fill="#42535D"/>
<path fill-rule="evenodd" clip-rule="evenodd" d="M248.982 380.882C251.328 380.798 283.38 407.038 285.654 412.922C286.189 414.308 281.737 419.799 279.949 419.818C277.236 419.845 248.036 392.677 243.932 386.834C242.994 385.499 246.637 380.966 248.982 380.882Z" fill="#42535D"/>
<path fill-rule="evenodd" clip-rule="evenodd" d="M469.954 437.314C470.728 438.077 472.294 439.62 471.587 440.571C469.471 443.415 466.647 446.971 464.403 449.761C460.308 454.853 456.274 460.161 451.688 464.815C451.197 465.313 447.969 469.688 446.933 469.639C445.632 469.578 441.561 466.059 440.726 465.236C440.241 464.759 436.709 460.842 436.501 460.309C435.972 458.95 442.147 454.043 442.891 453.288L458.584 437.365C459.54 436.396 463.627 432.554 464.86 432.613C467.141 432.722 467.404 434.801 469.954 437.314Z" fill="#D88D3A"/>
<path fill-rule="evenodd" clip-rule="evenodd" d="M460.277 427.15C460.764 425.936 453.995 419.279 452.206 419.195C451.087 419.142 446.371 424.577 445.516 425.444C439.505 431.544 436.578 434.513 427.477 444.286C425.457 446.334 423.331 448.15 423.955 449.753C424.672 451.595 430.162 456.733 431.508 456.339C432.853 455.946 435.988 452.79 438.13 450.618C440.271 448.445 459.791 428.363 460.277 427.15Z" fill="#42535D"/>
<path fill-rule="evenodd" clip-rule="evenodd" d="M486.741 449.528C487.078 451.819 464.954 480.314 459.459 481.921C458.164 482.299 452.321 477.398 452.109 475.657C451.787 473.012 475.127 447.39 480.384 443.997C481.585 443.222 486.404 447.236 486.741 449.528Z" fill="#939878"/>
<path fill-rule="evenodd" clip-rule="evenodd" d="M391.462 433.843C390.752 433.131 389.316 431.69 388.252 432.536C385.069 435.068 381.072 438.419 377.932 441.077C372.202 445.928 366.254 450.741 360.927 456.05C360.356 456.618 355.464 460.485 355.404 461.554C355.328 462.897 358.549 466.702 359.315 467.47C359.759 467.916 363.452 471.116 363.983 471.268C365.339 471.655 371.1 464.669 371.964 463.808L390.191 445.642C391.301 444.536 395.731 439.841 395.802 438.57C395.933 436.217 393.8 436.19 391.462 433.843Z" fill="#D88D3A"/>
<path fill-rule="evenodd" clip-rule="evenodd" d="M400.99 442.674C402.302 442.026 408.496 448.257 408.393 450.102C408.328 451.257 402.174 456.793 401.182 457.782C394.199 464.741 390.8 468.128 379.67 478.727C377.324 481.065 375.209 483.485 373.611 483.028C371.773 482.503 367.022 477.417 367.574 475.975C368.127 474.534 371.743 470.907 374.23 468.429C376.716 465.95 399.677 443.322 400.99 442.674Z" fill="#939878"/>
<path fill-rule="evenodd" clip-rule="evenodd" d="M380.565 417.879C378.22 417.801 346.238 444.127 343.981 450.017C343.449 451.405 347.916 456.884 349.704 456.898C352.418 456.918 381.543 429.671 385.632 423.817C386.566 422.479 382.911 417.957 380.565 417.879Z" fill="#42535D"/>
<path fill-rule="evenodd" clip-rule="evenodd" d="M411.749 458.738C414.094 458.654 446.146 484.894 448.42 490.777C448.955 492.164 444.503 497.655 442.715 497.673C440.002 497.701 410.802 470.533 406.698 464.689C405.76 463.355 409.403 458.822 411.749 458.738Z" fill="#42535D"/>
<path fill-rule="evenodd" clip-rule="evenodd" d="M402.073 396.876C402.781 396.162 404.213 394.717 405.279 395.56C408.469 398.084 412.475 401.424 415.622 404.073C421.365 408.908 427.327 413.706 432.668 419C433.24 419.567 438.143 423.42 438.206 424.489C438.285 425.832 435.074 429.646 434.311 430.416C433.868 430.863 430.184 434.073 429.653 434.226C428.298 434.617 422.518 427.646 421.652 426.788L403.375 408.672C402.262 407.568 397.82 402.886 397.745 401.614C397.608 399.262 399.741 399.229 402.073 396.876Z" fill="#D88D3A"/>
<path fill-rule="evenodd" clip-rule="evenodd" d="M392.57 405.733C391.256 405.088 385.079 411.336 385.187 413.181C385.255 414.335 391.424 419.855 392.419 420.842C399.42 427.781 402.828 431.159 413.987 441.728C416.339 444.059 418.46 446.474 420.058 446.013C421.894 445.482 426.632 440.384 426.075 438.944C425.518 437.503 421.893 433.887 419.4 431.415C416.906 428.943 393.885 406.378 392.57 405.733Z" fill="#42535D"/>
<path fill-rule="evenodd" clip-rule="evenodd" d="M412.926 380.882C415.272 380.798 447.324 407.038 449.598 412.922C450.133 414.308 445.681 419.799 443.893 419.818C441.18 419.845 411.98 392.677 407.876 386.834C406.938 385.499 410.581 380.966 412.926 380.882Z" fill="#42535D"/>
<path fill-rule="evenodd" clip-rule="evenodd" d="M167.233 451.131C169.851 451.037 205.628 480.326 208.165 486.893C208.763 488.441 203.793 494.57 201.798 494.59C198.769 494.621 166.177 464.296 161.596 457.774C160.549 456.284 164.616 451.225 167.233 451.131Z" fill="#42535D"/>
<path fill-rule="evenodd" clip-rule="evenodd" d="M332.414 451.131C335.032 451.037 370.808 480.326 373.346 486.893C373.943 488.441 368.974 494.57 366.979 494.59C363.95 494.621 331.358 464.296 326.776 457.774C325.73 456.284 329.796 451.225 332.414 451.131Z" fill="#42535D"/>
<path d="M0 2.80371V20.2727C2.1363 22.4204 4.05369 24.2651 5.55613 23.8312C7.60531 23.2394 12.8937 17.5488 12.2723 15.9411C11.6509 14.3334 7.60433 10.2963 4.82106 7.53754C4.19487 6.91687 2.4089 5.16091 0 2.80371Z" fill="#42535D"/>
<path d="M0 185.502V168.033C2.4089 170.39 4.19487 172.146 4.82106 172.767C7.60433 175.526 11.6509 179.563 12.2723 181.171C12.8937 182.778 7.60531 188.469 5.55613 189.061C4.05369 189.495 2.1363 187.65 0 185.502Z" fill="#D88D3A"/>
<path d="M0 160.33V141.738C0.204876 141.91 0.40701 142.08 0.606062 142.248C1.74839 143.21 2.89845 144.17 4.05094 145.133C9.366 149.571 14.7329 154.053 19.6324 158.91C19.7746 159.051 20.1565 159.373 20.6653 159.804C22.4405 161.304 25.759 164.109 25.8136 165.037C25.9019 166.535 22.3181 170.792 21.4657 171.652C20.9713 172.151 16.8591 175.733 16.2666 175.905C15.0528 176.255 10.6562 171.31 8.4686 168.85C7.93107 168.246 7.52692 167.791 7.33617 167.602L0 160.33Z" fill="#42535D"/>
<path d="M0 131.768V117.602C8.63381 123.232 36.3072 146.378 38.528 152.125C39.1253 153.672 34.1559 159.802 32.1608 159.822C29.9059 159.845 11.2696 143.047 0 131.768Z" fill="#42535D"/>
<path d="M0 413.765V394.975C0.908744 395.738 1.82167 396.501 2.73613 397.264C8.05118 401.703 13.4181 406.185 18.3176 411.041C18.4597 411.182 18.8417 411.505 19.3504 411.935C21.1257 413.436 24.4442 416.241 24.4988 417.168C24.5871 418.666 21.0033 422.924 20.1509 423.784C19.6565 424.282 15.5443 427.865 14.9517 428.036C13.738 428.387 9.34133 423.442 7.15378 420.982C6.61625 420.377 6.2121 419.923 6.02135 419.734L0 413.765Z" fill="#D88D3A"/>
<path d="M0 385.208V370.623C9.82279 377.466 35.095 398.775 37.2132 404.256C37.8105 405.804 32.8411 411.933 30.846 411.953C28.6768 411.976 11.347 396.431 0 385.208Z" fill="#42535D"/>
<path d="M0 350.732V333.263C2.4089 335.62 4.19487 337.376 4.82106 337.997C7.60433 340.755 11.6509 344.792 12.2723 346.4C12.8937 348.008 7.60531 353.698 5.55613 354.29C4.05369 354.724 2.1363 352.879 0 350.732Z" fill="#42535D"/>
<path d="M0 325.56V306.968C0.204876 307.14 0.40701 307.31 0.606062 307.478C1.74839 308.439 2.89845 309.4 4.05094 310.362C9.366 314.801 14.7329 319.283 19.6324 324.139C19.7746 324.28 20.1565 324.603 20.6653 325.033C22.4405 326.534 25.759 329.339 25.8136 330.266C25.9019 331.764 22.3181 336.022 21.4657 336.882C20.9713 337.38 16.8591 340.963 16.2666 341.134C15.0528 341.485 10.6562 336.54 8.4686 334.08C7.93107 333.475 7.52692 333.021 7.33617 332.832L0 325.56Z" fill="#D88D3A"/>
<path d="M0 296.998V282.831C8.63381 288.462 36.3072 311.607 38.528 317.354C39.1253 318.902 34.1559 325.031 32.1608 325.051C29.9059 325.074 11.2696 308.277 0 296.998Z" fill="#42535D"/>
<path d="M0 273.698V256.222C1.73713 257.925 3.00028 259.167 3.50624 259.669C6.28951 262.428 10.336 266.465 10.9574 268.072C11.5788 269.68 6.29049 275.371 4.24131 275.962C3.05432 276.305 1.60832 275.226 0 273.698Z" fill="#42535D"/>
<path d="M0 248.536V229.746C0.908744 230.509 1.82167 231.271 2.73613 232.035C8.05118 236.473 13.4181 240.955 18.3176 245.812C18.4597 245.953 18.8417 246.276 19.3504 246.706C21.1257 248.206 24.4442 251.011 24.4988 251.939C24.5871 253.437 21.0033 257.694 20.1509 258.554C19.6565 259.053 15.5443 262.636 14.9517 262.807C13.738 263.157 9.34133 258.212 7.15378 255.752C6.61625 255.148 6.2121 254.693 6.02135 254.504L0 248.536Z" fill="#D88D3A"/>
<path d="M0 219.978V205.393C9.82279 212.237 35.095 233.545 37.2132 239.027C37.8105 240.574 32.8411 246.703 30.846 246.724C28.6768 246.746 11.347 231.201 0 219.978Z" fill="#42535D"/>
<path d="M500 40.1668V54.7527C495.5 50.302 491.94 46.5304 490.639 44.6782C489.593 43.1883 493.659 38.1291 496.277 38.0354C496.71 38.0198 498.052 38.809 500 40.1668Z" fill="#42535D"/>
<path d="M500 64.5193V83.3097L485.617 69.053C484.375 67.8217 479.416 62.5948 479.333 61.1757C479.235 59.5033 480.166 58.8813 481.527 57.9714C482.303 57.4528 483.219 56.8407 484.164 55.8872C484.954 55.0898 486.553 53.4771 487.742 54.4181C491.302 57.2349 495.775 60.963 499.287 63.92C499.524 64.1198 499.762 64.3196 500 64.5193Z" fill="#D88D3A"/>
<path d="M499.999 90.9974V108.473C499.476 107.976 498.936 107.432 498.381 106.874C498.078 106.569 497.771 106.259 497.46 105.951C485.004 94.1544 481.2 90.3833 473.386 82.6376C473.18 82.4342 472.778 82.058 472.258 81.5716C469.963 79.4261 465.376 75.1375 465.314 74.0871C465.192 72.028 472.087 65.0539 473.554 65.7735C474.755 66.3624 492.182 83.3379 499.999 90.9974Z" fill="#42535D"/>
<path d="M500 117.605V131.772C496.128 127.898 493.125 124.674 491.954 123.006C490.907 121.516 494.974 116.457 497.592 116.363C497.919 116.351 498.765 116.799 500 117.605Z" fill="#42535D"/>
<path d="M500 141.742V160.334L486.932 147.381C485.69 146.15 480.731 140.923 480.648 139.504C480.55 137.831 481.481 137.209 482.842 136.299C483.618 135.781 484.533 135.169 485.479 134.215C486.269 133.418 487.867 131.805 489.057 132.746C492.417 135.404 496.589 138.874 500 141.742Z" fill="#42535D"/>
<path d="M500 168.037V185.507C499.899 185.406 499.798 185.304 499.697 185.202C499.394 184.896 499.087 184.587 498.776 184.279C486.32 172.482 482.516 168.711 474.701 160.965C474.496 160.762 474.094 160.385 473.573 159.899C471.279 157.754 466.691 153.465 466.629 152.415C466.508 150.355 473.403 143.381 474.87 144.101C476.007 144.659 491.703 159.919 500 168.037Z" fill="#D88D3A"/>
<path d="M500 205.396V219.982C495.5 215.531 491.94 211.76 490.639 209.908C489.593 208.418 493.659 203.359 496.277 203.265C496.71 203.249 498.052 204.039 500 205.396Z" fill="#42535D"/>
<path d="M500 229.749V248.54L485.617 234.283C484.375 233.052 479.416 227.825 479.333 226.406C479.235 224.733 480.166 224.111 481.527 223.201C482.303 222.683 483.219 222.071 484.164 221.117C484.954 220.32 486.553 218.707 487.742 219.648C491.302 222.465 495.775 226.193 499.287 229.15C499.524 229.35 499.762 229.55 500 229.749Z" fill="#D88D3A"/>
<path d="M499.999 256.226V273.702C499.476 273.206 498.936 272.661 498.381 272.103C498.078 271.798 497.771 271.489 497.46 271.18C485.004 259.383 481.2 255.612 473.386 247.867C473.18 247.663 472.778 247.287 472.258 246.801C469.963 244.655 465.376 240.367 465.314 239.316C465.192 237.257 472.087 230.283 473.554 231.003C474.755 231.591 492.182 248.567 499.999 256.226Z" fill="#42535D"/>
<path d="M500 282.834V297.002C496.128 293.127 493.125 289.903 491.954 288.235C490.907 286.745 494.974 281.686 497.592 281.592C497.919 281.581 498.765 282.029 500 282.834Z" fill="#42535D"/>
<path d="M500 306.971V325.564L486.932 312.611C485.69 311.379 480.731 306.152 480.648 304.733C480.55 303.061 481.481 302.439 482.842 301.529C483.618 301.01 484.533 300.398 485.479 299.445C486.269 298.647 487.867 297.035 489.057 297.976C492.417 300.634 496.589 304.104 500 306.971Z" fill="#D88D3A"/>
<path d="M500 333.267V350.736C499.899 350.635 499.798 350.533 499.697 350.431C499.394 350.126 499.087 349.816 498.776 349.508C486.32 337.711 482.516 333.94 474.701 326.194C474.496 325.991 474.094 325.615 473.573 325.128C471.279 322.983 466.691 318.694 466.629 317.644C466.508 315.585 473.403 308.611 474.87 309.33C476.007 309.888 491.703 325.148 500 333.267Z" fill="#42535D"/>
<path d="M500 370.626V385.212C495.5 380.761 491.94 376.989 490.639 375.137C489.593 373.647 493.659 368.588 496.277 368.494C496.71 368.479 498.052 369.268 500 370.626Z" fill="#42535D"/>
<path d="M500 394.979V413.769L485.617 399.513C484.375 398.281 479.416 393.054 479.333 391.635C479.235 389.963 480.166 389.341 481.527 388.431C482.303 387.912 483.219 387.3 484.164 386.347C484.954 385.549 486.553 383.937 487.742 384.878C491.302 387.694 495.775 391.422 499.287 394.379C499.524 394.579 499.762 394.779 500 394.979Z" fill="#D88D3A"/>
<path d="M499.999 421.456V438.932C499.476 438.435 498.936 437.891 498.381 437.333C498.078 437.027 497.771 436.718 497.46 436.41C485.004 424.613 481.2 420.842 473.386 413.096C473.18 412.893 472.778 412.517 472.258 412.03C469.963 409.885 465.376 405.596 465.314 404.546C465.192 402.487 472.087 395.512 473.554 396.232C474.755 396.821 492.182 413.796 499.999 421.456Z" fill="#42535D"/>
<path d="M500 452.373V466.541C496.128 462.666 493.125 459.442 491.954 457.774C490.907 456.284 494.974 451.225 497.592 451.131C497.919 451.119 498.765 451.567 500 452.373Z" fill="#42535D"/>
<path d="M500 476.51V495.103L486.932 482.149C485.69 480.918 480.731 475.691 480.648 474.272C480.55 472.6 481.481 471.978 482.842 471.068C483.618 470.549 484.533 469.937 485.479 468.983C486.269 468.186 487.867 466.573 489.057 467.514C492.417 470.173 496.589 473.642 500 476.51Z" fill="#42535D"/>
<path d="M497.129 500H479.011C477.667 498.673 476.264 497.282 474.701 495.733C474.496 495.529 474.094 495.153 473.573 494.667C471.279 492.521 466.691 488.233 466.629 487.182C466.508 485.123 473.403 478.149 474.87 478.869C475.887 479.367 488.53 491.608 497.129 500Z" fill="#42535D"/>
<path d="M466.409 500H450.568C456.201 495.537 460.613 492.399 461.471 492.427C464.089 492.514 468.17 497.562 467.127 499.055C466.936 499.329 466.695 499.646 466.409 500Z" fill="#42535D"/>
<path d="M435.094 500H415.789L402.197 486.528C401.085 485.424 396.642 480.742 396.567 479.47C396.48 477.972 397.314 477.415 398.533 476.6C399.228 476.135 400.049 475.587 400.895 474.732C401.603 474.018 403.036 472.573 404.101 473.416C407.291 475.94 411.298 479.28 414.444 481.929C415.468 482.791 416.498 483.651 417.531 484.513C422.293 488.49 427.101 492.505 431.49 496.856C431.618 496.982 431.96 497.272 432.416 497.657C433.154 498.281 434.191 499.157 435.094 500Z" fill="#D88D3A"/>
<path d="M408.747 500H392.554C392.128 499.579 391.691 499.145 391.239 498.697C391.055 498.515 390.695 498.178 390.229 497.742C388.173 495.82 384.063 491.978 384.007 491.037C383.899 489.192 390.076 482.944 391.39 483.588C392.203 483.987 401.319 492.771 408.747 500Z" fill="#42535D"/>
<path d="M383.709 500H369.602C369.637 499.962 369.673 499.922 369.709 499.882C371.554 497.87 375.241 493.847 376.259 493.895C377.608 493.958 381.498 497.375 383.709 500Z" fill="#42535D"/>
<path d="M360.625 500H339.763L321.754 482.149C320.512 480.918 315.554 475.691 315.47 474.272C315.373 472.6 316.303 471.978 317.664 471.068C318.44 470.549 319.356 469.937 320.301 468.983C321.091 468.186 322.69 466.573 323.879 467.514C327.44 470.331 331.912 474.059 335.424 477.016C336.567 477.978 337.717 478.938 338.869 479.901C344.184 484.339 349.551 488.821 354.451 493.678C354.593 493.819 354.975 494.142 355.483 494.572C357.259 496.072 360.577 498.877 360.632 499.805C360.635 499.866 360.633 499.931 360.625 500Z" fill="#D88D3A"/>
<path d="M331.951 500H313.832C312.488 498.673 311.086 497.282 309.523 495.733C309.317 495.529 308.915 495.153 308.395 494.667C306.1 492.521 301.513 488.233 301.451 487.182C301.329 485.123 308.224 478.149 309.691 478.869C310.708 479.367 323.351 491.608 331.951 500Z" fill="#42535D"/>
<path d="M301.231 500H285.391C291.024 495.537 295.436 492.399 296.294 492.427C298.912 492.514 302.992 497.562 301.949 499.055C301.758 499.329 301.517 499.646 301.231 500Z" fill="#42535D"/>
<path d="M271.152 500H251.847L238.255 486.528C237.142 485.424 232.7 480.742 232.625 479.47C232.538 477.972 233.372 477.415 234.591 476.6C235.286 476.135 236.106 475.587 236.953 474.732C237.661 474.018 239.093 472.573 240.159 473.416C243.349 475.94 247.356 479.28 250.502 481.929C251.526 482.791 252.556 483.651 253.589 484.513C258.35 488.49 263.159 492.505 267.548 496.856C267.675 496.982 268.018 497.272 268.473 497.657C269.212 498.281 270.248 499.157 271.152 500Z" fill="#D88D3A"/>
<path d="M244.805 500H228.612C228.187 499.579 227.75 499.145 227.298 498.697C227.114 498.515 226.754 498.178 226.287 497.742C224.231 495.82 220.122 491.978 220.066 491.037C219.958 489.192 226.135 482.944 227.449 483.588C228.262 483.987 237.378 492.771 244.805 500Z" fill="#42535D"/>
<path d="M218.53 500H204.422C204.457 499.962 204.493 499.922 204.53 499.882C206.374 497.87 210.061 493.847 211.079 493.895C212.429 493.958 216.318 497.375 218.53 500Z" fill="#42535D"/>
<path d="M195.445 500H174.583L156.575 482.149C155.332 480.918 150.374 475.691 150.29 474.272C150.193 472.6 151.123 471.978 152.484 471.068C153.26 470.549 154.176 469.937 155.121 468.983C155.911 468.186 157.51 466.573 158.699 467.514C162.26 470.331 166.732 474.059 170.245 477.016C171.387 477.978 172.537 478.938 173.689 479.901C179.004 484.339 184.371 488.821 189.271 493.678C189.413 493.819 189.795 494.142 190.304 494.572C192.079 496.072 195.397 498.877 195.452 499.805C195.456 499.866 195.453 499.931 195.445 500Z" fill="#D88D3A"/>
<path d="M166.771 500H148.652C147.309 498.673 145.906 497.282 144.343 495.733C144.138 495.529 143.735 495.153 143.215 494.667C140.92 492.521 136.333 488.233 136.271 487.182C136.15 485.123 143.044 478.149 144.512 478.869C145.528 479.367 158.172 491.608 166.771 500Z" fill="#42535D"/>
<path d="M136.052 500H120.211C125.844 495.537 130.256 492.399 131.114 492.427C133.732 492.514 137.812 497.562 136.77 499.055C136.578 499.329 136.337 499.646 136.052 500Z" fill="#42535D"/>
<path d="M104.657 500H84.8635L70.4043 485.668C69.2643 484.538 64.714 479.741 64.6373 478.439C64.548 476.904 65.4018 476.334 66.6509 475.499C67.3628 475.023 68.2032 474.461 69.0705 473.586C69.7958 472.854 71.2627 471.374 72.3541 472.238C75.6215 474.823 79.7255 478.244 82.9487 480.957C83.997 481.84 85.0524 482.721 86.11 483.605C90.9874 487.678 95.9125 491.791 100.409 496.247C100.539 496.377 100.89 496.673 101.356 497.068C102.27 497.84 103.63 498.99 104.657 500Z" fill="#D88D3A"/>
<path d="M77.66 500H61.0641C60.461 499.403 59.8361 498.783 59.1804 498.133C58.9921 497.947 58.6227 497.601 58.1453 497.155C56.0392 495.186 51.8297 491.25 51.7729 490.287C51.6616 488.397 57.9886 481.997 59.3351 482.657C60.188 483.076 69.9601 492.501 77.66 500Z" fill="#939878"/>
<path d="M48.8908 500H34.7832C34.8183 499.962 34.8542 499.922 34.8908 499.882C36.7353 497.87 40.422 493.847 41.4403 493.895C42.7898 493.958 46.6795 497.375 48.8908 500Z" fill="#42535D"/>
<path d="M0 495.098V476.506C0.204876 476.679 0.40701 476.849 0.606062 477.016C1.74839 477.978 2.89845 478.938 4.05094 479.901C9.366 484.339 14.7329 488.821 19.6324 493.678C19.7746 493.819 20.1565 494.142 20.6653 494.572C22.4405 496.072 25.759 498.877 25.8136 499.805C25.8172 499.866 25.8148 499.931 25.8067 500H4.94498L0 495.098Z" fill="#42535D"/>
<path d="M0 466.536V452.37C8.63381 458 36.3072 481.146 38.528 486.893C39.1253 488.44 34.1559 494.57 32.1608 494.59C29.9059 494.613 11.2696 477.815 0 466.536Z" fill="#42535D"/>
<path d="M0 438.928V421.452C1.73713 423.154 3.00028 424.397 3.50624 424.898C6.28951 427.657 10.336 431.694 10.9574 433.302C11.5788 434.91 6.29049 440.6 4.24131 441.192C3.05432 441.535 1.60832 440.455 0 438.928Z" fill="#42535D"/>
<path d="M48.8886 0C49.9497 1.25945 50.6251 2.33728 50.4491 2.77631C49.9062 4.13051 28.1178 26.5464 25.7279 28.9712C23.3381 31.3961 19.838 34.9188 18.3366 35.3579C16.8352 35.797 10.707 30.0622 9.90682 28.0065C9.29292 26.4293 11.0644 24.6671 13.0368 22.7051C13.3017 22.4416 13.5703 22.1744 13.8372 21.9036C23.9963 10.9954 27.2631 7.6809 33.9729 0.873006C34.134 0.709527 34.4182 0.400478 34.7853 0H48.8886Z" fill="#42535D"/>
<path d="M136.054 0H120.214C108.662 9.15309 91.9733 23.8823 90.2791 28.3019C89.6859 29.8512 94.6718 35.9669 96.667 35.9819C99.5694 36.0038 129.534 8.08635 136.054 0Z" fill="#42535D"/>
<path d="M218.528 0C219.589 1.25945 220.264 2.33728 220.088 2.77631C219.545 4.13051 197.757 26.5464 195.367 28.9712C192.977 31.3961 189.477 34.9188 187.976 35.3579C186.474 35.797 180.346 30.0622 179.546 28.0065C178.932 26.4293 180.703 24.6671 182.676 22.7051C182.941 22.4416 183.209 22.1744 183.476 21.9036C193.635 10.9954 196.902 7.6809 203.612 0.873006C203.773 0.709527 204.057 0.400478 204.424 0H218.528Z" fill="#42535D"/>
<path d="M301.232 0H285.393C273.841 9.15309 257.152 23.8823 255.457 28.3019C254.864 29.8512 259.85 35.9669 261.845 35.9819C264.748 36.0038 294.713 8.08635 301.232 0Z" fill="#42535D"/>
<path d="M383.707 0C384.768 1.25945 385.444 2.33728 385.268 2.77631C384.725 4.13051 362.936 26.5464 360.547 28.9712C358.157 31.3961 354.657 34.9188 353.155 35.3579C351.654 35.797 345.526 30.0622 344.725 28.0065C344.112 26.4293 345.883 24.6671 347.855 22.7051C348.12 22.4416 348.389 22.1744 348.656 21.9036C358.815 10.9954 362.082 7.6809 368.792 0.873006C368.953 0.709527 369.237 0.400478 369.604 0H383.707Z" fill="#42535D"/>
<path d="M25.8077 0C25.62 1.64082 22.2847 5.59697 21.4664 6.4225C20.972 6.92132 16.8598 10.504 16.2672 10.6751C15.0535 11.0256 10.6568 6.08087 8.46931 3.62064C7.93178 3.01611 7.52764 2.56159 7.33688 2.37251L4.94336 0H25.8077Z" fill="#42535D"/>
<path d="M104.652 0C105.457 0.791579 106.057 1.49822 106.079 1.87221C106.16 3.24705 102.871 7.15371 102.089 7.94287C101.635 8.40062 97.8621 11.6883 97.3183 11.8454C96.2045 12.167 92.1698 7.62936 90.1623 5.3717C89.6691 4.81694 89.2982 4.39984 89.1231 4.22633L84.8594 0H104.652Z" fill="#D88D3A"/>
<path d="M77.6564 0H61.0605C67.054 5.93704 70.8852 9.69279 81.2716 19.5299C81.5569 19.8126 81.8388 20.0965 82.1169 20.3766C84.1874 22.4618 86.047 24.3347 87.4898 23.9181C89.3702 23.3751 94.2232 18.153 93.6529 16.6777C93.0827 15.2023 89.3693 11.4976 86.8152 8.96597C85.8786 8.03763 82.1146 4.34162 77.6564 0Z" fill="#939878"/>
<path d="M195.444 0C195.257 1.64082 191.921 5.59697 191.103 6.4225C190.609 6.92132 186.497 10.504 185.904 10.6751C184.69 11.0256 180.294 6.08087 178.106 3.62064C177.568 3.01611 177.164 2.56159 176.974 2.37251L174.58 0H195.444Z" fill="#D88D3A"/>
<path d="M166.768 0H148.65C154.024 5.30963 158.452 9.61055 168.417 19.0493C168.728 19.3574 169.036 19.6668 169.339 19.972C171.595 22.2443 173.621 24.2852 175.193 23.8312C177.243 23.2395 182.531 17.5489 181.91 15.9412C181.288 14.3335 177.242 10.2964 174.458 7.53761C173.603 6.68976 170.583 3.72345 166.768 0Z" fill="#42535D"/>
<path d="M271.15 0C272.194 0.973219 273.061 1.90227 273.087 2.34778C273.166 3.69002 269.955 7.50403 269.192 8.27447C268.749 8.72136 265.065 11.9311 264.534 12.0844C263.446 12.3984 259.507 7.9684 257.547 5.76427C257.066 5.22267 256.704 4.81547 256.533 4.64607L251.846 0H271.15Z" fill="#D88D3A"/>
<path d="M244.802 0H228.609C234.769 6.10454 238.426 9.6989 248.865 19.5867C249.144 19.8627 249.419 20.1399 249.691 20.4133C251.712 22.4491 253.528 24.2776 254.936 23.8708C256.772 23.3407 261.51 18.2424 260.953 16.8021C260.396 15.3618 256.771 11.7449 254.278 9.27329C253.326 8.33012 249.385 4.46074 244.802 0Z" fill="#42535D"/>
<path d="M331.947 0H313.828C319.203 5.30963 323.63 9.61055 333.596 19.0493C333.907 19.3574 334.214 19.6668 334.517 19.972C336.774 22.2443 338.8 24.2852 340.372 23.8312C342.421 23.2395 347.71 17.5489 347.088 15.9412C346.467 14.3335 342.42 10.2964 339.637 7.53761C338.782 6.68976 335.762 3.72345 331.947 0Z" fill="#42535D"/>
<path d="M360.624 0C360.436 1.64082 357.101 5.59697 356.283 6.4225C355.788 6.92132 351.676 10.504 351.084 10.6751C349.87 11.0256 345.473 6.08087 343.286 3.62064C342.748 3.01611 342.344 2.56159 342.153 2.37251L339.76 0H360.624Z" fill="#D88D3A"/>
<path d="M435.091 0C436.135 0.973219 437.002 1.90227 437.028 2.34778C437.107 3.69002 433.896 7.50403 433.133 8.27447C432.69 8.72136 429.006 11.9311 428.475 12.0844C427.387 12.3984 423.448 7.9684 421.488 5.76427C421.007 5.22267 420.645 4.81547 420.474 4.64607L415.787 0H435.091Z" fill="#D88D3A"/>
<path d="M408.746 0H392.553C398.714 6.10454 402.37 9.6989 412.81 19.5867C413.088 19.8627 413.363 20.1399 413.635 20.4133C415.656 22.4491 417.472 24.2776 418.88 23.8708C420.716 23.3407 425.454 18.2424 424.897 16.8021C424.341 15.3618 420.715 11.7449 418.222 9.27329C417.27 8.33012 413.329 4.46074 408.746 0Z" fill="#42535D"/>
<path d="M497.127 0H479.008C484.382 5.30963 488.81 9.61055 498.776 19.0493C499.087 19.3574 499.394 19.6668 499.697 19.972C499.799 20.0742 499.9 20.176 500 20.277V2.80796C499.117 1.94405 498.151 0.999293 497.127 0Z" fill="#42535D"/>
<path d="M466.412 0H450.573C439.02 9.15309 422.331 23.8823 420.637 28.3019C420.044 29.8512 425.03 35.9669 427.025 35.9819C429.927 36.0038 459.893 8.08635 466.412 0Z" fill="#42535D"/>
<path d="M0 108.469V90.9932C1.73713 92.6954 3.00028 93.9381 3.50624 94.4396C6.28951 97.1983 10.336 101.235 10.9574 102.843C11.5788 104.451 6.29049 110.141 4.24131 110.733C3.05432 111.076 1.60832 109.996 0 108.469Z" fill="#42535D"/>
<path d="M0 83.3053V64.5156C0.908744 65.2784 1.82167 66.0408 2.73613 66.8045C8.05118 71.2431 13.4181 75.725 18.3176 80.5815C18.4597 80.7224 18.8417 81.0453 19.3504 81.4753C21.1257 82.9759 24.4442 85.781 24.4988 86.7085C24.5871 88.2067 21.0033 92.4639 20.1509 93.3238C19.6565 93.8226 15.5443 97.4053 14.9517 97.5764C13.738 97.9269 9.34133 92.9822 7.15378 90.522C6.61625 89.9174 6.2121 89.4629 6.02135 89.2738L0 83.3053Z" fill="#D88D3A"/>
<path d="M0 54.7489V40.1641C9.82279 47.0075 35.095 68.3162 37.2132 73.7974C37.8105 75.3451 32.8411 81.4742 30.846 81.4946C28.6768 81.5169 11.347 65.9719 0 54.7489Z" fill="#42535D"/>
</svg>
