<svg width="500" height="500" viewBox="0 0 500 500" fill="none" xmlns="http://www.w3.org/2000/svg">
<path fill-rule="evenodd" clip-rule="evenodd" d="M139.569 304.367C138.498 303.938 134.769 306.368 134.716 306.794C134.262 310.429 133.056 313.896 132.289 317.471C130.013 328.102 125.826 338.3 124.038 349.021C123.609 351.595 121.756 356.592 123.068 359.216C123.791 360.66 144.128 363.393 145.882 361.643C152.952 354.57 149.764 329.292 149.764 319.898C149.764 317.243 151.007 310.739 149.764 308.25C148.23 305.185 143.42 305.908 139.569 304.367Z" fill="#2E3120"/>
<path fill-rule="evenodd" clip-rule="evenodd" d="M436.502 58.2527C435.432 57.8238 431.702 60.2535 431.649 60.6794C431.195 64.3147 429.99 67.7809 429.222 71.3567C426.946 81.987 422.76 92.1852 420.972 102.906C420.543 105.48 418.689 110.477 420.001 113.101C420.724 114.545 441.061 117.278 442.815 115.528C449.885 108.454 446.698 83.1769 446.698 73.7833C446.698 71.1281 447.941 64.6246 446.698 62.1354C445.163 59.0699 440.354 59.7933 436.502 58.2527Z" fill="#2E3120"/>
<path fill-rule="evenodd" clip-rule="evenodd" d="M436.502 304.882C435.432 304.453 431.702 306.883 431.649 307.309C431.195 310.944 429.99 314.41 429.222 317.986C426.946 328.617 422.76 338.815 420.972 349.536C420.543 352.11 418.689 357.107 420.001 359.731C420.724 361.175 441.061 363.908 442.815 362.158C449.885 355.084 446.698 329.806 446.698 320.413C446.698 317.758 447.941 311.254 446.698 308.765C445.163 305.7 440.354 306.423 436.502 304.882Z" fill="#2E3120"/>
<path fill-rule="evenodd" clip-rule="evenodd" d="M323.608 226.823C322.537 226.394 318.808 228.824 318.755 229.25C318.301 232.885 317.095 236.351 316.328 239.927C314.052 250.558 309.865 260.756 308.077 271.477C307.648 274.051 305.795 279.048 307.107 281.672C307.83 283.116 328.167 285.849 329.92 284.099C336.991 277.025 333.803 251.747 333.803 242.354C333.803 239.699 335.046 233.195 333.803 230.706C332.269 227.64 327.459 228.364 323.608 226.823Z" fill="#2E3120"/>
<path fill-rule="evenodd" clip-rule="evenodd" d="M323.608 136.137C322.537 135.708 318.808 138.138 318.755 138.564C318.301 142.199 317.095 145.666 316.328 149.241C314.052 159.872 309.865 170.07 308.077 180.791C307.648 183.365 305.795 188.362 307.107 190.986C307.83 192.43 328.167 195.163 329.92 193.413C336.991 186.34 333.803 161.062 333.803 151.668C333.803 149.013 335.046 142.509 333.803 140.02C332.269 136.955 327.459 137.678 323.608 136.137Z" fill="#2E3120"/>
<path fill-rule="evenodd" clip-rule="evenodd" d="M400.682 226.823C399.611 226.394 395.882 228.824 395.829 229.25C395.375 232.885 394.169 236.352 393.402 239.927C391.126 250.558 386.939 260.756 385.151 271.477C384.722 274.051 382.869 279.048 384.181 281.672C384.904 283.116 405.241 285.849 406.994 284.099C414.065 277.025 410.877 251.748 410.877 242.354C410.877 239.699 412.12 233.195 410.877 230.706C409.343 227.641 404.533 228.364 400.682 226.823Z" fill="#2E3120"/>
<path fill-rule="evenodd" clip-rule="evenodd" d="M323.608 389.5C322.537 389.071 318.808 391.501 318.755 391.927C318.301 395.562 317.095 399.028 316.328 402.604C314.052 413.234 309.865 423.433 308.077 434.154C307.648 436.728 305.795 441.725 307.107 444.349C307.83 445.792 328.167 448.526 329.92 446.776C336.991 439.702 333.803 414.424 333.803 405.031C333.803 402.375 335.046 395.872 333.803 393.383C332.269 390.317 327.459 391.041 323.608 389.5Z" fill="#2E3120"/>
<path fill-rule="evenodd" clip-rule="evenodd" d="M221.272 229.413C219.875 229.413 216.71 231.144 216.581 232.165C215.952 237.197 215.589 242.595 215.125 247.699C214.28 257.014 213.184 266.489 213.184 275.851C213.184 276.853 212.191 284.565 213.184 285.558C214.43 286.804 223.329 285.558 224.835 285.558C225.709 285.558 230.474 286.864 231.144 286.529C232.854 285.674 231.63 274.455 231.63 272.936V240.901C231.63 238.95 231.354 230.919 230.174 229.739C227.988 227.556 225.871 229.413 221.272 229.413Z" fill="#2E3120"/>
<path fill-rule="evenodd" clip-rule="evenodd" d="M221.272 138.727C219.875 138.727 216.71 140.458 216.581 141.479C215.952 146.511 215.589 151.909 215.125 157.013C214.28 166.328 213.184 175.803 213.184 185.165C213.184 186.167 212.191 193.879 213.184 194.872C214.43 196.118 223.329 194.872 224.835 194.872C225.709 194.872 230.474 196.178 231.144 195.843C232.854 194.988 231.63 183.769 231.63 182.25V150.215C231.63 148.265 231.354 140.233 230.174 139.053C227.988 136.87 225.871 138.727 221.272 138.727Z" fill="#2E3120"/>
<path fill-rule="evenodd" clip-rule="evenodd" d="M221.272 392.09C219.875 392.09 216.71 393.821 216.581 394.842C215.952 399.874 215.589 405.272 215.125 410.376C214.28 419.691 213.184 429.166 213.184 438.528C213.184 439.53 212.191 447.242 213.184 448.235C214.43 449.481 223.329 448.235 224.835 448.235C225.709 448.235 230.474 449.541 231.144 449.206C232.854 448.351 231.63 437.132 231.63 435.613V403.578C231.63 401.627 231.354 393.596 230.174 392.415C227.988 390.233 225.871 392.09 221.272 392.09Z" fill="#2E3120"/>
<path fill-rule="evenodd" clip-rule="evenodd" d="M315.173 58.6731C313.777 58.6731 310.611 60.4046 310.483 61.4254C309.854 66.4572 309.49 71.8553 309.027 76.9591C308.182 86.2744 307.086 95.7494 307.086 105.112C307.086 106.114 306.093 113.826 307.086 114.819C308.332 116.065 317.231 114.819 318.737 114.819C319.61 114.819 324.376 116.124 325.046 115.789C326.756 114.934 325.531 103.715 325.531 102.197V70.1614C325.531 68.2107 325.256 60.1792 324.075 58.9987C321.89 56.8163 319.773 58.6731 315.173 58.6731Z" fill="#2E3120"/>
<path fill-rule="evenodd" clip-rule="evenodd" d="M315.173 305.303C313.777 305.303 310.611 307.035 310.483 308.056C309.854 313.088 309.49 318.486 309.027 323.59C308.182 332.905 307.086 342.38 307.086 351.742C307.086 352.744 306.093 360.456 307.086 361.449C308.332 362.695 317.231 361.449 318.737 361.449C319.61 361.449 324.376 362.754 325.046 362.419C326.756 361.564 325.531 350.345 325.531 348.827V316.792C325.531 314.841 325.256 306.81 324.075 305.629C321.89 303.447 319.773 305.303 315.173 305.303Z" fill="#2E3120"/>
<path fill-rule="evenodd" clip-rule="evenodd" d="M396.532 58.6731C395.136 58.6731 391.97 60.4046 391.842 61.4254C391.213 66.4572 390.849 71.8553 390.386 76.9591C389.541 86.2744 388.445 95.7493 388.445 105.112C388.445 106.114 387.452 113.826 388.445 114.818C389.691 116.065 398.59 114.818 400.096 114.818C400.969 114.818 405.735 116.124 406.405 115.789C408.115 114.934 406.89 103.715 406.89 102.197V70.1614C406.89 68.2106 406.615 60.1792 405.434 58.9987C403.249 56.8163 401.132 58.6731 396.532 58.6731Z" fill="#2E3120"/>
<path fill-rule="evenodd" clip-rule="evenodd" d="M181.642 392.34C180.246 392.34 177.08 394.071 176.952 395.092C176.323 400.124 175.959 405.522 175.496 410.626C174.65 419.941 173.555 429.416 173.555 438.778C173.555 439.78 172.562 447.492 173.555 448.485C174.801 449.731 183.7 448.485 185.206 448.485C186.079 448.485 190.845 449.791 191.515 449.456C193.225 448.601 192 437.382 192 435.863V403.828C192 401.877 191.725 393.846 190.544 392.665C188.359 390.483 186.242 392.34 181.642 392.34Z" fill="#2E3120"/>
<path fill-rule="evenodd" clip-rule="evenodd" d="M396.532 305.303C395.136 305.303 391.97 307.035 391.842 308.056C391.213 313.087 390.849 318.485 390.386 323.589C389.541 332.905 388.445 342.38 388.445 351.742C388.445 352.744 387.452 360.456 388.445 361.448C389.691 362.695 398.59 361.448 400.096 361.448C400.969 361.448 405.735 362.754 406.405 362.419C408.115 361.564 406.89 350.345 406.89 348.827V316.792C406.89 314.841 406.615 306.809 405.434 305.629C403.249 303.446 401.132 305.303 396.532 305.303Z" fill="#2E3120"/>
<path fill-rule="evenodd" clip-rule="evenodd" d="M69.6267 58.6731C68.2302 58.6731 65.0646 60.4046 64.9362 61.4254C64.3068 66.4572 63.9436 71.8553 63.4802 76.9591C62.6348 86.2744 61.5388 95.7493 61.5388 105.112C61.5388 106.114 60.5463 113.826 61.5388 114.818C62.7851 116.065 71.6839 114.818 73.19 114.818C74.0636 114.818 78.8292 116.124 79.4993 115.789C81.2089 114.934 79.9846 103.715 79.9846 102.197V70.1614C79.9846 68.2106 79.7091 60.1792 78.5286 58.9987C76.343 56.8163 74.2264 58.6731 69.6267 58.6731Z" fill="#2E3120"/>
<path fill-rule="evenodd" clip-rule="evenodd" d="M69.6267 305.303C68.2302 305.303 65.0646 307.035 64.9362 308.056C64.3068 313.087 63.9436 318.485 63.4802 323.589C62.6348 332.905 61.5388 342.38 61.5388 351.742C61.5388 352.744 60.5463 360.456 61.5388 361.448C62.7851 362.695 71.6839 361.448 73.19 361.448C74.0636 361.448 78.8292 362.754 79.4993 362.419C81.2089 361.564 79.9846 350.345 79.9846 348.827V316.792C79.9846 314.841 79.7091 306.809 78.5286 305.629C76.343 303.446 74.2264 305.303 69.6267 305.303Z" fill="#2E3120"/>
<path fill-rule="evenodd" clip-rule="evenodd" d="M245.864 228.945C251.929 222.078 259.491 227.695 261.204 229.408C262.465 230.67 261.204 240.771 261.204 242.515C261.204 254.786 263.12 267.884 260.718 279.889C260.267 282.137 260.308 288.102 258.292 289.11C255.975 290.269 245.864 289.495 244.702 287.169C243.331 284.426 245.711 278.687 246.158 276.006C247.642 267.086 245.864 228.816 245.864 228.945Z" fill="#2E3120"/>
<path fill-rule="evenodd" clip-rule="evenodd" d="M134.415 136.842C140.48 129.976 148.042 135.593 149.755 137.306C151.016 138.567 149.755 148.669 149.755 150.413C149.755 162.684 151.671 175.782 149.269 187.786C148.818 190.035 148.859 196 146.843 197.008C144.526 198.166 134.415 197.393 133.253 195.066C131.882 192.324 134.261 186.584 134.709 183.904C136.193 174.983 134.415 136.714 134.415 136.842Z" fill="#2E3120"/>
<path fill-rule="evenodd" clip-rule="evenodd" d="M134.415 390.205C140.48 383.338 148.042 388.956 149.755 390.668C151.016 391.93 149.755 402.031 149.755 403.775C149.755 416.047 151.671 429.144 149.269 441.149C148.818 443.397 148.859 449.362 146.843 450.37C144.526 451.529 134.415 450.756 133.253 448.429C131.882 445.686 134.261 439.947 134.709 437.266C136.193 428.346 134.415 390.077 134.415 390.205Z" fill="#2E3120"/>
<path fill-rule="evenodd" clip-rule="evenodd" d="M461.223 59.6218C467.288 52.7551 474.85 58.3724 476.562 60.0852C477.824 61.3471 476.562 71.4482 476.562 73.1923C476.562 85.4634 478.479 98.5611 476.077 110.566C475.626 112.814 475.667 118.779 473.651 119.787C471.333 120.946 461.223 120.173 460.061 117.846C458.69 115.103 461.069 109.364 461.517 106.683C463.001 97.7626 461.223 59.4934 461.223 59.6218Z" fill="#2E3120"/>
<path fill-rule="evenodd" clip-rule="evenodd" d="M461.223 306.252C467.288 299.385 474.85 305.003 476.562 306.715C477.824 307.977 476.562 318.078 476.562 319.822C476.562 332.094 478.479 345.191 476.077 357.196C475.626 359.444 475.667 365.409 473.651 366.417C471.333 367.576 461.223 366.803 460.061 364.476C458.69 361.733 461.069 355.994 461.517 353.313C463.001 344.393 461.223 306.124 461.223 306.252Z" fill="#2E3120"/>
<path fill-rule="evenodd" clip-rule="evenodd" d="M349.235 138.259C355.301 131.392 362.862 137.01 364.575 138.722C365.837 139.984 364.575 150.085 364.575 151.829C364.575 164.101 366.491 177.198 364.09 189.203C363.639 191.451 363.68 197.416 361.663 198.424C359.346 199.583 349.236 198.81 348.074 196.483C346.702 193.74 349.082 188.001 349.53 185.321C351.014 176.4 349.235 138.131 349.235 138.259Z" fill="#2E3120"/>
<path fill-rule="evenodd" clip-rule="evenodd" d="M349.235 391.622C355.301 384.755 362.862 390.372 364.575 392.085C365.837 393.347 364.575 403.448 364.575 405.192C364.575 417.463 366.491 430.561 364.09 442.566C363.639 444.814 363.68 450.779 361.663 451.787C359.346 452.946 349.236 452.172 348.074 449.846C346.702 447.103 349.082 441.364 349.53 438.683C351.014 429.763 349.235 391.493 349.235 391.622Z" fill="#2E3120"/>
<path fill-rule="evenodd" clip-rule="evenodd" d="M281.278 220.311C279.149 220.311 279.584 229.144 279.584 230.679V247.18C279.584 257.115 280.53 269.117 278.128 278.73C277.514 281.175 273.497 288.399 274.245 289.892C276.124 293.65 288.63 296.292 292.688 294.263C297.494 291.859 296.492 284.77 297.056 279.7C298.506 266.656 297.541 253.063 297.541 239.9C297.541 236.434 300.673 228.374 299.019 225.074C296.355 219.741 287.866 220.311 281.278 220.311Z" fill="#2E3120"/>
<path fill-rule="evenodd" clip-rule="evenodd" d="M281.278 129.625C279.149 129.625 279.584 138.459 279.584 139.993V156.494C279.584 166.429 280.53 178.431 278.128 188.044C277.514 190.489 273.497 197.713 274.245 199.206C276.124 202.964 288.63 205.607 292.688 203.578C297.494 201.173 296.492 194.084 297.056 189.014C298.506 175.97 297.541 162.378 297.541 149.214C297.541 145.748 300.673 137.688 299.019 134.388C296.355 129.056 287.866 129.625 281.278 129.625Z" fill="#2E3120"/>
<path fill-rule="evenodd" clip-rule="evenodd" d="M281.278 382.988C279.149 382.988 279.584 391.821 279.584 393.356V409.857C279.584 419.792 280.53 431.794 278.128 441.407C277.514 443.852 273.497 451.076 274.245 452.569C276.124 456.327 288.63 458.969 292.688 456.94C297.494 454.536 296.492 447.447 297.056 442.377C298.506 429.333 297.541 415.74 297.541 402.577C297.541 399.111 300.673 391.051 299.019 387.751C296.355 382.418 287.866 382.988 281.278 382.988Z" fill="#2E3120"/>
<path fill-rule="evenodd" clip-rule="evenodd" d="M69.9334 228.436C66.3733 227.935 66.6112 247.273 65.9005 252.615C64.7732 261.054 62.9885 269.815 62.9885 278.341C62.9885 280.119 61.8049 285.514 63.9591 286.591C65.4652 287.343 67.9639 286.106 69.2978 286.106C84.9412 286.106 79.4898 261.223 79.4898 249.218V239.023C79.4898 237.895 80.4229 230.249 79.4898 229.316C78.5066 228.333 69.6735 228.436 69.9334 228.436Z" fill="#2E3120"/>
<path fill-rule="evenodd" clip-rule="evenodd" d="M69.9334 137.75C66.3733 137.249 66.6112 156.587 65.9005 161.929C64.7732 170.368 62.9885 179.129 62.9885 187.655C62.9885 189.433 61.8049 194.828 63.9591 195.905C65.4652 196.657 67.9639 195.42 69.2978 195.42C84.9412 195.42 79.4898 170.537 79.4898 158.532V148.337C79.4898 147.209 80.4229 139.563 79.4898 138.63C78.5066 137.647 69.6735 137.75 69.9334 137.75Z" fill="#2E3120"/>
<path fill-rule="evenodd" clip-rule="evenodd" d="M69.9334 391.113C66.3733 390.612 66.6112 409.95 65.9005 415.292C64.7732 423.73 62.9885 432.491 62.9885 441.018C62.9885 442.796 61.8049 448.191 63.9591 449.268C65.4652 450.02 67.9639 448.783 69.2978 448.783C84.9412 448.783 79.4898 423.899 79.4898 411.895V401.699C79.4898 400.572 80.4229 392.926 79.4898 391.993C78.5066 391.01 69.6735 391.113 69.9334 391.113Z" fill="#2E3120"/>
<path fill-rule="evenodd" clip-rule="evenodd" d="M386.398 390.01C382.838 389.509 383.076 408.847 382.365 414.189C381.238 422.627 379.453 431.388 379.453 439.914C379.453 441.693 378.27 447.088 380.424 448.165C381.93 448.916 384.429 447.68 385.763 447.68C401.406 447.68 395.955 422.796 395.955 410.791V400.596C395.955 399.469 396.888 391.822 395.955 390.889C394.971 389.906 386.138 390.01 386.398 390.01Z" fill="#2E3120"/>
<path fill-rule="evenodd" clip-rule="evenodd" d="M35.6014 57.6971C32.0413 57.1961 32.2792 76.5342 31.5685 81.876C30.4412 90.3145 28.6565 99.0756 28.6565 107.601C28.6565 109.38 27.4729 114.775 29.6271 115.852C31.1332 116.603 33.6319 115.367 34.9658 115.367C50.6092 115.367 45.1578 90.4836 45.1578 78.4787V68.2836C45.1578 67.1563 46.0909 59.51 45.1578 58.5769C44.1746 57.5937 35.3415 57.6971 35.6014 57.6971Z" fill="#2E3120"/>
<path fill-rule="evenodd" clip-rule="evenodd" d="M35.6014 304.326C32.0413 303.825 32.2792 323.164 31.5685 328.505C30.4412 336.944 28.6565 345.705 28.6565 354.231C28.6565 356.01 27.4729 361.405 29.6271 362.482C31.1332 363.233 33.6319 361.996 34.9658 361.996C50.6092 361.996 45.1578 337.113 45.1578 325.108V314.913C45.1578 313.786 46.0909 306.139 45.1578 305.206C44.1746 304.223 35.3415 304.326 35.6014 304.326Z" fill="#2E3120"/>
<path fill-rule="evenodd" clip-rule="evenodd" d="M465.301 224.211C461.74 223.71 461.978 243.048 461.268 248.39C460.14 256.828 458.356 265.589 458.356 274.115C458.356 275.894 457.172 281.289 459.326 282.366C460.832 283.118 463.331 281.881 464.665 281.881C480.308 281.881 474.857 256.997 474.857 244.992V234.797C474.857 233.67 475.79 226.024 474.857 225.091C473.874 224.107 465.041 224.211 465.301 224.211Z" fill="#2E3120"/>
<path fill-rule="evenodd" clip-rule="evenodd" d="M465.301 133.525C461.74 133.024 461.978 152.362 461.268 157.704C460.14 166.142 458.356 174.903 458.356 183.43C458.356 185.208 457.172 190.603 459.326 191.68C460.832 192.432 463.331 191.195 464.665 191.195C480.308 191.195 474.857 166.311 474.857 154.307V144.111C474.857 142.984 475.79 135.338 474.857 134.405C473.874 133.422 465.041 133.525 465.301 133.525Z" fill="#2E3120"/>
<path fill-rule="evenodd" clip-rule="evenodd" d="M465.301 386.888C461.74 386.387 461.978 405.725 461.268 411.067C460.14 419.505 458.356 428.266 458.356 436.792C458.356 438.571 457.172 443.966 459.326 445.043C460.832 445.794 463.331 444.558 464.665 444.558C480.308 444.558 474.857 419.674 474.857 407.669V397.474C474.857 396.347 475.79 388.701 474.857 387.767C473.874 386.784 465.041 386.888 465.301 386.888Z" fill="#2E3120"/>
<path fill-rule="evenodd" clip-rule="evenodd" d="M281.379 58.2117C277.818 57.7108 278.056 77.0489 277.346 82.3907C276.218 90.8292 274.434 99.5902 274.434 108.116C274.434 109.895 273.25 115.29 275.404 116.367C276.91 117.118 279.409 115.881 280.743 115.881C296.386 115.881 290.935 90.9983 290.935 78.9933V68.7982C290.935 67.671 291.868 60.0247 290.935 59.0916C289.952 58.1084 281.119 58.2117 281.379 58.2117Z" fill="#2E3120"/>
<path fill-rule="evenodd" clip-rule="evenodd" d="M281.379 304.841C277.818 304.34 278.056 323.678 277.346 329.02C276.218 337.459 274.434 346.22 274.434 354.746C274.434 356.525 273.25 361.92 275.404 362.997C276.91 363.748 279.409 362.511 280.743 362.511C296.386 362.511 290.935 337.628 290.935 325.623V315.428C290.935 314.301 291.868 306.654 290.935 305.721C289.952 304.738 281.119 304.841 281.379 304.841Z" fill="#2E3120"/>
<path fill-rule="evenodd" clip-rule="evenodd" d="M175.656 304.841C172.096 304.34 172.334 323.678 171.623 329.02C170.496 337.459 168.711 346.22 168.711 354.746C168.711 356.525 167.528 361.92 169.682 362.997C171.188 363.748 173.687 362.511 175.02 362.511C190.664 362.511 185.212 337.628 185.212 325.623V315.428C185.212 314.301 186.145 306.654 185.212 305.721C184.229 304.738 175.396 304.841 175.656 304.841Z" fill="#2E3120"/>
<path fill-rule="evenodd" clip-rule="evenodd" d="M99.9021 57.6971C96.342 57.1961 96.58 76.5342 95.8692 81.876C94.7419 90.3145 92.9572 99.0756 92.9572 107.601C92.9572 109.38 91.7736 114.775 93.9279 115.852C95.434 116.603 97.9326 115.367 99.2665 115.367C114.91 115.367 109.459 90.4836 109.459 78.4787V68.2836C109.459 67.1563 110.392 59.51 109.459 58.5769C108.476 57.5937 99.6422 57.6971 99.9021 57.6971Z" fill="#2E3120"/>
<path fill-rule="evenodd" clip-rule="evenodd" d="M99.9021 304.326C96.342 303.825 96.58 323.164 95.8692 328.505C94.7419 336.944 92.9572 345.705 92.9572 354.231C92.9572 356.01 91.7736 361.405 93.9279 362.482C95.434 363.233 97.9326 361.996 99.2665 361.996C114.91 361.996 109.459 337.113 109.459 325.108V314.913C109.459 313.786 110.392 306.139 109.459 305.206C108.476 304.223 99.6422 304.326 99.9021 304.326Z" fill="#2E3120"/>
<path fill-rule="evenodd" clip-rule="evenodd" d="M380.045 130.174C376.767 130.437 377.75 150.865 377.268 154.472C376.789 158.07 376.701 161.527 376.297 165.15C375.473 172.577 375.583 180.067 374.841 187.478C374.565 190.23 372.934 197.25 374.356 200.097C375.342 202.069 379.885 201.202 381.639 201.553C383.558 201.938 386.868 203.209 388.919 202.523C395.006 200.494 391.787 192.82 392.316 186.993C393.543 173.479 393.287 159.307 393.287 145.736C393.287 143.526 395.096 130.556 393.287 128.747C392.231 127.691 385.678 128.95 384.551 129.232C383.602 129.47 379.027 129.16 380.045 130.174Z" fill="#2E3120"/>
<path fill-rule="evenodd" clip-rule="evenodd" d="M248.666 53.6549C245.388 53.9179 246.371 74.3457 245.889 77.9528C245.41 81.5505 245.322 85.0073 244.918 88.6301C244.094 96.0572 244.204 103.547 243.462 110.959C243.186 113.711 241.555 120.731 242.977 123.577C243.963 125.55 248.506 124.682 250.26 125.033C252.179 125.418 255.489 126.69 257.54 126.004C263.627 123.975 260.408 116.3 260.937 110.473C262.164 96.959 261.908 82.7873 261.908 69.2168C261.908 67.0062 263.717 54.0368 261.908 52.227C260.852 51.1718 254.299 52.4306 253.172 52.7124C252.223 52.9504 247.648 52.6404 248.666 53.6549Z" fill="#2E3120"/>
<path fill-rule="evenodd" clip-rule="evenodd" d="M248.666 300.285C245.388 300.548 246.371 320.976 245.889 324.583C245.41 328.18 245.322 331.637 244.918 335.26C244.094 342.687 244.204 350.177 243.462 357.588C243.186 360.341 241.555 367.361 242.977 370.207C243.963 372.18 248.506 371.312 250.26 371.663C252.179 372.048 255.489 373.319 257.54 372.634C263.627 370.605 260.408 362.93 260.937 357.103C262.164 343.589 261.908 329.417 261.908 315.847C261.908 313.636 263.717 300.667 261.908 298.857C260.852 297.802 254.299 299.06 253.172 299.342C252.223 299.58 247.648 299.27 248.666 300.285Z" fill="#2E3120"/>
<path fill-rule="evenodd" clip-rule="evenodd" d="M28.727 228.893C27.9254 227.437 30.0295 236.267 30.0295 237.911C30.0295 243.227 28.7959 248.619 28.0882 253.93C26.0404 269.288 16.4214 286.45 36.3389 286.45C39.0348 286.45 42.5198 286.816 45.0748 285.965C48.9324 284.678 48.8009 278.832 49.4428 275.284C51.356 264.773 49.9282 252.943 49.9282 242.279C49.9282 239.933 51.2151 230.944 49.4428 229.175C47.9273 227.656 28.727 231.191 28.727 228.893Z" fill="#2E3120"/>
<path fill-rule="evenodd" clip-rule="evenodd" d="M28.727 138.207C27.9254 136.751 30.0295 145.581 30.0295 147.225C30.0295 152.541 28.7959 157.933 28.0882 163.244C26.0404 178.602 16.4214 195.764 36.3389 195.764C39.0348 195.764 42.5198 196.131 45.0748 195.279C48.9324 193.992 48.8009 188.146 49.4428 184.598C51.356 174.087 49.9282 162.258 49.9282 151.593C49.9282 149.247 51.2151 140.258 49.4428 138.489C47.9273 136.97 28.727 140.505 28.727 138.207Z" fill="#2E3120"/>
<path fill-rule="evenodd" clip-rule="evenodd" d="M28.727 391.57C27.9254 390.114 30.0295 398.944 30.0295 400.588C30.0295 405.904 28.7959 411.296 28.0882 416.607C26.0404 431.965 16.4214 449.127 36.3389 449.127C39.0348 449.127 42.5198 449.493 45.0748 448.642C48.9324 447.355 48.8009 441.509 49.4428 437.961C51.356 427.45 49.9282 415.62 49.9282 404.956C49.9282 402.61 51.2151 393.621 49.4428 391.852C47.9273 390.333 28.727 393.868 28.727 391.57Z" fill="#2E3120"/>
<path fill-rule="evenodd" clip-rule="evenodd" d="M351.501 226.934C350.699 225.478 352.803 234.308 352.803 235.952C352.803 241.269 351.57 246.661 350.862 251.971C348.814 267.329 339.195 284.491 359.113 284.491C361.809 284.491 365.294 284.858 367.849 284.006C371.706 282.719 371.575 276.873 372.217 273.326C374.13 262.814 372.702 250.985 372.702 240.32C372.702 237.975 373.989 228.985 372.217 227.216C370.701 225.697 351.501 229.232 351.501 226.934Z" fill="#2E3120"/>
<path fill-rule="evenodd" clip-rule="evenodd" d="M245.298 137.104C244.496 135.648 246.6 144.478 246.6 146.121C246.6 151.438 245.366 156.83 244.659 162.141C242.611 177.499 232.992 194.661 252.909 194.661C255.605 194.661 259.09 195.027 261.645 194.176C265.503 192.889 265.372 187.043 266.013 183.495C267.927 172.984 266.499 161.154 266.499 150.489C266.499 148.144 267.786 139.155 266.013 137.386C264.498 135.867 245.298 139.402 245.298 137.104Z" fill="#2E3120"/>
<path fill-rule="evenodd" clip-rule="evenodd" d="M245.298 390.466C244.496 389.01 246.6 397.84 246.6 399.484C246.6 404.801 245.366 410.193 244.659 415.503C242.611 430.862 232.992 448.024 252.909 448.024C255.605 448.024 259.09 448.39 261.645 447.538C265.503 446.251 265.372 440.406 266.013 436.858C267.927 426.347 266.499 414.517 266.499 403.852C266.499 401.507 267.786 392.517 266.013 390.748C264.498 389.23 245.298 392.765 245.298 390.466Z" fill="#2E3120"/>
<path fill-rule="evenodd" clip-rule="evenodd" d="M170.063 61.2395C169.261 59.7835 171.365 68.6134 171.365 70.2573C171.365 75.574 170.132 80.9659 169.424 86.2764C167.376 101.635 157.757 118.797 177.675 118.797C180.37 118.797 183.855 119.164 186.411 118.312C190.268 117.025 190.137 111.179 190.779 107.631C192.692 97.1197 191.264 85.2901 191.264 74.6253C191.264 72.28 192.551 63.2905 190.779 61.5213C189.263 60.0027 170.063 63.5378 170.063 61.2395Z" fill="#2E3120"/>
<path fill-rule="evenodd" clip-rule="evenodd" d="M98.8965 222.277C95.6181 222.54 96.6013 242.968 96.1191 246.575C95.64 250.173 95.5523 253.629 95.1484 257.252C94.3249 264.679 94.4345 272.169 93.6924 279.581C93.4169 282.333 91.7855 289.353 93.2071 292.199C94.1934 294.172 98.7368 293.305 100.491 293.655C102.41 294.04 105.72 295.312 107.771 294.626C113.858 292.597 110.639 284.922 111.168 279.095C112.395 265.581 112.139 251.409 112.139 237.839C112.139 235.628 113.948 222.659 112.139 220.849C111.083 219.794 104.53 221.053 103.403 221.334C102.454 221.572 97.8788 221.262 98.8965 222.277Z" fill="#2E3120"/>
<path fill-rule="evenodd" clip-rule="evenodd" d="M98.8965 131.591C95.6181 131.854 96.6013 152.282 96.1191 155.889C95.64 159.487 95.5523 162.943 95.1484 166.566C94.3249 173.993 94.4345 181.483 93.6924 188.895C93.4169 191.647 91.7855 198.667 93.2071 201.513C94.1934 203.486 98.7368 202.619 100.491 202.969C102.41 203.354 105.72 204.626 107.771 203.94C113.858 201.911 110.639 194.236 111.168 188.409C112.395 174.895 112.139 160.723 112.139 147.153C112.139 144.942 113.948 131.973 112.139 130.163C111.083 129.108 104.53 130.367 103.403 130.649C102.454 130.887 97.8788 130.577 98.8965 131.591Z" fill="#2E3120"/>
<path fill-rule="evenodd" clip-rule="evenodd" d="M98.8965 384.954C95.6181 385.217 96.6013 405.645 96.1191 409.252C95.64 412.849 95.5523 416.306 95.1484 419.929C94.3249 427.356 94.4345 434.846 93.6924 442.257C93.4169 445.01 91.7855 452.03 93.2071 454.876C94.1934 456.849 98.7368 455.981 100.491 456.332C102.41 456.717 105.72 457.988 107.771 457.303C113.858 455.274 110.639 447.599 111.168 441.772C112.395 428.258 112.139 414.086 112.139 400.516C112.139 398.305 113.948 385.336 112.139 383.526C111.083 382.471 104.53 383.73 103.403 384.011C102.454 384.249 97.8788 383.939 98.8965 384.954Z" fill="#2E3120"/>
<path fill-rule="evenodd" clip-rule="evenodd" d="M132.381 225.963C131.973 224.173 132.078 230.013 132.015 230.678C131.601 235.04 131.995 239.451 132.432 243.927C133.65 256.436 135.527 269.414 137.622 281.795C138.196 285.189 137.382 292.655 142 292.078C145.373 291.656 158.704 289.094 160.146 285.017C160.875 282.95 158.789 277.222 158.375 274.563C156.899 265.079 154.651 256.117 152.135 246.884C150.456 240.721 148.609 234.534 147.035 228.339C146.86 227.655 146.798 223.888 145.817 223.541C143.044 222.562 135.093 224.667 132.381 225.963Z" fill="#2E3120"/>
<path fill-rule="evenodd" clip-rule="evenodd" d="M359.852 53.829C360.256 52.038 357.832 57.3516 357.488 57.9247C355.234 61.6821 353.687 65.8309 352.149 70.058C347.853 81.8688 343.949 94.3872 340.498 106.461C339.553 109.771 335.598 116.155 340.013 117.627C343.238 118.701 356.37 122.139 359.429 119.083C360.979 117.533 361.568 111.465 362.341 108.888C365.1 99.6945 366.938 90.6392 368.651 81.2237C369.794 74.9394 370.796 68.5612 372.048 62.2926C372.186 61.6006 373.755 58.1751 373.019 57.4393C370.94 55.3602 362.858 53.829 359.852 53.829Z" fill="#2E3120"/>
<path fill-rule="evenodd" clip-rule="evenodd" d="M362.107 366.213C362.296 368.039 362.897 362.23 363.04 361.577C363.977 357.296 364.118 352.871 364.226 348.374C364.526 335.81 364.23 322.7 363.645 310.156C363.484 306.718 365.194 299.405 360.54 299.42C357.141 299.432 343.598 300.366 341.675 304.239C340.701 306.203 342.08 312.141 342.17 314.83C342.491 324.423 343.64 333.591 345.023 343.061C345.946 349.381 347.033 355.745 347.847 362.086C347.938 362.786 347.545 366.533 348.477 366.995C351.111 368.302 359.259 367.172 362.107 366.213Z" fill="#2E3120"/>
<path fill-rule="evenodd" clip-rule="evenodd" d="M441.297 220.683C441.302 218.847 442.481 224.567 442.689 225.202C444.049 229.368 444.633 233.757 445.19 238.22C446.746 250.691 447.764 263.765 448.437 276.304C448.622 279.741 451.054 286.846 446.423 287.297C443.039 287.626 429.471 288.051 427.17 284.391C426.004 282.534 426.782 276.487 426.603 273.803C425.962 264.226 426.187 254.989 426.616 245.429C426.902 239.048 427.346 232.607 427.522 226.216C427.541 225.511 426.775 221.822 427.657 221.269C430.147 219.705 438.366 220.013 441.297 220.683Z" fill="#2E3120"/>
<path fill-rule="evenodd" clip-rule="evenodd" d="M429.273 131.568C429.278 129.732 430.457 135.452 430.665 136.088C432.026 140.253 432.609 144.642 433.166 149.105C434.723 161.576 435.74 174.65 436.414 187.189C436.598 190.626 439.031 197.732 434.399 198.182C431.016 198.511 417.447 198.937 415.146 195.276C413.98 193.419 414.759 187.373 414.579 184.688C413.938 175.111 414.164 165.874 414.592 156.314C414.878 149.933 415.322 143.492 415.498 137.102C415.518 136.396 414.752 132.707 415.633 132.154C418.123 130.591 426.343 130.898 429.273 131.568Z" fill="#2E3120"/>
<path fill-rule="evenodd" clip-rule="evenodd" d="M432.484 382.359C432.489 380.523 433.668 386.243 433.876 386.879C435.237 391.044 435.82 395.433 436.377 399.897C437.934 412.368 438.951 425.441 439.625 437.98C439.809 441.418 442.242 448.523 437.61 448.974C434.227 449.302 420.659 449.728 418.357 446.067C417.192 444.211 417.97 438.164 417.79 435.479C417.149 425.903 417.375 416.665 417.803 407.105C418.089 400.724 418.533 394.283 418.709 387.893C418.729 387.188 417.963 383.499 418.844 382.945C421.334 381.382 429.554 381.69 432.484 382.359Z" fill="#2E3120"/>
<path fill-rule="evenodd" clip-rule="evenodd" d="M225.687 56.7968C225.692 54.9608 226.871 60.6809 227.079 61.3162C228.44 65.4815 229.023 69.8706 229.58 74.334C231.137 86.8051 232.154 99.8788 232.828 112.418C233.012 115.855 235.445 122.96 230.813 123.411C227.43 123.74 213.862 124.165 211.56 120.504C210.395 118.648 211.173 112.601 210.993 109.917C210.352 100.34 210.578 91.1029 211.006 81.5425C211.292 75.1615 211.736 68.7204 211.912 62.3303C211.932 61.625 211.166 57.9361 212.047 57.3828C214.537 55.8192 222.757 56.1271 225.687 56.7968Z" fill="#2E3120"/>
<path fill-rule="evenodd" clip-rule="evenodd" d="M225.687 303.427C225.692 301.591 226.871 307.311 227.079 307.946C228.44 312.111 229.023 316.501 229.58 320.964C231.137 333.435 232.154 346.509 232.828 359.048C233.012 362.485 235.445 369.59 230.813 370.041C227.43 370.37 213.862 370.795 211.56 367.134C210.395 365.278 211.173 359.231 210.993 356.547C210.352 346.97 210.578 337.733 211.006 328.172C211.292 321.792 211.736 315.35 211.912 308.96C211.932 308.255 211.166 304.566 212.047 304.013C214.537 302.449 222.757 302.757 225.687 303.427Z" fill="#2E3120"/>
<path fill-rule="evenodd" clip-rule="evenodd" d="M189.608 228.734C188.537 228.305 184.808 230.735 184.755 231.161C184.301 234.796 183.095 238.263 182.328 241.838C180.052 252.469 175.865 262.667 174.077 273.388C173.648 275.962 171.795 280.959 173.107 283.583C173.83 285.027 194.167 287.76 195.92 286.01C202.991 278.936 199.803 253.659 199.803 244.265C199.803 241.61 201.046 235.106 199.803 232.617C198.269 229.552 193.459 230.275 189.608 228.734Z" fill="#2E3120"/>
<path fill-rule="evenodd" clip-rule="evenodd" d="M173.428 141.419C172.28 141.304 169.372 144.674 169.439 145.098C170.012 148.716 169.816 152.381 170.072 156.029C170.836 166.873 169.645 177.833 170.903 188.629C171.205 191.221 170.812 196.536 172.801 198.693C173.896 199.879 194.193 196.86 195.391 194.691C200.22 185.933 190.141 162.534 187.534 153.509C186.797 150.958 186.186 144.365 184.3 142.319C181.975 139.8 177.556 141.83 173.428 141.419Z" fill="#2E3120"/>
<path fill-rule="evenodd" clip-rule="evenodd" d="M139.569 57.7381C138.498 57.3091 134.769 59.7389 134.716 60.1647C134.262 63.8 133.056 67.2662 132.289 70.842C130.013 81.4724 125.826 91.6706 124.038 102.391C123.609 104.965 121.756 109.962 123.068 112.586C123.791 114.03 144.128 116.763 145.882 115.013C152.952 107.94 149.764 82.6622 149.764 73.2687C149.764 70.6134 151.007 64.11 149.764 61.6207C148.23 58.5553 143.42 59.2786 139.569 57.7381Z" fill="#2E3120"/>
<path d="M10.2017 0C10.2214 2.51643 10.5249 5.79192 10.8574 9.38003C11.8221 19.791 13.0307 32.8339 8.25935 37.6029C7.40102 38.4635 3.93623 37.8436 1.57763 37.4216C0.950163 37.3093 0.400984 37.211 0 37.1584V0H10.2017Z" fill="#2E3120"/>
<path d="M49.9938 0H29.2174C29.0858 0.857638 28.9471 1.71502 28.8085 2.5715C28.5527 4.15199 28.2975 5.72942 28.0882 7.29972C27.6399 10.662 26.8288 14.1106 26.0441 17.4468C23.2444 29.3498 20.7817 39.8201 36.3389 39.8201C36.9426 39.8201 37.5859 39.8385 38.2495 39.8574C40.549 39.9231 43.092 39.9957 45.0748 39.3348C48.2046 38.2907 48.7086 34.2456 49.1301 30.8617C49.2281 30.0748 49.3217 29.3237 49.4428 28.6544C50.7898 21.2538 50.4807 13.1999 50.1797 5.35903C50.1106 3.55794 50.0419 1.7681 49.9938 0Z" fill="#2E3120"/>
<path d="M79.4898 0H66.3237C66.1929 2.5067 66.0754 4.66997 65.9005 5.98501C65.6095 8.16293 65.2748 10.3623 64.9383 12.5736C63.9709 18.9302 62.9885 25.3851 62.9885 31.7108C62.9885 32.1019 62.9312 32.6679 62.8649 33.3244C62.6293 35.6533 62.2786 39.1211 63.9591 39.9614C64.9349 40.4483 66.3273 40.1006 67.5496 39.7953C68.214 39.6294 68.8281 39.4761 69.2978 39.4761C81.9696 39.4761 80.7996 23.1482 79.8979 10.5641C79.6865 7.61315 79.4898 4.86806 79.4898 2.58766V0Z" fill="#2E3120"/>
<path d="M112.157 0H96.1117C95.8499 1.98198 95.7058 3.92164 95.5611 5.87035C95.4445 7.43948 95.3276 9.01448 95.1483 10.6222C94.718 14.5031 94.5425 18.4011 94.3671 22.2961C94.2068 25.8552 94.0467 29.4118 93.6923 32.9506C93.6308 33.5647 93.5019 34.3914 93.3543 35.3368C92.8408 38.628 92.1027 43.3581 93.207 45.5692C93.8984 46.952 96.3377 46.9393 98.3386 46.9289C99.1921 46.9244 99.9658 46.9204 100.491 47.0252C100.954 47.1183 101.499 47.263 102.088 47.4194C103.935 47.9103 106.215 48.516 107.771 47.9959C112.097 46.5538 111.722 42.2598 111.334 37.8042C111.175 35.9909 111.015 34.1508 111.168 32.4652C112.132 21.8459 112.18 10.8206 112.157 0Z" fill="#2E3120"/>
<path d="M156.796 0H137.281C133.795 10.0513 130.589 20.4665 127.701 30.5704C127.496 31.2888 127.149 32.1521 126.777 33.0787C125.433 36.4203 123.76 40.5839 127.216 41.7361C130.441 42.8101 143.573 46.2482 146.633 43.1922C147.688 42.1369 148.297 38.9871 148.823 36.2707C149.07 34.9975 149.298 33.8195 149.545 32.9971C152.303 23.8039 154.141 14.7486 155.854 5.33311C156.176 3.56136 156.487 1.78213 156.796 0Z" fill="#2E3120"/>
<path d="M199.851 0H181.18C180.374 3.08079 179.459 6.1369 178.545 9.19231C176.808 14.9953 175.072 20.7958 174.077 26.758C173.973 27.3841 173.784 28.1536 173.577 28.9975C172.934 31.6227 172.114 34.9675 173.107 36.9532C173.83 38.3966 194.167 41.1301 195.92 39.3798C201.556 33.7416 200.674 16.5362 200.084 5.02922C199.99 3.1822 199.903 1.48199 199.851 0Z" fill="#2E3120"/>
<path d="M231.63 0H215.221C215.189 0.357578 215.158 0.713954 215.125 1.06891C214.975 2.72885 214.816 4.39387 214.657 6.06241C213.924 13.7574 213.184 21.5274 213.184 29.2213C213.184 29.4445 213.135 30.0006 213.069 30.7412C212.84 33.3255 212.412 38.1565 213.184 38.928C214.129 39.8734 219.479 39.3843 222.664 39.0932C223.677 39.0006 224.472 38.928 224.835 38.928C225.17 38.928 226.079 39.1202 227.109 39.3383C228.763 39.6885 230.731 40.1051 231.144 39.8986C232.517 39.2124 231.998 31.8475 231.741 28.1832C231.677 27.2827 231.63 26.6058 231.63 26.3062V0Z" fill="#2E3120"/>
<path d="M261.266 0C261.334 2.41867 261.448 4.86058 261.563 7.31157C261.972 16.0592 262.386 24.9226 260.718 33.259C260.604 33.8293 260.521 34.6389 260.428 35.546C260.156 38.2146 259.797 41.7278 258.292 42.4803C255.975 43.6388 245.864 42.8654 244.702 40.539C243.702 38.539 244.697 34.9458 245.482 32.1071C245.774 31.0526 246.037 30.1023 246.158 29.3763C246.958 24.5708 246.81 11.2485 246.504 0H261.266Z" fill="#2E3120"/>
<path d="M297.608 0H279.584V0.549966C279.584 2.68816 279.628 4.92207 279.673 7.20729C279.836 15.5404 280.013 24.5558 278.128 32.0997C277.903 32.995 277.222 34.5307 276.486 36.1912C275.212 39.0663 273.771 42.3156 274.245 43.2623C276.124 47.0198 288.63 49.6625 292.688 47.6335C296.459 45.747 296.655 40.9777 296.836 36.5623C296.886 35.3492 296.935 34.1629 297.056 33.0704C298.093 23.7374 297.895 14.1239 297.698 4.58774C297.666 3.05601 297.635 1.52627 297.608 0Z" fill="#2E3120"/>
<path d="M333.93 0H314.666C313.995 2.43551 313.27 4.85863 312.545 7.2813C310.808 13.0843 309.072 18.8848 308.077 24.847C307.973 25.4731 307.784 26.2426 307.577 27.0865C306.934 29.7117 306.114 33.0565 307.107 35.0422C307.83 36.4856 328.167 39.2191 329.92 37.4688C335.556 31.8305 334.674 14.6252 334.084 3.11822C334.028 2.02213 333.975 0.977754 333.93 0Z" fill="#2E3120"/>
<path d="M372.828 0H351.681C351.649 0.204339 351.615 0.408635 351.582 0.61288C351.327 2.19337 351.071 3.7708 350.862 5.3411C350.414 8.70335 349.603 12.152 348.818 15.4882C346.018 27.3912 343.556 37.8615 359.113 37.8615C359.716 37.8615 360.36 37.8799 361.023 37.8988C363.323 37.9645 365.866 38.0371 367.849 37.3762C370.979 36.332 371.482 32.2869 371.904 28.9031C372.002 28.1162 372.096 27.3651 372.217 26.6957C373.564 19.2952 373.255 11.2413 372.954 3.40041C372.91 2.26156 372.866 1.12721 372.828 0Z" fill="#2E3120"/>
<path d="M408.161 0H391.741C391.677 0.775745 391.619 1.54969 391.562 2.32506C391.445 3.8942 391.328 5.4692 391.149 7.07688C390.719 10.9578 390.543 14.8558 390.368 18.7508C390.207 22.3099 390.047 25.8665 389.693 29.4053C389.631 30.0194 389.502 30.8461 389.355 31.7915C388.841 35.0828 388.103 39.8128 389.207 42.0239C389.899 43.4067 392.338 43.394 394.339 43.3836C395.193 43.3791 395.966 43.3751 396.491 43.4799C396.954 43.573 397.499 43.7177 398.088 43.8741C399.935 44.365 402.215 44.9707 403.771 44.4506C408.097 43.0085 407.722 38.7145 407.334 34.2589C407.175 32.4456 407.015 30.6055 407.168 28.92C408.027 19.4583 408.159 9.67431 408.161 0Z" fill="#2E3120"/>
<path d="M446.152 0C447.182 9.85833 447.914 19.9277 448.437 29.6741C448.477 30.4202 448.623 31.3392 448.78 32.3254C449.345 35.8824 450.049 40.3143 446.423 40.6673C443.039 40.9958 429.471 41.4215 427.17 37.7607C426.376 36.4968 426.484 33.2903 426.576 30.5251C426.62 29.2289 426.66 28.0298 426.603 27.173C425.989 17.998 426.17 9.13455 426.563 0H446.152Z" fill="#2E3120"/>
<path d="M474.886 0H461.44C461.388 0.683701 461.332 1.27854 461.268 1.75979C460.977 3.93771 460.642 6.13711 460.305 8.34842C459.338 14.705 458.356 21.1599 458.356 27.4855C458.356 27.8767 458.298 28.4427 458.232 29.0992C457.997 31.4281 457.646 34.8959 459.326 35.7362C460.302 36.223 461.694 35.8753 462.917 35.5701C463.581 35.4042 464.195 35.2508 464.665 35.2508C477.337 35.2508 476.167 18.923 475.265 6.33889C475.102 4.06407 474.948 1.91158 474.886 0Z" fill="#2E3120"/>
<path d="M499.999 37.1587C499.8 37.1326 499.638 37.1176 499.52 37.1176C498.97 37.1176 498.326 37.1443 497.634 37.1729C494.954 37.284 491.573 37.424 490.299 36.1469C489.661 35.5118 490.177 32.8033 490.528 30.9639C490.669 30.2191 490.784 29.6167 490.784 29.3523C490.784 28.3687 490.783 27.3853 490.782 26.4021C490.773 18.794 490.765 11.1992 491.269 3.62653C491.334 2.656 491.435 1.40008 491.555 0H499.999V37.1587Z" fill="#2E3120"/>
<path d="M499.999 59.0117V115.519C493.866 114.935 486.938 113.675 486.521 112.844C485.528 110.858 486.348 107.513 486.992 104.888C487.199 104.044 487.388 103.275 487.492 102.649C488.486 96.6861 490.222 90.8856 491.959 85.0826C493.345 80.4507 494.732 75.8172 495.743 71.0986C496.026 69.7761 496.37 68.4685 496.714 67.1619C497.299 64.9357 497.883 62.712 498.169 60.4213C498.194 60.2227 499.018 59.5886 499.999 59.0117Z" fill="#2E3120"/>
<path d="M499.999 140.129V193.103C499.8 193.077 499.638 193.062 499.52 193.062C498.97 193.062 498.326 193.088 497.634 193.117C494.954 193.228 491.573 193.368 490.299 192.091C489.661 191.456 490.177 188.747 490.528 186.908C490.669 186.163 490.784 185.561 490.784 185.296C490.784 184.313 490.783 183.329 490.782 182.346C490.773 174.738 490.765 167.143 491.269 159.571C491.411 157.438 491.729 153.926 492.036 150.536C492.47 145.739 492.882 141.185 492.744 141.116C493.02 141.003 496.352 140.445 499.999 140.129Z" fill="#2E3120"/>
<path d="M492.73 141.124C492.736 141.116 492.741 141.113 492.746 141.116C492.738 141.119 492.733 141.121 492.73 141.124Z" fill="#2E3120"/>
<path d="M492.727 141.128L492.73 141.124C492.728 141.125 492.727 141.128 492.727 141.128Z" fill="#2E3120"/>
<path d="M499.999 230.815V283.789C499.8 283.763 499.638 283.748 499.52 283.748C498.97 283.748 498.326 283.774 497.634 283.803C494.954 283.914 491.573 284.054 490.299 282.777C489.661 282.142 490.177 279.433 490.528 277.594C490.669 276.849 490.784 276.247 490.784 275.982C490.784 274.999 490.783 274.015 490.782 273.032C490.773 265.424 490.765 257.829 491.269 250.257C491.411 248.124 491.729 244.612 492.036 241.222C492.47 236.425 492.882 231.871 492.744 231.802C493.02 231.689 496.352 231.131 499.999 230.815Z" fill="#2E3120"/>
<path d="M492.73 231.81C492.736 231.802 492.741 231.799 492.746 231.802C492.738 231.805 492.733 231.807 492.73 231.81Z" fill="#2E3120"/>
<path d="M492.727 231.814L492.73 231.81C492.728 231.811 492.727 231.814 492.727 231.814Z" fill="#2E3120"/>
<path d="M499.999 305.642V362.149C493.866 361.565 486.938 360.305 486.521 359.473C485.528 357.488 486.348 354.143 486.992 351.518C487.199 350.674 487.388 349.904 487.492 349.278C488.486 343.316 490.222 337.516 491.959 331.713C493.345 327.081 494.732 322.447 495.743 317.729C496.026 316.406 496.37 315.099 496.714 313.792C497.299 311.566 497.883 309.342 498.169 307.051C498.194 306.853 499.018 306.219 499.999 305.642Z" fill="#2E3120"/>
<path d="M499.999 393.492V446.466C499.8 446.439 499.638 446.424 499.52 446.424C498.97 446.424 498.326 446.451 497.634 446.48C494.954 446.591 491.573 446.731 490.299 445.454C489.661 444.819 490.177 442.11 490.528 440.271C490.669 439.526 490.784 438.924 490.784 438.659C490.784 437.676 490.783 436.692 490.782 435.709C490.773 428.101 490.765 420.506 491.269 412.933C491.411 410.801 491.729 407.289 492.036 403.898C492.47 399.102 492.882 394.547 492.744 394.479C493.02 394.366 496.352 393.808 499.999 393.492Z" fill="#2E3120"/>
<path d="M492.73 394.487C492.736 394.479 492.741 394.476 492.746 394.479C492.738 394.482 492.733 394.484 492.73 394.487Z" fill="#2E3120"/>
<path d="M492.727 394.491L492.73 394.487C492.728 394.488 492.727 394.491 492.727 394.491Z" fill="#2E3120"/>
<path d="M499.999 484.186V500H491.555C491.698 498.323 491.869 496.44 492.036 494.592C492.47 489.796 492.882 485.241 492.744 485.172C493.02 485.06 496.352 484.502 499.999 484.186Z" fill="#2E3120"/>
<path d="M492.73 485.18C492.736 485.173 492.741 485.17 492.746 485.172C492.739 485.175 492.733 485.178 492.73 485.18Z" fill="#2E3120"/>
<path d="M492.727 485.185L492.73 485.18C492.728 485.182 492.727 485.185 492.727 485.185Z" fill="#2E3120"/>
<path d="M474.887 500H461.441C461.538 498.728 461.62 497.148 461.71 495.42C462.109 487.768 462.659 477.21 465.302 477.582C465.042 477.582 473.875 477.478 474.858 478.461C475.574 479.178 475.191 483.85 474.974 486.492C474.908 487.292 474.858 487.906 474.858 488.168V498.363C474.858 498.885 474.868 499.432 474.887 500Z" fill="#2E3120"/>
<path d="M446.151 500H426.562C426.58 499.6 426.598 499.2 426.616 498.799C426.721 496.449 426.847 494.09 426.974 491.729C427.191 487.68 427.41 483.624 427.521 479.587C427.526 479.411 427.481 479.047 427.426 478.593C427.26 477.232 426.995 475.055 427.656 474.64C430.146 473.076 438.366 473.384 441.297 474.054C441.301 472.713 441.929 475.402 442.35 477.198C442.505 477.861 442.633 478.402 442.689 478.573C444.049 482.738 444.632 487.128 445.189 491.591C445.535 494.368 445.855 497.176 446.151 500Z" fill="#2E3120"/>
<path d="M408.161 500H391.742C391.841 498.808 391.958 497.612 392.12 496.4C392.249 495.43 392.273 493.244 392.302 490.561C392.381 483.265 392.5 472.295 394.897 472.102C394.192 471.399 396.172 471.332 397.77 471.278C398.478 471.254 399.111 471.233 399.403 471.16C400.53 470.878 407.083 469.619 408.139 470.675C409.511 472.047 408.802 479.832 408.379 484.481C408.245 485.965 408.139 487.13 408.139 487.664C408.139 489.657 408.144 491.662 408.15 493.677C408.155 495.776 408.161 497.885 408.161 500Z" fill="#2E3120"/>
<path d="M372.83 500H351.684C352.258 496.438 352.806 492.864 352.806 489.323C352.806 488.603 352.402 486.507 352.016 484.499C351.52 481.919 351.052 479.486 351.503 480.305C351.503 481.55 357.138 481.083 362.544 480.635C367.116 480.256 371.524 479.891 372.219 480.587C373.573 481.939 373.141 487.506 372.862 491.104C372.776 492.215 372.704 493.138 372.704 493.691C372.704 495.756 372.758 497.865 372.83 500Z" fill="#2E3120"/>
<path d="M333.927 500H314.664C315.276 497.779 315.843 495.548 316.325 493.298C316.609 491.976 316.952 490.668 317.296 489.361C317.881 487.135 318.466 484.911 318.752 482.621C318.805 482.195 322.534 479.765 323.605 480.194C324.984 480.746 326.485 481.007 327.916 481.256C330.48 481.702 332.815 482.109 333.8 484.077C334.678 485.835 334.316 489.598 334.027 492.591C333.907 493.835 333.8 494.945 333.8 495.725C333.8 496.917 333.852 498.365 333.927 500Z" fill="#2E3120"/>
<path d="M297.607 500H279.583V484.049C279.583 483.884 279.578 483.635 279.572 483.32C279.519 480.716 279.377 473.682 281.277 473.682C281.848 473.682 282.433 473.678 283.028 473.673C289.293 473.628 296.585 473.574 299.018 478.445C300.073 480.551 299.18 484.595 298.395 488.147C297.95 490.161 297.54 492.017 297.54 493.271C297.54 495.503 297.568 497.748 297.607 500Z" fill="#2E3120"/>
<path d="M261.265 500H246.503C246.241 490.368 245.863 482.256 245.863 482.315C251.928 475.449 259.49 481.066 261.203 482.779C262.157 483.733 261.668 489.741 261.373 493.369C261.278 494.539 261.203 495.461 261.203 495.886C261.203 497.248 261.226 498.62 261.265 500Z" fill="#2E3120"/>
<path d="M231.632 500H215.223C215.325 498.836 215.423 497.659 215.522 496.477C215.829 492.802 216.14 489.078 216.583 485.536C216.712 484.515 219.877 482.784 221.274 482.784C222.944 482.784 224.286 482.539 225.424 482.332C227.419 481.968 228.784 481.719 230.176 483.109C231.356 484.29 231.632 492.321 231.632 494.272V500Z" fill="#2E3120"/>
<path d="M199.85 500H181.18C181.596 498.411 181.983 496.815 182.327 495.209C182.611 493.887 182.954 492.579 183.298 491.272C183.883 489.046 184.468 486.823 184.754 484.532C184.807 484.106 188.536 481.676 189.607 482.105C190.986 482.657 192.487 482.918 193.918 483.167C196.482 483.613 198.817 484.02 199.802 485.988C200.68 487.746 200.318 491.509 200.029 494.502C199.909 495.746 199.802 496.856 199.802 497.636C199.802 498.339 199.82 499.132 199.85 500Z" fill="#2E3120"/>
<path d="M156.795 500H137.281C137.96 498.041 138.651 496.095 139.352 494.168C140.889 489.941 142.436 485.792 144.69 482.035C144.783 481.88 145.027 481.381 145.326 480.769C146.136 479.113 147.349 476.631 147.054 477.939C150.06 477.939 158.142 479.47 160.221 481.549C160.773 482.101 160.029 484.164 159.564 485.454C159.409 485.885 159.285 486.23 159.25 486.403C158.459 490.362 157.768 494.366 157.078 498.361C156.984 498.908 156.889 499.454 156.795 500Z" fill="#2E3120"/>
<path d="M112.158 500H96.1133C96.1157 499.982 96.1181 499.964 96.1205 499.946C96.2502 498.976 96.2739 496.789 96.303 494.106C96.3821 486.811 96.501 475.84 98.8978 475.648C98.1926 474.945 100.173 474.878 101.771 474.824C102.479 474.8 103.112 474.778 103.404 474.705C104.531 474.423 111.084 473.165 112.14 474.22C113.512 475.592 112.803 483.377 112.38 488.027C112.245 489.51 112.14 490.675 112.14 491.21C112.14 493.202 112.145 495.208 112.151 497.222C112.153 498.146 112.156 499.072 112.158 500Z" fill="#2E3120"/>
<path d="M79.4902 500H66.3242C66.3304 499.882 66.3365 499.764 66.3428 499.645C66.7414 491.993 67.2914 481.435 69.9339 481.807C69.674 481.807 78.507 481.703 79.4902 482.686C80.2065 483.403 79.8231 488.075 79.6063 490.718C79.5406 491.517 79.4902 492.131 79.4902 492.393V500Z" fill="#2E3120"/>
<path d="M49.9919 500H29.2157C29.6626 497.088 30.0277 494.174 30.0277 491.281C30.0277 490.562 29.6245 488.465 29.2383 486.457C28.7423 483.878 28.2744 481.445 28.7251 482.264C28.7251 483.509 34.3606 483.042 39.7664 482.594C44.3386 482.215 48.7465 481.85 49.441 482.545C50.7952 483.897 50.3632 489.465 50.0841 493.063C49.9979 494.173 49.9263 495.096 49.9263 495.649C49.9263 497.081 49.952 498.533 49.9919 500Z" fill="#2E3120"/>
<path d="M10.2017 500H0V484.186C4.28731 483.814 9.01052 483.775 9.71533 485.185C10.8572 487.466 10.5847 492.129 10.3586 495.998C10.2766 497.402 10.2007 498.702 10.2007 499.745C10.2007 499.829 10.201 499.914 10.2017 500Z" fill="#2E3120"/>
<path d="M0 446.465V393.492C4.28731 393.12 9.01052 393.081 9.71533 394.491C10.8572 396.772 10.5847 401.435 10.3586 405.304C10.2766 406.708 10.2007 408.008 10.2007 409.051C10.2007 411.599 10.5135 414.976 10.8574 418.687C11.8221 429.098 13.0307 442.141 8.25935 446.91C7.40102 447.77 3.93623 447.15 1.57763 446.728C0.950163 446.616 0.400984 446.518 0 446.465Z" fill="#2E3120"/>
<path d="M0 362.149V305.643C1.12354 304.982 2.45386 304.396 3.02582 304.625C4.40461 305.176 5.9062 305.438 7.33635 305.687C9.90101 306.133 12.2359 306.539 13.2209 308.507C14.0992 310.266 13.7365 314.028 13.4479 317.022C13.328 318.265 13.2209 319.376 13.2209 320.155C13.2209 322.061 13.3521 324.621 13.5023 327.55C14.0921 339.057 14.9741 356.262 9.3383 361.9C8.59501 362.642 4.51239 362.578 0 362.149Z" fill="#2E3120"/>
<path d="M0 283.788V230.815C4.28731 230.443 9.01052 230.404 9.71533 231.814C10.8572 234.095 10.5847 238.758 10.3586 242.627C10.2766 244.031 10.2007 245.331 10.2007 246.374C10.2007 248.922 10.5135 252.299 10.8574 256.01C11.8221 266.421 13.0307 279.464 8.25935 284.233C7.40102 285.093 3.93623 284.474 1.57763 284.052C0.950163 283.939 0.400984 283.841 0 283.788Z" fill="#2E3120"/>
<path d="M0 193.102V140.129C4.28731 139.757 9.01052 139.718 9.71533 141.128C10.8572 143.409 10.5847 148.073 10.3586 151.941C10.2766 153.345 10.2007 154.645 10.2007 155.688C10.2007 158.236 10.5135 161.613 10.8574 165.324C11.8221 175.735 13.0307 188.778 8.25935 193.547C7.40102 194.408 3.93623 193.788 1.57763 193.366C0.950163 193.253 0.400984 193.155 0 193.102Z" fill="#2E3120"/>
<path d="M0 115.519V59.0132C1.12354 58.3522 2.45386 57.7658 3.02582 57.9949C4.40461 58.5464 5.9062 58.8078 7.33635 59.0567C9.90101 59.5031 12.2359 59.9095 13.2209 61.8775C14.0992 63.6362 13.7365 67.3984 13.4479 70.3917C13.328 71.6353 13.2209 72.7462 13.2209 73.5255C13.2209 75.4313 13.3521 77.9909 13.5023 80.9197C14.0921 92.4267 14.9741 109.632 9.3383 115.27C8.59501 116.012 4.51239 115.949 0 115.519Z" fill="#2E3120"/>
</svg>
