<svg width="500" height="500" viewBox="0 0 500 500" fill="none" xmlns="http://www.w3.org/2000/svg">
<path d="M288.274 414.71C286.384 417.362 284.812 420.255 282.488 422.575C279.744 425.315 277.995 427.765 274.764 429.108C272.344 430.113 271.009 431.897 268.949 433.407C265.761 435.743 260.747 433.822 258.063 431.392C255.618 429.178 254.121 426.682 250.674 425.974C248.476 425.523 246.274 425.36 244.045 425.204C240.472 424.954 236.787 424.423 233.206 424.501C230.749 424.555 230.181 425.031 228.911 427.18C227.153 430.158 225.805 433.445 223.632 436.167C222.289 437.85 221.239 439.397 219.018 439.241C214.856 438.95 210.608 437.908 206.563 436.964C202.335 435.977 197.838 434.502 194.095 432.29L194.049 432.264C191.84 430.959 189.728 429.711 187.339 428.755C185.498 428.018 183.562 426.984 182.086 425.63C181.123 424.748 181.729 422.527 181.824 421.407C181.986 419.512 182.43 417.609 182.846 415.757C183.503 412.837 183.862 409.858 184.59 406.954C185.603 402.912 186.478 398.84 187.679 394.849C188.451 392.279 189.373 389.623 189.748 386.96C189.929 385.672 190.333 384.449 190.514 383.171C190.726 381.679 192.881 380.143 193.809 379.071C198.154 374.05 202.227 368.848 207.132 364.354C212.56 359.382 219.373 357.662 226.303 355.913L226.664 355.822C228.842 355.272 230.921 354.644 233.184 354.774C234.664 354.859 236.082 355.228 237.558 355.331C239.89 355.494 242.08 356.076 244.291 356.804C247.493 357.859 250.834 358.572 254.109 359.371C256.786 360.024 259.503 360.796 262.219 361.261C263.78 361.528 265.314 362.285 266.873 362.394C270.292 362.633 272.985 361.604 276.2 360.429C278.554 359.569 280.757 360.351 283.113 360.718C285.772 361.132 288.456 361.457 291.102 361.945C293.622 362.411 296.008 363.173 298.387 364.098C300.594 364.956 302.969 365.068 305.095 366.127C308.13 367.638 309.665 369.434 310.026 372.848C310.25 374.961 310.17 377.117 310.091 379.235L310.087 379.341C309.984 382.118 310.304 384.855 309.939 387.628C309.617 390.075 309.749 393.655 308.525 395.897C305.281 401.841 300.046 406.091 293.971 408.899C291.12 410.217 290.09 412.161 288.274 414.71Z" fill="#2E3120"/>
<path d="M385.577 293.898C382.953 295.827 380.557 298.085 377.625 299.563C374.162 301.309 371.736 303.09 368.246 303.356C365.633 303.556 363.808 304.834 361.38 305.625C357.622 306.848 353.459 303.458 351.668 300.311C350.037 297.444 349.394 294.605 346.34 292.856C344.393 291.741 342.352 290.899 340.283 290.054C336.967 288.701 333.632 287.046 330.206 286.002C327.855 285.286 327.167 285.56 325.289 287.206C322.688 289.485 320.382 292.187 317.468 294.094C315.666 295.274 314.185 296.415 312.124 295.574C308.261 293.998 304.551 291.68 301.003 289.52C297.295 287.263 293.484 284.457 290.618 281.187L290.583 281.147C288.892 279.217 287.276 277.373 285.304 275.718C283.786 274.443 282.27 272.856 281.29 271.11C280.651 269.971 281.92 268.051 282.36 267.016C283.106 265.266 284.122 263.597 285.096 261.967C286.632 259.399 287.903 256.681 289.501 254.15C291.726 250.626 293.829 247.031 296.216 243.614C297.752 241.415 299.458 239.179 300.646 236.766C301.22 235.6 301.985 234.564 302.557 233.406C303.224 232.055 305.751 231.269 306.967 230.54C312.663 227.127 318.157 223.457 324.22 220.72C330.929 217.692 337.938 218.186 345.068 218.688L345.44 218.714C347.68 218.872 349.852 218.925 351.96 219.755C353.34 220.298 354.572 221.091 355.942 221.65C358.106 222.533 360.005 223.77 361.878 225.153C364.59 227.155 367.542 228.876 370.403 230.657C372.742 232.113 375.083 233.696 377.517 234.985C378.917 235.727 380.138 236.925 381.585 237.515C384.758 238.81 387.638 238.673 391.059 238.561C393.564 238.479 395.412 239.911 397.536 240.995C399.933 242.218 402.381 243.365 404.743 244.656C406.991 245.884 409.019 247.354 410.99 248.975C412.819 250.48 415.04 251.328 416.729 252.998C419.141 255.381 420.038 257.567 419.315 260.923C418.868 263 418.118 265.023 417.382 267.011L417.345 267.11C416.38 269.716 415.829 272.416 414.616 274.937C413.546 277.16 412.554 280.602 410.691 282.35C405.753 286.984 399.453 289.386 392.804 290.157C389.684 290.518 388.099 292.044 385.577 293.898Z" fill="#2E3120"/>
<path d="M441.085 350.318C438.5 347.279 435.746 344.378 433.191 341.318C427.091 334.015 420.725 329.461 414.246 323.023C412.46 321.248 409.728 320.248 407.787 318.63C406.9 317.889 405.899 317.399 405.034 316.595C404.277 315.89 403.593 315.117 402.844 314.405C401.952 313.557 400.195 312.588 399.117 313.383C396.03 315.662 392.623 318.428 390.181 321.387C388.214 323.771 386.122 326.073 383.85 328.164C382.278 329.61 380.053 330.712 378.805 332.444C377.209 334.658 375.119 336.533 373.284 338.552C370.808 341.278 368.793 344.086 366.76 347.14C363.193 352.499 362.45 360.025 355.818 362.482C353.959 363.171 351.936 363.26 350.049 363.873C348.01 364.535 346.131 365.628 344.251 366.64C339.514 369.191 334.578 371.362 329.407 372.904C328.048 373.309 324.873 373.882 324.166 375.434C323.69 376.478 324.491 378.743 324.686 379.813C325.123 382.207 325.643 384.8 325.779 387.228C325.886 389.138 325.737 391.034 326.11 392.928C326.382 394.308 327.446 394.906 328.492 395.707C330.024 396.881 331.54 398.059 333.185 399.074C337.66 401.837 342.892 403.411 348.071 404.147C354.356 405.04 360.578 406.438 366.648 408.286C369.27 409.084 371.827 409.878 374.517 410.422C375.321 410.584 376.455 411.146 377.201 410.596C378.889 409.35 379.878 407.39 381.187 405.776C382.551 404.094 383.838 402.271 385.34 400.712C386.67 399.331 388.35 398.191 389.825 396.967C391.405 395.655 393.154 394.558 394.651 393.144C396.201 391.68 397.612 390 399.07 388.439C405.896 381.132 414.257 375.949 422.789 370.862C427.837 367.853 432.695 364.303 437.045 360.339C438.61 358.914 440.004 357.318 441.566 355.89C442.118 355.385 442.837 354.691 442.974 353.912C443.227 352.47 441.921 351.3 441.085 350.318Z" fill="#2E3120"/>
<path d="M408.648 432.511C408.84 426.861 412.474 421.193 415.385 416.581C419.023 410.815 421.081 404.68 422.135 402.748C423.081 401.013 424.088 398.962 424.135 396.942C424.158 395.935 424.748 395.127 424.996 394.136C425.258 393.087 425.223 391.958 425.635 390.942C426.475 388.866 427.796 389.136 429.69 389.136C431.977 389.136 434.231 389.386 436.537 389.386C442.227 389.386 447.844 389.338 453.454 388.248C458.603 387.246 464.103 388.051 469.301 388.331C472.897 388.525 476.55 388.886 480.148 388.886C482.889 388.886 485.663 389.533 488.329 390.136C490.117 390.541 491.659 391.016 492.746 392.498C493.757 393.877 493.385 396.519 493.385 398.136C493.385 400.504 493.393 402.929 493.94 405.248C494.687 408.414 494.635 411.405 494.635 414.65C494.635 417.709 494.413 420.357 493.023 423.136C492.224 424.735 491.931 425.149 490.357 426.011C487.611 427.515 484.971 429.051 482.385 430.831C480.388 432.205 477.449 433.114 476.023 435.15C475.369 436.086 475.005 437.168 474.523 438.192C473.73 439.88 472.572 441.389 471.635 442.998C470.322 445.249 468.829 447.336 467.398 449.511C466.157 451.399 465.347 453.406 464.343 455.414C462.583 458.933 460.447 462.533 457.857 465.511C454.34 469.556 449.937 472.906 445.69 476.136C444.519 477.027 441.463 480.105 439.773 479.623C438.333 479.211 437.067 477.707 435.829 476.886C433.86 475.582 431.802 474.433 430.023 472.859C427.921 470.997 426.478 468.594 424.898 466.303C422.925 463.442 420.649 460.841 419.023 457.748C417.451 454.755 416.186 451.612 414.579 448.636C412.007 443.874 408.457 438.153 408.648 432.511Z" fill="#2E3120"/>
<path d="M136.68 285.012C139.21 290.067 138.725 296.783 138.37 302.225C137.927 309.029 139.05 315.401 139.047 317.602C139.045 319.578 139.139 321.861 140.063 323.658C140.523 324.554 140.391 325.546 140.647 326.534C140.917 327.581 141.487 328.557 141.611 329.646C141.864 331.871 140.575 332.264 138.91 333.169C136.901 334.262 134.801 335.119 132.775 336.22C127.777 338.937 122.864 341.663 118.457 345.3C114.411 348.639 109.195 350.56 104.494 352.796C101.242 354.344 97.8607 355.77 94.6989 357.489C92.2908 358.798 89.5453 359.555 86.9148 360.298C85.1506 360.797 83.5692 361.116 81.9067 360.333C80.3589 359.604 79.4248 357.106 78.6521 355.684C77.5212 353.604 76.3554 351.478 74.7676 349.702C72.5994 347.277 71.2166 344.624 69.6664 341.773C68.2056 339.086 67.1353 336.653 67.0287 333.548C66.9674 331.761 67.0267 331.258 67.9983 329.748C69.6925 327.116 71.2784 324.505 72.7005 321.706C73.7983 319.546 75.9464 317.343 76.2261 314.873C76.3546 313.738 76.1575 312.614 76.0911 311.484C75.9817 309.622 76.2788 307.743 76.334 305.883C76.4112 303.278 76.7268 300.731 76.9444 298.137C77.1333 295.885 76.8866 293.735 76.8096 291.491C76.6747 287.559 76.8324 283.376 77.6853 279.522C78.8434 274.289 81.1118 269.243 83.2997 264.376C83.9032 263.034 85.1183 258.87 86.8328 258.488C88.2951 258.161 90.1259 258.878 91.6051 259.007C93.9584 259.213 96.3149 259.239 98.6294 259.773C101.366 260.404 103.781 261.827 106.263 263.085C109.364 264.656 112.606 265.854 115.511 267.795C118.322 269.674 120.934 271.831 123.768 273.677C128.302 276.633 134.153 279.964 136.68 285.012Z" fill="#2E3120"/>
<path d="M398.301 153.055C403.85 151.971 410.19 154.238 415.338 156.037C421.775 158.286 428.215 158.91 430.335 159.503C432.238 160.035 434.463 160.555 436.442 160.146C437.428 159.943 438.348 160.336 439.369 160.354C440.45 160.374 441.543 160.086 442.625 160.259C444.837 160.61 444.871 161.958 445.297 163.804C445.811 166.033 446.074 168.285 446.593 170.532C447.872 176.076 449.182 181.539 451.507 186.76C453.64 191.551 454.093 197.092 454.989 202.22C455.609 205.767 456.078 209.407 456.887 212.914C457.504 215.585 457.497 218.432 457.509 221.166C457.517 222.999 457.401 224.608 456.201 226.001C455.085 227.297 452.427 227.527 450.851 227.891C448.544 228.424 446.183 228.977 444.047 230.032C441.13 231.471 438.203 232.093 435.041 232.823C432.061 233.51 429.43 233.89 426.41 233.161C424.672 232.742 424.203 232.55 423.009 231.209C420.926 228.872 418.836 226.645 416.52 224.525C414.732 222.889 413.185 220.229 410.881 219.298C409.822 218.87 408.685 218.759 407.58 218.521C405.756 218.127 404.025 217.338 402.247 216.786C399.758 216.014 397.389 215.028 394.948 214.124C392.829 213.339 390.692 213.001 388.509 212.474C384.685 211.551 380.697 210.278 377.212 208.424C372.48 205.907 368.225 202.37 364.123 198.959C362.992 198.018 359.305 195.732 359.396 193.977C359.473 192.481 360.654 190.909 361.175 189.519C362.003 187.307 362.66 185.043 363.794 182.956C365.135 180.489 367.152 178.542 369.029 176.488C371.373 173.922 373.396 171.119 376.044 168.84C378.607 166.634 381.384 164.695 383.922 162.46C387.984 158.883 392.761 154.138 398.301 153.055Z" fill="#2E3120"/>
<path d="M141.644 92.9898C146.575 86.798 148.495 84.0528 153.616 78.0175C156.124 75.062 160.165 73.2235 162.366 72.5175C165.363 71.5562 169.016 72.8535 171.866 73.7675C178.81 75.9947 183.272 82.5103 188.116 87.5175C190.019 89.4843 191.508 91.7355 193.616 93.5175C196.051 95.5758 198.817 97.159 201.338 99.1009C204.536 101.564 205.981 104.886 205.56 108.907C205.125 113.072 201.186 113.69 197.81 114.824C195.047 115.751 192.216 116.743 189.616 118.074C186.845 119.491 184.484 121.554 181.866 123.212C179.056 124.993 176.041 126.424 173.227 128.212C170.81 129.749 168.778 130.852 165.894 131.157C160.057 131.773 155.508 129.186 150.672 126.268C148.272 124.82 145.752 123.511 143.283 122.185C141.11 121.018 138.965 119.958 137.366 118.018C134.885 115.008 132.591 111.829 133.477 107.712C133.953 105.5 135.221 103.375 136.366 101.462C138.08 98.5981 139.556 95.6115 141.644 92.9898Z" fill="#2E3120"/>
<path d="M458.174 314.215C464.73 309.78 467.616 308.079 474.031 303.443C477.173 301.173 479.32 297.287 480.195 295.147C481.387 292.234 480.377 288.491 479.688 285.579C478.007 278.483 471.858 273.528 467.243 268.309C465.43 266.259 463.302 264.599 461.689 262.359C459.826 259.772 458.463 256.891 456.723 254.226C454.516 250.847 451.316 249.147 447.275 249.254C443.089 249.365 442.166 253.243 440.774 256.521C439.634 259.204 438.425 261.948 436.897 264.438C435.268 267.09 433.028 269.283 431.171 271.764C429.177 274.427 427.516 277.322 425.514 279.988C423.794 282.279 422.536 284.218 422.008 287.071C420.94 292.842 423.166 297.578 425.699 302.627C426.955 305.132 428.065 307.746 429.195 310.311C430.189 312.568 431.079 314.789 432.889 316.534C435.697 319.241 438.688 321.775 442.861 321.212C445.103 320.91 447.32 319.81 449.317 318.818C452.305 317.332 455.397 316.093 458.174 314.215Z" fill="#2E3120"/>
<path d="M53.9637 84.3872C44.4685 84.3508 35.9738 85.7603 26.5193 86.79C23.6369 87.2017 18.9897 87.4004 16.1025 87.6927C13.9577 87.9099 11.6858 88.1372 9.53312 88.1372C8.52939 88.1372 8.76922 89.6878 8.76922 90.3872C8.76922 96.4284 8.8366 102.26 9.76923 108.248C10.4919 112.889 11.299 117.416 11.6441 122.109C11.8848 125.383 12.1134 128.491 12.6441 131.734C13.1776 134.995 15.5806 136.216 18.5748 137.137C22.9491 138.483 27.5123 139.159 31.922 140.401C40.9784 142.952 49.328 147.256 58.2137 150.248C61.6504 151.406 65.0137 152.771 68.4359 153.971C70.9254 154.844 73.3841 155.629 75.5748 157.137C79.1169 159.577 82.9899 161.547 86.4081 164.165C90.9296 167.628 94.7653 171.978 99.0748 175.693C103.134 179.191 107.269 182.092 111.825 184.887C115.845 187.353 121.471 187.845 125.77 185.637C127.558 184.719 129.013 183.604 130.95 182.873C134.474 181.544 137.9 179.81 140.964 177.582C142.064 176.781 143.062 175.174 143.395 173.846C143.849 172.028 144.33 171.04 145.408 169.443C145.822 168.831 148.407 166.303 147.603 165.498C145.536 163.431 142.884 162.143 140.27 160.901C133.966 157.907 126.563 157.193 120.881 152.943C117.03 150.063 113.521 146.397 109.95 143.179C105.225 138.92 101.141 133.87 96.9081 129.137C94.181 126.088 91.0711 123.543 87.8387 121.054C84.9839 118.856 82.808 116.301 80.5192 113.54C78.0879 110.607 75.1848 108.078 73.0748 104.887C71.3639 102.3 69.7289 99.5229 68.5748 96.6372C67.2637 93.3595 66.4326 89.9851 64.8942 86.79C63.367 83.618 56.5665 84.3971 53.9637 84.3872Z" fill="#2E3120"/>
<path d="M96.8582 396.039C97.1151 406.496 99.0014 415.805 100.482 426.182C101.045 429.343 101.42 434.454 101.846 437.624C102.163 439.978 102.496 442.473 102.564 444.843C102.595 445.949 104.369 445.634 105.172 445.611C112.112 445.412 118.808 445.147 125.658 443.923C130.966 442.975 136.14 441.938 141.521 441.404C145.273 441.031 148.836 440.678 152.545 439.987C156.273 439.292 157.601 436.606 158.565 433.279C159.973 428.417 160.606 423.37 161.894 418.473C164.54 408.417 169.221 399.081 172.378 389.198C173.6 385.375 175.062 381.627 176.333 377.819C177.257 375.048 178.081 372.315 179.745 369.853C182.436 365.873 184.577 361.543 187.477 357.693C191.313 352.6 196.19 348.233 200.321 343.366C204.212 338.782 207.414 334.133 210.481 329.024C213.188 324.516 213.575 318.304 210.904 313.643C209.793 311.704 208.467 310.138 207.566 308.029C205.928 304.192 203.828 300.476 201.173 297.176C200.219 295.99 198.341 294.944 196.805 294.622C194.703 294.181 193.552 293.684 191.684 292.548C190.968 292.113 187.982 289.349 187.084 290.261C184.774 292.605 183.378 295.568 182.034 298.488C178.793 305.527 178.205 313.703 173.502 320.1C170.315 324.435 166.215 328.42 162.63 332.457C157.886 337.8 152.214 342.463 146.911 347.28C143.494 350.383 140.668 353.891 137.911 357.532C135.476 360.748 132.61 363.228 129.51 365.839C126.217 368.613 123.404 371.893 119.805 374.321C116.887 376.29 113.748 378.182 110.47 379.547C106.746 381.098 102.896 382.124 99.2743 383.923C95.6788 385.709 96.7878 393.173 96.8582 396.039Z" fill="#2E3120"/>
<path d="M233.335 39.7878C229.852 41.5235 225.479 40.7592 220.946 44.3984C218.489 46.3714 218.929 46.9511 218.791 48.8074C218.171 57.1253 219.485 65.6274 220.504 73.8699C221.634 83.0078 220.315 92.0285 220.37 101.19C220.405 107.244 221.78 113.199 222.578 119.166L222.589 119.248C223.06 122.77 223.527 126.256 224.976 129.506C226.509 132.942 228.304 136.388 229.435 139.982C230.83 144.419 232.058 148.888 233.355 153.352C234.012 155.614 234.815 157.701 235.244 160.032C235.813 163.121 236.3 166.223 236.963 169.294C237.903 173.643 238.918 177.935 240.183 182.204C241.073 185.205 242.059 188.141 242.628 191.223C243.767 197.401 245.477 203.437 248.185 209.12C249.282 211.422 249.843 213.828 250.579 216.255C250.929 217.411 251.058 218.864 251.661 219.914C252.264 220.963 253.164 221.01 254.328 221.222C255.562 221.446 256.677 221.541 257.947 221.404C260.656 221.111 263.404 221.737 266.065 221.408C266.521 221.352 268.222 221.428 268.141 220.773C267.968 219.374 268.702 217.544 268.828 216.14C269.16 212.449 270.676 208.61 271.64 205.045C272.551 201.679 273.417 198.389 274.031 194.953C274.675 191.348 275.82 187.854 276.416 184.246C277.277 179.035 277.5 173.73 278.304 168.506C279.017 163.877 279.721 159.231 280.562 154.624C281.582 149.041 284.268 143.824 284.886 138.206C285.487 132.733 284.597 127.465 283.892 122.025C283.381 118.069 282.778 114.086 282.117 110.153C281.476 106.34 280.254 102.681 279.439 98.9104C278.421 94.2034 278.064 89.3588 277.127 84.6278C276.329 80.5941 275.285 76.5996 274.122 72.6562C272.904 68.5285 271.309 64.5492 269.634 60.5878C268.482 57.8615 267.688 55.0846 266.707 52.3011C265.157 47.9085 263.132 43.9042 262.312 39.2837C261.851 36.6833 259.554 33.7532 257.879 31.8408C257.232 31.1021 256.09 30.7359 255.139 31.074C253.206 31.7616 251.26 32.4353 249.274 33.1008C243.725 34.9601 238.567 37.1807 233.335 39.7878Z" fill="#2E3120"/>
<path d="M173.894 195.001C178.813 195.798 183.713 196.691 188.607 197.631C198.815 199.59 203.141 199.878 208.746 202.516C209.977 203.168 218.848 205.186 220.098 205.863C221.942 206.861 224.084 207.336 225.836 208.564C227.378 209.646 228.534 210.977 229.942 212.137C231.397 213.335 232.574 215.034 234.238 215.975C235.082 216.452 235.326 218.085 235.443 219.071C236.103 224.617 236.536 230.161 237.019 235.743C237.322 239.238 237.727 242.97 237.143 246.462C236.724 248.966 235.658 250.991 234.191 253.063C233.365 254.23 232.327 254.893 231.339 255.873C230.851 256.357 230.384 256.988 229.666 257.116C227.87 257.438 225.434 256.724 223.691 256.311L223.651 256.302C221.913 255.89 220.108 255.462 218.421 254.878C216.144 254.09 214.06 252.944 211.831 252.067C210.868 251.689 210.063 251.665 209.071 251.94C206.73 252.59 204.373 253.444 202.111 254.335C199.502 255.363 197.774 256.41 195.691 258.31C191.839 261.821 187.893 265.206 184.34 269.031C182.342 271.182 180.44 273.422 178.428 275.56C177.184 276.882 176.238 278.827 174.435 279.451C172.568 280.098 171.383 279.939 169.51 279.522C163.798 278.251 160.118 274.116 155.461 270.927C152.993 269.237 150.279 267.486 147.594 266.165C143.836 264.316 139.621 264.356 135.764 262.965C132.372 261.741 128.966 258.841 127.799 255.361C127.468 254.375 127.06 253.255 127.168 252.206C127.306 250.852 128.158 250.083 128.726 248.89C129.458 247.353 129.972 245.869 130.983 244.458C132.227 242.721 133.399 240.946 134.278 238.987C136.047 235.042 137.966 231.194 140.614 227.757C142.11 225.814 143.791 224.121 144.694 221.794C145.451 219.846 145.478 217.706 146.107 215.722C147.429 211.551 148.575 207.425 150.533 203.48C151.498 201.535 152.55 199.651 153.38 197.643C153.771 196.699 154.203 195.521 155.208 195.089C156.218 194.655 157.642 194.572 158.729 194.327C160.327 193.966 162.093 193.589 163.735 193.614C167.061 193.664 170.616 194.47 173.894 195.001Z" fill="#2E3120"/>
<path d="M294.748 112.343C294.925 108.612 295.329 104.955 295.858 101.258C296.137 99.3135 300.134 84.2014 302.818 83.1174C303.744 83.2152 304.83 82.5303 305.721 82.3411C307.217 82.0235 308.729 81.8225 310.237 81.5698C315.636 80.6646 320.644 79.0989 326.172 79.1777C329.737 79.2286 333.123 79.839 336.616 80.5168C338.668 80.9152 340.765 81.2756 342.702 82.0915C346.731 83.7877 347.891 88.254 348.378 92.2348C349.749 103.465 349.404 114.945 350.021 126.234C350.314 131.6 350.822 136.969 351.631 142.283C352.122 145.508 353.217 148.58 353.823 151.771C354.346 154.522 354.865 157.309 355.3 160.077C355.528 161.521 355.983 163.196 355.773 164.662C355.473 166.756 353.734 167.308 352.113 168.486C350.501 169.658 348.612 170.39 347.008 171.577C345.6 172.618 344.515 174.247 342.922 175.001C340.441 176.175 338.111 175.797 335.931 174.137C334.316 172.909 333.624 170.299 332.832 168.523C331.796 166.201 330.811 163.995 329.523 161.793C325.009 154.08 319.143 148.118 312.981 141.698C309.565 138.139 305.58 135.157 302.312 131.46C300.021 128.869 296.845 125.678 295.732 122.336C294.573 118.853 294.578 115.908 294.748 112.343Z" fill="#2E3120"/>
<path d="M97.3221 200.28C98.8063 203.708 100.056 207.169 101.209 210.721C101.816 212.589 104.886 227.917 102.954 230.072C102.08 230.392 101.406 231.486 100.689 232.048C99.486 232.993 98.2171 233.839 96.9754 234.73C92.5273 237.921 88.721 241.534 83.7239 243.898C80.5008 245.423 77.1923 246.367 73.7583 247.297C71.74 247.844 69.6992 248.444 67.6004 248.566C63.2367 248.818 60.2271 245.319 58.0368 241.96C51.8576 232.483 47.1096 222.025 41.5824 212.162C38.9552 207.474 36.1332 202.878 33.0659 198.464C31.2045 195.785 28.868 193.51 26.9176 190.912C25.236 188.673 23.5429 186.399 21.9322 184.107C21.0919 182.911 19.945 181.607 19.4876 180.198C18.8344 178.187 20.1522 176.925 21.0885 175.153C22.0196 173.391 23.3927 171.902 24.3097 170.13C25.1147 168.574 25.3717 166.634 26.4691 165.256C28.179 163.109 30.4375 162.421 33.1262 162.95C35.1169 163.342 36.8881 165.38 38.3815 166.625C40.3343 168.253 42.1904 169.8 44.3171 171.209C51.7677 176.145 59.6604 178.913 68.0205 181.961C72.6546 183.651 77.547 184.572 82.1086 186.451C85.3071 187.768 89.5643 189.233 92.0359 191.743C94.6109 194.359 95.9041 197.005 97.3221 200.28Z" fill="#2E3120"/>
<path d="M182.872 151.754C182.245 149.526 182.752 144.509 182.872 142.184C184.788 138.295 191.696 141.504 196.705 141.545C199.471 141.568 202.397 141.878 205.15 142.184C207.586 142.455 210.086 142.811 212.108 144.309C215.598 146.894 215.216 151.726 215.789 155.573C216.467 160.13 216.337 164.6 215.219 169.073C214.717 171.083 214.51 174.469 213.094 176.143C212.694 176.616 211.786 176.894 211.261 177.157C209.287 178.143 207.351 179.24 205.344 180.157C201.441 181.938 197.441 183.372 193.594 185.295C191.903 186.141 190.397 187.045 188.483 187.045C186.963 187.045 187.049 185.979 186.983 184.559C186.62 176.756 185.874 169.09 184.788 161.351C184.332 158.097 183.763 154.919 182.872 151.754Z" fill="#2E3120"/>
<path d="M348.894 315.9C351.208 315.911 355.892 317.78 358.094 318.536C361.304 321.449 356.317 327.206 354.898 332.01C354.114 334.663 353.01 337.39 351.958 339.952C351.027 342.22 349.996 344.524 347.999 346.056C344.552 348.699 340.013 347.001 336.157 346.492C331.589 345.889 327.328 344.533 323.336 342.226C321.542 341.19 318.344 340.059 317.125 338.236C316.78 337.721 316.763 336.772 316.655 336.195C316.25 334.025 315.729 331.863 315.401 329.68C314.763 325.438 314.486 321.197 313.697 316.97C313.35 315.111 312.895 313.415 313.422 311.574C313.841 310.113 314.843 310.489 316.225 310.817C323.827 312.617 331.402 314.012 339.14 315.099C342.394 315.557 345.606 315.885 348.894 315.9Z" fill="#2E3120"/>
<path d="M337.848 70.3602C335.603 69.8005 331.497 66.872 329.538 65.6155C327.111 62.0228 333.323 57.6149 335.842 53.2855C337.233 50.8945 338.953 48.5079 340.584 46.2689C342.027 44.2871 343.576 42.2933 345.879 41.2798C349.854 39.5309 353.861 42.258 357.486 43.6684C361.78 45.339 365.597 47.6676 368.927 50.8565C370.424 52.2894 373.262 54.1475 374.013 56.2071C374.225 56.7895 374.017 57.7154 373.985 58.302C373.863 60.5054 373.856 62.7301 373.656 64.9276C373.268 69.2 372.53 73.3856 372.293 77.6796C372.189 79.5677 372.228 81.3234 371.279 82.9859C370.525 84.3062 369.641 83.7022 368.376 83.0558C361.419 79.502 354.392 76.3486 347.133 73.4543C344.081 72.2374 341.039 71.1556 337.848 70.3602Z" fill="#2E3120"/>
<path d="M326.611 198.822C327.442 200.981 327.403 206.024 327.499 208.35C325.952 212.4 318.776 209.846 313.785 210.27C311.028 210.504 308.087 210.467 305.318 210.418C302.866 210.375 300.345 210.252 298.192 208.948C294.477 206.699 294.409 201.852 293.482 198.075C292.383 193.601 292.097 189.138 292.795 184.58C293.109 182.533 293 179.142 294.255 177.344C294.609 176.836 295.487 176.475 295.986 176.164C297.86 174.998 299.685 173.727 301.598 172.628C305.319 170.492 309.169 168.692 312.821 166.42C314.426 165.421 315.841 164.381 317.747 164.203C319.261 164.062 319.274 165.132 319.471 166.539C320.557 174.275 322.012 181.839 323.811 189.444C324.568 192.641 325.43 195.753 326.611 198.822Z" fill="#2E3120"/>
<path d="M222.954 308.759C221.545 305.3 220.371 301.813 219.294 298.237C218.728 296.356 215.991 280.965 217.969 278.852C218.85 278.551 219.547 277.472 220.275 276.926C221.499 276.008 222.785 275.189 224.046 274.325C228.562 271.23 232.446 267.701 237.493 265.445C240.748 263.99 244.076 263.118 247.529 262.263C249.559 261.76 251.612 261.204 253.713 261.128C258.082 260.97 261.015 264.533 263.132 267.939C269.104 277.547 273.625 288.106 278.938 298.086C281.463 302.829 284.185 307.485 287.156 311.965C288.959 314.684 291.246 317.009 293.139 319.648C294.772 321.923 296.416 324.233 297.976 326.559C298.79 327.773 299.909 329.102 300.336 330.52C300.945 332.545 299.6 333.778 298.626 335.529C297.657 337.271 296.252 338.73 295.297 340.481C294.458 342.019 294.16 343.954 293.033 345.308C291.277 347.417 289.004 348.056 286.327 347.469C284.346 347.034 282.619 344.958 281.153 343.681C279.236 342.011 277.413 340.425 275.318 338.97C267.976 333.874 260.145 330.936 251.853 327.708C247.256 325.918 242.385 324.891 237.865 322.914C234.696 321.528 230.471 319.971 228.054 317.408C225.537 314.738 224.301 312.064 222.954 308.759Z" fill="#2E3120"/>
<path d="M74.1635 435.415C73.4744 439.087 72.572 442.654 71.5394 446.243C70.9961 448.131 64.9599 462.55 62.1524 463.255C61.2489 463.031 60.0785 463.56 59.1699 463.625C57.6444 463.734 56.119 463.725 54.5914 463.768C49.119 463.922 43.943 464.785 38.4786 463.947C34.954 463.407 31.6842 462.336 28.318 461.185C26.3394 460.508 24.3124 459.863 22.5054 458.789C18.7484 456.555 18.2129 451.971 18.2784 447.962C18.4633 436.65 20.3833 425.326 21.3244 414.059C21.7717 408.704 22.0059 403.316 21.9354 397.941C21.8927 394.679 21.2301 391.486 21.0679 388.242C20.9281 385.445 20.798 382.613 20.7466 379.812C20.7198 378.35 20.4993 376.628 20.9088 375.205C21.4937 373.172 23.2921 372.864 25.0597 371.92C26.8175 370.981 28.789 370.516 30.5407 369.561C32.0787 368.723 33.3778 367.258 35.0585 366.731C37.6773 365.909 39.9335 366.604 41.8653 368.547C43.2956 369.986 43.6223 372.666 44.1629 374.534C44.8698 376.976 45.542 379.297 46.5155 381.655C49.9261 389.916 54.917 396.627 60.138 403.833C63.032 407.828 66.5701 411.33 69.2983 415.44C71.2113 418.322 73.9191 421.919 74.5619 425.383C75.2315 428.991 74.8219 431.908 74.1635 435.415Z" fill="#2E3120"/>
<path d="M428.335 123.174C426.473 126.412 424.444 129.482 422.285 132.529C421.149 134.132 410.693 145.752 407.811 145.49C407.032 144.981 405.752 145.094 404.873 144.855C403.397 144.455 401.96 143.943 400.504 143.48C395.287 141.82 390.116 140.926 385.234 138.332C382.085 136.659 379.352 134.57 376.554 132.372C374.91 131.08 373.209 129.802 371.858 128.192C369.048 124.843 370.055 120.34 371.44 116.576C375.348 105.959 380.897 95.9026 385.503 85.5774C387.692 80.6698 389.691 75.6609 391.398 70.5636C392.434 67.4703 392.863 64.2374 393.78 61.1216C394.571 58.4351 395.382 55.7188 396.258 53.0577C396.715 51.6693 397.075 49.9706 397.932 48.7623C399.155 47.0364 400.954 47.3392 402.934 47.0313C404.903 46.7251 406.918 46.9364 408.886 46.613C410.615 46.329 412.324 45.3754 414.085 45.4321C416.828 45.5204 418.729 46.9207 419.911 49.3928C420.787 51.2231 420.21 53.8611 420.104 55.8024C419.966 58.3411 419.835 60.7536 419.976 63.3007C420.469 72.2245 422.966 80.2071 425.517 88.7322C426.931 93.4577 429.115 97.9313 430.334 102.712C431.189 106.064 432.558 110.353 432.022 113.834C431.463 117.462 430.114 120.08 428.335 123.174Z" fill="#2E3120"/>
<path d="M465.861 77.7238C473.012 79.0242 476.067 79.3851 483.173 80.9066C486.654 81.6517 489.896 84.1227 491.423 85.5966C493.503 87.6037 494.04 91.1227 494.538 93.8251C495.752 100.41 492.419 106.85 490.472 112.944C489.707 115.337 488.533 117.52 488.007 119.999C487.399 122.863 487.32 125.789 486.844 128.672C486.24 132.328 484.18 134.94 480.745 136.346C477.186 137.803 474.975 134.885 472.592 132.646C470.641 130.813 468.61 128.954 466.404 127.428C464.054 125.803 461.359 124.788 458.88 123.391C456.22 121.891 453.752 120.073 451.083 118.573C448.79 117.285 447.015 116.121 445.516 113.919C442.482 109.465 442.6 104.661 442.86 99.481C442.989 96.9108 442.954 94.3037 442.954 91.7298C442.954 89.4655 442.88 87.2692 443.755 85.1334C445.113 81.8186 446.688 78.5826 450.403 77.5112C452.4 76.9356 454.67 77.0386 456.714 77.1338C459.776 77.2763 462.833 77.1732 465.861 77.7238Z" fill="#2E3120"/>
<path d="M340.491 500H267.49C267.804 499.324 268.127 498.653 268.446 497.988C268.802 497.245 269.155 496.511 269.488 495.788C271.572 491.261 273.745 486.779 275.96 482.316C277.01 480.2 277.895 478.354 278.684 476.709C281.367 471.114 282.934 467.846 286.058 464.219C286.53 463.72 287.817 461.524 289.121 459.301C290.462 457.013 291.82 454.696 292.321 454.177C292.924 453.552 293.453 452.854 293.985 452.154C294.737 451.163 295.491 450.168 296.46 449.371C297.333 448.654 298.255 448.094 299.176 447.535C299.79 447.163 300.403 446.79 301.001 446.371C301.595 445.956 302.249 445.6 302.905 445.242C303.957 444.67 305.017 444.092 305.849 443.26C306.534 442.575 308.173 442.776 309.154 442.927C313.715 443.629 318.232 444.479 322.771 445.333C323.727 445.513 324.683 445.693 325.64 445.871C325.907 445.921 326.174 445.971 326.443 446.02C329.658 446.614 333.041 447.24 336.001 448.621C338.302 449.695 339.968 451.265 341.571 453.233C342.164 453.96 342.523 454.717 342.892 455.495C343.086 455.902 343.282 456.315 343.515 456.733C343.576 456.841 343.641 456.949 343.707 457.059C344.007 457.559 344.321 458.082 344.265 458.677C344.117 460.259 343.081 462.099 342.245 463.584C342.121 463.804 342.002 464.016 341.89 464.219L341.871 464.255C341.008 465.819 340.113 467.444 339.099 468.913C338.317 470.045 337.441 471.085 336.564 472.125C335.905 472.907 335.245 473.689 334.626 474.51C334.004 475.336 333.765 476.106 333.765 477.135C333.765 479.565 333.957 482.064 334.21 484.483C334.502 487.271 335.049 489.217 336.321 491.733C336.815 492.71 337.303 493.689 337.79 494.668C338.679 496.453 339.566 498.236 340.491 500Z" fill="#2E3120"/>
<path d="M367.858 440.761C368.123 438.463 370.497 434.013 371.49 431.908C374.739 429.037 379.912 434.627 384.531 436.566C387.081 437.637 389.67 439.034 392.101 440.362C394.253 441.537 396.43 442.815 397.732 444.968C399.98 448.684 397.794 453.009 396.863 456.786C395.761 461.26 393.946 465.346 391.214 469.06C389.986 470.729 388.51 473.784 386.565 474.795C386.015 475.08 385.07 474.993 384.484 475.037C382.283 475.201 380.076 475.481 377.871 475.567C373.585 475.735 369.339 475.543 365.05 475.863C363.164 476.004 361.428 476.269 359.657 475.543C358.251 474.966 358.735 474.011 359.213 472.673C361.838 465.316 364.057 457.94 365.99 450.368C366.802 447.184 367.482 444.028 367.858 440.761Z" fill="#2E3120"/>
<path d="M64.6694 0C64.6547 0.096173 64.64 0.192231 64.6253 0.288161C64.6104 0.385828 64.5955 0.483368 64.5806 0.580758C64.3792 1.90157 64.2377 3.22987 64.0962 4.55797C63.9208 6.20499 63.7454 7.85172 63.4556 9.48358C63.2395 10.7006 63.0357 11.9195 62.832 13.138C62.3489 16.0275 61.8661 18.9154 61.2195 21.7752C61.1121 22.2505 60.9999 22.7291 60.8872 23.21C60.3793 25.3771 59.8597 27.594 59.7056 29.7891C59.6599 30.441 59.5571 31.0805 59.4544 31.719C59.3528 32.3509 59.2514 32.9817 59.2056 33.6225C59.1283 34.7052 58.0469 35.8811 57.1304 36.8779C56.7745 37.2649 56.4434 37.6249 56.2056 37.9419C55.293 39.1587 54.3954 40.3839 53.4987 41.6079C50.4802 45.7278 47.4724 49.8332 43.9417 53.553C38.8744 58.8918 32.1982 61.0829 25.4073 63.3117L25.0529 63.428C24.8107 63.5075 24.57 63.5879 24.33 63.6681C22.4551 64.2942 20.6314 64.9032 18.6223 64.928C17.8569 64.9375 17.1027 64.8705 16.3483 64.8035C15.6419 64.7408 14.9354 64.678 14.2195 64.678C11.8826 64.678 9.65704 64.2504 7.40007 63.678C4.97325 63.0625 2.48231 62.6404 0 62.231V0H64.6694Z" fill="#2E3120"/>
<path d="M500.001 339.98V374.131C493.26 370.289 486.43 366.837 479.36 363.631C476.368 362.274 473.379 361.052 470.229 360.109C468.408 359.565 465.408 357.366 463.342 355.852C462.892 355.522 462.487 355.225 462.147 354.984C460.597 352.442 463.134 349.705 465.756 346.877C466.952 345.587 468.165 344.278 469.017 342.96C470.517 340.636 472.346 338.332 474.079 336.171C475.612 334.258 477.252 332.338 479.6 331.433C482.825 330.189 485.939 331.779 488.868 333.275C489.619 333.658 490.358 334.035 491.083 334.357C494.367 335.813 497.342 337.656 500.001 339.98Z" fill="#2E3120"/>
<path d="M460.94 6.46889C460.464 7.31349 459.988 8.15815 459.483 8.98355C459.253 9.35858 459.038 9.72068 458.831 10.0702C457.562 12.2081 456.571 13.8768 454.205 15.178C448.341 18.4036 443.415 23.0085 440.594 29.1641C439.817 30.8604 439.811 33.2182 439.805 35.326C439.803 36.1038 439.801 36.8475 439.761 37.5113C439.655 39.2369 439.81 40.9304 439.965 42.6281C440.061 43.6773 440.157 44.7281 440.191 45.7891L440.195 45.8947C440.264 48.0129 440.335 50.1694 440.705 52.2613C441.304 55.6424 442.96 57.3267 446.094 58.6225C447.326 59.1317 448.615 59.3382 449.909 59.5455C450.92 59.7075 451.935 59.87 452.927 60.178C455.365 60.9345 457.798 61.5287 460.344 61.8169C462.072 62.0125 463.811 62.1389 465.549 62.2651C466.501 62.3341 467.451 62.4032 468.4 62.4836C468.9 62.5259 469.394 62.5871 469.884 62.6478C471.725 62.8756 473.509 63.0964 475.316 62.2891C475.407 62.2487 475.497 62.2084 475.587 62.1683C478.594 60.8234 481.155 59.678 484.483 59.678C485.371 59.678 486.266 59.8872 487.162 60.0968C487.843 60.2561 488.525 60.4155 489.205 60.4836C491.228 60.6859 493.265 61.0552 495.284 61.4216C496.001 61.5517 496.716 61.6813 497.427 61.803C498.136 61.9242 498.847 62.0412 499.559 62.1585C499.706 62.1827 499.853 62.2068 500 62.2311V0H465.332C465.129 0.24169 464.92 0.486328 464.705 0.733539C463.19 2.4744 462.065 4.47145 460.94 6.46889Z" fill="#2E3120"/>
<path d="M340.49 0C341.474 1.87657 342.5 3.73128 343.614 5.54256C344.329 6.70677 345.069 7.85611 345.809 9.00541C346.659 10.3252 347.509 11.6449 348.322 12.987C348.598 13.4427 348.933 13.8879 349.271 14.3377C350.084 15.4207 350.918 16.5301 351.002 17.8759C351.126 19.8483 350.655 20.9468 349.752 22.6398C347.763 26.3702 344.617 28.6787 341.396 31.0428C340.158 31.951 338.909 32.8675 337.711 33.8759C335.422 35.8017 333.008 37.9477 331.016 40.1815C329.432 41.9584 328.396 44.0409 327.361 46.1217C326.576 47.7013 325.791 49.2799 324.766 50.7231C322.68 53.6631 318.974 56.1691 315.308 56.362C315.244 56.3654 315.18 56.3689 315.115 56.3724C314.125 56.4263 313.021 56.4864 312.1 56.1259C311.26 55.7972 310.751 55.2357 310.213 54.6422C309.94 54.3399 309.658 54.0293 309.322 53.737C308.977 53.437 308.631 53.1532 308.289 52.8723C307.357 52.1077 306.452 51.3648 305.655 50.3759C304.315 48.712 302.919 47.1076 301.266 45.737C297.938 42.9763 294.745 40.0973 292.141 36.6259C291.802 36.1735 291.478 35.7151 291.156 35.2593C290.082 33.739 289.027 32.2469 287.489 31.0981C286.571 30.413 285.539 29.9234 284.507 29.4337C283.656 29.0298 282.804 28.6259 282.016 28.112C281.441 27.7368 280.866 27.366 280.292 26.9962C277.209 25.01 274.168 23.051 271.405 20.5704C270.932 20.1451 270.465 19.714 269.999 19.2834C268.875 18.2454 267.754 17.21 266.544 16.2648C266.497 16.2277 266.448 16.1903 266.4 16.1525C265.622 15.5482 264.71 14.8405 264.572 13.8204C264.475 13.1028 264.571 12.2534 264.665 11.4392C264.713 11.0166 264.762 10.6035 264.78 10.2231C264.86 8.58747 264.97 6.78472 265.433 5.20923C265.945 3.4668 266.693 1.71884 267.493 0H340.49Z" fill="#2E3120"/>
<path d="M420.636 3.20335C421.547 4.3737 422.535 5.64363 423.782 7.20932C424.914 8.63001 425.804 10.1945 426.697 11.763C427.032 12.3513 427.367 12.9401 427.715 13.5222C428.568 14.9476 429.513 16.5309 429.868 18.1792C430.528 21.2467 428.819 23.6149 426.97 25.858C425.865 27.1986 424.41 27.9756 422.913 28.7747C422.796 28.8372 422.679 28.8997 422.561 28.9627C422.238 29.1361 421.914 29.3091 421.59 29.4824C420.065 30.2964 418.53 31.1158 417.056 32.0053C413.452 34.1793 410.062 36.1073 405.713 35.6481C403.564 35.4211 402.05 34.5989 400.249 33.4541C399.194 32.7833 398.101 32.18 397.008 31.5771C395.93 30.9821 394.852 30.3874 393.812 29.7285C393.061 29.2525 392.338 28.7318 391.615 28.2112C390.461 27.38 389.307 26.5489 388.037 25.8994C386.1 24.9081 383.991 24.1692 381.932 23.4778C381.606 23.3683 381.273 23.2654 380.939 23.1622C378.7 22.4695 376.44 21.7705 376.157 19.0692C375.843 16.0735 376.921 13.598 379.303 11.7629C380.108 11.1427 380.947 10.5717 381.785 10.0008C382.903 9.23972 384.02 8.47896 385.057 7.60258C386.012 6.79493 386.797 5.85795 387.584 4.918C388.092 4.3126 388.6 3.70596 389.155 3.13186C389.931 2.32966 390.694 1.4755 391.465 0.612318C391.647 0.408528 391.83 0.204233 392.013 0H418.119C418.99 1.08861 419.778 2.10188 420.636 3.20335Z" fill="#2E3120"/>
<path d="M233.445 0C233.09 0.311564 232.772 0.651958 232.506 1.0315C232.039 1.69898 231.72 2.44106 231.4 3.18335C231.272 3.48153 231.144 3.77974 231.006 4.07316C230.508 5.13258 229.867 6.12132 229.226 7.10839C228.846 7.69429 228.466 8.27959 228.117 8.87873C227.193 10.4644 226.179 11.9683 225.161 13.4788C224.733 14.1134 224.304 14.7492 223.881 15.3926C222.992 16.7445 222.324 18.157 221.648 19.5876C221.38 20.1549 221.111 20.7251 220.825 21.2954C219.066 24.8143 216.929 28.4139 214.339 31.3926C210.822 35.4371 206.419 38.7874 202.173 42.0176C201.946 42.1901 201.648 42.4446 201.304 42.7394C199.869 43.9669 197.618 45.8929 196.256 45.5037C195.316 45.2351 194.45 44.5009 193.617 43.7953C193.175 43.4198 192.741 43.0525 192.311 42.7676C191.798 42.4275 191.279 42.098 190.76 41.7688C189.288 40.8351 187.821 39.9039 186.506 38.7399C184.765 37.1989 183.477 35.2865 182.189 33.3742C181.921 32.9764 181.653 32.5787 181.381 32.1843C180.733 31.2454 180.053 30.3346 179.374 29.4252C177.984 27.5631 176.598 25.707 175.506 23.6287C174.762 22.2123 174.086 20.7624 173.411 19.3125C172.66 17.6988 171.908 16.0851 171.061 14.5176C170.782 14.0011 170.492 13.4733 170.196 12.9355C168.022 8.98574 165.553 4.49888 165.174 0H233.445Z" fill="#2E3120"/>
<path d="M418.123 500H392.008C394.659 497.045 397.463 494.101 401.263 492.882C401.384 492.843 401.507 492.803 401.631 492.763C403.695 492.096 406.236 491.275 408.342 491.951C409.982 492.477 412.993 493.846 414.862 496.049C416.166 497.585 417.191 498.836 418.123 500Z" fill="#2E3120"/>
<path d="M500 495.397V500H465.328C465.659 499.605 465.976 499.218 466.286 498.84C468.027 496.714 469.52 494.891 471.955 493.674C473.49 492.906 474.537 491.838 475.625 490.729C476.198 490.145 476.782 489.549 477.455 488.979C480.473 486.426 485.608 487.992 488.455 490.229C489.101 490.737 489.69 491.266 490.264 491.782C491.993 493.337 493.586 494.769 496.205 495.118C497.473 495.287 498.735 495.363 500 495.397Z" fill="#2E3120"/>
<path d="M500 186.767V301.937C499.706 301.513 499.417 301.086 499.132 300.655C496.864 297.226 494.696 293.713 492.75 290.09C491.684 288.106 490.732 286.062 489.781 284.018C488.694 281.684 487.608 279.352 486.354 277.112C485.577 275.725 484.74 274.375 483.903 273.027C482.709 271.103 481.516 269.181 480.499 267.148C478.714 263.581 476.971 259.95 475.322 256.318C475.047 255.712 474.77 255.109 474.494 254.508C472.493 250.155 470.534 245.891 469.631 241.138C469.048 238.074 469.103 234.941 469.159 231.802C469.204 229.253 469.249 226.7 468.953 224.174C468.447 219.86 467.818 215.547 467.19 211.247C467.141 210.911 467.092 210.575 467.043 210.239C466.68 207.748 466.186 205.277 465.691 202.807C465.148 200.092 464.604 197.378 464.236 194.637C463.982 192.746 463.879 190.84 463.777 188.933C463.683 187.187 463.589 185.439 463.378 183.702C462.958 180.237 462.822 176.837 462.706 173.352C462.671 172.279 462.673 171.17 462.675 170.048C462.681 167.31 462.686 164.492 462.144 161.92C462.031 161.386 461.987 160.765 461.942 160.13C461.87 159.122 461.795 158.078 461.442 157.289C461.224 156.8 462.267 156.428 462.893 156.205C463.039 156.153 463.163 156.109 463.242 156.073C464.488 155.516 465.827 155.189 467.173 154.861C468.471 154.544 469.774 154.225 471.004 153.698C472.178 153.195 473.272 152.959 474.518 152.812C474.637 152.798 474.754 152.783 474.868 152.768C475.871 152.639 476.657 152.538 477.451 153.28C478.036 153.828 478.475 154.606 478.9 155.36C479.117 155.745 479.33 156.123 479.558 156.461C479.883 156.946 480.2 157.432 480.515 157.916C481.569 159.536 482.61 161.135 483.937 162.582C488.193 167.222 491.595 172.491 494.496 178.065C495.651 180.284 497.033 182.336 498.424 184.401C498.775 184.922 499.127 185.445 499.476 185.971C499.652 186.236 499.826 186.501 500 186.767Z" fill="#2E3120"/>
<path d="M0 301.937V186.767C2.25527 190.225 4.32045 193.765 6.3385 197.371C7.38601 199.243 8.35882 201.153 9.33186 203.063C9.78412 203.95 10.2364 204.838 10.6963 205.723C11.452 207.175 12.344 208.465 13.2491 209.772C13.6539 210.357 14.0614 210.946 14.4604 211.555C15.1828 212.658 15.9 213.762 16.617 214.866C18.4289 217.656 20.2392 220.443 22.1268 223.189C23.7063 225.487 25.6098 227.601 27.495 229.694C28.1571 230.429 28.8168 231.162 29.4595 231.899C31.7976 234.581 33.2654 237.778 34.7479 241.007L34.7824 241.082C35.5336 242.718 36.3337 244.338 37.1347 245.96C39.0124 249.761 40.8946 253.572 42.1621 257.621C43.1469 260.768 43.9565 263.949 44.7644 267.124C46.2017 272.772 47.6341 278.401 50.0399 283.782C50.4485 284.695 50.8623 285.612 51.2773 286.53C54.3057 293.236 57.4003 300.088 59.023 307.242C59.0886 307.531 59.1588 307.785 59.2233 308.018C59.5629 309.248 59.7424 309.898 58.2539 312.089C56.2297 315.068 53.7682 316.412 51.5173 317.642C50.1356 318.397 48.8333 319.108 47.7601 320.128C43.5224 324.153 39.2414 327.788 34.4809 331.192C32.7771 332.41 31.1141 333.625 29.4672 334.849C28.6572 335.451 27.458 335.435 26.623 334.918C24.4615 333.581 21.4067 331.453 20.2035 329.101C18.713 326.189 16.7501 323.735 14.7598 321.246C13.8952 320.165 13.0255 319.078 12.187 317.943C11.6058 317.157 11.0447 316.366 10.4849 315.576C9.35481 313.982 8.23053 312.396 6.95918 310.879C4.52823 307.978 2.15291 305.045 0 301.937Z" fill="#2E3120"/>
<path d="M0 374.131V339.979C0.751592 340.636 1.4778 341.332 2.17841 342.068C2.55466 342.463 3.02256 342.893 3.5197 343.349C4.90963 344.623 6.52804 346.107 7.01043 347.648C7.14673 348.083 7.04657 348.695 6.96046 349.22C6.92958 349.408 6.9005 349.586 6.88479 349.74C6.80127 350.56 6.73354 351.383 6.66578 352.207C6.55205 353.59 6.43821 354.973 6.2495 356.342C6.008 358.095 5.70762 359.831 5.40742 361.566C4.97975 364.036 4.55246 366.505 4.29635 369.018C4.2731 369.247 4.25204 369.473 4.23116 369.697C4.0799 371.324 3.93779 372.851 3.03687 374.272C2.2858 375.456 1.50037 374.999 0.414591 374.368C0.323245 374.315 0.229772 374.262 0.134016 374.207C0.089348 374.182 0.044676 374.156 0 374.131Z" fill="#2E3120"/>
<path d="M64.6687 500H0V495.397C0.954648 495.422 1.91089 495.424 2.87229 495.424C3.98557 495.424 5.11164 495.45 6.24214 495.476C8.74793 495.535 11.2754 495.594 13.7334 495.368C16.1804 495.143 16.7141 494.629 17.8306 492.396C18.3539 491.349 18.8278 490.271 19.3023 489.191C20.2304 487.078 21.1611 484.96 22.4695 483.063C22.5532 482.941 22.6356 482.821 22.7172 482.701C23.8268 481.076 24.7845 479.674 26.8584 479.674C30.7559 479.674 34.7746 480.323 38.6306 480.946C38.9018 480.989 39.1722 481.033 39.4417 481.076C43.7282 481.765 48.3167 482.924 52.2056 484.868L52.2531 484.892C54.5482 486.039 56.7415 487.136 59.1917 487.924C61.0793 488.53 63.0827 489.427 64.6501 490.674C65.4656 491.322 65.3444 492.891 65.2533 494.069C65.2303 494.368 65.2091 494.641 65.2056 494.868C65.1794 496.576 64.9272 498.306 64.6687 500Z" fill="#2E3120"/>
<path d="M134.402 500H79.2656C79.2599 498.846 79.2933 497.655 79.1696 496.515C78.65 495.51 77.9371 492.3 79.2427 487.5C80.8747 481.5 83.25 482.5 83.75 478.375C84.5072 472.128 88.524 468.058 94.375 465.25C97.5 463.75 104.125 463.375 106.125 463.875C108.125 464.375 118.5 465.25 121.875 470.875C125.25 476.5 124 480.375 128.25 483.25C135.399 488.086 134.402 494.536 134.402 500Z" fill="#2E3120"/>
<path d="M233.438 500H165.173C165.127 499.463 165.112 498.925 165.13 498.388C165.318 492.829 168.838 487.253 171.724 482.683C171.771 482.607 171.819 482.532 171.866 482.458C174.385 478.466 176.146 474.297 177.341 471.469C177.872 470.211 178.292 469.219 178.616 468.624C179.562 466.89 180.569 464.839 180.616 462.819C180.63 462.206 180.854 461.667 181.083 461.116C181.231 460.761 181.38 460.401 181.477 460.013C181.582 459.593 181.64 459.16 181.697 458.727C181.783 458.078 181.869 457.428 182.116 456.819C182.867 454.964 184.001 454.982 185.585 455.007C185.774 455.01 185.969 455.013 186.172 455.013C187.313 455.013 188.446 455.075 189.581 455.138C190.721 455.2 191.863 455.263 193.019 455.263C198.708 455.263 204.326 455.215 209.935 454.124C213.952 453.343 218.182 453.661 222.316 453.972C223.482 454.059 224.64 454.146 225.783 454.208C226.913 454.269 228.048 454.346 229.186 454.424C231.669 454.593 234.162 454.763 236.63 454.763C239.289 454.763 241.979 455.372 244.573 455.959C244.652 455.977 244.731 455.995 244.81 456.013C246.599 456.418 248.14 456.892 249.227 458.374C250.038 459.479 249.96 461.394 249.896 462.944C249.881 463.329 249.866 463.691 249.866 464.013C249.866 466.381 249.875 468.806 250.422 471.124C251.122 474.095 251.119 476.912 251.116 479.93C251.116 480.128 251.116 480.327 251.116 480.527C251.116 483.586 250.895 486.234 249.505 489.013C248.705 490.612 248.413 491.026 246.838 491.888C244.092 493.392 241.452 494.928 238.866 496.708C238.201 497.165 237.431 497.571 236.648 497.985C235.515 498.582 234.354 499.195 233.438 500Z" fill="#2E3120"/>
<path d="M134.404 0H79.2659C76.831 14.25 73.7082 28.6214 73.8337 35.4034C73.9097 39.5064 74.8881 44.0322 76.8314 47.6654C78.4844 50.7558 82.0014 52.5831 84.8812 54.3198C88.776 56.6685 93.0265 58.4494 96.7686 61.0387C99.5391 62.9558 102.767 65.2156 104.482 68.1969C105.941 70.7314 106.814 73.5696 107.519 76.3889C108.143 78.8847 108.933 81.3291 109.793 83.7539C110.265 85.0851 110.876 87.1655 112.377 87.7335C114.517 88.5433 117.445 88.3745 119.665 88.1987C123.229 87.9164 127.212 85.9377 130.156 84.0252C133.108 82.1077 135.837 79.5617 137.366 76.3372C139.297 72.2651 139.766 67.6385 140.364 63.2353C141.226 56.8859 142.776 50.0803 146.476 44.7194C149.561 40.249 155.518 38.9465 158.428 34.2663C159.73 32.1715 160.289 30.1554 160.314 27.7025C160.344 24.791 160.605 21.6549 160.211 18.7611C159.47 13.3302 154.547 10.2797 149.964 8.25633C147.039 6.96477 135.539 3.27638 134.404 0Z" fill="#2E3120"/>
</svg>
