<svg width="500" height="500" viewBox="0 0 500 500" fill="none" xmlns="http://www.w3.org/2000/svg">
<path fill-rule="evenodd" clip-rule="evenodd" d="M41.4993 207.835C41.4974 206.843 39.0624 210.024 38.8886 210.267C37.0329 212.866 35.295 217.775 33.4057 219.665C32.8693 220.203 34.8035 221.645 35.2333 221.754C37.601 222.344 41.3722 224.103 43.5867 224.103C43.639 224.103 44.2987 220.436 44.3697 220.188C44.622 219.308 44.9303 218.469 45.1527 217.577C46.4496 212.393 45.2368 211.575 41.4993 207.835Z" fill="#939878"/>
<path fill-rule="evenodd" clip-rule="evenodd" d="M188.222 394.572C188.22 393.58 185.785 396.761 185.611 397.004C183.755 399.603 182.018 404.512 180.128 406.402C179.592 406.94 181.526 408.382 181.956 408.491C184.324 409.081 188.095 410.84 190.309 410.84C190.362 410.84 191.021 407.173 191.092 406.925C191.345 406.045 191.653 405.206 191.875 404.314C193.172 399.13 191.959 398.312 188.222 394.572Z" fill="#939878"/>
<path fill-rule="evenodd" clip-rule="evenodd" d="M128.402 389.97C128.4 388.978 125.965 392.159 125.791 392.402C123.935 395.001 122.197 399.91 120.308 401.8C119.772 402.338 121.706 403.78 122.136 403.889C124.503 404.479 128.275 406.238 130.489 406.238C130.541 406.238 131.201 402.571 131.272 402.323C131.524 401.443 131.833 400.604 132.055 399.712C133.352 394.528 132.139 393.71 128.402 389.97Z" fill="#939878"/>
<path fill-rule="evenodd" clip-rule="evenodd" d="M218.417 297.865C218.415 296.873 215.98 300.053 215.807 300.296C213.951 302.896 212.213 307.805 210.324 309.694C209.787 310.232 211.722 311.675 212.151 311.783C214.519 312.374 218.29 314.133 220.505 314.133C220.557 314.133 221.217 310.466 221.288 310.217C221.54 309.337 221.848 308.498 222.071 307.607C223.368 302.423 222.155 301.604 218.417 297.865Z" fill="#42535D"/>
<path fill-rule="evenodd" clip-rule="evenodd" d="M236.593 349.723C236.591 348.731 234.156 351.911 233.982 352.154C232.127 354.754 230.389 359.663 228.5 361.552C227.963 362.091 229.897 363.533 230.327 363.642C232.695 364.232 236.466 365.991 238.681 365.991C238.733 365.991 239.393 362.324 239.464 362.076C239.716 361.195 240.024 360.356 240.247 359.465C241.543 354.281 240.331 353.462 236.593 349.723Z" fill="#D88D3A"/>
<path fill-rule="evenodd" clip-rule="evenodd" d="M310.858 329.247C310.856 328.255 308.421 331.436 308.248 331.679C306.392 334.278 304.654 339.187 302.765 341.077C302.228 341.615 304.162 343.058 304.592 343.166C306.96 343.757 310.731 345.515 312.946 345.515C312.998 345.515 313.658 341.849 313.729 341.6C313.981 340.72 314.289 339.881 314.512 338.989C315.809 333.805 314.596 332.987 310.858 329.247Z" fill="#939878"/>
<path fill-rule="evenodd" clip-rule="evenodd" d="M229.785 168.951C229.783 167.958 227.348 171.139 227.174 171.382C225.318 173.981 223.58 178.89 221.691 180.78C221.155 181.318 223.089 182.761 223.519 182.869C225.886 183.46 229.658 185.218 231.872 185.218C231.924 185.218 232.584 181.552 232.655 181.303C232.907 180.423 233.216 179.584 233.438 178.692C234.735 173.508 233.522 172.69 229.785 168.951Z" fill="#939878"/>
<path fill-rule="evenodd" clip-rule="evenodd" d="M430.475 61.4529C430.474 60.4606 428.039 63.6412 427.865 63.8842C426.009 66.4836 424.271 71.3929 422.382 73.2822C421.846 73.8204 423.78 75.2631 424.21 75.3715C426.577 75.962 430.348 77.7205 432.563 77.7205C432.615 77.7205 433.275 74.054 433.346 73.8054C433.598 72.9252 433.907 72.0862 434.129 71.1948C435.426 66.0108 434.213 65.1923 430.475 61.4529Z" fill="#D88D3A"/>
<path fill-rule="evenodd" clip-rule="evenodd" d="M427.804 147.796C427.802 146.804 425.367 149.985 425.193 150.228C423.337 152.827 421.599 157.736 419.71 159.626C419.174 160.164 421.108 161.607 421.538 161.715C423.905 162.306 427.676 164.064 429.891 164.064C429.943 164.064 430.603 160.398 430.674 160.149C430.926 159.269 431.235 158.43 431.457 157.538C432.754 152.354 431.541 151.536 427.804 147.796Z" fill="#939878"/>
<path fill-rule="evenodd" clip-rule="evenodd" d="M460.761 182.819C460.759 181.826 458.324 185.007 458.151 185.25C456.295 187.849 454.557 192.758 452.668 194.648C452.131 195.186 454.065 196.629 454.495 196.737C456.863 197.328 460.634 199.086 462.849 199.086C462.901 199.086 463.561 195.42 463.632 195.171C463.884 194.291 464.192 193.452 464.415 192.56C465.712 187.376 464.499 186.558 460.761 182.819Z" fill="#D88D3A"/>
<path fill-rule="evenodd" clip-rule="evenodd" d="M479.691 120.879C479.689 119.887 477.254 123.068 477.08 123.311C475.224 125.91 473.486 130.819 471.597 132.709C471.061 133.247 472.995 134.689 473.425 134.798C475.792 135.388 479.564 137.147 481.778 137.147C481.83 137.147 482.49 133.48 482.561 133.232C482.813 132.352 483.122 131.513 483.344 130.621C484.641 125.437 483.428 124.619 479.691 120.879Z" fill="#939878"/>
<path fill-rule="evenodd" clip-rule="evenodd" d="M397.304 223.404C397.302 222.412 394.867 225.593 394.694 225.835C392.838 228.435 391.1 233.344 389.211 235.234C388.674 235.772 390.608 237.214 391.038 237.323C393.406 237.913 397.177 239.672 399.392 239.672C399.444 239.672 400.104 236.005 400.175 235.757C400.427 234.877 400.735 234.038 400.958 233.146C402.255 227.962 401.042 227.144 397.304 223.404Z" fill="#939878"/>
<path fill-rule="evenodd" clip-rule="evenodd" d="M397.304 320.686C397.302 319.694 394.867 322.875 394.694 323.118C392.838 325.717 391.1 330.626 389.211 332.516C388.674 333.054 390.608 334.497 391.038 334.605C393.406 335.196 397.177 336.954 399.392 336.954C399.444 336.954 400.104 333.288 400.175 333.039C400.427 332.159 400.735 331.32 400.958 330.428C402.255 325.244 401.042 324.426 397.304 320.686Z" fill="#42535D"/>
<path fill-rule="evenodd" clip-rule="evenodd" d="M338.956 274.698C338.954 273.705 336.519 276.886 336.345 277.129C334.49 279.728 332.752 284.638 330.863 286.527C330.326 287.065 332.26 288.508 332.69 288.616C335.058 289.207 338.829 290.965 341.044 290.965C341.096 290.965 341.756 287.299 341.827 287.05C342.079 286.17 342.387 285.331 342.61 284.44C343.907 279.256 342.694 278.437 338.956 274.698Z" fill="#939878"/>
<path fill-rule="evenodd" clip-rule="evenodd" d="M217.414 211.635C217.412 210.643 214.977 213.824 214.803 214.067C212.947 216.666 211.209 221.575 209.32 223.465C208.784 224.003 210.718 225.446 211.148 225.554C213.515 226.145 217.286 227.903 219.501 227.903C219.553 227.903 220.213 224.237 220.284 223.988C220.536 223.108 220.845 222.269 221.067 221.377C222.364 216.193 221.151 215.375 217.414 211.635Z" fill="#42535D"/>
<path fill-rule="evenodd" clip-rule="evenodd" d="M106.496 259.729C106.494 258.736 104.059 261.917 103.885 262.16C102.03 264.759 100.292 269.669 98.4018 271.558C97.8655 272.096 99.7996 273.539 100.23 273.647C102.598 274.238 106.369 275.996 108.583 275.996C108.636 275.996 109.295 272.33 109.366 272.081C109.619 271.201 109.927 270.362 110.149 269.471C111.446 264.287 110.233 263.468 106.496 259.729Z" fill="#D88D3A"/>
<path fill-rule="evenodd" clip-rule="evenodd" d="M172.307 286.027C172.306 285.034 169.871 288.215 169.697 288.458C167.841 291.057 166.103 295.967 164.214 297.856C163.678 298.394 165.612 299.837 166.041 299.945C168.409 300.536 172.18 302.294 174.395 302.294C174.447 302.294 175.107 298.628 175.178 298.379C175.43 297.499 175.739 296.66 175.961 295.769C177.258 290.585 176.045 289.766 172.307 286.027Z" fill="#42535D"/>
<path fill-rule="evenodd" clip-rule="evenodd" d="M456.093 291.157C456.091 290.164 453.656 293.345 453.482 293.588C451.626 296.187 449.888 301.097 447.999 302.986C447.463 303.524 449.397 304.967 449.827 305.075C452.194 305.666 455.966 307.424 458.18 307.424C458.232 307.424 458.892 303.758 458.963 303.509C459.215 302.629 459.524 301.79 459.746 300.898C461.043 295.714 459.83 294.896 456.093 291.157Z" fill="#42535D"/>
<path fill-rule="evenodd" clip-rule="evenodd" d="M447.535 381.741C447.533 380.749 445.098 383.929 444.924 384.172C443.069 386.772 441.331 391.681 439.441 393.57C438.905 394.108 440.839 395.551 441.269 395.659C443.637 396.25 447.408 398.008 449.622 398.008C449.675 398.008 450.334 394.342 450.405 394.093C450.658 393.213 450.966 392.374 451.188 391.483C452.485 386.299 451.273 385.48 447.535 381.741Z" fill="#D88D3A"/>
<path fill-rule="evenodd" clip-rule="evenodd" d="M397.304 452.329C397.302 451.337 394.867 454.517 394.694 454.76C392.838 457.36 391.1 462.269 389.211 464.158C388.674 464.696 390.608 466.139 391.038 466.247C393.406 466.838 397.177 468.596 399.392 468.596C399.444 468.596 400.104 464.93 400.175 464.681C400.427 463.801 400.735 462.962 400.958 462.071C402.255 456.887 401.042 456.068 397.304 452.329Z" fill="#D88D3A"/>
<path fill-rule="evenodd" clip-rule="evenodd" d="M339.113 442.878C339.111 441.886 336.676 445.066 336.502 445.309C334.646 447.909 332.908 452.818 331.019 454.707C330.483 455.245 332.417 456.688 332.847 456.796C335.214 457.387 338.986 459.145 341.2 459.145C341.252 459.145 341.912 455.479 341.983 455.23C342.235 454.35 342.544 453.511 342.766 452.62C344.063 447.436 342.85 446.617 339.113 442.878Z" fill="#D88D3A"/>
<path fill-rule="evenodd" clip-rule="evenodd" d="M354.729 360.907C354.727 359.914 352.292 363.095 352.118 363.338C350.263 365.937 348.525 370.847 346.636 372.736C346.099 373.274 348.033 374.717 348.463 374.825C350.831 375.416 354.602 377.174 356.817 377.174C356.869 377.174 357.529 373.508 357.6 373.259C357.852 372.379 358.16 371.54 358.383 370.648C359.68 365.464 358.467 364.646 354.729 360.907Z" fill="#939878"/>
<path fill-rule="evenodd" clip-rule="evenodd" d="M302.961 423.366C302.959 422.373 300.524 425.554 300.35 425.797C298.495 428.396 296.757 433.306 294.867 435.195C294.331 435.733 296.265 437.176 296.695 437.284C299.063 437.875 302.834 439.633 305.048 439.633C305.101 439.633 305.76 435.967 305.831 435.718C306.084 434.838 306.392 433.999 306.614 433.108C307.911 427.924 306.699 427.105 302.961 423.366Z" fill="#939878"/>
<path fill-rule="evenodd" clip-rule="evenodd" d="M260.265 365.282C260.264 364.29 257.829 367.47 257.655 367.713C255.799 370.313 254.061 375.222 252.172 377.111C251.635 377.65 253.57 379.092 253.999 379.201C256.367 379.791 260.138 381.55 262.353 381.55C262.405 381.55 263.065 377.883 263.136 377.635C263.388 376.755 263.696 375.915 263.919 375.024C265.216 369.84 264.003 369.022 260.265 365.282Z" fill="#939878"/>
<path fill-rule="evenodd" clip-rule="evenodd" d="M171.514 239.863C171.513 238.871 169.078 242.051 168.904 242.294C167.048 244.894 165.31 249.803 163.421 251.692C162.885 252.231 164.819 253.673 165.248 253.782C167.616 254.372 171.387 256.131 173.602 256.131C173.654 256.131 174.314 252.464 174.385 252.216C174.637 251.335 174.946 250.496 175.168 249.605C176.465 244.421 175.252 243.603 171.514 239.863Z" fill="#939878"/>
<path fill-rule="evenodd" clip-rule="evenodd" d="M384.961 179.971C384.959 178.979 382.524 182.16 382.35 182.403C380.494 185.002 378.756 189.911 376.867 191.801C376.331 192.339 378.265 193.781 378.695 193.89C381.062 194.48 384.833 196.239 387.048 196.239C387.1 196.239 387.76 192.572 387.831 192.324C388.083 191.444 388.392 190.605 388.614 189.713C389.911 184.529 388.698 183.711 384.961 179.971Z" fill="#939878"/>
<path fill-rule="evenodd" clip-rule="evenodd" d="M266.945 140.909C266.943 139.916 264.508 143.097 264.334 143.34C262.478 145.939 260.74 150.849 258.851 152.738C258.315 153.276 260.249 154.719 260.679 154.827C263.047 155.418 266.818 157.176 269.032 157.176C269.084 157.176 269.744 153.51 269.815 153.261C270.067 152.381 270.376 151.542 270.598 150.651C271.895 145.467 270.682 144.648 266.945 140.909Z" fill="#939878"/>
<path fill-rule="evenodd" clip-rule="evenodd" d="M384.961 107.102C384.959 106.11 382.524 109.291 382.35 109.534C380.494 112.133 378.756 117.042 376.867 118.932C376.331 119.47 378.265 120.913 378.695 121.021C381.062 121.612 384.833 123.37 387.048 123.37C387.1 123.37 387.76 119.704 387.831 119.455C388.083 118.575 388.392 117.736 388.614 116.844C389.911 111.66 388.698 110.842 384.961 107.102Z" fill="#939878"/>
<path fill-rule="evenodd" clip-rule="evenodd" d="M79.7533 97.8992C79.7514 96.9069 77.3164 100.088 77.1426 100.331C75.2869 102.93 73.5489 107.84 71.6596 109.729C71.1232 110.267 73.0574 111.71 73.4872 111.818C75.8549 112.409 79.6261 114.167 81.8406 114.167C81.8929 114.167 82.5527 110.501 82.6237 110.252C82.876 109.372 83.1843 108.533 83.4067 107.641C84.7036 102.458 83.4908 101.639 79.7533 97.8992Z" fill="#939878"/>
<path fill-rule="evenodd" clip-rule="evenodd" d="M142.588 272.448C142.587 271.455 140.152 274.636 139.978 274.879C138.122 277.478 136.384 282.388 134.495 284.277C133.959 284.815 135.893 286.258 136.322 286.366C138.69 286.957 142.461 288.715 144.676 288.715C144.728 288.715 145.388 285.049 145.459 284.8C145.711 283.92 146.02 283.081 146.242 282.19C147.539 277.006 146.326 276.187 142.588 272.448Z" fill="#939878"/>
<path fill-rule="evenodd" clip-rule="evenodd" d="M274.422 217.853C274.42 216.86 271.984 220.041 271.81 220.284C269.954 222.883 268.216 227.793 266.327 229.682C265.791 230.22 267.726 231.663 268.156 231.771C270.523 232.362 274.294 234.12 276.508 234.12C276.56 234.12 277.221 230.454 277.292 230.205C277.544 229.325 277.853 228.486 278.075 227.594C279.372 222.411 278.159 221.592 274.422 217.853Z" fill="#939878"/>
<path fill-rule="evenodd" clip-rule="evenodd" d="M249.749 219.59C249.157 220.387 253.011 219.293 253.295 219.202C256.337 218.228 260.665 215.332 263.309 214.947C264.061 214.836 263.373 212.523 263.093 212.179C261.548 210.291 259.576 206.626 257.801 205.302C257.759 205.271 255.038 207.816 254.833 207.973C254.105 208.527 253.356 209.016 252.645 209.597C248.506 212.977 248.989 214.358 249.749 219.59Z" fill="#D88D3A"/>
<path fill-rule="evenodd" clip-rule="evenodd" d="M244.835 84.6341C244.244 85.4307 248.097 84.3368 248.382 84.246C251.423 83.2717 255.751 80.3754 258.395 79.9905C259.147 79.8797 258.459 77.5669 258.179 77.223C256.634 75.3341 254.663 71.6699 252.888 70.346C252.846 70.3147 250.125 72.8594 249.919 73.0162C249.191 73.5709 248.442 74.0592 247.731 74.6408C243.592 78.0209 244.075 79.4021 244.835 84.6341Z" fill="#939878"/>
<path fill-rule="evenodd" clip-rule="evenodd" d="M164.983 41.1087C164.391 41.9053 168.245 40.8114 168.529 40.7206C171.571 39.7463 175.899 36.85 178.543 36.4651C179.295 36.3543 178.607 34.0415 178.327 33.6976C176.782 31.8087 174.811 28.1445 173.036 26.8206C172.994 26.7893 170.273 29.334 170.067 29.4908C169.339 30.0455 168.59 30.5338 167.879 31.1154C163.74 34.4955 164.223 35.8767 164.983 41.1087Z" fill="#D88D3A"/>
<path fill-rule="evenodd" clip-rule="evenodd" d="M56.2724 48.2846C55.6806 49.0812 59.5341 47.9873 59.8186 47.8965C62.8602 46.9222 67.1884 44.0259 69.8324 43.641C70.5841 43.5302 69.8962 41.2174 69.6164 40.8735C68.0715 38.9846 66.0998 35.3204 64.3247 33.9964C64.2827 33.9652 61.5619 36.5099 61.3564 36.6667C60.6279 37.2214 59.8791 37.7097 59.1679 38.2913C55.0291 41.6714 55.5119 43.0526 56.2724 48.2846Z" fill="#42535D"/>
<path fill-rule="evenodd" clip-rule="evenodd" d="M103.929 81.2963C103.337 82.0928 107.19 80.999 107.475 80.9082C110.517 79.9338 114.845 77.0376 117.489 76.6526C118.24 76.5418 117.552 74.229 117.273 73.8852C115.728 71.9963 113.756 68.332 111.981 67.0081C111.939 66.9768 109.218 69.5215 109.013 69.6783C108.284 70.233 107.535 70.7213 106.824 71.3029C102.685 74.683 103.168 76.0643 103.929 81.2963Z" fill="#939878"/>
<path fill-rule="evenodd" clip-rule="evenodd" d="M324.476 88.6752C323.884 89.4718 327.737 88.3779 328.022 88.2871C331.063 87.3128 335.392 84.4165 338.036 84.0315C338.787 83.9208 338.099 81.608 337.82 81.2641C336.275 79.3752 334.303 75.711 332.528 74.387C332.486 74.3558 329.765 76.9005 329.56 77.0572C328.831 77.612 328.082 78.1003 327.371 78.6819C323.232 82.062 323.715 83.4432 324.476 88.6752Z" fill="#D88D3A"/>
<path fill-rule="evenodd" clip-rule="evenodd" d="M318.386 50.3255C317.794 51.1221 321.647 50.0282 321.932 49.9374C324.974 48.9631 329.302 46.0668 331.946 45.6819C332.698 45.5711 332.01 43.2583 331.73 42.9144C330.185 41.0255 328.213 37.3613 326.438 36.0374C326.396 36.0061 323.675 38.5508 323.47 38.7076C322.741 39.2623 321.993 39.7506 321.281 40.3322C317.142 43.7123 317.625 45.0935 318.386 50.3255Z" fill="#939878"/>
<path fill-rule="evenodd" clip-rule="evenodd" d="M440.303 270.111C439.712 270.908 443.565 269.814 443.85 269.723C446.891 268.749 451.22 265.853 453.864 265.468C454.615 265.357 453.927 263.044 453.648 262.7C452.103 260.811 450.131 257.147 448.356 255.823C448.314 255.792 445.593 258.337 445.387 258.493C444.659 259.048 443.91 259.536 443.199 260.118C439.06 263.498 439.543 264.879 440.303 270.111Z" fill="#D88D3A"/>
<path fill-rule="evenodd" clip-rule="evenodd" d="M346.558 209.975C345.966 210.772 349.819 209.678 350.104 209.587C353.145 208.613 357.474 205.717 360.118 205.332C360.869 205.221 360.181 202.908 359.902 202.564C358.357 200.675 356.385 197.011 354.61 195.687C354.568 195.656 351.847 198.201 351.642 198.357C350.913 198.912 350.164 199.4 349.453 199.982C345.314 203.362 345.797 204.743 346.558 209.975Z" fill="#42535D"/>
<path fill-rule="evenodd" clip-rule="evenodd" d="M294.495 290.031C293.904 290.828 297.757 289.734 298.042 289.643C301.083 288.669 305.411 285.772 308.055 285.388C308.807 285.277 308.119 282.964 307.839 282.62C306.294 280.731 304.323 277.067 302.548 275.743C302.506 275.712 299.785 278.256 299.579 278.413C298.851 278.968 298.102 279.456 297.391 280.038C293.252 283.418 293.735 284.799 294.495 290.031Z" fill="#939878"/>
<path fill-rule="evenodd" clip-rule="evenodd" d="M167.565 451.48C166.973 452.277 170.827 451.183 171.112 451.092C174.153 450.118 178.481 447.221 181.125 446.836C181.877 446.726 181.189 444.413 180.909 444.069C179.364 442.18 177.393 438.516 175.618 437.192C175.576 437.161 172.855 439.705 172.649 439.862C171.921 440.417 171.172 440.905 170.461 441.487C166.322 444.867 166.805 446.248 167.565 451.48Z" fill="#939878"/>
<path fill-rule="evenodd" clip-rule="evenodd" d="M94.0888 437.639C93.4971 438.435 97.3505 437.342 97.6351 437.251C100.677 436.276 105.005 433.38 107.649 432.995C108.401 432.884 107.713 430.572 107.433 430.228C105.888 428.339 103.916 424.675 102.141 423.351C102.099 423.319 99.3784 425.864 99.1729 426.021C98.4444 426.576 97.6956 427.064 96.9844 427.646C92.8456 431.026 93.3284 432.407 94.0888 437.639Z" fill="#42535D"/>
<path fill-rule="evenodd" clip-rule="evenodd" d="M69.1513 392.96C68.5595 393.757 72.413 392.663 72.6975 392.572C75.7391 391.598 80.0673 388.702 82.7113 388.317C83.463 388.206 82.7751 385.893 82.4953 385.549C80.9504 383.66 78.9787 379.996 77.2036 378.672C77.1616 378.641 74.4408 381.186 74.2353 381.343C73.5068 381.897 72.758 382.386 72.0468 382.967C67.908 386.347 68.3908 387.728 69.1513 392.96Z" fill="#939878"/>
<path fill-rule="evenodd" clip-rule="evenodd" d="M296.789 2.00862C296.787 1.0163 294.352 4.19693 294.178 4.43987C292.322 7.03931 290.584 11.9486 288.695 13.8379C288.159 14.3761 290.093 15.8188 290.523 15.9272C292.891 16.5177 296.662 18.2762 298.876 18.2762C298.928 18.2762 299.588 14.6097 299.659 14.3611C299.911 13.481 300.22 12.6419 300.442 11.7505C301.739 6.56652 300.526 5.74801 296.789 2.00862Z" fill="#939878"/>
<path fill-rule="evenodd" clip-rule="evenodd" d="M218.343 7.17365C218.341 6.18134 215.906 9.36196 215.733 9.6049C213.877 12.2043 212.139 17.1136 210.25 19.0029C209.713 19.5411 211.648 20.9838 212.077 21.0921C214.445 21.6827 218.216 23.4412 220.431 23.4412C220.483 23.4412 221.143 19.7747 221.214 19.5261C221.466 18.6459 221.774 17.8069 221.997 16.9155C223.294 11.7315 222.081 10.913 218.343 7.17365Z" fill="#D88D3A"/>
<path fill-rule="evenodd" clip-rule="evenodd" d="M88.9615 169.234C88.4401 168.722 88.0962 174.159 87.9617 175.026C87.3898 178.746 87.3113 182.546 86.6573 186.251C86.2555 188.524 85.9191 190.748 85.6126 193.039C85.3903 194.702 82.9777 203.717 84.3082 205.047C88.1766 208.916 94.2631 212.384 98.9257 216.011C101.342 217.89 106.741 224.283 110.411 223.059C114.136 221.818 118.118 213.414 119.549 210.267C121.239 206.55 126.284 199.673 124.769 195.126C123.661 191.802 118.66 189.066 115.894 187.556C111.248 185.022 106.866 181.48 102.581 178.419C99.4415 176.179 94.8499 173.82 92.1384 171.111C91.4357 170.408 89.9332 168.5 89.0063 168.5" fill="#D88D3A"/>
<path fill-rule="evenodd" clip-rule="evenodd" d="M375.899 385.655C375.378 385.143 375.034 390.579 374.9 391.446C374.328 395.167 374.249 398.966 373.595 402.672C373.193 404.944 372.857 407.168 372.551 409.459C372.328 411.122 369.916 420.137 371.246 421.468C375.114 425.336 381.201 428.804 385.864 432.432C388.28 434.31 393.679 440.703 397.349 439.479C401.074 438.238 405.056 429.834 406.487 426.687C408.177 422.97 413.222 416.093 411.707 411.546C410.599 408.222 405.598 405.486 402.832 403.976C398.186 401.442 393.804 397.901 389.519 394.84C386.379 392.599 381.788 390.241 379.076 387.531C378.374 386.828 376.871 384.92 375.944 384.92" fill="#D88D3A"/>
<path fill-rule="evenodd" clip-rule="evenodd" d="M137.71 159.588C136.674 159.847 137.418 167.373 137.299 169.283C137.009 173.93 135.994 178.455 135.994 183.119C135.994 183.414 135.594 187.156 135.994 187.556C137.414 188.976 142.817 188.974 144.869 189.383C146.205 189.65 149.199 191.396 150.613 190.69C151.81 190.09 153.138 186.421 153.746 185.207C155.964 180.768 160.068 170.907 155.833 166.672C153.248 164.088 147.825 162.322 144.348 161.453C143.09 161.137 139.24 160.636 138.605 159.363C138.407 158.967 137.265 159.588 137.71 159.588Z" fill="#939878"/>
<path fill-rule="evenodd" clip-rule="evenodd" d="M141.234 227.222C140.01 223.094 141.857 216.112 143.148 212.24C143.944 209.848 148.605 210.863 149.522 212.24C153.213 217.775 151.116 231.296 151.116 237.743C151.116 240.808 152.576 249.606 148.885 251.451C146.441 252.673 141.619 249.572 139.64 248.582C135.951 246.738 130.573 246.881 129.121 242.525C127.587 237.926 137.488 227.222 141.234 227.222Z" fill="#42535D"/>
<path fill-rule="evenodd" clip-rule="evenodd" d="M72.0576 222.759C70.998 220.646 68.8415 238.033 70.4636 239.655C72.2856 241.479 76.8921 241.217 79.7083 241.568C80.5754 241.677 86.9573 243.247 87.6786 242.525C88.5383 241.666 87.9963 237.917 87.9963 236.469C87.9963 235.734 88.5943 231.008 87.9963 230.41C84.5054 226.919 77.2771 222.759 72.0576 222.759Z" fill="#42535D"/>
<path fill-rule="evenodd" clip-rule="evenodd" d="M169.9 178.29C170.472 175.952 168.304 182.052 168.106 182.596C166.809 186.161 165.338 189.774 163.929 193.3C163.651 193.995 161.205 197.249 161.578 197.998C162.367 199.572 164.406 200.723 165.495 202.175C171.116 209.67 177.674 215.748 185.334 221.492C186.025 222.012 190.888 227.982 191.86 227.497C193.373 226.74 193.955 223.832 194.732 222.537C197.645 217.68 199.71 212.784 202.041 207.656C204.21 202.885 208.249 198.692 209.873 193.822C210.809 191.015 209.222 187.391 208.307 184.947C207.554 182.942 206.997 178.937 205.696 177.636C204.41 176.35 197.3 177.376 195.777 177.376C187.36 177.376 178.078 178.159 170.193 178.159" fill="#42535D"/>
<path fill-rule="evenodd" clip-rule="evenodd" d="M367.776 53.0189C369.363 51.2098 364.622 55.6176 364.195 56.0084C361.398 58.5712 358.424 61.0952 355.545 63.5715C354.977 64.0593 351.304 65.8144 351.289 66.6516C351.262 68.4115 352.538 70.3744 352.833 72.1656C354.355 81.4104 357.362 89.83 361.501 98.464C361.874 99.2442 363.428 106.786 364.514 106.805C366.206 106.833 368.065 104.523 369.353 103.733C374.181 100.772 378.275 97.3838 382.711 93.913C386.839 90.6844 392.358 88.8314 396.049 85.2629C398.176 83.2062 398.443 79.2596 398.761 76.6688C399.019 74.5425 400.376 70.7335 399.824 68.9791C399.277 67.2448 392.497 64.869 391.147 64.1653C383.682 60.2761 375.089 56.6815 368.096 53.0384" fill="#42535D"/>
<path fill-rule="evenodd" clip-rule="evenodd" d="M242.302 298.611C242.874 296.273 240.706 302.373 240.508 302.916C239.211 306.482 237.74 310.094 236.331 313.621C236.053 314.316 233.606 317.569 233.98 318.319C234.769 319.892 236.808 321.043 237.897 322.495C243.518 329.991 250.076 336.068 257.736 341.813C258.427 342.332 263.29 348.303 264.262 347.817C265.775 347.06 266.356 344.152 267.134 342.857C270.047 338.001 272.112 333.104 274.443 327.977C276.612 323.206 280.651 319.012 282.275 314.142C283.211 311.335 281.624 307.712 280.709 305.267C279.955 303.262 279.399 299.257 278.098 297.957C276.812 296.671 269.702 297.697 268.178 297.697C259.762 297.697 250.479 298.48 242.595 298.48" fill="#D88D3A"/>
<path fill-rule="evenodd" clip-rule="evenodd" d="M243.806 104.543C242.799 104.255 239.668 102.233 239.369 101.934C239.087 101.652 236.484 103.773 236.236 104.022C233.068 107.189 228.6 109.086 224.75 111.33C219.26 114.534 214.438 118.69 209.088 122.035C207.43 123.07 204.022 124.741 204.65 127.254C205.41 130.293 208.565 132.539 210.916 134.303C218.006 139.62 226.682 142.051 233.887 147.095C236.723 149.08 239.689 150.702 242.502 152.576C244.036 153.598 247.723 154.404 247.723 154.404C247.723 154.404 248.085 150.924 248.244 149.182C248.558 145.734 248.506 142.214 248.506 138.742C248.506 134.778 248.749 130.56 247.983 126.733C247.755 125.585 246.557 122.919 246.94 121.773C248.113 118.252 248.76 114.511 249.289 110.809C249.369 110.252 250.423 107.245 249.81 106.632C248.736 105.556 245.387 104.995 243.806 104.543Z" fill="#D88D3A"/>
<path fill-rule="evenodd" clip-rule="evenodd" d="M294.207 37.5564C294.114 36.513 294.875 32.8652 295.047 32.4787C295.209 32.1139 292.294 30.4473 291.973 30.3047C287.878 28.4876 284.502 25 281.024 22.2145C276.061 18.2426 270.449 15.2376 265.404 11.4475C263.842 10.2729 261.058 7.69274 258.938 9.18224C256.376 10.9843 255.414 14.7354 254.613 17.5633C252.201 26.0907 253.051 35.0614 250.934 43.597C250.102 46.9576 249.655 50.3082 248.917 53.6065C248.514 55.4057 249.088 59.1358 249.088 59.1358C249.088 59.1358 252.466 58.2232 254.148 57.7453C257.478 56.7988 260.745 55.4843 263.985 54.2361C267.684 52.8112 271.707 51.5217 275.003 49.4308C275.991 48.8056 278.049 46.7292 279.256 46.6748C282.963 46.5043 286.687 45.7627 290.331 44.9254C290.88 44.8001 294.065 44.7027 294.416 43.9104C295.035 42.5208 294.354 39.1943 294.207 37.5564Z" fill="#D88D3A"/>
<path fill-rule="evenodd" clip-rule="evenodd" d="M202.298 74.0026C202.468 71.3284 200.205 77.4879 199.426 78.4409C196.529 81.9804 193.509 85.3647 191.334 89.4031C190.039 91.8082 188.981 94.2955 187.679 96.7137C186.797 98.3526 185.724 99.8102 184.808 101.411C180.622 108.737 191.274 111.271 195.511 115.507C196.049 116.046 197.626 114.397 197.86 114.203C200.076 112.355 202.287 110.176 204.647 108.46C208.484 105.67 211.629 102.114 215.35 99.3244C216.871 98.1826 221.305 96.8127 222.137 95.1477C223.079 93.264 218.741 89.532 217.7 88.6201C212.358 83.9463 207.009 78.7138 202.298 74.0026Z" fill="#939878"/>
<path fill-rule="evenodd" clip-rule="evenodd" d="M278.662 383.303C278.832 380.629 276.569 386.788 275.79 387.742C272.893 391.281 269.873 394.665 267.698 398.704C266.403 401.109 265.345 403.596 264.042 406.014C263.16 407.653 262.088 409.111 261.172 410.712C256.986 418.038 267.638 420.572 271.874 424.808C272.413 425.347 273.99 423.698 274.223 423.504C276.44 421.656 278.651 419.477 281.011 417.761C284.847 414.971 287.993 411.415 291.713 408.625C293.234 407.483 297.669 406.113 298.501 404.448C299.442 402.565 295.105 398.833 294.064 397.921C288.721 393.247 283.373 388.014 278.662 383.303Z" fill="#939878"/>
<path fill-rule="evenodd" clip-rule="evenodd" d="M289.555 261.557C292.138 260.841 285.577 260.722 284.421 260.298C280.127 258.722 275.94 256.978 271.412 256.247C268.715 255.811 266.019 255.627 263.307 255.189C261.47 254.893 259.741 254.358 257.928 254.018C249.635 252.464 250.732 263.358 248.118 268.749C247.786 269.434 249.86 270.384 250.121 270.541C252.593 272.029 255.376 273.403 257.771 275.071C261.664 277.781 266.055 279.587 269.91 282.187C271.488 283.25 274.235 286.991 276.081 287.231C278.169 287.503 280.273 282.182 280.794 280.9C283.458 274.32 286.649 267.552 289.555 261.557Z" fill="#939878"/>
<path fill-rule="evenodd" clip-rule="evenodd" d="M46.8792 249.715C49.348 248.673 42.8261 249.398 41.6254 249.126C37.1651 248.115 32.7885 246.923 28.2037 246.78C25.4735 246.695 22.7756 246.859 20.0302 246.773C18.1699 246.716 16.3867 246.407 14.5449 246.302C6.12105 245.827 8.60936 256.49 6.71002 262.172C6.46873 262.894 8.64777 263.57 8.92597 263.692C11.5693 264.85 14.506 265.855 17.0949 267.201C21.3043 269.389 25.8907 270.615 30.0484 272.699C31.7492 273.55 34.9548 276.906 36.816 276.907C38.9221 276.909 40.3249 271.362 40.6762 270.023C42.4729 263.156 44.767 256.034 46.8792 249.715Z" fill="#D88D3A"/>
<path fill-rule="evenodd" clip-rule="evenodd" d="M104.314 93.8504C104.247 93.742 96.364 104.902 97.8814 107.937C100.582 113.336 107.754 115.982 111.98 120.207C112.707 120.936 120.524 127.847 121.116 127.254C122.405 125.965 122.691 122.439 123.203 120.729C124.67 115.84 125.767 110.949 127.38 106.111C128.085 103.998 129.337 101.604 128.163 99.8454C125.646 96.0705 116.134 95.1417 112.239 94.3643C111.015 94.1195 102.552 93.8504 104.314 93.8504Z" fill="#D88D3A"/>
<path fill-rule="evenodd" clip-rule="evenodd" d="M137.822 113.158C137.347 112.803 139.509 117.174 139.388 118.641C139.199 120.913 136.646 129.734 138.605 131.692C140.42 133.507 151.937 131.674 153.484 130.126C153.79 129.82 152.991 127.024 152.963 126.733C152.561 122.718 152.703 115.249 149.829 112.375C147.607 110.153 137.087 113.524 137.822 113.158Z" fill="#939878"/>
<path fill-rule="evenodd" clip-rule="evenodd" d="M302.951 153.467C302.476 153.112 304.638 157.483 304.517 158.95C304.328 161.222 301.775 170.043 303.734 172.001C305.548 173.816 317.066 171.983 318.613 170.435C318.919 170.129 318.12 167.333 318.091 167.042C317.69 163.027 317.832 155.558 314.958 152.684C312.736 150.462 302.216 153.833 302.951 153.467Z" fill="#42535D"/>
<path fill-rule="evenodd" clip-rule="evenodd" d="M69.2214 175.732C63.7273 172.557 62.9349 177.348 62.378 181.813C62.2696 182.671 60.9596 186.195 61.595 186.513C63.105 187.268 70.5707 188.761 71.776 187.556C72.4301 186.902 72.4002 183.803 72.5591 182.858C73.1907 179.06 73.6672 175.732 69.2214 175.732Z" fill="#939878"/>
<path fill-rule="evenodd" clip-rule="evenodd" d="M44.7136 146.252C44.2856 145.206 44.2015 148.936 44.1099 149.444C43.781 151.243 42.1384 156.207 43.0653 158.059C43.6633 159.255 47.526 158.453 48.5464 158.58C49.3948 158.687 53.0239 159.847 53.7677 159.102C54.7208 158.149 54.3321 155.198 54.5507 153.882C55.7243 146.839 51.4822 146.252 44.7136 146.252Z" fill="#939878"/>
<path fill-rule="evenodd" clip-rule="evenodd" d="M185.784 145.463C185.356 144.417 185.272 148.147 185.18 148.655C184.851 150.455 183.209 155.418 184.136 157.27C184.734 158.466 188.596 157.665 189.617 157.792C190.465 157.898 194.094 159.059 194.838 158.313C195.791 157.36 195.402 154.409 195.621 153.094C196.795 146.05 192.553 145.463 185.784 145.463Z" fill="#939878"/>
<path fill-rule="evenodd" clip-rule="evenodd" d="M159.467 88.3307C159.039 87.2842 158.955 91.0143 158.864 91.5226C158.535 93.3222 156.892 98.2856 157.819 100.138C158.417 101.334 162.28 100.532 163.3 100.659C164.149 100.766 167.778 101.926 168.521 101.181C169.474 100.228 169.086 97.2765 169.304 95.9609C170.478 88.9175 166.236 88.3307 159.467 88.3307Z" fill="#939878"/>
<path fill-rule="evenodd" clip-rule="evenodd" d="M280.502 168.684C280.074 167.638 279.99 171.368 279.898 171.876C279.569 173.676 277.927 178.639 278.854 180.491C279.452 181.687 283.314 180.885 284.335 181.012C285.183 181.119 288.812 182.28 289.556 181.534C290.509 180.581 290.12 177.63 290.339 176.314C291.513 169.271 287.27 168.684 280.502 168.684Z" fill="#D88D3A"/>
<path fill-rule="evenodd" clip-rule="evenodd" d="M300.752 204.563C300.324 203.517 300.24 207.247 300.148 207.755C299.819 209.555 298.177 214.518 299.104 216.37C299.702 217.566 303.564 216.765 304.585 216.892C305.433 216.998 309.062 218.159 309.806 217.413C310.759 216.46 310.37 213.509 310.589 212.194C311.763 205.15 307.52 204.563 300.752 204.563Z" fill="#939878"/>
<path fill-rule="evenodd" clip-rule="evenodd" d="M338.87 162.522C338.442 161.476 338.358 165.206 338.266 165.714C337.938 167.514 336.295 172.477 337.222 174.329C337.82 175.525 341.683 174.723 342.703 174.851C343.551 174.957 347.18 176.118 347.924 175.372C348.877 174.419 348.489 171.468 348.707 170.152C349.881 163.109 345.639 162.522 338.87 162.522Z" fill="#939878"/>
<path fill-rule="evenodd" clip-rule="evenodd" d="M278.569 79.1491C278.141 78.1026 278.057 81.8327 277.966 82.341C277.637 84.1406 275.994 89.104 276.921 90.956C277.519 92.152 281.382 91.3503 282.402 91.4773C283.25 91.5839 286.88 92.7444 287.623 91.9987C288.576 91.0456 288.188 88.0949 288.406 86.7793C289.58 79.7359 285.338 79.1491 278.569 79.1491Z" fill="#939878"/>
<path fill-rule="evenodd" clip-rule="evenodd" d="M224.545 41.5446C224.117 40.4981 224.033 44.2281 223.941 44.7364C223.612 46.536 221.97 51.4995 222.897 53.3514C223.495 54.5474 227.357 53.7457 228.378 53.8728C229.226 53.9793 232.855 55.1398 233.599 54.3942C234.552 53.4411 234.163 50.4903 234.382 49.1747C235.556 42.1314 231.314 41.5446 224.545 41.5446Z" fill="#939878"/>
<path fill-rule="evenodd" clip-rule="evenodd" d="M131.765 28.3434C131.337 27.2969 131.253 31.0269 131.161 31.5352C130.832 33.3348 129.19 38.2983 130.116 40.1502C130.714 41.3462 134.577 40.5445 135.598 40.6716C136.446 40.7781 140.075 41.9386 140.819 41.193C141.772 40.2399 141.383 37.2891 141.602 35.9735C142.775 28.9302 138.533 28.3434 131.765 28.3434Z" fill="#939878"/>
<path fill-rule="evenodd" clip-rule="evenodd" d="M61.5378 265.057C61.1098 264.011 61.0257 267.741 60.9342 268.249C60.6052 270.049 58.9626 275.012 59.8895 276.864C60.4875 278.06 64.3503 277.258 65.3706 277.385C66.219 277.492 69.8482 278.652 70.5919 277.907C71.545 276.954 71.1563 274.003 71.3749 272.687C72.5485 265.644 68.3064 265.057 61.5378 265.057Z" fill="#939878"/>
<path fill-rule="evenodd" clip-rule="evenodd" d="M124.592 327.321C124.164 326.274 124.08 330.004 123.988 330.512C123.659 332.312 122.017 337.276 122.944 339.127C123.542 340.323 127.404 339.522 128.425 339.649C129.273 339.755 132.902 340.916 133.646 340.17C134.599 339.217 134.21 336.266 134.429 334.951C135.603 327.907 131.361 327.321 124.592 327.321Z" fill="#42535D"/>
<path fill-rule="evenodd" clip-rule="evenodd" d="M63.3502 349.716C62.9223 348.67 62.8382 352.4 62.7466 352.908C62.4177 354.708 60.7751 359.671 61.702 361.523C62.3 362.719 66.1627 361.917 67.183 362.044C68.0315 362.151 71.6606 363.311 72.4044 362.566C73.3574 361.613 72.9687 358.662 73.1874 357.346C74.361 350.303 70.1189 349.716 63.3502 349.716Z" fill="#D88D3A"/>
<path fill-rule="evenodd" clip-rule="evenodd" d="M125.428 453.91C125 452.864 124.916 456.594 124.825 457.102C124.496 458.902 122.853 463.865 123.78 465.717C124.378 466.913 128.241 466.111 129.261 466.239C130.11 466.345 133.739 467.506 134.482 466.76C135.436 465.807 135.047 462.856 135.266 461.54C136.439 454.497 132.197 453.91 125.428 453.91Z" fill="#D88D3A"/>
<path fill-rule="evenodd" clip-rule="evenodd" d="M35.4322 484.299C35.0043 483.253 34.9202 486.983 34.8286 487.491C34.4997 489.291 32.8571 494.254 33.784 496.106C34.382 497.302 38.2447 496.501 39.265 496.628C40.1135 496.734 43.7426 497.895 44.4864 497.149C45.4394 496.196 45.0507 493.245 45.2694 491.93C46.443 484.886 42.2009 484.299 35.4322 484.299Z" fill="#D88D3A"/>
<path fill-rule="evenodd" clip-rule="evenodd" d="M175.917 462.238C175.489 461.192 175.405 464.922 175.313 465.43C174.984 467.23 173.342 472.193 174.269 474.045C174.867 475.241 178.729 474.439 179.75 474.566C180.598 474.673 184.227 475.833 184.971 475.088C185.924 474.135 185.535 471.184 185.754 469.868C186.928 462.825 182.686 462.238 175.917 462.238Z" fill="#42535D"/>
<path fill-rule="evenodd" clip-rule="evenodd" d="M239.967 453.91C239.539 452.864 239.455 456.594 239.364 457.102C239.035 458.902 237.392 463.865 238.319 465.717C238.917 466.913 242.78 466.111 243.8 466.238C244.648 466.345 248.278 467.505 249.021 466.76C249.974 465.807 249.586 462.856 249.804 461.54C250.978 454.497 246.736 453.91 239.967 453.91Z" fill="#939878"/>
<path fill-rule="evenodd" clip-rule="evenodd" d="M360.815 477.658C360.387 476.612 360.303 480.342 360.212 480.85C359.883 482.65 358.24 487.613 359.167 489.465C359.765 490.661 363.628 489.859 364.648 489.986C365.497 490.093 369.126 491.254 369.869 490.508C370.823 489.555 370.434 486.604 370.652 485.288C371.826 478.245 367.584 477.658 360.815 477.658Z" fill="#939878"/>
<path fill-rule="evenodd" clip-rule="evenodd" d="M435.487 429.589C435.059 428.542 434.975 432.272 434.883 432.781C434.554 434.58 432.912 439.544 433.838 441.396C434.436 442.592 438.299 441.79 439.32 441.917C440.168 442.023 443.797 443.184 444.541 442.438C445.494 441.485 445.105 438.534 445.324 437.219C446.497 430.175 442.255 429.589 435.487 429.589Z" fill="#42535D"/>
<path fill-rule="evenodd" clip-rule="evenodd" d="M462.178 329.241C461.75 328.194 461.666 331.924 461.574 332.432C461.245 334.232 459.603 339.195 460.53 341.047C461.128 342.243 464.99 341.442 466.011 341.569C466.859 341.675 470.488 342.836 471.232 342.09C472.185 341.137 471.796 338.186 472.015 336.871C473.189 329.827 468.947 329.241 462.178 329.241Z" fill="#939878"/>
<path fill-rule="evenodd" clip-rule="evenodd" d="M436.562 320.68C436.134 319.633 436.05 323.363 435.958 323.871C435.629 325.671 433.987 330.634 434.913 332.486C435.511 333.682 439.374 332.881 440.395 333.008C441.243 333.114 444.872 334.275 445.616 333.529C446.569 332.576 446.18 329.625 446.399 328.31C447.572 321.266 443.33 320.68 436.562 320.68Z" fill="#D88D3A"/>
<path fill-rule="evenodd" clip-rule="evenodd" d="M387.506 369.227C387.078 368.181 386.994 371.911 386.902 372.419C386.573 374.219 384.931 379.182 385.858 381.034C386.456 382.23 390.318 381.429 391.339 381.556C392.187 381.662 395.816 382.823 396.56 382.077C397.513 381.124 397.124 378.173 397.343 376.858C398.517 369.814 394.274 369.227 387.506 369.227Z" fill="#42535D"/>
<path fill-rule="evenodd" clip-rule="evenodd" d="M442.542 214.427C442.114 213.38 442.03 217.11 441.938 217.619C441.609 219.418 439.966 224.382 440.893 226.234C441.491 227.43 445.354 226.628 446.374 226.755C447.223 226.861 450.852 228.022 451.596 227.276C452.549 226.323 452.16 223.372 452.379 222.057C453.552 215.013 449.31 214.427 442.542 214.427Z" fill="#939878"/>
<path fill-rule="evenodd" clip-rule="evenodd" d="M228.006 254.771C227.578 253.724 227.494 257.454 227.402 257.963C227.074 259.762 225.431 264.726 226.358 266.578C226.956 267.774 230.819 266.972 231.839 267.099C232.687 267.206 236.316 268.366 237.06 267.62C238.013 266.667 237.625 263.717 237.843 262.401C239.017 255.358 234.775 254.771 228.006 254.771Z" fill="#939878"/>
<path fill-rule="evenodd" clip-rule="evenodd" d="M113.651 141.84C112.238 138.93 110.283 143.329 108.585 144.744C104.015 148.553 106.249 154.372 111.195 156.491C112.559 157.076 114.71 157.014 116.155 157.014C118.087 157.014 120.741 157.229 122.419 155.97C125.633 153.559 123.667 147.037 121.374 144.744C119.216 142.586 116.499 141.84 113.651 141.84Z" fill="#42535D"/>
<path fill-rule="evenodd" clip-rule="evenodd" d="M22.7128 402.84C21.3 399.93 19.3453 404.329 17.6466 405.744C13.0775 409.552 15.3106 415.372 20.2572 417.491C21.6214 418.076 23.7724 418.014 25.2169 418.014C27.1492 418.014 29.8029 418.229 31.481 416.97C34.6953 414.559 32.7294 408.037 30.4364 405.744C28.278 403.586 25.5608 402.84 22.7128 402.84Z" fill="#939878"/>
<path fill-rule="evenodd" clip-rule="evenodd" d="M80.9178 138.742C77.6961 131.254 67.958 149.532 77.0009 151.793C83.5378 153.428 90.0841 138.742 80.9178 138.742Z" fill="#42535D"/>
<path fill-rule="evenodd" clip-rule="evenodd" d="M44.2382 371.742C41.0165 364.254 31.2784 382.532 40.3213 384.793C46.8582 386.428 53.4045 371.742 44.2382 371.742Z" fill="#42535D"/>
<path fill-rule="evenodd" clip-rule="evenodd" d="M34.9569 329.16C31.7352 321.672 21.9971 339.95 31.04 342.212C37.5769 343.847 44.1232 329.16 34.9569 329.16Z" fill="#939878"/>
<path fill-rule="evenodd" clip-rule="evenodd" d="M200.047 261.328C196.825 253.84 187.087 272.118 196.13 274.379C202.667 276.015 209.213 261.328 200.047 261.328Z" fill="#D88D3A"/>
<path fill-rule="evenodd" clip-rule="evenodd" d="M280.992 116.335C277.77 108.847 268.032 127.125 277.075 129.386C283.612 131.022 290.158 116.335 280.992 116.335Z" fill="#42535D"/>
<path fill-rule="evenodd" clip-rule="evenodd" d="M150.855 52.8832C147.634 45.395 137.896 63.6734 146.939 65.9346C153.475 67.5698 160.022 52.8832 150.855 52.8832Z" fill="#42535D"/>
<path fill-rule="evenodd" clip-rule="evenodd" d="M198.539 40.308C195.317 32.8199 185.579 51.0982 194.622 53.3594C201.159 54.9946 207.705 40.308 198.539 40.308Z" fill="#939878"/>
<path fill-rule="evenodd" clip-rule="evenodd" d="M306.559 60.3676C303.337 52.8795 293.599 71.1579 302.642 73.4191C309.179 75.0542 315.725 60.3676 306.559 60.3676Z" fill="#42535D"/>
<path fill-rule="evenodd" clip-rule="evenodd" d="M407.461 29.8676C404.239 22.3795 394.501 40.6578 403.544 42.919C410.081 44.5542 416.627 29.8676 407.461 29.8676Z" fill="#42535D"/>
<path fill-rule="evenodd" clip-rule="evenodd" d="M487.024 32.9779C483.802 25.4898 474.063 43.7681 483.106 46.0293C489.643 47.6645 496.19 32.9779 487.024 32.9779Z" fill="#D88D3A"/>
<path fill-rule="evenodd" clip-rule="evenodd" d="M473.515 69.1234C470.294 61.6353 460.555 79.9137 469.598 82.1749C476.135 83.81 482.682 69.1234 473.515 69.1234Z" fill="#42535D"/>
<path fill-rule="evenodd" clip-rule="evenodd" d="M493.12 58.2329C489.899 50.7447 480.161 69.0231 489.204 71.2843C495.74 72.9195 502.287 58.2329 493.12 58.2329Z" fill="#939878"/>
<path fill-rule="evenodd" clip-rule="evenodd" d="M467.684 151.334C464.462 143.846 454.724 162.124 463.767 164.386C470.304 166.021 476.85 151.334 467.684 151.334Z" fill="#D88D3A"/>
<path fill-rule="evenodd" clip-rule="evenodd" d="M387.035 142.656C383.813 135.168 374.075 153.446 383.118 155.707C389.655 157.343 396.201 142.656 387.035 142.656Z" fill="#42535D"/>
<path fill-rule="evenodd" clip-rule="evenodd" d="M479.613 229.536C476.391 222.047 466.653 240.326 475.696 242.587C482.233 244.222 488.779 229.536 479.613 229.536Z" fill="#42535D"/>
<path fill-rule="evenodd" clip-rule="evenodd" d="M407.461 276.949C404.239 269.461 394.501 287.74 403.544 290.001C410.081 291.636 416.627 276.949 407.461 276.949Z" fill="#D88D3A"/>
<path fill-rule="evenodd" clip-rule="evenodd" d="M431.883 349.636C428.661 342.148 418.923 360.426 427.966 362.687C434.503 364.322 441.049 349.636 431.883 349.636Z" fill="#939878"/>
<path fill-rule="evenodd" clip-rule="evenodd" d="M316.512 371.742C313.29 364.254 303.552 382.532 312.595 384.793C319.132 386.428 325.678 371.742 316.512 371.742Z" fill="#D88D3A"/>
<path fill-rule="evenodd" clip-rule="evenodd" d="M338.594 411.737C335.372 404.249 325.634 422.528 334.677 424.789C341.214 426.424 347.76 411.737 338.594 411.737Z" fill="#42535D"/>
<path fill-rule="evenodd" clip-rule="evenodd" d="M217.746 419.222C214.524 411.734 204.786 430.012 213.829 432.273C220.366 433.908 226.912 419.222 217.746 419.222Z" fill="#D88D3A"/>
<path fill-rule="evenodd" clip-rule="evenodd" d="M224.07 396.172C220.848 388.683 211.11 406.962 220.153 409.223C226.69 410.858 233.236 396.172 224.07 396.172Z" fill="#D88D3A"/>
<path fill-rule="evenodd" clip-rule="evenodd" d="M284.078 455.517C280.856 448.028 271.118 466.307 280.161 468.568C286.698 470.203 293.244 455.517 284.078 455.517Z" fill="#42535D"/>
<path fill-rule="evenodd" clip-rule="evenodd" d="M143.484 426.706C140.263 419.218 130.524 437.497 139.567 439.758C146.104 441.393 152.651 426.706 143.484 426.706Z" fill="#42535D"/>
<path fill-rule="evenodd" clip-rule="evenodd" d="M111.894 362.506C108.673 355.018 98.9344 373.296 107.978 375.557C114.514 377.192 121.061 362.506 111.894 362.506Z" fill="#42535D"/>
<path fill-rule="evenodd" clip-rule="evenodd" d="M58.1953 69.1234C54.9735 61.6353 45.2354 79.9137 54.2784 82.1749C60.8153 83.81 67.3616 69.1234 58.1953 69.1234Z" fill="#D88D3A"/>
<path fill-rule="evenodd" clip-rule="evenodd" d="M12.1211 448.032C8.89926 440.544 -0.838849 458.822 8.20409 461.083C14.7411 462.719 21.2873 448.032 12.1211 448.032Z" fill="#42535D"/>
<path fill-rule="evenodd" clip-rule="evenodd" d="M62.7188 296.046C63.4008 300.82 68.4651 303.588 69.506 305.965C72.1316 311.969 74.5499 323.105 80.4683 326.065C86.0746 328.869 97.0254 325.282 103.179 325.282C104.782 325.282 109.355 325.462 110.228 323.716C110.628 322.917 109.602 320.584 109.445 319.801C108.696 316.058 107.634 312.345 107.096 308.576C106.56 304.831 107.288 292.878 103.179 290.824C100.501 289.484 95.3136 290.419 92.4769 290.824C82.7032 292.22 72.3989 296.046 62.7188 296.046Z" fill="#D88D3A"/>
<path fill-rule="evenodd" clip-rule="evenodd" d="M333.567 227.529C330.894 231.274 331.147 231.903 330.791 233.238C329.489 238.124 324.72 249.223 327.659 254.123C333.26 263.457 348.053 256.887 356.113 258.038C359.834 258.569 363.299 259.342 367.077 259.342C369.436 259.342 376.916 260.206 378.824 258.3C380.114 257.008 378.301 249.139 378.301 247.336C378.301 245.018 379.123 240.625 378.041 238.459C376.449 235.276 370.626 234.72 367.599 234.022C363.969 233.183 360.189 231.722 356.635 230.629C350.746 228.816 344.703 227.385 338.883 225.929C337.562 225.598 334.656 227.529 333.567 227.529Z" fill="#D88D3A"/>
<path fill-rule="evenodd" clip-rule="evenodd" d="M2.18103 41.3137C0.41318 41.0259 6.92956 39.6935 8.12557 39.2954C11.8575 38.0527 19.4148 34.0367 23.7036 36.1802C26.3236 37.4902 32.7035 68.3061 31.1805 69.8291C29.6593 71.3522 22.0927 70.4533 19.9642 70.4533C18.4243 70.4533 7.90318 72.1016 6.8791 71.0756C4.61603 68.8144 2.18103 44.3149 2.18103 41.3137Z" fill="#939878"/>
<path fill-rule="evenodd" clip-rule="evenodd" d="M404.326 185.775C402.558 185.487 409.075 184.155 410.271 183.757C414.003 182.514 421.56 178.498 425.849 180.642C428.469 181.952 434.849 212.768 433.325 214.291C431.804 215.814 424.238 214.915 422.109 214.915C420.569 214.915 410.048 216.563 409.024 215.537C406.761 213.276 404.326 188.776 404.326 185.775Z" fill="#42535D"/>
<path fill-rule="evenodd" clip-rule="evenodd" d="M21.4775 104.183C7.78131 131.584 45.8219 142.425 62.3343 125.913C63.1995 125.046 62.3343 119.026 62.3343 117.812C62.3343 104.786 53.9117 103.48 41.7704 103.48C35.5343 103.48 27.8873 104.183 21.4775 104.183Z" fill="#42535D"/>
<path fill-rule="evenodd" clip-rule="evenodd" d="M311.763 107.614C298.066 135.016 336.107 145.856 352.619 129.344C353.485 128.477 352.619 122.457 352.619 121.243C352.619 108.218 344.197 106.911 332.055 106.911C325.819 106.911 318.172 107.614 311.763 107.614Z" fill="#939878"/>
<path fill-rule="evenodd" clip-rule="evenodd" d="M410.872 96.4259C408.2 100.171 408.452 100.801 408.097 102.135C406.794 107.022 402.025 118.12 404.965 123.02C410.566 132.355 425.359 125.784 433.419 126.935C437.139 127.466 440.604 128.24 444.383 128.24C446.741 128.24 454.222 129.103 456.13 127.197C457.419 125.906 455.606 118.036 455.606 116.233C455.606 113.916 456.429 109.522 455.347 107.356C453.754 104.174 447.931 103.617 444.904 102.92C441.275 102.081 437.494 100.619 433.94 99.5261C428.052 97.7134 422.008 96.282 416.189 94.8262C414.867 94.4954 411.961 96.4259 410.872 96.4259Z" fill="#D88D3A"/>
<path fill-rule="evenodd" clip-rule="evenodd" d="M273.671 482.878C273.914 481.916 270.771 484.399 270.542 484.592C268.104 486.654 265.211 490.985 262.914 492.35C262.262 492.74 263.781 494.615 264.171 494.825C266.321 495.981 269.543 498.614 271.689 499.159C271.74 499.172 273.282 495.781 273.412 495.557C273.873 494.766 274.379 494.029 274.814 493.22C277.347 488.515 276.373 487.423 273.671 482.878Z" fill="#939878"/>
<path fill-rule="evenodd" clip-rule="evenodd" d="M221.953 478.187C218.731 470.699 208.993 488.977 218.036 491.239C224.573 492.874 231.119 478.187 221.953 478.187Z" fill="#939878"/>
<path fill-rule="evenodd" clip-rule="evenodd" d="M146.789 313.662C151.702 310.694 158.185 311.252 163.689 310.389C194.439 305.571 193.574 315.659 203.351 340.564C205.561 346.197 210.356 356.521 209.531 361.431C209.02 364.473 197.002 369.533 194.643 370.46C185.994 373.854 154.743 388.66 147.523 387.447C147.156 387.386 146.846 371.978 146.647 370.7C145.356 362.467 145.585 320.832 146.789 313.662Z" fill="#939878"/>
<path fill-rule="evenodd" clip-rule="evenodd" d="M366.518 296.567C365.51 296.28 362.38 294.258 362.081 293.959C361.799 293.676 359.196 295.797 358.947 296.046C355.78 299.214 351.312 301.11 347.462 303.355C341.971 306.558 337.15 310.714 331.8 314.059C330.142 315.094 326.734 316.765 327.361 319.278C328.122 322.317 331.277 324.563 333.627 326.327C340.718 331.644 349.394 334.075 356.598 339.119C359.435 341.104 362.401 342.726 365.213 344.6C366.748 345.622 370.435 346.428 370.435 346.428C370.435 346.428 370.797 342.948 370.956 341.206C371.27 337.759 371.218 334.238 371.218 330.766C371.218 326.802 371.461 322.584 370.694 318.757C370.466 317.61 369.269 314.943 369.652 313.797C370.825 310.277 371.472 306.535 372.001 302.833C372.081 302.276 373.135 299.27 372.522 298.657C371.447 297.58 368.099 297.02 366.518 296.567Z" fill="#42535D"/>
<path fill-rule="evenodd" clip-rule="evenodd" d="M62.166 417.567C61.1587 417.28 58.0286 415.258 57.7295 414.959C57.4474 414.676 54.8442 416.797 54.5956 417.046C51.4281 420.214 46.9599 422.11 43.1102 424.355C37.6198 427.558 32.7984 431.714 27.4481 435.059C25.7905 436.094 22.3819 437.765 23.0098 440.278C23.7704 443.317 26.9249 445.563 29.2758 447.327C36.3659 452.644 45.0425 455.075 52.2466 460.119C55.0834 462.104 58.0491 463.726 60.8616 465.6C62.3959 466.622 66.0829 467.428 66.0829 467.428C66.0829 467.428 66.4455 463.948 66.6043 462.206C66.9183 458.759 66.8659 455.238 66.8659 451.766C66.8659 447.802 67.1089 443.584 66.3427 439.757C66.1147 438.61 64.9168 435.943 65.2999 434.797C66.4735 431.277 67.1201 427.535 67.6489 423.833C67.7293 423.276 68.7833 420.27 68.1703 419.657C67.0958 418.58 63.747 418.02 62.166 417.567Z" fill="#939878"/>
<path d="M0 121.06V80.2549C0.32085 81.0505 1.99001 82.134 3.90788 83.3791C6.57461 85.1102 9.72219 87.1536 10.3946 89.1687C10.5226 89.5526 10.6509 89.9363 10.7791 90.3196C15.0999 103.24 19.2959 115.787 7.27936 127.804C5.20931 129.874 1.77474 124.069 0 121.06Z" fill="#42535D"/>
<path d="M24.1027 0H0V16.8075C0.47081 17.2896 0.934887 17.7589 1.3895 18.2135C3.69743 20.5214 5.90257 23.2311 7.13222 26.3052C7.15825 26.3699 7.20644 26.5594 7.27156 26.8154C7.51492 27.7721 7.99473 29.6584 8.43849 29.4373C10.0426 28.6346 11.7694 26.7823 13.3664 25.0693C14.2084 24.166 15.0143 23.3015 15.7472 22.6499C16.5027 21.9786 17.5972 21.1229 18.8056 20.178C21.7853 17.8485 25.4578 14.9772 26.4496 12.9922C26.8328 12.2271 26.4094 11.0545 26.0463 10.0487C25.8781 9.58282 25.7228 9.1527 25.6666 8.81547C25.4256 7.37034 25.1605 5.92105 24.8949 4.46868C24.6231 2.98195 24.3506 1.49199 24.1027 0Z" fill="#D88D3A"/>
<path d="M249.893 0H232.062C232.445 2.47097 234.351 4.77661 237.089 5.94926C238.338 6.4849 240.247 6.47831 241.669 6.4734C241.8 6.47295 241.927 6.47251 242.048 6.47251C242.286 6.47251 242.536 6.47577 242.792 6.47914C244.62 6.50309 246.842 6.53219 248.312 5.42787C249.865 4.26401 250.21 2.14187 249.893 0Z" fill="#42535D"/>
<path d="M177.905 0H145.088C144.792 3.22497 144.479 6.44794 144.052 9.65478C144.03 9.8186 143.976 10.1254 143.905 10.5284C143.54 12.5987 142.728 17.2072 143.529 18.0082C144.185 18.664 147.894 17.9485 149.596 17.6202C149.921 17.5575 150.173 17.5089 150.316 17.4868C150.924 17.3932 151.552 17.2984 152.195 17.2013C158.982 16.1762 167.529 14.8853 173.289 12.0057C175.423 10.938 176.7 5.29632 177.565 1.47744C177.686 0.943499 177.799 0.44519 177.905 0Z" fill="#939878"/>
<path d="M48.2494 0C47.7981 1.27584 47.4851 2.584 47.3828 3.93495C52.5237 9.07591 86.2998 33.4203 93.7543 37.1466C94.2097 37.3747 96.4585 38.8595 99.0342 40.5601C103.001 43.1792 107.743 46.3101 107.903 46.1503C111.925 42.1282 116.49 20.6783 119.383 7.08368C119.969 4.33017 120.486 1.89891 120.917 0H48.2494Z" fill="#42535D"/>
<path d="M367.37 0C364.98 2.57379 362.656 5.64748 362.014 8.33452C358.768 6.46354 344.845 10.7939 343.878 15.5446C343.24 18.6702 345.329 20.8604 347.427 23.0597C348.349 24.0263 349.273 24.9946 349.967 26.0449C350.158 26.3337 350.383 26.7018 350.638 27.1182C352.012 29.3638 354.243 33.0101 356.544 33.1465C359.892 33.3456 362.585 27.8663 364.298 24.3817C364.693 23.5788 365.036 22.8818 365.322 22.3846C366.091 21.0507 367.165 19.427 368.348 17.6377C371.996 12.1218 376.685 5.03145 376.692 0H367.37Z" fill="#939878"/>
<path d="M311.07 0H348.186C337.546 9.03777 319.828 8.25039 311.07 0Z" fill="#D88D3A"/>
<path d="M396.419 17.6489C391.362 17.2944 382.896 16.7009 384.148 5.92466C384.934 5.72293 385.628 3.65785 386.44 1.24417C386.577 0.836944 386.718 0.419796 386.862 0H420.121C419.742 0.473969 419.353 0.963291 418.955 1.46382C413.203 8.70663 405.588 18.2956 396.634 17.6639C396.563 17.6589 396.491 17.6539 396.419 17.6489Z" fill="#42535D"/>
<path d="M475.848 0C475.578 3.05144 475.427 6.46237 475.269 10.0399C474.575 25.7326 473.74 44.6304 462.101 50.451C459.536 51.733 443.986 50.9855 442.165 49.1635C440.958 47.9559 441.461 42.9394 441.872 38.8481C442.097 36.6017 442.295 34.6342 442.165 33.7294C440.724 23.6364 441.538 11.6823 442.493 0H475.848Z" fill="#939878"/>
<path d="M499.998 80.2639V121.066C499.991 121.054 499.984 121.041 499.976 121.029C499.641 120.461 499.366 119.995 499.173 119.705C498.203 118.25 496.956 116.604 495.603 114.818C490.019 107.446 482.625 97.6849 485.463 89.1689C485.486 89.1017 485.509 89.0337 485.531 88.965C487.133 84.1545 489.813 76.102 499.939 79.9952C499.939 80.0807 499.959 80.1703 499.998 80.2639Z" fill="#42535D"/>
<path d="M499.999 16.8112V0H486.48C489.801 5.75384 495.244 11.9418 499.999 16.8112Z" fill="#D88D3A"/>
<path d="M499.999 173.336V208.121C497.611 205.618 494.978 203.821 492.503 202.131C487.577 198.768 483.273 195.83 482.757 188.6C482.666 187.343 482.795 185.997 482.919 184.704C482.954 184.344 482.988 183.989 483.017 183.64C483.024 183.561 483.025 183.274 483.028 182.859C483.039 181.107 483.064 177.068 483.54 176.593C484.466 175.666 488.516 175.12 491.137 174.766C491.891 174.664 492.527 174.578 492.936 174.504C493.331 174.432 493.86 174.297 494.467 174.141C496.134 173.714 498.382 173.137 499.999 173.336Z" fill="#939878"/>
<path d="M500.001 283.637V312.63C498.648 312.749 497.226 312.931 495.772 313.117C488.451 314.052 480.352 315.086 476.531 308.718C474.186 304.809 476.748 296.953 478.541 291.455C478.995 290.062 479.4 288.82 479.663 287.833C479.723 287.608 479.766 287.403 479.808 287.201C480.016 286.198 480.216 285.238 482.438 282.124C482.896 282.124 483.674 281.783 484.521 281.412C485.689 280.901 486.989 280.332 487.755 280.524C488.686 280.757 489.622 280.989 490.563 281.222C493.682 281.996 496.847 282.78 500.001 283.637Z" fill="#42535D"/>
<path d="M376.692 500H367.367C368.703 498.561 370.059 497.279 371.153 496.307C373.038 494.632 376.569 497.838 376.676 499.49C376.687 499.657 376.692 499.827 376.692 500Z" fill="#939878"/>
<path d="M420.117 500H386.859C387.785 497.312 388.889 494.516 390.433 493.519C390.773 493.299 391.113 493.079 391.452 492.86C402.892 485.462 414.001 478.277 428.629 486.928C431.157 488.423 426.348 493.221 423.882 495.681C423.415 496.147 423.032 496.529 422.799 496.789C421.964 497.719 421.069 498.811 420.117 500Z" fill="#42535D"/>
<path d="M475.846 500H442.492C442.572 499.021 442.653 498.045 442.733 497.071C443.366 489.434 444.579 466.305 444.579 459.662C443.983 459.5 451.488 455.641 453.05 455.015C457.769 453.129 473.644 449.255 476.845 455.657C479.843 461.653 477.818 486.392 476.716 493.379C476.547 494.449 476.385 495.471 476.249 496.426C476.089 497.547 475.957 498.743 475.846 500Z" fill="#939878"/>
<path d="M499.998 472.484V500H486.48C486.113 499.364 485.772 498.733 485.46 498.11C484.572 496.335 486.145 492.615 487.247 490.009C487.605 489.164 487.912 488.436 488.071 487.929C488.227 487.43 488.485 486.522 488.812 485.374C490.344 479.985 493.385 469.294 494.453 470.662C494.312 470.662 497.6 471.773 499.998 472.484Z" fill="#D88D3A"/>
<path d="M499.999 423.188V435.178C499.665 435.864 499.328 436.53 499.008 437.161C498.581 438.006 498.185 438.789 497.867 439.477C497.836 439.543 497.768 439.768 497.675 440.071C497.398 440.98 496.909 442.584 496.594 442.665C494.475 443.213 483.622 438.945 482.98 436.461C482.461 434.454 486.071 430.418 488.472 427.734C489.279 426.832 489.949 426.082 490.28 425.614C490.779 424.908 491.108 422.938 491.34 421.544C491.504 420.565 491.62 419.869 491.714 420.095C491.548 420.083 491.859 420.174 492.467 420.352C494.034 420.81 497.572 421.845 499.999 423.188Z" fill="#D88D3A"/>
<path d="M500.002 393.687V404.073C499.332 404.4 498.743 404.71 498.35 405.005C496.563 406.345 494.909 407.862 493.247 409.386C491.449 411.035 489.641 412.692 487.648 414.142C486.138 415.239 484.689 416.526 483.261 417.795C482.456 418.51 481.659 419.219 480.86 419.884C480.829 419.911 480.772 419.964 480.698 420.034C480.219 420.485 478.977 421.654 478.511 421.189C477.288 419.966 475.531 418.885 473.75 417.789C469.361 415.09 464.831 412.304 467.809 407.093C468.219 406.375 468.661 405.686 469.103 404.997C469.648 404.148 470.192 403.299 470.679 402.395C471.332 401.183 471.923 399.954 472.513 398.727C473.101 397.505 473.688 396.284 474.334 395.084C476.175 391.667 478.621 388.717 481.085 385.746C481.533 385.206 481.981 384.666 482.426 384.122C482.706 383.78 483.177 382.768 483.657 381.734C484.516 379.886 485.408 377.969 485.299 379.684C489.804 384.189 494.893 389.172 500.002 393.687Z" fill="#42535D"/>
<path d="M500 351.723V375.143C499.201 374.568 498.372 374.007 497.541 373.444C494.208 371.188 490.832 368.903 489.163 365.567C487.696 362.633 495.012 352.109 495.563 351.506C495.868 351.525 496.483 351.554 497.245 351.589C498.062 351.627 499.049 351.673 500 351.723Z" fill="#939878"/>
<path d="M495.595 351.48C495.593 351.477 495.582 351.485 495.563 351.506C495.294 351.49 495.267 351.48 495.595 351.48Z" fill="#42535D"/>
<path d="M499.999 332.062V345.913C498.988 346.395 497.907 346.571 496.825 346.301C488.4 344.194 496.278 328.183 499.999 332.062Z" fill="#D88D3A"/>
<path d="M0 375.14V351.723C1.5793 351.806 3.06371 351.902 3.52407 351.994C4.16125 352.121 4.94881 352.253 5.83151 352.4C10.3439 353.152 17.3424 354.318 19.4478 357.475C20.4236 358.937 19.7224 360.839 19.0534 362.653C18.9178 363.021 18.7835 363.385 18.6648 363.741C17.7157 366.588 16.9453 369.454 16.1729 372.326C15.6328 374.335 15.0918 376.347 14.4881 378.359C14.3402 378.852 14.2111 379.498 14.0713 380.197C13.7271 381.919 13.3177 383.967 12.4007 384.884C11.8083 385.477 3.99126 378.566 3.26431 377.837C2.30025 376.873 1.18278 375.991 0 375.14Z" fill="#939878"/>
<path d="M0 404.074V393.683C0.234113 393.89 0.46827 394.096 0.702416 394.301C0.72579 394.322 0.750827 394.343 0.777429 394.367C1.93545 395.38 6.05955 398.987 5.13884 400.829C4.61102 401.885 2.63174 402.823 0.867188 403.66C0.569336 403.801 0.277602 403.939 0 404.074Z" fill="#42535D"/>
<path d="M0 435.186V423.186C1.27565 423.891 2.24499 424.68 2.46094 425.516C3.14467 428.161 1.59997 431.904 0 435.186Z" fill="#D88D3A"/>
<path d="M24.1029 500H0V472.483C0.956322 472.767 1.77159 472.987 2.17228 473.048C2.9137 473.163 3.90929 473.272 5.05608 473.398C10.3176 473.976 18.7619 474.903 20.445 478.27C22.2889 481.956 22.745 487.428 23.1186 491.912C23.185 492.709 23.2488 493.475 23.3173 494.193C23.5016 496.131 23.7817 498.067 24.1029 500Z" fill="#D88D3A"/>
<path d="M120.914 500H48.2461C49.1506 497.442 50.6111 495.014 52.0442 492.631C52.9254 491.166 53.7963 489.718 54.5211 488.268C66.7261 463.856 74.1605 465.893 93.3082 471.14C95.9964 471.876 98.9155 472.676 102.111 473.475C103.062 473.713 104.153 473.967 105.328 474.241C111.406 475.657 119.742 477.6 122.692 480.55C124.873 482.731 122.021 495.455 121.406 497.915C121.258 498.507 121.094 499.207 120.914 500Z" fill="#42535D"/>
<path d="M177.902 500H145.086C145.138 499.432 145.189 498.864 145.241 498.296C145.443 496.076 145.644 493.856 145.878 491.641C146.117 489.357 146.137 487.144 146.137 484.853V481.721C146.137 481.721 151.686 481.854 151.76 482.523C155.973 482.523 159.77 482.922 163.698 483.335C166.343 483.613 169.049 483.897 171.982 484.07C172.657 484.11 173.498 484.102 174.425 484.092C177.628 484.061 181.851 484.02 183.729 485.898C184.233 486.402 183.06 488.272 182.584 489.03C182.511 489.147 182.455 489.237 182.423 489.292C180.741 492.233 179.246 495.442 178.246 498.688C178.14 499.035 178.026 499.481 177.902 500Z" fill="#939878"/>
<path d="M249.892 500H232.063C231.753 498.005 232.436 495.901 234.478 494.199C234.965 493.794 235.472 493.144 235.982 492.49C237.252 490.864 238.536 489.219 239.544 491.295C242.392 491.295 245.109 492.041 247.268 494.199C248.454 495.386 249.553 497.704 249.892 500Z" fill="#42535D"/>
<path d="M348.183 500H311.074C305.701 494.942 303.697 487.077 308.759 476.95C311.986 476.95 315.526 476.772 319.042 476.596C322.51 476.421 325.955 476.248 329.051 476.248C341.193 476.248 349.615 477.554 349.615 490.579C349.615 490.888 349.671 491.508 349.741 492.274C349.943 494.522 350.261 498.034 349.615 498.68C349.154 499.142 348.676 499.581 348.183 500Z" fill="#D88D3A"/>
<path d="M0 208.117V173.335C0.648677 173.414 1.19628 173.618 1.56488 174.005C1.56488 173.42 2.16513 172.615 2.77888 171.792C3.21953 171.201 3.66715 170.601 3.90457 170.066C4.11228 169.6 4.35497 168.888 4.6324 168.074C5.41833 165.768 6.48313 162.644 7.8215 161.974C9.58122 161.094 15.263 161.84 18.5456 162.272C19.2998 162.371 19.9274 162.453 20.3516 162.495C20.7524 162.536 21.2944 162.563 21.9147 162.595C24.2847 162.716 27.7995 162.896 28.9666 164.061C29.3328 164.428 28.6739 165.706 28.3391 166.356C28.2673 166.495 28.2104 166.606 28.1817 166.672C27.8695 167.402 27.5438 168.13 27.2174 168.86C26.2034 171.129 25.1813 173.415 24.5283 175.808C23.7164 178.786 22.9725 181.806 22.2263 184.835C20.1834 193.128 18.1241 201.488 14.6089 209.224C14.2973 209.908 14.0383 211.335 13.75 212.925C13.2376 215.75 12.6325 219.086 11.4749 219.665C10.7854 220.01 1.91435 210.265 0.772536 208.962C0.518279 208.672 0.260593 208.39 0 208.117Z" fill="#939878"/>
<path d="M0 312.631V283.636C1.84366 284.137 3.68372 284.662 5.50888 285.224C6.71161 285.594 7.94023 286.006 9.18011 286.422C11.6044 287.235 14.0718 288.062 16.4729 288.618C16.9724 288.733 17.5479 288.844 18.168 288.964C21.3065 289.57 25.586 290.397 26.9156 293.054C27.6989 294.622 27.4841 297.358 27.3059 299.628C27.238 300.493 27.1753 301.291 27.1753 301.931C27.1753 302.47 27.3376 303.553 27.5305 304.84C27.9823 307.854 28.6022 311.99 27.6986 312.895C26.164 314.428 21.0248 314.169 17.8449 314.009C17.071 313.971 16.4131 313.937 15.9515 313.937C13.1422 313.937 10.5063 313.51 7.80979 313.072C6.87946 312.921 5.9419 312.769 4.9875 312.633C3.5169 312.423 1.82216 312.47 0 312.631Z" fill="#42535D"/>
<path d="M0 345.914V332.059C0.274128 332.343 0.525762 332.736 0.74674 333.249C8.39846 333.249 5.10108 343.483 0 345.914Z" fill="#D88D3A"/>
</svg>
