<svg width="300" height="600" viewBox="0 0 300 600" fill="none" xmlns="http://www.w3.org/2000/svg">
<path d="M210.428 77.5017C198.675 78.2502 191.746 96.731 187.467 108.143C186.715 110.146 186.046 111.933 185.446 113.366C167.812 155.524 165.649 176.749 162.61 178.897C159.379 181.18 155.16 161.916 130.331 123.333C129.535 122.096 128.619 120.534 127.592 118.78C121.74 108.796 112.263 92.6278 100.643 95.1734C95.9352 96.2046 92.8337 97.219 89.4262 101.833C83.7889 109.466 83.0855 119.467 86.2721 129.445C98.076 166.404 127.123 195.542 155.284 206.577C154.725 213.041 155.66 221.825 155.284 228.47C154.204 247.556 153.154 266.687 152.052 285.803C140.054 270.236 127.258 258.179 113.772 244.539C98.2142 228.804 82.0881 213.265 66.2124 203.787C55.4085 197.337 39.0475 188.074 33.2086 195.193C27.6694 201.947 28.3978 217.183 37.0866 233.099C47.8341 252.787 68.6809 275.689 83.3911 287.894C102.051 303.376 127.554 309.793 149.2 305.239C148.744 315.959 150.493 338.944 150.41 349.735C150.253 370.305 149.2 383.062 147.952 399.214C140.726 388.782 119.724 361.688 100.169 345.103C99.149 344.237 97.946 343.108 96.5962 341.842C88.9091 334.627 76.4603 322.944 65.8678 330.033C61.5769 332.905 58.8198 335.118 56.5215 340.899C52.7192 350.463 54.1348 360.319 59.269 368.594C79.7006 401.525 117.297 417.849 147.879 414.359C145.186 436.502 143.98 455.269 147.667 491.929C138.536 479.619 126.138 469.805 115.414 461.011C110.959 457.359 106.504 453.706 102.094 449.668C83.6179 432.75 64.4965 416.099 45.897 406.391C33.2396 399.784 14.0912 390.359 7.66067 398.968C1.56015 407.136 2.9859 424.58 13.5804 442.215C27.3386 465.117 50.2013 487.809 68.8791 501.712C84.6071 513.42 108.03 520.554 125.931 519.046C127.416 518.921 128.909 518.819 130.398 518.718C136.053 518.335 142.263 518.486 147.667 515.795C147.694 523.297 150.41 569.276 152.736 575.083C153.95 578.113 155.931 579.388 160.046 578.113C162.251 577.429 162.251 576.457 162.61 558.401C162.481 547.208 162.353 533.415 162.288 522.573C167.686 524.386 173.555 523.804 179.051 523.667C180.542 523.63 182.036 523.592 183.524 523.579C201.808 523.421 224.159 514.415 239.61 500.994C248.93 492.898 258.837 481.84 267.418 470.918C268.654 469.345 269.923 467.75 271.208 466.135C278.52 456.945 286.379 447.069 291.906 436.502C301.623 417.923 302.202 400.386 295.72 392.803C288.888 384.81 270.238 395.989 257.929 403.755C239.841 415.166 221.568 433.553 203.951 452.147C199.747 456.584 195.478 460.642 191.211 464.7C182.49 472.991 174.271 481.948 166.116 491.238C164.67 492.886 163.385 494.487 162.251 496.038C157.66 446.685 157.634 437.772 160.046 417.757C160.842 418.537 164.397 417.707 165.833 417.757C196.53 418.836 233.442 399.52 252.484 364.967C257.263 356.294 258.264 346.341 254.068 337.098C251.532 331.511 248.687 329.523 244.283 327C233.412 320.772 221.473 333.434 214.1 341.253C212.806 342.626 211.652 343.85 210.669 344.795C189.641 365.039 167.358 398.515 163.412 405.73C163.066 406.362 162.308 409.334 160.046 410.47C160.046 406.091 159.868 391.878 160.046 368.594C160.087 363.166 162.729 317.521 163.801 317.579C185.953 318.794 210.856 308.078 227.836 290.116C241.92 275.218 260.121 250.171 269.404 228.47C276.748 211.303 276.236 196.051 270.184 190.2C263.804 184.034 248.298 195.781 238.086 203.87C223.079 215.756 208.315 233.704 194.131 251.758C190.746 256.067 187.284 260.055 183.822 264.041C180.582 267.773 177.341 271.504 174.166 275.497C171.575 278.756 169.036 282.289 166.51 285.803C165.89 286.667 165.27 287.529 164.65 288.386C165.221 278.048 165.88 267.687 166.544 257.243C167.161 247.543 167.783 237.77 168.342 227.877C168.746 220.735 169.352 213.77 169.981 206.537C170.062 205.65 170.135 204.761 170.212 203.873C197.27 185.923 223.078 148.025 229.491 107.061C231.16 96.3994 229.016 86.7992 222.383 80.8954C218.374 77.3268 215.189 77.1984 210.428 77.5017Z" fill="#3D5138"/>
</svg>
