<svg width="300" height="600" viewBox="0 0 300 600" fill="none" xmlns="http://www.w3.org/2000/svg">
<path d="M132.955 574.58C141.792 578.639 152.337 588.794 163.86 583.729C168.017 581.901 170.35 579.47 173.121 576.699C185.064 564.756 193.251 551.893 198.001 535.529C201.003 525.189 205.027 514.956 207.82 504.624C211.411 491.335 213.48 477.202 216.076 463.677C220.057 442.931 225.399 423.268 226.898 401.978L226.985 400.74C228.743 375.777 230.48 351.105 234.653 326.388C239.431 298.085 236.592 270.73 237.219 242.207C237.561 226.649 238.056 211.138 238.167 195.57C238.259 182.701 240.757 170.074 241.124 157.245C241.484 144.646 242.188 131.237 239.952 118.808C237.626 105.876 234.215 93.1874 231.64 80.3156C229.214 68.1869 226.937 56.031 224.332 43.9432C222.656 36.1672 222.788 28.1363 221.599 20.2899C220.822 15.1607 218.86 2.87795 210.609 8.12857C203.271 12.7979 198.05 19.9655 195.491 28.2115C193.58 34.37 192.752 40.7714 190.972 46.9556C188.584 55.25 183.348 62.3656 179.982 70.2742C172.945 86.8113 176.038 107.21 174.683 124.833C172.693 150.696 170.889 176.652 170.889 202.599C170.889 226.206 173.549 251.717 169.104 275.009C168.462 278.375 162.209 306.442 159.62 292.526C157.822 282.858 157.472 272.849 156.05 263.071C155.344 258.215 155.116 253.317 154.265 248.455C152.826 240.23 150.214 233.226 147.794 225.359C144.486 214.609 143.753 203.266 139.203 192.892C135.567 184.603 131.707 175.919 126.93 168.234C120.851 158.456 111.889 150.695 102.384 144.358C95.81 139.975 90.5213 130.077 81.9663 130.077C64.1331 130.077 76.6499 153.881 77.5034 163.269C79.2767 182.776 86.0127 201.282 87.9912 220.785C89.151 232.217 89.1721 243.741 90.5574 255.149C92.488 271.048 95.6516 285.958 99.5389 301.507C103.428 317.064 107.054 331.935 108.632 347.977C110.118 363.08 110.292 378.298 111.142 393.442C112.818 423.275 113.252 453.093 116.107 482.867C118.15 504.166 121.796 525.754 122.634 547.133C122.903 553.995 123.046 561.29 124.698 567.997C125.695 572.042 129.295 572.899 132.955 574.58Z" fill="#8B856B"/>
</svg>
