<svg width="300" height="600" viewBox="0 0 300 600" fill="none" xmlns="http://www.w3.org/2000/svg">
<path fill-rule="evenodd" clip-rule="evenodd" d="M180.267 559.497C151.763 572.021 112.932 576.723 91.5638 558.044C60.5436 530.928 6.14712 493.693 15.8169 445.343C17.7928 435.463 29.601 439.265 35.1288 443.412C43.7475 449.876 67.2738 491.09 80.1906 478.173C86.2771 472.086 59.3663 449.592 55.0845 444.699C38.1096 425.299 -1.57043 371.541 15.1732 343.634C17.0129 340.569 22.3996 339.811 25.4729 339.127C46.9695 334.35 48.0206 357.812 60.8786 370.671C62.5321 372.324 72.1893 383.178 75.685 379.682C81.0629 374.304 69.0935 350.332 66.6727 344.278C56.9017 319.85 -7.29454 250.898 34.4852 225.831C63.9431 208.156 80.2131 251.941 91.7775 272.18C93.3673 274.962 101.878 298.92 109.159 294.067C116.442 289.21 113.065 265.967 111.733 259.305C105.553 228.399 92.3274 187.302 118.815 160.814C126.835 152.794 139.143 142.27 152.288 146.652C188.144 158.604 179.969 216.316 179.969 243.856C179.969 250.177 175.959 275.968 183.832 279.904C190.196 283.086 202.648 260.653 204.431 256.73C209.36 245.883 239.651 199.529 257.915 208.661C273.428 216.418 278.841 226.883 275.241 241.28C267.185 273.506 194.24 364.228 195.95 367.649C200.224 376.198 264.597 309.011 282.768 315.107C298.24 320.299 294.038 344.829 284.164 354.962C267.549 372.009 176.597 437.424 180.321 454.207C184.049 471.004 235.606 421.548 262.136 412.686C268.122 410.686 287.636 423.419 265.704 457.942C242.473 494.512 202.685 549.647 180.267 559.497Z" fill="#916F66"/>
</svg>
