<svg width="300" height="300" viewBox="0 0 300 300" fill="none" xmlns="http://www.w3.org/2000/svg">
<path fill-rule="evenodd" clip-rule="evenodd" d="M147.233 290.274C141.422 293.21 127.882 295.683 124.363 290.676C119.556 283.838 116.879 257.418 114.163 248.631C113.655 246.986 113.345 242.363 111.539 241.544C108.134 240 102.055 240.537 98.2668 239.519C81.5219 235.023 63.4846 232.295 47.3485 225.953C41.6779 223.725 27.7952 218.549 26.5019 210.768C23.2994 191.504 58.9478 196.461 69.1709 196.461C73.4543 196.461 77.735 196.638 81.9944 196.123C84.5727 195.812 105.644 194.743 102.991 191.4C97.8313 184.899 80.5257 180.526 73.1451 178.103C55.7056 172.379 38.2868 164.736 22.9782 154.548C16.0948 149.967 -0.289494 142.312 1.08098 131.804C1.5899 127.902 8.22588 124.31 11.2033 122.49C29.4268 111.354 44.4903 124.738 61.7458 130.185C68.4399 132.298 75.6586 134.639 82.7437 134.639C83.1438 134.639 83.8714 135.032 83.9439 134.639C84.6188 130.983 67.5269 113.757 65.0451 110.951C51.4967 95.6273 37.0305 76.5445 31.5263 56.486C30.4106 52.42 21.4057 31.932 32.276 29.6231C39.9755 27.9879 48.9527 37.2386 51.0983 38.9386C70.134 54.0202 89.2405 68.8146 104.716 87.7334C110.912 95.3077 116.651 103.022 123.388 110.14C123.791 110.566 129.107 116.767 130.286 115.405C132.114 113.293 131.017 94.1262 130.961 91.0413C130.848 84.781 130.662 78.5421 130.662 72.2781C130.662 55.1025 124.893 6.68808 152.933 6.0025C160.926 5.80682 162.75 17.1242 164.482 23.1461C170.688 44.7348 171.149 67.0343 172.056 89.3543C172.351 96.6184 172.28 103.882 172.28 111.152V120.871C172.28 111.106 178.01 101.317 182.33 92.8623C193.153 71.6777 208.965 50.7242 227.472 35.5645C241.684 23.9232 261.55 17.2892 268.792 39.4098C277.635 66.4209 240.688 100.356 226.197 119.859C219.875 128.368 213.701 136.934 207.751 145.708C206.043 148.226 204.32 150.741 202.726 153.334C201.935 154.621 201.201 155.952 200.552 157.315C200.433 157.566 199.971 158.244 200.176 158.058C216.41 143.335 252.711 139.011 273.366 137.947C280.652 137.572 297.32 135.491 298.787 146.518C299.865 154.628 293.019 161.935 287.315 166.765C272.877 178.988 254.58 184.086 236.396 187.754C228.988 189.249 221.593 190.779 214.35 192.951C213.992 193.058 206.145 195.656 206.476 196.056C207.266 197.011 225.183 196.528 226.947 196.528C244.423 196.528 263.293 193.902 280.49 197.473C285.575 198.529 303.586 202.649 298.943 211.838C295.194 219.257 271.203 225.53 264.068 227.776C242.066 234.701 220.653 238.091 197.701 240.532C188.986 241.459 178.866 242.285 170.106 241.071C167.288 240.68 155.676 237.604 154.434 239.857C153.771 241.06 152.468 258.911 152.034 261.791C151.239 267.064 153.045 287.338 147.233 290.274Z" fill="#916F66"/>
</svg>
