<svg width="300" height="600" viewBox="0 0 300 600" fill="none" xmlns="http://www.w3.org/2000/svg">
<path d="M136.112 250.399C138.366 253.906 139.602 259.268 140.796 264.452C141.061 265.602 144.388 275.304 145.238 277.225C145.569 282.847 146.214 288.483 147.088 293.967C147.431 296.115 148.208 298.16 148.982 300.198C149.844 302.465 150.702 304.723 150.955 307.104C151.115 308.61 151.395 310.434 151.78 312.224C151.431 311.82 151.077 311.437 150.733 311.08C142.878 302.91 138.179 289.774 132.174 280.447C128.672 275.008 125.169 269.569 121.964 263.943C119.952 260.41 117.495 256.879 114.998 253.291C108.792 244.374 102.342 235.105 101.863 224.573C101.522 217.07 101.823 209.486 102.396 202.005C102.972 194.478 103.418 187.993 99.7293 181.136C93.3461 169.271 84.3049 162.524 71.1938 159.201C64.7339 157.564 58.1346 156.282 51.5661 155.006C49.5147 154.607 47.4653 154.209 45.4251 153.801C43.195 153.355 42.1311 152.643 40.5362 151.575C40.5362 151.575 40.3475 151.447 40.2247 151.367C33.1497 146.789 38.9032 164.756 39.727 172.94C40.1482 177.124 40.5688 181.303 40.5914 185.07C40.6053 187.402 40.5883 189.736 40.5712 192.07C40.5433 195.905 40.5153 199.741 40.6247 203.571C40.8224 210.493 43.7524 215.87 47.1252 221.773C49.5045 225.936 52.2785 229.709 56.3259 232.407C58.1397 233.616 60.0682 234.573 62.0001 235.532C64.1086 236.578 66.2214 237.627 68.1935 239.007C68.8757 239.485 69.5543 239.956 70.2279 240.423C76.8217 244.995 82.9394 249.238 87.2617 256.409C89.9485 260.866 90.645 265.988 91.3393 271.092C91.7413 274.048 92.1425 276.998 92.9288 279.811C94.0019 283.649 95.1246 287.572 96.7624 291.211C103.664 306.548 128.212 314.787 142.133 317.814C142.315 317.853 142.632 317.935 143.048 318.041C145.488 318.668 151.35 320.174 153.651 319.311C153.697 320.378 153.601 321.554 153.512 322.634C153.448 323.408 153.389 324.134 153.389 324.735V340.903C153.389 344.863 153.087 348.779 152.787 352.688C152.487 356.583 152.189 360.471 152.189 364.388C152.189 371.909 152.489 379.392 152.789 386.876C152.816 387.57 152.844 388.264 152.872 388.958C148.517 380.542 141.758 373.75 132.854 370.278C131.442 369.728 129.997 369.277 128.571 368.832C123.706 367.315 119.066 365.868 116.752 360.778C116.277 359.731 115.801 358.678 115.324 357.62C112.116 350.513 108.825 343.221 104.818 336.609C98.9888 326.991 79.6488 321.748 71.3155 315.807C68.2702 313.637 65.2941 311.275 62.3105 308.908C57.4948 305.087 52.6592 301.25 47.4803 298.173C47.2967 298.064 46.8966 297.796 46.3607 297.438C44.0544 295.898 39.2346 292.678 38.3129 293.139C35.9845 294.303 38.1795 313.317 38.1795 315.826C38.1777 325.992 38.1758 335.943 43.9134 344.81C48.7746 352.323 55.0479 353.536 63.3816 353.61C71.8211 353.686 82.5163 354.077 87.7168 361.878C90.1669 365.553 90.7711 370.154 91.368 374.699C91.7344 377.489 92.098 380.258 92.8839 382.779C94.9891 389.534 99.2182 395.66 103.275 401.537C103.987 402.57 104.695 403.596 105.385 404.614C110.463 412.119 116.673 418.497 124.186 423.616C128.748 426.724 149.638 433.116 156.477 431.313C157.649 435.757 158.466 440.191 159.293 444.676C159.626 446.487 159.962 448.307 160.323 450.139C161.613 456.689 163.361 463.078 165.126 469.446C164.015 468.346 162.723 467.294 161.189 466.286C158.198 464.319 155.328 462.166 152.458 460.013C147.756 456.486 143.055 452.959 137.821 450.251C128.001 445.172 114.673 440.712 103.675 439.621C100.654 439.321 97.63 439.021 94.584 438.217C89.3451 436.834 86.0057 431.937 82.9776 427.496C82.2804 426.473 81.5998 425.475 80.9163 424.549C75.4359 417.128 68.0363 414.148 59.4813 411.248C48.4375 407.505 36.8286 404.971 25.4453 409.181C22.5268 410.261 14.999 411.248 16.7113 415.882C17.5673 418.199 28.1285 418.106 34.0126 421.182C41.0022 424.836 46.3194 430.997 51.3901 436.873L51.514 437.017C51.9608 437.535 52.4174 438.056 52.8779 438.582C55.2049 441.241 57.6335 444.016 59.4146 446.984C60.781 449.262 61.9055 451.685 63.0318 454.112C64.1183 456.453 65.2067 458.798 66.5152 461.019C72.6812 471.482 80.4882 479.847 91.9172 484.354C97.9338 486.727 103.963 486.995 110.116 487.269C112.529 487.376 114.962 487.484 117.419 487.721C120.905 488.056 124.398 488.033 127.893 488.009C130.091 487.994 132.29 487.98 134.487 488.054C146.408 488.458 163.318 494.708 172.449 500.524C172.958 507.051 173.826 517.654 174.726 528.648C176.309 547.991 177.991 568.543 177.991 570.227C177.991 574.993 188.232 574.647 191.058 572.283C193.11 570.567 187.847 507.128 186.348 495.494C188.694 494.811 191.078 494.208 193.472 493.603C198.776 492.261 204.128 490.907 209.211 488.648C213.988 486.525 216.316 484.013 218.978 479.614C220.254 477.506 220.982 475.196 221.71 472.883C222.365 470.801 223.021 468.718 224.078 466.78C227.209 461.041 231.506 456.929 236.002 452.625C237.418 451.27 238.854 449.895 240.28 448.445C246.721 441.893 251.112 433.916 253.714 425.11C255.763 418.175 254.932 410.253 254.154 402.834C253.954 400.928 253.757 399.056 253.614 397.241C253.271 392.897 252.72 388.581 252.169 384.266C251.42 378.397 250.671 372.531 250.447 366.606L250.426 366.046C250.077 356.777 249.704 346.884 248.047 337.77C247.818 336.511 247.352 335.259 246.89 334.02C246.625 333.31 246.362 332.603 246.147 331.903C244.47 330.483 242.065 333.882 239.528 337.468C237.902 339.766 236.222 342.14 234.646 343.37C228.929 347.832 222.263 353.167 220.011 360.372C218.859 364.06 218.712 368.185 218.565 372.311C218.385 377.363 218.205 382.417 216.178 386.674C212.573 394.243 208.345 401.806 202.81 408.042C197.947 413.521 194.618 419.628 191.241 425.821C189.742 428.572 188.232 431.34 186.576 434.077C181.584 442.325 177.129 450.945 176.24 460.677C175.79 459.184 175.363 457.683 174.99 456.167C173.66 450.761 172.791 445.372 171.919 439.96C171.465 437.147 171.011 434.328 170.49 431.497C167.472 415.095 165.39 399.36 165.39 382.646C165.39 375.759 165.304 368.959 164.939 362.129C166.369 362.016 168.055 361.992 169.5 361.971C171.041 361.949 172.308 361.931 172.693 361.812C176.064 360.775 179.897 356.861 182.633 354.705C189.507 349.288 196.021 344.154 201.095 336.544C205.549 329.863 207.287 322.313 209.035 314.718C209.464 312.858 209.893 310.995 210.362 309.142C212.869 299.247 219.905 290.007 228.364 284.406C239.039 277.338 247.823 269.849 253.299 257.938C255.293 253.6 255.074 248.206 254.874 243.288C254.827 242.139 254.782 241.014 254.766 239.936C254.701 235.571 253.79 231.101 252.892 226.697C252.488 224.713 252.086 222.743 251.765 220.801C249.043 204.304 247.795 187.696 246.832 170.997C246.832 162.99 242.165 162.69 242.165 168.197L241.975 168.576C237.16 178.209 232.268 187.996 222.63 193.599C213.079 199.152 205.827 204.374 201.395 214.901C199.681 218.971 198.961 222.86 198.961 227.235C198.961 231.923 197.517 236.166 195.928 240.536C194.416 244.694 193.179 249.082 191.934 253.502C189.509 262.108 187.05 270.834 182.46 278.206C179.17 283.489 176.614 289.112 174.055 294.739C172.694 297.733 171.332 300.728 169.859 303.674C166.835 309.722 164.413 315.78 162.025 322.076C161.476 323.523 161.039 324.959 160.695 326.387C160.622 325.104 160.496 323.829 160.256 322.575C160.1 321.762 159.925 320.966 159.751 320.176C159.265 317.972 158.789 315.817 158.789 313.48C158.789 309.871 158.167 306.381 157.541 302.865C157.155 300.699 156.767 298.522 156.522 296.302C155.816 289.907 154.562 283.653 153.122 277.417C152.682 275.512 152.378 273.49 152.166 271.417C153.378 269.914 155.034 268.682 156.682 267.455C157.942 266.517 159.198 265.582 160.247 264.533C160.895 263.885 161.552 263.254 162.206 262.625C165.076 259.867 167.885 257.168 169.581 253.399C170.425 251.525 171.362 249.753 172.294 247.992C173.934 244.894 175.556 241.828 176.615 238.298C177.989 233.717 178.53 229.364 179.095 224.823C179.259 223.5 179.426 222.161 179.615 220.796C180.63 213.488 180.668 206.254 180.706 199.009C180.733 193.81 180.76 188.604 181.149 183.36C181.439 179.436 182.688 175.488 183.917 171.604C184.514 169.715 185.107 167.841 185.582 165.992C186.974 160.578 189.33 155.571 191.916 150.657C192.735 149.101 193.782 147.683 194.828 146.265C195.649 145.152 196.471 144.038 197.183 142.857C198.647 140.429 199.409 137.697 200.168 134.979C200.411 134.111 200.653 133.244 200.917 132.389C203.111 125.29 202.948 117.152 202.794 109.44C202.755 107.499 202.717 105.584 202.717 103.72C202.717 93.476 199.173 82.8569 195.779 73.1344C194.936 70.7186 194.092 68.3008 193.483 65.8175C190.35 53.0447 191.985 33.8384 193.45 21.914C193.677 20.0654 193.999 18.2343 194.321 16.4046C194.321 10.2891 195.466 5.66577 193.45 3.28906C188.716 4.66577 178.818 19.0374 173.915 26.5811C169.689 33.0823 165.873 40.1518 164.047 47.7161C163.127 51.5302 163.338 55.7275 163.545 59.8577C163.666 62.2634 163.786 64.6464 163.681 66.9176C163.362 73.7662 160.446 80.5353 157.726 86.848C157.406 87.5894 157.09 88.3245 156.78 89.0526C154.089 95.385 151.441 101.518 148.113 107.587C145.949 111.533 144.664 115.987 143.388 120.406C142.658 122.934 141.931 125.451 141.045 127.856C140.63 128.984 140.172 130.153 139.702 131.351C137.739 136.36 135.581 141.868 135.512 146.991C135.469 150.154 135.521 153.329 135.573 156.505C135.652 161.33 135.731 166.161 135.478 170.959C135.279 174.753 134.494 178.7 133.725 182.567C133.39 184.253 133.058 185.924 132.778 187.56C130.744 199.477 129.511 210.871 129.511 222.963C129.511 228.456 130.101 233.945 131.178 239.331C132.08 243.841 133.709 246.661 136.112 250.399Z" fill="#BF954D"/>
</svg>
