<svg width="300" height="600" viewBox="0 0 300 600" fill="none" xmlns="http://www.w3.org/2000/svg">
<path d="M29.5509 57.0606C30.282 55.3524 35.0064 46.8708 36.8054 43.6626C37.2646 42.5338 37.8526 41.4439 38.5684 40.4108C47.3238 27.7854 59.1109 35.0039 59.9275 35.5124C63.5255 37.7528 67.7097 41.7706 67.7844 49.8479C67.8609 57.8985 61.7616 63.86 58.757 70.8829C55.9487 77.4442 51.7375 84.0395 49.9494 91.1093C50.4014 92.6632 50.6436 94.3127 50.6436 96.021C50.6436 105.315 43.4683 112.861 34.6309 112.861C29.3195 112.861 26.1519 111.005 24.0063 109.352C20.5524 106.691 16.1413 101.783 17.4712 90.5932C18.8668 78.8551 24.9994 67.6993 29.5509 57.0606Z" fill="#CF6F49"/>
<path fill-rule="evenodd" clip-rule="evenodd" d="M14.6536 125.048C10.8566 133.822 9.74194 152.72 12.6349 169.036C14.8211 181.37 19.4401 191.996 24.5769 197.399C30.8265 203.971 40.974 203.971 47.2236 197.399C53.4724 190.826 53.4724 180.154 47.2236 173.583C45.367 171.631 44.9087 167.319 44.1181 162.863C42.5506 154.02 41.7456 143.753 43.803 138.998C47.464 130.538 43.9048 120.544 35.8606 116.695C27.8165 112.845 18.3137 116.588 14.6536 125.048Z" fill="#CF6F49"/>
<path fill-rule="evenodd" clip-rule="evenodd" d="M70.9403 234.688C70.5126 226.538 64.4844 219.7 56.5231 218.874C51.4161 218.345 47.8721 220.011 45.2718 221.913C41.7873 224.46 39.3508 228.111 38.4648 232.96C37.8237 236.469 39.3598 243.412 40.2269 245.54C43.3152 253.118 48.2152 259.161 53.9975 264.345C59.5377 269.311 66.1493 273.169 70.9214 278.189C77.171 284.762 87.3185 284.762 93.5672 278.189C99.8169 271.616 99.8169 260.944 93.5672 254.373C89.6352 250.237 84.7857 246.614 79.9217 242.891C76.6884 240.417 73.1823 238.115 70.9403 234.688Z" fill="#CF6F49"/>
<path fill-rule="evenodd" clip-rule="evenodd" d="M139.153 259.839C134.268 259.573 123.892 258.921 121.556 258.071C113.202 255.037 104.078 259.705 101.192 268.491C98.3051 277.275 102.744 286.872 111.098 289.907C117.255 292.144 139.009 296.252 151.491 292.044C162.742 288.251 169.366 280.134 169.366 267.617C169.366 258.322 162.191 250.776 153.353 250.776C147.183 250.776 141.823 254.454 139.153 259.839Z" fill="#CF6F49"/>
<path fill-rule="evenodd" clip-rule="evenodd" d="M168.711 225.834C165.218 228.162 162.578 231.903 161.633 236.485C159.762 245.569 165.255 254.542 173.892 256.511C180.153 257.937 188.153 256.238 194.284 247.124C200.886 237.31 206.823 209.7 206.823 202.85C206.823 193.556 199.648 186.01 190.81 186.01C181.972 186.01 174.797 193.556 174.797 202.85C174.797 205.983 170.331 220.634 168.711 225.834Z" fill="#CF6F49"/>
<path fill-rule="evenodd" clip-rule="evenodd" d="M163.555 181.218C172.51 187.748 180.106 183.307 181.746 182.274C189.326 177.494 191.791 167.143 187.246 159.17C185.722 156.496 183.601 154.427 181.167 153.042C178.043 150.628 164.11 140.193 154.33 138.23C145.185 136.396 136.692 138.468 129.966 145.54C123.717 152.113 123.717 162.785 129.966 169.357C138.32 178.143 152.402 173.084 163.555 181.218Z" fill="#CF6F49"/>
<path fill-rule="evenodd" clip-rule="evenodd" d="M93.6672 205.259C94.3236 204.433 97.0122 201.115 98.9714 199.478C100.401 198.283 102.396 197.006 103.909 196.099C106.016 196.457 108.226 196.37 110.423 195.774C118.98 193.451 124.134 184.258 121.925 175.259C119.824 166.698 112.959 158.966 99.6278 161.846C92.9964 163.28 81.0788 170.084 72.8636 178.968C65.7378 186.674 61.7149 195.878 61.7149 203.669C61.7149 212.964 68.8901 220.51 77.7275 220.51C86.0552 220.51 92.9073 213.81 93.6672 205.259Z" fill="#CF6F49"/>
<path fill-rule="evenodd" clip-rule="evenodd" d="M64.6497 331.804C65.1647 325.998 66.599 309.461 67.0798 300.771C67.2914 300.318 67.4814 299.85 67.6534 299.369C70.7553 290.665 66.5558 280.951 58.2803 277.688C52.9373 275.582 48.204 276.392 44.0225 278.976C41.9831 280.236 39.9824 282.079 38.3788 284.67C36.6186 287.519 35.223 292.651 35.223 296.484C35.223 303.797 31.4629 328.812 32.7451 338.517C34.6143 352.667 43.9766 356.725 50.6017 356.725C59.4391 356.725 66.6143 349.179 66.6143 339.884C66.6143 336.956 65.9021 334.202 64.6497 331.804Z" fill="#CF6F49"/>
<path fill-rule="evenodd" clip-rule="evenodd" d="M104.55 409.706C103.426 408.206 100.336 404 98.451 400.686C94.2462 393.287 89.8432 381.989 88.6835 378.934C88.4854 374.889 86.9088 370.907 83.9573 367.836C77.6744 361.3 67.5269 361.358 61.3115 367.966C59.282 370.124 56.9194 373.592 56.5826 379.181C56.4674 381.085 56.8068 385.376 58.6688 390.954C61.9886 400.901 70.7566 419.769 79.0547 430.229C86.0517 439.048 94.1822 442.699 100.022 442.699C108.86 442.699 116.035 435.153 116.035 425.858C116.035 418.217 111.186 411.757 104.55 409.706Z" fill="#CF6F49"/>
<path fill-rule="evenodd" clip-rule="evenodd" d="M145.091 459.755C144.227 458.474 143.173 457.303 141.94 456.285C134.987 450.549 124.912 451.828 119.458 459.141C114.582 465.676 115.114 471.335 116.401 475.717C117.591 479.771 120.672 484.256 125.874 486.991C134.272 491.407 146.075 502.114 152.821 509.208C159.07 515.781 169.218 515.781 175.467 509.208C181.716 502.636 181.716 491.965 175.467 485.392C167.947 477.482 155.4 466.37 145.091 459.755Z" fill="#CF6F49"/>
<path fill-rule="evenodd" clip-rule="evenodd" d="M270.376 566.041C271.137 566.16 271.916 566.221 272.708 566.221C287.86 566.221 288.765 550.676 288.776 549.55C288.815 545.591 287.924 540.193 282.247 535.805C281.913 535.547 279.538 533.241 274.444 532.62C273.032 532.447 262.268 531.612 258.707 530.863C255.3 530.146 235.267 522.146 230.19 520.106C227.602 516.043 223.361 513.193 218.373 512.704C209.574 511.841 201.764 518.655 200.944 527.909C200.474 533.196 202.424 541.465 211.246 547.655C221.085 554.559 246.979 562.744 252.426 563.89C256.175 564.679 268.106 565.827 270.376 566.041Z" fill="#CF6F49"/>
</svg>
