<svg width="600" height="300" viewBox="0 0 600 300" fill="none" xmlns="http://www.w3.org/2000/svg">
<path d="M137.961 199.926C128.58 188.919 113.703 165.31 106.568 153.82C99.4321 142.331 71.56 168.066 71.56 168.066C50.2586 183.759 29.1153 204.824 18.6681 215.823C15.3064 219.703 9.42759 220.123 5.54898 216.761C1.67038 213.399 1.2507 207.52 4.61244 203.642C16.1383 189.068 41.4154 158.904 65.7955 140.11C80.1907 129.014 94.8401 122.456 106.568 121.996C112.904 121.77 119.204 124.294 125.323 129.326C134.521 136.889 143.89 153.422 154.316 168.784C158.007 174.224 161.792 179.539 166.112 183.753C169.411 186.973 172.809 189.765 177.018 190.469C186.734 192.128 194.706 187.364 202.285 180.861C215.798 169.268 227.938 152.449 240.85 139.331C253.078 126.905 266.143 117.596 280.891 115.436C294.813 113.131 304.739 118.095 312.951 127.062C320.365 135.156 325.977 147.921 332.609 160.687C338.613 172.248 345.426 184.377 360.011 187.374C371.58 189.93 381.132 186.345 389.872 180.494C405.388 170.11 418.675 153.346 432.956 139.957C445.848 127.869 459.563 118.326 474.982 114.976C482.35 113.374 491.251 115.866 500.299 124.131C509.267 132.321 520.39 148.453 537.521 156.282C546.518 160.393 557.397 161.722 570.798 157.344C578.435 154.798 586.703 158.932 589.249 166.569C591.795 174.206 587.661 182.474 580.023 185.02C558.09 192.476 540.206 189.951 525.338 183.378C507.581 175.528 494.389 161.092 484.126 150.738C472.526 139.03 456.46 159.907 447.278 169.306C434.36 182.529 421.594 196.905 407.236 206.48C391.495 216.978 373.997 222.273 353.224 217.501C342.596 214.921 334.076 210.064 327.132 203.597C312.781 190.23 305.748 169.542 297.668 153.82C294.395 147.453 292.018 141.112 284.992 142.089C271.388 144.324 261.215 157.242 250.531 170.284C237.283 186.458 224.083 203.662 208.745 213.105C197.801 219.843 185.798 222.955 172.305 221.105C159.185 219.247 147.65 211.297 137.961 199.926Z" fill="#666B64"/>
</svg>
