<svg width="300" height="600" viewBox="0 0 300 600" fill="none" xmlns="http://www.w3.org/2000/svg">
<path fill-rule="evenodd" clip-rule="evenodd" d="M88.7847 564.679C88.1964 551.248 88.7847 445.941 88.7847 432.49C88.7847 395.266 89.6482 358.144 83.6537 321.572C79.7862 297.979 66.549 273.442 55.1844 254.647C43.1698 234.777 -6.13425 189.713 7.6137 157.568C23.7348 119.875 62.148 176.799 73.7523 191.858C74.3575 192.644 80.4387 200.465 82.0621 197.639C99.1444 167.91 18.831 46.2258 63.6706 42.9339C96.7208 40.5082 107.086 80.2864 120.084 113.165C124.112 123.351 127.377 133.709 130.166 144.559C131.167 148.456 132.283 152.27 132.82 156.333C133.012 157.788 132.673 161.643 133.525 160.666C134.194 159.899 133.525 151.37 133.525 150.34C133.525 135.235 132.535 119.579 134.764 104.696C135.875 97.2761 138.172 59.0884 148.499 40.9651C153.963 31.3752 166.569 32.0247 171.724 35.7059C184.668 44.9493 182.655 114.608 181.272 130.512C180.37 140.887 179.016 151.162 177.913 161.496C177.403 166.273 177.207 171.388 177.207 170.998C177.207 147.682 209.951 60.2461 232.206 72.2632C243.438 78.3282 232.612 146.378 230.081 156.535C228.149 164.291 225.303 171.79 223.715 179.669C223.107 182.69 221.538 191.603 222.829 188.968C231.349 171.584 262.335 104.397 290.387 117.705C303.492 123.922 295.128 143.975 293.923 154.678C286.577 219.919 228.664 243.86 214.343 319.091C207.769 353.631 206.24 389.533 204.085 424.847C203.358 436.762 205.019 552.353 204.51 564.265C204.411 566.585 88.7847 564.679 88.7847 564.679Z" fill="#666B64"/>
</svg>
