<svg width="300" height="300" viewBox="0 0 300 300" fill="none" xmlns="http://www.w3.org/2000/svg">
<path fill-rule="evenodd" clip-rule="evenodd" d="M104.743 288.464C80.9069 272.573 64.2826 242.537 46.0795 220.289C37.6794 210.021 14.244 187.988 12.0008 179.764C8.0643 165.331 16.8459 164.458 26.0008 166.289C35.1557 168.12 66.1069 195.453 78.006 195.224C85.5032 195.08 89.5016 188.996 87.2516 178.496C86.7686 176.242 78.5131 160.153 75.4111 151.467C65.3577 123.318 51.1195 97.8542 46.0795 67.6133C44.725 59.487 39.9443 42.8253 45.0439 35.1759C53.3446 22.7248 71.0285 39.9178 74.7205 46.5638C83.2753 61.9617 92.7227 76.6594 100.256 92.8041C104.593 102.096 106.688 112.223 111.299 121.446C113.893 126.635 119.974 142.94 128.553 140.08C129.851 139.647 129.169 137.443 128.898 136.629C125.725 127.111 125.857 107.291 123.752 97.2899C120.961 58.9961 117.752 50.9961 120.961 28.2745C122.572 22.2344 127.006 7.74084 134.764 6.18936C148.11 3.52048 151.305 17.4598 153.399 27.9294C158.9 55.4363 158.313 84.4858 160.645 112.474C160.992 116.639 161.458 142.52 166.512 143.531C172.3 144.688 173.612 120.272 174.448 115.924C180.081 86.6355 187.263 55.8237 202.055 29.6545C204.495 25.3362 214.927 2.79093 223.105 6.8794C234.58 12.6178 235.105 33.3746 233.802 43.8031C230.588 69.517 219.908 93.9505 214.823 119.375C213.381 126.582 209.622 141.251 214.133 148.017C219.574 156.18 226.257 139.294 228.626 135.939C237.633 123.179 246.683 107.414 258.648 97.2899C263.863 92.8776 268.607 86.1007 275.556 90.7334C286.268 97.8748 275.865 124.623 271.761 132.833C256.311 163.732 234.58 190.971 224.485 224.624C220.094 239.26 212.42 269.198 199.984 279.147C175.036 299.104 132.667 307.08 104.743 288.464Z" fill="#8B856B"/>
</svg>
