<svg width="500" height="500" viewBox="0 0 500 500" fill="none" xmlns="http://www.w3.org/2000/svg">
<path d="M334.1 155.276C334.4 155.676 334.8 155.976 335.3 155.976C340.1 156.776 343.1 159.776 344.8 163.976C346.4 167.976 346 172.076 343.8 175.976C341.8 179.476 338.8 181.576 334.8 182.276C333.9 182.476 333 182.876 331.7 183.276C334.7 185.176 337.5 186.576 339.2 189.576C340.9 192.576 340.8 195.776 341.4 198.976C341.8 197.576 342.6 196.376 343.2 195.176C344.1 193.476 345.3 191.976 347 191.076C348.7 190.176 350.3 189.076 352.3 188.576C356.8 187.676 360.4 189.076 363.9 191.876C369.3 196.076 370 204.776 366.1 209.876C364.1 212.576 361.6 214.876 357.9 215.376C356.8 215.476 355.8 215.976 354.1 216.376C362.1 219.776 365.1 225.876 363.5 233.576C362.5 238.576 360 242.376 350 244.676C353.4 246.376 356.1 248.476 357.6 251.676C359.2 254.976 359.4 258.676 358.6 261.976C358 264.776 356.4 267.576 353.8 269.376C351.4 270.976 348.8 272.476 345.6 272.376C346.5 273.176 347.1 274.076 348.1 274.676C350.2 275.976 351.6 277.976 352.7 280.276C353.7 282.276 354 284.276 354.1 286.476C354.3 290.376 352.4 293.276 350.1 295.976C347.8 298.676 344.9 300.276 341.2 300.376C340.9 300.376 340.6 300.376 340.4 300.776C346.1 303.676 349.7 308.076 350 314.776C351.8 311.376 354 308.676 357.5 307.176C361.1 305.676 364.9 305.576 368.4 307.376C374.6 310.576 376.8 316.076 375.3 322.476C373.9 328.576 368.8 332.676 361.2 332.076C357.7 331.776 354.8 330.176 352.6 327.576C350.4 325.076 349.4 321.976 349.4 318.476C348 321.076 346.5 323.376 344.2 325.176C341.8 326.976 339.1 327.876 335.8 328.576C339.5 330.576 342.3 332.976 343.4 336.576C344.5 340.176 344.7 344.176 342.6 347.476C338.8 353.476 334.4 355.976 326.5 353.976C320.5 352.476 317.2 347.276 317.4 340.776C317.6 334.376 321.5 328.476 330.1 327.876C330.1 327.176 329.8 326.676 329.2 326.376C324.9 324.376 322.9 320.676 321.7 316.376C321.6 316.076 321.5 315.776 321.3 315.076C320 317.576 318.2 319.276 316.3 320.976C314.3 322.876 311.5 322.876 309.1 324.376C313.2 326.776 315.6 330.076 316.4 334.376C317.3 338.676 316.3 342.576 313.6 345.876C310.9 349.376 307 350.776 302.6 351.376C306.5 353.276 309.3 356.076 310.4 360.176C311.1 362.876 311.2 365.776 310.1 368.476C307.3 375.776 301.4 378.176 294.1 376.976C289.2 376.176 284.8 370.376 284.4 364.676C284 358.676 287.2 352.176 297 350.476C295.3 348.476 292.7 347.676 291.2 345.376C289.8 343.176 288.9 340.776 288.2 337.676C287.3 339.976 286 341.376 284.7 342.576C283 344.276 280.9 345.476 278.5 346.176C277.3 346.576 277.1 347.176 278 347.976C278.9 348.776 279.8 349.576 280.5 350.476C283.3 354.076 284.3 357.876 283 362.476C281.9 366.676 279.3 369.476 275.7 371.476C270.9 373.976 266.2 373.376 261.7 370.576C260.1 369.576 258.9 367.876 257.8 366.276C256.3 364.176 255.9 361.676 255.2 358.676C252.6 365.876 247.6 368.876 240.6 369.376C242.8 370.976 245.4 371.876 246.9 374.076C248.4 376.276 249.4 378.576 249.6 381.276C249.8 384.076 249.1 386.676 247.6 388.976C244.5 393.676 238.8 396.476 233.5 394.776C226.5 392.576 222.9 387.276 223.7 380.276C224.3 375.376 227.2 369.976 237.7 368.576C234.6 366.976 231.7 365.676 230 362.776C228.3 359.976 227.6 356.876 227.3 353.476C226 356.476 224.6 359.376 221.8 361.176C219 362.876 216.1 364.076 212.6 364.276C219.3 367.476 222.6 372.476 221.4 379.876C217.8 389.176 211.8 390.576 206.2 389.676C200.3 388.776 196.3 383.476 195.6 378.476C195 374.276 196.7 370.776 199.5 367.776C202.4 364.676 206.3 364.076 210.3 363.576C206.7 362.576 203.9 360.576 202 357.676C200 354.776 199.5 351.276 199.7 347.776C198.9 347.576 198.9 347.976 198.9 348.276C198.1 352.176 195.6 354.776 192.4 356.876C189 358.976 185.3 359.376 181.6 358.076C178.3 356.876 175.5 354.876 173.8 351.576C172.8 349.776 172.5 347.876 172 345.976C171.8 345.376 171.9 344.676 171.2 343.876C169.8 348.676 166.4 351.376 162.1 352.676C159.3 353.476 156.2 353.476 153.5 351.976C147.4 348.676 144.9 344.476 145.9 337.376C146.8 331.276 152.6 327.176 157.9 326.876C162.2 326.576 165.7 328.276 168.5 331.176C171.4 334.176 171.9 338.176 172 342.276C174.2 335.476 178.8 331.876 185.8 330.776C180.7 328.276 177.5 324.576 176.5 319.076C175.4 319.276 174.9 320.176 174.4 320.876C171.5 324.776 164.4 326.676 159.9 325.376C153.1 323.276 148.9 316.276 150.1 309.776C151 304.576 153.9 300.676 159.2 299.076C160 298.776 160.8 298.276 161.7 298.276C162 298.276 162.3 298.076 162.4 297.676C162.4 297.276 162.2 297.076 161.8 296.976C157.9 295.676 155.9 292.576 154.1 289.176C153.6 288.176 153.9 286.976 153.3 285.976C152.7 286.076 152.2 286.376 151.9 286.876C149.5 290.576 145.9 292.176 141.8 292.876C138.9 293.376 136.2 292.176 133.7 290.776C129.5 288.476 127.5 284.576 127.2 280.076C126.9 275.676 128.3 271.776 132 268.776C134.4 266.776 137.1 265.976 139.9 265.376C140.4 265.276 140.9 265.376 141.3 264.676C134 262.576 131.3 257.076 130.4 249.476C128.7 253.576 126.6 256.476 122.9 258.076C119.2 259.576 115.4 259.576 112 257.876C106.8 255.176 103.6 249.976 104.9 243.576C106.2 237.376 110.8 233.676 117.1 233.176C119.6 232.976 121.9 233.876 124.1 234.976C126.6 236.176 128 238.176 129.2 240.476C130.3 242.676 130.6 245.176 130.9 247.676C132.3 244.676 133.6 241.576 136.6 239.876C139.4 238.276 142.3 236.776 145.8 236.776C143 235.376 140.4 234.176 138.6 231.476C136.9 228.976 135.6 226.276 135.2 223.176C133.8 226.376 131.9 228.976 128.7 230.576C125.6 232.176 122.4 232.876 119.1 231.676C110.9 228.776 109 222.576 109.7 217.076C110.6 210.776 116.2 206.876 121 206.176C125 205.576 128.4 207.076 131.3 209.476C134.3 211.976 135.3 215.576 135.9 219.376C137 216.576 138.8 214.276 140.8 212.376C142.9 210.376 145.9 210.076 148.7 208.876C143 205.076 139.6 200.376 141.1 193.476C142.8 185.776 149.1 182.676 153.9 182.376C157.6 182.076 160.8 183.676 163.6 185.976C166.5 188.376 167.4 191.776 168.6 195.076C169.5 195.276 169.3 194.576 169.6 194.276C171.5 191.276 174 188.976 177.2 187.576C177.9 187.276 178.6 187.276 179.3 187.176C179.9 187.076 180.5 187.076 180.6 186.376C180.8 185.576 180.2 185.476 179.7 185.176C177.1 183.276 175.1 180.976 174.2 177.676C173.1 173.876 173.3 170.276 175 166.776C176.6 163.576 179.2 161.676 182.4 160.176C185 158.876 187.7 159.176 190.3 159.276C191.5 159.376 192.7 160.276 193.9 160.876C198 162.876 200.3 166.376 201.4 170.676C201.5 171.076 201.5 171.476 201.9 171.776C203.4 169.676 205.2 167.876 207.1 166.076C209.1 164.176 212 164.476 214.1 162.876C206.9 157.976 205.4 152.076 206.8 147.276C209.1 139.076 215.4 135.876 221.7 136.476C227.4 137.076 233.1 140.176 234.9 150.776C238.3 143.176 244.1 140.376 251.9 141.176C258 143.776 262.5 147.776 262.8 155.176C266.1 149.176 270.6 145.676 277.6 146.176C284.8 146.676 288.5 151.076 290.7 157.676C294 153.276 297.8 150.176 303.5 150.076C301.8 148.976 300.4 147.776 299 146.476C296.9 144.676 295.9 142.276 295.5 139.676C295.3 137.976 295.3 136.276 295.5 134.676C295.8 132.576 296.8 130.576 298.2 128.976C302.8 123.476 310.6 122.876 316.2 126.676C320.9 129.876 322.6 136.476 320.8 141.676C319.4 145.876 316.4 148.376 312.5 150.076C311.8 150.376 311.1 150.276 310.4 150.376C309.7 150.476 308.9 150.176 308.3 150.976C311.5 152.276 313.8 154.476 315.6 157.376C317.4 160.276 317.8 163.376 317.9 166.676C318.7 165.576 318.8 164.176 319.3 163.076C321.8 158.076 326 156.176 331.2 155.676C332.5 155.276 333.3 155.376 334.1 155.276ZM189.2 331.576C193.3 332.976 196.4 335.576 198.4 339.376C199.4 341.276 199.4 343.376 199.9 345.376C200 345.776 199.9 346.376 200.8 346.376C201.1 343.376 203.2 341.476 205.1 339.476C207.1 337.376 210.2 337.276 212.9 335.776C210.7 334.876 209.3 333.476 208 332.076C206.4 330.376 205.1 328.476 204.9 326.076C204.8 325.376 204.4 324.576 203.7 324.476C203 324.276 202.9 325.176 202.7 325.576C200.2 329.176 196.8 331.076 192.4 331.276C191.3 331.276 190.2 331.176 189.2 331.576ZM337.3 223.376C339.2 220.676 341.2 218.576 343.7 217.276C346.3 215.876 349.2 216.176 352 215.676C350.6 215.376 349.4 214.776 348.4 214.076C345.2 211.976 342.6 209.476 342 205.476C341.8 204.376 341.1 203.376 340.5 201.776C338.3 207.376 334.4 210.176 329.2 211.376C333.4 214.376 336.1 217.976 337.3 223.376ZM159.2 249.976C161.8 246.276 164.3 243.076 168.7 241.976C169.3 241.876 169.8 241.676 169.9 240.976C170 240.376 169.4 240.276 169.1 239.976C166.5 237.876 164.6 235.376 163.8 232.076C163.6 231.176 163.2 230.276 162.8 229.176C159.7 234.376 155.4 237.076 149.5 237.076C149.1 237.076 148.5 237.076 148.5 237.976C154.8 239.276 157.8 243.976 159.2 249.976ZM143.3 265.176C143.9 265.676 144 265.876 144.1 265.876C147.8 266.576 150.5 268.776 152.5 271.876C153.3 273.176 153.9 274.476 154.1 276.076C154.3 277.076 155.1 277.276 155.8 276.476C156 276.276 156.1 275.876 156.3 275.676C158.1 273.576 159.8 271.576 162.7 270.676C163.7 270.376 164.8 270.276 165.9 269.676C164.1 267.676 162.1 266.076 160.5 264.176C158.8 262.176 159.1 259.376 157.5 257.176C154.5 262.576 149.9 265.076 143.3 265.176ZM307 178.476C307.1 178.976 307.3 179.076 307.5 179.176C310.7 180.976 313 183.576 314.1 187.176C314.5 188.476 315.1 188.476 316.1 187.576C319.2 184.876 322.4 182.676 326.8 182.876C327.3 182.876 327.9 182.876 328.5 182.476C326.8 182.176 325.5 180.976 324.1 180.276C322.7 179.576 321.8 178.476 321 177.176C319.4 174.776 318.7 172.176 318.3 169.376C318.2 168.976 318.1 168.476 317.7 168.476C317.2 168.476 317.1 168.876 317 169.276C315.8 172.876 313.3 175.376 309.9 176.776C308.8 177.176 307.9 177.776 307 178.476ZM220.2 337.376C222.9 338.676 224.6 340.776 226 343.176C227.4 345.576 227.9 348.176 228.6 350.976C230.5 345.176 234.8 342.376 240.2 340.976C240.1 340.676 240.2 340.576 240.1 340.476C236.5 338.176 233.8 335.276 232.6 331.176C232.5 330.676 232.1 330.176 231.3 330.176C228.9 334.376 224.8 336.076 220.2 337.376ZM256.3 355.276C258.3 351.076 260.7 347.576 265.4 346.176C267.3 345.576 267.4 344.876 265.9 343.476C263.5 341.476 261.5 339.176 261 335.976C260.9 335.676 260.9 335.276 260.5 335.276C260 335.176 259.6 335.376 259.3 335.776C257.2 338.376 254.8 340.476 251.4 341.376C250.5 341.676 249.4 341.676 248.5 342.476C250.9 343.876 252.7 345.576 254.1 347.776C255.3 350.176 255.8 352.676 256.3 355.276ZM164.2 221.676C164.9 221.376 165 221.076 165.1 220.776C166.8 217.376 169.6 215.476 173 214.176C173.5 213.976 174.2 214.176 174.3 213.376C174.3 212.676 174 212.276 173.4 211.876C171.8 210.676 170.6 209.076 169.8 207.076C169.3 205.876 169.1 204.676 168.8 203.476C168.7 202.876 168.4 202.176 167.7 202.176C167 202.176 167.1 202.776 166.9 203.176C164.8 206.176 162.4 208.576 158.6 209.276C157.8 209.476 156.9 209.676 156.4 210.576C160.7 213.076 163.2 216.876 164.2 221.676ZM240.9 166.876C238.7 165.176 237.3 163.376 236.2 161.276C235.1 159.176 235.2 156.776 234.8 154.176C233.3 156.976 231.8 159.076 229.9 160.976C227.9 162.976 225 163.176 222.4 164.476C225.9 167.176 229.3 169.676 230.4 174.676C233.2 170.576 236.6 168.276 240.9 166.876ZM188.6 302.476C184 300.076 182 296.176 180.7 291.776C176.9 295.776 175 297.376 169.4 298.676C171.1 300.576 173.5 301.376 175 303.276C176.5 305.276 177 307.776 178.3 310.076C180.5 306.576 183 304.776 188.6 302.476ZM315.7 296.276C316.7 297.076 317.3 297.776 318 298.376C320 300.176 321.6 302.276 322 305.176C322.1 306.176 322.6 307.076 323.5 307.976C325.9 303.076 329.9 300.876 335.2 299.876C331.8 298.076 329.1 296.076 327.4 293.076C327 292.376 327.1 291.476 326.6 290.876C326.1 290.276 325.7 289.776 325 290.776C322.7 293.576 319.6 295.176 315.7 296.276ZM283.3 319.276C283.9 319.976 284.2 320.476 284.6 320.876C286.5 323.276 289 325.276 289.2 328.576C289.2 329.176 289.5 329.976 290.6 330.176C293 325.876 296.9 323.676 302 322.676C297.6 320.176 294.8 316.976 293.6 312.376C291.6 313.676 290.8 315.676 289.2 316.676C287.5 317.976 285.7 318.776 283.3 319.276ZM206.7 189.776C205.4 188.176 204.2 186.676 203 185.276C201.8 183.776 202.2 181.376 200.6 179.876C199.3 182.076 197.6 183.676 195.7 185.076C193.8 186.476 191.4 186.876 188.7 187.476C193.3 189.576 195.7 193.076 197.6 197.776C199.3 192.976 203.1 191.576 206.7 189.776ZM335.7 231.776C333.4 235.376 331 237.976 327.5 239.276C326.6 239.576 326.9 240.076 327.2 240.576C327.4 240.876 327.8 241.076 328.1 241.376C330 242.976 331.5 244.876 332.3 247.176C332.5 247.876 333 248.476 333.5 249.276C335 247.376 336.8 246.376 338.6 245.276C340.4 244.176 342.6 244.076 344.7 243.576C339.8 241.176 337.1 237.276 335.7 231.776ZM289.8 166.676C287.4 170.576 284.3 172.576 280.4 174.376C284.5 176.576 285.5 180.476 287.4 183.976C289.3 181.076 291.7 179.076 294.9 178.276C295.9 177.976 296.5 177.376 297.4 176.476C293.5 174.376 291.4 171.076 289.8 166.676ZM262.7 160.176C260.5 163.376 258.8 166.076 255.8 167.576C255.2 167.876 254.4 167.976 253.8 168.376C253.2 168.776 252.7 169.276 253.6 169.976C255 171.176 255.9 172.676 257.1 174.076C258.1 175.276 258.2 176.976 259.7 178.176C260.5 176.376 261.9 175.276 263.4 174.276C264.9 173.276 266.9 172.876 268.5 171.576C265.1 168.676 263 165.176 262.7 160.176ZM214.8 307.676C214.3 307.076 214 306.676 213.5 306.376C211.4 304.876 210.4 302.476 209 300.476C208 299.076 208.1 298.976 206.8 300.076C205.3 301.376 203.7 302.376 201.9 303.276C200.8 303.776 199.6 304.076 198.5 304.776C202.2 307.376 204.4 310.776 205.3 315.076C207 313.776 207.8 311.876 209.5 310.776C211.3 309.676 212.7 308.276 214.8 307.676ZM182.4 281.776C184.4 278.576 186.7 276.676 189.5 275.276C191.3 274.376 191.4 274.076 190 272.676C188.3 270.976 186.9 269.176 186.2 266.776C185.7 264.976 185.1 264.776 183.7 266.276C181.9 268.176 179.9 269.776 177.2 270.276C176.5 270.376 175.9 270.776 175.5 271.476C178.7 273.976 181.5 276.876 182.4 281.776ZM328.2 277.576C331.6 274.576 334.6 271.776 339.2 271.576C338.3 271.176 338 270.476 337.3 270.076C335.3 269.076 334 267.476 332.9 265.676C332.4 264.776 332.2 263.676 331.5 262.976C331.1 262.676 330.9 262.176 330.4 262.776C328.1 265.276 325.2 266.976 321.7 268.676C325.4 270.576 326.5 274.176 328.2 277.576ZM271.3 317.876C271.2 317.476 271.3 317.376 271.2 317.376C269.1 315.276 266.8 313.376 265.7 310.476C265.5 309.876 264.7 309.676 263.9 310.376C262 311.976 260.2 313.776 257.6 314.376C256.5 314.676 256.4 315.576 257.3 316.276C259.2 317.976 260.7 319.976 261.2 322.576C261.3 323.276 261.8 323.876 262.5 324.176C264.9 321.376 267.3 318.476 271.3 317.876ZM187.6 252.076C189.6 249.076 192.5 247.376 195.5 245.776C193.7 243.376 191.7 241.376 190.8 238.676C190.5 237.676 189.7 237.576 188.9 238.476C187.1 240.276 185 241.576 182.5 242.176C181.9 242.276 181.4 242.476 181.2 243.176C180.9 243.976 181.7 244.076 182 244.376C184.4 246.376 186.5 248.676 187.6 252.076ZM312.7 200.276C310.4 203.276 307.8 205.376 304.1 206.376C306.6 209.076 309.3 211.376 310.3 215.376C313 212.076 316.3 210.776 320.2 209.676C316.1 207.576 314.4 204.076 312.7 200.276ZM242.6 312.676C240.2 310.276 238.1 308.176 236.9 305.276C236.6 304.576 235.9 305.076 235.5 305.376C233.8 307.076 231.8 308.276 229.5 308.976C228.5 309.276 228.3 310.276 229 311.076C231 312.976 232.4 315.176 233 317.876C233.3 318.976 234.3 319.076 234.9 318.176C236.8 315.576 239.2 313.876 242.6 312.676ZM195.6 208.976C193 211.976 190.3 214.276 186.3 215.576C189.4 217.676 190.9 220.776 192.6 223.776C195.1 221.176 197.5 218.776 201 217.676C198.8 214.876 196.7 212.376 195.6 208.976ZM304.9 294.776C302.4 292.076 300 289.676 298.5 286.476C296.3 288.376 294.4 290.276 291.7 291.276C290.8 291.576 290.7 292.476 291.4 293.376C293.1 295.576 294.9 297.776 295.4 300.876C296.9 299.476 298.1 298.076 299.5 296.976C301 295.876 302.6 294.976 304.9 294.776ZM283.3 208.876C284 208.876 284.2 208.376 284.4 208.076C285.8 206.576 287.5 205.676 289.4 205.076C290.8 204.576 290.9 204.376 289.9 203.176C288.3 201.276 286.6 199.576 285.9 197.076C285.6 195.876 284.9 195.776 284.1 196.776C282.6 198.476 280.8 199.676 278.9 200.776C277.6 201.576 277.5 201.776 278.6 202.976C280.1 204.576 281.7 206.076 282.5 208.276C282.5 208.676 282.9 208.876 283.3 208.876ZM234.3 193.576C231 191.876 230.7 188.476 228.7 185.976C226.3 188.576 224 191.176 220.3 192.476C222.8 193.876 223.8 195.976 225 197.976C225.7 199.176 225.9 199.276 226.9 198.476C229.1 196.676 231.4 195.076 234.3 193.576ZM262 198.476C258.9 196.776 258.9 193.076 256.4 191.176C254.5 193.776 252 195.276 249.3 196.776C251.2 198.676 253.2 200.476 254.2 202.876C254.5 203.676 255.3 203.276 255.8 202.776C257.1 201.276 258.8 200.376 260.6 199.576C260.9 199.376 261.2 198.976 262 198.476ZM307.7 230.176C305.9 231.676 304.5 233.276 302.5 234.176C301.4 234.676 301.4 235.276 302.1 236.276C303 237.476 304 238.676 304.6 239.976C305.1 240.976 305.7 241.776 306.6 242.376C308.4 241.076 309.8 239.576 311.9 238.976C313.4 238.576 313.4 237.676 312.2 236.676C310.2 234.976 308.7 232.876 307.7 230.176ZM303.5 258.876C302.6 259.176 302.2 259.676 301.7 260.176C300.6 261.276 299.3 262.176 298 263.076C296.8 263.876 296.7 263.976 297.6 265.176C298.6 266.576 299.6 267.976 300.3 269.476C300.5 269.976 300.8 270.676 301.6 270.876C303.3 268.276 306.6 267.776 308.8 265.676C306.6 263.576 304.6 261.676 303.5 258.876ZM216.9 278.876C217.1 278.276 216.4 278.076 216 277.776C214.7 276.576 213.8 275.176 213.1 273.576C212.7 272.676 211.9 272.476 211.4 273.276C210.3 274.876 208.5 275.176 207.1 275.976C205.7 276.776 205.6 276.776 206.7 277.976C208.1 279.476 209.2 281.176 210.2 282.876C210.9 283.976 211.1 284.076 212.1 283.176C213.4 281.976 214.6 280.576 216.4 279.976C216.9 279.876 216.9 279.476 216.9 278.876ZM226.7 221.576C226.2 220.876 225.5 220.276 225.3 219.476C225 218.576 224.3 217.876 224 216.976C223.7 215.976 223 215.776 222 216.476C220.7 217.376 219.4 218.476 217.8 219.076C216.5 219.676 216.4 220.376 217.4 221.476C218.3 222.476 219.3 223.376 219.9 224.576C220.4 225.876 221.1 225.576 221.9 224.976C223.5 223.976 225 222.776 226.7 221.576ZM264 287.476C265.3 289.676 266.7 291.476 267.3 293.676C267.5 293.676 267.6 293.676 267.7 293.676C269.8 292.676 271.2 290.576 273.5 289.676C274.2 289.476 274 288.676 273.4 288.076C272.5 287.076 271.4 286.176 270.9 284.776C270.4 283.576 269.7 283.676 268.5 284.576C267.2 285.676 266 286.976 264 287.476ZM217.5 244.876C215.6 246.276 213.6 247.376 211.6 248.376C212.3 250.276 213.9 251.376 214.8 252.976C215.6 254.376 215.7 254.376 217 253.276C217.9 252.576 218.7 251.876 219.6 251.276C220.8 250.476 220.9 250.276 220.1 249.076C219.3 247.776 218.3 246.476 217.5 244.876ZM279.6 226.276C278.3 227.376 277.4 228.476 276.1 229.176C274.8 229.876 274.9 229.976 275.9 231.376C276.6 232.276 277.3 233.276 277.8 234.376C278.2 235.176 278.8 235.276 279.3 234.876C280.5 234.076 281.7 233.376 283 232.776C283.4 232.576 284.3 231.976 283.6 231.276C282.1 229.776 281.1 227.876 279.6 226.276ZM240.6 279.276C239.3 280.376 237.9 281.176 236.5 281.976C235.8 282.376 235.7 282.876 236.1 283.276C237.3 284.576 237.9 286.176 238.8 287.676C239.3 288.476 239.7 288.276 240.3 287.776C241.3 286.776 242.3 285.776 243.5 285.076C244.4 284.476 244.3 283.776 243.8 283.276C242.6 282.076 242.1 280.276 240.6 279.276ZM251.5 221.976C250.5 221.876 250.1 222.576 249.5 222.976C246.4 225.376 246.5 225.376 248.9 228.476C249.6 229.376 250.3 229.376 250.8 228.776C251.8 227.676 254.1 228.076 254 225.876C254 225.776 254 225.676 254 225.676C253.3 224.476 252.7 223.376 252 222.276C251.8 222.076 251.5 221.976 251.5 221.976ZM273.5 263.576C274.9 262.876 276.3 262.076 277.6 260.976C278.1 260.576 278.2 260.276 277.8 259.776C276.9 258.676 276.2 257.476 275.1 256.576C274.8 256.376 274.6 256.076 274.3 256.276C273.3 256.976 272.3 257.776 271.4 258.576C271 258.976 271 259.676 271.3 260.076C272.1 261.176 272.4 262.576 273.5 263.576ZM244.5 257.676C245.6 257.276 246.5 256.676 247.5 256.076C248.2 255.576 248.3 254.876 248 254.476C247.5 253.676 247.2 252.676 246.4 252.176C246.1 251.976 245.8 251.476 245.4 251.776C244.3 252.376 243 252.876 242.5 254.076C242.2 254.876 243 255.576 243.6 256.276C243.9 256.676 243.9 257.276 244.5 257.676Z" fill="#292524"/>
<path d="M192.8 158.276C185.3 158.576 179.6 152.176 179.7 144.776C179.8 137.176 185.5 131.576 193 131.576C200.9 131.576 206.5 137.676 206.4 145.176C206.3 152.876 200.2 158.776 192.8 158.276Z" fill="#292524"/>
<path d="M295.3 132.376C295.9 138.876 288.8 145.476 281.7 145.476C274.8 145.376 268.3 138.476 268.6 131.676C268.9 124.776 274.8 118.676 282.2 118.776C289.5 118.876 295.9 125.276 295.3 132.376Z" fill="#292524"/>
<path d="M359.8 262.476C359.5 255.276 366 249.776 373.1 249.876C380.5 249.976 386.3 255.876 386.2 263.476C386.1 270.376 379.6 276.676 372.4 276.476C365.8 276.276 359.1 270.076 359.8 262.476Z" fill="#292524"/>
<path d="M354.9 290.576C354.5 283.576 361.4 277.476 368.6 277.676C375.1 277.876 381.6 284.176 381.3 291.676C381 298.476 374.5 304.576 367.7 304.276C360.7 304.176 354.2 298.276 354.9 290.576Z" fill="#292524"/>
<path d="M364.7 234.876C364.3 228.376 371.1 221.676 378.1 221.776C385 221.876 391.5 228.576 391.4 235.376C391.3 241.576 385.2 248.376 377.8 248.276C370.8 248.176 364.2 241.676 364.7 234.876Z" fill="#292524"/>
<path d="M267.1 127.276C267.7 133.976 261.3 140.376 253.7 140.176C246.6 140.076 240.6 133.876 240.7 126.676C240.8 120.076 246.8 113.576 254.2 113.676C260.6 113.876 267.9 119.876 267.1 127.276Z" fill="#292524"/>
<path d="M173 168.076C173.6 175.176 167.1 181.376 160 181.376C153.3 181.476 146.8 174.776 146.7 168.276C146.6 161.276 153.1 154.876 159.8 154.876C167.3 154.876 173.5 160.976 173 168.076Z" fill="#292524"/>
<path d="M149 307.276C149.4 313.876 143.5 320.276 135.7 320.176C129.2 320.076 122.7 313.776 122.8 306.776C122.9 300.376 129.3 293.576 136.4 293.776C143.2 294.076 149.6 300.176 149 307.276Z" fill="#292524"/>
<path d="M213 122.176C212.5 115.276 219.2 108.976 225.9 108.976C233.1 108.976 239 114.876 239 121.976C238.9 129.476 233.5 134.876 226.2 134.976C218.9 135.176 212.7 129.076 213 122.176Z" fill="#292524"/>
<path d="M373 174.076C373.5 180.076 367.4 187.176 359.9 187.076C352.5 186.976 346.9 180.576 346.9 174.176C346.9 167.176 352.6 161.176 359.9 161.076C367.3 160.976 373.3 167.576 373 174.076Z" fill="#292524"/>
<path d="M396 207.076C395.8 214.376 390.2 219.976 383.1 220.176C375.9 220.376 369.9 213.876 369.9 207.176C369.8 200.476 376.3 193.976 383.1 194.076C389.7 194.076 396 199.976 396 207.076Z" fill="#292524"/>
<path d="M264.9 374.076C271.4 373.876 278 379.776 278 386.976C277.9 394.576 271.8 400.076 265.1 399.976C257.7 399.876 252.4 394.876 252.2 387.276C251.9 379.676 258.1 374.176 264.9 374.076Z" fill="#292524"/>
<path d="M334.1 155.376C333.9 155.076 333.8 154.676 333.6 154.576C332 154.376 330.9 153.276 329.7 152.476C327.2 150.976 325.8 148.676 324.9 145.976C323.6 142.376 324.3 139.176 325.8 135.876C327.1 132.976 329.5 131.376 332.2 130.276C333.9 129.576 335.7 128.576 337.7 128.976C340.2 129.576 342.7 130.376 344.8 131.976C346.8 133.576 348.2 135.576 349.1 137.976C351.2 143.176 348.7 149.676 343.9 152.676C341.6 154.176 339.1 154.976 336.3 154.976C335.6 155.176 334.8 155.176 334.1 155.376Z" fill="#292524"/>
<path d="M114.3 190.876C114.9 183.476 119.7 178.476 127.2 178.476C134.7 178.476 140 184.376 139.9 191.376C139.8 198.476 133.8 204.176 126.9 204.076C119.8 203.776 114.5 198.376 114.3 190.876Z" fill="#292524"/>
<path d="M198 130.076C195.2 129.376 192.3 128.676 190 126.876C188.1 125.376 186.8 123.376 186.2 121.076C186 120.476 185.8 119.876 185.5 119.276C185 118.476 184.9 117.576 185.1 116.676C186 112.976 187 109.276 190.4 106.976C192.4 105.576 194.6 104.476 197.1 104.176C200 103.876 202.7 104.876 205.1 106.576C208.6 108.976 210.6 112.376 210.9 116.476C211.3 121.276 207.7 127.376 202.4 128.876C200.9 129.176 199.7 130.376 198 130.076Z" fill="#292524"/>
<path d="M113.1 286.976C106.2 286.376 100.6 281.476 100.2 274.176C100 270.776 101.6 267.776 104 265.276C106.5 262.676 109.8 261.276 113.1 261.276C116.3 261.276 119.6 262.676 122 265.176C124.5 267.676 125.8 270.876 125.8 274.076C125.8 277.276 124.5 280.576 121.9 282.976C119.8 285.176 115.8 286.976 113.1 286.976Z" fill="#292524"/>
<path d="M338.8 369.676C338.5 372.176 337.7 375.076 335.6 377.376C333 380.176 329.6 381.876 326 381.876C322.5 381.876 319.2 380.276 316.7 377.676C314.3 375.276 313.2 372.176 313.3 369.076C313.5 361.376 319.1 356.376 326 356.176C332.4 356.076 338.6 361.476 338.8 369.676Z" fill="#292524"/>
<path d="M165.1 152.776C157.9 152.376 152.4 147.676 152.3 140.176C152.2 133.076 157.8 127.376 164.9 127.376C171.7 127.276 177.6 132.276 177.7 139.976C177.7 147.376 172.9 152.076 165.1 152.776Z" fill="#292524"/>
<path d="M182.1 360.276C189.3 360.676 194.8 365.876 194.7 373.076C194.6 380.576 189.3 385.876 182 385.676C174.4 385.576 169.5 380.676 169.4 372.976C169.3 365.676 174.7 360.776 182.1 360.276Z" fill="#292524"/>
<path d="M370.6 345.976C370.2 353.976 364.4 358.776 357.9 358.776C350.9 358.776 345.2 352.776 345.3 345.776C345.3 342.376 346.8 339.476 349.3 336.976C351.8 334.576 354.9 333.376 358.1 333.376C361.5 333.376 364.7 334.776 367.2 337.276C369.6 339.676 370.2 342.876 370.6 345.976Z" fill="#292524"/>
<path d="M280.5 392.076C280.2 385.876 286.2 379.476 292.9 379.576C300.2 379.676 305.5 385.176 305.3 392.076C305.1 399.876 300.6 404.376 292.9 404.476C285.8 404.676 280.5 399.076 280.5 392.076Z" fill="#292524"/>
<path d="M131.1 347.376C124.5 347.976 118.6 341.376 118.7 335.176C118.8 328.376 123.9 322.776 131.2 322.876C138.4 322.976 143.1 328.276 143.3 334.976C143.4 341.776 137.5 347.876 131.1 347.376Z" fill="#292524"/>
<path d="M144.3 163.176C144.5 169.576 138.9 175.376 131.9 175.276C124.9 175.176 119.8 169.576 119.9 162.776C120 156.476 125.4 150.576 132.5 150.676C138.8 150.876 144.8 156.976 144.3 163.176Z" fill="#292524"/>
<path d="M388.6 268.176C388.3 261.576 394.2 255.776 400.8 255.876C407.8 255.976 413 260.776 413.1 268.076C413.1 275.476 407.4 280.376 400.9 280.476C394.4 280.576 388.3 274.676 388.6 268.176Z" fill="#292524"/>
<path d="M286 116.076C279.5 116.676 273.8 110.576 273.8 103.876C273.8 97.8757 280 91.6757 286.1 91.6757C292.3 91.7757 298.4 97.4757 298.3 104.176C298 110.776 292.9 116.576 286 116.076Z" fill="#292524"/>
<path d="M406.1 228.076C412.8 227.676 418.1 233.676 418.1 240.276C418.1 246.376 412.6 252.376 405.8 252.376C399.6 252.376 393.6 246.076 393.7 239.976C393.8 233.876 399.5 227.376 406.1 228.076Z" fill="#292524"/>
<path d="M259 86.8757C265 86.2757 271.5 92.5757 271.4 99.0757C271.3 105.176 265.8 111.276 259.1 111.176C252.3 111.076 247 105.976 246.9 99.1757C246.8 92.2757 252.4 86.5757 259 86.8757Z" fill="#292524"/>
<path d="M395.9 308.076C389.1 308.476 383.9 302.776 383.8 295.976C383.7 289.376 389.8 283.776 396 283.676C402.4 283.676 408.3 289.976 408.2 295.876C408.2 302.576 402.7 308.676 395.9 308.076Z" fill="#292524"/>
<path d="M376.9 146.276C377.2 152.976 371.6 158.276 364.7 158.276C358.3 158.276 352.6 152.376 352.6 145.976C352.6 140.176 358.4 133.776 365 133.876C371.2 133.976 377.5 139.376 376.9 146.276Z" fill="#292524"/>
<path d="M120.2 302.376C120.3 308.676 114.8 314.476 107.8 314.276C101.2 314.076 95.9 308.776 96 301.776C96.1 295.476 101.7 289.776 108.4 289.876C114.4 289.876 120.8 295.876 120.2 302.376Z" fill="#292524"/>
<path d="M399.9 178.976C400.6 185.576 394 191.176 388 191.376C381.8 191.476 375.6 185.076 375.6 179.276C375.6 172.876 381.4 166.876 387.9 166.876C394.6 167.076 400.3 172.376 399.9 178.976Z" fill="#292524"/>
<path d="M154.1 379.976C147.5 380.576 141.9 374.076 141.9 367.876C141.9 362.076 148 355.676 154 355.676C160.1 355.676 166.3 361.376 166.2 367.976C166.1 374.576 160.8 380.376 154.1 379.976Z" fill="#292524"/>
<path d="M313.9 97.0757C320.1 96.2757 326.1 103.076 326.2 108.976C326.2 115.276 320.3 121.376 314 121.276C307.6 121.276 301.9 115.476 301.9 109.176C301.8 102.676 307.9 96.4757 313.9 97.0757Z" fill="#292524"/>
<path d="M391 311.176C397.6 310.776 403.2 317.376 403.1 323.176C403.1 328.976 396.9 335.376 390.9 335.276C385.2 335.176 378.8 329.676 379 322.976C379.1 316.576 384.5 310.876 391 311.176Z" fill="#292524"/>
<path d="M243 93.9757C243.5 100.876 236.7 106.176 231.1 106.176C225.7 106.276 218.9 100.976 218.9 94.0757C219 87.3757 225 81.9757 231.1 82.0757C237.2 82.1757 243.3 87.3757 243 93.9757Z" fill="#292524"/>
<path d="M182 111.976C182.3 118.976 175.9 124.076 170 124.076C164.2 124.076 158 119.076 158 112.076C158 105.176 163.7 100.176 169.9 100.176C176.5 100.076 182.1 105.576 182 111.976Z" fill="#292524"/>
<path d="M411 223.876C404.3 223.976 399 218.176 399 211.976C399 205.476 405.2 199.976 411 199.976C416.6 199.976 422.9 205.276 422.9 211.876C422.9 218.476 417.3 223.976 411 223.876Z" fill="#292524"/>
<path d="M342.2 373.976C342.2 366.976 348.4 361.976 354.1 362.076C360.9 362.176 366.2 368.176 365.9 374.176C365.6 380.576 361.3 385.776 354 385.876C347.2 385.976 342.3 380.776 342.2 373.976Z" fill="#292524"/>
<path d="M243.8 410.276C243.4 417.076 238.6 421.876 231.9 421.876C225 421.976 220 415.976 220 409.976C220 403.876 225.8 397.976 232.1 398.176C237.9 398.276 243.9 403.176 243.8 410.276Z" fill="#292524"/>
<path d="M321 385.176C327.5 385.276 333 390.576 332.8 397.176C332.7 403.876 327.6 408.876 321 408.876C314.4 408.976 309.3 403.476 309.2 397.176C309 390.776 314.6 385.276 321 385.176Z" fill="#292524"/>
<path d="M148.8 134.976C148.3 142.476 144 146.376 137.1 146.776C134 146.976 131.1 145.776 128.8 143.376C126.5 141.076 125.2 138.176 125.1 135.176C125 132.076 126.4 129.176 128.6 126.876C130.8 124.476 133.8 122.976 137 123.176C143.7 123.676 148.3 127.576 148.8 134.976Z" fill="#292524"/>
<path d="M107 214.376C106.4 217.076 105.9 220.076 103.4 222.276C101.1 224.476 98.2 225.876 95.2 225.876C92.1 225.876 89.2 224.576 86.9 222.376C84.5 220.076 83 217.076 83.2 213.976C83.7 207.276 87.6 202.376 95 202.376C102.6 202.476 106.2 207.276 107 214.376Z" fill="#292524"/>
<path d="M203.9 416.876C196.5 416.276 192.6 411.876 192.3 404.976C192.2 401.876 193.4 398.876 195.8 396.676C198.1 394.576 201 393.076 204.1 393.076C207.3 393.176 210.2 394.476 212.5 396.876C214.7 399.176 216.2 402.076 215.9 405.176C215.2 411.876 211.5 416.376 203.9 416.876Z" fill="#292524"/>
<path d="M90.6 229.176C93.1 229.676 95.9 230.276 98.2 232.576C100.6 234.976 101.8 237.876 102 240.976C102.4 246.876 96 253.176 90 252.876C83.2 252.476 78.5 248.076 78.5 240.976C78.4 234.176 83.4 229.576 90.6 229.176Z" fill="#292524"/>
<path d="M342.3 125.976C335 125.476 330.2 120.876 330.4 114.076C330.6 106.676 335.3 102.676 342.1 102.376C344.8 102.276 347.6 103.176 349.7 105.176C352.2 107.576 354 110.776 353.8 114.176C353.7 117.376 352.3 120.376 349.9 122.776C347.6 124.876 344.9 125.476 342.3 125.976Z" fill="#292524"/>
<path d="M260 426.876C253.1 426.376 248.3 421.876 248.3 415.076C248.3 408.376 253.4 403.376 260.1 403.476C266.6 403.476 271.7 408.776 271.6 415.076C271.7 421.776 266.6 426.376 260 426.876Z" fill="#292524"/>
<path d="M111.8 186.076C111.3 192.876 107.1 197.576 100.2 197.776C93.8 197.976 88.6 192.776 88.5 186.276C88.4 180.276 93 174.376 100.1 174.476C107.3 174.676 111.1 179.376 111.8 186.076Z" fill="#292524"/>
<path d="M103.2 318.576C109.8 318.576 114.6 323.976 114.7 329.976C114.8 336.376 109.7 341.776 103.2 341.676C96.3 341.576 91.6 337.076 91.6 330.076C91.6 323.576 95.8 318.776 103.2 318.576Z" fill="#292524"/>
<path d="M203.4 77.6757C210.3 77.8757 214.5 82.9757 214.4 89.4757C214.2 96.9757 208.4 100.576 203 100.676C199.8 100.776 196.9 99.2757 194.6 96.8757C192.4 94.6757 192.1 91.6757 191.4 88.8757C192.7 82.1757 195.6 77.7757 203.4 77.6757Z" fill="#292524"/>
<path d="M385.7 362.376C378.9 362.276 374.4 357.076 374.6 350.776C374.7 347.976 375.4 345.276 377.5 343.176C379.9 340.776 383 339.276 386.2 339.576C393.3 340.276 397.5 344.176 397.5 351.176C397.5 357.576 392.9 362.576 385.7 362.376Z" fill="#292524"/>
<path d="M177.3 388.776C184.1 388.876 188.7 394.076 188.4 400.376C188.3 403.176 187.6 405.876 185.5 407.976C183.1 410.376 180 411.876 176.8 411.576C169.8 410.876 165.5 407.076 165.5 399.976C165.4 393.676 170.1 388.576 177.3 388.776Z" fill="#292524"/>
<path d="M73.8 269.176C73.5 262.676 78.6 257.776 85.1 257.776C92 257.776 96.6 263.276 96.6 269.176C96.6 275.476 91.6 280.476 85.3 280.576C79.4 280.576 73.5 276.076 73.8 269.176Z" fill="#292524"/>
<path d="M393.2 139.776C398.5 139.176 404.5 145.276 404.3 151.176C404.2 156.676 399 162.376 392.8 162.376C387 162.376 381.5 156.776 381.6 150.776C381.7 145.476 387.4 138.976 393.2 139.776Z" fill="#292524"/>
<path d="M299.1 420.076C299.7 425.976 293.9 431.476 288.1 431.476C282.5 431.476 276.8 426.076 276.8 420.176C276.8 414.276 281.8 408.876 288 408.876C294.5 408.776 299.6 414.376 299.1 420.076Z" fill="#292524"/>
<path d="M126 374.276C119.6 374.476 114.8 369.476 114.9 362.976C115 356.276 120 351.876 126.3 351.976C132.5 352.076 137.3 356.476 137.3 363.176C137.2 369.576 132.5 374.576 126 374.276Z" fill="#292524"/>
<path d="M105.1 146.976C110.1 146.376 116.5 152.176 116.4 158.176C116.3 163.576 110.8 169.376 105.1 169.376C99.4 169.376 93.9 163.476 93.8 158.276C93.7 152.276 100 146.276 105.1 146.976Z" fill="#292524"/>
<path d="M358.9 118.976C358.5 114.076 363.7 107.876 370.1 107.976C375.8 108.076 381.2 113.376 381.2 119.176C381.2 125.176 375 130.376 369.9 130.276C364.4 130.176 358.4 124.776 358.9 118.976Z" fill="#292524"/>
<path d="M405 183.976C404.7 177.976 410.5 173.076 416 173.076C422.1 173.076 427.3 178.976 427.1 184.276C427 189.576 422 195.176 415.8 195.076C410.6 194.976 404.5 190.376 405 183.976Z" fill="#292524"/>
<path d="M302 75.9757C302.3 82.3757 296.6 86.9757 291.1 87.0757C284.7 87.0757 279.9 81.4757 279.9 76.1757C279.9 70.8757 284.7 65.1757 290.9 65.1757C296.6 65.0757 302.1 69.8757 302 75.9757Z" fill="#292524"/>
<path d="M434.9 299.976C435.4 306.076 429.1 311.176 424.1 311.176C418 311.276 413 305.476 412.8 300.276C412.6 295.276 417.6 288.976 423.8 288.976C429.5 288.976 435.2 294.276 434.9 299.976Z" fill="#292524"/>
<path d="M429.3 262.176C434.6 261.876 440.4 267.176 440.1 273.576C439.9 278.876 434.7 284.276 428.6 284.076C422.8 283.876 417.7 278.176 417.9 272.776C418 267.476 423 261.676 429.3 262.176Z" fill="#292524"/>
<path d="M80 307.976C74.4 308.276 69 303.076 69.1 296.976C69.1 290.776 74.7 286.076 80.2 286.176C86.3 286.176 91.3 291.876 91.2 297.176C91.2 302.176 86.3 308.376 80 307.976Z" fill="#292524"/>
<path d="M348.8 413.076C343.6 413.176 337.9 408.176 338 401.876C338.1 395.976 343.5 390.976 349.2 391.076C355.4 391.176 360.2 397.076 360 402.376C359.8 407.876 354.9 413.276 348.8 413.076Z" fill="#292524"/>
<path d="M263.2 60.1757C269.5 60.2757 274.1 65.2757 274 71.2757C273.9 77.6757 268.8 82.2757 262.8 82.0757C257 81.8757 252.2 77.7757 252.2 71.0757C252.1 65.0757 256.6 60.0757 263.2 60.1757Z" fill="#292524"/>
<path d="M138.2 395.076C138 389.476 142.6 384.076 149.1 384.076C155.3 384.076 160 389.276 160 395.076C160 401.476 154.7 406.076 149.1 406.076C143.4 406.176 138.1 401.576 138.2 395.076Z" fill="#292524"/>
<path d="M142.3 96.1757C148.5 96.4757 153 101.176 152.9 107.276C152.8 113.876 147.6 117.776 141.7 118.076C138.9 118.176 136.2 116.676 134.2 114.576C132.2 112.376 130.7 109.776 131.1 106.676C131.8 100.876 135.6 96.2757 142.3 96.1757Z" fill="#292524"/>
<path d="M444.8 245.176C444.4 251.576 439.5 256.076 433.7 255.876C427.6 255.576 423 251.676 423 245.076C423 238.876 427.6 234.276 433.9 234.276C440.3 234.176 444.6 239.476 444.8 245.176Z" fill="#292524"/>
<path d="M381 389.976C374.7 389.976 370 384.376 370.1 379.076C370.2 373.276 375.1 368.276 380.8 368.176C386.3 368.076 391.7 372.576 391.8 378.976C391.9 384.876 387.1 389.676 381 389.976Z" fill="#292524"/>
<path d="M318.9 91.8757C312.7 91.5757 308.1 87.2757 308.2 80.9757C308.3 74.5757 312.9 70.1757 319.2 70.3757C326.2 70.5757 328.9 74.9757 330.1 81.0757C328.9 87.1757 326 91.4757 318.9 91.8757Z" fill="#292524"/>
<path d="M164.3 84.0757C164.6 77.8757 169.3 73.3757 175.1 73.2757C177.7 73.2757 180.2 74.1757 182.2 76.0757C184.5 78.2757 185.9 81.0757 186 84.0757C186.1 86.7757 184.8 89.4757 182.8 91.5757C180.8 93.6757 178.2 95.0757 175.3 94.9757C169.5 94.7757 164.5 90.5757 164.3 84.0757Z" fill="#292524"/>
<path d="M429.8 327.976C429.8 333.576 424.7 338.776 419 338.876C413.3 338.876 408.2 333.876 408.2 328.176C408.1 322.576 413.3 316.976 418.9 317.376C425.6 317.776 428.9 321.276 429.8 327.976Z" fill="#292524"/>
<path d="M326.7 425.076C326.7 430.476 321.6 435.976 316.1 435.876C313.4 435.776 310.7 434.776 308.6 432.776C306.4 430.676 305.4 427.876 305.3 425.076C305.1 419.576 310.6 414.276 316 414.476C322.6 414.676 326.2 419.276 326.7 425.076Z" fill="#292524"/>
<path d="M236 55.4757C241.9 55.2757 246.6 60.7757 246.6 66.0757C246.6 72.0757 241.3 76.7757 236.1 76.7757C230.4 76.6757 225.4 72.1757 225.4 65.9757C225.4 60.4757 230 55.4757 236 55.4757Z" fill="#292524"/>
<path d="M109.1 119.476C114.6 119.376 119.7 124.176 119.6 129.876C119.6 132.476 118.7 135.076 116.8 137.176C114.7 139.476 112 140.476 109.1 140.376C103.5 140.176 98.7 136.576 98.6 130.076C98.6 123.876 103.2 119.976 109.1 119.476Z" fill="#292524"/>
<path d="M87.7 357.976C87.4 352.676 92.2 347.676 98.1 347.676C104.7 347.776 108.5 352.876 108.5 358.076C108.5 363.476 104.7 368.376 98.1 368.376C92.3 368.476 87.3 363.776 87.7 357.976Z" fill="#292524"/>
<path d="M227 427.776C232.1 427.176 237.4 432.476 237.4 437.976C237.4 443.876 232.3 448.376 227.2 448.376C221.8 448.376 216.9 443.876 216.8 438.076C216.7 432.676 221.5 427.276 227 427.776Z" fill="#292524"/>
<path d="M346.9 75.9757C352.4 75.6757 357.2 80.0757 357.3 86.0757C357.3 91.5757 352.5 96.3757 347.2 96.3757C341.2 96.4757 336.7 91.4757 336.7 85.9757C336.8 80.2757 341.1 75.7757 346.9 75.9757Z" fill="#292524"/>
<path d="M438.8 227.376C433.7 227.976 428.5 222.576 428.6 216.976C428.7 211.176 433.9 206.676 439.1 206.776C444.1 206.876 449.1 210.876 449.1 217.176C449.1 222.776 444.3 227.876 438.8 227.376Z" fill="#292524"/>
<path d="M199.8 443.276C193.8 443.176 190.1 438.876 189.8 432.676C189.6 427.676 195 422.576 200.5 422.676C205 422.776 210.6 427.876 210.5 433.276C210.3 437.776 205.3 444.176 199.8 443.276Z" fill="#292524"/>
<path d="M75 335.276C70 336.076 64.6 329.776 64.7 324.976C64.8 320.276 70 314.676 75.1 314.776C79.9 314.876 85.4 319.676 85.4 325.076C85.4 330.176 80 336.076 75 335.276Z" fill="#292524"/>
<path d="M61.9 247.176C56.5 247.776 51.7 241.876 51.7 236.976C51.8 231.976 56.5 226.876 62.3 226.976C67.6 227.076 72.4 231.876 72.3 237.376C72.3 241.976 67.9 247.876 61.9 247.176Z" fill="#292524"/>
<path d="M77.1 208.976C77.5 214.976 72.7 219.176 67.1 219.176C62 219.276 56.9 214.976 56.9 209.076C56.9 203.676 62 198.776 67 198.776C72.7 198.776 77.5 203.776 77.1 208.976Z" fill="#292524"/>
<path d="M120.9 401.176C116.1 401.776 110.8 396.276 110.8 390.876C110.8 385.776 116.3 380.476 121.4 380.776C126.3 381.076 131.3 385.676 131.2 391.176C131.1 395.976 126.8 401.776 120.9 401.176Z" fill="#292524"/>
<path d="M408.1 124.276C408.2 129.476 403.4 134.276 397.9 134.276C392.6 134.276 387.8 129.076 387.8 124.076C387.8 119.476 392.6 113.876 398.3 113.976C403.4 114.076 408.4 118.976 408.1 124.276Z" fill="#292524"/>
<path d="M420.9 145.976C426.5 145.476 431 151.076 431.1 155.976C431.1 161.476 426.3 166.076 421.1 166.276C416.4 166.476 410.7 161.376 410.8 156.076C410.7 150.976 416.1 145.376 420.9 145.976Z" fill="#292524"/>
<path d="M265.1 443.176C265.7 448.276 260.5 453.176 254.8 453.176C249.5 453.176 244.8 448.076 244.7 443.176C244.6 438.476 249.5 432.776 255.1 432.876C260.3 432.976 265.8 438.076 265.1 443.176Z" fill="#292524"/>
<path d="M82.1 181.076C82.6 186.576 76.8 191.276 72.1 191.276C67.4 191.276 61.9 186.376 62 181.076C62.1 175.476 67.1 170.876 72.1 170.976C77.3 170.976 82.4 175.576 82.1 181.076Z" fill="#292524"/>
<path d="M404 356.176C403.6 350.276 408.7 346.176 413.9 346.176C419.5 346.176 423.8 350.376 424 355.876C424.2 361.276 419.6 366.176 414 366.276C408.5 366.176 403.5 361.276 404 356.176Z" fill="#292524"/>
<path d="M57.2 254.076C61.7 253.476 67.5 259.276 67.3 264.276C67.1 269.476 61.4 274.376 57.1 274.276C52.1 274.076 47.1 269.476 47 263.976C47 259.676 51.8 253.576 57.2 254.076Z" fill="#292524"/>
<path d="M207.9 71.1757C202.8 71.3757 197.9 66.1757 198.1 60.8757C198.3 55.4757 202.8 51.0757 208.1 50.9757C212.4 50.8757 218.1 55.3757 218.1 61.1757C218.1 66.2757 212.4 71.7757 207.9 71.1757Z" fill="#292524"/>
<path d="M172 438.076C166.2 438.376 162.1 432.876 162.2 428.076C162.3 422.476 166.5 418.276 172.1 418.176C176.8 418.076 182.1 422.176 182.2 428.076C182.2 433.176 177.1 438.576 172 438.076Z" fill="#292524"/>
<path d="M292.8 448.076C292.5 453.976 288.6 457.776 283 457.976C277.8 458.076 273.1 453.576 273.1 447.976C273.1 443.076 277.6 438.076 283 438.176C288.8 438.276 292.6 442.676 292.8 448.076Z" fill="#292524"/>
<path d="M377 416.776C371 416.276 367.5 412.776 367.3 407.076C367.2 401.676 371.5 397.276 377 397.176C382.2 397.176 386.9 401.676 386.7 407.076C386.6 412.876 382.5 416.376 377 416.776Z" fill="#292524"/>
<path d="M444 179.376C449.1 179.476 453.7 183.976 453.7 189.076C453.8 194.176 448.9 199.176 443.8 198.876C437.9 198.576 434.2 194.776 434.2 189.176C434.2 183.376 437.9 179.876 444 179.376Z" fill="#292524"/>
<path d="M384.8 90.9757C384.6 96.1757 380.1 100.776 374.9 100.876C372.3 100.876 370 99.6757 368.2 97.8757C366.3 95.9757 365.2 93.5757 365.2 91.0757C365.2 88.6757 366.3 86.1757 368.1 84.2757C370 82.2757 372.5 81.1757 375.1 81.1757C377.5 81.1757 380 82.2757 381.9 84.1757C383.5 85.9757 384.8 88.8757 384.8 90.9757Z" fill="#292524"/>
<path d="M344.2 420.276C346.2 420.676 348.5 420.976 350.3 422.776C352.3 424.776 353.7 427.276 353.8 430.076C353.8 432.576 352.5 435.076 350.7 437.076C348.9 438.976 346.5 439.876 344.1 439.776C338.4 439.676 334.5 435.576 334.2 430.276C334 425.476 338 420.576 344.2 420.276Z" fill="#292524"/>
<path d="M86.9 152.976C86.6 158.576 82.9 162.676 77.3 162.776C71.5 162.876 67.6 158.976 67.5 153.376C67.4 147.376 71.1 143.576 77.1 143.476C82.7 143.376 86.3 147.176 86.9 152.976Z" fill="#292524"/>
<path d="M156.9 78.9757C156.6 84.1757 152.6 88.5757 147.2 88.8757C142.4 89.1757 137.3 84.1757 137.4 79.1757C137.5 76.7757 138.3 74.4757 140.1 72.4757C142 70.3757 144.5 69.4757 147.1 69.2757C151.8 68.9757 156.8 74.1757 156.9 78.9757Z" fill="#292524"/>
<path d="M153.3 423.076C153.5 428.376 149.5 432.476 144 432.476C138.8 432.476 134.6 428.376 134.7 422.976C134.8 417.576 138.7 413.776 144 413.776C149.6 413.776 153.4 417.476 153.3 423.076Z" fill="#292524"/>
<path d="M114.1 111.276C108.7 111.376 104.7 107.776 104.6 101.976C104.5 96.5757 109.1 92.6757 113.8 92.5757C119.1 92.5757 123.5 96.5757 123.3 102.076C123.3 107.776 119.7 111.276 114.1 111.276Z" fill="#292524"/>
<path d="M52.1 301.276C46.4 301.376 43 297.576 43 291.976C43 286.676 46.6 282.776 52.2 282.676C57.5 282.576 61.7 286.976 61.6 292.076C61.4 297.576 57.2 301.576 52.1 301.276Z" fill="#292524"/>
<path d="M418.1 384.176C418.3 389.476 414.4 393.076 409 393.176C404 393.276 399.6 389.176 399.6 383.976C399.6 379.076 404.5 374.576 409 374.676C413.7 374.876 418.6 378.776 418.1 384.176Z" fill="#292524"/>
<path d="M466 278.176C466.5 282.476 461.9 287.576 456.9 287.276C451.6 286.976 447.9 283.176 447.7 277.876C447.5 273.276 452.4 268.676 457.1 268.876C462 269.076 466.3 272.976 466 278.176Z" fill="#292524"/>
<path d="M189.2 56.1757C189.8 60.4757 185 65.3757 179.9 65.2757C175.5 65.2757 170.6 60.6757 170.8 55.8757C171 50.9757 175.1 46.7757 180.2 46.8757C185.2 47.0757 189.5 51.0757 189.2 56.1757Z" fill="#292524"/>
<path d="M460.9 305.176C461.2 310.476 456.7 314.176 452 314.276C447 314.376 442.5 309.676 442.7 304.976C443 299.876 446.9 296.076 451.9 295.776C456.5 295.576 461.5 300.176 460.9 305.176Z" fill="#292524"/>
<path d="M305 48.0757C305.4 53.1757 301 56.9757 296.2 57.1757C290.9 57.2757 286.9 52.3757 286.8 48.2757C286.7 43.6757 291.7 38.7757 296.1 38.8757C300.4 38.8757 305.6 43.0757 305 48.0757Z" fill="#292524"/>
<path d="M102.3 386.176C102.3 390.976 97.9 395.076 93 395.276C88.4 395.476 83.8 390.276 84 385.876C84.2 380.976 88.3 377.076 93.1 376.876C97.7 376.776 102.7 381.776 102.3 386.176Z" fill="#292524"/>
<path d="M79.2 353.076C79.7 357.776 74.3 362.376 69.9 362.176C65 361.976 61.1 358.076 60.9 353.076C60.8 348.976 65.2 343.676 70.2 343.976C75.1 344.176 79.2 348.176 79.2 353.076Z" fill="#292524"/>
<path d="M333 52.9757C333.3 58.3757 328.4 62.0757 323.9 62.1757C319.9 62.2757 314.6 58.3757 314.8 53.1757C315 48.1757 318.8 44.2757 323.7 43.8757C328.1 43.5757 333.6 48.5757 333 52.9757Z" fill="#292524"/>
<path d="M277.1 43.2757C277.9 47.5757 271.9 52.5757 267.8 52.3757C263.9 52.1757 258.8 48.2757 259 42.9757C259.2 38.3757 262.9 33.9757 268.2 34.1757C273.4 34.3757 277.1 37.9757 277.1 43.2757Z" fill="#292524"/>
<path d="M311 462.076C306.1 462.376 301.9 457.676 301.9 453.176C301.9 448.276 306 444.276 310.9 444.176C315.3 444.076 319.9 448.276 320 453.176C320.2 457.576 315.3 462.476 311 462.076Z" fill="#292524"/>
<path d="M470.9 250.276C471.2 254.776 466.7 259.176 461.8 259.176C457.9 259.176 452.8 255.076 452.9 249.976C452.9 245.976 457.5 240.976 462.2 241.076C466.5 241.076 471.4 245.576 470.9 250.276Z" fill="#292524"/>
<path d="M82 133.976C76.6 133.476 73.4 130.476 73.2 124.976C73 120.176 77.3 116.176 82.1 115.976C86.3 115.776 91.4 120.876 91.1 125.176C90.9 129.976 86.8 133.976 82 133.976Z" fill="#292524"/>
<path d="M438.1 333.076C437.9 328.776 441.7 324.276 446.9 324.076C452.1 323.876 456.2 329.176 456.1 333.276C455.9 338.076 451.8 341.976 446.9 342.076C441.7 342.176 437.7 337.076 438.1 333.076Z" fill="#292524"/>
<path d="M249.9 38.1757C249.6 43.2757 245.7 46.9757 240.8 47.0757C236.5 47.1757 231.7 42.2757 232 37.9757C232.3 33.1757 236 29.0757 241 29.2757C246.6 29.4757 249.3 32.4757 249.9 38.1757Z" fill="#292524"/>
<path d="M426 119.176C431 119.376 434.7 122.876 434.8 128.176C434.9 133.276 429.8 137.076 425.8 137.076C421.9 137.076 416.8 132.776 417 127.976C417.2 122.876 421.5 119.176 426 119.176Z" fill="#292524"/>
<path d="M360.7 57.9757C360.2 62.6757 357.3 66.4757 351.8 66.6757C347.3 66.8757 343.2 62.4757 343.2 57.9757C343.2 53.4757 347.4 49.1757 351.9 49.2757C357.2 49.5757 360.3 53.6757 360.7 57.9757Z" fill="#292524"/>
<path d="M448.9 169.576C443.2 169.076 440.5 166.376 440.3 160.976C440.1 155.976 444.1 152.476 448.9 152.376C453.4 152.276 457.7 156.076 457.5 160.976C457.4 166.076 454.3 169.276 448.9 169.576Z" fill="#292524"/>
<path d="M115.9 426.776C114 426.376 111.9 426.076 110.3 424.476C108.6 422.776 107.5 420.476 107.4 418.176C107.4 415.776 108.6 413.476 110.4 411.676C112 410.076 114 409.576 116 409.476C120.4 409.176 124.7 413.576 124.7 418.076C124.7 422.676 120.6 426.776 115.9 426.776Z" fill="#292524"/>
<path d="M55.6 320.276C55.8 325.576 50.6 328.876 47.1 328.676C43.1 328.576 38.5 325.476 38.7 319.876C38.9 313.976 42.7 311.576 47.2 311.576C51.7 311.576 55.6 314.576 55.6 320.276Z" fill="#292524"/>
<path d="M403.1 104.676C397.7 104.176 394.7 101.076 394.3 96.1757C394.1 93.8757 395.3 91.7757 396.9 90.0757C398.6 88.2757 400.9 87.3757 403 87.4757C405.2 87.4757 407.4 88.4757 409.1 90.1757C410.8 91.8757 411.4 94.0757 411.5 96.1757C411.7 100.676 407.6 104.576 403.1 104.676Z" fill="#292524"/>
<path d="M475.4 221.976C475.6 227.176 471.5 230.376 467.1 230.376C462.7 230.376 458.6 227.676 458.5 222.176C458.4 217.376 462.2 213.476 467 213.476C471.4 213.476 475.3 217.476 475.4 221.976Z" fill="#292524"/>
<path d="M230.4 466.076C230.2 471.176 227.1 474.376 222 474.476C217.2 474.576 213.6 470.876 213.5 466.076C213.4 461.476 217.3 457.576 221.9 457.576C226.7 457.676 230.3 461.176 230.4 466.076Z" fill="#292524"/>
<path d="M34 223.776C38.9 223.776 42.2 227.276 42.5 232.076C42.7 236.076 38.5 240.676 34.1 240.476C29.4 240.376 25.9 236.476 25.8 232.276C25.7 227.776 29.6 223.376 34 223.776Z" fill="#292524"/>
<path d="M203.2 461.076C203.4 465.376 200.2 469.476 194.9 469.376C189.7 469.276 186.8 465.676 186.7 461.076C186.5 456.476 190.3 452.576 194.9 452.476C199.5 452.476 203.7 456.876 203.2 461.076Z" fill="#292524"/>
<path d="M380.1 435.076C380.7 439.176 375.8 443.576 371.9 443.376C367.2 443.076 363.9 439.876 363.6 435.176C363.3 431.076 367.8 426.676 372 426.776C376.2 426.876 380.6 430.676 380.1 435.076Z" fill="#292524"/>
<path d="M39 195.976C43.7 195.576 47.3 199.576 47.3 204.076C47.3 208.276 44.4 212.376 39.1 212.376C34.2 212.376 30.9 209.176 30.9 204.276C30.8 198.876 34.9 195.676 39 195.976Z" fill="#292524"/>
<path d="M450.2 361.076C450.7 365.076 446.3 369.376 441.9 369.276C437.4 369.176 433.6 365.876 433.6 361.176C433.6 356.476 437.3 353.076 441.9 352.976C446.3 352.676 450.7 357.176 450.2 361.076Z" fill="#292524"/>
<path d="M249.9 479.276C245.6 479.776 241.7 475.076 241.8 470.976C241.9 466.976 245.3 462.676 250.1 462.876C254.7 463.076 258.2 466.476 258.2 471.176C258.2 475.576 254.4 479.276 249.9 479.276Z" fill="#292524"/>
<path d="M127.2 74.2757C127.2 78.6757 123.3 82.3757 118.8 82.2757C114.3 82.1757 111 78.5757 110.9 73.7757C110.8 69.2757 115 65.8757 119.2 65.8757C122.9 65.8757 127.8 69.6757 127.2 74.2757Z" fill="#292524"/>
<path d="M411.9 412.176C412.3 416.176 408.5 420.276 403.9 420.276C399.2 420.376 395.7 415.776 395.9 411.876C396.1 407.276 399.4 404.076 404.1 403.876C408.2 403.676 412.5 408.176 411.9 412.176Z" fill="#292524"/>
<path d="M167.1 463.976C163 464.276 159 460.676 158.9 456.076C158.8 451.376 163.3 447.976 167.1 448.076C171.7 448.176 175.1 451.576 175.3 456.076C175.4 460.376 170.9 464.476 167.1 463.976Z" fill="#292524"/>
<path d="M220.9 32.9757C220.9 37.8757 217.7 40.8757 213 41.1757C208.4 41.4757 204.8 36.7757 204.8 33.0757C204.8 29.0757 208.1 24.7757 212.8 24.8757C217.8 25.1757 220.9 28.1757 220.9 32.9757Z" fill="#292524"/>
<path d="M43.8 184.176C39.3 184.076 36.1 180.576 36 175.876C36 171.976 39.3 167.876 44.3 167.976C48.5 168.076 52.1 171.476 52.1 176.276C52.2 180.376 48 184.676 43.8 184.176Z" fill="#292524"/>
<path d="M159.9 51.0757C160.3 54.7757 156.4 59.1757 152 59.1757C147.5 59.1757 143.9 54.6757 144 51.0757C144.2 46.8757 147.4 42.9757 152 42.9757C156.6 43.0757 160 46.7757 159.9 51.0757Z" fill="#292524"/>
<path d="M29.1 251.176C32.6 250.876 37 254.376 37.1 258.876C37.2 263.676 32.4 267.076 29.1 266.976C25.1 266.776 21.1 263.776 21.1 259.176C21.1 254.476 25 251.176 29.1 251.176Z" fill="#292524"/>
<path d="M339 450.076C343.6 450.476 346.6 453.276 346.8 458.076C347 462.776 342.7 466.076 338.9 465.976C335.1 465.876 331 462.876 331.2 457.976C331.4 453.176 334.4 450.476 339 450.076Z" fill="#292524"/>
<path d="M464.1 194.776C464.1 190.076 467.9 186.176 471.8 186.176C475.7 186.176 479.8 190.176 479.8 194.076C479.8 197.776 475.4 202.276 471.8 202.076C469.7 201.976 467.9 200.876 466.4 199.476C464.9 198.076 464.2 196.076 464.1 194.776Z" fill="#292524"/>
<path d="M492.8 282.076C492.6 286.376 489.1 289.976 484.9 289.776C480.5 289.576 477.3 286.776 477.2 282.076C477.1 277.376 481 274.376 485.1 274.276C489.1 274.376 492.7 277.976 492.8 282.076Z" fill="#292524"/>
<path d="M87.1 104.776C82.4 104.276 79.7 101.776 79.4 97.0757C79.2 92.9757 83 89.2757 87 89.2757C91.1 89.2757 94.9 93.0757 94.9 97.1757C94.8 101.176 91.2 104.776 87.1 104.776Z" fill="#292524"/>
<path d="M308.8 20.1757C308.7 24.0757 304.7 27.9757 301 27.9757C297.4 27.9757 293.1 23.6757 293.2 20.0757C293.2 16.3757 297.4 12.2757 301.2 12.3757C305 12.3757 308.9 16.2757 308.8 20.1757Z" fill="#292524"/>
<path d="M387.7 62.9757C387.4 67.1757 384.5 70.7757 380.1 70.7757C375.8 70.8757 372.4 67.5757 372.4 63.0757C372.4 58.7757 375 55.5757 379.9 55.1757C383.8 55.0757 387.6 58.9757 387.7 62.9757Z" fill="#292524"/>
<path d="M270.3 476.176C270.2 472.076 273.9 468.376 278 468.376C282 468.376 285.7 472.076 285.7 476.076C285.7 480.076 281.9 483.976 278.1 483.976C274.3 483.976 270.4 480.076 270.3 476.176Z" fill="#292524"/>
<path d="M429.1 389.076C429.1 385.376 433.2 381.276 436.9 381.176C440.5 381.176 444.9 385.376 444.7 388.976C444.5 392.976 441.5 396.876 436.8 396.676C432.3 396.576 429.7 393.676 429.1 389.076Z" fill="#292524"/>
<path d="M65 373.276C69.3 373.476 72.6 377.076 72.8 380.976C72.9 384.876 69.1 388.776 65.1 388.776C61.3 388.776 57.3 385.476 57.3 381.076C57.4 376.876 60.6 373.776 65 373.276Z" fill="#292524"/>
<path d="M487.6 309.976C487.5 314.476 484.1 317.676 480 317.776C476 317.876 472.3 314.176 472.3 310.076C472.2 305.976 476.3 302.476 479.8 302.376C483.1 302.276 487.5 305.276 487.6 309.976Z" fill="#292524"/>
<path d="M146.8 450.976C146.9 454.976 143.5 458.576 139.3 458.576C137.4 458.576 135.6 458.176 134 456.776C132.3 455.276 131.5 453.076 131.4 451.176C131.3 449.376 132.1 447.376 133.6 445.876C135.2 444.276 137.1 443.576 139.1 443.476C143.1 443.276 146.7 446.976 146.8 450.976Z" fill="#292524"/>
<path d="M272.9 22.5757C268.7 22.6757 265.4 19.0757 265.6 14.9757C265.7 10.7757 268.5 7.4757 273.1 7.5757C277.2 7.6757 280.8 11.1757 280.5 15.0757C280.3 18.8757 277.6 22.7757 272.9 22.5757Z" fill="#292524"/>
<path d="M56.7 148.076C56.4 152.576 53.6 155.576 49 155.676C45.2 155.776 41.1 151.876 41.4 148.076C41.7 144.176 44.5 140.276 49.2 140.376C53.1 140.576 56.6 143.576 56.7 148.076Z" fill="#292524"/>
<path d="M42 340.876C45.5 340.576 49.5 343.176 49.4 347.976C49.4 352.576 46.2 355.176 42.1 355.276C37.9 355.376 34.8 352.176 34.7 348.176C34.6 343.776 38.4 340.576 42 340.876Z" fill="#292524"/>
<path d="M31.4 287.076C31.7 291.076 28.5 294.276 24.2 294.376C19.9 294.576 16.8 290.576 16.7 287.176C16.5 283.076 20.6 279.776 24 279.776C27.7 279.876 31.8 282.676 31.4 287.076Z" fill="#292524"/>
<path d="M95.2 413.176C95.3 416.976 92.6 420.576 87.9 420.376C83.8 420.176 80.9 417.576 80.8 413.076C80.7 408.176 84.3 405.976 88.2 405.876C92.7 405.876 95.5 409.176 95.2 413.176Z" fill="#292524"/>
<path d="M192.2 28.1757C192.2 32.2757 189.1 35.2757 185 35.2757C180.7 35.2757 177.9 32.2757 177.9 27.8757C177.9 23.7757 181 20.7757 185.2 20.8757C189.1 20.8757 192.2 24.1757 192.2 28.1757Z" fill="#292524"/>
<path d="M391.9 440.076C391.7 435.876 394.8 432.976 398.9 432.876C403.4 432.776 406 436.376 406.1 439.976C406.2 443.976 402.9 447.276 399 447.176C395.3 447.176 391.6 444.476 391.9 440.076Z" fill="#292524"/>
<path d="M430.9 94.1757C434.3 93.5757 438.3 97.6757 438.2 101.276C438.1 104.376 434.5 108.476 431 108.376C427.3 108.276 423.5 104.776 423.7 101.276C423.9 96.9757 426.6 94.1757 430.9 94.1757Z" fill="#292524"/>
<path d="M117 46.0757C116.4 42.2757 120.8 38.6757 124.1 38.8757C128 39.0757 131 41.9757 131.1 45.9757C131.1 50.2757 128.3 52.9757 124.1 53.1757C120.2 53.3757 116.6 49.7757 117 46.0757Z" fill="#292524"/>
<path d="M454.1 139.976C451 140.276 447 137.276 446.9 133.276C446.9 129.076 450.5 126.176 453.9 126.076C457.3 125.876 460.8 129.176 460.9 132.976C461 136.876 457.2 140.376 454.1 139.976Z" fill="#292524"/>
<path d="M496.7 255.076C496.7 258.676 493.3 262.176 489.8 262.176C486.4 262.176 482.9 258.476 482.8 255.076C482.7 251.476 487 247.876 489.8 247.976C493.5 248.076 496.7 251.376 496.7 255.076Z" fill="#292524"/>
<path d="M373.9 462.976C374.1 467.276 370.1 469.876 367.1 469.976C363.5 470.076 360.2 467.076 360.1 463.076C360 459.276 363.2 456.076 366.9 456.076C370 456.176 374 458.876 373.9 462.976Z" fill="#292524"/>
<path d="M306 487.976C302.2 488.276 298.9 484.076 298.9 481.076C299 477.876 302.2 474.076 305.9 474.076C308.9 474.076 313 477.176 312.9 480.976C312.9 484.776 309.8 487.876 306 487.976Z" fill="#292524"/>
<path d="M329 31.8757C325.5 31.7757 322.1 28.8757 322.1 25.0757C322.2 21.0757 325.3 18.2757 329.1 18.1757C332.5 18.0757 336.1 21.6757 335.9 25.0757C335.6 28.5757 333.1 31.6757 329 31.8757Z" fill="#292524"/>
<path d="M61 119.976C60.7 123.676 58.2 126.576 54.2 126.776C50.8 126.976 47.3 123.376 47.3 119.976C47.3 116.676 50.7 113.276 54.1 113.176C57.3 113.176 60.9 116.576 61 119.976Z" fill="#292524"/>
<path d="M482.7 166.076C482.3 170.076 479.6 172.776 475.8 172.876C472.4 172.976 469 169.276 469.1 165.876C469.2 162.476 472.6 159.076 475.9 159.076C479.3 159.176 482.7 162.676 482.7 166.076Z" fill="#292524"/>
<path d="M25.9 315.276C25.8 318.376 22.2 322.076 19.1 322.076C15.9 322.076 12.2 318.276 12.3 314.976C12.4 311.576 16 307.776 19.2 308.176C23 308.576 25.8 311.376 25.9 315.276Z" fill="#292524"/>
<path d="M104.3 446.076C104.3 442.576 107.6 439.176 111.1 439.176C114.4 439.176 118 442.676 117.9 446.076C117.9 449.676 114.6 452.876 111 452.776C107.4 452.676 104.3 449.576 104.3 446.076Z" fill="#292524"/>
<path d="M414.3 68.3757C414.6 71.7757 411 74.5757 407.5 74.3757C404 74.1757 401.5 71.8757 401.7 67.9757C401.8 64.0757 403.9 61.7757 407.9 61.6757C411.6 61.5757 414.7 64.8757 414.3 68.3757Z" fill="#292524"/>
<path d="M90.8 75.1757C87.6 75.4757 84.6 72.4757 84.9 68.6757C85.2 65.1757 87.8 62.6757 91.4 62.6757C94.2 62.6757 97.5 65.4757 97.4 69.2757C97.3 72.9757 94 75.5757 90.8 75.1757Z" fill="#292524"/>
<path d="M245 3.9757C248.5 3.5757 251.2 6.8757 251.3 9.8757C251.4 13.2757 248.4 16.4757 245.1 16.4757C242 16.4757 238.8 13.1757 238.8 10.1757C238.6 6.7757 241.9 3.5757 245 3.9757Z" fill="#292524"/>
<path d="M481 338.176C481 341.776 478.6 343.876 474.8 344.176C471.5 344.376 468.5 341.176 468.8 338.076C469 334.376 471.4 331.876 475.1 331.976C478.5 331.976 481 334.676 481 338.176Z" fill="#292524"/>
<path d="M488 227.076C487.7 223.676 490.8 221.076 493.9 221.076C497.2 221.176 499.9 223.676 500 227.076C500 229.676 497.4 233.176 494 233.076C490.6 232.976 488 230.476 488 227.076Z" fill="#292524"/>
<path d="M357 24.1757C360.6 24.5757 362.6 26.4757 362.8 30.0757C362.9 33.2757 360.1 35.9757 356.9 35.9757C353.9 35.9757 350.9 32.9757 351 29.9757C351.1 26.8757 353.8 24.1757 357 24.1757Z" fill="#292524"/>
<path d="M469.2 372.376C466.1 372.276 464.1 370.376 463.7 366.676C463.4 364.076 465 360.976 467.2 360.276C470.8 359.176 474.3 360.276 475.6 362.776C475.9 363.376 475.9 363.576 475.5 364.176C474.8 365.276 474.3 366.376 473.3 367.276C472.7 367.876 472 369.076 471.8 370.276C471.5 371.776 470.5 372.376 469.2 372.376Z" fill="#292524"/>
<path d="M218.1 12.1757C213.8 12.3757 211.1 8.2757 212.3 3.9757C212.7 2.4757 213.3 2.1757 214.9 2.1757C216 2.1757 217.1 2.1757 218.2 2.1757C218.8 2.1757 219.4 2.1757 219.9 1.6757C220.7 0.875702 221.6 1.1757 222.3 1.9757C224 3.7757 224.4 5.8757 223.7 8.1757C222.9 10.6757 220.8 12.0757 218.1 12.1757Z" fill="#292524"/>
<path d="M163 23.9757C163.1 26.6757 160 29.9757 157.2 29.8757C153.6 29.7757 151.8 27.5757 151.3 24.2757C151.1 22.6757 151.9 21.3757 152.8 20.1757C153.9 18.6757 155.8 18.6757 157.2 18.3757C159.7 17.8757 162.9 21.2757 163 23.9757Z" fill="#292524"/>
<path d="M23.1 171.276C23.1 175.476 18.8 178.976 14.7 178.176C13.7 177.976 13.3 177.176 12.5 176.776C12.3 176.676 12.3 176.276 12.5 176.176C13.3 175.776 12.9 174.876 13.2 174.376C14 172.976 14.1 171.376 14.7 169.876C15.2 168.476 16 167.076 16.1 165.576C16.2 163.976 16.9 163.576 18.4 164.276C20.8 165.176 23.5 168.676 23.1 171.276Z" fill="#292524"/>
<path d="M2.1 229.576C2.2 228.676 2 227.776 2.8 226.976C3.5 226.176 3.1 224.776 3.1 223.676C3.2 221.376 3.4 221.276 5.7 220.976C8.6 220.676 10.3 222.276 11.8 224.276C12.7 225.376 12.2 228.876 11.4 230.176C10 232.376 8.2 233.476 5.5 233.176C2.7 232.976 2.1 232.476 2.1 229.576Z" fill="#292524"/>
<path d="M190.2 482.976C192.8 482.676 194.3 484.476 195.6 486.476C196.6 488.076 196.1 491.676 194.7 492.976C194.3 493.376 193.7 494.476 192.9 493.276C192.6 492.876 192 493.076 191.5 493.076C190.5 493.076 189.5 493.276 188.7 492.276C188.4 491.976 187.5 492.076 186.9 492.076C184.7 491.976 184 491.276 184 489.076C183.9 485.776 186.6 482.976 190.2 482.976Z" fill="#292524"/>
<path d="M67.2 409.076C67.3 411.576 66 413.276 64.2 414.676C63.7 415.076 63.4 414.976 63 414.476C61.6 412.776 59.6 411.676 58.8 409.376C58.4 408.276 57 407.476 56.1 406.476C54.8 405.076 54.9 403.976 56.4 403.076C58.7 401.776 61 401.476 63.4 402.876C65.7 404.376 67.1 406.276 67.2 409.076Z" fill="#292524"/>
<path d="M431.9 422.476C428.3 422.376 426.7 420.076 426.4 417.076C426.1 414.476 429.4 411.276 431.9 411.276C434.5 411.276 437.7 414.576 437.5 417.076C437.3 419.476 435.1 422.576 431.9 422.476Z" fill="#292524"/>
<path d="M245.1 499.976C243.2 499.976 241.3 499.976 239.3 499.976C238.3 499.976 237.9 499.676 237.9 498.576C237.7 495.176 241 492.376 243.6 492.076C247.2 491.576 249.9 492.876 251.6 496.176C251.6 496.276 251.7 496.276 251.7 496.376C252 497.376 252.3 498.476 251.9 499.376C251.5 500.376 250.4 499.876 249.5 499.876C248.1 500.076 246.6 499.976 245.1 499.976Z" fill="#292524"/>
<path d="M217.5 488.776C220.4 488.476 221.8 489.976 223 491.676C223.9 493.076 223.4 496.476 222.3 497.476C221.6 498.176 221 499.276 219.4 498.176C218.6 497.576 217.1 498.076 215.9 497.976C213.8 497.976 213.4 497.576 212.9 495.376C212.5 493.176 212.9 491.476 214.5 489.776C215.7 488.776 216.8 488.976 217.5 488.776Z" fill="#292524"/>
<path d="M11.3 193.876C14.3 193.976 16 195.576 16.1 198.576C16.2 200.576 15.9 202.276 14.1 203.576C11.9 205.076 7.7 204.376 6.6 201.976C6.1 201.076 5.9 199.876 6.7 199.076C7.3 198.476 7.2 197.976 7.2 197.376C7.3 194.776 8 194.076 10.6 193.876C10.8 193.876 11.1 193.876 11.3 193.876Z" fill="#292524"/>
<path d="M39.6 382.076C37.9 380.376 37 378.576 36 376.676C35.3 375.476 34.3 374.276 33.5 372.976C32.8 371.876 33.2 370.776 34.4 370.276C37.2 369.076 41.2 370.376 42.8 372.976C44.2 375.176 43.5 379.176 41.3 380.676C40.7 381.076 40.2 381.576 39.6 382.076Z" fill="#292524"/>
<path d="M64.9 92.0757C64.7 94.0757 63.9 95.8757 62.1 96.9757C60.2 98.1757 58.2 98.1757 56.2 96.9757C55.1 96.3757 54.9 95.2757 55.6 94.1757C55.7 93.9757 55.9 93.7757 56.1 93.6757C57.9 91.8757 59.2 89.5757 61 87.6757C61.6 87.0757 62 86.8757 62.5 87.3757C63.7 88.6757 64.7 90.1757 64.9 92.0757Z" fill="#292524"/>
<path d="M330.1 487.976C327.9 488.076 328 488.076 327.9 486.276C327.7 483.276 329.7 481.176 332.3 480.376C335.2 479.476 338.3 480.976 339.5 483.576C339.9 484.276 340.1 484.776 338.8 485.276C336.9 486.076 335 486.776 333 487.076C331.9 487.176 331.2 488.776 330.1 487.976Z" fill="#292524"/>
<path d="M2.6 261.776C2 261.176 2.1 260.476 2.1 259.876C2.1 256.676 2.1 253.476 2.1 250.376C2.1 248.176 2.5 248.076 4.3 249.176C6.4 250.376 8 252.276 8.1 254.976C8.2 257.676 6.8 259.576 4.6 260.976C4 261.176 3.3 261.376 2.6 261.776Z" fill="#292524"/>
<path d="M156.3 481.676C158.9 476.976 165.1 476.676 167.8 481.276C168.5 482.476 168.5 484.076 168.2 485.476C167.9 486.476 166.8 486.376 166.5 485.976C165.3 484.776 163.6 485.176 162.3 484.276C160.5 482.976 158.2 482.776 156.3 481.676Z" fill="#292524"/>
<path d="M460.6 111.776C457.2 113.076 454.4 112.276 452.6 109.376C451.5 107.576 451.5 103.976 452.8 102.476C453.6 101.576 454.5 101.676 454.8 102.776C455 103.476 455.4 103.776 455.8 104.176C456.7 105.176 457.5 106.276 458.1 107.476C458.9 108.976 460.1 110.176 460.6 111.776Z" fill="#292524"/>
<path d="M498.1 202.376C498 202.976 498.4 203.976 497.6 204.276C496.7 204.576 496 204.176 495.3 203.476C492.9 201.376 492.6 197.576 494.7 195.176C495 194.876 495.3 194.476 495.9 194.776C496.4 195.076 496.9 195.176 496.8 195.876C496.8 196.776 496.8 197.576 496.8 198.476C496.8 198.876 496.8 199.476 497 199.576C498.4 200.176 498 201.376 498.1 202.376Z" fill="#292524"/>
<path d="M386.8 38.6757C386.7 39.2757 385.4 40.0757 384.7 39.8757C382.8 39.2757 381.1 38.3757 380.4 36.2757C380.3 35.9757 380.1 35.6757 380.5 35.4757C380.9 35.2757 381.4 35.0757 381.6 35.3757C382.8 36.9757 384.7 37.4757 386.4 38.1757C386.7 38.2757 386.8 38.4757 386.8 38.6757Z" fill="#292524"/>
<path d="M21 343.076C20.9 343.676 20.9 344.176 20.4 344.076C20 344.076 19.2 344.076 19.3 343.476C19.6 342.076 18.4 341.176 18.3 339.976C18.3 339.476 18.1 339.176 17.5 338.976C16.8 338.676 16.9 338.076 17.3 337.576C17.8 336.976 18 337.576 18.4 337.876C20.4 339.076 20.3 341.376 21 343.076Z" fill="#292524"/>
<path d="M88.6 439.876C87.2 438.276 85.5 437.276 83.7 436.176C83.3 435.976 83 435.776 83.2 435.276C83.3 434.976 83.7 434.976 84 434.976C86.1 434.876 88.6 437.376 88.6 439.876Z" fill="#292524"/>
<path d="M270.3 499.276C271.5 498.776 272.7 498.376 274 498.776C274.4 498.876 274.8 498.976 274.7 499.476C274.7 499.876 274.3 499.876 274 499.876C272.8 499.876 271.6 499.876 270.3 499.876C270.4 499.776 270.3 499.476 270.3 499.276Z" fill="#292524"/>
<path d="M24.5 146.576C24.3 144.976 25.4 143.776 25.4 141.776C26.4 144.276 26.4 144.676 24.5 146.576Z" fill="#292524"/>
<path d="M191.9 7.4757C191.1 7.9757 190.2 7.9757 189 7.7757C190 6.5757 191 7.1757 191.9 7.4757Z" fill="#292524"/>
<path d="M459.8 390.276C459.8 390.676 459.7 390.976 459.3 390.976C458.9 390.976 458.8 390.676 458.8 390.376C458.9 389.976 459 389.476 459.5 389.576C459.8 389.576 459.8 389.976 459.8 390.276Z" fill="#292524"/>
</svg>
