<svg width="500" height="500" viewBox="0 0 500 500" fill="none" xmlns="http://www.w3.org/2000/svg">
<path d="M112.5 387.5H125V400H112.5V387.5Z" fill="#292524"/>
<path d="M25 337.5H37.5V350H25V337.5Z" fill="#292524"/>
<path d="M0 350H12.5V362.5H0V350Z" fill="#292524"/>
<path d="M62.5 362.5H75V375H62.5V362.5Z" fill="#292524"/>
<path d="M87.5 362.5H100V375H87.5V362.5Z" fill="#292524"/>
<path d="M37.5 362.5H50V375H37.5V362.5Z" fill="#292524"/>
<path d="M87.5 412.5H100V425H87.5V412.5Z" fill="#292524"/>
<path d="M337.5 412.5H350V425H337.5V412.5Z" fill="#292524"/>
<path d="M162.5 412.5H175V425H162.5V412.5Z" fill="#292524"/>
<path d="M412.5 412.5H425V425H412.5V412.5Z" fill="#292524"/>
<path d="M112.5 362.5H125V375H112.5V362.5Z" fill="#292524"/>
<path d="M50 287.5H62.5V300H50V287.5Z" fill="#292524"/>
<path d="M0 312.5H12.5V325H0V312.5Z" fill="#292524"/>
<path d="M0 375H12.5V387.5H0V375Z" fill="#292524"/>
<path d="M75 375H87.5L87.5 387.5H75L75 375Z" fill="#292524"/>
<path d="M100 425L112.5 425V437.5H100L100 425Z" fill="#292524"/>
<path d="M62.5 325H75V337.5H62.5V325Z" fill="#292524"/>
<path d="M100 325H112.5V337.5H100V325Z" fill="#292524"/>
<path d="M0 250H12.5V262.5H0V250Z" fill="#292524"/>
<path d="M87.5 235.5H100V248H87.5V235.5Z" fill="#292524"/>
<path d="M112.5 131.25H125V143.75H112.5V131.25Z" fill="#292524"/>
<path d="M143.75 43.75H156.25V56.25H143.75V43.75Z" fill="#292524"/>
<path d="M37.5 95.8333H50V108.333H37.5V95.8333Z" fill="#292524"/>
<path d="M0 43.75H12.5V56.25H0V43.75Z" fill="#292524"/>
<path d="M75 13.3333H87.5V25.8333H75V13.3333Z" fill="#292524"/>
<path d="M193.75 81.25H206.25V93.75H193.75V81.25Z" fill="#292524"/>
<path d="M225 0H237.5V12.5H225V0Z" fill="#292524"/>
<path d="M193.75 169.167H206.25V181.667H193.75V169.167Z" fill="#292524"/>
<path d="M237.5 118.75H250V131.25H237.5V118.75Z" fill="#292524"/>
<path d="M75 181.667H87.5V194.167H75V181.667Z" fill="#292524"/>
<path d="M50 250H62.5V262.5H50V250Z" fill="#292524"/>
<path d="M75 350H87.5L87.5 362.5H75L75 350Z" fill="#292524"/>
<path d="M12.5 275H25V287.5H12.5V275Z" fill="#292524"/>
<path d="M75 275H87.5V287.5H75V275Z" fill="#292524"/>
<path d="M25 400H37.5V412.5H25V400Z" fill="#292524"/>
<path d="M100 400L112.5 400L112.5 412.5H100L100 400Z" fill="#292524"/>
<path d="M25 300H37.5V312.5H25V300Z" fill="#292524"/>
<path d="M25 212.5H37.5V225H25V212.5Z" fill="#292524"/>
<path d="M87.5 300H100V312.5H87.5V300Z" fill="#292524"/>
<path d="M237.5 387.5H250V400H237.5V387.5Z" fill="#292524"/>
<path d="M150 337.5H162.5V350H150V337.5Z" fill="#292524"/>
<path d="M187.5 362.5H200V375H187.5V362.5Z" fill="#292524"/>
<path d="M212.5 362.5H225V375H212.5V362.5Z" fill="#292524"/>
<path d="M162.5 362.5H175V375H162.5V362.5Z" fill="#292524"/>
<path d="M237.5 362.5H250V375H237.5V362.5Z" fill="#292524"/>
<path d="M175 287.5H187.5V300H175V287.5Z" fill="#292524"/>
<path d="M125 312.5H137.5V325H125V312.5Z" fill="#292524"/>
<path d="M125 375H137.5V387.5H125V375Z" fill="#292524"/>
<path d="M200 375H212.5L212.5 387.5H200L200 375Z" fill="#292524"/>
<path d="M125 425H137.5V437.5H125V425Z" fill="#292524"/>
<path d="M225 425H237.5V437.5H225V425Z" fill="#292524"/>
<path d="M212.5 412.5H225L225 425L212.5 425V412.5Z" fill="#292524"/>
<path d="M187.5 325H200V337.5H187.5V325Z" fill="#292524"/>
<path d="M225 325H237.5V337.5H225V325Z" fill="#292524"/>
<path d="M125 250H137.5V262.5H125V250Z" fill="#292524"/>
<path d="M212.5 250H225V262.5H212.5V250Z" fill="#292524"/>
<path d="M175 235.5H187.5V248H175V235.5Z" fill="#292524"/>
<path d="M200 350H212.5L212.5 362.5H200L200 350Z" fill="#292524"/>
<path d="M137.5 275H150V287.5H137.5V275Z" fill="#292524"/>
<path d="M200 275H212.5V287.5H200V275Z" fill="#292524"/>
<path d="M137.5 400H150V412.5H137.5V400Z" fill="#292524"/>
<path d="M225 400L237.5 400L237.5 412.5H225L225 400Z" fill="#292524"/>
<path d="M150 300H162.5V312.5H150V300Z" fill="#292524"/>
<path d="M150 212.5H162.5V225H150V212.5Z" fill="#292524"/>
<path d="M212.5 300H225V312.5H212.5V300Z" fill="#292524"/>
<path d="M225 212.5H237.5V225H225V212.5Z" fill="#292524"/>
<path d="M362.5 387.5H375V400H362.5V387.5Z" fill="#292524"/>
<path d="M275 337.5H287.5V350H275V337.5Z" fill="#292524"/>
<path d="M312.5 362.5H325V375H312.5V362.5Z" fill="#292524"/>
<path d="M337.5 362.5H350V375H337.5V362.5Z" fill="#292524"/>
<path d="M287.5 362.5H300V375H287.5V362.5Z" fill="#292524"/>
<path d="M362.5 362.5H375V375H362.5V362.5Z" fill="#292524"/>
<path d="M300 287.5H312.5V300H300V287.5Z" fill="#292524"/>
<path d="M250 312.5H262.5V325H250V312.5Z" fill="#292524"/>
<path d="M250 375H262.5V387.5H250V375Z" fill="#292524"/>
<path d="M325 375H337.5L337.5 387.5H325V375Z" fill="#292524"/>
<path d="M350 425L362.5 425V437.5H350V425Z" fill="#292524"/>
<path d="M312.5 325H325V337.5H312.5V325Z" fill="#292524"/>
<path d="M350 325H362.5V337.5H350V325Z" fill="#292524"/>
<path d="M250 250H262.5V262.5H250V250Z" fill="#292524"/>
<path d="M337.5 235.5H350V248H337.5V235.5Z" fill="#292524"/>
<path d="M362.5 131.25H375V143.75H362.5V131.25Z" fill="#292524"/>
<path d="M393.75 43.75H406.25V56.25H393.75V43.75Z" fill="#292524"/>
<path d="M287.5 95.8333H300V108.333H287.5V95.8333Z" fill="#292524"/>
<path d="M250 43.75H262.5V56.25H250V43.75Z" fill="#292524"/>
<path d="M325 13.3333H337.5V25.8333H325V13.3333Z" fill="#292524"/>
<path d="M443.75 81.25H456.25V93.75H443.75V81.25Z" fill="#292524"/>
<path d="M475 0H487.5V12.5H475V0Z" fill="#292524"/>
<path d="M443.75 169.167H456.25V181.667H443.75V169.167Z" fill="#292524"/>
<path d="M487.5 118.75H500V131.25H487.5V118.75Z" fill="#292524"/>
<path d="M325 181.667H337.5V194.167H325V181.667Z" fill="#292524"/>
<path d="M300 250H312.5V262.5H300V250Z" fill="#292524"/>
<path d="M325 350H337.5L337.5 362.5H325V350Z" fill="#292524"/>
<path d="M262.5 275H275V287.5H262.5V275Z" fill="#292524"/>
<path d="M325 275H337.5V287.5H325V275Z" fill="#292524"/>
<path d="M350 400L362.5 400L362.5 412.5H350V400Z" fill="#292524"/>
<path d="M275 300H287.5V312.5H275V300Z" fill="#292524"/>
<path d="M275 212.5H287.5V225H275V212.5Z" fill="#292524"/>
<path d="M337.5 300H350V312.5H337.5V300Z" fill="#292524"/>
<path d="M487.5 387.5H500V400H487.5V387.5Z" fill="#292524"/>
<path d="M400 337.5H412.5V350H400V337.5Z" fill="#292524"/>
<path d="M437.5 362.5H450V375H437.5V362.5Z" fill="#292524"/>
<path d="M462.5 362.5H475V375H462.5V362.5Z" fill="#292524"/>
<path d="M412.5 362.5H425V375H412.5V362.5Z" fill="#292524"/>
<path d="M487.5 362.5H500V375H487.5V362.5Z" fill="#292524"/>
<path d="M425 287.5H437.5V300H425V287.5Z" fill="#292524"/>
<path d="M375 312.5H387.5V325H375V312.5Z" fill="#292524"/>
<path d="M375 375H387.5V387.5H375V375Z" fill="#292524"/>
<path d="M450 375H462.5L462.5 387.5H450V375Z" fill="#292524"/>
<path d="M375 425H387.5V437.5H375V425Z" fill="#292524"/>
<path d="M475 425H487.5V437.5H475V425Z" fill="#292524"/>
<path d="M437.5 325H450V337.5H437.5V325Z" fill="#292524"/>
<path d="M475 325H487.5V337.5H475V325Z" fill="#292524"/>
<path d="M375 250H387.5V262.5H375V250Z" fill="#292524"/>
<path d="M462.5 250H475V262.5H462.5V250Z" fill="#292524"/>
<path d="M425 250H437.5V262.5H425V250Z" fill="#292524"/>
<path fill-rule="evenodd" clip-rule="evenodd" d="M37.5 425H25V437.5H12.5V450H0V475H12.5V487.5H0V500H25V487.5H37.5V500H75V487.5H87.5V500H100V487.5H112.5V500H150V487.5H162.5V500H200V487.5H212.5V500H225V487.5H237.5V500H275V487.5H287.5V500H325V487.5H337.5V500H350V487.5H362.5V500H400V487.5H412.5V500H450V487.5H462.5V500H475V487.5H487.5V500H500V487.5H487.5L487.5 475H500V462.5H487.5L487.5 450H500V437.5H487.5L487.5 450H475V437.5H462.5V425H450V437.5H437.5V450H425V437.5H412.5V425L400 425L400 437.5H387.5V450H375V437.5H362.5L362.5 450H350V437.5H337.5L337.5 425L325 425V437.5H312.5V450H300V437.5H287.5L287.5 425H275L275 437.5H262.5V450H250V437.5H237.5L237.5 450H225L225 437.5H212.5L212.5 425L200 425L200 437.5H187.5V450H175V437.5H162.5L162.5 425L150 425L150 437.5H137.5V450H125V437.5H112.5L112.5 450H100L100 437.5H87.5L87.5 425L75 425L75 437.5H62.5V450H50V437.5H37.5V425ZM50 450V462.5H37.5V450H50ZM62.5 450H75V462.5H62.5V450ZM112.5 450L112.5 462.5H125V450H112.5ZM175 450V462.5H162.5V450H175ZM187.5 450H200V462.5H187.5V450ZM237.5 450V462.5H250V450H237.5ZM300 450V462.5H287.5V450H300ZM312.5 450H325V462.5H312.5V450ZM362.5 450L362.5 462.5H375V450H362.5ZM425 450V462.5H412.5V450H425ZM437.5 450H450V462.5H437.5V450ZM450 487.5H425V475H450V487.5ZM387.5 475V487.5H362.5L362.5 475H387.5ZM387.5 475V462.5H400V475H387.5ZM325 487.5H300V475H325V487.5ZM262.5 475V487.5H237.5V475H262.5ZM262.5 475V462.5H275V475H262.5ZM200 487.5H175V475H200V487.5ZM137.5 475V487.5H112.5L112.5 475H137.5ZM137.5 475V462.5H150V475H137.5ZM75 487.5H50V475H75V487.5ZM12.5 475V462.5H25V475H12.5ZM475 462.5H462.5V475H475V462.5ZM350 462.5H337.5V475H350V462.5ZM225 462.5H212.5V475H225V462.5ZM100 462.5H87.5V475H100V462.5Z" fill="#292524"/>
<path d="M450 350H462.5L462.5 362.5H450V350Z" fill="#292524"/>
<path d="M387.5 275H400V287.5H387.5V275Z" fill="#292524"/>
<path d="M450 275H462.5V287.5H450V275Z" fill="#292524"/>
<path d="M387.5 400H400V412.5H387.5V400Z" fill="#292524"/>
<path d="M475 400L487.5 400L487.5 412.5H475V400Z" fill="#292524"/>
<path d="M462.5 412.5H475V425H462.5L462.5 412.5Z" fill="#292524"/>
<path d="M487.5 412.5H500V425L487.5 425V412.5Z" fill="#292524"/>
<path d="M37.5 387.5H50V400L37.5 400L37.5 387.5Z" fill="#292524"/>
<path d="M75 400H87.5L87.5 412.5H75V400Z" fill="#292524"/>
<path d="M62.5 400L50 400L50 412.5H62.5V400Z" fill="#292524"/>
<path d="M50 425H62.5V437.5H50V425Z" fill="#292524"/>
<path d="M150 387.5L150 400H175L175 412.5H187.5V425H200L200 412.5H187.5V400H175V387.5H150Z" fill="#292524"/>
<path d="M275 387.5V400H300V387.5H275Z" fill="#292524"/>
<path d="M300 412.5H287.5L287.5 425H300L300 437.5H312.5V425H300V412.5Z" fill="#292524"/>
<path d="M312.5 400H325V412.5H312.5V400Z" fill="#292524"/>
<path d="M337.5 387.5H350V400H337.5L337.5 387.5Z" fill="#292524"/>
<path d="M462.5 400H450V412.5H437.5V400H425V387.5H400L400 400H425V412.5H437.5V425H450V412.5H462.5L462.5 400Z" fill="#292524"/>
<path d="M400 300H412.5V312.5H400V300Z" fill="#292524"/>
<path d="M400 212.5H412.5V225H400V212.5Z" fill="#292524"/>
<path d="M462.5 300H475V312.5H462.5V300Z" fill="#292524"/>
<path d="M475 212.5H487.5V225H475V212.5Z" fill="#292524"/>
<path d="M12.5 412.5H0V437.5H12.5V412.5Z" fill="#292524"/>
<path d="M262.5 412.5H237.5V425L250 425L250 437.5H262.5V412.5Z" fill="#292524"/>
</svg>
