<svg width="357" height="713" viewBox="0 0 357 713" fill="none" xmlns="http://www.w3.org/2000/svg">
<path d="M251.148 187.053C320.348 218.158 352.883 283.15 356.086 354.822C356.379 361.376 351.031 366.701 344.471 366.701H264.424C325.806 400.722 353.222 461.287 356.095 527.822C356.378 534.376 351.031 539.7 344.471 539.7H264.424C325.806 573.721 353.222 634.287 356.095 700.821C356.378 707.376 351.031 712.699 344.471 712.699H11.8783C5.3181 712.699 -0.0288138 707.376 0.254237 700.821C3.12767 634.287 30.5438 573.721 91.9254 539.7H11.8783C5.3181 539.7 -0.0288138 534.376 0.254237 527.822C3.12767 461.287 30.5438 400.722 91.9254 366.701H11.8783C5.3181 366.701 -0.0293209 361.376 0.263591 354.822C3.46693 283.15 36.0014 218.158 105.202 187.053L23.8709 48.7012L332.479 48.7012L251.148 187.053Z" fill="#292524"/>
</svg>
