<svg width="300" height="300" viewBox="0 0 300 300" fill="none" xmlns="http://www.w3.org/2000/svg">
<path fill-rule="evenodd" clip-rule="evenodd" d="M204.855 52.5312C209.106 39.1068 214.091 26.5341 220.446 13.9827C222.381 7.87567 228.911 4.4876 235.018 6.42288C241.125 8.35816 244.512 14.8878 242.577 20.9948C241.597 27.9895 241.286 34.8001 240.969 41.7428C240.876 43.7631 240.783 45.7945 240.673 47.8449C240.49 51.2679 240.426 54.6734 240.362 58.0738L240.361 58.087C240.338 59.2989 240.316 60.5101 240.287 61.7212C245.275 60.8421 250.271 60.0114 255.27 59.397C261.98 58.5719 268.686 58.0548 275.389 58.1974C285.436 58.1974 293.595 66.3544 293.595 76.4027C293.595 86.451 285.436 94.6079 275.389 94.6079C270.426 94.7132 265.486 95.3637 260.547 96.174C254.079 97.2351 247.628 98.6423 241.193 100.046C239.043 100.515 236.894 100.984 234.747 101.439C232.388 111.488 229.531 121.431 226.581 131.311C225.915 134.819 225.237 138.323 224.538 141.824C241.627 140.043 258.766 139.105 275.962 139.443C286.01 139.443 294.167 147.601 294.167 157.649C294.167 167.696 286.01 175.855 275.962 175.855C266.491 176.06 257.076 176.816 247.667 177.737C236.785 178.802 225.963 180.428 215.133 182.101C215.029 182.471 214.926 182.841 214.822 183.211C212.343 192.004 209.63 200.726 206.918 209.441L206.918 209.442C202.042 225.115 197.173 240.766 193.688 256.769C191.718 266.621 182.119 273.022 172.265 271.05C162.413 269.08 156.014 259.481 157.984 249.628C161.75 228.695 166.923 208.027 172.829 187.532C171.315 187.65 169.801 187.764 168.287 187.878C161.485 188.391 154.686 188.903 147.912 189.756C144.411 190.197 140.938 190.798 137.466 191.398C134.908 191.84 132.35 192.282 129.783 192.66C118.077 194.753 106.328 196.283 94.4601 196.914C92.8542 202.61 91.112 208.262 89.3717 213.907L89.3714 213.908C88.1267 217.946 86.883 221.981 85.6909 226.026C83.9374 231.612 81.5817 237.375 79.184 243.24C76.4276 249.983 73.6159 256.862 71.6001 263.762C70.3952 267.887 69.3969 271.987 69.3116 276.084C69.3116 286.132 61.1533 294.289 51.1063 294.289C41.0581 294.289 32.8997 286.132 32.8997 276.084C32.7491 268.824 33.9087 261.451 35.7507 254.061C37.5275 246.932 40.1222 239.794 42.6648 232.798C44.8541 226.775 47.0049 220.858 48.5619 215.144C49.3863 212.316 50.1942 209.481 51.0027 206.644C51.9121 203.452 52.8223 200.258 53.7571 197.07C52.8722 197.093 51.9811 197.118 51.0858 197.143C45.462 197.3 39.6664 197.462 34.1329 197.195C27.3034 196.866 21.0604 196.422 15.665 194.592C9.34868 193.519 5.09159 187.52 6.16586 181.203C6.82312 177.339 9.30036 175.443 18.5 172.289C20.1975 171.707 43.2142 165.447 44.9422 164.889C52.646 162.406 60.1166 160.474 66.6435 159.247C66.8094 159.231 66.9752 159.215 67.1411 159.199C69.8923 152.224 72.5961 145.231 74.8922 138.087C77.1127 131.181 78.887 124.173 80.6606 117.169L80.6613 117.166C81.2943 114.666 81.9272 112.166 82.5803 109.672C80.8021 109.743 79.0243 109.793 77.2452 109.81C72.4195 109.856 68.559 109.947 64.5636 110.041C60.1338 110.145 55.5371 110.253 49.276 110.309C45.37 110.343 41.6552 110.864 38.038 111.371C30.8498 112.379 24.0475 113.333 16.8981 110.309C13.9557 109.064 11.019 107.326 9.78477 106.268C0.943702 98.6844 11.2081 89.3945 18.5549 86.4443C24.4314 84.0892 38.6048 78.9924 41.7223 77.9621L42.609 77.7059C53.5008 74.5591 64.0557 71.5097 75.1286 70.4222C81.5197 69.7951 87.9447 69.9034 94.4134 70.2973C95.1249 68.5118 95.858 66.7349 96.5932 64.9531L96.5937 64.952C98.4048 60.5625 100.228 56.1431 101.77 51.4908C103.782 46.1154 110.348 31.5142 113.523 25.3032C119.065 14.4618 129.8 15.1882 130.249 15.4521C144.223 20.8902 134.433 49.0789 133.536 59.7091C133.134 64.4651 132.74 69.1365 132.182 73.7513C134.411 73.8812 136.64 73.9678 138.872 73.9969C143.125 74.0516 147.367 73.801 151.595 73.4971C159.772 72.9073 167.838 71.7024 175.938 70.4924C180.469 69.8157 185.009 69.1374 189.586 68.5642C193.274 68.1018 196.98 67.7194 200.701 67.3446C201.737 62.3725 203.26 57.5653 204.796 52.7163L204.855 52.5312ZM104.078 158.114C111.306 158.347 118.529 158.538 125.766 158.111C127.167 157.991 128.57 157.882 129.974 157.773C134.39 157.431 138.809 157.088 143.19 156.399C151.04 155.166 158.752 153.293 166.472 151.418C172.625 149.923 178.782 148.428 185.017 147.255C185.307 147.2 185.596 147.146 185.886 147.093C188.634 139.214 191.347 131.333 193.749 123.338C194.762 117.968 195.468 112.555 196.048 107.123C192.903 107.426 189.761 107.675 186.618 107.847C178.831 108.274 171.091 108.06 163.344 107.846C157.91 107.696 152.472 107.546 147.013 107.616C141.312 107.69 135.613 107.935 129.891 108.181C127.55 108.281 125.206 108.382 122.856 108.471C122.691 108.895 122.525 109.32 122.359 109.745C121.481 111.995 120.6 114.254 119.744 116.536C118.497 119.581 117.207 122.609 115.918 125.637L115.917 125.638C112.712 133.167 109.505 140.697 106.944 148.499C105.9 151.68 104.957 154.888 104.078 158.114Z" fill="#A85E2D"/>
</svg>
