<svg width="300" height="300" viewBox="0 0 300 300" fill="none" xmlns="http://www.w3.org/2000/svg">
<path fill-rule="evenodd" clip-rule="evenodd" d="M87.5906 209.23C75.1346 205.909 64.3617 199.234 53.4675 192.524C41.3109 185.037 28.7163 175.966 21.3307 163.416C17.5823 157.048 15.369 149.329 13.929 142.315C10.4377 125.308 11.1526 108.016 16.5007 91.5763C21.0297 77.6536 25.6612 65.5437 35.8376 54.6729C43.0524 46.9657 51.3415 40.2584 59.959 34.2042C72.5324 25.3715 85.1253 17.3355 99.8224 12.7007C118.767 6.72727 139.092 6.0468 158.776 5.31013C181.59 4.45718 207.245 4.66471 228.555 13.9309C240.859 19.2812 249.444 26.5961 259.459 35.6537C264.301 40.0336 268.073 43.5583 271.358 49.2781C283.475 70.3738 290.373 95.1539 287.609 119.55C285.913 134.53 280.762 148.809 273.491 161.955C261.319 183.96 232.223 193.27 225.505 218.828C223.024 228.266 226.068 237.748 225.505 247.531C224.359 267.46 222.776 269.691 220.139 290.031C219.507 294.908 209.8 298.235 207.785 290.031C203.217 271.432 204.41 268.8 197.7 253.502C194.604 246.443 189.282 239.692 185.115 233.277C175.677 218.749 155.146 220.491 140.111 219.529C121.957 218.366 104.549 216.412 87.5906 209.23Z" fill="#B3BDB5"/>
</svg>
