<svg width="500" height="500" viewBox="0 0 500 500" fill="none" xmlns="http://www.w3.org/2000/svg">
<path d="M434.309 0H431.777C427.547 5.47608 423.377 10.9992 419.245 16.5516C411.937 26.3725 404.753 36.2794 397.574 46.1803C382.48 66.9981 367.404 87.7891 351.229 107.698C327.705 136.651 300.881 161.711 273.808 187.005C266.367 193.957 258.907 200.926 251.491 207.999C222.731 235.431 196.954 266.24 171.329 296.866C158.578 312.105 145.865 327.299 132.841 342.01C100.042 379.056 73.6436 419.947 48.4009 462.122C47.9795 462.826 47.404 463.852 46.6954 465.115C44.086 469.764 39.6725 477.629 34.5109 484.497C31.2296 488.863 27.7091 492.735 24.2383 495.091C20.766 497.447 17.5695 498.15 14.7116 496.678C5.55918 491.967 1.7212 486.523 1.03595 480.862C0.340892 475.122 2.84455 468.867 7.06171 462.482C11.2652 456.116 17.0637 449.778 22.7127 443.902C23.9461 442.619 25.1745 441.356 26.3775 440.12L26.3784 440.118C30.6499 435.727 34.6014 431.664 37.3191 428.204C39.145 425.88 40.9668 423.555 42.7874 421.232L42.8148 421.197C55.9019 404.496 68.9307 387.87 83.0224 371.953C114.696 336.177 144.336 298.447 173.865 260.857C183.176 249.004 192.476 237.165 201.825 225.406C251.536 162.882 309.139 106.544 366.429 50.5108L366.443 50.4975C376.344 40.8138 386.236 31.139 396.076 21.4432C403.192 14.4311 410.138 7.26758 416.966 0H414.221C407.817 6.79049 401.307 13.4851 394.648 20.0462C384.814 29.7361 374.925 39.4083 365.023 49.0926C307.735 105.122 250.031 161.559 200.235 224.189C190.87 235.969 181.559 247.821 172.242 259.682C142.721 297.262 113.132 334.928 81.5007 370.655C67.3666 386.62 54.2987 403.296 41.2154 419.992L41.2004 420.011L41.1997 420.012L41.1989 420.013C39.3748 422.341 37.55 424.67 35.7223 426.996C33.0766 430.364 29.231 434.319 24.9755 438.695L24.9741 438.696L24.9672 438.703C23.7542 439.951 22.508 441.232 21.2469 442.544C15.5934 448.425 9.68174 454.876 5.36924 461.406C3.02444 464.957 1.12018 468.578 0 472.181V485.06C1.8693 490.021 6.21978 494.547 13.7709 498.434C17.5949 500.402 21.6364 499.263 25.3828 496.72C29.1308 494.177 32.8098 490.093 36.1337 485.671C41.3915 478.675 45.9189 470.604 48.5123 465.981C49.1972 464.76 49.7473 463.779 50.1402 463.123C75.366 420.976 101.689 380.213 134.363 343.308C147.466 328.507 160.218 313.266 172.986 298.005L172.987 298.004C198.567 267.431 224.214 236.776 252.896 209.419C260.276 202.379 267.712 195.432 275.138 188.495L275.142 188.492C302.231 163.184 329.186 138.002 352.805 108.931C369.015 88.9803 384.146 68.1127 399.259 47.27L399.26 47.2685L399.261 47.2676L399.262 47.2666C406.432 37.378 413.598 27.4948 420.873 17.718C425.301 11.7677 429.771 5.85455 434.309 0Z" fill="#2E3120"/>
<path d="M0 9.93889C2.98769 6.62103 5.9815 3.30817 8.9809 0H11.6802C7.77696 4.30125 3.88317 8.61025 0 12.9277V9.93889Z" fill="#2E3120"/>
<path d="M105.521 0C91.708 16.4664 77.6912 32.8095 63.368 48.9876C44.7836 69.9787 25.1896 90.1912 5.61059 110.388L5.60944 110.389L5.5772 110.423L5.57295 110.427L5.56913 110.431L5.56791 110.432L5.56366 110.437L5.56201 110.438L5.56123 110.439C3.70706 112.352 1.85302 114.264 0 116.178V113.306C1.3936 111.868 2.78744 110.43 4.18118 108.992C23.7481 88.8075 43.2938 68.6448 61.8463 47.6897C75.7925 31.9374 89.4482 16.0283 102.909 0H105.521Z" fill="#2E3120"/>
<path d="M233.998 0H236.639C196.101 47.0115 153.665 92.6683 111.29 138.259L111.288 138.262L111.287 138.263L111.286 138.264C77.1934 174.944 43.1403 211.582 10.146 248.849L0 260.309V257.292L8.62439 247.551C41.69 210.203 75.7721 173.535 109.874 136.846C151.837 91.6988 193.831 46.5191 233.998 0Z" fill="#2E3120"/>
<path d="M0 203.649V200.581C55.9533 135.472 110.825 69.3985 165.68 3.34397L168.457 0H171.058L167.272 4.55936L167.268 4.5634C111.901 71.2337 56.5055 137.939 0 203.649Z" fill="#2E3120"/>
<path d="M222.039 70.8629L222.04 70.8613L222.084 70.8086C241.7 47.1883 261.314 23.5704 280.974 0H283.58C263.566 23.9906 243.599 48.034 223.628 72.0821L223.627 72.0834L223.625 72.0849L223.623 72.0871L223.622 72.0889L223.621 72.0903C149.98 160.766 76.2868 249.503 0 335.879V332.857C75.726 247.047 148.897 158.938 222.039 70.8629Z" fill="#2E3120"/>
<path d="M348.257 0C342.658 7.52638 336.953 14.9546 331.052 22.194C279.467 85.4732 223.503 145.685 167.645 205.783C133.553 242.463 99.4993 279.101 66.5051 316.368L0 391.486V388.469L64.9835 315.07C98.0492 277.722 132.131 241.054 166.233 204.365C222.05 144.312 277.922 84.2013 329.478 20.9581C335.054 14.1173 340.455 7.10728 345.759 0H348.257Z" fill="#2E3120"/>
<path d="M402.332 478.844C434.865 440.193 467.392 401.55 500 363.006V366.103C467.919 404.03 435.912 442.055 403.897 480.09L403.886 480.104L403.874 480.118L403.872 480.12L396.437 488.953C393.338 492.635 390.238 496.318 387.138 500H384.523C390.452 492.957 396.381 485.914 402.309 478.871L402.312 478.868L402.332 478.844Z" fill="#2E3120"/>
<path d="M489.843 411.625C493.252 407.543 496.635 403.433 500 399.302V396.13C496.121 400.908 492.22 405.658 488.284 410.371C463.151 440.467 437.549 470.305 411.71 500H414.361C439.831 470.716 465.067 441.292 489.843 411.625Z" fill="#2E3120"/>
<path d="M39.7825 500C59.7525 477.247 79.3577 454.092 98.9307 430.876C101.531 427.791 104.13 424.706 106.73 421.621L106.909 421.408C134.817 388.286 162.751 355.132 191.658 322.958C209.822 302.742 228.295 282.62 246.786 262.477L246.787 262.476C277.472 229.051 308.206 195.572 337.658 161.526C352.538 144.323 366.833 126.763 381.13 109.2L381.131 109.198L381.149 109.176L381.162 109.16C384.521 105.033 387.881 100.906 391.248 96.7834C408.952 75.1096 426.864 53.5672 446.064 32.8698C446.986 31.8756 449.763 28.2443 453.501 23.2651C455.511 20.5881 457.78 17.5463 460.161 14.3545L460.233 14.257C462.235 11.574 464.314 8.78666 466.384 6.02197C467.91 3.9838 469.43 1.95901 470.909 0H473.418C471.666 2.31563 469.843 4.7433 468.009 7.19287C465.92 9.98314 463.815 12.8038 461.791 15.5178C459.407 18.7139 457.133 21.762 455.124 24.438C451.429 29.3597 448.567 33.1094 447.554 34.2021C428.399 54.8505 410.52 76.3518 392.821 98.0207C389.455 102.142 386.095 106.269 382.734 110.398L382.714 110.423C368.415 127.989 354.097 145.578 339.194 162.806C309.728 196.869 278.952 230.394 248.249 263.839C229.762 283.977 211.302 304.086 193.169 324.267C164.285 356.416 136.371 389.545 108.46 422.672C105.801 425.827 103.143 428.982 100.484 432.137C81.2811 454.914 62.0371 477.644 42.442 500H39.7825Z" fill="#2E3120"/>
<path d="M481.319 0C481.038 0.946656 480.771 1.84496 480.523 2.6624C480.194 3.75097 479.894 4.71306 479.637 5.47585C479.39 6.21162 479.16 6.83644 478.967 7.19802C476.981 10.9218 473.157 15.5715 469.216 20.1488C468.3 21.2129 467.377 22.274 466.465 23.322C463.413 26.8296 460.489 30.1907 458.39 33.0223C446.93 48.4826 433.5 63.4476 419.933 78.3009C418.463 79.9108 416.991 81.5193 415.52 83.127L415.44 83.2144L415.437 83.2173C403.35 96.4249 391.312 109.579 380.565 122.992C373.668 131.599 366.758 140.26 359.826 148.948L359.749 149.045L359.743 149.052L359.737 149.059L359.709 149.094C328.981 187.606 297.833 226.645 265.652 263.847C214.385 323.112 162.6 380.87 110.216 438.859C91.8219 459.22 73.5217 479.503 55.3664 500H52.6961C71.2369 479.051 89.9269 458.336 108.708 437.546C161.089 379.56 212.863 321.815 264.116 262.566C296.267 225.398 327.384 186.399 358.11 147.89L358.113 147.887C365.086 139.147 372.039 130.432 378.98 121.77C389.773 108.301 401.858 95.0948 413.94 81.8929L413.989 81.8389C415.471 80.2194 416.953 78.5999 418.433 76.98C432.001 62.1246 445.367 47.2278 456.76 31.8591C458.91 28.9586 461.908 25.5128 464.971 21.9927L464.972 21.9913L464.974 21.9895L464.979 21.9832L464.989 21.9723L465.023 21.9333C465.908 20.915 466.8 19.8908 467.677 18.872C471.645 14.2623 475.315 9.77852 477.18 6.28247C477.283 6.08985 477.465 5.62169 477.721 4.86028C477.968 4.12573 478.261 3.18598 478.589 2.10242C478.789 1.44418 478.999 0.739069 479.219 0H481.319Z" fill="#2E3120"/>
<path d="M483.027 500C488.679 493.818 494.339 487.645 500 481.48V484.435C495.242 489.618 490.486 494.806 485.735 500H483.027Z" fill="#2E3120"/>
<path d="M500 426.952L499.67 427.341C479.044 451.663 458.235 475.881 437.281 500H439.93C460.099 476.775 480.134 453.458 500 430.044V426.952Z" fill="#2E3120"/>
<path d="M500 449.189C485.801 466.183 471.575 483.166 457.17 500H454.538C469.839 482.138 484.928 464.111 500 446.069V449.189Z" fill="#2E3120"/>
<path d="M473.814 352.073L473.905 351.974L473.937 351.94L474.034 351.835L474.07 351.795L474.172 351.684C482.796 342.313 491.411 332.951 500 323.591V326.547C491.775 335.507 483.529 344.468 475.275 353.437C430.886 401.674 386.279 450.147 343.597 500H340.965C384.006 449.665 429.021 400.748 473.786 352.104L473.788 352.102L473.814 352.073Z" fill="#2E3120"/>
<path d="M498.131 341.645L500 339.293V336.076C498.876 337.489 497.753 338.903 496.629 340.316L496.462 340.527C480.508 360.599 464.563 380.66 448.158 400.332C424.251 429 399.218 455.671 373.983 482.557L373.979 482.561L373.97 482.571C368.534 488.363 363.088 494.165 357.642 500H360.376C365.392 494.63 370.41 489.284 375.422 483.944L375.427 483.939L375.438 483.926C400.681 457.032 425.768 430.304 449.717 401.585C466.188 381.835 482.163 361.735 498.131 341.645Z" fill="#2E3120"/>
<path d="M500 281.661C494.639 287.671 489.242 293.648 483.8 299.581C474.493 309.727 465.154 319.875 455.805 330.035L455.803 330.036L455.8 330.04C404.522 385.762 352.916 441.841 304.324 500H306.932C355.181 442.331 406.378 386.697 457.288 331.374L457.289 331.374C466.641 321.211 475.984 311.058 485.297 300.905C490.234 295.523 495.132 290.107 500 284.662V281.661Z" fill="#2E3120"/>
<path d="M500 294.669C493.36 302.954 486.753 311.267 480.144 319.582C464.177 339.671 448.201 359.771 431.731 379.521C407.782 408.24 382.695 434.968 357.452 461.863L357.441 461.875L357.439 461.877L357.437 461.879C350.517 469.252 343.584 476.638 336.66 484.081C331.772 489.337 326.919 494.646 322.096 500H319.408C324.626 494.193 329.878 488.438 335.172 482.747C342.112 475.287 349.056 467.889 355.984 460.507L355.992 460.498L355.996 460.494C381.231 433.607 406.265 406.936 430.171 378.268C446.577 358.596 462.521 338.535 478.476 318.463L478.487 318.449C485.642 309.447 492.799 300.443 500 291.47V294.669Z" fill="#2E3120"/>
<path d="M461.956 246.166C474.565 231.954 487.249 217.928 500 204.015V206.974C487.76 220.343 475.583 233.819 463.476 247.465C453.608 258.588 443.714 269.703 433.815 280.824L433.813 280.826C369.961 352.557 305.914 424.507 247.483 500H244.953C303.683 424.007 368.117 351.622 432.299 279.52C442.198 268.399 452.091 257.285 461.956 246.166Z" fill="#2E3120"/>
<path d="M466.531 272.646C477.6 259.849 488.776 247.191 500 234.593V231.589C488.262 244.753 476.57 257.983 464.994 271.365C441.862 298.107 420.113 325.393 398.537 352.742C395.535 356.548 392.536 360.355 389.537 364.161L389.514 364.19L389.491 364.22L389.482 364.231C370.945 387.763 352.409 411.291 333.091 434.53C318.379 452.229 303.158 469.657 287.927 487.098L287.925 487.099C284.172 491.397 280.417 495.696 276.67 500H279.321C282.665 496.162 286.014 492.328 289.364 488.493L289.372 488.483L289.39 488.463C304.623 471.022 319.864 453.572 334.653 435.781C353.992 412.516 372.548 388.961 391.088 365.426L391.127 365.378C394.127 361.569 397.128 357.76 400.131 353.953C421.706 326.606 443.43 299.35 466.531 272.646Z" fill="#2E3120"/>
<path d="M500 108.393C493.052 117.407 486.106 126.436 479.155 135.47L479.153 135.472L479.15 135.476L479.148 135.478C453.334 169.03 427.459 202.661 401.223 235.914C368.027 277.99 333.31 319.075 298.584 360.17L298.582 360.171L298.581 360.173C293.747 365.893 288.913 371.614 284.083 377.338C249.841 417.913 216.066 458.924 182.38 500H184.968C218.303 459.355 251.728 418.778 285.635 378.6C290.464 372.877 295.298 367.157 300.132 361.437C334.857 320.343 369.598 279.23 402.817 237.125C429.063 203.859 454.95 170.212 480.768 136.656L480.821 136.587C487.217 128.274 493.608 119.967 500 111.673V108.393Z" fill="#2E3120"/>
<path d="M500 172.408C494.926 177.872 489.846 183.323 484.775 188.766L484.773 188.767L484.772 188.769C466.153 208.749 447.651 228.606 429.952 248.492C363.232 323.455 297.648 399.994 232.151 476.431L232.145 476.438C225.414 484.294 218.683 492.148 211.953 500H209.318C216.291 491.866 223.264 483.729 230.238 475.59L230.592 475.177L230.595 475.173C296.099 398.729 361.704 322.166 428.434 247.19C446.2 227.229 464.74 207.332 483.378 187.332L483.378 187.331C488.916 181.388 494.463 175.436 500 169.47V172.408Z" fill="#2E3120"/>
<path d="M483.29 70.5153C488.858 64.9232 494.429 59.3281 500 53.7225V56.5554C494.883 61.7019 489.768 66.8394 484.656 71.9738L484.642 71.988L484.641 71.9898C449.216 107.57 413.938 143.003 379.304 180.248C312.684 251.889 246.754 323.961 183.335 398.779C162.428 423.444 141.962 448.377 121.501 473.303L121.499 473.305L121.493 473.312C114.187 482.213 106.881 491.113 99.5562 500H96.9636C104.617 490.718 112.249 481.42 119.884 472.119C140.35 447.186 160.831 422.234 181.786 397.514C245.235 322.66 311.19 250.561 377.816 178.914C412.476 141.641 447.785 106.177 483.214 70.5917L483.228 70.578L483.29 70.5153Z" fill="#2E3120"/>
<path d="M500 67.8866C492.511 74.547 485.045 81.2687 477.73 88.4969C463.787 102.274 450.497 117.644 437.276 132.935C430.257 141.054 423.256 149.15 416.188 156.974C403.527 170.988 390.401 184.493 377.297 197.975L377.295 197.977L376.014 199.296C362.48 213.222 348.985 227.142 336.037 241.617C303.132 278.404 271.625 316.392 240.161 354.329C229.67 366.979 219.184 379.623 208.652 392.214C189.629 414.958 169.789 436.99 149.974 458.995L149.974 458.996L149.972 458.997L149.971 458.999L148.795 460.304C136.922 473.49 125.064 486.671 113.395 500H110.739C122.784 486.216 135.032 472.602 147.285 458.994L148.451 457.7C168.274 435.685 188.094 413.675 207.094 390.959C217.613 378.383 228.09 365.75 238.575 353.108L238.58 353.103L238.58 353.102L238.583 353.099C270.052 315.156 301.591 277.128 334.522 240.312C347.502 225.801 361.025 211.853 374.556 197.93L375.828 196.621C388.939 183.131 402.043 169.648 414.68 155.661C421.685 147.909 428.655 139.847 435.661 131.744C448.919 116.412 462.307 100.929 476.301 87.102C484.097 79.399 492.057 72.2728 500 65.2177V67.8866Z" fill="#2E3120"/>
</svg>
