<svg width="500" height="500" viewBox="0 0 500 500" fill="none" xmlns="http://www.w3.org/2000/svg">
<path fill-rule="evenodd" clip-rule="evenodd" d="M219.613 216.763C221.128 218.686 222.628 220.636 224.117 222.605C206.27 196.872 188.204 171.308 169.604 146.166C151.277 121.383 132.046 97.2419 112.436 73.3677C93.9965 50.9193 75.1969 28.7267 56.4017 6.53918C54.5552 4.35948 52.7088 2.17984 50.8628 0L53.1783 0C53.9705 0.931913 54.7628 1.86382 55.555 2.79573C75.1301 25.8214 94.711 48.8538 113.864 72.1953C133.48 96.1022 152.621 120.355 170.903 145.208C193.448 175.865 215.136 207.188 236.678 238.625L236.496 237.934C231.454 228.969 226.315 220.17 220.924 211.752C212.944 199.398 204.603 187.298 196.08 175.325C188.133 164.16 180.005 153.123 171.878 142.085C167.796 136.542 163.715 130.999 159.656 125.44C151.552 114.342 143.563 103.164 135.731 91.8775C125.464 77.0005 114.51 62.6625 103.568 48.3418C97.5183 40.4229 91.4721 32.5093 85.5485 24.5127C79.5801 16.4557 73.7382 8.31301 68.1367 0L70.8886 0C76.2475 7.81321 81.8176 15.4748 87.4932 23.0651C93.3738 30.93 99.3697 38.7163 105.369 46.5077C116.464 60.9155 127.572 75.3406 137.99 90.3119C145.309 100.886 152.824 111.325 160.34 121.765C160.841 122.461 161.342 123.158 161.843 123.854C162.457 124.707 163.071 125.559 163.685 126.412C175.107 142.279 186.53 158.147 197.661 174.215C206.044 186.316 214.235 198.547 222.067 211.024C226.636 218.241 230.995 225.747 235.298 233.381L235.138 232.773C234.816 231.544 234.493 230.315 234.172 229.087C233.022 227.064 231.87 225.042 230.714 223.021C225.934 214.66 221.089 206.342 216.245 198.033C212.102 190.929 207.945 183.841 203.791 176.761C200.641 171.389 197.492 166.022 194.355 160.655C192.779 157.955 191.202 155.257 189.625 152.559C183.669 142.37 177.716 132.185 171.831 121.963C166.865 113.34 161.951 104.689 157.062 96.0233C144.846 74.3705 132.839 52.5959 121.042 30.6594C117.308 23.7021 113.822 16.687 110.442 9.63354C108.907 6.42956 107.394 3.21776 105.889 0L108.423 0C109.79 2.87638 111.165 5.74776 112.558 8.61273C115.96 15.6138 119.47 22.5766 123.225 29.4807C130.349 42.5996 137.571 55.6482 144.839 68.6631C151.123 79.9159 157.474 91.1259 163.824 102.336C166.051 106.268 168.279 110.199 170.503 114.133C174.454 121.12 178.394 128.115 182.335 135.111C186.937 143.28 191.539 151.452 196.162 159.616C203.25 172.163 210.36 184.734 217.495 197.314C219.335 200.56 221.175 203.808 223.014 207.057C225.917 212.184 228.821 217.313 231.734 222.439L233.026 224.713C232.861 224.078 232.695 223.444 232.529 222.809C230.876 219.052 229.226 215.298 227.577 211.544C225.131 205.975 222.68 200.411 220.23 194.849C218.319 190.514 216.41 186.18 214.504 181.846C207.963 166.972 201.419 152.123 194.878 137.312C190.341 127.01 185.783 116.724 181.227 106.44C177.862 98.845 174.497 91.2514 171.142 83.654C169.427 79.771 167.714 75.8874 166.001 72.0038C159.823 57.9969 153.645 43.9905 147.377 30.0177C142.884 20.0014 138.363 9.99355 133.797 0L136.607 0C145.743 19.7864 154.708 39.6265 163.527 59.5282C168.057 69.748 172.555 79.9811 177 90.2392C182.335 102.554 187.596 114.903 192.86 127.258C194.17 130.332 195.48 133.407 196.792 136.482C199.54 142.936 202.282 149.399 205.026 155.867C208.616 164.331 212.21 172.803 215.827 181.273C220.071 191.211 224.325 201.155 228.653 211.072C229.129 212.159 229.604 213.246 230.081 214.336C228.792 210.983 227.497 207.634 226.202 204.285C223.704 197.826 221.188 191.38 218.676 184.941C216.872 180.319 215.07 175.701 213.277 171.085C212.283 168.52 211.287 165.957 210.292 163.393C206.842 154.511 203.394 145.634 200.011 136.733C197.104 129.082 194.248 121.413 191.416 113.735C184.336 94.5491 177.456 75.2874 170.763 55.9249C168.646 49.7812 166.738 43.6236 164.922 37.4495C163.418 32.3364 161.977 27.2119 160.532 22.0746C159.363 17.9143 158.191 13.7456 156.981 9.5679C156.679 8.52626 156.001 6.3021 155.243 3.81526C154.863 2.57086 154.464 1.26069 154.081 0H156.263C156.592 1.05892 156.93 2.13987 157.254 3.17625C158.035 5.67634 158.735 7.917 159.045 8.96292C160.278 13.1165 161.474 17.2614 162.668 21.398C164.151 26.5373 165.63 31.6639 167.173 36.7788C169.02 42.9052 170.96 49.0145 173.105 55.1081C177.175 66.6926 181.334 78.231 185.532 89.7491C188.814 98.7525 192.146 107.733 195.478 116.713C197.125 121.152 198.772 125.59 200.413 130.031C202.926 136.832 205.42 143.639 207.916 150.448C210.347 157.081 212.778 163.715 215.227 170.347C219.319 181.472 223.423 192.619 227.551 203.775L227.647 204.034C227.533 203.595 227.419 203.156 227.305 202.718C227.111 201.969 226.917 201.221 226.723 200.473C225.274 194.88 223.823 189.29 222.372 183.702C220.517 176.561 218.664 169.424 216.817 162.288C211.869 143.162 206.918 124.064 201.963 105.013C197.586 88.1314 193.174 71.2707 188.762 54.4139C186.983 47.6148 185.204 40.8163 183.427 34.0173C182.287 29.6542 181.15 25.2907 180.012 20.9273C178.193 13.9507 176.374 6.9743 174.546 0L177.404 0C177.905 1.90146 178.406 3.80315 178.906 5.70508C182.359 18.8506 185.775 32.0038 189.129 45.1759C193.266 61.4205 197.313 77.6905 201.363 93.9689C202.236 97.4787 203.109 100.989 203.983 104.499C206.082 112.94 208.171 121.392 210.261 129.851C212.903 140.537 215.546 151.233 218.215 161.933C221.393 174.68 224.585 187.437 227.862 200.179C229.133 205.126 230.415 210.073 231.706 215.016C233.066 218.695 234.427 222.374 235.797 226.051C236.756 228.629 237.716 231.208 238.677 233.789C239.29 235.162 239.903 236.535 240.519 237.91L240.957 238.683C241.098 232.913 241.247 227.143 241.402 221.373C241.107 220.149 240.811 218.921 240.515 217.694C238.249 208.333 235.912 198.995 233.571 189.667C231.57 181.697 229.551 173.739 227.534 165.789C226 159.746 224.468 153.708 222.947 147.673C222.192 144.673 221.436 141.673 220.68 138.674C217.787 127.199 214.896 115.729 212.08 104.242C209.71 94.5781 207.398 84.9015 205.113 75.2171C199.405 51.0201 193.932 26.7646 188.705 2.41129C188.533 1.6074 188.364 0.803641 188.198 0L190.721 0C190.856 0.628611 190.992 1.25729 191.13 1.88605C194.323 16.4697 197.627 31.0127 200.987 45.5362C203.897 58.1178 206.883 70.6766 209.869 83.2353C210.908 87.6071 211.948 91.9789 212.984 96.3516C214.826 104.126 216.654 111.903 218.484 119.682C220.639 128.846 222.794 138.013 224.972 147.179C228.288 161.203 231.619 175.256 234.97 189.325C235.86 193.057 236.746 196.79 237.634 200.524C238.486 204.114 239.339 207.705 240.195 211.296L239.911 209.155C239.123 203.212 238.328 197.271 237.534 191.332C237.144 188.422 236.755 185.511 236.366 182.601C235.147 176.392 233.92 170.188 232.694 163.989C231.495 157.926 230.296 151.868 229.107 145.815C228.503 142.727 227.898 139.64 227.292 136.553C225.024 124.992 222.757 113.436 220.565 101.868C218.713 92.0909 216.918 82.3049 215.151 72.5134C210.801 48.399 206.682 24.2399 202.806 0L205.325 0C207.665 14.2448 210.111 28.4572 212.609 42.6543C214.848 55.3803 217.163 68.0878 219.478 80.7949C220.282 85.2083 221.087 89.6216 221.888 94.0356C223.312 101.891 224.724 109.749 226.136 117.609C227.802 126.881 229.469 136.154 231.157 145.429C231.31 146.272 231.462 147.117 231.615 147.961C231.777 148.853 231.938 149.745 232.1 150.637C231.122 143.337 230.142 136.043 229.161 128.756C227.666 117.565 226.146 106.383 224.626 95.2031C223.512 87.0052 222.398 78.8089 221.294 70.6117C220.727 66.3967 220.161 62.1816 219.595 57.9665C217.561 42.8022 215.526 27.6383 213.395 12.481C212.81 8.32055 212.221 4.1602 211.627 0L214.291 0C216.508 15.1008 218.64 30.2057 220.695 45.3197C222.201 56.397 223.674 67.4774 225.088 78.5671C226.782 91.844 228.394 105.133 230.008 118.429C230.415 121.782 230.822 125.137 231.23 128.491C232.066 135.392 232.893 142.3 233.721 149.213C234.822 158.404 235.924 167.605 237.049 176.81C237.142 177.578 237.236 178.345 237.33 179.113C237.37 179.441 237.41 179.769 237.451 180.097C237.934 182.746 238.417 185.396 238.901 188.046C239.515 191.407 240.127 194.77 240.739 198.133C241.047 199.822 241.354 201.51 241.662 203.2L241.359 199.73C240.761 192.873 240.142 186.023 239.524 179.18C239.075 174.198 238.625 169.219 238.184 164.243C237.939 161.465 237.693 158.687 237.447 155.91C236.608 146.457 235.771 137.01 235.002 127.557C234.339 119.399 233.73 111.239 233.145 103.075C231.73 83.296 230.513 63.4989 229.491 43.6626C228.625 32.9551 227.744 22.2475 226.816 11.5407C226.482 7.69393 226.145 3.84703 225.804 0L228.455 0C228.636 1.95718 228.816 3.91437 228.994 5.87158C229.01 3.9165 229.025 1.95966 229.037 0L231.232 0C231.234 2.13595 231.232 4.26853 231.23 6.39899C231.224 11.7437 231.218 17.0749 231.276 22.4124C231.323 26.6911 231.411 30.9744 231.573 35.2718C231.838 38.4195 232.1 41.5702 232.36 44.7217C233.274 55.8631 234.157 67.006 234.98 78.1552C235.962 91.459 236.863 104.771 237.764 118.089C237.995 121.504 238.226 124.92 238.459 128.336C238.932 135.351 239.397 142.374 239.861 149.403C240.467 158.559 241.072 167.724 241.7 176.896C241.923 180.142 242.146 183.389 242.372 186.635L242.486 182.559C242.691 175.236 242.895 167.916 243.106 160.599L243.206 157.13L243.142 155.32C242.806 145.787 242.47 136.258 242.203 126.728C241.974 118.547 241.8 110.365 241.65 102.183C241.277 81.7366 241.116 61.2837 241.163 40.7956C241.185 34.2987 241.409 27.8557 241.724 21.4276C241.987 16.0879 242.313 10.7582 242.64 5.41539C242.751 3.61206 242.861 1.80723 242.969 0L245.175 0C245.076 1.85741 244.976 3.71228 244.875 5.56555C244.585 10.8942 244.297 16.2097 244.071 21.5347C243.801 27.9284 243.622 34.3354 243.644 40.7956C243.677 53.0742 243.809 65.3388 243.985 77.5971C244.121 87.1301 244.313 96.6586 244.505 106.188C244.525 107.174 244.544 108.161 244.564 109.148C244.599 107.904 244.633 106.661 244.667 105.418C244.704 104.096 244.74 102.774 244.777 101.453C245.269 84.1008 245.721 66.7585 246.173 49.4204C246.358 42.3142 246.543 35.2087 246.731 28.1035C246.851 23.5407 246.974 18.9781 247.097 14.4155C247.227 9.61036 247.357 4.80526 247.483 0L250.257 0C249.919 13.4708 249.542 26.9394 249.102 40.4079C248.552 57.2414 247.909 74.0749 247.265 90.9167C247.13 94.4512 246.995 97.986 246.861 101.521C246.529 110.151 246.186 118.789 245.843 127.434C245.623 132.981 245.402 138.53 245.185 144.083C245.289 150.545 245.394 157.01 245.514 163.477C245.688 173.537 245.864 183.614 246.054 193.706C246.328 190.343 246.601 186.98 246.875 183.617C247.474 176.248 248.073 168.881 248.678 161.518C250.296 141.828 251.904 122.165 253.49 102.544C254.905 85.2285 256.279 67.9205 257.654 50.617C258.215 43.5448 258.777 36.4734 259.341 29.4026C259.7 24.8963 260.062 20.3905 260.424 15.8847C260.849 10.5899 261.275 5.29518 261.696 0L264.475 0C264.445 0.392897 264.414 0.785791 264.383 1.17868C263.321 14.7282 262.22 28.2731 261.054 41.8156C259.618 58.5051 258.09 75.1894 256.56 91.8822C256.229 95.4955 255.898 99.1092 255.568 102.723C254.775 111.362 253.969 120.008 253.163 128.661C252.14 139.644 251.116 150.638 250.115 161.642C248.923 174.727 247.74 187.823 246.643 200.933C246.519 202.41 246.396 203.886 246.274 205.361L246.306 207.031C246.405 212.301 246.503 217.574 246.615 222.848C246.654 224.694 246.693 226.54 246.733 228.386C246.753 229.336 246.773 230.285 246.793 231.234C247.161 233.248 247.528 235.261 247.894 237.274C249.312 233.511 250.734 229.749 252.158 225.987C252.616 223.756 253.074 221.526 253.533 219.295L253.639 218.781C253.765 217.517 253.89 216.255 254.013 214.994C254.954 205.409 255.818 195.822 256.676 186.242C257.414 177.994 258.13 169.751 258.846 161.517C259.38 155.37 259.914 149.227 260.456 143.092C260.731 140.007 261.004 136.923 261.277 133.84C262.32 122.054 263.363 110.274 264.482 98.5026C265.423 88.5962 266.422 78.6977 267.45 68.8007C269.834 45.8572 272.425 22.932 275.244 0L277.765 0C276.208 13.1389 274.74 26.2767 273.317 39.4145C271.938 52.1525 270.636 64.894 269.335 77.6357C268.868 82.2066 268.401 86.7775 267.93 91.3484C267.102 99.4024 266.259 107.456 265.417 115.51C264.449 124.767 263.48 134.025 262.532 143.29C261.051 157.624 259.574 171.991 258.111 186.38C257.724 190.185 257.335 193.991 256.945 197.798C256.611 201.059 256.278 204.32 255.945 207.583C256.913 202.878 257.878 198.173 258.842 193.469C259.797 188.814 260.751 184.159 261.708 179.508C264.982 163.591 268.239 147.695 271.477 131.831C273.738 120.812 275.973 109.793 278.207 98.7764C279.86 90.6275 281.513 82.4802 283.175 74.3354C284.03 70.1477 284.886 65.9605 285.743 61.7734C288.805 46.8041 291.868 31.8352 294.837 16.841C295.948 11.23 297.052 5.61661 298.146 0L300.811 0C297.617 16.7789 294.32 33.5266 290.928 50.2533C288.707 61.2094 286.453 72.1577 284.141 83.0959C281.375 96.1791 278.529 109.247 275.681 122.323C274.96 125.635 274.238 128.948 273.518 132.262C272.037 139.055 270.546 145.852 269.053 152.654C267.07 161.694 265.084 170.744 263.119 179.806C260.828 190.366 258.541 200.937 256.332 211.53C255.818 213.998 255.306 216.466 254.797 218.937L254.785 219.057C255.717 216.602 256.65 214.147 257.582 211.694C258.587 207.775 259.581 203.855 260.574 199.936C262.271 193.235 263.947 186.535 265.622 179.841C266.829 175.016 268.035 170.195 269.247 165.38C269.934 162.662 270.619 159.944 271.303 157.226C273.618 148.038 275.931 138.854 278.311 129.689C280.368 121.767 282.477 113.86 284.611 105.959C289.942 86.2162 295.479 66.5261 301.226 46.8618C303.056 40.6268 305.063 34.5012 307.156 28.4146C308.891 23.3653 310.686 18.3433 312.484 13.3087C313.935 9.24821 315.388 5.17953 316.817 1.08173C316.914 0.802731 317.039 0.435938 317.186 0H319.442C319.196 0.749397 318.992 1.36452 318.85 1.78284C317.451 5.88444 316.028 9.95712 314.607 14.0216C312.842 19.0706 311.081 24.1069 309.379 29.1704C307.34 35.2359 305.386 41.3404 303.609 47.552C300.223 59.3539 296.937 71.1713 293.694 82.9943C291.163 92.2247 288.686 101.466 286.209 110.708C284.98 115.291 283.752 119.874 282.517 124.456C280.631 131.451 278.727 138.442 276.823 145.434C274.965 152.255 273.107 159.078 271.265 165.908C268.205 177.193 265.143 188.501 262.095 199.83C263.387 196.432 264.678 193.035 265.969 189.638C268.619 182.663 271.268 175.691 273.922 168.726C280.955 150.264 287.971 131.825 294.956 113.421C301.124 97.2074 307.251 80.9901 313.377 64.7766C315.894 58.1155 318.411 51.4552 320.93 44.796C322.54 40.5367 324.154 36.2784 325.767 32.02C329.809 21.3517 333.85 10.6833 337.857 0L340.779 0C338.407 6.36832 336.022 12.7316 333.627 19.0905C328.836 31.8092 324.008 44.5131 319.121 57.1958C313.083 72.8628 306.957 88.499 300.829 104.143C299.52 107.485 298.21 110.828 296.901 114.171C293.722 122.283 290.528 130.399 287.332 138.521C283.307 148.75 279.278 158.989 275.267 169.245C270.482 181.481 265.701 193.73 260.999 206.017C260.352 207.708 259.706 209.4 259.062 211.089C257.971 215.136 256.882 219.186 255.8 223.24C255.52 224.291 255.239 225.342 254.959 226.393C254.581 227.81 254.202 229.227 253.824 230.643C259.18 216.183 264.608 201.904 270.595 188.192C278.59 169.732 287.125 151.528 295.942 133.461C306.886 111.038 318.225 88.8039 329.562 66.5716C331.008 63.7359 332.454 60.9002 333.899 58.0642C342.411 41.36 350.919 24.6549 359.107 7.79593C360.378 5.18955 361.664 2.5912 362.962 0L366.006 0C364.513 2.98931 363.036 5.98796 361.578 8.99731C353.369 25.8672 344.908 42.6176 336.304 59.2968C332.292 67.0739 328.254 74.8381 324.216 82.6022C315.275 99.7943 306.335 116.986 297.674 134.317C288.698 152.279 279.997 170.375 271.835 188.736C265.446 203.223 259.63 218.329 253.966 233.649L253.782 234.146C253.567 234.729 253.351 235.313 253.135 235.898C254.177 234.431 255.219 232.964 256.264 231.499C262.354 219.194 268.526 207.074 275.094 195.449C276.129 193.605 277.169 191.765 278.214 189.929C281.771 182.85 285.373 175.792 289.031 168.766C299.468 148.731 310.586 129.03 322.102 109.535C333.417 90.3796 345.086 71.4063 356.752 52.4389C367.477 35 378.2 17.5659 388.641 0L390.499 0C379.375 18.8525 367.933 37.5577 356.488 56.2671C345.465 74.2874 334.439 92.3115 323.693 110.475C313.14 128.312 302.831 146.269 293.103 164.521C297.32 157.514 301.595 150.545 305.916 143.603C319.126 122.376 332.71 101.378 346.293 80.3815C347.994 77.7513 349.696 75.1212 351.397 72.4907C361.575 56.7463 371.75 41.002 381.622 25.0692C386.881 16.6158 392.297 8.27374 397.806 0L401.004 0C395.196 8.74865 389.488 17.5708 383.956 26.5176C374.062 42.4582 363.93 58.2533 353.663 73.9633C348.863 81.3076 344.038 88.6362 339.214 95.9647C328.571 112.132 317.928 128.298 307.55 144.631C298.207 159.337 289.058 174.164 280.268 189.215C275.31 198.944 270.43 208.716 265.605 218.513C266.235 217.649 266.865 216.785 267.496 215.923C271.156 209.679 274.876 203.532 278.701 197.531C289.465 180.534 300.72 163.876 312.235 147.396C326.532 126.934 341.189 106.72 355.846 86.5071C357.708 83.9388 359.57 81.3704 361.432 78.8016C372.433 63.6208 383.43 48.4392 394.135 33.0543C401.961 21.8509 410.07 10.8727 418.304 0L421.605 0C413.01 11.3865 404.543 22.8819 396.39 34.6246C385.662 50.0165 374.705 65.2513 363.617 80.393C358.448 87.451 353.256 94.4922 348.064 101.533C336.561 117.132 325.059 132.731 313.814 148.51C302.159 164.862 290.755 181.388 279.842 198.261C278.374 200.546 276.918 202.853 275.475 205.179C279.229 200.202 283.021 195.298 286.868 190.49C302.099 171.356 317.882 152.695 333.955 134.283C353.33 112.087 373.091 90.2234 392.851 68.3612C396.031 64.843 399.211 61.3249 402.389 57.8055C417.667 40.8863 432.928 23.9546 447.868 6.74542C449.834 4.48723 451.811 2.23908 453.796 0L457.437 0C454.923 2.8342 452.424 5.68256 449.942 8.54709C434.978 25.761 419.751 42.7497 404.391 59.6204C397.491 67.1985 390.569 74.7565 383.646 82.3145C367.468 99.9773 351.291 117.64 335.405 135.559C319.208 153.829 303.29 172.343 287.924 191.338C281.379 199.468 274.977 207.865 268.654 216.432C266.276 220.445 263.924 224.498 261.59 228.581C271.184 216.598 280.842 204.854 290.788 193.694C307.016 175.396 323.768 157.6 340.797 140.068C361.311 118.947 382.193 98.1781 403.074 77.4105C406.45 74.053 409.825 70.6955 413.199 67.3367C429.356 51.2538 445.495 35.1577 461.328 18.7669C467.47 12.4282 473.695 6.18126 479.979 0L483.807 0C476.893 6.80397 470.047 13.6844 463.304 20.6764C447.447 37.0703 431.338 53.2251 415.103 69.2556C407.804 76.4626 400.483 83.6483 393.162 90.8339C376.074 107.606 358.987 124.377 342.177 141.42C325.031 158.802 308.153 176.445 291.798 194.596C280.222 207.507 268.996 221.176 257.868 235.14C256.984 236.708 256.101 238.281 255.219 239.856L254.985 240.276C253.982 242.348 252.98 244.419 251.98 246.492L251.978 246.518C251.93 246.97 251.882 247.423 251.835 247.874L252.178 247.714L252.241 247.685L252.283 247.654L253.018 247.13C272.288 225.533 291.634 204.008 311.591 183.097C327.191 166.759 343.352 150.93 359.839 135.409C376.038 120.159 392.527 105.182 409.011 90.2092C431.594 69.6968 454.168 49.1929 475.973 28.0066C483.92 20.2961 491.95 12.7213 500 5.19597V7.13902C492.306 14.3853 484.633 21.6802 477.038 29.1001C454.448 51.1372 431.066 72.4789 407.676 93.8276C392.078 108.064 376.477 122.304 361.105 136.755C344.629 152.244 328.393 167.951 312.757 184.214C295.816 201.825 279.267 219.837 262.871 238.003C280.282 220.52 297.796 203.156 315.732 186.262C332.178 170.775 349.157 155.828 366.445 141.205C383.429 126.841 400.687 112.765 417.94 98.6924C441.585 79.4065 465.221 60.1287 488.125 40.1281C492.068 36.6896 496.029 33.2823 500 29.8968V32.3264C461.071 67.1823 421.951 101.86 382.794 136.527C387.84 132.59 392.891 128.658 397.942 124.727C400.434 122.787 402.927 120.847 405.418 118.906C420.21 107.387 434.998 95.8646 449.561 84.0667C466.019 70.7832 482.979 58.2067 500 45.7472V48.9457C483.559 61.0595 467.185 73.2977 451.289 86.2021C436.702 98.0008 421.937 109.585 407.074 121.043C400.129 126.396 393.167 131.727 386.204 137.057C375.966 144.896 365.728 152.734 355.547 160.645C347.637 167.644 339.725 174.641 331.811 181.635C327.867 185.12 323.922 188.605 319.978 192.09C305.472 204.904 290.967 217.719 276.487 230.563C284.094 225.29 291.709 220.142 299.357 215.207C314.197 203.745 329.129 192.414 344.229 181.327C366.368 165.078 389.074 149.563 412.097 134.476C434.628 119.71 457.443 105.325 480.251 90.9443C486.837 86.7919 493.422 82.6399 500 78.4792V80.5203C492.778 85.1107 485.546 89.6902 478.315 94.27C456.504 108.082 434.689 121.897 413.11 136.022C390.103 151.08 367.344 166.461 345.183 182.63C334.313 190.557 323.521 198.601 312.783 206.731C331.084 195.349 349.653 184.426 368.371 173.759C393.975 159.168 419.834 145.019 445.692 130.87C449.847 128.597 454.001 126.324 458.154 124.049C472.131 116.393 486.103 108.728 500 100.935V104.086C486.54 111.632 473.014 119.062 459.448 126.422C450.433 131.312 441.403 136.175 432.374 141.039C411.292 152.394 390.211 163.749 369.321 175.441C348.015 187.365 326.894 199.614 306.134 212.497C304.331 213.622 302.529 214.76 300.731 215.907C290.769 223.532 280.85 231.218 270.956 238.937C274.8 237.143 278.642 235.35 282.483 233.558C283.875 232.91 285.265 232.262 286.656 231.614C301.805 223.34 317.019 215.197 332.368 207.332C352.474 197.035 372.942 187.403 393.617 178.169C413.929 169.097 434.424 160.379 454.914 151.663C469.971 145.258 485.025 138.854 500 132.313V137.013C494.278 139.617 488.552 142.204 482.824 144.774C471.11 150.031 459.386 155.211 447.698 160.371C403.112 179.831 358.675 199.625 314.497 219.985C306.29 223.768 298.097 227.579 289.91 231.408C282.419 235.441 274.945 239.51 267.485 243.601C274.416 241.629 281.343 239.662 288.271 237.697C298.948 234.668 309.629 231.651 320.31 228.634C325.893 227.057 331.477 225.48 337.06 223.901C341.706 222.587 346.352 221.275 351.004 219.962C358.023 217.607 365.046 215.257 372.071 212.911C384.749 208.676 397.429 204.449 410.107 200.222C440.09 190.227 470.066 180.234 500 170.142V171.539C462.222 184.469 424.374 197.237 386.507 209.98C424.266 199.406 462.071 188.979 499.965 178.865C499.977 178.862 499.988 178.859 500 178.856V181.643C453.469 193.642 407.019 205.945 360.689 218.663C351.173 221.861 341.657 225.056 332.137 228.245C326.469 230.143 320.8 232.04 315.131 233.937C301.78 238.404 288.429 242.871 275.085 247.362C278.895 246.767 282.709 246.173 286.522 245.58C294.198 244.386 301.874 243.198 309.551 242.01L313.717 241.365C327.034 238.571 340.352 235.789 353.675 233.036C371.85 229.281 390.033 225.566 408.217 221.867C422.87 218.886 437.524 215.912 452.177 212.939C468.12 209.704 484.062 206.469 500 203.225V204.837C469.539 211.143 439.062 217.4 408.582 223.654C391.616 227.136 374.649 230.615 357.679 234.083C354.524 234.727 351.369 235.372 348.211 236.016C387.183 229.991 426.167 224.083 465.215 218.585C476.784 217.008 488.384 215.399 500 213.771V218.04C470.157 222.577 440.301 227.067 410.442 231.556C393.316 234.13 376.188 236.704 359.057 239.263C353.417 240.106 347.776 240.949 342.136 241.791C336.026 242.703 329.917 243.615 323.809 244.528L323.978 244.511C325.632 244.344 327.286 244.177 328.94 244.009C375.043 239.335 421.155 234.753 467.324 230.74C478.192 229.843 489.088 228.92 500 227.981V230.759C489.162 231.682 478.338 232.559 467.544 233.43C419.037 237.14 370.562 241.215 322.144 245.91C314.644 246.637 307.147 247.387 299.652 248.151C289.424 249.69 279.197 251.238 268.978 252.799C273.586 252.822 278.193 252.845 282.799 252.87C284.388 252.793 285.979 252.717 287.57 252.641C302.818 251.913 318.065 251.193 333.314 250.524C348.564 249.854 363.815 249.224 379.066 248.607C392.375 248.069 405.685 247.54 418.993 247.01C446.001 245.935 473.005 244.861 500 243.719V245.107C459.73 246.994 419.44 248.719 379.141 250.43C364.909 251.035 350.676 251.637 336.442 252.223C331.083 252.443 325.723 252.663 320.361 252.882L315.766 253.07C319.444 253.094 323.122 253.119 326.8 253.143C331.684 253.176 336.568 253.209 341.452 253.24C394.304 253.579 447.155 254.059 500 255.103V258.196C459.88 257.938 419.747 257.521 379.607 257.09C365.362 256.937 351.118 256.781 336.872 256.61C330.87 256.538 324.868 256.464 318.865 256.39C308.449 256.262 298.034 256.133 287.618 256.015C288.247 256.052 288.877 256.089 289.507 256.127C290.121 256.163 290.735 256.199 291.349 256.235C302.505 256.892 313.66 257.561 324.815 258.23C330.53 258.572 336.246 258.915 341.961 259.256C394.658 262.4 447.346 265.685 500 269.531V272.145C444.518 267.589 389.006 263.466 333.451 259.957C315.168 258.802 296.879 257.743 278.589 256.72C285.936 257.65 293.278 258.587 300.62 259.53C319.027 261.896 337.432 264.274 355.83 266.706C374.229 269.139 392.621 271.611 411.01 274.1C425.8 276.101 440.589 278.11 455.376 280.118C470.252 282.139 485.126 284.159 500 286.172V287.776C470.256 283.852 440.513 279.881 410.767 275.908C393.601 273.615 376.434 271.32 359.267 269.011C354.189 268.329 349.112 267.645 344.034 266.962C315.927 263.178 287.817 259.394 259.69 255.73L258.594 255.721L259.039 255.886C268.43 257.592 277.824 259.305 287.217 261.022C294.315 262.32 301.412 263.624 308.509 264.927C315.085 266.135 321.66 267.343 328.235 268.546C373.819 276.886 419.384 285.317 464.845 294.311C476.528 296.675 488.253 299.019 500 301.351V304.173C488.068 301.805 476.169 299.378 464.308 296.956C416.685 287.02 368.99 277.445 321.179 268.481C302.779 265.031 284.354 261.716 265.923 258.425L266.561 258.66C268.717 259.455 270.872 260.249 273.03 261.043C277.626 262.393 282.217 263.746 286.807 265.104C301.446 269.432 316.081 273.768 330.701 278.152C345.323 282.537 359.933 286.958 374.537 291.392C387.298 295.267 400.056 299.149 412.812 303.032C441.872 311.875 470.926 320.717 500 329.465V330.863C457.976 318.429 415.994 305.793 374.009 293.138C360.371 289.027 346.731 284.914 333.096 280.785C327.2 279 321.304 277.213 315.408 275.425C309.519 273.64 303.63 271.855 297.739 270.071L297.751 270.076C308.161 273.851 318.585 277.579 329.019 281.269C358.859 291.823 388.803 301.998 418.975 311.372C427.435 314.006 435.857 316.768 444.244 319.641C453.051 321.837 461.841 324.08 470.606 326.397C480.442 328.998 490.245 331.699 500 334.541V336.369C490.091 333.503 480.133 330.782 470.144 328.154C467.857 327.552 465.57 326.956 463.283 326.365L463.816 326.558C475.927 330.968 487.977 335.567 500 340.25V343.22C496.471 341.845 492.94 340.476 489.407 339.115C479.996 335.491 470.569 331.92 461.113 328.443C452.796 325.385 444.458 322.398 436.085 319.523C427.973 317.526 419.856 315.557 411.741 313.589C409.39 313.019 407.039 312.448 404.689 311.878C382.787 306.557 360.925 301.173 339.27 295.3C324.57 291.308 310.118 285.812 295.834 279.539C284.223 274.441 272.729 268.816 261.3 263.077L261.479 263.194C262.388 263.707 263.291 264.215 264.194 264.725C275.921 271.337 287.658 277.929 299.414 284.482C311.174 291.035 322.958 297.541 334.762 304.002C343.252 308.649 351.755 313.268 360.27 317.852C361.861 318.518 363.456 319.185 365.05 319.853C382.114 326.998 399.193 334.16 416.088 341.68C430.604 348.141 444.977 354.883 459.083 362.115C466.519 365.931 474.11 369.476 481.707 373.023C487.621 375.784 493.538 378.548 499.388 381.441C499.592 381.542 499.796 381.643 500 381.744V383.458C499.57 383.245 499.139 383.033 498.708 382.822C492.847 379.947 486.918 377.203 480.992 374.46C473.378 370.936 465.769 367.414 458.314 363.621C444.217 356.44 429.847 349.766 415.351 343.34C402.86 337.803 390.27 332.461 377.67 327.152C397.289 337.565 417.003 347.764 436.861 357.655C454.021 366.214 470.951 375.238 487.708 384.604C491.814 386.899 495.911 389.213 500 391.544V394.705C494.805 391.725 489.6 388.766 484.383 385.834C468.351 376.823 452.197 368.054 435.807 359.751C412.944 348.155 390.277 336.144 367.73 323.879C365.29 322.552 362.852 321.221 360.417 319.889C348.144 314.71 335.903 309.493 323.763 304.119C324.773 304.784 325.781 305.447 326.789 306.11C370.621 334.939 414.376 363.883 457.828 393.291C469.041 400.235 480.127 407.361 491.029 414.746C493.994 416.756 496.988 418.728 500 420.676V425.347C488.596 417.597 477.243 409.81 465.926 402.041C458.813 397.122 451.695 392.211 444.571 387.31C443.459 386.64 442.344 385.972 441.229 385.304C428.513 377.694 415.679 370.26 402.82 362.876C413.627 370.158 424.281 377.671 434.811 385.368C453.706 399.18 472.237 413.533 490.766 427.885C492.194 428.991 493.621 430.097 495.049 431.203C496.7 432.481 498.35 433.758 500 435.035V438.468C495.952 435.349 491.907 432.225 487.862 429.101C477.226 420.888 466.591 412.675 455.897 404.551C447.866 398.45 439.805 392.397 431.69 386.426C419.509 377.463 407.209 368.68 394.667 360.255C388.329 355.993 382.018 351.688 375.731 347.35C361.472 339.159 347.262 330.92 333.211 322.49C343.888 330.924 354.618 339.282 365.418 347.534C368.999 349.845 372.585 352.152 376.172 354.461L378.985 356.271C397.899 368.442 416.83 380.629 435.465 393.206C451.475 404.012 467.256 415.119 482.614 426.76C488.316 431.085 494.139 435.265 500 439.404V441.395C493.795 437.046 487.628 432.658 481.594 428.108C466.236 416.521 450.446 405.481 434.45 394.713C418.185 383.763 401.695 373.111 385.209 362.47C387.055 363.845 388.9 365.214 390.747 366.579C403.428 375.963 415.86 385.686 428.097 395.671C446.244 410.479 463.999 425.809 481.753 441.137C483.106 442.306 484.46 443.475 485.814 444.643C490.539 448.722 495.266 452.8 500 456.867V460.41C492.905 454.35 485.831 448.26 478.758 442.17C468.571 433.401 458.384 424.631 448.133 415.947C440.438 409.428 432.711 402.955 424.924 396.561C413.236 386.963 401.421 377.539 389.345 368.459C380.073 361.481 370.868 354.409 361.716 347.264C348.258 338.505 334.871 329.671 321.667 320.636C309.098 312.032 297.259 302.087 285.833 291.465C278.314 284.475 270.982 277.185 263.735 269.79C260.78 267.705 257.836 265.596 254.901 263.477C256.243 265.886 257.581 268.296 258.914 270.71C263.497 276.407 268.151 282.028 272.928 287.485C281.335 297.088 290.142 306.169 299.651 314.222C313.134 325.647 326.938 336.776 340.758 347.917L342.562 349.371C356.964 360.983 371.374 372.614 385.509 384.539C397.654 394.784 409.583 405.26 421.12 416.132C427.203 421.87 433.512 427.39 439.824 432.914C444.733 437.209 449.644 441.507 454.455 445.911C459.178 450.236 463.805 454.663 468.237 459.29C474.104 465.418 479.733 472.05 485.386 478.711C490.091 484.254 494.813 489.817 499.703 495.126C499.802 495.234 499.901 495.341 500 495.449V497.335C499.584 496.892 499.168 496.448 498.754 496.003C493.841 490.711 489.096 485.163 484.368 479.634C478.699 473.007 473.055 466.407 467.174 460.312C462.749 455.723 458.131 451.335 453.417 447.047C448.591 442.659 443.664 438.377 438.74 434.097C432.403 428.59 426.07 423.086 419.962 417.364C408.42 406.544 396.475 396.135 384.339 385.928C371.938 375.497 359.324 365.292 346.718 355.093C344.948 353.661 343.179 352.229 341.41 350.797C327.001 339.13 312.65 327.424 298.622 315.43C289.098 307.282 280.289 298.101 271.876 288.401C270.669 287.01 269.47 285.607 268.277 284.193C269.369 285.62 270.467 287.038 271.574 288.446C279.458 298.483 287.77 308.019 296.838 316.566C309.681 328.68 322.861 340.515 336.055 352.363L337.819 353.947C351.583 366.307 365.356 378.689 378.837 391.348C390.42 402.225 401.775 413.319 412.718 424.79C418.488 430.843 424.494 436.69 430.504 442.542C435.177 447.092 439.853 451.645 444.422 456.298C448.91 460.867 453.294 465.535 457.474 470.391C463.007 476.822 468.275 483.744 473.567 490.696C475.933 493.805 478.304 496.92 480.705 500H479.015C476.827 497.203 474.661 494.38 472.499 491.562C467.191 484.643 461.906 477.753 456.359 471.355C452.184 466.537 447.805 461.909 443.326 457.378C438.737 452.736 434.042 448.196 429.349 443.657C423.317 437.823 417.289 431.994 411.496 425.958C400.545 414.539 389.171 403.511 377.594 392.672C365.745 381.579 353.671 370.7 341.606 359.827C339.935 358.321 338.264 356.815 336.593 355.309C322.825 342.893 309.116 330.441 295.746 317.718C289.162 311.45 282.984 304.659 277.079 297.538C277.564 298.239 278.048 298.939 278.533 299.638C284.837 308.742 291.181 317.815 297.555 326.863C299.33 329.383 301.108 331.901 302.888 334.414C309.868 342.248 316.925 350.031 323.986 357.819L325.597 359.596C338.022 373.302 350.454 387.029 362.567 401.002C372.975 413.009 383.134 425.209 392.843 437.74C397.96 444.347 403.331 450.775 408.707 457.207C412.893 462.216 417.081 467.228 421.153 472.33C425.149 477.336 429.033 482.427 432.693 487.686C435.463 491.667 438.13 495.798 440.756 500H439.08C436.603 496.088 434.088 492.243 431.484 488.53C427.825 483.31 423.944 478.259 419.952 473.292C415.862 468.204 411.656 463.205 407.453 458.21C402.051 451.789 396.652 445.373 391.509 438.777C381.785 426.297 371.6 414.16 361.195 402.194C350.525 389.921 339.609 377.84 328.7 365.766C327.212 364.119 325.724 362.473 324.237 360.826C320.152 356.299 316.072 351.771 312.01 347.23C325.576 366.188 339.358 384.973 353.492 403.474C363.06 416.017 372.295 428.815 381.27 441.81C394.487 460.948 407.189 480.474 419.886 500H416.616C409.397 488.932 402.175 477.866 394.872 466.862C389.296 458.459 383.674 450.091 377.974 441.782C369.42 429.311 360.694 416.971 351.621 404.889C338.967 388.02 326.61 370.917 314.433 353.67C310.325 347.851 306.241 342.016 302.174 336.168C297.221 330.556 292.309 324.922 287.456 319.248C284.955 316.322 282.536 313.31 280.186 310.226C290.749 330.415 300.9 350.783 310.438 371.386C317.968 387.807 325.319 404.419 332.621 421.104C339.602 433.508 346.656 445.913 353.719 458.332C361.603 472.196 369.498 486.079 377.312 500H375.629C367.974 486.465 360.247 472.966 352.529 459.484C348.074 451.702 343.623 443.925 339.19 436.151C340.255 438.594 341.32 441.039 342.385 443.484C350.598 462.343 358.827 481.235 367.258 500H365.723C357.263 481.337 349.008 462.547 340.769 443.793C337.614 436.61 334.46 429.433 331.299 422.27C323.771 408.983 316.324 395.691 309.04 382.382C291.871 350.765 275.943 318.364 260.731 285.584C258.629 281.052 256.542 276.511 254.47 271.967C255.506 276.544 256.528 281.122 257.532 285.704C265.77 309.402 273.472 333.255 280.229 357.307C285.946 378.011 291.309 398.991 296.685 420.021C299.84 432.363 303 444.722 306.238 457.054C311.449 471.358 316.749 485.673 322.083 500H320.312C317.235 491.79 314.169 483.585 311.124 475.382C312.629 480.932 314.158 486.469 315.717 491.992C316.471 494.665 317.232 497.334 318.001 500H316.697C315.949 497.452 315.208 494.901 314.474 492.346C311.469 481.885 308.577 471.372 305.749 460.837C300.896 447.646 296.114 434.461 291.447 421.281C285.105 403.217 279.077 385.02 273.304 366.718C274.17 371.936 275.003 377.159 275.802 382.385C279.197 405.173 282.228 428.18 285.22 451.247C287.596 461.27 289.998 471.304 292.403 481.346C293.892 487.561 295.381 493.779 296.865 500H295.271C293.827 494.021 292.377 488.045 290.929 482.072C289.698 476.998 288.468 471.925 287.242 466.855C288.673 477.9 290.113 488.954 291.597 500H290.11C288.291 486.792 286.536 473.573 284.785 460.37C284.419 457.616 284.054 454.863 283.688 452.111C279.181 433.338 274.769 414.604 270.614 395.915L270.589 395.797C272.305 415.046 273.802 434.418 275.275 453.833C277.094 463.853 278.939 473.884 280.785 483.923C281.771 489.28 282.756 494.639 283.739 500H282.154C281.193 494.841 280.229 489.684 279.266 484.529C278.33 479.521 277.395 474.514 276.463 469.51C277.234 479.671 278.013 489.838 278.828 500H277.346C276.267 487.091 275.247 474.174 274.229 461.272C274.055 459.065 273.881 456.858 273.707 454.651C270.181 435.55 266.748 416.482 263.572 397.474C257.758 361.969 253.374 326.132 249.793 290.173C249.639 288.628 249.488 287.084 249.337 285.539C249.205 285.064 249.073 284.588 248.941 284.112C248.824 283.688 248.706 283.263 248.589 282.839C250.032 309.164 250.882 335.492 250.668 361.742C250.398 383.219 249.711 404.862 249.022 426.558C248.48 443.628 247.937 460.73 247.595 477.81C248.109 485.2 248.639 492.597 249.179 500H247.484C247.421 499.164 247.359 498.329 247.296 497.493L242.714 430.13C242.333 423.304 241.997 416.473 241.7 409.635C241.24 415.111 240.774 420.592 240.307 426.076C238.896 442.65 237.483 459.254 236.256 475.845C236.382 483.887 236.528 491.94 236.686 500H234.993C234.961 498.522 234.929 497.044 234.897 495.566C234.804 497.043 234.712 498.522 234.623 500H233.328C233.703 493.272 234.124 486.538 234.58 479.799C234.272 463.362 234.043 446.975 233.959 430.646C233.911 411.546 234.204 392.422 234.77 373.291C234.245 376.237 233.709 379.184 233.163 382.128C228.518 406.634 223.387 431.24 218.221 455.91C217.208 465.779 216.215 475.665 215.221 485.559C214.737 490.371 214.254 495.185 213.767 500H212.197C212.661 495.263 213.123 490.527 213.585 485.792C214.058 480.952 214.53 476.113 215.004 471.277C213.005 480.844 211.015 490.419 209.061 500H207.564C210.327 486.209 213.167 472.43 216.003 458.67L216.478 456.368C218.435 436.747 220.469 417.186 222.742 397.758C226.816 363.891 232.207 330.096 238.353 296.394C238.608 292.249 238.874 288.106 239.148 283.959C232.108 308.227 224.539 332.305 216.071 355.994C208.75 376.188 200.981 396.402 193.193 416.665C187.377 431.799 181.55 446.961 175.891 462.163C172.444 474.739 169.045 487.357 165.664 500H163.937C165.624 493.632 167.315 487.27 169.015 480.916C168.361 482.73 167.71 484.549 167.062 486.369C165.445 490.909 163.851 495.452 162.285 500H160.997C162.583 495.308 164.201 490.621 165.844 485.938C168.228 479.143 170.666 472.357 173.139 465.585C176.986 451.369 180.889 437.209 184.89 423.127C193.764 392.215 203.579 361.507 214.022 330.963C210.999 336.669 207.82 342.256 204.452 347.696C201.92 351.783 199.368 355.86 196.8 359.929C193.846 365.677 190.858 371.405 187.827 377.109C182.632 386.867 177.721 396.776 172.94 406.756C169.754 413.405 166.628 420.088 163.535 426.789C159.485 435.565 155.499 444.375 151.514 453.186C144.425 468.857 137.336 484.528 129.886 500H127.026C133.801 485.838 140.262 471.505 146.717 457.166C147.272 455.934 147.826 454.703 148.38 453.471C155.41 437.848 162.441 422.223 169.908 406.83C173.728 398.954 177.677 391.148 181.77 383.421C175.704 392.791 169.584 402.135 163.449 411.475C162.003 413.677 160.556 415.879 159.108 418.081C146.682 436.99 134.247 455.912 122.198 475.047C116.987 483.321 111.845 491.633 106.805 500H104.745C109.948 491.305 115.263 482.67 120.659 474.08C134.096 452.692 148.014 431.568 161.918 410.468L162.728 409.239C172.622 394.225 182.509 379.222 192.179 364.124C200.962 347.689 209.438 331.078 217.75 314.37C220.098 309.65 222.436 304.924 224.762 300.191C225.016 299.476 225.271 298.76 225.526 298.044C226.369 295.678 227.217 293.315 228.065 290.956C225.803 295.26 223.502 299.531 221.147 303.757C212.616 319.065 203.409 333.791 192.959 347.338C177.557 367.294 161.635 386.951 145.638 406.581C143.976 408.62 142.313 410.659 140.65 412.699C126.35 430.238 112.039 447.789 98.0905 465.592C89.1965 476.942 80.4434 488.391 71.9291 500H69.7795C78.5143 488.005 87.5055 476.182 96.6594 464.472C112.217 444.573 128.226 424.987 144.218 405.422L145.172 404.255C160.871 385.05 176.553 365.865 191.703 346.366C202.158 332.916 211.383 318.289 219.928 303.076C222.793 297.976 225.584 292.811 228.319 287.605C225.298 292.732 222.223 297.81 219.073 302.817C209.74 317.649 199.763 331.865 188.608 344.838C172.167 363.947 155.223 382.73 138.205 401.482C136.422 403.447 134.638 405.411 132.854 407.376C117.657 424.113 102.448 440.862 87.5877 457.882C75.5182 471.705 63.6672 485.697 52.2306 500H50.0455C61.7292 485.281 73.8478 470.886 86.2183 456.688C102.812 437.644 119.839 418.936 136.848 400.249L137.715 399.297C154.463 380.9 171.192 362.522 187.406 343.8C198.561 330.925 208.551 316.809 217.893 302.072C223.222 293.664 228.347 285.058 233.36 276.364C234.485 273.289 235.615 270.214 236.749 267.139C233.373 270.921 230.001 274.704 226.628 278.488C223.729 281.741 220.829 284.995 217.928 288.246C216.728 289.591 215.528 290.935 214.328 292.28C209.917 298.212 205.444 304.079 200.887 309.845C187.681 326.553 173.775 342.433 158.607 356.656C150.24 364.499 141.793 372.277 133.291 380.014C128.573 385.306 123.898 390.643 119.248 396.005C112.917 403.306 106.638 410.658 100.358 418.011C88.639 431.733 76.9199 445.456 64.8641 458.841C57.1229 467.435 49.2339 475.883 41.1127 484.1C36.0992 489.168 31.1219 494.508 26.2451 500H23.1433C28.4543 493.91 33.894 487.989 39.3791 482.393C58.7221 462.676 76.6887 441.601 94.642 420.502C95.4665 419.533 96.2909 418.563 97.1153 417.594C103.248 410.384 109.381 403.173 115.573 396.019C107.179 403.555 98.7495 411.064 90.3102 418.567C88.1064 420.527 85.9019 422.486 83.6973 424.445C62.9439 442.889 42.1755 461.346 21.7994 480.182C19.4678 482.336 17.1417 484.497 14.8203 486.662C12.5027 488.995 10.2032 491.361 7.92783 493.75C5.95691 495.819 4.00407 497.904 2.07337 500H0L0 498.185C1.91169 496.358 3.82826 494.535 5.74939 492.717C5.83965 492.62 5.93034 492.524 6.02113 492.428C6.10175 492.342 6.18244 492.257 6.26297 492.171C13.3359 484.68 20.6426 477.407 27.9939 470.664C48.3585 452.004 67.4193 431.913 86.4684 411.798C87.3758 410.84 88.2831 409.882 89.1904 408.923C93.6186 404.246 98.0471 399.568 102.493 394.909C95.8019 400.284 89.0963 405.643 82.3852 410.999C80.0829 412.837 77.78 414.674 75.4769 416.511C72.5053 418.882 69.5336 421.252 66.5634 423.623C61.9041 427.907 57.23 432.178 52.5425 436.434C35.2412 452.144 17.7329 467.623 0 482.622L0 479.482C10.8626 470.192 21.6357 460.72 32.3342 451.131C25.0869 457.016 17.8709 462.928 10.6964 468.885C7.12024 471.854 3.55416 474.834 0 477.827L0 475.471C3.16886 472.8 6.34754 470.139 9.53485 467.488C24.7274 454.85 40.1075 442.415 55.5471 430.058C63.0461 423.171 70.5091 416.251 77.9479 409.327C86.309 401.545 94.6474 393.765 102.938 385.99C127.365 363.303 152.019 340.869 176.741 318.504C173.009 321.216 169.227 323.832 165.387 326.339C150.9 335.796 136.228 345.039 121.475 354.2C110.665 361.984 100.077 370.076 89.5949 378.318C82.5454 383.86 75.5467 389.472 68.5754 395.124C59.3477 402.607 50.1736 410.165 40.9997 417.723C27.3908 428.935 13.7823 440.146 0 451.109L0 447.765C11.5135 438.524 22.9105 429.117 34.304 419.702C35.541 418.68 36.778 417.657 38.0149 416.635C54.0963 403.342 70.1796 390.048 86.606 377.231C89.8724 374.682 93.1537 372.155 96.4522 369.649L94.5208 370.837C75.2343 382.703 55.9371 394.576 36.899 406.805C24.4678 414.791 12.1424 422.921 0 431.296L0 429.187C11.8211 421.014 23.8139 413.07 35.9164 405.278C57.1534 391.603 78.7139 378.373 100.253 365.158L101.502 364.391C105.465 361.96 109.426 359.53 113.384 357.097C115.719 355.409 118.063 353.735 120.415 352.073C143.393 335.865 165.959 319.041 188.331 301.925C196.155 295.939 203.96 289.926 211.738 283.874C217.008 279.774 222.268 275.66 227.522 271.536C228.613 270.175 229.703 268.812 230.793 267.447C232.193 265.485 233.592 263.521 234.987 261.555L234.591 261.775C218.243 273.468 201.776 285.075 184.959 295.778C166.991 307.212 148.635 317.634 129.632 326.076C109.273 335.117 88.7086 343.828 68.0665 352.423C63.9151 354.838 59.7677 357.262 55.6204 359.685C40.0374 368.79 24.4551 377.894 8.66568 386.57C5.78485 388.152 2.89669 389.72 0 391.27L0 388.39C16.6402 379.364 33.0053 369.777 49.3676 360.177L47.2921 361.034C46.4514 361.382 45.6113 361.729 44.7715 362.076C42.0465 363.201 39.3209 364.325 36.5951 365.45C24.3913 370.486 12.1835 375.523 0 380.614L0 378.61C14.4289 372.578 28.8942 366.626 43.352 360.678L45.9011 359.629C50.8235 357.604 55.7457 355.578 60.666 353.549C72.8555 346.409 85.074 339.321 97.4417 332.532C107.581 326.967 117.834 321.628 128.217 316.561C149.009 306.438 169.549 295.762 189.968 284.819C197.109 280.992 204.24 277.141 211.351 273.252C218.065 269.58 224.766 265.883 231.458 262.17C223.382 264.933 215.309 267.703 207.247 270.505C186.984 280.176 166.736 289.888 146.489 299.6C142.629 301.452 138.768 303.304 134.908 305.156C117.36 313.571 99.8085 321.976 82.2578 330.379C54.841 343.506 27.4265 356.631 0 369.72L0 367.923C12.7374 361.8 25.4736 355.671 38.2105 349.542C52.6282 342.604 67.0467 335.666 81.4691 328.734C100.261 319.702 119.061 310.684 137.879 301.705C156.353 292.89 174.851 284.124 193.354 275.375C160.115 287.13 127.055 299.373 94.0721 311.828L93.0222 312.218C86.0614 314.804 79.0831 317.396 72.0794 319.955C61.0826 323.973 50.0327 327.925 38.9562 331.801C26.005 336.332 13.0113 340.739 0 344.952L0 342.348C9.01751 339.37 18.0257 336.3 27.0192 333.168C40.296 328.542 53.5336 323.762 66.7252 318.958C75.553 315.742 84.3643 312.526 93.1365 309.296C125.043 297.761 157.095 286.651 189.152 275.547C193.99 273.872 198.826 272.19 203.66 270.506C209.415 267.79 215.173 265.078 220.928 262.372C208.779 264.95 196.635 267.555 184.508 270.232C178.677 271.519 172.85 272.816 167.027 274.124C145.865 280.341 124.705 286.584 103.545 292.827L97.1689 294.708C74.4751 301.403 51.7805 308.091 29.0866 314.778L25.439 315.852C16.9592 318.351 8.47955 320.849 0 323.347L0 321.49C9.52292 318.668 19.0464 315.847 28.5707 313.027C52.8771 305.833 77.1897 298.655 101.517 291.522C114.441 287.732 127.37 283.959 140.305 280.196C112.827 286.511 85.3999 293.027 58.0022 299.672L57.916 299.692C48.7229 301.879 39.5042 304.073 30.2598 306.222C20.1971 308.56 10.1064 310.857 0 313.105L0 310.325C8.0373 308.507 16.0654 306.663 24.081 304.809C35.2098 302.233 46.3168 299.65 57.3816 297.045C92.3799 288.988 127.462 281.316 162.56 273.733C166.55 272.575 170.544 271.418 174.537 270.261C181.253 268.317 187.969 266.376 194.688 264.439C191.195 265.006 187.701 265.579 184.208 266.157C141.494 273.228 98.8792 280.876 56.317 288.831L55.4799 288.983C46.4317 290.633 37.3595 292.286 28.2651 293.895C18.862 295.56 9.43706 297.187 0 298.773L0 296.014C7.39795 294.745 14.7892 293.455 22.1707 292.156C33.4207 290.176 44.6497 288.187 55.8371 286.174C96.4678 279.069 137.181 272.48 177.905 265.947C184.619 264.87 191.332 263.786 198.045 262.702C200.074 262.374 202.102 262.046 204.131 261.719C208.508 260.46 212.883 259.203 217.263 257.947C190.787 262.285 164.325 266.698 137.865 271.111C133.527 271.834 129.189 272.558 124.851 273.281C105.655 276.481 86.4583 279.669 67.2622 282.857L0 293.914L0 292.301C6.60591 291.192 13.212 290.081 19.8183 288.971C35.5314 286.331 51.2457 283.69 66.962 281.056C87.5252 277.611 108.091 274.181 128.666 270.794C149.24 267.406 169.822 264.074 190.409 260.758C196.362 259.8 202.315 258.846 208.269 257.894C184.664 260.498 161.064 263.154 137.464 265.81C133.154 266.295 128.843 266.78 124.533 267.265C105.194 269.44 85.8549 271.603 66.5165 273.766C44.3431 276.245 22.1712 278.724 0 281.187L0 279.491C6.2248 278.783 12.4497 278.075 18.6748 277.366C34.553 275.56 50.4323 273.753 66.3133 271.953C87.0296 269.605 107.75 267.273 128.476 264.984C145.088 263.149 161.705 261.35 178.325 259.567C147.036 261.48 115.773 263.778 84.5214 266.254L83.0437 266.363C75.7579 266.901 68.4534 267.44 61.1358 267.94C49.4551 268.739 37.7416 269.46 26.0241 270.1C17.3482 270.574 8.6699 270.995 0 271.348L0 268.795C4.72431 268.578 9.45106 268.342 14.1785 268.091C28.2182 267.343 42.2633 266.436 56.2709 265.492C65.6442 264.86 75.0019 264.223 84.3275 263.562C118.183 261.362 152.061 259.609 185.942 257.866C191.395 257.586 196.848 257.296 202.3 257.007C207.175 256.49 212.05 255.976 216.929 255.463C208.411 255.432 199.893 255.422 191.375 255.46C155.766 255.618 120.163 256.309 84.5621 257.231L82.938 257.264C75.6812 257.413 68.4061 257.562 61.1194 257.671C49.4137 257.847 37.6782 257.946 25.9428 257.962C17.2911 257.973 8.6396 257.933 0 257.826L0 255.275C4.73743 255.31 9.47826 255.325 14.2207 255.325C28.2807 255.325 42.3539 255.166 56.392 254.968C65.7857 254.835 75.1645 254.697 84.5112 254.532L84.5752 254.531C84.883 254.527 85.1909 254.524 85.5015 254.521C64.0048 254.624 42.5119 254.722 21.0198 254.819L20.265 254.823C13.51 254.854 6.75526 254.884 0 254.915L0 253.118C6.78186 253.077 13.564 253.037 20.3464 252.998C45.6946 252.851 71.0445 252.723 96.3959 252.641C121.746 252.56 147.096 252.539 172.448 252.542C181.983 252.542 191.518 252.552 201.048 252.568C166.797 250.819 132.539 249.164 98.2824 247.508L92.129 247.211C68.4956 246.068 44.8638 244.918 21.2336 243.767L17.2185 243.572C11.4789 243.292 5.7394 243.013 0 242.733L0 240.936C7.10692 241.272 14.214 241.608 21.3211 241.945C46.642 243.147 71.9629 244.365 97.2831 245.631C122.601 246.898 147.917 248.224 173.233 249.575C191.827 250.567 210.419 251.59 229.008 252.637L229.751 252.639C230.367 252.642 230.983 252.644 231.599 252.646L233.357 252.652C231.171 252.267 228.985 251.884 226.803 251.501C212.488 249.679 198.171 247.882 183.842 246.185C140.846 241.09 97.7864 236.577 54.6927 232.372L54.1815 232.32C44.9199 231.376 35.6344 230.428 26.3391 229.431C17.5658 228.49 8.78306 227.514 0 226.501L0 223.757C6.99228 224.543 13.9838 225.309 20.9693 226.065C32.3257 227.293 43.6648 228.507 54.9703 229.688C95.9739 234.17 136.913 239.17 177.846 244.229C184.437 245.043 191.029 245.851 197.621 246.659C199.189 246.851 200.756 247.043 202.324 247.235C181.192 243.569 160.054 239.942 138.918 236.315C134.422 235.543 129.927 234.772 125.431 234C106.251 230.707 87.0734 227.404 67.8969 224.099C45.2617 220.198 22.6283 216.297 0 212.38L0 210.676C6.97632 211.864 13.953 213.053 20.9298 214.241C36.6878 216.925 52.4469 219.609 68.2056 222.3C88.7578 225.811 109.308 229.337 129.852 232.906C150.395 236.475 170.928 240.099 191.459 243.74C204.397 246.034 217.331 248.348 230.257 250.677C231.848 250.874 233.439 251.071 235.027 251.268C221.254 247.193 207.479 243.125 193.667 239.191C159.42 229.434 125.031 220.189 90.5806 211.167L89.3343 210.833C82.2156 208.928 75.0786 207.018 67.9414 205.066C56.6484 201.978 45.3491 198.807 34.0734 195.556C22.6748 192.27 11.3041 188.89 0 185.389L0 182.775C7.82225 185.157 15.6763 187.482 23.5479 189.762C37.0522 193.675 50.6143 197.438 64.1529 201.154C73.2128 203.641 82.2585 206.118 91.2825 208.561C123.978 217.62 156.547 227.109 189.115 236.607C195.421 238.447 201.731 240.275 208.04 242.103C211.505 243.107 214.97 244.111 218.435 245.117C224.156 246.778 229.877 248.441 235.598 250.105C231.419 248.016 227.244 245.955 223.069 243.938C188.885 231.469 154.62 219.274 120.096 207.961C90.808 198.358 61.153 189.8 31.3431 181.681C20.913 178.84 10.4627 176.056 0 173.309L0 171.4C10.6265 174.183 21.2392 177.007 31.8293 179.898C61.6634 188.041 91.3091 196.742 120.601 206.429C150.711 216.39 180.602 227.073 210.433 237.982C206.572 236.213 202.712 234.499 198.851 232.849C182.384 225.878 165.726 219.407 148.972 213.189C133 207.262 116.932 201.592 100.863 195.922C93.3228 193.261 85.7825 190.601 78.252 187.913C62.5185 182.298 46.839 176.542 31.247 170.559C20.8983 166.564 10.4678 162.826 0 159.218L0 156.423C10.7978 160.101 21.5578 163.912 32.2326 167.994C47.5525 173.889 62.9843 179.493 78.418 185.098L79.1672 185.37C81.338 186.158 83.5091 186.946 85.6801 187.734C107.052 195.492 128.426 203.25 149.653 211.382C166.364 217.784 182.972 224.447 199.387 231.605C205.756 234.357 212.12 237.303 218.491 240.363C178.727 218.091 138.807 196.114 98.3711 175.214C66.0717 158.514 33.1711 142.922 0 127.828L0 125.799C33.4486 141.034 66.5759 156.872 99.1136 173.781C142.747 196.464 185.734 220.48 228.639 244.665L229.116 244.841C221.963 239.783 214.79 234.893 207.569 230.33C195.104 222.526 182.421 215.102 169.625 207.872C157.69 201.128 145.646 194.575 133.601 188.022C127.558 184.735 121.516 181.447 115.486 178.135C103.443 171.519 91.467 164.783 79.5901 157.881C63.9878 148.762 47.9918 140.423 32.015 132.094C23.1741 127.485 14.3391 122.879 5.5798 118.146C3.71619 117.139 1.85604 116.126 0 115.106L0 112.38C2.23716 113.599 4.48023 114.809 6.728 116.01C15.3904 120.642 24.1241 125.153 32.8635 129.667C49.0178 138.011 65.1917 146.365 80.972 155.506C92.0808 161.978 103.31 168.245 114.54 174.512C115.292 174.931 116.044 175.351 116.796 175.771C117.712 176.282 118.629 176.794 119.546 177.306C136.618 186.834 153.692 196.363 170.586 206.197C172.07 207.06 173.551 207.926 175.031 208.795C157.32 197.405 139.6 186.035 121.882 174.666L116.26 171.059C96.8157 158.583 77.3762 146.1 57.9377 133.617L53.2047 130.578C35.4671 119.188 17.7306 107.798 0 96.4024L0 94.3673C3.85307 96.8329 7.70627 99.2985 11.5595 101.764C26.8787 111.566 42.1988 121.369 57.516 131.179C78.8632 144.849 100.202 158.535 121.516 172.261C142.828 185.987 164.109 199.764 185.377 213.561C203.275 225.171 221.15 236.817 239.007 248.487L239.278 248.588L239.32 248.603L239.242 248.31C205.695 223.663 172.007 199.226 137.673 175.804C112.213 158.43 86.1113 141.957 59.739 125.863C39.9447 113.783 19.9873 101.932 0 90.1294L0 88.0314C20.3199 99.9883 40.603 112.005 60.702 124.285C87.0914 140.41 113.145 157.016 138.584 174.472C168.852 195.247 198.571 216.87 228.185 238.665C199.92 215.574 171.488 192.715 142.518 170.608C118.019 151.905 92.8293 134.068 67.3497 116.594C45.0624 101.31 22.5373 86.3248 0 71.3635L0 69.2171C20.9891 83.0995 41.9621 97.0114 62.7272 111.19C62.7293 111.192 62.7314 111.193 62.7335 111.195L68.3956 115.071C66.5079 113.775 64.6185 112.481 62.7272 111.19C45.4704 98.099 27.6489 85.8515 9.84839 73.6185C6.56366 71.3611 3.27963 69.1043 0 66.8427V63.8032C3.66006 66.3122 7.326 68.8147 10.9928 71.3178C29.2398 83.7737 47.5088 96.2447 65.1862 109.607C78.2732 119.541 91.5483 129.228 104.825 138.915L105.432 139.358C107.3 140.721 109.17 142.085 111.039 143.448C129.405 156.844 147.772 170.241 165.895 183.958C180.163 194.757 194.261 205.778 208.035 217.221C215.959 223.76 223.753 230.701 231.527 237.813C229.804 235.666 228.074 233.535 226.335 231.425C220.81 225.95 215.243 220.607 209.607 215.471C196.348 203.47 182.747 191.88 168.97 180.496C155.846 169.653 142.547 159.021 129.247 148.388C122.992 143.387 116.737 138.387 110.5 133.364C97.4894 122.886 84.5753 112.293 71.8199 101.514C55.0489 87.2842 37.6411 73.9051 20.2542 60.5422C13.4867 55.3409 6.72237 50.1421 0 44.8964L0 41.7797C7.13559 47.3209 14.32 52.8072 21.508 58.2961C39.0685 71.7058 56.6503 85.1319 73.5942 99.4164C86.1207 110.02 98.8477 120.387 111.576 130.756L112.201 131.264C114.011 132.739 115.823 134.214 117.634 135.688C135.245 150.028 152.857 164.369 170.208 179.015C183.882 190.557 197.374 202.313 210.521 214.472C212.877 216.637 215.219 218.84 217.549 221.074C217.105 220.568 216.66 220.063 216.214 219.56C206.414 208.595 196.297 197.935 186.019 187.43C176.432 177.631 166.687 167.985 156.941 158.339C152.053 153.5 147.164 148.661 142.295 143.802C132.567 134.096 122.939 124.293 113.452 114.358C101 101.255 87.9537 88.7904 74.9226 76.3411C67.717 69.4571 60.5162 62.5777 53.4234 55.5974C44.8466 47.1565 36.4308 38.5656 28.348 29.648C26.6368 27.7604 23.6739 25.2689 20.3206 22.449C15.9812 18.8 10.988 14.6012 7.20718 10.4496C3.90781 6.82714 1.54205 3.20467 1.10609 0H3.16136C3.64655 2.7988 5.85641 5.88754 8.75244 9.03561C12.5564 13.1698 17.5733 17.3455 21.9334 20.9746C25.304 23.7801 28.2821 26.259 30.0042 28.1394C38.1027 36.9828 46.5364 45.494 55.1196 53.8653C62.1467 60.7194 69.2752 67.4781 76.4084 74.2413C89.6075 86.7558 102.823 99.2853 115.44 112.462C124.293 121.754 133.319 130.881 142.346 140.01C142.967 140.639 143.589 141.267 144.21 141.896C144.964 142.659 145.718 143.422 146.473 144.184C160.203 158.071 173.935 171.959 187.408 186.088C197.568 196.742 207.558 207.553 217.23 218.664C220.672 222.587 224.053 226.628 227.402 230.745C228.892 232.237 230.38 233.739 231.865 235.247C227.505 229.209 223.084 223.299 218.551 217.603C209.347 206.132 199.811 194.95 190.106 183.914C181.05 173.613 171.827 163.459 162.604 153.303C157.983 148.216 153.363 143.129 148.763 138.023C139.565 127.813 130.472 117.513 121.526 107.087C109.79 93.3415 97.4254 80.2027 85.0756 67.0796C78.2448 59.821 71.4185 52.5672 64.7054 45.2181C56.5898 36.3333 48.643 27.307 41.0455 17.9728C39.4374 15.997 36.6113 13.3518 33.4127 10.3578C30.0083 7.17127 26.1819 3.58971 22.9529 0H25.8277C28.7872 3.12038 32.1063 6.19593 35.1008 8.97074C38.3174 11.9512 41.1594 14.5847 42.7792 16.5541C50.3961 25.8157 58.3665 34.763 66.4922 43.579C73.1479 50.8003 79.9101 57.9317 86.6768 65.0678C99.1888 78.2629 111.716 91.4739 123.612 105.299C131.988 115.082 140.545 124.709 149.103 134.337C149.661 134.965 150.219 135.592 150.777 136.22C151.495 137.028 152.212 137.835 152.93 138.643C165.897 153.234 178.866 167.827 191.565 182.647C201.144 193.826 210.545 205.153 219.613 216.763ZM245.398 361.415C246.832 338.069 247.425 314.617 247.508 291.134C248.568 314.69 249.117 338.24 248.812 361.721C248.63 383.061 248.031 404.566 247.43 426.122C247.1 437.981 246.769 449.856 246.507 461.727C245.81 451.142 245.157 440.572 244.567 430.023C243.887 418.436 243.333 406.833 242.888 395.224C243.801 383.923 244.658 372.649 245.398 361.415ZM236.806 361.523C237.909 354.979 238.961 348.421 239.97 341.854C240.136 359.745 240.509 377.623 241.141 395.471C240.37 405.493 239.554 415.534 238.738 425.587C237.817 436.93 236.894 448.287 236.033 459.644C235.919 449.955 235.841 440.287 235.815 430.639C235.691 407.63 236.06 384.586 236.806 361.523ZM228.026 301.457C232.246 291.634 236.187 281.619 239.996 271.538C239.865 273.391 239.737 275.243 239.61 277.095C239.482 277.536 239.353 277.977 239.224 278.418C239.058 278.985 238.892 279.552 238.726 280.119C231.291 305.475 223.3 330.636 214.324 355.365C207.127 375.471 199.482 395.596 191.818 415.77C187.952 425.947 184.081 436.137 180.26 446.343C182.375 438.753 184.511 431.183 186.675 423.637C196.45 389.204 207.395 355.023 219.07 321.038C222.21 314.622 225.18 308.082 228.026 301.457ZM153.876 352.806C157.548 349.713 161.158 346.528 164.71 343.262C161.4 346.66 158.075 350.041 154.733 353.403C146.594 361.603 138.668 370.017 130.924 378.608C128.982 380.762 127.051 382.925 125.129 385.095C113.349 395.685 101.482 406.21 89.6084 416.741L88.6701 417.573C79.3988 425.795 70.1236 434.02 60.8817 442.276C71.4798 431.53 81.8915 420.576 92.3036 409.621C98.9669 402.611 105.63 395.6 112.343 388.644C114.854 386.04 117.372 383.445 119.898 380.859C131.313 371.59 142.657 362.255 153.876 352.806ZM271.209 354.461C267.932 335.806 264.261 317.193 260.318 298.619C266.849 318.233 272.967 337.952 278.441 357.805C284.203 378.349 289.612 399.168 295.032 420.036C296.906 427.249 298.782 434.468 300.674 441.684C298.152 434.671 295.659 427.666 293.197 420.663C285.441 398.777 278.148 376.693 271.209 354.461ZM224.586 397.976C228.037 368.398 232.494 338.871 237.58 309.416C236.609 326.438 235.796 343.463 235.188 360.475C233.964 367.595 232.683 374.698 231.338 381.785C227.758 401.025 223.875 420.327 219.911 439.675C221.386 425.725 222.925 411.817 224.586 397.976ZM265.403 397.171C259.679 362.977 255.285 328.469 251.654 293.84C251.78 294.289 251.906 294.735 252.032 295.181C256.483 323.694 261.463 352.091 267.283 380.252C267.378 381.228 267.471 382.206 267.564 383.183C269.336 401.2 270.875 419.34 272.343 437.547C269.94 424.067 267.607 410.604 265.403 397.171ZM269.15 380.388C267.66 365.623 265.893 350.868 263.908 336.128C265.711 342.153 267.538 348.168 269.39 354.173C271.023 363.662 272.554 373.158 273.966 382.662C276.612 400.023 279.044 417.511 281.407 435.052C278.323 421.848 275.31 408.67 272.427 395.514C271.306 390.48 270.215 385.437 269.15 380.388ZM206.342 294.457C206.925 293.938 207.505 293.419 208.085 292.899C205.567 295.375 203.045 297.847 200.52 300.315C183.953 316.508 167.195 332.478 150.042 347.988C141.479 355.744 133.117 363.726 124.926 371.892C120.594 376.212 116.304 380.579 112.043 384.974C102.983 392.253 93.8822 399.504 84.7739 406.755C91.2935 400.67 97.774 394.564 104.238 388.473L104.787 387.956C132.743 361.378 160.869 334.98 189.291 308.907C195.073 304.271 200.748 299.434 206.342 294.457ZM262.066 284.962C260.821 282.304 259.579 279.644 258.342 276.982C260.591 280.829 262.88 284.64 265.229 288.397C268.013 292.85 270.876 297.228 273.846 301.502C286.091 324.799 297.832 348.324 308.753 372.162C313.828 383.134 318.821 394.191 323.779 405.308C319.362 397.376 314.987 389.437 310.67 381.493C293.405 349.968 277.379 317.655 262.066 284.962ZM241.468 331.875C243.05 321.094 244.52 310.286 245.9 299.461C245.616 320.125 244.907 340.753 243.546 361.296C243.176 367.273 242.773 373.261 242.346 379.265C241.875 363.487 241.595 347.687 241.468 331.875ZM317.943 304.356C314.217 301.685 310.495 299.009 306.775 296.325C308.968 297.419 311.177 298.472 313.401 299.481C314.598 300.023 315.796 300.564 316.993 301.101L317.483 301.426C318.01 301.774 318.537 302.124 319.065 302.473C353.56 325.334 387.866 348.478 422.027 371.844C409.33 364.438 396.561 357.148 383.799 349.865L380.462 347.96C359.408 333.77 338.609 319.171 317.943 304.356ZM185.131 317.699C193.457 309.529 201.709 301.276 209.941 292.997C205.856 297.854 201.726 302.657 197.539 307.384C183.469 323.271 168.742 338.289 152.855 351.591C145.589 357.677 138.269 363.711 130.914 369.71C137.704 362.924 144.582 356.233 151.625 349.719C162.953 339.226 174.096 328.526 185.131 317.699ZM188.162 321.292C193.099 315.903 198.005 310.484 202.894 305.046C201.866 306.36 200.832 307.671 199.793 308.977C186.587 325.591 172.68 341.369 157.523 355.497C153.421 359.322 149.298 363.13 145.156 366.927C148.861 362.922 152.605 358.957 156.406 355.046C167.16 343.967 177.719 332.689 188.162 321.292ZM265.337 361.687C261.798 343.752 258.57 325.731 255.573 307.655C257.307 313.704 259.06 319.746 260.837 325.78C262.482 337.739 263.992 349.709 265.337 361.687ZM239.659 299.131C239.704 298.359 239.748 297.585 239.794 296.81L239.964 295.854C239.956 296.786 239.949 297.713 239.942 298.64C239.863 309.505 239.842 320.366 239.895 331.216C239.058 336.775 238.191 342.33 237.291 347.877C237.916 331.687 238.716 315.485 239.65 299.282L239.659 299.131ZM221.356 269.131C222.543 268.471 223.731 267.81 224.919 267.15C211.502 276.61 197.967 285.898 184.211 294.599C166.275 305.944 147.952 316.27 128.991 324.625C112.725 331.795 96.324 338.742 79.8605 345.598C80.1357 345.44 80.4147 345.28 80.693 345.12C87.0938 341.445 93.5101 337.805 99.957 334.226C109.633 328.855 119.372 323.615 129.256 318.665C143.057 311.739 156.738 304.562 170.348 297.234C183.395 290.209 196.363 283.022 209.328 275.819C213.338 273.591 217.347 271.361 221.356 269.131ZM208.935 335.849C212.888 327.865 216.783 319.849 220.654 311.817C219.585 314.864 218.522 317.914 217.464 320.965C213.575 328.807 209.43 336.461 204.95 343.856C206.284 341.191 207.612 338.522 208.935 335.849ZM262.489 325.847C260.878 314.458 259.146 303.08 257.317 291.711C260.794 308.121 264.072 324.563 267.065 341.03C265.523 335.978 263.998 330.916 262.489 325.847ZM209.639 287.131C214.313 283.454 218.986 279.772 223.66 276.089L221.877 277.7C217.76 281.42 213.646 285.142 209.532 288.865C204.471 293.443 199.411 298.022 194.346 302.595C193.143 303.681 191.94 304.768 190.734 305.858C182.251 312.719 173.541 319.166 164.521 325.008C156.568 330.164 148.556 335.249 140.505 340.294C149.378 333.717 158.196 327.062 166.973 320.347C181.282 309.402 195.466 298.28 209.639 287.131ZM289.854 287.705C288.704 286.769 287.555 285.833 286.406 284.897C290.408 287.37 294.446 289.745 298.53 291.995C313.203 302.786 327.899 313.533 342.7 324.119C348.08 327.967 353.473 331.795 358.882 335.602C347.679 329.148 336.526 322.634 325.491 315.97C324.762 315.529 324.034 315.085 323.311 314.638C320.772 312.616 318.235 310.59 315.7 308.56C307.06 301.643 298.442 294.694 289.854 287.705ZM286.781 290.44C283.692 287.59 280.632 284.692 277.594 281.755C280.815 284.58 284.059 287.368 287.333 290.101C298.578 299.492 310.154 308.266 322.295 315.862C327.974 320.466 333.664 325.051 339.372 329.611C341.668 331.446 343.967 333.276 346.27 335.105C338.32 329.9 330.407 324.65 322.561 319.324C310.018 310.813 298.192 300.968 286.781 290.44ZM266.369 284.314C266.181 283.968 265.993 283.622 265.805 283.276L266.782 284.704C271.126 291.054 275.469 297.402 279.819 303.746C284.523 310.608 289.232 317.463 293.956 324.306C292.183 322.279 290.417 320.249 288.661 318.214C283.99 312.806 279.602 307.1 275.422 301.183C272.636 295.928 269.823 290.686 266.988 285.455C266.782 285.074 266.576 284.694 266.369 284.314ZM241.481 287.463C242.59 281.387 243.717 275.314 244.864 269.241C245.259 270.699 245.657 272.158 246.056 273.618C246.057 276.491 246.053 279.362 246.044 282.232C246.039 283.662 246.033 285.091 246.025 286.524L246 286.722C244.568 298.155 243.045 309.571 241.404 320.963C241.377 313.528 241.381 306.089 241.414 298.649C241.431 294.919 241.453 291.189 241.481 287.463ZM249.521 269.222C249.579 268.711 249.636 268.2 249.693 267.689C251.107 271.703 252.511 275.723 253.903 279.745C254.337 282.427 254.767 285.111 255.193 287.795C256.643 296.931 258.033 306.073 259.35 315.225C257.413 308.612 255.5 301.988 253.61 295.355L253.522 295.045C253.214 293.122 252.909 291.196 252.606 289.271C251.555 282.591 250.526 275.906 249.521 269.222ZM252.871 256.87L252.458 256.444C260.839 258.945 269.215 261.459 277.589 263.983C285.452 266.886 293.314 269.788 301.178 272.682C320.191 279.678 339.21 286.634 358.298 293.362C376.815 299.887 395.386 306.221 414.048 312.25C411.288 311.583 408.526 310.918 405.765 310.252L403.229 309.64C381.963 304.513 360.721 299.392 339.682 293.766C325.038 289.855 310.632 284.448 296.393 278.26C282.623 272.276 269.001 265.582 255.477 258.793L252.871 256.87ZM284.429 278.247C281.687 276.446 278.943 274.646 276.203 272.848C285.186 277.915 294.168 282.98 303.155 288.033C317.164 295.911 331.182 303.764 345.234 311.535C335.268 307.325 325.338 303.068 315.489 298.675L311.993 296.374C302.807 290.328 293.622 284.283 284.429 278.247ZM228.329 295.826C229.761 292.836 231.191 289.844 232.622 286.851C230.714 291.57 228.76 296.258 226.745 300.904C225.696 303.324 224.629 305.733 223.543 308.13C224.551 305.245 225.564 302.36 226.581 299.476C227.165 298.258 227.747 297.042 228.329 295.826ZM288.226 289.029C283.522 285.131 278.875 281.127 274.269 277.057C275.41 277.822 276.551 278.582 277.696 279.335C282.54 283.323 287.385 287.31 292.233 291.293C298.006 296.036 303.781 300.775 309.567 305.501C302.288 300.337 295.193 294.802 288.226 289.029ZM209.587 295.501C211.842 292.815 214.084 290.112 216.314 287.394C215.327 288.726 214.336 290.057 213.342 291.385C212.091 292.758 210.84 294.131 209.587 295.501ZM291.024 284.904C287.12 282.057 283.219 279.205 279.322 276.347C288.969 282.649 298.609 288.967 308.232 295.313C304.819 293.65 301.44 291.888 298.089 290.041C295.733 288.332 293.378 286.619 291.024 284.904ZM266.411 287.654C262.09 280.812 257.953 273.793 253.911 266.709C255.689 269.24 257.476 271.764 259.278 274.273C261.426 278.227 263.564 282.187 265.692 286.153C266.118 286.946 266.542 287.739 266.966 288.532C266.863 288.37 266.76 288.207 266.657 288.044C266.575 287.914 266.493 287.784 266.411 287.654ZM233.055 281.296C235.515 276.457 237.937 271.589 240.337 266.713L240.323 266.904L240.305 267.158C239.744 268.64 239.181 270.119 238.615 271.597C235.923 277.214 233.22 282.826 230.502 288.428C231.35 286.05 232.201 283.673 233.055 281.296ZM264.154 266.665L264.035 266.567C267.378 269.031 270.72 271.497 274.061 273.962C278.578 277.295 283.094 280.626 287.611 283.955C285.379 282.596 283.157 281.206 280.945 279.789C279.666 278.97 278.392 278.143 277.121 277.309C272.794 273.765 268.472 270.217 264.154 266.665ZM224.591 278.238C226.823 275.987 229.057 273.735 231.291 271.483C228.198 274.939 225.098 278.39 221.992 281.835C222.861 280.637 223.727 279.438 224.591 278.238ZM241.593 275.443C242.327 272.861 243.054 270.276 243.776 267.689C243.027 271.529 242.286 275.371 241.554 279.213C241.567 277.957 241.58 276.7 241.593 275.443ZM250.036 264.605C250.104 263.984 250.173 263.363 250.241 262.741L250.473 263.156L250.711 263.685C250.885 264.069 251.059 264.455 251.233 264.839L251.575 265.595C251.915 267.626 252.252 269.656 252.587 271.686C251.741 269.324 250.891 266.964 250.036 264.605ZM247.904 271.158C247.846 270.222 247.787 269.286 247.727 268.349C247.765 268.76 247.802 269.17 247.839 269.58C247.875 269.983 247.912 270.385 247.949 270.787L247.917 271.052L247.904 271.158ZM241.684 267.914C242.168 266.903 242.652 265.894 243.136 264.884C242.645 266.604 242.152 268.322 241.656 270.039L241.674 268.608L241.684 267.914ZM237.365 269.362C237.959 267.724 238.556 266.085 239.154 264.447L240.425 263.022L240.422 263.198L240.411 263.789C240.288 264.038 240.164 264.288 240.041 264.537C239.915 264.791 239.789 265.045 239.663 265.299C238.899 266.655 238.133 268.009 237.365 269.362ZM206.693 262.508C213.69 261.391 220.691 260.288 227.693 259.193L227.399 259.33L225.84 260.063C222.056 260.878 218.268 261.695 214.481 262.512C208.779 263.742 203.078 264.977 197.378 266.212C193.079 267.143 188.78 268.074 184.48 269.003C191.884 266.833 199.288 264.668 206.693 262.508ZM245.895 263.807L246.026 263.119C246.035 264.884 246.042 266.646 246.047 268.409C245.945 268.041 245.844 267.674 245.742 267.307C245.641 266.939 245.54 266.572 245.438 266.205L245.674 264.963C245.748 264.578 245.821 264.193 245.895 263.807ZM231.78 268.178C233.993 265.388 236.201 262.59 238.406 259.793L239.622 259.377C239.277 260.306 238.934 261.231 238.591 262.157C237.429 263.299 236.266 264.439 235.102 265.578L235.013 265.648C233.929 266.502 232.844 267.354 231.759 268.208L231.78 268.178ZM236.145 259.152L236.211 259.138L236.078 259.233C230.049 261.325 224.017 263.421 217.986 265.518L216.945 265.88C220.312 264.276 223.674 262.676 227.038 261.076C230.073 260.434 233.109 259.793 236.145 259.152ZM253.311 260.625C253.124 260.291 252.937 259.957 252.75 259.623L254.158 260.416C255.714 261.866 257.271 263.313 258.831 264.759L258.849 264.777C257.06 263.509 255.276 262.233 253.494 260.954L253.311 260.625ZM248.295 259.818L248.289 259.758L248.232 259.148L248.279 259.208L248.539 259.676C248.673 259.92 248.808 260.162 248.942 260.405L249.128 260.739L249.101 260.97L249.008 261.775C248.771 261.123 248.533 260.471 248.295 259.818ZM225.551 257.017C228.066 256.896 230.58 256.776 233.094 256.656L231.77 257.278C226.483 258.124 221.191 258.974 215.9 259.823C219.117 258.887 222.334 257.951 225.551 257.017ZM232.629 258.42L235.699 257.94L235.189 258.05C234.102 258.284 233.017 258.517 231.932 258.751L232.629 258.42ZM236.697 256.489L236.707 256.484L236.735 256.483L236.697 256.489ZM283.895 254.387C286.049 254.296 288.203 254.206 290.358 254.116C304.567 254.169 318.78 254.252 332.992 254.393C365.035 254.709 397.074 255.231 429.117 255.921L421.203 255.815C407.343 255.629 393.486 255.443 379.628 255.266C364.366 255.07 349.103 254.89 333.839 254.747C318.576 254.604 303.312 254.514 288.048 254.43C286.517 254.422 284.986 254.414 283.457 254.406L283.433 254.406L283.895 254.387ZM153.082 254.205C178.362 254.101 203.643 254.025 228.925 254.015L229.107 254.024L230.162 254.08L228.363 254.268C224.512 254.264 220.663 254.262 216.814 254.26C213.06 254.257 209.307 254.257 205.553 254.257C199.131 254.257 192.708 254.257 186.285 254.246C175.219 254.226 164.152 254.207 153.082 254.205ZM260.682 252.22L263.812 251.889L264.074 251.862L259.882 252.757L259.107 252.753L260.682 252.22ZM237.451 249.355L237.01 249.038L237.84 249.342L239.867 250.656L239.951 250.973L239.19 250.591L239.089 250.54C238.543 250.145 237.997 249.75 237.451 249.355ZM268.036 249.736C276.011 248.463 283.987 247.195 291.965 245.941C286.523 247.09 281.08 248.243 275.64 249.399C272.485 249.72 269.329 250.042 266.172 250.365L268.036 249.736ZM262.492 246.343C284.273 240.077 306.067 233.839 327.901 227.74C313.694 232.542 299.502 237.391 285.312 242.247C279.049 244.39 272.788 246.541 266.53 248.698C263.177 249.221 259.824 249.747 256.471 250.273L259.103 248.208C260.233 247.585 261.362 246.964 262.492 246.343ZM253.899 248.816L253.265 249.387L253.421 249.23L253.809 248.842L253.899 248.816ZM256.735 248.12L256.935 247.942L257.186 247.869L256.735 248.12ZM465.577 221.26C472.789 220.29 480.013 219.317 487.243 218.328C476.343 219.945 465.442 221.56 454.539 223.174C439.751 225.364 424.962 227.554 410.172 229.752C391.817 232.479 373.463 235.222 355.114 238.007C336.766 240.79 318.426 243.627 300.087 246.478C297.4 246.895 294.713 247.314 292.029 247.733L290.042 247.934L289.931 247.946C301.003 245.666 312.074 243.398 323.145 241.135C370.544 233.997 418.036 227.452 465.577 221.26ZM247.101 246.465L247.208 246.313L247.256 246.245L247.327 246.555L247.299 246.591L247.115 246.826L247.106 246.728L247.101 246.465ZM259.142 245.975L259.385 245.759L261.555 244.736L260.456 245.602L259.142 245.975ZM250.872 245.238L250.476 245.949L250.886 245.109L250.872 245.238ZM243.347 242.906C243.474 241.173 243.602 239.442 243.731 237.71C244.081 240.292 244.433 242.874 244.788 245.455C244.631 245.178 244.474 244.901 244.318 244.624C243.994 244.051 243.671 243.479 243.347 242.906ZM258.122 244.933L258.2 244.879L258.559 244.623L258.313 244.844L258.122 244.933ZM237.132 242.969C236.268 241.865 235.403 240.765 234.537 239.667C235.134 240.274 235.731 240.884 236.328 241.494C236.824 242.194 237.318 242.894 237.811 243.596C237.585 243.386 237.359 243.178 237.132 242.969ZM266.681 242.32L270.143 240.689C268.507 241.593 266.875 242.496 265.243 243.4C265.676 243.061 266.107 242.724 266.539 242.387L266.681 242.32ZM237.679 237.624C237.283 236.143 236.887 234.662 236.493 233.181C237.186 234.405 237.878 235.63 238.568 236.854C239.333 238.923 240.094 240.993 240.852 243.064L240.85 243.164L240.846 243.317C240.538 242.761 240.229 242.206 239.921 241.65C239.174 240.306 238.427 238.964 237.679 237.624ZM235.538 243.105C209.755 221.898 183.907 200.792 157.637 180.275C160.009 182.013 162.375 183.754 164.737 185.504C179.099 196.138 193.298 206.989 207.176 218.268C216.749 226.101 226.166 234.489 235.538 243.105ZM268.768 237.415C274.512 233.393 280.26 229.43 286.019 225.559C279.323 230.779 272.638 236.02 265.961 241.271L264.447 241.977C263.877 242.243 263.307 242.51 262.737 242.776C264.746 240.988 266.757 239.202 268.768 237.415ZM252.89 241.41C253.021 241.244 253.153 241.078 253.284 240.912L252.395 242.504L252.452 241.964C252.598 241.779 252.744 241.594 252.89 241.41ZM247.541 242.113L247.478 241.846L247.489 241.816L247.541 242.113ZM251.272 241.561L250.867 242.073L251.363 240.72L251.356 240.792L251.272 241.561ZM248.316 239.596C249.093 237.51 249.872 235.424 250.653 233.339C250.075 236.174 249.497 239.009 248.923 241.845L248.764 242.07C248.615 241.247 248.465 240.421 248.316 239.596ZM242.136 240.766C242.223 236.499 242.316 232.233 242.417 227.966C242.535 228.849 242.654 229.732 242.773 230.615C242.835 231.077 242.897 231.538 242.959 232C242.723 234.992 242.489 237.985 242.257 240.98L242.136 240.766ZM293.808 210.941C305.605 200.705 317.629 190.751 329.795 180.972C329.137 181.556 328.478 182.141 327.819 182.726C313.939 195.045 300.097 207.406 286.261 219.776C279.553 225.774 272.853 231.78 266.159 237.792C264.704 238.819 263.247 239.85 261.791 240.884C272.356 230.513 282.976 220.396 293.808 210.941ZM246.969 239.695L246.965 239.546L246.95 238.771L246.965 238.858L247.072 239.459L246.974 239.718L246.969 239.695ZM252.823 238.371L253.001 238.12L252.808 238.511L252.823 238.371ZM254.826 237.073C255.645 235.41 256.467 233.751 257.291 232.096L258.045 231.042C257.238 232.716 256.435 234.386 255.631 236.058L255.516 236.203C255.286 236.493 255.056 236.783 254.826 237.073ZM252.008 232.628C252.091 232.214 252.175 231.8 252.259 231.386L252.456 230.412L252.425 230.699L252.312 231.778C252.136 232.436 251.959 233.094 251.782 233.752L252.008 232.628ZM260.7 225.298C261.494 223.728 262.292 222.163 263.092 220.602L262.997 220.797C262.351 222.13 261.703 223.465 261.057 224.801L260.989 224.897L260.7 225.298ZM242.599 220.52C242.64 218.904 242.682 217.287 242.725 215.669C242.938 218.244 243.146 220.819 243.346 223.396L243.422 224.386C243.438 224.592 243.454 224.797 243.47 225.002L242.856 222.436L242.599 220.52ZM254.226 224.598L254.331 223.559L254.891 222.075C254.815 222.364 254.74 222.651 254.664 222.938C254.518 223.491 254.372 224.043 254.226 224.598ZM244.984 221.358C245.087 220.045 245.192 218.728 245.297 217.411C245.347 219.233 245.396 221.054 245.44 222.875C245.449 223.247 245.458 223.618 245.467 223.99L244.984 221.358ZM452.453 154.645C465.964 148.859 479.474 143.073 492.931 137.196C489.187 138.884 485.438 140.568 481.691 142.248C469.979 147.498 458.28 152.724 446.606 157.903C404.326 176.879 362.289 196.375 320.289 215.954C316.677 217.639 313.064 219.321 309.451 221.002C317.305 216.87 325.188 212.786 333.101 208.77C353.216 198.555 373.716 189.064 394.37 179.856C413.634 171.269 433.045 162.956 452.453 154.645ZM243.215 198.553C243.433 191.471 243.676 184.393 243.93 177.317L243.975 178.533C244.228 185.395 244.482 192.263 244.715 199.138C244.803 201.73 244.89 204.324 244.975 206.918C244.779 209.323 244.584 211.728 244.388 214.135C244.262 212.509 244.136 210.882 244.011 209.255C243.738 205.688 243.474 202.121 243.215 198.553ZM241.077 209.001C240.793 206.827 240.513 204.654 240.236 202.479C240.729 205.046 241.221 207.612 241.708 210.18C241.693 210.727 241.678 211.274 241.663 211.82C241.65 212.276 241.637 212.732 241.624 213.187C241.441 211.793 241.258 210.397 241.077 209.001ZM416.43 102.222C429.693 91.3509 442.953 80.4821 456.091 69.4979L454.797 70.6414C438.182 85.3163 421.552 99.9729 404.922 114.63C389.639 128.098 374.356 141.567 359.086 155.05L358.232 155.804C351.823 160.876 345.434 165.97 339.077 171.101C324.628 182.758 310.351 194.623 296.383 206.868C303.156 200.338 309.969 193.858 316.836 187.439C333.314 172.03 350.363 157.208 367.639 142.617C383.759 129.002 400.097 115.61 416.43 102.222Z" fill="#2E3120"/>
<path d="M245.984 500C246.002 493.954 246.057 487.903 246.14 481.847C245.513 473.203 244.907 464.57 244.333 455.95C245.254 469.77 246.255 483.621 247.296 497.493L247.301 497.563C247.293 498.378 247.287 499.189 247.28 500H245.984Z" fill="#2E3120"/>
</svg>
