<svg width="500" height="500" viewBox="0 0 500 500" fill="none" xmlns="http://www.w3.org/2000/svg">
<path fill-rule="evenodd" clip-rule="evenodd" d="M59.3653 84.1832C59.151 84.2006 59.0305 84.2087 58.8103 84.0844C58.3848 83.8442 58.0218 82.9698 58.4355 82.4835C58.6541 82.2267 58.8898 82.2093 59.1569 82.1635C59.2978 82.1393 59.5959 82.2071 59.7226 82.2816C59.8735 82.3702 60.0067 82.4479 60.1077 82.6417C60.5233 83.4394 59.8747 84.1832 59.3653 84.1832Z" fill="#2E3120"/>
<path fill-rule="evenodd" clip-rule="evenodd" d="M70.2007 82.1486C69.9865 82.1659 69.8659 82.174 69.6458 82.0497C69.2203 81.8095 68.8572 80.9351 69.271 80.4489C69.4895 80.1921 69.7252 80.1746 69.9924 80.1288C70.1333 80.1047 70.4314 80.1725 70.558 80.2469C70.7089 80.3356 70.8422 80.4132 70.9431 80.607C71.3587 81.4047 70.7101 82.1486 70.2007 82.1486Z" fill="#2E3120"/>
<path fill-rule="evenodd" clip-rule="evenodd" d="M65.4278 106.767C65.2135 106.785 65.093 106.793 64.8728 106.669C64.4473 106.428 64.0843 105.554 64.498 105.068C64.7166 104.811 64.9523 104.793 65.2194 104.748C65.3603 104.724 65.6584 104.791 65.7851 104.866C65.936 104.954 66.0692 105.032 66.1702 105.226C66.5858 106.024 65.9372 106.767 65.4278 106.767Z" fill="#2E3120"/>
<path fill-rule="evenodd" clip-rule="evenodd" d="M481.69 179.744C481.476 179.761 481.356 179.769 481.136 179.645C480.71 179.404 480.347 178.53 480.761 178.044C480.979 177.787 481.215 177.77 481.482 177.724C481.623 177.7 481.921 177.767 482.048 177.842C482.199 177.931 482.332 178.008 482.433 178.202C482.848 179 482.2 179.744 481.69 179.744Z" fill="#2E3120"/>
<path fill-rule="evenodd" clip-rule="evenodd" d="M304.995 284.663C304.78 284.68 304.66 284.688 304.44 284.564C304.014 284.324 303.651 283.45 304.065 282.963C304.283 282.706 304.519 282.689 304.786 282.643C304.927 282.619 305.225 282.687 305.352 282.761C305.503 282.85 305.636 282.928 305.737 283.121C306.153 283.919 305.504 284.663 304.995 284.663Z" fill="#2E3120"/>
<path fill-rule="evenodd" clip-rule="evenodd" d="M14.6802 342.759C14.466 342.776 14.3454 342.784 14.1253 342.66C13.6998 342.42 13.3367 341.545 13.7505 341.059C13.969 340.802 14.2047 340.785 14.4719 340.739C14.6128 340.715 14.9109 340.783 15.0375 340.857C15.1884 340.946 15.3217 341.024 15.4226 341.217C15.8382 342.015 15.1896 342.759 14.6802 342.759Z" fill="#2E3120"/>
<path fill-rule="evenodd" clip-rule="evenodd" d="M492.525 171.307C492.311 171.324 492.191 171.332 491.97 171.208C491.545 170.967 491.182 170.093 491.596 169.607C491.814 169.35 492.05 169.333 492.317 169.287C492.458 169.263 492.756 169.33 492.883 169.405C493.034 169.494 493.167 169.571 493.268 169.765C493.683 170.563 493.035 171.307 492.525 171.307Z" fill="#2E3120"/>
<path fill-rule="evenodd" clip-rule="evenodd" d="M315.83 276.226C315.615 276.244 315.495 276.252 315.275 276.127C314.849 275.887 314.486 275.013 314.9 274.526C315.118 274.27 315.354 274.252 315.621 274.206C315.762 274.182 316.06 274.25 316.187 274.325C316.338 274.413 316.471 274.491 316.572 274.685C316.988 275.482 316.339 276.226 315.83 276.226Z" fill="#2E3120"/>
<path fill-rule="evenodd" clip-rule="evenodd" d="M25.5157 334.322C25.3014 334.339 25.1809 334.347 24.9607 334.223C24.5352 333.983 24.1722 333.108 24.5859 332.622C24.8045 332.365 25.0402 332.348 25.3073 332.302C25.4482 332.278 25.7463 332.346 25.873 332.42C26.0239 332.509 26.1571 332.587 26.2581 332.78C26.6737 333.578 26.0251 334.322 25.5157 334.322Z" fill="#2E3120"/>
<path fill-rule="evenodd" clip-rule="evenodd" d="M143.519 143.524C143.304 143.542 143.184 143.55 142.964 143.425C142.538 143.185 142.175 142.311 142.589 141.825C142.807 141.568 143.043 141.55 143.31 141.505C143.451 141.48 143.749 141.548 143.876 141.623C144.027 141.711 144.16 141.789 144.261 141.983C144.677 142.78 144.028 143.524 143.519 143.524Z" fill="#2E3120"/>
<path fill-rule="evenodd" clip-rule="evenodd" d="M215.421 85.2006C215.207 85.2179 215.087 85.226 214.866 85.1017C214.441 84.8615 214.078 83.9871 214.492 83.5009C214.71 83.2441 214.946 83.2266 215.213 83.1808C215.354 83.1567 215.652 83.2245 215.779 83.2989C215.93 83.3876 216.063 83.4652 216.164 83.659C216.579 84.4567 215.931 85.2006 215.421 85.2006Z" fill="#2E3120"/>
<path fill-rule="evenodd" clip-rule="evenodd" d="M295.879 119.808C295.665 119.826 295.544 119.834 295.324 119.71C294.899 119.469 294.535 118.595 294.949 118.109C295.168 117.852 295.403 117.835 295.671 117.789C295.811 117.765 296.11 117.832 296.236 117.907C296.387 117.995 296.52 118.073 296.621 118.267C297.037 119.065 296.388 119.808 295.879 119.808Z" fill="#2E3120"/>
<path fill-rule="evenodd" clip-rule="evenodd" d="M297.866 75.5841C297.652 75.6014 297.531 75.6096 297.311 75.4853C296.885 75.2451 296.522 74.3707 296.936 73.8844C297.155 73.6276 297.39 73.6101 297.657 73.5644C297.798 73.5402 298.096 73.608 298.223 73.6825C298.374 73.7711 298.507 73.8488 298.608 74.0425C299.024 74.8403 298.375 75.5841 297.866 75.5841Z" fill="#2E3120"/>
<path fill-rule="evenodd" clip-rule="evenodd" d="M273.768 203.129C273.554 203.146 273.433 203.154 273.213 203.03C272.788 202.79 272.425 201.916 272.838 201.429C273.057 201.173 273.293 201.155 273.56 201.109C273.701 201.085 273.999 201.153 274.125 201.227C274.276 201.316 274.41 201.394 274.51 201.587C274.926 202.385 274.278 203.129 273.768 203.129Z" fill="#2E3120"/>
<path fill-rule="evenodd" clip-rule="evenodd" d="M419.221 168.649C419.007 168.666 418.886 168.674 418.666 168.55C418.24 168.31 417.877 167.435 418.291 166.949C418.51 166.692 418.745 166.675 419.012 166.629C419.153 166.605 419.451 166.672 419.578 166.747C419.729 166.836 419.862 166.913 419.963 167.107C420.379 167.905 419.73 168.649 419.221 168.649Z" fill="#2E3120"/>
<path fill-rule="evenodd" clip-rule="evenodd" d="M498.648 332.288C498.433 332.305 498.313 332.313 498.093 332.189C497.667 331.949 497.304 331.074 497.718 330.588C497.936 330.331 498.172 330.314 498.439 330.268C498.58 330.244 498.878 330.312 499.005 330.386C499.156 330.475 499.289 330.552 499.39 330.746C499.805 331.544 499.157 332.288 498.648 332.288Z" fill="#2E3120"/>
<path fill-rule="evenodd" clip-rule="evenodd" d="M254.546 380.425C254.332 380.443 254.211 380.451 253.991 380.327C253.566 380.086 253.202 379.212 253.616 378.726C253.835 378.469 254.07 378.451 254.338 378.406C254.478 378.382 254.777 378.449 254.903 378.524C255.054 378.612 255.187 378.69 255.288 378.884C255.704 379.682 255.055 380.425 254.546 380.425Z" fill="#2E3120"/>
<path fill-rule="evenodd" clip-rule="evenodd" d="M177.103 477.964C176.889 477.981 176.768 477.989 176.548 477.865C176.123 477.624 175.76 476.75 176.173 476.264C176.392 476.007 176.628 475.99 176.895 475.944C177.036 475.92 177.334 475.987 177.46 476.062C177.611 476.15 177.745 476.228 177.845 476.422C178.261 477.22 177.612 477.964 177.103 477.964Z" fill="#2E3120"/>
<path fill-rule="evenodd" clip-rule="evenodd" d="M275.755 33.4994C275.541 33.5167 275.42 33.5248 275.2 33.4006C274.774 33.1604 274.411 32.286 274.825 31.7997C275.044 31.5429 275.279 31.5254 275.547 31.4796C275.687 31.4555 275.986 31.5233 276.112 31.5977C276.263 31.6864 276.396 31.7641 276.497 31.9578C276.913 32.7555 276.264 33.4994 275.755 33.4994Z" fill="#2E3120"/>
<path fill-rule="evenodd" clip-rule="evenodd" d="M368.895 55.8002C368.681 55.8175 368.56 55.8256 368.34 55.7014C367.915 55.4611 367.552 54.5867 367.965 54.1005C368.184 53.8437 368.42 53.8262 368.687 53.7804C368.828 53.7563 369.126 53.8241 369.252 53.8985C369.403 53.9872 369.536 54.0648 369.637 54.2586C370.053 55.0563 369.404 55.8002 368.895 55.8002Z" fill="#2E3120"/>
<path fill-rule="evenodd" clip-rule="evenodd" d="M402.363 280.445C402.149 280.462 402.028 280.47 401.808 280.346C401.382 280.106 401.019 279.231 401.433 278.745C401.652 278.488 401.887 278.471 402.154 278.425C402.295 278.401 402.594 278.469 402.72 278.543C402.871 278.632 403.004 278.71 403.105 278.903C403.521 279.701 402.872 280.445 402.363 280.445Z" fill="#2E3120"/>
<path fill-rule="evenodd" clip-rule="evenodd" d="M492.525 181.778C492.311 181.796 492.191 181.804 491.97 181.679C491.545 181.439 491.182 180.565 491.596 180.079C491.814 179.822 492.05 179.804 492.317 179.758C492.458 179.734 492.756 179.802 492.883 179.877C493.034 179.965 493.167 180.043 493.268 180.237C493.683 181.034 493.035 181.778 492.525 181.778Z" fill="#2E3120"/>
<path fill-rule="evenodd" clip-rule="evenodd" d="M315.83 286.698C315.615 286.715 315.495 286.723 315.275 286.599C314.849 286.359 314.486 285.484 314.9 284.998C315.118 284.741 315.354 284.724 315.621 284.678C315.762 284.654 316.06 284.722 316.187 284.796C316.338 284.885 316.471 284.962 316.572 285.156C316.988 285.954 316.339 286.698 315.83 286.698Z" fill="#2E3120"/>
<path fill-rule="evenodd" clip-rule="evenodd" d="M25.5157 344.794C25.3014 344.811 25.1809 344.819 24.9607 344.695C24.5352 344.455 24.1722 343.58 24.5859 343.094C24.8045 342.837 25.0402 342.82 25.3073 342.774C25.4482 342.75 25.7463 342.817 25.873 342.892C26.0239 342.981 26.1571 343.058 26.2581 343.252C26.6737 344.05 26.0251 344.794 25.5157 344.794Z" fill="#2E3120"/>
<path fill-rule="evenodd" clip-rule="evenodd" d="M347.692 283.646C347.478 283.663 347.358 283.671 347.137 283.547C346.712 283.307 346.349 282.432 346.763 281.946C346.981 281.689 347.217 281.672 347.484 281.626C347.625 281.602 347.923 281.67 348.05 281.744C348.201 281.833 348.334 281.91 348.435 282.104C348.85 282.902 348.202 283.646 347.692 283.646Z" fill="#2E3120"/>
<path fill-rule="evenodd" clip-rule="evenodd" d="M57.3785 341.742C57.1642 341.759 57.0437 341.767 56.8235 341.643C56.398 341.403 56.035 340.528 56.4487 340.042C56.6673 339.785 56.9029 339.768 57.1701 339.722C57.311 339.698 57.6091 339.765 57.7358 339.84C57.8867 339.929 58.0199 340.006 58.1209 340.2C58.5365 340.998 57.8879 341.742 57.3785 341.742Z" fill="#2E3120"/>
<path fill-rule="evenodd" clip-rule="evenodd" d="M126.671 229.959C126.457 229.976 126.337 229.984 126.116 229.86C125.691 229.62 125.328 228.745 125.742 228.259C125.96 228.002 126.196 227.985 126.463 227.939C126.604 227.915 126.902 227.983 127.029 228.057C127.18 228.146 127.313 228.224 127.414 228.417C127.829 229.215 127.181 229.959 126.671 229.959Z" fill="#2E3120"/>
<path fill-rule="evenodd" clip-rule="evenodd" d="M158.48 254.859C158.266 254.876 158.145 254.884 157.925 254.76C157.5 254.52 157.137 253.646 157.55 253.159C157.769 252.902 158.005 252.885 158.272 252.839C158.413 252.815 158.711 252.883 158.837 252.957C158.988 253.046 159.121 253.124 159.222 253.317C159.638 254.115 158.989 254.859 158.48 254.859Z" fill="#2E3120"/>
<path fill-rule="evenodd" clip-rule="evenodd" d="M124.685 302.829C124.47 302.847 124.35 302.855 124.13 302.731C123.704 302.49 123.341 301.616 123.755 301.13C123.973 300.873 124.209 300.856 124.476 300.81C124.617 300.786 124.915 300.853 125.042 300.928C125.193 301.016 125.326 301.094 125.427 301.288C125.843 302.086 125.194 302.829 124.685 302.829Z" fill="#2E3120"/>
<path fill-rule="evenodd" clip-rule="evenodd" d="M196.763 343.824C196.548 343.842 196.428 343.85 196.208 343.726C195.782 343.485 195.419 342.611 195.833 342.125C196.052 341.868 196.287 341.85 196.554 341.805C196.695 341.78 196.993 341.848 197.12 341.923C197.271 342.011 197.404 342.089 197.505 342.283C197.921 343.081 197.272 343.824 196.763 343.824Z" fill="#2E3120"/>
<path fill-rule="evenodd" clip-rule="evenodd" d="M119.803 252.825C119.589 252.842 119.468 252.85 119.248 252.726C118.822 252.486 118.459 251.611 118.873 251.125C119.092 250.868 119.327 250.851 119.594 250.805C119.735 250.781 120.033 250.849 120.16 250.923C120.311 251.012 120.444 251.09 120.545 251.283C120.961 252.081 120.312 252.825 119.803 252.825Z" fill="#2E3120"/>
<path fill-rule="evenodd" clip-rule="evenodd" d="M305.988 300.795C305.774 300.812 305.653 300.82 305.433 300.696C305.007 300.456 304.644 299.581 305.058 299.095C305.277 298.838 305.512 298.821 305.779 298.775C305.92 298.751 306.219 298.819 306.345 298.893C306.496 298.982 306.629 299.059 306.73 299.253C307.146 300.051 306.497 300.795 305.988 300.795Z" fill="#2E3120"/>
<path fill-rule="evenodd" clip-rule="evenodd" d="M15.6739 358.891C15.4596 358.908 15.3391 358.916 15.1189 358.792C14.6934 358.552 14.3304 357.677 14.7441 357.191C14.9627 356.934 15.1984 356.917 15.4655 356.871C15.6064 356.847 15.9045 356.915 16.0312 356.989C16.1821 357.078 16.3153 357.155 16.4163 357.349C16.8319 358.147 16.1833 358.891 15.6739 358.891Z" fill="#2E3120"/>
<path d="M84.8352 364.629C85.578 364.545 85.495 364.013 85.045 363.493C84.1795 362.492 82.9878 362.072 82.1342 362.006C81.5784 361.963 81.2025 362.223 81.0603 362.786C80.9513 363.216 81.093 363.83 81.433 364.469C81.8983 365.343 82.7221 366.334 82.9946 366.832C83.0062 366.853 83.0186 366.882 83.0309 366.916C82.8714 366.81 82.6929 366.661 82.4976 366.505C81.5289 365.732 80.3943 364.563 79.7679 364.169C79.5993 364.063 78.5192 363.365 78.0579 363.312C77.6528 363.266 77.3937 363.463 77.254 363.701C77.0796 363.996 77.0371 364.354 77.1437 364.745C77.3047 365.334 77.9715 366.092 78.1715 366.376C78.9772 367.506 79.8434 368.561 80.6499 369.678C80.9832 370.14 81.3068 370.612 81.6095 371.107C81.6747 371.214 81.9769 371.641 82.1872 372.079C82.2018 372.109 82.2167 372.144 82.2309 372.18C82.1049 372.132 81.9822 372.05 81.8618 371.958C81.363 371.577 80.9241 370.98 80.5929 370.613C79.6652 369.581 78.7792 368.479 77.8311 367.458C77.176 366.753 76.4927 366.086 75.7419 365.51C75.309 365.163 74.1307 364.293 73.1847 364.013C72.4454 363.794 71.8228 363.963 71.4403 364.486C71.1333 364.905 71.0969 365.506 71.2656 366.164C71.5014 367.083 72.2143 368.146 72.5054 368.528C73.0602 369.24 73.6574 369.919 74.299 370.552C75.2043 371.446 76.1798 372.26 77.0255 373.21C77.3637 373.59 77.6867 373.984 77.9796 374.409C78.1238 374.621 78.655 375.339 79.0292 376.067C79.1315 376.266 79.1525 376.54 79.1974 376.732C79.137 376.718 79.0747 376.699 79.0132 376.683C78.6826 376.599 78.3586 376.422 78.1351 376.284C77.3179 375.781 76.6448 375.302 76.0148 374.748C75.3982 374.206 74.8261 373.589 74.1962 372.811L72.6224 371.107C71.6565 370.014 70.4949 371.364 71.4061 372.405L72.9396 374.094C73.663 374.933 74.3201 375.592 75.0203 376.171C75.7306 376.76 76.4829 377.269 77.3971 377.797C77.7949 378.027 78.4108 378.313 78.9893 378.383C79.5372 378.449 80.054 378.335 80.4416 377.979C80.7919 377.657 80.9495 377.097 80.7677 376.376C80.5074 375.345 79.4675 373.754 79.242 373.4C78.7767 372.651 78.2381 371.969 77.6618 371.32C76.8965 370.459 76.0832 369.638 75.2588 368.841C74.732 368.332 74.1896 367.851 73.7009 367.31C73.5482 367.143 73.2526 366.794 72.9956 366.386C72.8492 366.153 72.7058 365.908 72.6224 365.666C72.5952 365.587 72.5675 365.513 72.5579 365.439C72.5403 365.304 72.6528 365.348 72.7613 365.338C72.9961 365.367 73.2586 365.456 73.5187 365.575C74.1701 365.874 74.8083 366.333 75.0929 366.543C75.7904 367.079 76.4273 367.698 77.0323 368.359C77.9689 369.381 78.8317 370.496 79.7426 371.535C80.1802 372.035 80.8012 372.873 81.4872 373.287C81.9036 373.538 82.3451 373.647 82.7929 373.557C83.3448 373.446 83.5591 373.068 83.5869 372.574C83.6013 372.318 83.532 371.992 83.3989 371.658C83.1722 371.09 82.7553 370.467 82.6726 370.327C82.3584 369.795 82.0226 369.285 81.6746 368.788C80.9331 367.729 80.1355 366.728 79.3866 365.666C80.1284 366.232 81.28 367.402 82.1767 368.004C82.6539 368.325 83.0898 368.495 83.4078 368.492C83.9698 368.487 84.2394 368.182 84.366 367.805C84.4322 367.608 84.4535 367.367 84.4174 367.111C84.3657 366.744 84.1987 366.333 84.0645 366.099C83.8173 365.668 83.1459 364.869 82.653 364.096C82.4906 363.841 82.1767 363.493 82.2627 363.363C82.3487 363.233 83.9705 364.274 83.9705 364.274C84.0643 364.336 84.2085 364.443 84.3471 364.514C84.3807 364.539 84.4181 364.561 84.4595 364.58C84.5696 364.63 84.7657 364.637 84.8352 364.629Z" fill="#2E3120"/>
<path d="M191.738 110.825C192.48 110.741 192.397 110.209 191.947 109.689C191.082 108.688 189.89 108.268 189.036 108.202C188.481 108.159 188.105 108.419 187.963 108.982C187.854 109.413 187.995 110.026 188.335 110.665C188.801 111.539 189.624 112.531 189.897 113.028C189.909 113.049 189.921 113.078 189.933 113.112C189.774 113.006 189.595 112.857 189.4 112.701C188.431 111.928 187.297 110.759 186.67 110.365C186.502 110.259 185.422 109.561 184.96 109.508C184.555 109.462 184.296 109.659 184.156 109.897C183.982 110.192 183.939 110.55 184.046 110.941C184.207 111.53 184.874 112.289 185.074 112.572C185.88 113.702 186.746 114.757 187.552 115.874C187.886 116.336 188.209 116.808 188.512 117.303C188.577 117.41 188.879 117.837 189.09 118.275C189.104 118.305 189.119 118.34 189.133 118.376C189.007 118.328 188.884 118.246 188.764 118.154C188.265 117.773 187.826 117.176 187.495 116.809C186.568 115.777 185.682 114.675 184.733 113.654C184.078 112.949 183.395 112.282 182.644 111.706C182.211 111.359 181.033 110.489 180.087 110.209C179.348 109.99 178.725 110.159 178.343 110.682C178.036 111.101 177.999 111.702 178.168 112.36C178.404 113.279 179.117 114.342 179.408 114.724C179.962 115.436 180.56 116.115 181.201 116.749C182.107 117.642 183.082 118.456 183.928 119.406C184.266 119.786 184.589 120.18 184.882 120.605C185.026 120.817 185.557 121.535 185.932 122.263C186.034 122.462 186.055 122.736 186.1 122.928C186.039 122.914 185.977 122.895 185.916 122.879C185.585 122.795 185.261 122.618 185.037 122.48C184.22 121.977 183.547 121.498 182.917 120.944C182.301 120.402 181.728 119.785 181.099 119.007L179.525 117.303C178.559 116.211 177.397 117.56 178.308 118.601L179.842 120.29C180.565 121.129 181.222 121.788 181.923 122.368C182.633 122.956 183.385 123.465 184.299 123.993C184.697 124.223 185.313 124.509 185.892 124.579C186.44 124.645 186.956 124.531 187.344 124.175C187.694 123.853 187.852 123.293 187.67 122.573C187.41 121.541 186.37 119.95 186.144 119.596C185.679 118.847 185.14 118.165 184.564 117.516C183.799 116.655 182.986 115.834 182.161 115.037C181.634 114.528 181.092 114.047 180.603 113.506C180.451 113.339 180.155 112.99 179.898 112.582C179.752 112.349 179.608 112.104 179.525 111.862C179.498 111.783 179.47 111.709 179.46 111.635C179.443 111.5 179.555 111.544 179.664 111.534C179.898 111.563 180.161 111.652 180.421 111.771C181.072 112.07 181.711 112.529 181.995 112.739C182.693 113.275 183.33 113.895 183.935 114.555C184.871 115.577 185.734 116.692 186.645 117.731C187.083 118.231 187.704 119.069 188.39 119.483C188.806 119.734 189.247 119.843 189.695 119.753C190.247 119.642 190.461 119.264 190.489 118.77C190.504 118.514 190.434 118.188 190.301 117.854C190.075 117.286 189.658 116.664 189.575 116.523C189.261 115.991 188.925 115.482 188.577 114.984C187.835 113.925 187.038 112.924 186.289 111.862C187.031 112.428 188.182 113.598 189.079 114.2C189.556 114.521 189.992 114.692 190.31 114.688C190.872 114.683 191.142 114.378 191.268 114.001C191.335 113.804 191.356 113.563 191.32 113.307C191.268 112.94 191.101 112.529 190.967 112.295C190.72 111.864 190.048 111.065 189.555 110.292C189.393 110.037 189.079 109.689 189.165 109.559C189.251 109.43 190.873 110.47 190.873 110.47C190.967 110.532 191.111 110.639 191.249 110.71C191.283 110.735 191.32 110.757 191.362 110.776C191.472 110.826 191.668 110.833 191.738 110.825Z" fill="#2E3120"/>
<path d="M407.854 214.163C408.597 214.079 408.514 213.546 408.064 213.026C407.198 212.026 406.006 211.605 405.153 211.539C404.597 211.496 404.221 211.757 404.079 212.319C403.97 212.75 404.112 213.363 404.452 214.002C404.917 214.877 405.741 215.868 406.013 216.365C406.025 216.386 406.037 216.415 406.049 216.449C405.89 216.344 405.711 216.194 405.516 216.038C404.547 215.265 403.413 214.097 402.786 213.702C402.618 213.596 401.538 212.899 401.076 212.846C400.671 212.799 400.412 212.997 400.273 213.234C400.098 213.53 400.056 213.887 400.162 214.278C400.323 214.868 400.99 215.626 401.19 215.909C401.996 217.04 402.862 218.094 403.668 219.212C404.002 219.673 404.325 220.146 404.628 220.641C404.693 220.748 404.995 221.174 405.206 221.612C405.22 221.643 405.235 221.677 405.249 221.713C405.123 221.666 405.001 221.583 404.88 221.491C404.382 221.11 403.943 220.514 403.612 220.146C402.684 219.115 401.798 218.012 400.85 216.992C400.195 216.287 399.511 215.619 398.76 215.044C398.328 214.696 397.149 213.827 396.203 213.546C395.464 213.327 394.841 213.496 394.459 214.019C394.152 214.438 394.115 215.039 394.284 215.697C394.52 216.616 395.233 217.679 395.524 218.062C396.079 218.773 396.676 219.452 397.318 220.086C398.223 220.98 399.198 221.793 400.044 222.743C400.382 223.123 400.705 223.518 400.998 223.943C401.142 224.155 401.674 224.872 402.048 225.6C402.15 225.799 402.171 226.073 402.216 226.265C402.156 226.252 402.093 226.232 402.032 226.216C401.701 226.132 401.377 225.955 401.154 225.818C400.336 225.315 399.663 224.836 399.033 224.282C398.417 223.739 397.845 223.122 397.215 222.344L395.641 220.641C394.675 219.548 393.513 220.898 394.425 221.938L395.958 223.627C396.682 224.466 397.339 225.125 398.039 225.705C398.749 226.293 399.501 226.803 400.416 227.33C400.813 227.56 401.429 227.846 402.008 227.916C402.556 227.983 403.073 227.868 403.46 227.512C403.81 227.191 403.968 226.63 403.786 225.91C403.526 224.879 402.486 223.287 402.261 222.934C401.795 222.185 401.257 221.502 400.68 220.854C399.915 219.993 399.102 219.171 398.277 218.375C397.751 217.866 397.208 217.385 396.719 216.844C396.567 216.677 396.271 216.328 396.014 215.919C395.868 215.686 395.724 215.441 395.641 215.199C395.614 215.121 395.586 215.046 395.576 214.972C395.559 214.837 395.671 214.882 395.78 214.871C396.015 214.9 396.277 214.989 396.537 215.108C397.189 215.408 397.827 215.866 398.111 216.076C398.809 216.612 399.446 217.232 400.051 217.892C400.987 218.914 401.85 220.03 402.761 221.069C403.199 221.569 403.82 222.406 404.506 222.82C404.922 223.072 405.364 223.18 405.811 223.09C406.363 222.979 406.578 222.601 406.605 222.108C406.62 221.852 406.551 221.526 406.417 221.192C406.191 220.623 405.774 220.001 405.691 219.861C405.377 219.328 405.041 218.819 404.693 218.322C403.952 217.263 403.154 216.261 402.405 215.2C403.147 215.765 404.299 216.935 405.195 217.538C405.672 217.858 406.108 218.029 406.426 218.026C406.988 218.02 407.258 217.716 407.385 217.339C407.451 217.142 407.472 216.9 407.436 216.645C407.384 216.277 407.217 215.867 407.083 215.632C406.836 215.202 406.164 214.403 405.672 213.629C405.509 213.375 405.195 213.026 405.281 212.897C405.367 212.767 406.989 213.807 406.989 213.807C407.083 213.869 407.227 213.976 407.366 214.048C407.399 214.072 407.437 214.094 407.478 214.113C407.588 214.163 407.784 214.171 407.854 214.163Z" fill="#2E3120"/>
<path d="M245.527 492.049C244.805 491.832 244.718 492.363 244.978 493.03C245.479 494.312 246.464 495.181 247.243 495.583C247.75 495.846 248.183 495.751 248.49 495.282C248.725 494.922 248.783 494.291 248.662 493.557C248.497 492.553 248.033 491.296 247.932 490.722C247.928 490.698 247.925 490.665 247.924 490.629C248.041 490.791 248.162 491.002 248.296 491.226C248.963 492.337 249.664 493.883 250.128 494.503C250.253 494.669 251.048 495.753 251.464 495.987C251.829 496.192 252.132 496.11 252.337 495.944C252.592 495.736 252.742 495.419 252.763 495.01C252.795 494.394 252.406 493.418 252.306 493.073C251.902 491.693 251.417 490.361 251.009 488.993C250.84 488.427 250.683 487.856 250.553 487.272C250.525 487.146 250.374 486.626 250.313 486.132C250.308 486.098 250.305 486.059 250.303 486.02C250.406 486.115 250.496 486.241 250.58 486.375C250.929 486.931 251.155 487.664 251.351 488.141C251.9 489.476 252.388 490.862 252.96 492.196C253.355 493.117 253.788 494.015 254.313 494.853C254.61 495.351 255.444 496.635 256.243 497.275C256.867 497.775 257.502 497.866 258.023 497.529C258.44 497.259 258.66 496.711 258.706 496.027C258.77 495.073 258.431 493.793 258.277 493.319C257.978 492.431 257.629 491.557 257.225 490.708C256.654 489.51 255.993 488.36 255.495 487.133C255.296 486.642 255.116 486.144 254.974 485.629C254.904 485.373 254.629 484.489 254.504 483.658C254.47 483.431 254.535 483.166 254.553 482.969C254.605 483.006 254.657 483.049 254.71 483.088C254.993 483.299 255.242 483.594 255.409 483.812C256.018 484.609 256.5 485.326 256.918 486.096C257.327 486.849 257.672 487.656 258.021 488.635L258.966 490.858C259.532 492.266 261.038 491.466 260.507 490.128L259.594 487.935C259.177 486.861 258.766 485.982 258.29 485.16C257.807 484.326 257.26 483.549 256.568 482.69C256.267 482.316 255.779 481.802 255.259 481.506C254.766 481.225 254.247 481.126 253.774 481.305C253.346 481.466 253.025 481.928 252.972 482.675C252.897 483.744 253.378 485.649 253.479 486.07C253.683 486.957 253.976 487.811 254.314 488.648C254.764 489.759 255.271 490.853 255.796 491.927C256.132 492.614 256.491 493.281 256.781 493.982C256.872 494.199 257.041 494.644 257.155 495.129C257.22 495.405 257.278 495.692 257.281 495.952C257.282 496.037 257.285 496.117 257.271 496.19C257.246 496.324 257.154 496.237 257.05 496.203C256.839 496.083 256.621 495.895 256.414 495.679C255.897 495.139 255.441 494.456 255.24 494.145C254.753 493.365 254.349 492.531 253.987 491.671C253.426 490.341 252.964 488.952 252.433 487.616C252.178 486.974 251.856 485.942 251.342 485.28C251.03 484.879 250.65 484.601 250.203 484.507C249.652 484.391 249.335 484.659 249.156 485.11C249.063 485.344 249.027 485.676 249.048 486.042C249.084 486.665 249.282 487.414 249.316 487.578C249.445 488.202 249.602 488.813 249.774 489.417C250.14 490.704 250.576 491.96 250.949 493.253C250.429 492.427 249.714 490.873 249.061 489.951C248.713 489.46 248.358 489.127 248.059 489.003C247.532 488.784 247.185 488.961 246.95 489.263C246.827 489.422 246.732 489.639 246.686 489.893C246.621 490.257 246.65 490.708 246.703 490.981C246.801 491.483 247.183 492.499 247.405 493.42C247.478 493.723 247.664 494.174 247.543 494.261C247.422 494.348 246.226 492.727 246.226 492.727C246.158 492.632 246.056 492.474 245.948 492.352C245.924 492.316 245.896 492.28 245.863 492.246C245.776 492.155 245.594 492.07 245.527 492.049Z" fill="#2E3120"/>
<path d="M324.113 13.1135C323.392 12.896 323.305 13.4273 323.565 14.0939C324.065 15.3758 325.051 16.2448 325.829 16.6474C326.336 16.9095 326.769 16.8154 327.076 16.3457C327.312 15.9859 327.369 15.3552 327.249 14.6213C327.084 13.6171 326.62 12.3603 326.518 11.7859C326.514 11.7617 326.511 11.7294 326.511 11.6927C326.627 11.8554 326.748 12.0662 326.883 12.2902C327.55 13.4007 328.25 14.9474 328.715 15.5666C328.84 15.7328 329.635 16.8169 330.05 17.0506C330.415 17.2558 330.719 17.1742 330.923 17.0079C331.178 16.8004 331.328 16.4828 331.35 16.0744C331.382 15.4582 330.992 14.4823 330.893 14.1372C330.488 12.7574 330.004 11.4247 329.595 10.0567C329.426 9.49137 329.269 8.92016 329.139 8.33588C329.111 8.20986 328.96 7.68977 328.899 7.19607C328.895 7.16171 328.892 7.12331 328.89 7.08379C328.993 7.17871 329.082 7.30489 329.166 7.43897C329.515 7.99469 329.741 8.72843 329.938 9.20452C330.487 10.5403 330.975 11.9261 331.547 13.2596C331.941 14.1809 332.374 15.0786 332.899 15.9171C333.197 16.4152 334.031 17.6992 334.829 18.3391C335.454 18.839 336.089 18.9295 336.609 18.5925C337.026 18.3225 337.246 17.7746 337.292 17.0911C337.356 16.1365 337.018 14.8569 336.864 14.3828C336.565 13.4953 336.216 12.6212 335.811 11.7722C335.241 10.5743 334.579 9.42356 334.082 8.19653C333.883 7.70585 333.703 7.20764 333.56 6.69284C333.491 6.43716 333.215 5.55336 333.091 4.72242C333.056 4.49521 333.122 4.23029 333.139 4.03288C333.191 4.06961 333.244 4.1127 333.296 4.15195C333.58 4.36279 333.828 4.65772 333.995 4.8755C334.604 5.67269 335.086 6.38961 335.504 7.1597C335.914 7.91347 336.258 8.71952 336.607 9.69902L337.553 11.9216C338.119 13.3302 339.624 12.53 339.093 11.1921L338.181 8.99936C337.763 7.92533 337.352 7.04607 336.876 6.22396C336.393 5.38996 335.847 4.61284 335.154 3.75427C334.853 3.38017 334.365 2.86632 333.845 2.57001C333.353 2.28936 332.833 2.19039 332.36 2.36895C331.933 2.53031 331.612 2.99205 331.559 3.73889C331.483 4.80835 331.964 6.71288 332.066 7.13379C332.269 8.02082 332.562 8.87464 332.901 9.71171C333.351 10.8231 333.858 11.9169 334.383 12.9913C334.718 13.6778 335.077 14.3447 335.367 15.0463C335.458 15.2634 335.627 15.7082 335.741 16.193C335.806 16.4694 335.864 16.7563 335.868 17.0158C335.869 17.1005 335.872 17.1814 335.858 17.2543C335.832 17.3878 335.741 17.3013 335.636 17.2674C335.425 17.1469 335.207 16.9589 335.001 16.7433C334.483 16.2034 334.028 15.5196 333.826 15.2093C333.339 14.429 332.935 13.5949 332.573 12.7354C332.013 11.4048 331.55 10.0163 331.019 8.68028C330.765 8.03748 330.443 7.00555 329.929 6.34426C329.617 5.94282 329.237 5.66486 328.79 5.57076C328.239 5.45455 327.921 5.72282 327.742 6.17379C327.649 6.40759 327.613 6.74038 327.635 7.10617C327.671 7.72906 327.868 8.47777 327.902 8.64203C328.032 9.26586 328.188 9.87669 328.36 10.4808C328.726 11.7682 329.163 13.0242 329.535 14.3169C329.016 13.4914 328.3 11.9365 327.647 11.0145C327.3 10.524 326.944 10.1905 326.646 10.0665C326.118 9.84748 325.771 10.025 325.536 10.3274C325.413 10.4855 325.318 10.7028 325.273 10.9568C325.208 11.3211 325.237 11.7723 325.29 12.0453C325.388 12.5472 325.769 13.5628 325.991 14.4835C326.064 14.7869 326.25 15.2383 326.129 15.3254C326.009 15.4124 324.813 13.7914 324.813 13.7914C324.744 13.6961 324.642 13.5384 324.535 13.4161C324.511 13.3796 324.483 13.3441 324.45 13.31C324.362 13.2193 324.181 13.1338 324.113 13.1135Z" fill="#2E3120"/>
<path fill-rule="evenodd" clip-rule="evenodd" d="M105.98 111.393C106.616 110.503 107.949 108.692 107.994 108.732L108.182 108.895C108.344 109.036 108.703 108.883 108.864 109.024C108.917 109.069 109.145 108.914 108.525 109.89C107.465 111.558 105.994 113.531 105.089 114.797C103.373 117.197 100.451 121.37 98.6273 124.156C95.5682 128.83 94.5227 130.995 91.1833 136.028C86.4328 143.186 85.2839 144.387 81.4151 150.059C79.9786 152.164 78.4657 154.435 77.2794 156.331C75.7958 158.702 74.7787 160.524 72.812 163.476C70.2174 167.371 67.8526 170.454 65.1788 174.487C63.0072 177.763 61.8663 179.724 59.5244 183.039C59.1812 183.524 58.8084 184.047 58.6834 184.165C58.1511 184.667 58.2639 184.149 58.1385 184.04C58.0517 183.965 57.817 184.109 57.7295 184.033C57.6714 183.982 57.7624 183.713 57.7048 183.663C57.4005 183.399 60.5511 179.036 62.8181 175.802C64.3484 173.62 66.1129 171.117 67.7003 168.785C70.9569 164.002 73.024 160.433 76.176 155.721C77.77 153.338 79.6017 150.625 81.1511 148.436C83.5324 145.073 85.7725 141.986 88.3621 138.103C92.2068 132.339 92.9163 130.929 95.7022 126.49C97.9845 122.854 103.519 114.835 105.98 111.393Z" fill="#2E3120"/>
<path fill-rule="evenodd" clip-rule="evenodd" d="M350.624 112.994C351.094 111.98 352.087 109.908 352.139 109.937L352.351 110.054C352.534 110.156 352.86 109.927 353.042 110.028C353.102 110.061 353.299 109.858 352.86 110.953C352.11 112.825 351.009 115.088 350.34 116.531C349.073 119.267 346.931 124.011 345.626 127.15C343.436 132.415 342.785 134.771 340.383 140.45C336.964 148.529 336.046 149.963 333.235 156.387C332.191 158.772 331.101 161.336 330.266 163.46C329.222 166.116 328.54 168.129 327.123 171.462C325.253 175.86 323.469 179.41 321.545 183.962C319.983 187.658 319.204 189.835 317.482 193.608C317.23 194.16 316.955 194.756 316.853 194.9C316.418 195.511 316.439 194.978 316.297 194.899C316.199 194.844 315.993 195.038 315.895 194.983C315.829 194.946 315.871 194.662 315.806 194.626C315.462 194.435 317.796 189.454 319.458 185.778C320.581 183.296 321.878 180.448 323.03 177.808C325.395 172.392 326.804 168.431 329.078 163.108C330.229 160.415 331.555 157.347 332.695 154.855C334.447 151.026 336.109 147.5 337.976 143.115C340.747 136.605 341.199 135.064 343.162 130.09C344.77 126.016 348.807 116.919 350.624 112.994Z" fill="#2E3120"/>
<path fill-rule="evenodd" clip-rule="evenodd" d="M143.748 419.598C144.054 418.995 144.702 417.763 144.736 417.78L144.874 417.85C144.994 417.911 145.206 417.774 145.325 417.834C145.364 417.854 145.492 417.733 145.206 418.384C144.717 419.498 143.999 420.843 143.563 421.702C142.737 423.329 141.34 426.15 140.488 428.016C139.06 431.148 138.636 432.549 137.069 435.926C134.839 440.731 134.24 441.583 132.407 445.404C131.726 446.822 131.015 448.347 130.471 449.61C129.79 451.189 129.345 452.387 128.421 454.369C127.202 456.984 126.038 459.095 124.783 461.802C123.765 464.001 123.257 465.295 122.133 467.539C121.969 467.867 121.79 468.222 121.723 468.307C121.439 468.671 121.453 468.353 121.36 468.306C121.296 468.274 121.162 468.389 121.098 468.356C121.055 468.335 121.083 468.166 121.04 468.144C120.816 468.031 122.338 465.068 123.422 462.882C124.154 461.406 125 459.713 125.752 458.143C127.294 454.922 128.213 452.566 129.696 449.4C130.446 447.799 131.311 445.974 132.055 444.493C133.198 442.216 134.282 440.118 135.499 437.511C137.307 433.64 137.601 432.723 138.881 429.765C139.93 427.342 142.563 421.932 143.748 419.598Z" fill="#2E3120"/>
<path fill-rule="evenodd" clip-rule="evenodd" d="M446.399 347.724C446.705 347.121 447.353 345.888 447.387 345.905L447.525 345.976C447.644 346.036 447.857 345.9 447.976 345.96C448.014 345.979 448.143 345.859 447.857 346.51C447.367 347.623 446.649 348.969 446.213 349.827C445.387 351.454 443.99 354.275 443.139 356.142C441.71 359.273 441.286 360.674 439.719 364.052C437.49 368.856 436.891 369.709 435.057 373.529C434.377 374.948 433.666 376.473 433.121 377.735C432.44 379.315 431.996 380.512 431.071 382.494C429.852 385.109 428.688 387.221 427.434 389.928C426.415 392.126 425.907 393.421 424.784 395.664C424.619 395.993 424.44 396.347 424.373 396.432C424.09 396.796 424.103 396.479 424.011 396.432C423.947 396.399 423.813 396.515 423.748 396.482C423.706 396.46 423.733 396.291 423.691 396.27C423.466 396.156 424.988 393.194 426.073 391.008C426.805 389.532 427.651 387.838 428.402 386.268C429.945 383.047 430.863 380.692 432.347 377.526C433.097 375.925 433.962 374.1 434.705 372.618C435.848 370.341 436.932 368.244 438.15 365.636C439.957 361.765 440.251 360.849 441.532 357.891C442.58 355.468 445.214 350.058 446.399 347.724Z" fill="#2E3120"/>
<path fill-rule="evenodd" clip-rule="evenodd" d="M98.0275 127.792C98.6635 126.903 99.9964 125.092 100.042 125.132L100.23 125.295C100.392 125.436 100.751 125.283 100.912 125.424C100.964 125.469 101.193 125.314 100.573 126.29C99.5133 127.958 98.0418 129.931 97.1366 131.197C95.4207 133.597 92.4987 137.77 90.6752 140.556C87.6161 145.23 86.5706 147.395 83.2311 152.428C78.4806 159.586 77.3317 160.787 73.463 166.458C72.0264 168.564 70.5135 170.835 69.3273 172.731C67.8436 175.102 66.8266 176.924 64.8598 179.876C62.2652 183.77 59.9005 186.854 57.2267 190.887C55.055 194.163 53.9142 196.124 51.5722 199.438C51.2291 199.924 50.8563 200.447 50.7313 200.565C50.1989 201.067 50.3118 200.549 50.1863 200.44C50.0996 200.364 49.8648 200.509 49.7774 200.433C49.7193 200.382 49.8102 200.113 49.7527 200.063C49.4483 199.799 52.599 195.436 54.8659 192.202C56.3963 190.019 58.1608 187.517 59.7481 185.185C63.0047 180.402 65.0718 176.833 68.2238 172.121C69.8179 169.738 71.6495 167.025 73.199 164.836C75.5802 161.473 77.8204 158.386 80.4099 154.503C84.2546 148.739 84.9642 147.328 87.7501 142.89C90.0324 139.253 95.5666 131.235 98.0275 127.792Z" fill="#2E3120"/>
<path fill-rule="evenodd" clip-rule="evenodd" d="M345.667 130.848C346.137 129.834 347.13 127.762 347.182 127.791L347.394 127.908C347.577 128.01 347.903 127.781 348.085 127.882C348.145 127.915 348.342 127.712 347.903 128.807C347.153 130.679 346.051 132.942 345.383 134.385C344.116 137.121 341.974 141.865 340.669 145.004C338.479 150.269 337.828 152.625 335.426 158.304C332.007 166.383 331.089 167.817 328.278 174.241C327.234 176.626 326.144 179.19 325.309 181.314C324.265 183.97 323.583 185.983 322.166 189.316C320.296 193.714 318.512 197.264 316.588 201.816C315.026 205.512 314.247 207.689 312.525 211.462C312.273 212.014 311.998 212.61 311.896 212.754C311.461 213.365 311.482 212.832 311.34 212.753C311.242 212.698 311.036 212.892 310.937 212.837C310.872 212.8 310.914 212.516 310.849 212.48C310.505 212.289 312.839 207.308 314.501 203.632C315.624 201.15 316.921 198.302 318.073 195.662C320.438 190.246 321.847 186.285 324.121 180.962C325.272 178.269 326.598 175.201 327.738 172.709C329.49 168.88 331.152 165.354 333.019 160.969C335.79 154.459 336.242 152.918 338.205 147.944C339.813 143.87 343.85 134.773 345.667 130.848Z" fill="#2E3120"/>
<path fill-rule="evenodd" clip-rule="evenodd" d="M140.515 430.216C140.821 429.613 141.469 428.38 141.503 428.397L141.641 428.467C141.761 428.528 141.973 428.392 142.092 428.452C142.13 428.471 142.259 428.351 141.973 429.002C141.484 430.115 140.765 431.461 140.33 432.319C139.503 433.946 138.106 436.767 137.255 438.634C135.826 441.765 135.402 443.166 133.835 446.544C131.606 451.348 131.007 452.201 129.174 456.021C128.493 457.44 127.782 458.965 127.237 460.227C126.556 461.807 126.112 463.004 125.188 464.986C123.968 467.601 122.804 469.713 121.55 472.42C120.531 474.618 120.023 475.913 118.9 478.156C118.735 478.485 118.556 478.839 118.489 478.924C118.206 479.288 118.219 478.971 118.127 478.924C118.063 478.891 117.929 479.007 117.865 478.974C117.822 478.952 117.85 478.783 117.807 478.762C117.583 478.648 119.105 475.686 120.189 473.5C120.921 472.024 121.767 470.33 122.518 468.76C124.061 465.539 124.979 463.184 126.463 460.018C127.213 458.417 128.078 456.592 128.822 455.11C129.964 452.833 131.048 450.736 132.266 448.128C134.073 444.257 134.368 443.341 135.648 440.383C136.697 437.96 139.33 432.55 140.515 430.216Z" fill="#2E3120"/>
<path fill-rule="evenodd" clip-rule="evenodd" d="M443.166 358.342C443.472 357.739 444.12 356.506 444.154 356.523L444.292 356.593C444.411 356.654 444.624 356.517 444.743 356.578C444.781 356.597 444.91 356.477 444.624 357.128C444.134 358.241 443.416 359.587 442.98 360.445C442.154 362.072 440.757 364.893 439.906 366.76C438.477 369.891 438.053 371.292 436.486 374.67C434.257 379.474 433.658 380.327 431.824 384.147C431.144 385.566 430.433 387.091 429.888 388.353C429.207 389.933 428.763 391.13 427.839 393.112C426.619 395.727 425.455 397.839 424.201 400.546C423.182 402.744 422.674 404.039 421.551 406.282C421.386 406.611 421.207 406.965 421.14 407.05C420.857 407.414 420.87 407.097 420.778 407.05C420.714 407.017 420.58 407.133 420.515 407.1C420.473 407.078 420.5 406.909 420.458 406.888C420.233 406.774 421.755 403.812 422.84 401.626C423.572 400.15 424.418 398.456 425.169 396.886C426.712 393.665 427.63 391.31 429.114 388.144C429.864 386.543 430.729 384.718 431.472 383.236C432.615 380.959 433.699 378.862 434.917 376.254C436.724 372.383 437.019 371.466 438.299 368.509C439.347 366.086 441.981 360.676 443.166 358.342Z" fill="#2E3120"/>
<path fill-rule="evenodd" clip-rule="evenodd" d="M114.129 108.476C114.765 107.586 116.097 105.776 116.143 105.816L116.331 105.978C116.493 106.119 116.852 105.967 117.013 106.107C117.066 106.152 117.294 105.997 116.674 106.973C115.614 108.641 114.143 110.614 113.238 111.88C111.522 114.28 108.6 118.453 106.776 121.24C103.717 125.914 102.672 128.079 99.3322 133.111C94.5817 140.269 93.4328 141.471 89.564 147.142C88.1275 149.248 86.6146 151.519 85.4283 153.414C83.9447 155.785 82.9277 157.608 80.9609 160.56C78.3663 164.454 76.0015 167.537 73.3278 171.57C71.1561 174.847 70.0152 176.807 67.6733 180.122C67.3302 180.607 66.9574 181.13 66.8324 181.248C66.3 181.751 66.4129 181.232 66.2874 181.123C66.2006 181.048 65.9659 181.192 65.8785 181.116C65.8203 181.066 65.9113 180.796 65.8537 180.746C65.5494 180.482 68.7 176.119 70.967 172.886C72.4973 170.703 74.2618 168.2 75.8492 165.869C79.1058 161.085 81.1729 157.516 84.3249 152.804C85.9189 150.421 87.7506 147.708 89.3001 145.52C91.6813 142.156 93.9214 139.069 96.511 135.187C100.356 129.422 101.065 128.012 103.851 123.573C106.133 119.937 111.668 111.918 114.129 108.476Z" fill="#2E3120"/>
<path fill-rule="evenodd" clip-rule="evenodd" d="M358.109 108.316C358.579 107.302 359.572 105.229 359.624 105.258L359.836 105.376C360.019 105.478 360.345 105.248 360.527 105.35C360.586 105.383 360.784 105.179 360.345 106.275C359.595 108.147 358.493 110.409 357.825 111.853C356.558 114.589 354.416 119.333 353.111 122.471C350.92 127.737 350.27 130.093 347.867 135.772C344.449 143.851 343.531 145.285 340.72 151.709C339.676 154.094 338.586 156.658 337.751 158.782C336.707 161.437 336.025 163.451 334.608 166.784C332.738 171.181 330.953 174.732 329.03 179.283C327.468 182.98 326.689 185.157 324.967 188.93C324.715 189.482 324.44 190.078 324.338 190.222C323.903 190.833 323.923 190.299 323.782 190.221C323.683 190.166 323.478 190.36 323.379 190.305C323.314 190.268 323.356 189.984 323.291 189.948C322.947 189.757 325.281 184.776 326.943 181.099C328.066 178.618 329.363 175.77 330.515 173.13C332.88 167.714 334.289 163.753 336.563 158.429C337.713 155.737 339.04 152.669 340.18 150.177C341.932 146.348 343.594 142.821 345.461 138.437C348.232 131.927 348.684 130.386 350.647 125.412C352.255 121.337 356.292 112.24 358.109 108.316Z" fill="#2E3120"/>
<path fill-rule="evenodd" clip-rule="evenodd" d="M148.63 416.816C148.936 416.213 149.584 414.98 149.618 414.997L149.756 415.068C149.875 415.128 150.087 414.992 150.207 415.052C150.245 415.072 150.374 414.951 150.088 415.602C149.598 416.715 148.88 418.061 148.444 418.919C147.618 420.547 146.221 423.367 145.37 425.234C143.941 428.365 143.517 429.766 141.95 433.144C139.721 437.948 139.122 438.801 137.288 442.621C136.608 444.04 135.897 445.565 135.352 446.827C134.671 448.407 134.227 449.604 133.302 451.586C132.083 454.201 130.919 456.313 129.665 459.02C128.646 461.218 128.138 462.513 127.015 464.756C126.85 465.085 126.671 465.439 126.604 465.525C126.321 465.888 126.334 465.571 126.242 465.524C126.178 465.491 126.044 465.607 125.979 465.574C125.936 465.552 125.964 465.383 125.922 465.362C125.697 465.248 127.219 462.286 128.304 460.1C129.036 458.624 129.881 456.93 130.633 455.36C132.175 452.139 133.094 449.784 134.578 446.618C135.328 445.017 136.193 443.192 136.936 441.71C138.079 439.433 139.163 437.336 140.38 434.728C142.188 430.857 142.482 429.941 143.763 426.983C144.811 424.56 147.445 419.15 148.63 416.816Z" fill="#2E3120"/>
<path fill-rule="evenodd" clip-rule="evenodd" d="M451.28 344.942C451.587 344.339 452.235 343.106 452.268 343.123L452.407 343.194C452.526 343.254 452.738 343.118 452.858 343.178C452.896 343.198 453.025 343.077 452.738 343.728C452.249 344.841 451.531 346.187 451.095 347.045C450.269 348.672 448.872 351.493 448.02 353.36C446.592 356.491 446.168 357.892 444.601 361.27C442.372 366.074 441.773 366.927 439.939 370.747C439.258 372.166 438.547 373.691 438.003 374.953C437.322 376.533 436.878 377.73 435.953 379.712C434.734 382.327 433.57 384.439 432.316 387.146C431.297 389.344 430.789 390.639 429.666 392.882C429.501 393.211 429.322 393.565 429.255 393.651C428.971 394.014 428.985 393.697 428.893 393.65C428.829 393.617 428.695 393.733 428.63 393.7C428.587 393.678 428.615 393.509 428.573 393.488C428.348 393.374 429.87 390.412 430.955 388.226C431.687 386.75 432.532 385.056 433.284 383.486C434.826 380.265 435.745 377.91 437.228 374.744C437.979 373.143 438.844 371.318 439.587 369.836C440.73 367.559 441.814 365.462 443.031 362.854C444.839 358.983 445.133 358.067 446.413 355.109C447.462 352.686 450.096 347.276 451.28 344.942Z" fill="#2E3120"/>
<path fill-rule="evenodd" clip-rule="evenodd" d="M232.716 261.813C233.171 261.345 234.121 260.398 234.148 260.426L234.261 260.541C234.358 260.64 234.597 260.584 234.694 260.683C234.726 260.715 234.881 260.645 234.432 261.165C233.666 262.054 232.618 263.085 231.972 263.75C230.745 265.011 228.653 267.209 227.338 268.689C225.132 271.172 224.35 272.358 221.946 275.027C218.525 278.823 217.725 279.426 214.947 282.424C213.916 283.537 212.827 284.741 211.967 285.753C210.892 287.019 210.146 288.004 208.73 289.569C206.863 291.633 205.184 293.237 203.259 295.377C201.695 297.114 200.862 298.17 199.186 299.913C198.941 300.169 198.674 300.444 198.588 300.502C198.22 300.749 198.318 300.452 198.243 300.375C198.191 300.322 198.032 300.385 197.98 300.331C197.945 300.296 198.017 300.145 197.982 300.109C197.799 299.923 200.049 297.634 201.672 295.93C202.767 294.781 204.03 293.464 205.17 292.231C207.508 289.702 209.019 287.78 211.287 285.284C212.434 284.021 213.75 282.586 214.858 281.434C216.562 279.665 218.16 278.046 220.023 275.989C222.79 272.934 223.318 272.164 225.336 269.794C226.989 267.853 230.958 263.621 232.716 261.813Z" fill="#2E3120"/>
</svg>
