<svg width="300" height="300" viewBox="0 0 300 300" fill="none" xmlns="http://www.w3.org/2000/svg">
<path d="M19.9578 50.476C5.0424 48.9856 6.70795 39.5699 15.7456 30.3669C33.1242 12.6706 57.0533 5.23341 74.1952 4.06215C85.3556 3.29939 92.9027 7.91207 95.7591 17.8587C97.9479 25.481 95.1025 36.3295 88.2741 47.6343C78.9321 63.1013 62.3883 80.6395 56.9167 89.4378C56.6846 89.8092 56.435 90.3245 56.1894 90.9272C59.3906 89.0538 62.9748 86.4161 66.8972 83.6568C86.3485 69.9754 109.133 49.3042 121.71 42.3252C125.096 40.4551 146.784 28.1143 156.047 27.1763C164.182 26.3526 169.384 29.8482 172.191 34.0446C175.692 39.279 176.546 45.6012 174.404 52.5144C171.172 62.9456 157.783 76.3586 153.766 81.3705C137.588 101.371 120.193 120.021 103.999 139.791C97.3068 147.961 90.8097 156.315 84.7311 165.074C83.4204 166.963 77.3523 174.512 73.1302 182.256C72.836 182.795 72.5373 183.408 72.2526 184.048C74.7837 183.205 77.2476 181.746 79.6649 180.12C89.6805 173.379 98.4942 162.824 105.143 156.324C123.772 138.077 141.564 118.572 160.602 100.522C173.756 88.0504 187.477 76.2395 202.553 66.0562C211.246 59.9073 234.906 44.5276 253.904 39.5699C268.748 35.696 281.25 38.6802 288.931 47.9334C295.095 55.3488 295.827 65.9771 292.438 77.6201C287.704 93.8807 273.388 112.686 267.543 119.45C256.404 132.037 244.412 144.052 231.527 155.257C213.348 171.067 193.76 185.457 176.778 202.267C169.987 208.989 163.501 215.968 157.62 223.488C154.724 227.232 144.058 239.928 136.544 252.808C134.489 256.33 134.067 261.177 133.166 264.57C134.378 264.33 135.629 263.986 136.864 263.708C143.504 262.217 150.01 259.087 154.496 256.656C170.908 247.754 184.424 239.282 197.074 229.48C209.456 219.885 220.943 208.967 233.592 195.208L265.193 165.074C284.59 145.74 307.914 169.618 289.617 188.029L258.825 217.902C244.297 232.743 231.104 244.404 217.044 254.66C202.78 265.063 187.675 274.077 169.317 283.407C161.329 287.477 148.962 292.544 137.346 293.781C126.342 294.953 115.965 292.927 108.181 286.631C101.149 280.941 97.9825 271.027 101.633 258.285C106.861 240.04 127.743 211.892 132.27 205.638C141.613 192.384 152.429 180.311 164.002 168.839C179.369 153.607 195.7 139.072 212.254 124.985C222.832 115.984 233.724 107.472 243.538 97.8995C246.603 94.947 252.54 88.7722 257.699 81.5467C260.64 77.4283 263.518 73.0885 265.193 68.8135C265.74 67.4178 266.297 66.0992 266.49 64.7937C266.842 62.4036 264.584 63.1894 262.404 63.0115C257.69 63.5186 252.418 65.0929 247.196 67.205C234.115 72.4965 221.301 80.6058 215.586 84.3235C201.58 93.8099 188.79 104.769 176.643 116.449C157.835 134.532 140.509 154.263 122.218 172.641C113.431 181.488 100.961 196.306 87.1865 203.63C78.8249 208.076 69.9586 209.999 60.9684 208.402C49.8843 206.436 45.5814 199.751 45.0241 191.02C44.7354 186.494 46.1257 180.728 48.7992 174.819C53.3516 164.759 61.7217 153.753 63.3832 151.273C69.6934 141.855 76.4351 132.844 83.4229 124.051C98.3127 105.316 114.329 87.5956 129.366 68.8149C114.471 78.8206 91.3465 99.5201 73.3402 110.181C63.7591 115.853 55.0051 118.868 48.6202 118.813C37.3346 118.715 31.9216 113.328 29.3794 106.659C28.0507 103.172 27.6232 98.9052 28.3465 94.3784C29.3845 87.8845 32.7395 80.618 35.4325 76.4709C40.3964 68.8506 53.8799 54.7221 63.7767 41.0398C67.0375 36.5315 73.3402 30.3669 71.614 28.0743C69.8879 25.7816 37.322 44.185 37.322 44.185C35.4385 45.2781 32.5421 47.1702 29.7594 48.437C29.0837 48.8733 28.3324 49.2628 27.5024 49.5946C25.2906 50.4784 21.3526 50.615 19.9578 50.476Z" fill="#666B64"/>
</svg>
