<svg width="300" height="300" viewBox="0 0 300 300" fill="none" xmlns="http://www.w3.org/2000/svg">
<path fill-rule="evenodd" clip-rule="evenodd" d="M144.786 75.1512C143.208 76.8757 141.586 78.6475 139.893 80.478C139.669 80.7198 139.423 80.9895 139.155 81.2834C135.817 84.9444 129.061 92.3537 119.471 96.2068C111.062 99.5854 102.284 99.0804 94.7142 95.0891C88.1257 91.6151 83.9072 86.2767 81.3853 82.418C77.3289 76.2115 74.2724 68.0933 72.9309 64.5305C72.6997 63.9163 72.5194 63.4374 72.3937 63.1271C67.6777 51.48 60.9384 49.6761 57.5031 49.7918C53.5872 49.9238 47.474 52.6834 44.2419 62.1085C41.3058 70.6705 40.6981 81.3902 44.3674 92.503C44.3674 92.503 49.6283 105.854 48.5018 113.583C47.3754 121.312 19.0018 132.006 14.5018 123.506C10.8474 116.604 6.38442 105.045 6.38442 105.045C-0.130081 85.3149 0.748137 65.6287 6.40478 49.1333C14.3686 25.9099 33.731 10.5701 56.156 9.81452C82.829 8.91578 101.972 28.5395 110.942 51.9019C111.03 52.1319 111.118 52.3592 111.205 52.5843C112.367 51.3234 113.56 50.0198 114.78 48.687C125.459 37.0169 136.667 24.3152 149.708 15.2204C157.747 9.61431 169.359 3.71661 183.405 4.85268C189.898 5.37787 196.145 7.5181 201.467 11.6558C206.672 15.7023 209.828 20.751 211.748 25.3065C215.227 33.5577 215.568 42.6695 215.747 47.4418L215.751 47.5373C215.912 51.816 215.977 56.2047 215.893 60.6569C229.094 56.5357 248.555 52.9331 266.709 62.0101C286.013 71.662 295.085 93.8437 290.209 113.583C286.458 128.771 276.307 137.929 269.161 143.825C265.693 146.686 262.583 149.13 259.721 151.379C255.027 155.067 250.999 158.232 247.151 161.858C247.853 162.091 248.541 162.325 249.183 162.553C259.868 166.349 270.321 171.958 279.505 179.802C287.115 186.303 294.145 195.155 296.943 206.374C299.91 218.274 297.482 230.351 290.378 241.063C276.55 261.915 245.9 298.006 215.893 298.006C209.905 298.006 192.842 286.727 199.232 272.473C202.427 265.346 214.711 259.808 214.711 259.808C216.013 258.744 217.301 257.693 218.574 256.655C234.378 243.764 247.909 232.728 257.042 218.956C257.915 217.64 258.107 216.871 258.152 216.633C258.191 216.429 258.191 216.292 258.131 216.054C257.971 215.41 257.092 213.263 253.525 210.217C248.582 205.995 242.568 202.652 235.792 200.245C234.42 199.757 233.322 199.415 231.927 198.981C230.973 198.684 229.879 198.343 228.463 197.883C225.536 196.931 221.808 195.63 217.985 193.703C214.625 192.009 208.607 188.617 204.497 182.144C199.565 174.375 199.511 165.825 201.813 158.572C204.879 148.909 210.839 141.735 215.523 136.889C222.252 129.926 230.479 123.451 237.246 118.125C239.621 116.257 241.816 114.53 243.703 112.972C249.719 108.008 250.909 105.883 251.376 103.992C251.632 102.958 251.557 101.575 250.958 100.224C250.373 98.9028 249.532 98.1428 248.821 97.7872C237.59 92.172 223.7 101.123 212.828 104.439C209.652 105.408 204.649 106.719 199.358 106.643C194.56 106.573 182.269 104.937 176.835 92.2978C173.538 84.6273 186.502 47.5373 175.639 46.137C169.327 45.3232 149.515 69.9854 144.786 75.1512Z" fill="#939878"/>
</svg>
