<svg width="300" height="300" viewBox="0 0 300 300" fill="none" xmlns="http://www.w3.org/2000/svg">
<path fill-rule="evenodd" clip-rule="evenodd" d="M23.7975 30.292C20.4 31.5337 14.3164 56.4094 13.1405 67.6103C11.0648 87.4061 11.4121 98.638 10.3003 114.21C7.73712 150.117 10.8329 186.979 11.8583 223.096C12.0298 229.135 10.6892 254.318 14.9023 258.298C23.5116 266.432 44.197 266.004 56.0734 267.357C94.3616 271.722 134.595 273.31 173.324 272.211C196.731 271.546 220.707 274.002 243.872 271.232C253.058 270.131 264.206 268.657 270.707 261.776C273.887 258.41 273.401 245.474 273.704 241.233C275.29 219.029 277.127 196.683 280.505 174.557C284.814 146.322 284.942 117.322 287.281 88.9584C288.28 76.8413 291.417 56.5105 285.537 45.5383C283.418 41.5852 276.256 41.8012 272.631 41.3014C255.072 38.8846 214.287 35.6143 196.455 34.8475C143.552 32.576 113.047 32.221 60.5259 27.8894C50.6857 27.0786 32.802 27.0042 23.7975 30.292Z" fill="#CF6F49"/>
</svg>
