<svg width="357" height="357" viewBox="0 0 357 357" fill="none" xmlns="http://www.w3.org/2000/svg">
<path d="M178.175 163.921L188.976 0H167.373L178.175 163.921Z" fill="#E55733"/>
<path d="M178.175 192.429L188.976 356.35H167.373L178.175 192.429Z" fill="#E55733"/>
<path d="M178.175 192.429L167.373 356.35H188.976L178.175 192.429Z" fill="#E55733"/>
<path d="M178.175 163.921L167.373 0H188.976L178.175 163.921Z" fill="#E55733"/>
<path d="M192.429 178.175L356.35 188.976V167.373L192.429 178.175Z" fill="#E55733"/>
<path d="M163.921 178.175L0 188.976L9.44277e-07 167.373L163.921 178.175Z" fill="#E55733"/>
<path d="M163.921 178.175L9.44277e-07 167.373L0 188.976L163.921 178.175Z" fill="#E55733"/>
<path d="M192.429 178.175L356.35 167.373V188.976L192.429 178.175Z" fill="#E55733"/>
<path d="M168.096 168.096L59.8238 44.5485L44.5485 59.8238L168.096 168.096Z" fill="#E55733"/>
<path d="M188.254 188.254L311.801 296.526L296.526 311.801L188.254 188.254Z" fill="#E55733"/>
<path d="M188.254 188.254L296.526 311.801L311.801 296.526L188.254 188.254Z" fill="#E55733"/>
<path d="M168.096 168.096L44.5485 59.8238L59.8238 44.5485L168.096 168.096Z" fill="#E55733"/>
<path d="M188.254 168.096L311.801 59.8239L296.526 44.5486L188.254 168.096Z" fill="#E55733"/>
<path d="M168.096 188.254L59.8238 311.801L44.5485 296.526L168.096 188.254Z" fill="#E55733"/>
<path d="M168.096 188.254L44.5485 296.526L59.8238 311.801L168.096 188.254Z" fill="#E55733"/>
<path d="M188.254 168.096L296.526 44.5486L311.801 59.8239L188.254 168.096Z" fill="#E55733"/>
<path d="M181.864 164.406L234.723 8.86671L213.857 3.27556L181.864 164.406Z" fill="#E55733"/>
<path d="M174.486 191.943L142.493 353.074L121.627 347.483L174.486 191.943Z" fill="#E55733"/>
<path d="M174.486 191.943L121.627 347.483L142.493 353.074L174.486 191.943Z" fill="#E55733"/>
<path d="M181.864 164.406L213.857 3.27556L234.723 8.86671L181.864 164.406Z" fill="#E55733"/>
<path d="M191.943 181.864L347.483 234.723L353.074 213.857L191.943 181.864Z" fill="#E55733"/>
<path d="M164.406 174.486L3.27559 142.493L8.86674 121.626L164.406 174.486Z" fill="#E55733"/>
<path d="M164.406 174.486L8.86674 121.626L3.27559 142.493L164.406 174.486Z" fill="#E55733"/>
<path d="M191.943 181.864L353.074 213.857L347.483 234.723L191.943 181.864Z" fill="#E55733"/>
<path d="M171.048 165.83L98.4416 18.4703L79.7332 29.2716L171.048 165.83Z" fill="#E55733"/>
<path d="M185.302 190.519L276.616 327.078L257.908 337.879L185.302 190.519Z" fill="#E55733"/>
<path d="M185.302 190.519L257.908 337.879L276.616 327.078L185.302 190.519Z" fill="#E55733"/>
<path d="M171.048 165.83L79.7332 29.2716L98.4416 18.4703L171.048 165.83Z" fill="#E55733"/>
<path d="M190.519 171.048L337.879 98.4416L327.078 79.7332L190.519 171.048Z" fill="#E55733"/>
<path d="M165.83 185.302L29.2715 276.616L18.4703 257.908L165.83 185.302Z" fill="#E55733"/>
<path d="M165.83 185.302L18.4703 257.908L29.2715 276.616L165.83 185.302Z" fill="#E55733"/>
<path d="M190.519 171.048L327.078 79.7332L337.879 98.4416L190.519 171.048Z" fill="#E55733"/>
<path d="M185.302 165.83L276.616 29.2715L257.908 18.4702L185.302 165.83Z" fill="#E55733"/>
<path d="M171.048 190.519L98.4416 337.879L79.7332 327.078L171.048 190.519Z" fill="#E55733"/>
<path d="M171.048 190.519L79.7332 327.078L98.4416 337.879L171.048 190.519Z" fill="#E55733"/>
<path d="M185.302 165.83L257.908 18.4702L276.616 29.2715L185.302 165.83Z" fill="#E55733"/>
<path d="M190.519 185.302L327.078 276.616L337.879 257.908L190.519 185.302Z" fill="#E55733"/>
<path d="M165.83 171.048L18.4703 98.4415L29.2715 79.7332L165.83 171.048Z" fill="#E55733"/>
<path d="M165.83 171.048L29.2715 79.7332L18.4703 98.4415L165.83 171.048Z" fill="#E55733"/>
<path d="M190.519 185.302L337.879 257.908L327.078 276.616L190.519 185.302Z" fill="#E55733"/>
<path d="M174.486 164.407L142.493 3.27565L121.627 8.86679L174.486 164.407Z" fill="#E55733"/>
<path d="M181.864 191.943L234.723 347.483L213.857 353.074L181.864 191.943Z" fill="#E55733"/>
<path d="M181.864 191.943L213.857 353.074L234.723 347.483L181.864 191.943Z" fill="#E55733"/>
<path d="M174.486 164.407L121.627 8.86679L142.493 3.27565L174.486 164.407Z" fill="#E55733"/>
<path d="M191.943 174.486L353.074 142.493L347.483 121.626L191.943 174.486Z" fill="#E55733"/>
<path d="M164.406 181.864L8.86675 234.723L3.2756 213.857L164.406 181.864Z" fill="#E55733"/>
<path d="M164.406 181.864L3.2756 213.857L8.86675 234.723L164.406 181.864Z" fill="#E55733"/>
<path d="M191.943 174.486L347.483 121.626L353.074 142.493L191.943 174.486Z" fill="#E55733"/>
</svg>
