<svg width="357" height="357" viewBox="0 0 357 357" fill="none" xmlns="http://www.w3.org/2000/svg">
<path fill-rule="evenodd" clip-rule="evenodd" d="M178.174 24.9444C93.5477 24.9444 24.9441 93.5479 24.9441 178.175C24.9441 262.801 93.5477 331.405 178.174 331.405C262.801 331.405 331.405 262.801 331.405 178.175C331.405 93.5479 262.801 24.9444 178.174 24.9444ZM1.1875 178.175C1.1875 80.4275 80.4272 1.18774 178.174 1.18774C275.922 1.18774 355.161 80.4275 355.161 178.175C355.161 275.922 275.922 355.162 178.174 355.162C80.4272 355.162 1.1875 275.922 1.1875 178.175Z" fill="#F5BD33"/>
<path fill-rule="evenodd" clip-rule="evenodd" d="M178.175 64.1429C115.197 64.1429 64.1434 115.197 64.1434 178.175C64.1434 241.153 115.197 292.207 178.175 292.207C241.153 292.207 292.207 241.153 292.207 178.175C292.207 115.197 241.153 64.1429 178.175 64.1429ZM40.3867 178.175C40.3867 102.076 102.077 40.3862 178.175 40.3862C254.274 40.3862 315.964 102.076 315.964 178.175C315.964 254.273 254.274 315.963 178.175 315.963C102.077 315.963 40.3867 254.273 40.3867 178.175Z" fill="#F5BD33"/>
<path fill-rule="evenodd" clip-rule="evenodd" d="M178.175 108.093C139.469 108.093 108.093 139.469 108.093 178.175C108.093 216.88 139.469 248.257 178.175 248.257C216.88 248.257 248.257 216.88 248.257 178.175C248.257 139.469 216.88 108.093 178.175 108.093ZM84.3359 178.175C84.3359 126.349 126.349 84.3359 178.175 84.3359C230 84.3359 272.013 126.349 272.013 178.175C272.013 230 230 272.013 178.175 272.013C126.349 272.013 84.3359 230 84.3359 178.175Z" fill="#F5BD33"/>
<path fill-rule="evenodd" clip-rule="evenodd" d="M178.174 152.042C163.742 152.042 152.042 163.742 152.042 178.175C152.042 192.607 163.742 204.307 178.174 204.307C192.607 204.307 204.306 192.607 204.306 178.175C204.306 163.742 192.607 152.042 178.174 152.042ZM128.285 178.175C128.285 150.622 150.621 128.286 178.174 128.286C205.727 128.286 228.063 150.622 228.063 178.175C228.063 205.727 205.727 228.064 178.174 228.064C150.621 228.064 128.285 205.727 128.285 178.175Z" fill="#F5BD33"/>
</svg>
