<svg width="357" height="357" viewBox="0 0 357 357" fill="none" xmlns="http://www.w3.org/2000/svg">
<path d="M207.871 32.0715C207.871 15.671 194.576 2.37573 178.176 2.37573C161.775 2.37573 148.48 15.671 148.48 32.0715V64.6257L132.396 36.3223C124.293 22.0633 106.165 17.0728 91.906 25.1758C77.647 33.2788 72.6565 51.4067 80.7595 65.6657L99.0621 97.8733L66.8545 79.5707C52.5955 71.4678 34.4675 76.4582 26.3646 90.7172C18.2616 104.976 23.2521 123.104 37.5111 131.207L65.8145 147.291H33.2602C16.8597 147.291 3.56445 160.586 3.56445 176.987C3.56445 193.387 16.8597 206.683 33.2602 206.683H65.8144L37.5111 222.767C23.2521 230.87 18.2616 248.998 26.3646 263.257C34.4675 277.516 52.5955 282.506 66.8545 274.403L99.0621 256.101L80.7595 288.308C72.6565 302.567 77.647 320.695 91.906 328.798C106.165 336.901 124.293 331.911 132.396 317.652L148.48 289.348V321.902C148.48 338.303 161.775 351.598 178.176 351.598C194.576 351.598 207.872 338.303 207.872 321.902V289.348L223.955 317.652C232.058 331.911 250.186 336.901 264.445 328.798C278.704 320.695 283.695 302.567 275.592 288.308L257.289 256.1L289.497 274.403C303.756 282.506 321.884 277.516 329.987 263.257C338.09 248.998 333.099 230.87 318.84 222.767L290.537 206.683H323.091C339.492 206.683 352.787 193.388 352.787 176.987C352.787 160.586 339.492 147.291 323.091 147.291H290.537L318.84 131.207C333.099 123.104 338.09 104.976 329.987 90.7172C321.884 76.4582 303.756 71.4678 289.497 79.5707L257.289 97.8734L275.592 65.6657C283.695 51.4067 278.704 33.2788 264.445 25.1758C250.186 17.0728 232.058 22.0633 223.955 36.3223L207.871 64.6257V32.0715Z" fill="#336BB7"/>
</svg>
