<svg width="357" height="357" viewBox="0 0 357 357" fill="none" xmlns="http://www.w3.org/2000/svg">
<path fill-rule="evenodd" clip-rule="evenodd" d="M178.175 47.5133C106.012 47.5133 47.5133 106.012 47.5133 178.175C47.5133 250.337 106.012 308.836 178.175 308.836C250.337 308.836 308.836 250.337 308.836 178.175C308.836 106.012 250.337 47.5133 178.175 47.5133ZM0 178.175C0 79.7716 79.7716 0 178.175 0C276.578 0 356.35 79.7716 356.35 178.175C356.35 276.578 276.578 356.35 178.175 356.35C79.7716 356.35 0 276.578 0 178.175Z" fill="#43A363"/>
<path fill-rule="evenodd" clip-rule="evenodd" d="M178.175 130.661C151.934 130.661 130.662 151.934 130.662 178.175C130.662 204.416 151.934 225.688 178.175 225.688C204.416 225.688 225.688 204.416 225.688 178.175C225.688 151.934 204.416 130.661 178.175 130.661ZM83.1484 178.175C83.1484 125.693 125.693 83.1482 178.175 83.1482C230.657 83.1482 273.201 125.693 273.201 178.175C273.201 230.656 230.657 273.201 178.175 273.201C125.693 273.201 83.1484 230.656 83.1484 178.175Z" fill="#43A363"/>
</svg>
