<svg width="713" height="357" viewBox="0 0 713 357" fill="none" xmlns="http://www.w3.org/2000/svg">
<path d="M549.72 239.344L651.32 180.685L633.333 149.532L529.507 209.476C525.515 204.5 521.314 199.7 516.915 195.089L602.567 109.437L577.131 84.0001L490.022 171.109C485.165 167.437 480.152 163.96 474.995 160.69L537.035 53.2338L505.882 35.2475L443.124 143.947C437.711 141.644 432.187 139.55 426.562 137.675L459.19 15.9071L424.443 6.59666L391.612 129.123C385.923 128.214 380.161 127.522 374.336 127.055V0H338.364V127.055C332.539 127.522 326.777 128.214 321.088 129.123L288.257 6.59666L253.51 15.9071L286.138 137.675C280.514 139.55 274.989 141.644 269.576 143.947L206.818 35.2475L175.665 53.2338L237.705 160.691C232.548 163.96 227.535 167.437 222.678 171.109L135.569 84.0001L110.133 109.437L195.785 195.089C191.387 199.7 187.185 204.5 183.193 209.476L79.3666 149.532L61.3803 180.685L162.98 239.344C159.684 245.185 156.646 251.19 153.88 257.345L42.0399 227.377L32.7295 262.124L141.832 291.358C140.026 298.192 138.538 305.155 137.384 312.231H26.1328V348.203H686.567V312.231H575.316C574.163 305.155 572.674 298.192 570.868 291.358L679.971 262.124L670.66 227.377L558.82 257.345C556.054 251.19 553.016 245.185 549.72 239.344Z" fill="#43A363"/>
</svg>
