<svg width="357" height="713" viewBox="0 0 357 713" fill="none" xmlns="http://www.w3.org/2000/svg">
<path fill-rule="evenodd" clip-rule="evenodd" d="M100.511 401.079C100.511 410.521 108.249 418.131 117.69 417.974L177.027 416.985C272.172 415.399 350.154 492.092 350.154 587.249L350.154 614.109C350.154 640.35 328.881 661.622 302.64 661.622C276.399 661.622 255.127 640.35 255.127 614.109L255.127 587.249C255.127 545.193 220.662 511.297 178.611 511.998L119.274 512.987C56.7387 514.03 5.48437 463.623 5.48436 401.079C5.48436 338.537 56.737 288.13 119.271 289.171L178.61 290.159C220.661 290.859 255.127 256.962 255.127 214.905L255.127 188.865C255.127 162.624 276.399 141.352 302.64 141.352C328.881 141.352 350.154 162.624 350.154 188.865L350.154 214.905C350.154 310.063 272.173 386.756 177.028 385.172L117.689 384.185C108.249 384.027 100.511 391.637 100.511 401.079Z" fill="#F5BD33"/>
</svg>
