<svg width="357" height="357" viewBox="0 0 357 357" fill="none" xmlns="http://www.w3.org/2000/svg">
<path d="M127.219 15.9809C212.281 2.0014 271.628 88.659 271.628 182.926C271.628 277.193 212.281 363.851 127.219 349.871C111.373 347.267 99.2517 345.69 88.2151 336.843C83.5559 333.108 83.5559 326.019 88.2151 322.284L92.2 319.089C98.9036 313.716 98.9036 303.515 92.2 298.141C85.4963 292.767 85.4963 282.567 92.2 277.193C98.9036 271.819 98.9036 261.619 92.2 256.245C85.4963 250.871 85.4963 240.67 92.2 235.297C98.9036 229.923 98.9036 219.722 92.2 214.348C85.4963 208.975 85.4963 198.774 92.2 193.4C98.9036 188.026 98.9036 177.826 92.2 172.452C85.4963 167.078 85.4963 156.878 92.2 151.504C98.9036 146.13 98.9036 135.929 92.2 130.556C85.4963 125.182 85.4963 114.981 92.2 109.607C98.9036 104.233 98.9036 94.0329 92.2 88.6591C85.4963 83.2853 85.4963 73.0847 92.2 67.7108C98.9036 62.337 98.9036 52.1365 92.2 46.7626L88.2151 43.5682C83.5559 39.8333 83.5559 32.7437 88.2151 29.0088C99.2517 20.1616 111.373 18.5852 127.219 15.9809Z" fill="#F5BD33"/>
</svg>
