<svg width="357" height="713" viewBox="0 0 357 713" fill="none" xmlns="http://www.w3.org/2000/svg">
<path d="M243.399 112.314C232.94 100.865 229.706 81.5794 229.706 66.0722C229.706 40.734 206.634 20.1934 178.174 20.1934C149.714 20.1934 126.642 40.734 126.642 66.0722C126.642 81.5794 123.407 100.865 112.949 112.314C101.192 125.184 94.1448 141.601 94.1448 159.483C94.1448 167.731 95.6438 175.666 98.4124 183.086C104.238 198.699 101.502 219.54 89.1464 230.722C66.9717 250.789 53.2909 278.319 53.2909 308.693C53.2909 326.031 57.7486 342.442 65.6992 357.068C73.1526 370.779 70.6669 389.349 58.6499 399.306C24.2219 427.831 2.6875 468.527 2.6875 513.701C2.6875 599.988 81.2555 669.937 178.174 669.937C275.092 669.937 353.66 599.988 353.66 513.701C353.66 468.527 332.126 427.831 297.698 399.306C285.681 389.349 283.195 370.779 290.649 357.068C298.599 342.442 303.057 326.031 303.057 308.693C303.057 278.319 289.376 250.789 267.201 230.722C254.845 219.54 252.11 198.699 257.935 183.086C260.704 175.666 262.203 167.731 262.203 159.483C262.203 141.601 255.156 125.184 243.399 112.314Z" fill="#336BB7"/>
</svg>
