<svg width="357" height="713" viewBox="0 0 357 713" fill="none" xmlns="http://www.w3.org/2000/svg">
<path d="M257.759 165.37C257.759 171.766 256.993 177.983 255.549 183.935C289.95 192.241 315.505 223.225 315.505 260.177C315.505 279.077 308.819 296.416 297.685 309.958C331.698 318.536 356.875 349.333 356.875 386.011C356.875 422.161 332.418 452.598 299.148 461.68C310.474 475.278 317.287 492.766 317.287 511.845C317.287 548.798 291.732 579.781 257.331 588.088C258.775 594.039 259.541 600.256 259.541 606.652C259.541 649.968 224.426 685.083 181.11 685.083C180.514 685.083 179.92 685.076 179.328 685.063C178.736 685.076 178.142 685.083 177.546 685.083C134.23 685.083 99.1154 649.968 99.1154 606.652C99.1154 600.256 99.881 594.039 101.325 588.088C66.9244 579.781 41.3696 548.798 41.3696 511.845C41.3696 492.766 48.1823 475.278 59.5078 461.68C26.2379 452.598 1.78125 422.161 1.78125 386.011C1.78125 349.333 26.9577 318.536 60.9716 309.958C49.8367 296.416 43.1513 279.077 43.1513 260.177C43.1513 223.225 68.7062 192.241 103.107 183.935C101.663 177.983 100.897 171.766 100.897 165.37C100.897 122.054 136.012 86.9395 179.328 86.9395C222.644 86.9395 257.759 122.054 257.759 165.37Z" fill="#E55733"/>
</svg>
