<svg width="713" height="357" viewBox="0 0 713 357" fill="none" xmlns="http://www.w3.org/2000/svg">
<path d="M280.368 14.2539C295.497 14.2539 309.077 20.8864 318.358 31.4024C327.64 20.8864 341.22 14.2539 356.349 14.2539C371.478 14.2539 385.057 20.8864 394.339 31.4024C403.62 20.8864 417.2 14.2539 432.329 14.2539C448.607 14.2539 463.091 21.9318 472.358 33.8635C481.041 26.8771 492.076 22.6959 504.088 22.6959C523.804 22.6959 540.888 33.9594 549.258 50.4024C556.004 47.0769 563.597 45.2087 571.626 45.2087C597.215 45.2087 618.372 64.1829 621.796 88.8293C621.957 88.8278 622.118 88.827 622.28 88.827C650.255 88.827 672.934 111.505 672.934 139.481C672.934 154.996 665.958 168.883 654.971 178.174C665.958 187.466 672.934 201.353 672.934 216.868C672.934 244.844 650.255 267.522 622.28 267.522C622.118 267.522 621.957 267.521 621.796 267.52C618.372 292.166 597.215 311.14 571.626 311.14C563.597 311.14 556.004 309.272 549.258 305.947C540.888 322.389 523.804 333.653 504.088 333.653C492.076 333.653 481.041 329.472 472.358 322.485C463.091 334.417 448.607 342.095 432.329 342.095C417.2 342.095 403.62 335.463 394.339 324.947C385.057 335.463 371.478 342.095 356.349 342.095C341.22 342.095 327.64 335.463 318.358 324.947C309.077 335.463 295.497 342.095 280.368 342.095C264.091 342.095 249.606 334.417 240.339 322.485C231.657 329.472 220.621 333.653 208.609 333.653C188.894 333.653 171.809 322.389 163.439 305.946C156.694 309.272 149.1 311.14 141.071 311.14C115.482 311.14 94.3251 292.166 90.9016 267.52C90.7403 267.521 90.5789 267.522 90.4173 267.522C62.4421 267.522 39.7637 244.844 39.7637 216.868C39.7637 201.353 46.7398 187.466 57.7266 178.174C46.7398 168.883 39.7637 154.996 39.7637 139.481C39.7637 111.505 62.4421 88.827 90.4173 88.827C90.5789 88.827 90.7403 88.8278 90.9016 88.8293C94.3251 64.1829 115.482 45.2087 141.071 45.2087C149.1 45.2087 156.693 47.077 163.439 50.4025C171.809 33.9594 188.894 22.6959 208.609 22.6959C220.621 22.6959 231.657 26.8771 240.34 33.8635C249.607 21.9318 264.091 14.2539 280.368 14.2539Z" fill="#F4ADB3"/>
</svg>
