<svg width="713" height="357" viewBox="0 0 713 357" fill="none" xmlns="http://www.w3.org/2000/svg">
<path d="M356.35 147.885C346.258 147.885 337.371 141.381 333.902 131.904C314.577 79.1111 274.742 0 209.555 0V5.52591L209.164 9.74103C208.801 13.6479 204.28 15.947 200.555 14.1191L192.389 10.1119C188.339 8.12458 183.51 11.015 183.768 15.2725L184.289 23.8555C184.527 27.7705 180.404 30.6455 176.437 29.3301L167.742 26.4461C163.429 25.0158 159.091 28.517 159.998 32.6967L161.825 41.1235C162.659 44.9671 159.016 48.3595 154.889 47.5832L145.842 45.8809C141.355 45.0367 137.595 49.0775 139.131 53.0946L142.228 61.1931C143.64 64.8873 140.553 68.7278 136.349 68.5065L127.134 68.0211C122.563 67.7801 119.46 72.2779 121.594 76.0505L125.896 83.6563C127.858 87.1255 125.39 91.3363 121.195 91.6742L111.999 92.4154C107.438 92.7828 105.054 97.6461 107.743 101.097L113.163 108.056C115.636 111.23 113.836 115.725 109.736 116.615L100.746 118.567C96.2878 119.536 94.671 124.666 97.8596 127.726L104.288 133.894C107.221 136.708 106.126 141.396 102.203 142.821L93.6042 145.945C89.3387 147.494 88.5217 152.787 92.1458 155.393L99.4518 160.646C102.784 163.043 102.417 167.828 98.7516 169.758L90.7173 173.99C86.7323 176.09 86.7323 181.436 90.7173 183.535L98.7516 187.767C102.417 189.698 102.784 194.483 99.4518 196.879L92.1458 202.133C88.5217 204.739 89.3387 210.031 93.6042 211.581L102.203 214.705C106.126 216.13 107.221 220.818 104.288 223.631L97.8596 229.8C94.671 232.86 96.2878 237.99 100.746 238.958L109.736 240.911C113.836 241.801 115.636 246.296 113.163 249.47L107.743 256.428C105.054 259.88 107.438 264.743 111.999 265.11L121.195 265.852C125.39 266.189 127.858 270.4 125.896 273.869L121.594 281.475C119.46 285.248 122.563 289.746 127.134 289.505L136.349 289.019C140.553 288.798 143.64 292.638 142.228 296.333L139.131 304.431C137.595 308.448 141.354 312.489 145.842 311.645L154.889 309.943C159.016 309.166 162.659 312.559 161.825 316.402L159.998 324.829C159.091 329.009 163.429 332.51 167.742 331.08L176.437 328.196C180.404 326.88 184.527 329.755 184.289 333.67L183.768 342.253C183.51 346.511 188.339 349.401 192.389 347.414L200.555 343.406C204.28 341.579 208.801 343.878 209.164 347.785L209.555 352V356.35L209.959 356.348C274.907 356.022 314.617 277.129 333.902 224.445C337.371 214.968 346.258 208.464 356.35 208.464C366.443 208.464 375.33 214.968 378.799 224.445C398.084 277.129 437.794 356.022 502.742 356.349L503.146 356.35V352L503.537 347.785C503.9 343.878 508.421 341.579 512.146 343.407L520.312 347.414C524.362 349.401 529.191 346.511 528.933 342.253L528.411 333.67C528.174 329.755 532.297 326.88 536.264 328.196L544.958 331.08C549.272 332.51 553.61 329.009 552.703 324.829L550.876 316.402C550.042 312.559 553.685 309.166 557.812 309.943L566.859 311.645C571.347 312.489 575.106 308.448 573.57 304.431L570.473 296.333C569.061 292.638 572.148 288.798 576.352 289.019L585.567 289.505C590.138 289.746 593.241 285.248 591.107 281.475L586.805 273.869C584.842 270.4 587.311 266.189 591.506 265.852L600.701 265.111C605.263 264.743 607.647 259.88 604.958 256.428L599.538 249.47C597.065 246.296 598.865 241.801 602.965 240.911L611.954 238.958C616.413 237.99 618.03 232.86 614.841 229.8L608.413 223.631C605.48 220.818 606.575 216.13 610.498 214.705L619.097 211.581C623.362 210.031 624.179 204.739 620.555 202.133L613.249 196.879C609.917 194.483 610.284 189.698 613.949 187.767L621.984 183.535C625.969 181.436 625.969 176.09 621.984 173.99L613.949 169.758C610.284 167.828 609.917 163.043 613.249 160.646L620.555 155.393C624.179 152.787 623.362 147.494 619.097 145.945L610.498 142.821C606.575 141.396 605.48 136.708 608.413 133.894L614.841 127.726C618.03 124.666 616.413 119.536 611.954 118.567L602.965 116.615C598.865 115.725 597.065 111.23 599.538 108.056L604.958 101.098C607.647 97.6461 605.263 92.7828 600.701 92.4154L591.506 91.6745C587.311 91.3363 584.842 87.1255 586.805 83.6563L591.107 76.0505C593.241 72.2779 590.138 67.7801 585.567 68.0211L576.352 68.5065C572.148 68.7278 569.061 64.8873 570.473 61.1931L573.57 53.0946C575.106 49.0775 571.346 45.0367 566.859 45.8812L557.812 47.5832C553.685 48.3595 550.042 44.9671 550.876 41.1235L552.703 32.6967C553.61 28.517 549.272 25.0158 544.958 26.4461L536.264 29.3301C532.297 30.6455 528.174 27.7705 528.411 23.8555L528.933 15.2725C529.191 11.015 524.362 8.12458 520.312 10.1119L512.146 14.1191C508.421 15.947 503.9 13.6479 503.537 9.74103L503.146 5.52591V0C437.959 0 398.124 79.1111 378.799 131.904C375.33 141.381 366.443 147.885 356.35 147.885Z" fill="#43A363"/>
</svg>
