<svg width="713" height="357" viewBox="0 0 713 357" fill="none" xmlns="http://www.w3.org/2000/svg">
<path fill-rule="evenodd" clip-rule="evenodd" d="M356.35 113.39C484.772 113.39 588.879 217.497 588.879 345.919H529.487C529.487 250.298 451.971 172.782 356.35 172.782C260.729 172.782 183.213 250.298 183.213 345.919H123.821C123.821 217.497 227.928 113.39 356.35 113.39Z" fill="#336BB7"/>
<path fill-rule="evenodd" clip-rule="evenodd" d="M356.35 7.98096C542.988 7.98097 694.288 159.281 694.288 345.919H634.897C634.897 192.082 510.187 67.3726 356.35 67.3725C202.513 67.3725 77.8037 192.082 77.8037 345.919H18.4121C18.4121 159.281 169.712 7.98094 356.35 7.98096Z" fill="#336BB7"/>
<path fill-rule="evenodd" clip-rule="evenodd" d="M356.35 214.008C429.203 214.008 488.261 273.067 488.261 345.919H428.87C428.87 305.868 396.402 273.4 356.35 273.4C316.299 273.4 283.831 305.868 283.831 345.919H224.439C224.439 273.067 283.498 214.008 356.35 214.008Z" fill="#336BB7"/>
</svg>
