<svg width="357" height="357" viewBox="0 0 357 357" fill="none" xmlns="http://www.w3.org/2000/svg">
<circle cx="178.176" cy="41.5741" r="41.5741" fill="#E55733"/>
<circle cx="274.766" cy="274.766" r="15.4418" transform="rotate(135 274.766 274.766)" fill="#E55733"/>
<circle cx="178.176" cy="314.775" r="41.5741" fill="#E55733"/>
<circle cx="314.776" cy="178.175" r="41.5741" transform="rotate(90 314.776 178.175)" fill="#E55733"/>
<circle cx="41.5743" cy="178.175" r="41.5741" transform="rotate(90 41.5743 178.175)" fill="#E55733"/>
<circle cx="81.5839" cy="81.5835" r="15.4418" transform="rotate(135 81.5839 81.5835)" fill="#E55733"/>
<circle cx="15.4418" cy="15.4418" r="15.4418" transform="matrix(0.707107 0.707107 0.707107 -0.707107 59.7461 274.766)" fill="#E55733"/>
<circle cx="15.4418" cy="15.4418" r="15.4418" transform="matrix(0.707107 0.707107 0.707107 -0.707107 252.928 81.5835)" fill="#E55733"/>
<path fill-rule="evenodd" clip-rule="evenodd" d="M253.018 35.6837C258.826 38.7342 261.061 45.9153 258.01 51.7231L246.411 73.8066C243.36 79.6144 236.179 81.8496 230.371 78.7991C224.564 75.7485 222.328 68.5674 225.379 62.7596L236.978 40.6761C240.029 34.8683 247.21 32.6331 253.018 35.6837Z" fill="#E55733"/>
<path fill-rule="evenodd" clip-rule="evenodd" d="M125.977 277.55C131.785 280.601 134.02 287.782 130.969 293.59L119.37 315.673C116.319 321.481 109.138 323.716 103.33 320.666C97.5227 317.615 95.2875 310.434 98.338 304.626L109.937 282.543C112.988 276.735 120.169 274.5 125.977 277.55Z" fill="#E55733"/>
<path fill-rule="evenodd" clip-rule="evenodd" d="M103.332 35.6837C97.5239 38.7342 95.2887 45.9153 98.3393 51.7231L109.939 73.8066C112.989 79.6144 120.17 81.8496 125.978 78.7991C131.786 75.7485 134.021 68.5674 130.971 62.7596L119.371 40.6761C116.321 34.8683 109.14 32.6331 103.332 35.6837Z" fill="#E55733"/>
<path fill-rule="evenodd" clip-rule="evenodd" d="M230.373 277.55C224.565 280.601 222.33 287.782 225.38 293.59L236.98 315.673C240.03 321.481 247.211 323.716 253.019 320.666C258.827 317.615 261.062 310.434 258.012 304.626L246.412 282.543C243.362 276.735 236.181 274.5 230.373 277.55Z" fill="#E55733"/>
<path fill-rule="evenodd" clip-rule="evenodd" d="M78.4285 126.687C75.4194 132.517 68.2544 134.803 62.4251 131.794L40.2595 120.352C34.4301 117.343 32.1437 110.178 35.1528 104.349C38.1619 98.5192 45.3269 96.2329 51.1563 99.242L73.3219 110.684C79.1513 113.693 81.4376 120.858 78.4285 126.687Z" fill="#E55733"/>
<path fill-rule="evenodd" clip-rule="evenodd" d="M320.128 102.317C317.036 96.5315 309.839 94.3475 304.054 97.4394L282.053 109.196C276.267 112.288 274.083 119.485 277.175 125.271C280.267 131.056 287.464 133.24 293.25 130.149L315.25 118.392C321.036 115.3 323.22 108.103 320.128 102.317Z" fill="#E55733"/>
<path fill-rule="evenodd" clip-rule="evenodd" d="M78.4285 229.662C75.4194 223.833 68.2544 221.547 62.4251 224.556L40.2595 235.997C34.4301 239.006 32.1437 246.171 35.1528 252.001C38.1619 257.83 45.3269 260.116 51.1563 257.107L73.3219 245.666C79.1513 242.657 81.4376 235.492 78.4285 229.662Z" fill="#E55733"/>
<path fill-rule="evenodd" clip-rule="evenodd" d="M320.128 254.032C317.036 259.818 309.839 262.002 304.054 258.91L282.053 247.153C276.267 244.062 274.083 236.865 277.175 231.079C280.267 225.293 287.464 223.109 293.25 226.201L315.25 237.957C321.036 241.049 323.22 248.246 320.128 254.032Z" fill="#E55733"/>
</svg>
