<svg width="300" height="300" viewBox="0 0 300 300" fill="none" xmlns="http://www.w3.org/2000/svg">
<path fill-rule="evenodd" clip-rule="evenodd" d="M161.573 278.882C132.583 282.721 8.65987 280.143 3.75586 263.953C2.80023 260.797 8.96108 213.487 11.96 198.12C13.4589 190.44 23.77 136.241 27.8274 119.424C29.9196 110.754 32.5959 102.258 34.7828 93.6148C35.7568 89.766 40.0085 69.2806 41.3035 65.5125C44.4339 56.4065 48.1524 47.541 51.9464 38.7326C54.7654 32.1882 59.6388 20.2564 65.7568 15.0161C70.2337 11.1816 77.5001 10.398 82.743 10.0751C95.448 9.2943 108.185 9.25916 120.909 9.1378C140.972 8.94671 161.03 10.292 181.094 10.1861C197.031 10.1021 212.851 6.8024 228.827 7.62882C234.281 7.91107 241.306 8.62273 246.485 10.9806C256.076 15.3483 259.124 26.9166 261.998 36.6596C263.598 42.0833 264.909 47.6041 266.157 53.1337C272.049 79.2427 275.885 106.039 278.906 132.695C279.677 139.495 283.872 183.341 285.896 197.453C289.09 219.729 290.307 219.359 294.343 241.592C295.291 246.811 297.798 258.254 295.208 264.425C291.785 272.582 266.093 273.155 260.997 273.614C226.104 276.761 170.159 277.745 161.573 278.882Z" fill="#D88D3A"/>
</svg>
