<svg width="300" height="300" viewBox="0 0 300 300" fill="none" xmlns="http://www.w3.org/2000/svg">
<path fill-rule="evenodd" clip-rule="evenodd" d="M181.639 289.225C171.273 297.876 139.835 300.996 119.308 286.299C70.6506 251.463 61.6026 213.759 34.5299 164.059C25.5835 147.634 25.4459 144.177 22.5466 126.028C19.6472 107.879 30.4853 95.1439 56.9765 114.059C71.7804 131.059 72.9715 126.28 84.1596 146.509C84.86 147.776 103.638 183.642 110.348 178.043C114.894 174.25 115.745 155.673 116.191 150.085C118.195 124.999 115.32 59.2513 119.308 34.2892C119.308 12.2891 150.442 -7.59991 156.998 14.2891C168.925 54.1043 170.513 105.177 175.017 146.509C175.472 150.691 182.297 176.468 192.547 172.192C199.6 169.249 208.499 150.787 210.857 144.883C213.426 138.452 217.625 132.492 220.207 126.028C224.216 115.992 235.85 95.0587 251.429 102.059C267.007 109.059 261.023 126.028 251.429 164.059C238.689 214.556 227.462 214.453 214.753 243.387C203.312 258.663 197.081 276.339 181.639 289.225Z" fill="#3D5138"/>
</svg>
