<svg width="300" height="300" viewBox="0 0 300 300" fill="none" xmlns="http://www.w3.org/2000/svg">
<path fill-rule="evenodd" clip-rule="evenodd" d="M220.011 5.58853C187.516 -2.72244 179.653 15.9813 175.184 22.2387C161.869 40.8785 167.637 73.6565 153.41 85.8516C124.089 110.983 55.6483 99.0464 49.2387 143.914C47.5108 156.009 52.012 170.2 61.1929 178.069C65.8503 182.061 69.5362 185.163 75.2815 189.169C107.93 211.939 150.41 187.661 173.476 216.493C188.824 235.677 171.424 276.305 203.788 292.487C208.757 294.971 214.296 297.146 220.011 296.329C245.097 292.745 245.742 268.448 250.751 245.951C257.196 217.001 242.625 197.229 234.954 171.665C228.485 150.1 224.789 125.087 226.842 102.502C228.861 80.2985 253.896 56.6995 241.785 30.7772C236.282 18.9967 232.34 8.74151 220.011 5.58853Z" fill="#944D21"/>
</svg>
