<svg width="300" height="300" viewBox="0 0 300 300" fill="none" xmlns="http://www.w3.org/2000/svg">
<path d="M108.651 259.417C111.648 246.493 113.39 236.677 116.884 223.851C108.651 221.875 105.385 218.587 101.735 215.801C86.9949 204.552 76.4068 195.577 68.8037 178.259C65.9181 171.686 64.9891 164.213 63.0225 157.33C57.2092 136.983 58.7988 116.92 58.9243 96.0772C59.0638 72.9174 60.7061 49.318 63.5347 26.3358C63.8041 24.1469 63.297 17.2634 65.8033 15.871C69.955 13.5645 76.7028 13.9447 81.3177 13.0901C85.2335 12.365 103.199 6.86974 105.028 13.0901C105.028 18.7101 103.636 24.3195 103.199 29.9217C102.394 40.2256 102.394 50.4826 102.394 60.8122V60.8406C102.394 87.1362 105.302 112.803 108.651 138.851C109.255 143.552 110.012 148.235 110.59 152.939C111.129 157.33 114.908 154.642 114.542 147.377C115.991 139.093 114.908 129.763 114.908 121.398C114.908 107.116 116.766 93.7484 118.494 79.6115C119.97 67.529 121.575 55.4727 123.799 43.4967C125.557 34.0338 126.637 23.7735 130.056 14.7367C131.479 10.9771 131.965 6.50384 136.679 6.50384H147.254C151.419 6.50384 160.045 4.83198 163.829 6.86974C165.16 7.58642 163.127 14.6544 163.024 15.4685C162.362 20.7105 162.428 25.9753 161.67 31.2024C158.549 52.7377 158.751 74.6171 157.718 96.2967C157.053 110.267 154.536 124.079 153.84 138.01C153.607 142.667 153.767 147.362 153.767 152.024C153.767 153.878 153.175 157.395 154.425 159.013C157.899 163.509 168.449 140.225 169.061 138.303C174.133 122.387 181.639 107.549 185.893 91.3204C188.152 82.7019 189.75 73.9512 192.113 65.3412C196.121 50.7432 201.118 36.2018 206.969 22.2377C207.856 20.1214 208.692 15.4607 211.067 15.7246C212.355 15.8677 213.431 16.6559 214.653 17.0419C217.917 18.0725 221.416 18.2854 224.752 19.0178C231.348 20.4656 237.191 22.6386 239.535 29.4094C240.281 31.5647 239.995 33.6998 240.047 35.9957C240.117 39.0662 241.364 42.0127 241.364 45.1433C241.364 57.2129 240.506 68.9171 239.242 80.9287C238.371 89.2056 235.797 97.1461 233.973 105.225C232.222 112.978 230.063 121.061 226.874 128.35C222.883 137.472 219.133 146.76 215.348 155.976C212.058 163.988 210.959 172.622 207.042 180.455C200.609 193.322 189.712 202.669 179.197 211.922C174.674 215.902 168.519 219.696 162.914 221.875C160.363 222.867 157.604 222.803 156.804 225.827C156.368 227.473 155.921 229.431 155.779 231.132C154.574 245.595 152.801 260.021 151.461 274.492C150.857 281.016 152.185 290.23 145.168 293.299C141.58 294.869 135.186 293.795 131.373 293.629C126.513 293.417 121.738 291.638 116.884 291.031C111.463 290.353 104.606 288.375 102.723 282.725C100.381 275.7 107.034 266.388 108.651 259.417Z" fill="#A85E2D"/>
</svg>
