<svg width="300" height="300" viewBox="0 0 300 300" fill="none" xmlns="http://www.w3.org/2000/svg">
<path d="M138.842 60.121C149.518 41.6545 167.719 24.3238 186.363 14.3478C206.069 3.80325 233.577 3.07773 253.648 8.65306C280.724 16.1742 293.236 36.8041 297.027 66.184C299.173 82.8142 293.561 98.502 284.355 111.957C259.641 148.077 213.298 155.588 183.85 185.97C168.447 201.863 163.741 222.79 155.775 242.558C152.014 251.89 148.081 257.26 139.825 263.424C131.74 269.461 123.928 275.087 114.917 279.592C82.0834 296.009 7.42114 299.036 3.27002 248.184C1.45566 225.959 10.6259 201.195 26.8121 185.861C43.7387 169.825 71.3803 171.845 91.6484 162.592C109.097 154.626 116.316 138.374 120.161 120.642C124.599 100.18 128.201 78.5263 138.842 60.121Z" fill="#A98E5F"/>
</svg>
