<svg width="300" height="300" viewBox="0 0 300 300" fill="none" xmlns="http://www.w3.org/2000/svg">
<path d="M45.5924 76.2546C37.581 65.0163 22.3691 42.0662 17.7486 28.75C15.776 23.0645 23.9564 25.1415 26.9988 25.25C30.0411 25.3585 63.9544 25.25 66.9988 25.25C79.6452 25.25 103.623 23.2057 116.249 23.0645C158.107 22.5964 184.732 23.0645 226.589 23.0645C242.083 23.0645 259.908 20.5245 275.146 24.3912C279.617 25.5258 286.501 27.8173 287.504 33.3166C287.504 36.5 278.153 47.4624 268.499 59C247.656 83.9089 231.499 97.5 196.999 133C194.572 134.63 182.418 149.325 176.749 158.25C169.198 170.138 171.999 190.201 171.999 194C171.999 217.627 168.249 267.5 163.749 283.75C156.22 286.942 118.886 285.517 117.249 280.5C111.086 261.617 108.315 227.176 108.315 207.602C108.315 188.757 109.364 169.979 109.364 151.155C109.364 147.879 106.81 146.548 104.584 144.521C97.0818 137.691 89.3245 130.782 82.4913 123.233C69.2341 108.588 57.0981 92.3946 45.5924 76.2546Z" fill="#A98E5F"/>
</svg>
