<svg width="300" height="300" viewBox="0 0 300 300" fill="none" xmlns="http://www.w3.org/2000/svg">
<path d="M203.999 163.453C208.766 172.192 213.999 195.469 235.472 195.469C274.612 195.469 234.17 100.764 246.176 98.2687C254.238 89.1077 276.32 94.5305 282.282 100.493C286.272 104.482 289.593 114.887 291.102 120.166C297.316 141.913 289.484 169.458 282.282 196.826C277.821 213.779 276.319 234.763 246.176 241.289C216.033 247.815 194.777 208.341 185.035 211.289C175.294 214.237 148.861 242.765 124.214 250.42C73.7614 266.089 26.6443 231.446 12.2778 188.346C8.62512 177.389 8.20703 166.541 8.20703 155.104C8.20703 121.959 18.9276 104.034 47.8938 87.2639C61.6069 79.3248 109.253 66.5431 117.999 75.289C126.746 84.035 113.999 98.2687 108.611 106.289C103.222 114.309 77.1297 112.91 65.9994 120.166C48.0602 131.862 44.3957 149.461 47.8938 163.453C49.6568 170.505 47.9708 171.047 58.9851 188.346C69.9994 205.646 104.889 217.847 125.91 196.826L126.074 196.662C135.336 187.4 144.275 178.461 147.28 164.941C150.128 152.126 145.674 131.825 152.592 120.166C159.509 108.508 176.26 109.651 185.035 116.453C193.811 123.254 195.901 148.607 203.999 163.453Z" fill="#775B33"/>
</svg>
