<svg width="300" height="300" viewBox="0 0 300 300" fill="none" xmlns="http://www.w3.org/2000/svg">
<path fill-rule="evenodd" clip-rule="evenodd" d="M182.299 36.3779C161.318 -10.4378 99.392 10.7658 91.2236 40.4093C78.5101 86.5438 78.693 133.367 62.2534 176.109C57.6779 188.007 47.5973 203.716 37.3496 211.686C25.3473 221.022 11.2973 226.314 5.83908 242.689C0.073818 259.984 6.85724 279.029 23.627 287.414C40.6457 295.923 57.2448 291.255 71.0019 279.791C84.7589 268.327 91.8701 249.296 103.87 249.296C115.87 249.296 120.849 268.621 131.002 276.741C134.815 279.791 162.669 299.421 182.299 279.791C190.141 271.95 190.908 252.182 203.545 249.296C218.174 245.956 216.948 259.24 234.002 276.741C251.479 287.227 261.105 283.791 273.682 269.118C287.75 252.704 274.923 230.242 265.55 215.244C251.412 192.623 228.237 176.195 216.25 152.222C198.167 116.054 198.484 72.491 182.299 36.3779Z" fill="#DBB375"/>
</svg>
