<svg width="300" height="300" viewBox="0 0 300 300" fill="none" xmlns="http://www.w3.org/2000/svg">
<path fill-rule="evenodd" clip-rule="evenodd" d="M15.6151 249.408C15.1242 254.865 14.6886 280.79 16.3156 288.221C17.6076 294.118 56.7763 294.059 62.7471 291.931C72.9263 288.299 69.9987 216.814 71.0002 204.789C76.0087 144.64 84.0144 76.7954 151.87 59.1666C205.777 45.162 222.004 117.801 226.943 155.263C228.317 165.673 229.205 176.156 229.685 186.647C230.46 203.554 230.247 220.492 230.708 237.41C231.245 257.192 232.226 287.17 241.111 292.535C244.313 294.468 272.526 296.771 282.568 291.931C287.85 289.386 283.431 245.135 280.409 218.558C274.153 163.517 269.584 120.877 252.987 68.5933C236.446 16.4866 183.177 6.70183 153.855 5.79619C74.1978 3.33627 35.952 81.0542 25.0419 148.289C16.8823 198.574 20.2 198.516 15.6151 249.408Z" fill="#939878"/>
</svg>
