<svg width="300" height="300" viewBox="0 0 300 300" fill="none" xmlns="http://www.w3.org/2000/svg">
<path fill-rule="evenodd" clip-rule="evenodd" d="M80.0242 34.293C80.0006 32.4965 79.9504 44.1061 80.0195 45.755C80.3869 54.5819 80.3398 63.4198 80.3398 72.2671C80.3398 100.708 80.0195 129.123 80.0195 157.552C80.0195 191.605 81.3276 225.498 83.2135 259.447C83.6784 267.802 81.359 290.686 93.1161 293.626C99.1227 295.127 97.477 282.183 101.422 280.211C102.832 279.505 105.691 285.229 106.532 286.28C108.699 288.987 112.518 289.623 115.795 289.154C120.897 288.425 122.559 281.071 126.656 278.613C131.418 275.755 133.623 282.786 137.516 281.489C142.084 279.966 143.565 272.547 149.334 271.586C157.068 270.297 162.433 282.354 170.416 278.932C178.882 275.305 184.571 265.952 188.623 257.85C191.25 252.594 193.233 245.61 198.205 241.88C203.348 238.023 211.911 256.922 218.648 250.186C227.891 240.942 226.672 221.899 227.593 209.938C230.231 175.641 230.919 140.458 228.55 106.125C227.178 86.2165 225.839 66.3171 222.162 46.7129C220.865 39.794 219.975 28.2582 213.218 24.034C207.37 20.3782 200.66 21.914 196.289 26.9093C194.6 28.8408 193.529 32.1228 191.178 33.2974C190.217 33.7795 185.207 27.5704 184.151 26.9093C179.019 23.7026 171.42 21.4178 165.305 22.4369C161.209 23.12 154.914 35.9278 150.292 33.6178C141.74 29.3402 138.373 14.7909 127.613 13.8126C122.204 13.3211 110.888 26.8637 105.662 25.5022C100.434 24.1408 100.808 7.03971 96.2521 5.64054C82.4802 1.41474 80.4325 20.2322 80.0242 34.293Z" fill="#42535D"/>
</svg>
