<svg width="300" height="300" viewBox="0 0 300 300" fill="none" xmlns="http://www.w3.org/2000/svg">
<path fill-rule="evenodd" clip-rule="evenodd" d="M198.218 282.168C166.332 295.176 130.07 304.392 110.037 282.168C68.6398 236.246 38.0024 141.834 38.0024 86.0883C38.0024 58.1501 28.14 25.4515 51.9993 6.36434C74.6617 0.00444806 81.8223 25.6615 83.7322 37.1205C86.9561 56.4631 85.0961 77.2297 91.4211 96.2051C94.0001 103.942 91.4211 117.654 110.037 117.654C120.963 112.289 120.517 93.4336 120.963 88.5162C122.902 67.2 122.863 20.4194 141.603 6.36434C151.675 -1.18981 166.541 14.9106 168.312 23.7663C173.064 47.5238 168.522 72.5652 173.978 96.2051C175.607 103.266 177.899 116.128 186.119 118.868C194.83 121.772 200.787 98.9424 201.901 93.3724C207.339 66.1832 205.045 21.6392 236.3 11.2206C266.172 1.26332 265.764 57.963 264.628 72.7335C263.457 87.9607 260.234 103.277 256.534 118.058C237.475 194.208 261.195 256.478 198.218 282.168Z" fill="#CF6F49"/>
</svg>
