<svg width="300" height="600" viewBox="0 0 300 600" fill="none" xmlns="http://www.w3.org/2000/svg">
<path fill-rule="evenodd" clip-rule="evenodd" d="M151.964 178.165C156.677 200.481 158.244 227.108 156.677 258.332C154.916 293.421 154.443 372.891 154.192 408.037C154.061 426.419 153.166 444.507 151.964 462.822C151.735 466.312 152.302 475.359 150.505 478.029C144.542 486.886 93.5927 506.218 81.2184 510.906C42.8388 525.445 1.88246 559.848 31.3052 571.208C82.8436 591.106 152.311 578.832 206.137 571.208C220.835 569.126 235.747 567.422 250.275 564.157C254.471 563.214 263.331 561.739 265.017 556.172C267.364 548.416 265.359 536.711 265.359 528.738C265.359 514.692 266.61 500.589 267.758 486.607C272.354 430.628 278.728 330.853 278.728 274.557C278.728 246.29 278.728 189.004 275.596 178.165C270.354 160.028 144.676 143.653 151.964 178.165Z" fill="#42535D"/>
</svg>
