<svg width="600" height="300" viewBox="0 0 600 300" fill="none" xmlns="http://www.w3.org/2000/svg">
<path d="M65.9319 105.487C76.6778 89.8284 90.4882 79.194 106.484 69.419C154.769 39.9113 178.259 39.8225 216.052 62.4979C242.024 78.0814 300.637 76.9882 327.277 67.6643C348.283 60.3123 376.771 15.9998 398.925 15.9998C412.474 15.9998 421.308 19.3411 433.53 24.773C450.338 32.2432 450.839 51.2649 448.055 67.2744C443.756 91.995 431.339 120.055 440.549 145.844C445.471 159.625 462.587 161.119 474.764 157.736C490.747 153.297 506.446 139.027 519.41 129.174C533.539 118.437 550.31 111.282 568.151 117.769C583.301 123.279 597.59 129.41 597.59 147.696C597.59 165.307 588.782 187.511 578.289 201.602C566.343 217.643 555.627 235.816 538.809 247.516C523.068 258.466 506.103 263.123 483.538 266.719C445.96 272.707 424.462 260.122 387.032 253.267C326.509 242.183 285.472 214.275 234.378 214.275C216.682 214.275 200.02 215.37 182.518 217.784C166.883 219.941 146.414 227.185 132.998 235.331C119.399 243.587 104.123 251.178 92.1541 261.65C73.7048 277.793 51.6099 288.258 26.3548 282.316C-7.58537 274.33 3.11992 241.387 7.63862 214.275C10.7984 195.316 20.8251 180.355 29.9616 163.488C40.6618 143.733 53.2644 123.945 65.9319 105.487Z" fill="#B3BDB5"/>
</svg>
