<svg width="600" height="300" viewBox="0 0 600 300" fill="none" xmlns="http://www.w3.org/2000/svg">
<path fill-rule="evenodd" clip-rule="evenodd" d="M74.2626 136.129L74.5659 136.244C76.9675 137.115 86.3878 139.492 95.1061 143.609C103.896 147.76 111.591 153.461 113.795 154.738C124.567 158.437 129.617 158.804 136.888 161.31C141.483 162.894 146.373 166.063 155.238 170.91C165.672 174.828 177.579 170.166 181.811 160.504C186.043 150.843 181.008 139.818 170.574 135.899C159.659 133.455 153.218 132.817 148.127 131.3C142.128 129.513 138.855 127.107 130.954 122.511C128.586 121.693 119.331 119.37 110.812 115.291C102.201 111.168 94.7247 105.479 92.5969 104.169C91.862 103.704 86.3565 100.336 84.5878 99.5313C78.8795 96.9333 74.1495 98.7738 71.7868 99.1397C68.2737 99.6831 65.9823 101.848 63.6424 103.421C59.3727 106.291 52.4732 114.577 61.212 128.766C64.4921 132.859 69.2243 135.369 74.2626 136.129Z" fill="#42535D"/>
<path fill-rule="evenodd" clip-rule="evenodd" d="M212.5 78.5337C210.22 75.5964 208.376 72.3777 205.83 69.5782C201.776 65.1195 196.305 62.001 192.287 57.5224C187.352 52.0225 183.731 45.9657 178.99 40.5008C170.709 33.4366 157.792 33.9264 150.163 41.5942C142.533 49.2618 143.063 61.2226 151.343 68.2867C156.412 71.4636 161.849 74.1778 166.008 78.489C170.019 82.646 172.052 88.0929 175.83 92.4414C178.51 95.5264 181.778 98.0438 184.826 100.755C187.18 102.745 189.791 104.415 191.799 106.696C193.741 108.904 194.884 111.532 196.419 114.028C196.871 114.913 200.22 120.46 201.757 122.544C208.455 131.625 219.258 128.584 221.566 128.234C229.47 127.035 237.318 122.102 237.318 109.781C230.609 92.4414 229.713 101.938 212.5 78.5337Z" fill="#42535D"/>
<path fill-rule="evenodd" clip-rule="evenodd" d="M314.781 98.4362C314.288 96.551 313.89 94.6414 313.65 92.6805C313.235 89.291 313.436 85.8625 313.325 82.4644C313.678 76.1277 314.878 69.8824 314.689 63.5306C314.495 56.9838 312.124 50.7155 311.976 44.169C311.773 35.1412 313.521 26.3637 313.879 17.3492C312.96 6.9583 303.103 -0.786968 291.881 0.0639074C280.659 0.915116 272.295 10.0426 273.214 20.4335C275.006 28.6074 277.553 36.5745 277.793 44.9205C277.978 51.3749 275.766 57.6249 275.789 64.083C275.811 70.6812 277.245 77.1306 278.135 83.6678L277.072 110.295C276.112 120.051 285.647 124.583 289.213 126.861C294.549 130.269 300.381 128.553 305.715 127.096C310.157 125.884 317.752 121.465 318.396 109.154C318.396 105.173 317.063 101.478 314.781 98.4362Z" fill="#42535D"/>
<path fill-rule="evenodd" clip-rule="evenodd" d="M437.573 35.9577L424.003 47.7295C420.569 50.2652 416.955 52.6118 413.823 55.6145C407.718 61.4675 403.594 69.0204 397.855 75.3253C391.976 81.7832 385.344 87.2896 379.545 93.4672C373.71 101.342 375.684 112.248 383.953 117.806C392.222 123.364 403.673 121.483 409.509 113.608C413.244 107.094 416.492 100.146 421.587 94.2248C426.143 88.9325 432.481 85.3623 437.386 80.4391C440.715 77.0978 443.286 73.2729 446.342 69.8548C448.315 67.7919 450.132 65.6071 452.39 63.8557C464.172 54.7153 463.768 57.3458 470.065 51.9799C477.476 45.6676 473.926 8.75633 442.468 29.1051C440.201 31.0471 438.561 33.4073 437.573 35.9577Z" fill="#42535D"/>
<path fill-rule="evenodd" clip-rule="evenodd" d="M466.49 169.111C469.529 166.529 473.726 162.6 479.993 160.76C484.187 159.529 488.909 160.343 493.488 159.248C500.503 157.57 506.612 153.307 513.244 151.677C519.365 150.174 525.011 149.996 530.066 149.022C540.402 144.89 545.172 133.763 540.71 124.191C536.245 114.619 524.23 110.204 513.892 114.336C510.741 116.393 507.707 119.273 503.308 120.815C497.466 122.863 490.508 122.405 484.123 124.126C477.113 126.015 471.072 129.858 464.886 131.641C456.409 134.084 449.125 135.5 443.809 137.706C434.449 143.501 431.932 155.243 438.191 163.91C444.45 172.576 457.131 174.907 466.49 169.111Z" fill="#42535D"/>
<path fill-rule="evenodd" clip-rule="evenodd" d="M205.079 257.167C208.521 253.845 210.012 249.292 213.473 245.987C218.292 241.388 224.237 238.419 229.573 234.399C236.945 226.519 236.022 214.579 227.512 207.753C219.002 200.926 206.106 201.781 198.734 209.661C195.552 214.576 193.282 219.887 188.961 224.038C185.597 227.269 180.764 228.623 177.308 231.77C173.764 234.996 171.455 239.031 168.571 242.751L159.935 249.526C159.64 249.695 153.762 254.469 151.601 256.485C145.3 262.362 148.134 269.357 148.423 271.353C149.768 280.636 156.636 286.187 168.398 286.187C191.608 286.187 188.196 273.467 205.079 257.167Z" fill="#42535D"/>
<path fill-rule="evenodd" clip-rule="evenodd" d="M279.504 281.109C279.504 291.535 288.646 300 299.905 300C311.164 300 320.306 291.535 320.306 281.109C317.444 271.495 319.745 265.703 319.128 256.155C318.52 246.758 317.542 242.045 319.753 232.16C319.753 221.734 310.611 213.269 299.352 213.269C269.965 213.269 285.363 261.427 279.504 281.109Z" fill="#42535D"/>
<path fill-rule="evenodd" clip-rule="evenodd" d="M372.674 221.591C376.964 225.779 381.327 229.708 384.238 234.809C385.927 237.769 386.86 240.868 388.362 243.96C389.741 246.38 391.034 248.791 392.897 250.865C396.984 255.414 402.968 257.859 407.35 262.129C411.12 265.802 413.337 270.263 416.379 274.538C424.323 281.927 437.251 281.953 445.23 274.597C453.209 267.242 453.238 255.271 445.294 247.882C440.6 244.991 435.565 243.084 431.482 239.562C427.785 236.372 426.301 231.689 423.129 228.02C421.925 226.627 420.292 225.644 418.993 224.293C417.345 222.78 415.335 221.676 414.229 219.818C410.582 213.693 409.639 206.844 406.508 200.474C400.215 191.829 387.525 189.541 378.189 195.368C368.852 201.195 366.381 212.945 372.674 221.591Z" fill="#42535D"/>
</svg>
