<svg width="300" height="300" viewBox="0 0 300 300" fill="none" xmlns="http://www.w3.org/2000/svg">
<path fill-rule="evenodd" clip-rule="evenodd" d="M99.7556 275.252C101.428 269.724 99.2659 236.704 100.055 222.532C102.424 180.021 106.937 151.892 123.74 146.291C131.638 143.658 159.447 144.356 167.833 146.291C212.377 156.57 208.831 199.868 208.831 235.324C208.831 247.283 204.508 275.733 217.358 281.24C228.657 286.082 277.392 288.936 287.216 281.568C292.012 277.971 293.289 248.87 293.776 242.539C296.704 204.479 301.126 131.296 273.028 99.1873C255.777 79.4707 213.766 73.1064 188.739 70.3255C155.856 66.6719 127.408 56.7072 90.1428 66.5104C57.957 74.9774 30.2713 74.583 15.8434 108.25C12.1717 116.818 6.6914 149.738 5.83559 159.15C2.59438 194.802 2.70135 237.315 14.035 271.317C15.7375 276.424 24.8358 275.252 28.7939 275.252C32.3832 275.252 98.6826 278.799 99.7556 275.252Z" fill="#C9907C"/>
</svg>
