<svg width="300" height="300" viewBox="0 0 300 300" fill="none" xmlns="http://www.w3.org/2000/svg">
<path d="M60.5802 91.1784C53.6043 92.8622 44.5625 93.1221 35.6219 97.7823C21.1197 105.341 13.0598 114.949 7.83987 129.117C2.24219 144.311 6.37945 157.368 16.3567 169.515C22.3259 176.782 32.6985 182.132 40.9961 186.366C50.6431 191.288 57.021 194.109 68.1406 194.109C77.7821 194.109 86.4888 193.8 95.9682 192.059C105.422 190.323 113.836 186.374 123.067 184.271C138.734 180.701 158.507 182.3 173.166 188.871C182.429 193.023 192.132 197.912 200.857 203.126C208.776 207.86 215.97 214.928 224.358 218.702C241.894 226.594 265.977 226.554 280.833 212.508C287.195 206.493 294.678 200.139 294.678 190.829C294.678 165.98 277.966 139.059 265.073 120C256.723 107.657 247.271 96.4901 240.116 83.4814C228.888 63.0667 217.325 50.6885 194.845 45.7251C176.377 41.6475 161.367 46.7968 147.114 53.9231C127.919 63.5206 107.65 70.6886 88.089 79.3824C78.915 83.4597 70.4289 88.8011 60.5802 91.1784Z" fill="#C9907C"/>
</svg>
