<svg width="300" height="300" viewBox="0 0 300 300" fill="none" xmlns="http://www.w3.org/2000/svg">
<path fill-rule="evenodd" clip-rule="evenodd" d="M104.052 22.577C97.4849 36.2914 97.0186 47.9551 94.4969 62.6823L93.4203 68.9707C104.061 68.9738 114.709 68.9864 125.365 69.0251C128.267 57.4947 129.887 43.9286 134.639 33.0703L139.65 21.6189L162.553 31.6418L157.542 43.0932C154.876 49.1842 155.067 54.3952 153.403 60.5754C152.63 63.4452 151.872 66.3112 151.129 69.1777C160.066 69.2541 169.007 69.3581 177.952 69.4993C178.104 68.4003 178.255 67.3007 178.407 66.2004C179.758 56.4032 179.115 46.355 183.033 37.017L187.869 25.4905L210.922 35.163L206.086 46.6895C203.307 53.3122 203.687 62.8225 202.731 69.9035C207.069 69.9193 211.526 69.8901 216.07 69.8604H216.071C221.625 69.824 227.31 69.7868 233.067 69.8298C234.566 58.9968 233.924 47.1935 238.194 37.017L243.03 25.4905L266.083 35.163L261.247 46.6895C258.382 53.5181 258.765 63.4418 257.781 70.7233C267.016 71.4054 276.232 72.5731 285.204 74.545L297.412 77.2283L292.046 101.646L279.837 98.9622C271.46 97.1211 263.014 96.0842 254.433 95.5107L253.456 102.741C251.276 115.917 249.168 129.084 247.215 142.253C251.524 142.478 255.838 142.62 260.157 142.62H272.657V167.62H260.157C254.675 167.62 249.204 167.394 243.739 167.059C241.446 184.555 239.519 202.06 238.152 219.593C249.767 220.162 261.445 221.37 272.736 223.852L284.945 226.535L279.578 250.952L267.369 248.269C257.255 246.046 247.04 244.995 236.607 244.517C236.162 254.372 235.922 264.238 235.922 274.119V286.619H210.922V274.119C210.922 264.104 211.159 254.117 211.599 244.159C209.798 244.168 207.988 244.179 206.169 244.19C198.213 244.239 190.084 244.29 181.736 244.111C181.645 244.109 181.555 244.107 181.464 244.105C181.007 254.097 180.76 264.1 180.76 274.119V286.619H155.76V274.119C155.76 263.943 156.005 253.795 156.459 243.678C142.995 243.5 129.53 243.4 116.054 243.344C115.113 248.25 113.929 253.305 112.279 258.291L108.352 270.159L84.6179 262.305L88.5446 250.438C89.3028 248.147 89.9497 245.766 90.5242 243.283C81.7543 243.275 72.9777 243.276 64.192 243.278C64.0159 244.062 63.8403 244.839 63.6665 245.608C63.6665 245.608 63.1355 247.958 62.8805 249.102C61.2804 256.279 59.9397 262.873 59.3381 269.417L58.1939 281.865L33.2988 279.576L34.4431 267.129C35.2015 258.879 36.8538 250.954 38.4795 243.662C38.5682 243.265 38.6566 242.869 38.7448 242.476C38.472 242.445 38.2035 242.414 37.9397 242.383L37.4129 242.323C33.551 241.879 30.6329 241.574 27.9735 241.618L15.4752 241.829L15.0544 216.832L27.5527 216.622C32.0831 216.546 36.5772 217.062 40.1888 217.477L40.2676 217.486C41.4466 217.622 42.5439 217.748 43.5793 217.857C46.1685 201.397 48.7911 184.949 51.4513 168.508C47.6022 168.461 43.821 168.404 40.2745 168.351H40.2715L40.27 168.351C34.1148 168.258 28.6668 168.176 24.7988 168.176H12.2988V143.176H24.7988C29.5681 143.176 35.7484 143.27 42.4195 143.372H42.4213C42.4213 143.372 47.6718 142.63 55.8397 141.608C57.6943 130.332 59.5677 119.06 61.4614 107.791C62.236 103.18 63.014 98.5752 63.7943 93.9736L62.5118 93.9736C58.184 93.9736 53.8881 93.4782 50.4074 93.0768L49.8807 93.0162C46.0188 92.5723 43.1007 92.2669 40.4412 92.3116L27.943 92.522L27.5222 67.5256L40.0204 67.3152C44.5508 67.2389 49.0449 67.7555 52.6566 68.1706L52.7354 68.1797C56.6535 68.63 59.6689 68.9736 62.5118 68.9736C64.3597 68.9736 66.2079 68.9735 68.0564 68.9732C70.4458 55.0078 70.0288 35.7441 76.1049 23.0545L81.5032 11.7803L104.052 22.577ZM68.8212 218.277C77.4676 218.276 86.1197 218.276 94.7766 218.288C95.1443 216.054 95.5361 213.822 95.9636 211.652C98.1475 200.564 100.287 189.425 102.432 178.259L102.434 178.251L102.434 178.249L102.435 178.244C103.159 174.476 103.883 170.705 104.61 166.932C98.3573 167.309 92.0993 167.716 85.8351 168.146C83.2738 168.322 80.1925 168.439 76.7768 168.511C74.088 185.088 71.4376 201.676 68.8212 218.277ZM120.134 218.362C132.743 218.423 145.361 218.525 157.986 218.696C159.382 200.501 161.361 182.41 163.707 164.437C152.592 164.667 141.471 165.054 130.336 165.561C129.242 171.219 128.154 176.886 127.063 182.563L127.061 182.574L127.059 182.586C124.897 193.841 122.727 205.137 120.492 216.483C120.369 217.111 120.25 217.737 120.134 218.362ZM183.026 219.132C189.592 219.259 196.49 219.214 203.603 219.167C206.735 219.146 209.91 219.126 213.115 219.119C214.494 201.034 216.449 183.053 218.771 165.187C212.441 164.731 206.107 164.369 199.757 164.284C196.157 164.235 192.557 164.207 188.956 164.199C186.517 182.493 184.466 200.797 183.026 219.132ZM218.638 94.8834C222.264 94.8609 225.854 94.8386 229.412 94.8384C229.208 96.1157 229.002 97.3902 228.791 98.6615C226.501 112.505 224.273 126.429 222.212 140.428C214.848 139.863 207.479 139.385 200.093 139.286C200.093 139.286 197.281 139.033 192.59 138.662C194.391 126.69 196.313 114.719 198.295 102.741L199.356 94.888C205.907 94.9623 212.327 94.9225 218.637 94.8834H218.638ZM81.6623 138.664C91.1133 137.701 101.198 136.815 110.605 136.264C113.421 122.157 116.344 108.055 119.472 94.0064C109.373 93.9783 99.2683 93.9708 89.1526 93.97C88.1358 99.9528 87.123 105.938 86.1157 111.933C84.6189 120.841 83.1347 129.751 81.6623 138.664ZM136.211 135.719C146.527 135.873 157.593 136.369 167.567 136.944C169.482 124.118 171.53 111.356 173.63 98.6615C173.862 97.2602 174.089 95.8551 174.313 94.4465C164.565 94.3024 154.818 94.2013 145.067 94.1306C141.93 107.963 139.015 121.82 136.211 135.719Z" fill="#666B64"/>
</svg>
