<svg width="300" height="300" viewBox="0 0 300 300" fill="none" xmlns="http://www.w3.org/2000/svg">
<path d="M131.346 25.5177C145.865 15.5358 160.494 23.6419 179.014 25.5177C236 31.2891 240.822 -1.9594 266.904 4.25043C275.949 6.40402 284.437 7.55535 290.145 15.9277C294.316 22.0446 296.557 29.2118 293.756 36.4615C288.463 50.1616 283.609 63.6448 272.883 74.3702C256.726 90.5277 235.436 107.688 221.887 125.592C215.907 133.495 208.856 142.654 205.415 151.993C201.392 162.912 199.783 172.538 198.307 183.978C197.019 193.959 192.415 201.919 190.127 211.451C187.698 221.572 183.151 231.608 179.014 241.123C174.574 251.335 166.742 260 159.721 268.539C152.089 277.822 143.554 282.192 132.813 287.042C120.234 292.723 107.387 292.119 93.9454 292.119C81.4955 292.119 68.0118 289.863 56.3188 285.576C31.0725 276.319 15.8777 255.09 10.4561 228.938C8.85439 221.213 9.44067 213.146 9.44067 205.302C9.44067 197.462 8.87406 189.389 10.4561 181.665C13.169 168.42 18.3888 156.748 26.6462 146.013C47.5377 118.854 86.8662 115.093 104.889 85.4833C111.228 75.0692 111.155 65.7457 113.238 54.2876C115.157 43.7355 122.498 31.6008 131.346 25.5177Z" fill="#665F4F"/>
</svg>
