<svg width="300" height="300" viewBox="0 0 300 300" fill="none" xmlns="http://www.w3.org/2000/svg">
<path fill-rule="evenodd" clip-rule="evenodd" d="M2.40442 196.059C-0.841253 195.562 18.6397 155.768 21.6877 148.899C33.5863 122.083 46.185 95.7547 61.252 70.7291C64.1415 65.9295 69.5856 58.2776 73.594 54.0995C76.2353 51.3473 79.5597 48.1967 83.6019 48.0125C92.0964 47.6256 101.784 54.1504 107.858 59.7322C120.015 70.9047 129.939 83.6502 139.167 97.5271C144.282 105.217 148.349 113.657 153.67 121.191C154.447 122.293 157.705 122.297 158.685 121.391C161.064 119.191 177.842 96.9864 184.841 89.2033C188.921 84.6665 193.067 80.1854 197.434 75.9542C206.8 66.8779 217.978 56.5332 230.691 52.8163C232.614 52.2538 236.619 51.0491 239.148 52.0139C241.911 53.0678 244.483 56.3066 245.992 58.3869C249.435 63.1318 253.785 71.7554 255.934 76.9562C259.547 85.7045 263.027 94.5208 266.179 103.464C272.85 122.392 279.509 145.315 284.837 164.705C286.455 170.592 297.55 212.376 297.957 218.666C298.065 220.333 295.241 220.42 293.782 221.081C291.024 222.332 288.19 223.398 285.339 224.389C272.169 228.966 271.21 229.175 257.963 231.652C254.003 232.393 249.978 234.531 246.047 233.639C244.093 233.196 243.855 230.113 242.939 228.244C241.256 224.812 239.74 221.29 238.26 217.755C229.48 196.77 223.642 181.314 214.672 160.489C213.321 157.351 211.914 154.229 210.264 151.254C209.523 149.919 208.966 147.956 207.533 147.614C206.282 147.316 205.29 148.957 204.316 149.835C202.16 151.78 200.163 153.915 198.18 156.054C183.043 172.382 177.965 178.895 162.293 194.925C158.496 198.809 152.854 205.383 146.725 204.648C143.375 204.247 140.552 202.27 137.954 200.096C135.498 198.04 130.897 192.481 128.831 189.893C121.882 181.193 94.943 143.71 93.1078 145.56C86.5176 152.201 68.5323 190.539 58.134 205.86C56.26 208.621 54.2996 211.32 52.2278 213.92C49.1371 217.798 47.5758 222.726 42.5186 221.458C38.8694 220.543 32.9809 215.59 30.6977 214.123C25.9226 211.054 21.0248 208.202 16.1886 205.242C11.3898 202.304 6.74323 199.736 2.40442 196.059Z" fill="#775B33"/>
</svg>
