<svg width="300" height="300" viewBox="0 0 300 300" fill="none" xmlns="http://www.w3.org/2000/svg">
<path fill-rule="evenodd" clip-rule="evenodd" d="M106.675 8.86171C114.189 4.7439 176.745 4.30429 180.88 8.01211C182.609 9.56274 180.88 19.976 180.88 22.3272C180.88 34.965 180.88 54.2026 182.048 61.4309C221.621 79.501 234.395 107.458 244.621 133.501C255.646 161.58 268.406 191.243 272.784 226.575C274.587 241.121 282.07 281.622 262.27 288.722C237.41 297.638 195.137 293.61 168.029 293.61C156.242 293.61 144.318 293.208 132.591 293.959C111.762 295.294 34.1524 294.702 28.2929 281.095C23.0969 269.032 21.3371 238.318 33.5971 196.551C42.7346 165.421 43.2568 132.586 59.379 103.677C66.1007 91.6244 79.1614 77.1985 90.9225 68.7628C95.1242 65.7493 101.061 63.8633 104.552 60.7329C110.811 55.1211 98.0417 13.5938 106.675 8.86171Z" fill="#9D6C4E"/>
</svg>
