<svg width="300" height="300" viewBox="0 0 300 300" fill="none" xmlns="http://www.w3.org/2000/svg">
<path d="M100.557 73.2576C99.838 79.9043 98.8028 91.0344 98.1027 97.6851C93.4286 99.2432 87.6658 99.8756 82.6848 100.614C71.7859 102.228 60.658 102.835 49.7157 104.098C42.9339 104.88 36.2769 105.801 29.5213 106.807C24.8056 107.51 18.3709 107.027 14.2948 110.162C7.19173 115.626 7.98365 127.937 9.00427 135.518C11.931 157.259 20.2305 176.262 33.9085 193.359C47.2608 210.05 63.1512 224.933 82.6848 231.716C111.9 241.86 146.001 245.685 177.463 243.265C192.414 242.115 207.301 236.55 221.4 231.716C234.027 227.387 246.487 219.746 256.821 211.328C266.515 203.432 274.011 194.603 280.145 183.778C285.52 174.293 291.468 165.769 293.92 154.874C296.138 145.013 296.768 134.372 296.339 124.292C296.103 118.753 294.499 112.71 288.952 110.614C282.522 108.185 274.196 109.453 267.531 109.453H230.885C218.42 109.453 205.999 108.291 193.56 108.291C189.251 108.291 183.714 109.211 179.431 108.259C178.714 108.1 178.495 102.659 178.495 102.033C178.495 95.9758 178.135 90.5884 177.044 84.6452C176.243 80.2869 175.579 72.5351 172.108 69.0638C170.995 67.9511 167.638 67.9764 166.172 67.7735C162.857 67.3145 159.449 66.6575 156.107 66.5154C145.843 66.0786 135.475 66.4831 125.203 66.4831C117.707 66.4831 109.474 65.9876 102.202 68.2251C99.9149 68.9287 100.77 71.2809 100.557 73.2576Z" fill="#916F66"/>
</svg>
