<svg width="300" height="300" viewBox="0 0 300 300" fill="none" xmlns="http://www.w3.org/2000/svg">
<path fill-rule="evenodd" clip-rule="evenodd" d="M76.2135 12.8649C77.4293 7.67093 152.104 2.50023 178.5 5.25024C180.902 5.25024 180.75 8.00021 183 17.3262C184.289 17.1429 185.548 16.947 186.765 16.733C190.102 16.1465 192.968 15.2429 195.115 14.566C196.091 14.258 196.919 13.997 197.575 13.8342C213.34 5.41326 227.508 12.1536 239.045 23.0394C243.181 26.9427 246.357 32.3177 247.847 38.051C252.165 54.6697 247.719 71.983 238.682 81.5205C238.397 81.8214 238.115 82.1218 237.834 82.4206C234.803 85.6463 231.952 88.6796 227.843 89.9428C222.158 93.2348 216.512 94.1011 211.109 94.895C205.968 95.6501 200.978 95.4873 196.103 95.3283C189.816 95.1232 173.523 95.5533 176.458 105.791C179.145 115.16 196.133 110.017 209.42 112.249C218.022 113.695 226.174 115.064 230.895 117.233C241.585 122.144 248.642 126.845 254.946 136.722C271.729 163.02 285.931 196.061 274.105 228.227C268.481 243.524 254.063 269.993 230.895 279.5C173.985 302.853 88.6931 309.677 67.9856 262.608C55.1645 233.465 54.2057 194.118 70.0138 166.189C73.217 160.53 77.2803 155.757 81.2562 151.087C88.184 142.95 104.033 135.493 100.395 123.5C98.5994 117.583 86.142 116.612 80.6831 116.395C78.304 116.301 75.8994 116.205 73.4811 116.14C67.379 115.973 61.4684 115.798 55.6177 115.16C51.137 114.672 47.2949 113.578 42.9967 112.249C31.9813 108.794 25.6288 99.9216 20.6569 89.5928C18.7941 85.723 17.8636 81.3452 17.7903 76.9089C17.7347 73.5639 18.1265 70.2317 19.2547 67.0325C23.8065 54.1275 31.3943 43.9136 42.092 37.0123C43.0035 36.4243 43.8908 35.8092 44.7736 35.1972C47.1879 33.5235 49.5686 31.8731 52.3181 30.8642C58.7459 26.7937 66.2594 27.0151 74.05 27.7452C74.8 27.8155 75.5488 27.905 76.2956 28.0118C75.6074 21.7841 75.4419 16.1619 76.2135 12.8649ZM60.7216 49.051C55.6177 50.0598 46.5342 52.9487 42.092 60.1614C39.7266 64.0019 39.0681 66.6942 38.6447 71.1848C37.8808 79.2849 42.7507 89.2629 44.596 91.1504C44.8821 91.4286 45.1102 91.6725 45.4543 91.9917C52.201 98.2506 64.4506 95.6618 68.6467 96.1683C75.2723 96.9679 81.8757 94.3718 87.9297 91.9917C89.356 91.431 90.8544 91.6086 92.1101 90.3927C94.2804 88.2912 89.891 78.9003 90.01 75.0527C87.9297 60.1614 83.2682 44.5946 60.7216 49.051ZM171.895 78.0598C170.395 75.0527 173.286 53.4783 174.056 47.8599C174.821 47.202 175.624 46.4637 176.458 45.6972C179.102 43.2676 182.054 40.5554 185.051 39.2278C185.362 39.0901 185.671 38.9525 185.978 38.8156C200.681 32.2653 224.02 27.4675 227.843 47.8599C231.667 68.2523 223.594 68.287 216.27 74.0925C203.125 79.9383 199.02 82.4206 182.484 81.5205C179.282 81.5205 173.476 81.2295 171.895 78.0598Z" fill="#A85E2D"/>
</svg>
