<svg width="300" height="300" viewBox="0 0 300 300" fill="none" xmlns="http://www.w3.org/2000/svg">
<path fill-rule="evenodd" clip-rule="evenodd" d="M67.7988 51.9771C78.8251 40.9508 103.633 29.5157 108.974 28.4467C111.297 27.9824 116.214 26.9777 121.196 25.9594C126.235 24.9298 131.341 23.8864 133.9 23.374C149.56 20.2424 168.379 18.9562 184.113 22.1032C188.228 22.9263 192.297 23.595 196.317 24.2555C210.489 26.5843 224.05 28.8129 236.868 37.3574C253.03 48.1331 259.396 61.7977 266.671 77.4117C268.303 80.9149 269.98 84.5161 271.825 88.2049C296.85 138.254 314.333 222.216 261.655 261.724C246.677 272.957 230.005 273.224 213.189 273.494C205.168 273.623 197.116 273.752 189.198 275.071C161.645 279.664 125.912 281.461 97.671 277.615C74.8367 274.504 43.9417 251.984 21.3998 226.131C13.5706 217.15 9.26906 199.89 6.45222 188.587C6.34801 188.169 6.24583 187.759 6.14559 187.358C-5.74105 139.813 35.5629 84.2113 67.7988 51.9771Z" fill="#E5D7CE"/>
</svg>
