<svg width="300" height="300" viewBox="0 0 300 300" fill="none" xmlns="http://www.w3.org/2000/svg">
<path d="M158.298 8.71759C155.881 5.30581 151.71 4.61552 148.627 5.08998C145.543 5.56444 141.772 7.4765 140.493 11.4569C139.788 13.6481 140.295 15.9779 140.603 17.1421C140.788 17.8432 140.995 18.4517 141.156 18.8838C141.184 18.9615 141.212 19.0344 141.238 19.1019C141.747 22.7669 141.646 26.813 141.281 31.4996C140.838 37.1829 140.479 42.9269 139.698 48.5663C139.532 49.759 139.309 52.1328 140.271 54.2236C142.02 58.0215 145.992 59.4668 149.111 59.5674C152.23 59.668 156.288 58.4817 158.277 54.8044C159.372 52.78 159.302 50.3967 159.214 49.1958C158.818 43.7942 159.664 38.3482 160.084 32.9637C160.483 27.8409 160.721 22.0814 159.883 16.2595C159.888 16.18 159.893 16.0934 159.898 16.0004C159.921 15.54 159.936 14.8973 159.902 14.173C159.845 12.9702 159.628 10.5957 158.298 8.71759Z" fill="#42535D"/>
<path d="M192.584 15.8001C190.887 11.9792 186.934 10.481 183.816 10.3388C180.699 10.1967 176.626 11.3287 174.588 14.9792C173.466 16.9888 173.504 19.3728 173.576 20.5748C173.62 21.2986 173.703 21.936 173.775 22.3913C173.788 22.4732 173.801 22.55 173.813 22.6213C173.59 26.3147 172.695 30.2618 171.414 34.7847C170.045 39.6185 168.471 44.3937 167.296 49.2814C167.262 49.3521 167.226 49.4291 167.187 49.5119C166.994 49.9303 166.739 50.5207 166.5 51.2053C166.104 52.3422 165.417 54.6255 165.949 56.8648C166.915 60.9326 170.525 63.132 173.563 63.8448C176.601 64.5576 180.813 64.1937 183.487 60.9802C184.96 59.2111 185.36 56.8607 185.511 55.666C185.601 54.9466 185.636 54.3046 185.649 53.8438C185.651 53.7575 185.653 53.6766 185.654 53.6017C186.765 48.9918 188.269 44.4839 189.56 39.923C190.96 34.9791 192.328 29.3793 192.653 23.5065C192.674 23.4295 192.696 23.3456 192.719 23.2553C192.832 22.8085 192.973 22.1813 193.082 21.4645C193.264 20.2741 193.519 17.9034 192.584 15.8001Z" fill="#42535D"/>
<path fill-rule="evenodd" clip-rule="evenodd" d="M281.183 92.0778C280.706 94.6709 277.349 96.0795 277.349 96.0795C273.408 100.192 268.496 102.824 263.738 104.977C262.007 105.76 260.34 106.465 258.725 107.148C255.696 108.428 252.851 109.631 250.114 111.129C250.114 111.129 247.596 113.5 245.346 113.738C243.518 113.931 242.321 114.245 240.22 112.889C235.56 109.881 234.219 101.904 236.072 98.1028C237.1 95.9941 240.84 95.4938 240.84 95.4938C243.851 93.8457 247.243 92.4087 250.466 91.0434C252.004 90.3915 253.504 89.7559 254.906 89.1215C259.461 87.06 263.444 84.839 266.48 81.6704C266.48 81.6704 268.071 77.9239 270.314 77.6688C272.988 77.3646 275.658 78.5419 278.244 81.8363C280.949 85.2828 281.778 88.8431 281.183 92.0778Z" fill="#42535D"/>
<path d="M292.094 135.471C295.052 132.516 295.033 128.289 294.048 125.328C293.063 122.367 290.545 118.971 286.407 118.377C284.128 118.05 281.917 118.941 280.82 119.439C280.16 119.739 279.595 120.046 279.196 120.276C279.124 120.318 279.057 120.357 278.995 120.394C275.467 121.511 271.462 122.09 266.78 122.516C259.67 123.163 252.233 122.808 245.359 124.79C243.087 125.445 241.842 127.349 241.253 128.493C240.561 129.837 240.123 131.392 239.934 132.875C239.748 134.325 239.757 136.058 240.279 137.671C240.813 139.321 242.134 141.424 244.817 142.031C245.043 142.082 245.266 142.134 245.488 142.185C246.698 142.464 247.859 142.731 249.025 142.846C250.544 142.996 251.998 142.897 253.914 142.611C258.73 141.89 263.641 141.739 268.491 141.298C273.608 140.832 279.325 140.101 284.924 138.299C285.004 138.29 285.09 138.281 285.182 138.27C285.64 138.215 286.276 138.122 286.985 137.967C288.161 137.709 290.465 137.097 292.094 135.471Z" fill="#42535D"/>
<path d="M229.858 36.0001C229.86 31.8191 226.857 28.8432 224.067 27.4461C221.277 26.0491 217.096 25.4275 213.749 27.9341C211.907 29.314 210.973 31.5077 210.55 32.6352C210.296 33.3141 210.113 33.9306 209.994 34.3758C209.972 34.4559 209.953 34.5312 209.935 34.6013C205.741 42.6786 198.649 49.1338 193.142 56.3095C193.083 56.3604 193.018 56.4159 192.95 56.476C192.603 56.7797 192.13 57.2157 191.634 57.744C190.809 58.6214 189.253 60.4283 188.829 62.6904C188.058 66.7997 190.462 70.277 192.948 72.1631C195.434 74.0493 199.43 75.4291 203.18 73.5803C206.218 72.0828 207.85 68.1107 209.996 65.486C212.389 62.5604 214.869 59.7138 217.288 56.8103C220.577 52.8625 224.103 48.3022 226.788 43.069C226.838 43.007 226.892 42.9393 226.95 42.8661C227.235 42.5039 227.619 41.9884 228.01 41.3778C228.66 40.3638 229.857 38.3016 229.858 36.0001Z" fill="#42535D"/>
<path d="M260.048 59.0114C261.008 54.9424 258.768 51.3572 256.372 49.3577C253.977 47.3582 250.049 45.7944 246.217 47.4671C244.108 48.3879 242.696 50.309 242.026 51.3094C241.622 51.9119 241.303 52.4701 241.085 52.8761C241.046 52.9491 241.009 53.018 240.976 53.0821C238.563 55.8876 235.462 58.4877 231.705 61.3133C230.51 62.2124 229.228 63.1475 227.883 64.1285L227.833 64.1646C224.498 66.5976 221.285 69.1418 217.856 71.4123C216.852 72.0771 214.924 73.4793 213.992 75.5838C212.299 79.4069 213.843 83.3428 215.83 85.7486C217.817 88.1544 221.39 90.4137 225.464 89.474C227.707 88.9567 229.448 87.328 230.291 86.4678C234.08 82.5986 238.725 79.6319 243.041 76.3854C247.148 73.2968 251.625 69.6665 255.439 65.1882C255.502 65.1394 255.57 65.0858 255.643 65.0278C256.003 64.7406 256.495 64.327 257.016 63.8223C257.881 62.9842 259.519 61.2514 260.048 59.0114Z" fill="#42535D"/>
<path d="M107.414 15.8001C109.111 11.9792 113.064 10.481 116.181 10.3388C119.298 10.1967 123.372 11.3287 125.41 14.9792C126.532 16.9888 126.494 19.3728 126.422 20.5748C126.378 21.2986 126.295 21.936 126.223 22.3913C126.21 22.4732 126.197 22.55 126.185 22.6213C126.408 26.3147 127.303 30.2618 128.584 34.7847C129.953 39.6185 131.527 44.3937 132.702 49.2814C132.736 49.3521 132.772 49.4291 132.811 49.5119C133.004 49.9303 133.258 50.5207 133.497 51.2053C133.894 52.3422 134.581 54.6255 134.049 56.8648C133.083 60.9326 129.473 63.132 126.435 63.8448C123.397 64.5576 119.185 64.1937 116.511 60.9802C115.038 59.2111 114.638 56.8607 114.487 55.666C114.397 54.9466 114.362 54.3046 114.349 53.8438C114.347 53.7575 114.345 53.6766 114.344 53.6017C113.233 48.9918 111.729 44.4839 110.438 39.923C109.038 34.9791 107.67 29.3793 107.345 23.5065C107.324 23.4295 107.302 23.3456 107.279 23.2553C107.166 22.8085 107.025 22.1813 106.916 21.4645C106.734 20.2741 106.479 17.9034 107.414 15.8001Z" fill="#42535D"/>
<path fill-rule="evenodd" clip-rule="evenodd" d="M18.815 92.0778C19.2916 94.6709 22.649 96.0795 22.649 96.0795C26.5896 100.192 31.5024 102.824 36.2604 104.977C37.991 105.76 39.6582 106.465 41.2733 107.148C44.3017 108.428 47.1471 109.631 49.8841 111.129C49.8841 111.129 52.4022 113.5 54.6519 113.738C56.4799 113.931 57.677 114.245 59.7778 112.889C64.438 109.881 65.7793 101.904 63.9262 98.1028C62.8981 95.9941 59.1584 95.4938 59.1584 95.4938C56.1465 93.8457 52.7548 92.4087 49.5324 91.0434C47.9937 90.3915 46.4935 89.7559 45.0917 89.1215C40.5367 87.06 36.5541 84.839 33.5182 81.6704C33.5182 81.6704 31.9269 77.9239 29.6842 77.6688C27.0101 77.3646 24.34 78.5419 21.7542 81.8363C19.0491 85.2828 18.2204 88.8431 18.815 92.0778Z" fill="#42535D"/>
<path d="M7.90429 135.471C4.94618 132.516 4.96525 128.289 5.95024 125.328C6.93523 122.367 9.45264 118.971 13.5912 118.377C15.8695 118.05 18.0812 118.941 19.1775 119.439C19.8376 119.739 20.4026 120.046 20.8017 120.276C20.8735 120.318 20.9407 120.357 21.0029 120.394C24.5306 121.511 28.5364 122.09 33.2178 122.516C40.328 123.163 47.7645 122.808 54.6389 124.79C56.9107 125.445 58.1557 127.349 58.7449 128.493C59.4365 129.837 59.8751 131.392 60.0644 132.875C60.2495 134.325 60.241 136.058 59.7189 137.671C59.1847 139.321 57.864 141.424 55.1806 142.031C54.9551 142.082 54.7315 142.134 54.5096 142.185C53.2996 142.464 52.1387 142.731 50.9734 142.846C49.4539 142.996 48.0004 142.897 46.0844 142.611C41.268 141.89 36.3568 141.739 31.5074 141.298C26.3903 140.832 20.6725 140.101 15.0735 138.299C14.9942 138.29 14.908 138.281 14.8156 138.27C14.3579 138.215 13.7217 138.122 13.0134 137.967C11.8372 137.709 9.5327 137.097 7.90429 135.471Z" fill="#42535D"/>
<path d="M70.14 36.0001C70.1376 31.8191 73.1405 28.8432 75.9305 27.4461C78.7205 26.0491 82.9023 25.4275 86.2485 27.9341C88.0906 29.314 89.0247 31.5077 89.4476 32.6352C89.7022 33.3141 89.8847 33.9306 90.004 34.3758C90.0255 34.4559 90.0451 34.5312 90.0629 34.6013C94.2569 42.6786 101.349 49.1338 106.856 56.3095C106.915 56.3604 106.98 56.4159 107.048 56.476C107.395 56.7797 107.868 57.2157 108.364 57.744C109.189 58.6214 110.745 60.4283 111.169 62.6904C111.94 66.7997 109.536 70.277 107.05 72.1631C104.564 74.0493 100.568 75.4291 96.818 73.5803C93.7803 72.0828 92.1482 68.1107 90.0015 65.486C87.6086 62.5604 85.1285 59.7138 82.7096 56.8103C79.4208 52.8625 75.8948 48.3022 73.2099 43.069C73.1598 43.007 73.1056 42.9393 73.048 42.8661C72.7629 42.5039 72.3787 41.9884 71.9876 41.3778C71.3382 40.3638 70.1413 38.3016 70.14 36.0001Z" fill="#42535D"/>
<path d="M39.9505 59.0114C38.9895 54.9424 41.2301 51.3572 43.6255 49.3577C46.0209 47.3582 49.9487 45.7944 53.7805 47.4671C55.8899 48.3879 57.3021 50.309 57.9722 51.3094C58.3757 51.9119 58.6947 52.4701 58.9129 52.8761C58.9521 52.9491 58.9885 53.018 59.022 53.0821C61.4345 55.8876 64.5364 58.4877 68.2931 61.3133C69.4884 62.2124 70.7702 63.1475 72.1151 64.1285L72.1647 64.1646C75.5001 66.5976 78.7134 69.1418 82.1418 71.4123C83.1458 72.0771 85.0742 73.4793 86.006 75.5838C87.6987 79.4069 86.1554 83.3428 84.1684 85.7486C82.1814 88.1544 78.6081 90.4137 74.534 89.474C72.2913 88.9567 70.55 87.328 69.7074 86.4678C65.9175 82.5986 61.2727 79.6319 56.9566 76.3854C52.8502 73.2968 48.3725 69.6665 44.5593 65.1882C44.4963 65.1394 44.428 65.0858 44.3552 65.0278C43.9947 64.7406 43.5025 64.327 42.9819 63.8223C42.1172 62.9842 40.4795 61.2514 39.9505 59.0114Z" fill="#42535D"/>
<path d="M158.298 291.779C155.881 295.191 151.71 295.881 148.627 295.407C145.543 294.932 141.772 293.02 140.493 289.04C139.788 286.849 140.295 284.519 140.603 283.355C140.788 282.653 140.995 282.045 141.156 281.613C141.184 281.535 141.212 281.462 141.238 281.395C141.747 277.73 141.646 273.684 141.281 268.997C140.838 263.314 140.479 257.57 139.698 251.93C139.532 250.738 139.309 248.364 140.271 246.273C142.02 242.475 145.992 241.03 149.111 240.929C152.23 240.829 156.288 242.015 158.277 245.692C159.372 247.717 159.302 250.1 159.214 251.301C158.818 256.702 159.664 262.148 160.084 267.533C160.483 272.656 160.721 278.415 159.883 284.237C159.888 284.317 159.893 284.403 159.898 284.496C159.921 284.957 159.936 285.599 159.902 286.324C159.845 287.527 159.628 289.901 158.298 291.779Z" fill="#42535D"/>
<path d="M192.584 284.697C190.887 288.518 186.934 290.016 183.816 290.158C180.699 290.3 176.626 289.168 174.588 285.517C173.466 283.508 173.504 281.124 173.576 279.922C173.62 279.198 173.703 278.561 173.775 278.105C173.788 278.024 173.801 277.947 173.813 277.875C173.59 274.182 172.695 270.235 171.414 265.712C170.045 260.878 168.471 256.103 167.296 251.215C167.262 251.145 167.226 251.068 167.187 250.985C166.994 250.566 166.739 249.976 166.5 249.291C166.104 248.155 165.417 245.871 165.949 243.632C166.915 239.564 170.525 237.365 173.563 236.652C176.601 235.939 180.813 236.303 183.487 239.517C184.96 241.286 185.36 243.636 185.511 244.831C185.601 245.55 185.636 246.192 185.649 246.653C185.651 246.739 185.653 246.82 185.654 246.895C186.765 251.505 188.269 256.013 189.56 260.574C190.96 265.518 192.328 271.117 192.653 276.99C192.674 277.067 192.696 277.151 192.719 277.241C192.832 277.688 192.973 278.315 193.082 279.032C193.264 280.223 193.519 282.593 192.584 284.697Z" fill="#42535D"/>
<path fill-rule="evenodd" clip-rule="evenodd" d="M281.183 208.419C280.706 205.826 277.349 204.417 277.349 204.417C273.408 200.304 268.496 197.673 263.738 195.52C262.007 194.736 260.34 194.032 258.725 193.349C255.696 192.069 252.851 190.866 250.114 189.368C250.114 189.368 247.596 186.997 245.346 186.759C243.518 186.566 242.321 186.252 240.22 187.608C235.56 190.616 234.219 198.593 236.072 202.394C237.1 204.503 240.84 205.003 240.84 205.003C243.851 206.651 247.243 208.088 250.466 209.453C252.004 210.105 253.504 210.741 254.906 211.375C259.461 213.437 263.444 215.658 266.48 218.826C266.48 218.826 268.071 222.573 270.314 222.828C272.988 223.132 275.658 221.955 278.244 218.661C280.949 215.214 281.778 211.654 281.183 208.419Z" fill="#42535D"/>
<path d="M292.094 165.026C295.052 167.981 295.033 172.208 294.048 175.169C293.063 178.13 290.545 181.526 286.407 182.12C284.128 182.447 281.917 181.556 280.82 181.058C280.16 180.758 279.595 180.451 279.196 180.22C279.124 180.179 279.057 180.139 278.995 180.103C275.467 178.986 271.462 178.407 266.78 177.981C259.67 177.333 252.233 177.689 245.359 175.707C243.087 175.052 241.842 173.147 241.253 172.003C240.561 170.66 240.123 169.104 239.934 167.622C239.748 166.171 239.757 164.438 240.279 162.826C240.813 161.176 242.134 159.073 244.817 158.465C245.043 158.414 245.266 158.363 245.488 158.312C246.698 158.033 247.859 157.765 249.025 157.65C250.544 157.5 251.998 157.599 253.914 157.886C258.73 158.606 263.641 158.757 268.491 159.199C273.608 159.665 279.325 160.396 284.924 162.198C285.004 162.206 285.09 162.216 285.182 162.227C285.64 162.282 286.276 162.374 286.985 162.53C288.161 162.787 290.465 163.399 292.094 165.026Z" fill="#42535D"/>
<path d="M229.858 264.497C229.86 268.678 226.857 271.654 224.067 273.051C221.277 274.448 217.096 275.069 213.749 272.563C211.907 271.183 210.973 268.989 210.55 267.862C210.296 267.183 210.113 266.566 209.994 266.121C209.972 266.041 209.953 265.966 209.935 265.896C205.741 257.818 198.649 251.363 193.142 244.187C193.083 244.137 193.018 244.081 192.95 244.021C192.603 243.717 192.13 243.281 191.634 242.753C190.809 241.876 189.253 240.069 188.829 237.807C188.058 233.697 190.462 230.22 192.948 228.334C195.434 226.448 199.43 225.068 203.18 226.917C206.218 228.414 207.85 232.386 209.996 235.011C212.389 237.937 214.869 240.783 217.288 243.687C220.577 247.634 224.103 252.195 226.788 257.428C226.838 257.49 226.892 257.558 226.95 257.631C227.235 257.993 227.619 258.509 228.01 259.119C228.66 260.133 229.857 262.195 229.858 264.497Z" fill="#42535D"/>
<path d="M260.048 241.485C261.008 245.554 258.768 249.14 256.372 251.139C253.977 253.139 250.049 254.702 246.217 253.03C244.108 252.109 242.696 250.188 242.026 249.187C241.622 248.585 241.303 248.027 241.085 247.621C241.046 247.548 241.009 247.479 240.976 247.415C238.563 244.609 235.462 242.009 231.705 239.184C230.51 238.284 229.228 237.349 227.883 236.368L227.833 236.332C224.498 233.899 221.285 231.355 217.856 229.085C216.852 228.42 214.924 227.018 213.992 224.913C212.299 221.09 213.843 217.154 215.83 214.748C217.817 212.342 221.39 210.083 225.464 211.023C227.707 211.54 229.448 213.169 230.291 214.029C234.08 217.898 238.725 220.865 243.041 224.111C247.148 227.2 251.625 230.83 255.439 235.309C255.502 235.357 255.57 235.411 255.643 235.469C256.003 235.756 256.495 236.17 257.016 236.675C257.881 237.513 259.519 239.245 260.048 241.485Z" fill="#42535D"/>
<path d="M107.414 284.697C109.111 288.518 113.064 290.016 116.181 290.158C119.298 290.3 123.372 289.168 125.41 285.517C126.532 283.508 126.494 281.124 126.422 279.922C126.378 279.198 126.295 278.561 126.223 278.105C126.21 278.024 126.197 277.947 126.185 277.875C126.408 274.182 127.303 270.235 128.584 265.712C129.953 260.878 131.527 256.103 132.702 251.215C132.736 251.145 132.772 251.068 132.811 250.985C133.004 250.566 133.258 249.976 133.497 249.291C133.894 248.155 134.581 245.871 134.049 243.632C133.083 239.564 129.473 237.365 126.435 236.652C123.397 235.939 119.185 236.303 116.511 239.517C115.038 241.286 114.638 243.636 114.487 244.831C114.397 245.55 114.362 246.192 114.349 246.653C114.347 246.739 114.345 246.82 114.344 246.895C113.233 251.505 111.729 256.013 110.438 260.574C109.038 265.518 107.67 271.117 107.345 276.99C107.324 277.067 107.302 277.151 107.279 277.241C107.166 277.688 107.025 278.315 106.916 279.032C106.734 280.223 106.479 282.593 107.414 284.697Z" fill="#42535D"/>
<path fill-rule="evenodd" clip-rule="evenodd" d="M18.815 208.419C19.2916 205.826 22.649 204.417 22.649 204.417C26.5896 200.304 31.5024 197.673 36.2604 195.52C37.991 194.736 39.6582 194.032 41.2733 193.349C44.3017 192.069 47.1471 190.866 49.8841 189.368C49.8841 189.368 52.4022 186.997 54.6519 186.759C56.4799 186.566 57.677 186.252 59.7778 187.608C64.438 190.616 65.7793 198.593 63.9262 202.394C62.8981 204.503 59.1584 205.003 59.1584 205.003C56.1465 206.651 52.7548 208.088 49.5324 209.453C47.9937 210.105 46.4935 210.741 45.0917 211.375C40.5367 213.437 36.5541 215.658 33.5182 218.826C33.5182 218.826 31.9269 222.573 29.6842 222.828C27.0101 223.132 24.34 221.955 21.7542 218.661C19.0491 215.214 18.2204 211.654 18.815 208.419Z" fill="#42535D"/>
<path d="M7.90429 165.026C4.94618 167.981 4.96525 172.208 5.95024 175.169C6.93523 178.13 9.45264 181.526 13.5912 182.12C15.8695 182.447 18.0812 181.556 19.1775 181.058C19.8376 180.758 20.4026 180.451 20.8017 180.22C20.8735 180.179 20.9407 180.139 21.0029 180.103C24.5306 178.986 28.5364 178.407 33.2178 177.981C40.328 177.333 47.7645 177.689 54.6389 175.707C56.9107 175.052 58.1557 173.147 58.7449 172.003C59.4365 170.66 59.8751 169.104 60.0644 167.622C60.2495 166.171 60.241 164.438 59.7189 162.826C59.1847 161.176 57.864 159.073 55.1806 158.465C54.9551 158.414 54.7315 158.363 54.5096 158.312C53.2996 158.033 52.1387 157.765 50.9734 157.65C49.4539 157.5 48.0004 157.599 46.0844 157.886C41.268 158.606 36.3568 158.757 31.5074 159.199C26.3903 159.665 20.6725 160.396 15.0735 162.198C14.9942 162.206 14.908 162.216 14.8156 162.227C14.3579 162.282 13.7217 162.374 13.0134 162.53C11.8372 162.787 9.5327 163.399 7.90429 165.026Z" fill="#42535D"/>
<path d="M70.14 264.497C70.1376 268.678 73.1405 271.654 75.9305 273.051C78.7205 274.448 82.9023 275.069 86.2485 272.563C88.0906 271.183 89.0247 268.989 89.4476 267.862C89.7022 267.183 89.8847 266.566 90.004 266.121C90.0255 266.041 90.0451 265.966 90.0629 265.896C94.2569 257.818 101.349 251.363 106.856 244.187C106.915 244.137 106.98 244.081 107.048 244.021C107.395 243.717 107.868 243.281 108.364 242.753C109.189 241.876 110.745 240.069 111.169 237.807C111.94 233.697 109.536 230.22 107.05 228.334C104.564 226.448 100.568 225.068 96.818 226.917C93.7803 228.414 92.1482 232.386 90.0015 235.011C87.6086 237.937 85.1285 240.783 82.7096 243.687C79.4208 247.634 75.8948 252.195 73.2099 257.428C73.1598 257.49 73.1056 257.558 73.048 257.631C72.7629 257.993 72.3787 258.509 71.9876 259.119C71.3382 260.133 70.1413 262.195 70.14 264.497Z" fill="#42535D"/>
<path d="M39.9505 241.485C38.9895 245.554 41.2301 249.14 43.6255 251.139C46.0209 253.139 49.9487 254.702 53.7805 253.03C55.8899 252.109 57.3021 250.188 57.9722 249.187C58.3757 248.585 58.6947 248.027 58.9129 247.621C58.9521 247.548 58.9885 247.479 59.022 247.415C61.4345 244.609 64.5364 242.009 68.2931 239.184C69.4884 238.284 70.7702 237.349 72.1151 236.368L72.1647 236.332C75.5001 233.899 78.7134 231.355 82.1418 229.085C83.1458 228.42 85.0742 227.018 86.006 224.913C87.6987 221.09 86.1554 217.154 84.1684 214.748C82.1814 212.342 78.6081 210.083 74.534 211.023C72.2913 211.54 70.55 213.169 69.7074 214.029C65.9175 217.898 61.2727 220.865 56.9566 224.111C52.8502 227.2 48.3725 230.83 44.5593 235.309C44.4963 235.357 44.428 235.411 44.3552 235.469C43.9947 235.756 43.5025 236.17 42.9819 236.675C42.1172 237.513 40.4795 239.245 39.9505 241.485Z" fill="#42535D"/>
</svg>
