<svg width="300" height="300" viewBox="0 0 300 300" fill="none" xmlns="http://www.w3.org/2000/svg">
<path fill-rule="evenodd" clip-rule="evenodd" d="M71.254 108.272C69.2873 109.427 67.3835 110.686 65.5471 112.043C55.209 119.683 47.0421 130.508 42.0769 143.909C34.0065 146.042 26.1047 149.082 19.8649 153.276C10.5898 159.509 4.66203 168.114 4.0936 179.082C3.59336 188.729 5.1207 197.489 8.13779 205.782C10.9976 213.642 15.2686 221.068 20.5498 228.418C29.5598 240.887 39.7932 251.367 51.7522 258.35C64.3853 265.726 78.9513 269.311 96.219 267.247C99.2364 266.882 102.234 266.284 105.157 265.437C110.494 270.645 116.854 274.895 123.917 277.891C140.66 284.935 159.983 286.626 178.745 283.705C197.119 280.844 214.92 273.672 229.054 263.342C234.425 259.407 239.524 255.059 244.156 250.264C248.868 245.387 253.126 240.082 256.724 234.317C259.483 229.895 262.242 225.278 264.398 220.43C265.987 216.857 267.284 213.173 268.073 209.359C270.787 196.232 268.606 185.527 263.323 176.893C269.367 172.191 274.922 166.952 279.836 161.451C283.618 157.223 287.725 151.926 290.644 146.27C292.814 142.065 294.351 137.666 294.792 133.33C296.296 118.722 290.137 108.164 280.324 101.007C267.188 91.4282 247.033 88.2804 231.715 90.0682L231.219 90.1324C234.982 81.9043 237.449 73.1477 237.571 64.7929C237.757 52.0027 232.782 40.0364 219.272 31.692C201.453 20.6513 179.447 20.8768 160.25 28.8029C155.461 30.7803 150.854 33.2376 146.537 36.1127C140.092 29.3424 132.71 23.8041 124.746 20.1241C108.764 12.7392 90.4296 12.5979 72.1231 24.5977C69.439 26.3572 66.9171 28.3276 64.5639 30.4816C62.2127 32.6339 60.0378 34.9781 58.0445 37.4893C47.1329 51.2357 45.2008 63.0736 47.6251 73.6117C50.5528 86.337 60.9538 97.3829 71.254 108.272ZM136.76 43.8069C131.591 38.6648 125.768 34.4583 119.499 31.6434C107.249 26.144 93.2748 26.2847 79.4133 35.5881C77.3404 36.9791 75.3967 38.5337 73.5846 40.229C71.7706 41.9263 70.0966 43.773 68.5646 45.747C61.167 55.2769 59.2365 63.2306 60.9884 70.4539C63.8974 82.4464 75.1289 92.1227 85.0696 102.163C91.7837 100.071 98.9574 99.0094 106.431 99.0899C115.762 99.2089 126.613 101.691 134.937 107.194C141.145 111.297 146.052 116.965 148.348 124.459C152.04 136.532 142.198 144.243 124.315 140.677C111.689 138.16 94.8583 130.613 83.3863 120.753C80.6928 122.116 78.1444 123.729 75.7576 125.569C70.7205 129.453 66.4349 134.372 63.0905 140.179C67.3366 139.751 71.1749 139.569 74.2991 139.575C80.9483 139.587 89.3476 140.461 95.9582 143.719C101.814 146.604 106.487 151.104 108.73 157.795C111.435 165.864 109.95 173.742 105.686 180.382C100.261 188.83 90.1669 195.11 80.6203 196.419C67.6233 198.198 55.4215 191.986 47.702 181.826C44.1025 177.089 41.4975 171.555 40.2179 165.76C32.4206 168.706 25.2885 172.554 25.014 180.01C24.7692 186.659 25.9217 192.674 28.0854 198.355C30.3874 204.398 33.8528 210.045 38.0207 215.666C45.2437 225.463 53.2449 233.861 62.7579 239.297C71.0748 244.049 80.5857 246.354 91.7098 245.25C89.5515 239.724 88.2623 233.78 87.9806 227.559C87.8609 224.919 87.6726 222.025 87.9158 219.266C88.0721 217.489 88.3994 215.756 88.9069 214.101C91.7075 204.978 99.2408 198.948 107.575 197.11C116.426 195.159 126.014 197.923 132.028 205.976C138.075 214.09 139.471 223.188 137.677 231.926C136.009 240.049 131.353 247.853 125.281 253.838C127.515 255.451 129.938 256.837 132.51 257.965C145.632 263.764 160.889 265.124 175.751 263.115C190.943 261.061 205.773 255.571 217.613 247.316C222.172 244.145 226.521 240.631 230.482 236.727C234.363 232.901 237.9 228.734 240.903 224.173C242.928 221.099 244.977 217.923 246.712 214.594C248.236 211.672 249.556 208.648 250.298 205.456C252.028 198.012 251.269 191.775 248.643 186.649C237.337 192.946 224.963 197.065 212.195 197.807C204.361 198.263 185.214 197.801 174.825 191.653C167.531 187.336 163.596 180.782 165.53 171.437C167.507 161.887 175.779 155.567 186.609 152.444C199.082 148.848 214.835 149.54 222.69 151.391C235.12 154.319 246.634 159.524 255.065 167.091C260.772 162.873 266.022 158.112 270.673 153.105C273.389 150.178 276.329 146.641 278.699 142.798C280.822 139.356 282.546 135.69 282.987 132.021C284.153 122.218 280.088 115.06 273.555 110.163C262.673 102.007 245.749 99.5359 232.921 100.897C230.041 101.203 227.234 101.696 224.485 102.366C221.683 106.697 218.625 110.687 215.521 114.154C212.504 117.537 209.263 120.793 205.823 123.822C202.35 126.88 198.674 129.705 194.821 132.201C194.032 132.713 189.286 135.392 186.404 135.675C183.28 135.982 181.081 134.654 179.861 132.59C178.582 130.427 178.235 127.982 178.641 125.462C179.246 121.708 181.854 117.688 183.632 115.41C186.323 111.964 189.478 108.715 192.947 105.844C196.439 102.954 200.251 100.451 204.223 98.5058C208.575 96.3601 212.984 94.5507 217.51 93.1265L218.004 92.9768C223.153 84.1507 226.895 74.1272 227.013 64.6505C227.128 55.3977 223.479 46.7651 213.691 40.7522C198.785 31.6218 180.42 32.1935 164.45 38.8933C160.7 40.4665 157.076 42.3803 153.66 44.5979C156.532 48.4681 159.124 52.5921 161.392 56.8868C164.864 63.4461 170.393 80.1671 168.619 91.8217C167.487 99.2638 163.75 104.908 156.629 107.011C146.108 110.118 134.726 107.129 126.94 100.457C118.811 93.4927 114.495 82.7205 118.614 70.9042C122.195 60.5963 128.601 51.3511 136.76 43.8069ZM111.736 235.466C110.859 232.668 110.341 229.717 110.232 226.657L110.253 220.765C110.487 220.029 111.096 219.567 111.733 219.287C112.478 218.96 113.459 218.721 113.994 219.44C116.437 222.707 116.234 226.509 114.921 229.922C114.163 231.892 113.066 233.77 111.736 235.466ZM239.501 176.556C230.688 180.801 221.232 183.491 211.551 183.817C206.937 183.973 197.485 183.809 189.457 181.73C186.88 181.063 184.469 180.188 182.535 178.979C180.985 178.01 179.9 176.702 180.367 174.697C181.659 169.141 188.52 167.732 195.26 166.687C204.001 165.331 213.567 166.061 218.71 167.406C226.379 169.411 233.681 172.357 239.501 176.556ZM57.5286 161.098C64.0161 159.964 70.0666 159.483 74.4115 159.426C77.8633 159.381 82.1061 159.503 85.8193 160.724C87.7232 161.35 89.6713 162.1 90.3754 164.101C91.3952 166.997 90.0674 169.727 88.1606 171.922C85.5093 174.973 81.6504 177.269 77.8969 177.856C71.6512 178.834 65.919 175.486 62.1053 170.663C59.9011 167.875 58.249 164.562 57.5286 161.098ZM131.956 125.289C129.541 125.365 126.254 125.883 122.98 125.017C115.946 123.156 107.906 119.855 100.846 115.56C102.677 115.344 104.541 115.229 106.431 115.209C111.932 115.139 118.245 116.081 123.638 118.621C126.949 120.181 129.95 122.321 131.956 125.289ZM204.662 110.445C202.817 112.343 200.891 114.179 198.892 115.931C196.997 117.591 195.035 119.175 193.009 120.661C195.002 118.285 197.261 116.046 199.706 114.033C201.286 112.732 202.943 111.526 204.662 110.445ZM144.011 52.1667C146.484 55.4585 148.724 58.9656 150.7 62.61C152.783 66.4559 155.834 74.6504 156.818 82.4641C157.552 88.2907 158.155 94.3079 153.266 95.796C146.596 97.8263 139.365 95.8985 134.381 91.6993C129.617 87.685 126.937 81.4699 129.278 74.5722C132.172 66.0728 137.376 58.4523 144.011 52.1667Z" fill="#A85E2D"/>
</svg>
