<svg width="300" height="300" viewBox="0 0 300 300" fill="none" xmlns="http://www.w3.org/2000/svg">
<path fill-rule="evenodd" clip-rule="evenodd" d="M116.978 285.395C117 285.742 109.924 284.091 109.428 283.347C107.965 281.153 107.863 278.652 106.82 276.305C104.417 270.899 92.8125 258.483 85.0656 258.483C65.1771 258.483 54.3972 261.746 34.8331 263.524C31.4101 263.836 15.4431 268.837 17.0975 262.22C20.869 247.134 47.6308 232.839 60.3939 228.053C66.7302 225.677 71.2874 220.738 77.8685 222.054C84.5493 223.39 95.8737 235.23 102.908 238.747C105.252 239.919 109.365 245.59 112.036 242.92C113.178 241.778 108.77 234.297 108.385 233.269C107.41 230.669 106.553 228.038 105.516 225.445C103.692 220.886 101.808 216.35 99.7774 211.882C96.6222 204.939 94.5624 197.799 91.1706 191.016C89.6444 187.964 86.0103 183.423 82.8244 182.149C70.8839 177.372 36.1732 188.43 24.6611 193.364C21.0213 194.924 17.56 194.471 13.9677 195.189C13.2489 195.333 7.10931 197.383 6.92554 197.015C6.03982 195.245 7.51378 191.122 8.22966 189.451C16.4305 170.316 22.7045 176.846 38.2239 166.499C42.5407 163.621 67.3271 147.638 72.1304 146.677C78.6472 145.374 88.6776 148.889 94.5614 150.85C109.717 155.902 118.344 168.002 124.295 181.888C126.475 186.975 128.086 192.761 130.815 197.537C131.097 198.03 133.666 202.25 133.945 201.971C134.813 201.103 131.913 192.905 131.598 191.538C129.798 183.738 128.509 175.724 125.338 168.325C123.626 164.331 121.075 160.719 119.6 156.588C109.572 128.509 98.2123 100.509 91.9532 71.2997C90.4337 64.2105 87.9833 57.5508 86.2152 50.4338C82.2539 34.4922 83.4764 12.1437 85.0656 10.5546C90.2244 5.39583 100.179 33.7555 101.082 35.0454C103.507 38.5106 105.178 42.5362 107.602 45.9999C114.129 55.3245 122.3 63.9193 127.424 74.1689C130.254 79.8273 129.523 88.3002 131.076 94.5128C133.205 103.028 136.775 111.049 138.901 119.552C141.123 128.44 145.693 135.229 148.812 143.547C149.77 146.1 151.142 148.938 151.681 151.632C151.925 152.854 152.335 153.855 152.724 155.023C152.811 155.284 152.985 156.081 152.985 155.806C152.985 143.691 151.879 131.568 152.464 119.291C153.782 91.6061 161.07 64.7244 161.07 36.8711C161.07 35.1217 164.679 4.82868 167.592 3.90209C171.369 2.70108 175.544 12.6116 175.937 13.3975C177.906 17.3357 177.139 33.0667 178.992 37.3893C183.634 48.2214 185.667 64.4466 184.805 76.5162C184.032 87.3493 184.895 98.3613 183.24 109.119C181.499 120.436 181.057 131.921 180.111 143.286C179.922 145.547 179.85 147.789 179.85 150.068C179.85 151.546 178.372 154.502 179.85 154.502C181.078 154.502 184.972 145.618 185.588 144.59C190.951 135.65 199.032 127.815 204.888 119.03C215.186 103.584 226.716 88.5675 236.709 72.8648C239.445 68.5648 245.404 60.2195 249.068 56.5562C255.322 50.3019 266.001 40.2825 271.398 41.9153C275.356 43.1129 268.68 59.1178 265.047 65.1735C262.852 68.8311 258.12 80.4271 255.569 83.8279C250.623 90.4234 249.802 94.2743 244.272 101.033C237.522 109.284 233.632 120.75 228.884 130.245C225.269 137.476 220.761 144.143 217.147 151.372C212.454 160.757 202.292 167.787 196.021 176.15C195.574 176.745 189.801 183.493 190.283 183.974C191.34 185.031 196.683 179.257 197.325 178.758C203.839 173.692 211.997 169.679 218.973 165.195C225.366 161.085 231.151 156.231 238.013 152.937C241.945 151.048 255.13 145.412 259.869 147.745C265.822 150.677 275.479 164.254 278.009 169.314C279.585 172.467 285.349 184.244 282.731 185.554C281.085 186.377 271.225 177.22 269.13 177.918C263.514 179.79 260.055 181.81 252.619 186.061C247.36 189.067 241.315 193.277 235.926 195.972C221.378 203.246 207.828 212.104 193.673 219.968C185.022 224.773 177.454 230.952 169.156 236.139C168.781 236.373 162.542 241.569 163.679 242.138C168.594 244.595 187.077 237.286 191.847 235.617C207.155 230.259 218.337 230.125 226.438 228.227C238.085 225.499 248.717 211.509 253.819 211.314C260.168 211.072 251.067 237.114 243.428 242.278C223.718 255.605 186.943 276.618 164.2 282.304C159.64 283.444 155.2 286.836 150.377 288.042C142.889 289.914 125.698 285.395 116.978 285.395Z" fill="#FFBA03"/>
</svg>
