<svg width="600" height="300" viewBox="0 0 600 300" fill="none" xmlns="http://www.w3.org/2000/svg">
<path d="M112.386 269.631C144.91 276.135 213.994 283.038 310.698 282.633C379.985 282.343 530.511 269.631 542.386 250.933C549.294 237.117 519.386 220.356 512.866 219.17C486.208 214.324 469.546 213.774 442.704 211.711C433.166 210.975 423.6 211.135 414.008 211.135C409.761 211.135 401.382 212.858 401.382 212.858C401.382 212.858 408.801 208.471 412.86 207.118C420.591 204.542 427.692 200.956 435.243 197.936C463.714 186.547 493.615 177.158 520.756 162.354C531.083 156.72 541.682 143.681 530.511 132.51C521.286 123.285 506.055 126.727 494.356 129.067C467.653 134.407 441.285 146.714 416.618 158.228L415.155 158.91C401.382 165.337 378.426 180.718 378.426 180.718C378.426 180.718 403.344 156.071 404.826 154.319C410.861 147.185 418.781 141.814 424.912 134.807C429.702 129.333 434.087 123.909 439.261 118.736C452.919 105.077 500.099 56.4682 457.624 45.8487C444.884 42.6641 429.915 50.318 418.599 55.0324C386.645 68.3464 366.193 98.5587 346.861 125.623C339.961 135.283 333.491 146.64 331.365 158.337C330.54 162.877 329.069 167.503 329.069 172.11V160.631C329.069 152.75 328.384 144.96 327.922 137.101C326.002 104.492 322.216 74.0759 311.852 42.9805C308.626 33.3014 306.976 15.1444 292.913 17.1539C279.415 19.0817 271.695 35.33 267.66 46.4241C260.194 66.9542 254.386 134.807 269.383 190.475C258.94 177.124 248.677 164.601 237.243 152.023C224.341 137.83 212.419 122.056 197.643 109.554C187.019 100.563 174.633 94.4632 163.782 86.0236C151.941 76.8138 136.456 65.3181 121.313 73.9716C101.548 85.2656 124.112 108.605 132.217 118.736C150.553 141.656 170.249 166.032 191.903 185.884C203.736 196.732 218.514 205.034 229.782 216.302C230.946 217.465 227.134 214.344 225.764 213.432C222.422 211.203 219.188 209.018 216.009 206.544C206.462 199.12 197.153 191.894 187.312 184.737C162.991 167.048 129.2 152.831 99.5036 147.432C90.3495 145.767 76.6896 142.182 67.9388 147.432C55.7269 154.759 73.578 170.323 78.8434 173.832C103.919 190.548 120.816 206.916 148.386 219.17L197.07 240.979C197.07 240.979 159.582 230.933 156.895 230.127C128.918 221.734 108.913 219.17 79.9907 219.17C71.8083 219.17 53.085 227.773 56.3861 240.979C60.4677 257.306 97.1687 266.589 112.386 269.631Z" fill="#939878"/>
</svg>
