<svg width="300" height="300" viewBox="0 0 300 300" fill="none" xmlns="http://www.w3.org/2000/svg">
<path d="M15.8547 183.159C17.2027 200.757 16.4114 226.05 22.7403 237.784C24.7563 241.52 56.1368 245.533 66.52 246.521C90.2802 248.779 114.088 250.567 137.91 252.033C168.643 253.926 270.782 245.24 280.891 228.494C295.269 204.674 293.26 89.4746 282.626 68.5371C281.255 65.8377 279.645 63.14 277.402 61.1034C258.084 43.5556 238.258 78.7438 230.442 90.5485L227.103 95.7691C224.922 99.2893 222.825 102.864 220.734 106.438C220.352 107.093 213.37 124.199 208.528 122.131C203.578 120.018 197.145 110.851 194.661 107.206C182.188 88.9025 177.834 78.3447 161.946 62.7666C158.963 59.8411 148.139 54.8619 142.269 56.7443C113.559 65.9456 94.9682 122.155 88.2162 117.772C67.5202 104.338 53.8177 81.7001 34.1391 66.6667C31.1348 64.3715 23.672 60.3292 19.342 63.7189C14.0939 67.8279 12.1927 79.5282 11.8673 84.7489C9.7365 119.094 13.1484 147.863 15.8547 183.159Z" fill="#DBC5B0"/>
</svg>
