<svg width="300" height="300" viewBox="0 0 300 300" fill="none" xmlns="http://www.w3.org/2000/svg">
<path fill-rule="evenodd" clip-rule="evenodd" d="M100.331 150.957C100.331 127.261 65.6228 86.6535 59.8014 52.6608C55.0289 24.7931 58.8796 10.9276 72.0449 5.66186C90.9133 -1.88501 115.785 23.6608 125.057 62.3546C129.273 79.9488 131.239 124.17 143.656 139.624C152.658 150.827 201.296 156.108 208.446 157.052C230.081 159.91 300.688 150.52 284.104 200.273C274.65 228.638 218.013 214.934 196.145 205.56C182.89 199.879 159.926 192.755 143.656 195.258C134.773 196.624 129.782 222.04 115.785 240.589C89.3935 275.562 55.0005 302.402 30.2735 294.162C17.3209 289.846 6.38686 272.523 18.9377 250.835C33.5317 225.617 100.331 185.792 100.331 150.957Z" fill="#B3BDB5"/>
</svg>
