<svg width="300" height="300" viewBox="0 0 300 300" fill="none" xmlns="http://www.w3.org/2000/svg">
<path fill-rule="evenodd" clip-rule="evenodd" d="M179.381 18.065C193.19 19.248 208.496 21.6712 221.309 26.8706C227.706 29.4665 230.787 36.7566 228.191 43.1536C225.595 49.5505 218.305 52.6318 211.908 50.0359C202.543 46.2354 190.16 44.08 177.247 42.9737C164.502 41.8818 152.114 41.8748 143.033 41.9527C110.639 42.2307 82.5768 57.3189 56.7966 89.0869C37.9623 112.296 27.0741 148.879 31.5906 183.437C33.7394 199.88 42.707 213.46 53.5014 224.313C69.4784 240.377 88.7335 247.826 110.017 252.312C129.545 256.427 149.737 256.551 169.305 252.728C179.984 250.642 189.895 248.458 199.172 244.809C208.381 241.187 217.276 235.241 226.303 227.644C239.605 216.449 252.234 203.181 260.284 186.864C268.717 169.769 272.537 147.907 266.431 130.79C261.751 117.671 251.727 107.76 241.677 102.675C234.237 98.9105 226.34 96.6336 217.262 94.0166C215.903 93.6248 214.518 93.2254 213.103 92.8122C200.724 89.1958 188.953 86.1304 177.287 84.7906C156.867 82.4455 137.504 83.0785 119.625 90.491C114.006 92.8204 109.688 95.2762 105.445 99.2125C95.9042 108.063 87.9174 116.248 82.987 127.335C78.1046 138.314 75.5902 151.137 77.3106 162.944C79.7029 179.362 89.1234 190.348 100.921 198.52C114.334 207.81 128.649 212.702 142.493 212.223C152.627 211.871 162.57 209.911 172.489 206.33C186.04 201.437 198.798 196.449 209.996 188.949C215.359 185.356 220.37 180.707 225.039 174.963C228.894 170.22 231.191 166.735 232.004 162.807C234.447 151.013 230.473 142.653 224.732 138.689C220.417 135.709 213.374 132.897 204.786 130.321C198.531 128.444 192.317 126.928 186.634 125.541C184.641 125.055 182.714 124.585 180.873 124.121C155.929 117.83 136.728 129.05 129.783 141.202C123.505 152.188 125.992 156.267 126.824 157.367C128.562 159.669 133.307 162.231 140.676 162.394C147.951 162.555 153.689 160.245 156.097 157.885C157.054 156.947 157.315 156.214 157.376 155.505C157.448 154.661 157.325 152.53 155.152 148.832C151.656 142.879 153.646 135.219 159.599 131.722C165.551 128.226 173.211 130.216 176.708 136.169C180.772 143.086 182.91 150.363 182.284 157.647C181.645 165.067 178.246 171.182 173.597 175.739C164.791 184.37 151.528 187.64 140.123 187.388C128.728 187.136 115.033 183.235 106.876 172.436C97.8108 160.437 98.9456 144.777 108.077 128.798C121.011 106.167 152.011 91.0584 186.987 99.8798C188.501 100.261 190.206 100.677 192.052 101.128C197.848 102.541 205.025 104.292 211.97 106.375C220.987 109.08 231.219 112.786 238.939 118.118C254.583 128.922 260.527 148.358 256.485 167.876C254.353 178.173 248.536 185.691 244.439 190.732C238.409 198.15 231.598 204.57 223.909 209.72C209.922 219.088 194.57 224.937 180.98 229.844C168.726 234.268 156.215 236.762 143.359 237.208C122.945 237.915 103.433 230.671 86.686 219.071C71.2051 208.348 56.2698 191.927 52.5719 166.549C50.0244 149.066 53.7994 131.444 60.1438 117.177C67.3078 101.067 78.6839 89.9366 88.4426 80.8841C95.4779 74.3579 102.598 70.4866 110.05 67.3972C133.476 57.685 157.672 57.3736 180.139 59.9538C194.024 61.5484 207.487 65.1264 220.114 68.8152C221.363 69.1801 222.651 69.5492 223.971 69.9275C232.88 72.4809 243.251 75.4529 252.964 80.3679C268.124 88.0389 282.926 102.623 289.978 122.39C299.137 148.065 292.919 177.218 282.704 197.924C272.5 218.609 256.987 234.495 242.4 246.771C232.242 255.321 220.994 263.09 208.323 268.074C196.756 272.624 184.898 275.154 174.099 277.264C151.262 281.726 127.687 281.585 104.861 276.774C81.0742 271.761 56.5187 262.798 35.776 241.943C22.7238 228.82 9.90965 210.461 6.80136 186.677C1.42908 145.57 14.071 102.062 37.3844 73.3336C66.6398 37.2831 101.219 17.3106 142.818 16.9537C152.042 16.8745 165.406 16.8676 179.381 18.065Z" fill="#666B64"/>
</svg>
