<svg width="300" height="300" viewBox="0 0 300 300" fill="none" xmlns="http://www.w3.org/2000/svg">
<path fill-rule="evenodd" clip-rule="evenodd" d="M82.4132 171.667C78.8292 177.797 69.9281 200.252 64.1586 214.741C58.1952 229.72 51.6966 244.556 47.2179 260.045C46.8418 261.346 50.038 260.067 51.2344 259.434C53.4282 258.275 55.2508 256.504 57.0817 254.832C60.1769 252.009 62.8579 248.751 65.9878 245.966C79.2385 234.182 114.747 203.077 130.902 193.566C140.504 187.913 154.285 209.859 156.713 213.118C173.932 236.243 192.494 264.622 212.24 285.854C212.984 286.652 214.035 284.296 214.174 283.216C214.64 279.643 214.273 276.003 213.988 272.413C213.369 264.618 213.046 256.749 211.458 249.094C211.127 247.494 197.078 196.478 195.464 186.331C194.736 181.759 193.139 176.674 195.035 172.449C197.247 167.523 202.489 164.581 206.726 161.233C225.812 146.145 246.66 133.416 266.988 120.049C268.862 118.816 290.75 109.004 288.888 102.06C287.039 95.1717 269.049 97.2031 266.206 97.3672C229.275 99.5113 228.314 98.7905 192.688 109.1C182.631 112.01 173.292 117.517 162.969 119.267C161.299 119.549 161.692 116.054 161.65 114.361C161.594 111.927 162.137 109.503 162.683 107.132C163.622 103.044 165.08 99.0904 166.098 95.0209C171.173 74.7166 176.026 54.3577 180.957 34.0186C181.789 30.5887 185.396 18.3273 183.303 14.4649C182.548 13.0698 180.077 15.0631 178.8 16.0059C176.222 17.9081 174.077 20.3587 172.003 22.8027C168.528 26.897 164.964 30.9831 162.187 35.5828C150.721 54.5714 139.81 73.9014 129.338 93.4568C128.874 94.3233 121.135 116.111 119.171 116.921C114.333 118.916 108.77 115.6 103.66 114.469C87.2217 110.825 56.7752 101.96 40.2454 98.8418C34.8222 97.8179 27.1588 93.0243 23.7555 97.3672C20.6387 101.346 27.984 106.618 30.9367 110.717C37.2099 119.425 44.3978 127.436 51.3205 135.633C61.5572 147.753 79.9758 165.824 82.4132 171.667Z" fill="#A85E2D"/>
</svg>
