<svg width="300" height="600" viewBox="0 0 300 600" fill="none" xmlns="http://www.w3.org/2000/svg">
<path d="M66.4163 537.315C68.674 554.026 66.4163 564.285 66.4163 581.179C66.4163 594.319 101.58 596.35 113.814 596.35C132.652 596.35 151.86 594.137 170.401 590.908C182.787 588.751 195.136 586.263 207.661 585.026C216.427 584.161 221.421 584.88 225.874 581.179C230.327 577.478 228.881 567.825 228.881 562.655V539.019C228.881 531.119 234.55 526.571 239.352 520.935C245.569 513.639 253.568 507.596 261.742 502.576C269.6 497.75 276 489.88 276 480.369C276 475.971 275.799 471.865 275.22 467.507C274.501 462.091 275.95 456.349 273.995 451.127C271.025 443.197 267.144 438.518 261.896 432.19L261.463 431.669C257.368 426.729 251.411 421.847 249.934 415.288C247.917 406.327 247.702 399.698 249.712 390.773C251.568 382.53 258.68 376.377 260.739 367.797C262.464 360.612 261.635 348.997 259.403 342.073C256.732 333.789 251.173 328.414 247.484 320.8C244.773 315.208 239.909 309.404 239.909 302.936C239.909 296.094 239.554 289.353 240.912 282.653C241.74 278.567 243.919 275.088 243.919 270.835V260.721C243.919 243.765 233.703 224.201 218.633 215.209C213.927 212.401 206.129 208.906 205.823 202.566C205.55 196.913 208.686 192.876 210.335 187.67C214.14 175.651 214.699 160.566 210.335 148.259C208.366 142.708 205.696 134.653 201.813 130.395C197.06 125.183 190.104 120.39 186.274 114.509C182.793 109.166 176.239 106.484 175.747 99.4485C175.042 89.3506 173.742 79.6937 173.742 69.4366C173.742 55.234 172.269 41.1769 170.233 27.112C167.835 10.5432 159.76 -0.129059 143.889 4.90539C128.303 9.84956 128.047 25.6458 123.616 38.765C121.114 46.1736 116.812 55.7129 116.598 63.5001C116.399 70.7813 116.598 78.0934 116.598 85.377C116.598 93.6466 115.819 101.125 113.535 109.013C111.496 116.056 104.955 122.651 101.56 129.351C98.6168 135.161 97.1983 141.802 96.6035 148.259C96.1426 153.262 96.5478 158.46 96.5478 163.485C96.5478 167.215 98.4287 170.417 98.5529 174.094C98.9468 185.758 95.1577 193.884 88.5276 203.336C82.5857 211.806 70.4821 220.218 70.4821 231.314C70.4821 245.77 74.4922 259.55 74.4922 274.023C74.4922 287.573 69.6145 300.384 59.9556 309.917C55.6567 314.16 52.8426 318.219 49.9303 323.329C45.8164 330.547 44.4164 337.82 44.4164 345.975C44.4164 353.358 46.2536 360.288 46.4215 367.577C46.5796 374.443 49.4291 380.738 49.4291 387.585C49.4291 393.442 49.0784 398.314 47.6468 403.965C44.7515 415.395 34.8631 422.162 29.8241 432.108C23.1814 445.22 23.0683 459.76 25.3128 474.158C26.4472 481.435 28.1585 487.848 31.8849 494.386C36.0247 501.649 43.031 503.431 49.6519 507.303C61.0783 513.986 64.732 524.848 66.4163 537.315Z" fill="#3D5138"/>
</svg>
