<svg width="300" height="300" viewBox="0 0 300 300" fill="none" xmlns="http://www.w3.org/2000/svg">
<path d="M72.9935 224.035C81.9846 234.109 90.6393 243.741 102.752 250.116C117 257.615 155.439 272.957 170.738 269.133C210.365 259.226 246.658 222.789 259.385 185.518C265.372 167.984 271.933 150.425 280.869 134.13C290.526 116.52 290.753 97.9309 284.837 78.7738C281.824 69.0175 273.683 62.1541 265.772 56.4185C257.178 50.1883 249.133 44.5651 239.352 40.2568C229.06 35.7235 217.305 31.6584 206.012 30.7728C192.915 29.7455 179.323 30.5808 166.189 30.676C119.646 31.0133 66.5227 34.3468 29.0571 65.2251C22.7217 70.4466 11.9537 80.814 11.3954 89.4676C10.9859 95.8146 11.2278 102.296 12.0245 108.581C14.5216 128.28 20.5286 144.518 30.3152 161.808C35.6817 171.289 39.8791 181.518 46.1865 190.454C54.4525 202.164 63.4494 213.341 72.9935 224.035Z" fill="#CF6F49"/>
</svg>
