<svg width="300" height="300" viewBox="0 0 300 300" fill="none" xmlns="http://www.w3.org/2000/svg">
<path fill-rule="evenodd" clip-rule="evenodd" d="M122.208 40.9398C117.588 45.3628 84.1883 91.3307 61.6705 127.002C45.0547 153.322 34.5667 182.713 22.2414 210.989C17.2973 222.33 8.6155 241.597 11.6155 261.265C14.1205 277.688 46.1009 285.176 61.6705 266.765C81.4364 243.393 93.4735 221.462 110.098 194.026C116.106 184.11 126.111 164.917 133.028 155.577C138.722 147.89 155.985 122.348 166.687 121.277C175.98 120.348 186.638 148.432 188.806 154.937C200.615 179.765 219.708 240.265 243.115 270.934C249.52 282.765 268.768 285.164 279.115 278.266C286.086 273.619 288.115 260.898 288.115 253.765C288.115 231.779 280.675 213.648 275.165 192.396C271.515 178.317 265.834 163.298 260.419 149.762C256.81 140.739 252.478 132.134 249.52 122.834C247.039 115.037 243.204 108.143 239.903 100.716C233.542 86.4019 228.777 70.0754 219.708 57.1191C198.615 19.4862 179.947 12.2976 154.712 19.4861C147.396 21.5704 135.333 28.3737 122.208 40.9398Z" fill="#42535D"/>
</svg>
