<svg width="300" height="300" viewBox="0 0 300 300" fill="none" xmlns="http://www.w3.org/2000/svg">
<path fill-rule="evenodd" clip-rule="evenodd" d="M117.032 129.993C118.514 128.357 114.669 109.178 113.974 101.534C111.923 78.9953 110.855 56.6346 110.855 33.9526C110.855 25.9384 110.38 13.1339 118.652 8.99848C129.003 3.82394 132.684 24.5745 133.727 29.7927C138.241 52.3595 135.248 99.9554 160.241 112.451C168.929 116.796 236.046 92.2783 245.497 89.5767C257.175 86.2411 264.336 84.8841 274.899 88.4066C280.848 90.3887 280.872 103.944 276.69 106.733C259.809 117.987 238.824 126.184 220.545 135.325C200.923 145.136 189.994 144.228 186.754 170.157C185.034 183.911 191.342 196.307 194.552 209.145C198.258 223.972 200.154 238.255 201.829 253.333C202.982 263.693 204.555 281.8 196.632 289.725C187.18 299.176 177.785 273.929 176.356 268.93C165.707 231.654 164.339 192.725 132.167 168.597C125.348 163.482 112.012 166.748 104.615 168.597C96.5971 170.6 48.0877 189.802 31.8341 192.51C23.0568 193.974 18.0604 182.631 21.4379 175.874C25.0005 168.749 41.9212 163.812 48.9906 160.279C58.1347 155.707 67.7119 152.052 77.062 147.801C90.3503 141.762 110.409 137.305 117.032 129.993Z" fill="#FFBA03"/>
</svg>
