<svg width="300" height="300" viewBox="0 0 300 300" fill="none" xmlns="http://www.w3.org/2000/svg">
<path fill-rule="evenodd" clip-rule="evenodd" d="M107.976 118.875C103.065 108.94 100.699 105.711 97.2193 96.7632C90.0911 78.4343 80.9217 60.9034 73.9129 42.681C71.9682 37.6246 66.5582 22.4774 63.1559 19.0757C63.0859 19.0051 63.0859 18.8474 63.1559 18.7768C64.5999 17.3334 71.9717 16.6478 74.2119 16.0877C80.9629 14.4001 86.3299 10.9248 92.1394 8.02034C92.8667 7.6567 95.5523 12.2823 95.7253 12.8007C98.0625 19.8118 101.321 26.3822 104.689 33.1191C115.41 54.5613 125.927 76.1918 136.661 97.66C137.847 100.031 145.866 118.875 148.911 118.875C149.158 118.875 148.353 113.846 148.314 113.496C147.966 110.368 148.015 107.086 148.015 103.934C148.015 94.4837 147.76 84.9723 148.314 75.5487C149.224 60.0813 150.106 44.7605 150.106 29.2349C150.106 26.4681 148.667 10.9001 149.808 8.61759C150.049 8.13626 152.234 9.47022 152.497 9.51436C156.96 10.2581 161.749 10.5588 166.242 11.0084C169.257 11.3096 180.442 8.17686 182.676 10.4105C183.801 11.5356 182.975 32.7136 182.975 35.5098C182.975 57.0056 182.978 78.605 184.17 100.05C184.394 104.089 180.613 122.652 183.596 125.634C183.666 125.704 189.208 116.554 190.146 114.99C193.875 108.775 199.467 103.17 204.189 97.66C216.846 82.8934 230.188 67.7768 243.93 54.0353C248.418 49.5462 252.467 44.2939 257.077 39.9919C259.806 37.444 265.144 32.2229 265.144 32.2229C269.313 41.5261 285.255 47.579 292.634 54.0353C294.652 55.8011 297.222 57.7441 299.506 59.1145C300.868 59.9312 292.415 68.4532 289.945 71.6645C283.19 80.445 272.208 88.0292 263.351 94.672C244.04 109.155 224.458 122.743 205.683 137.998C204.278 139.139 188.054 152.626 188.054 152.639C188.054 153.137 189.05 152.639 189.548 152.639C191.633 152.639 193.738 153.028 195.823 153.236C200.699 153.724 205.636 154.684 210.464 155.328C228.141 157.685 245.323 162.954 263.052 165.487C265.084 165.777 280.835 166.238 281.578 166.981C281.874 167.277 281.09 169.642 280.981 169.969C278.664 176.92 278.353 184.487 276.2 191.483C275.226 194.646 274.457 197.808 273.809 201.044C273.704 201.574 272.99 206.312 272.614 206.124C263.377 201.505 254.324 200.067 243.93 197.758C230.545 194.783 217.392 189.772 204.189 186.105C196.184 183.881 187.936 180.985 179.987 178.336C178.346 177.789 168.334 174.068 168.334 174.75C168.334 177.747 171.818 183.299 172.218 187.3C173.632 201.444 175.663 216.344 179.688 230.028C182.152 238.405 185.936 246.809 187.457 255.426C188.438 260.989 195.823 274.25 195.823 281.809C192.323 285.254 164.037 293.26 162.059 291.282C161.548 290.771 162.205 288.129 162.059 287.397C160.832 281.265 159.624 275.03 158.174 268.871C152.681 245.526 149.814 221.918 145.326 198.355C144.556 194.315 145.473 171.976 142.948 169.451C142.779 169.281 138.931 173.407 138.752 173.854C137.799 176.237 136.994 178.027 135.466 180.128C131.665 185.354 127.073 190.432 122.916 195.367C106.492 214.871 87.392 234.296 67.638 250.346C61.9379 254.977 55.7547 260.342 50.9055 265.884C50.26 266.621 44.2198 274.437 44.0333 274.25C41.2577 271.475 26.4546 248.654 24.6111 244.968C24.0662 243.877 19.4794 236.407 19.8301 235.705C22.3433 230.679 29.5827 227.264 33.8741 223.753C51.7946 209.091 71.7976 195.458 91.2433 182.818C99.2753 177.596 107.081 171.815 115.147 166.682C115.997 166.142 124.41 162.865 124.41 161.901C124.41 161.867 117.028 159.64 116.641 159.511C107.593 156.495 96.7757 156.421 87.3591 155.925C66.5017 154.828 44.923 153.038 24.0138 154.432C22.7423 154.517 1.93139 155.955 1.30472 155.328C0.0331314 154.056 3.1359 146.471 3.39657 145.169C4.8035 138.133 8.41055 116.615 11.165 111.106C11.5639 110.309 22.9558 109.923 27.0013 109.611C45.3225 108.202 62.6505 111.988 80.7852 113.197C86.1822 113.557 94.7638 113.762 99.6095 116.185C101.586 117.173 103.507 117.285 105.586 117.978C106.006 118.118 108.872 118.875 107.976 118.875Z" fill="#42535D"/>
</svg>
