<svg width="300" height="300" viewBox="0 0 300 300" fill="none" xmlns="http://www.w3.org/2000/svg">
<path fill-rule="evenodd" clip-rule="evenodd" d="M136.181 180.975C139.06 182.295 138.142 168.015 139.983 161.727C141.025 158.173 147.011 136.818 148.763 132.606C160.718 103.875 181.674 78.3559 209.206 63.3684C218.396 58.3655 230.944 53.6713 240.719 50.5142C246.553 48.6301 252.501 47.1179 258.409 45.4791C259.034 45.3057 268.362 42.8316 269.27 43.0897C270.749 43.5104 272.108 49.1434 272.25 49.9602C273.109 54.8799 273.759 64.1753 273.816 68.6294C274.087 90.2879 270.273 113.196 263.763 133.845C253.697 165.775 234.851 195.403 206.709 214.263C198.5 219.765 186.765 225.6 177.601 229.252C176.841 229.555 154.413 236.656 153.706 237.506C150.875 240.914 151.689 246.148 151.1 250.539C150.418 255.627 150.619 268.991 150.588 273.387C150.562 277.181 150.66 280.982 150.45 284.771C150.345 286.666 151.345 289.567 149.643 290.406C148.714 290.864 121.382 294.272 120.28 293.264C116.914 290.186 121.556 274.039 121.575 269.478C121.636 254.55 119.658 249.409 117.38 234.715C107.965 173.972 89.1772 114.803 68.1715 57.1975C63.5807 44.607 52.4957 23.2746 47.9882 10.6538C47.4578 9.16866 48.0827 7.67356 49.4876 6.9546C53.6103 4.845 57.0713 4.38224 61.6488 4.07878C62.84 3.99936 64.208 3.59333 65.228 4.21349C66.8966 5.2274 68.0103 6.98769 69.1003 8.60711C75.8871 18.6848 92.9549 52.8459 95.2729 58.1424C101.05 71.3426 106.508 84.6856 111.732 98.1142C122.067 124.678 132.405 166.496 136.181 180.975Z" fill="#916F66"/>
</svg>
