<svg width="300" height="300" viewBox="0 0 300 300" fill="none" xmlns="http://www.w3.org/2000/svg">
<path d="M133.198 270.589C133.804 257.217 134.464 250.651 135.037 237.272C108.522 234.865 105.127 223.617 91.0501 212.369C77.9442 201.898 60.3273 193.204 51.6134 178.454C46.0831 169.092 40.0291 150.889 45.6063 140.489C52.2768 128.05 72.6749 137.323 80.9947 142.166C95.4155 150.561 107.029 162.813 117.81 175.431C119.58 177.503 121.174 179.477 121.865 182.15L121.617 181.192L120.213 175.763C117.739 166.201 114.946 156.919 111.822 147.545C109.575 140.804 108.394 133.889 107.428 126.878C107.154 124.889 106.741 122.375 105.888 120.531C105.214 119.071 103.264 117.667 102.16 116.522C98.5728 112.801 95.2458 109.09 92.2881 104.835C82.5677 90.8512 73.2547 76.3815 69.4378 59.5761C67.264 50.0053 60.6122 25.5968 74.9377 21.0525C81.2643 19.0455 88.1393 22.8807 92.5383 27.0599C99.8531 34.0093 104.376 42.7912 108.158 52.0109C108.86 53.7202 111.483 62.1594 111.56 55.1509C111.721 40.4328 110.95 27.4298 118.954 14.4677C124.596 5.33094 139.133 2.9571 147.072 10.4293C153.284 16.2766 154.865 25.979 156.187 34.0918L156.236 34.3932C157.636 42.9785 157.546 51.0626 157.019 59.6739C156.91 61.4599 160.357 102.289 162.433 95.0689C169.022 72.1542 173.132 55.1509 182.253 44.8647C182.253 44.8647 194.974 25.6989 202.661 25.9248C210.061 26.1422 213.529 29.1345 214.46 36.6356C215.703 46.6494 213.421 57.0183 212.389 66.9475C210.929 80.9851 210.255 95.1411 207.038 108.942C203.788 122.882 197.54 135.273 190.186 147.439C184.28 157.209 176.976 165.892 170.463 175.231C170.049 175.825 165.227 182.109 167.772 180.765C177.118 175.831 186.362 170.04 196.653 167.297C203.814 165.388 210.961 163.862 218.398 163.647C222.244 163.535 227.773 162.951 231.357 164.62C236.124 166.84 238.041 173.456 237.277 178.283C236.24 184.834 231.566 190.924 227.636 196.045L227.607 196.082C220.056 205.921 208.904 213.084 199.218 220.666C190.954 227.134 182.558 234.435 173.132 239.271C168.676 241.557 162.279 241.842 162.433 247.694C162.724 258.707 163.872 269.408 165.516 280.284C166.437 286.374 163.191 286.337 158.025 287.673C152.654 289.063 137.985 290.893 134.976 284.438C133.028 280.26 132.995 275.061 133.198 270.589Z" fill="#B3BDB5"/>
</svg>
