<svg width="300" height="300" viewBox="0 0 300 300" fill="none" xmlns="http://www.w3.org/2000/svg">
<path fill-rule="evenodd" clip-rule="evenodd" d="M111.441 107.682C121.804 91.4896 141.311 86.4025 156.906 94.5667C164.748 98.6725 169.516 104.156 171.639 108.037C171.641 108.036 171.786 108.251 172.268 108.641C176.587 112.137 181.843 113.317 185.57 117.927C189.681 123.012 192.792 128.181 194.532 134.002C196.284 139.867 196.497 145.899 195.519 152.505C195.411 153.234 195.304 153.982 195.196 154.748C194.315 160.942 193.277 168.249 189.955 175.226C188.593 178.085 187.075 180.557 185.044 182.805C183.032 185.033 180.765 186.764 178.241 188.4C177.57 188.834 176.892 189.308 176.071 189.883C175.93 189.982 175.785 190.083 175.635 190.188C174.668 190.863 173.533 191.648 172.325 192.39C169.953 193.847 166.773 195.481 162.963 195.97C150.776 197.537 133.126 198.14 120.12 189.17C112.366 183.822 108.97 174.746 107.185 167.108C105.778 161.091 105.102 154.598 104.58 149.581C104.431 148.144 104.294 146.828 104.156 145.68C102.747 133.934 104.262 118.9 111.441 107.682ZM149.948 107.856C141.552 103.46 130.434 105.832 124.075 115.768C119.403 123.069 117.889 134.222 119.049 143.892C119.237 145.458 119.405 147.062 119.576 148.693C120.087 153.577 120.623 158.697 121.791 163.693C123.373 170.461 125.68 174.783 128.636 176.822C136.629 182.334 149.135 182.625 161.051 181.093C161.783 180.999 162.83 180.618 164.474 179.608C165.275 179.117 166.096 178.554 167.046 177.89C167.172 177.802 167.302 177.711 167.435 177.618C168.243 177.052 169.17 176.404 170.085 175.811C171.998 174.571 173.096 173.654 173.913 172.751C174.711 171.867 175.484 170.724 176.412 168.777C178.691 163.99 179.413 159.02 180.354 152.543C180.459 151.817 180.567 151.072 180.681 150.307C181.409 145.389 181.157 141.635 180.16 138.297C179.149 134.916 177.226 131.465 173.905 127.358C173.097 126.357 172.516 125.946 171.82 125.553C171.35 125.286 170.841 125.039 169.988 124.624C165.51 122.444 160.943 119.752 158.481 115.239C157.836 114.057 155.273 110.643 149.948 107.856Z" fill="#BF954D"/>
<path fill-rule="evenodd" clip-rule="evenodd" d="M139.271 48.596C135.463 48.43 132.428 48.1316 129.764 47.8488C129.448 47.8153 129.132 47.7813 128.816 47.7473C126.527 47.501 124.229 47.2537 122.052 47.1914C116.394 47.0296 111.551 48.0999 104.796 51.4777C104.15 51.8004 103.463 52.1342 102.745 52.4835C98.0955 54.7438 92.1168 57.6503 87.3998 62.3673C86.9264 62.8408 86.4475 63.3173 85.9648 63.7976C77.8245 71.8983 68.5828 81.095 65.3006 95.4171C63.804 101.948 63.5363 108.631 63.5928 114.873C63.6191 117.783 63.7184 120.691 63.8133 123.469C63.8204 123.679 63.8275 123.887 63.8346 124.094C63.9368 127.099 64.0271 129.948 64.0271 132.708C64.0271 140.156 65.9638 147.347 67.8506 153.405C68.5689 155.711 69.1066 158.138 69.6727 160.865C69.7495 161.236 69.8273 161.614 69.9064 161.998C70.3886 164.342 70.9202 166.925 71.5936 169.469C73.1764 175.449 75.4307 181.156 77.6342 186.48C78.0759 187.547 78.5136 188.595 78.9448 189.627C80.7199 193.875 82.3875 197.866 83.7952 201.939C85.913 208.065 88.5648 213.871 91.9063 219.499C94.2935 223.52 97.4043 226.369 99.7711 228.536C100.381 229.095 100.942 229.608 101.428 230.085C106.115 234.68 112.249 236.723 117.482 237.82C121.566 238.676 125.928 239.097 129.416 239.433C130.364 239.525 131.247 239.61 132.042 239.696C143.448 240.929 156.253 240.556 167.367 239.305C171.97 238.788 178.68 237.906 184.294 234.752C185.784 233.915 187.218 233.304 189.01 232.541C190.01 232.115 191.121 231.642 192.415 231.056C195.557 229.633 199.459 227.639 202.659 224.328C203.732 223.218 204.754 222.312 205.974 221.228C206.721 220.564 207.543 219.835 208.498 218.951C210.707 216.906 213.291 214.301 215.26 210.969C217.458 207.249 219.903 203.681 222.514 199.941C222.843 199.469 223.177 198.993 223.512 198.513C225.788 195.26 228.181 191.84 230.431 188.287C238.74 175.167 238.672 158.244 236.739 145.269C234.65 131.243 229.911 115.36 221.65 102.803C214.858 92.4798 207.201 81.6564 196.441 73.3176C194.425 71.7552 192.396 70.1737 190.357 68.5844C185.048 64.4456 179.67 60.2542 174.281 56.212C166.597 50.4493 154.204 47.3404 144.764 48.2212C144.613 48.2352 144.465 48.249 144.32 48.2627C142.395 48.443 140.855 48.5873 139.271 48.596ZM121.623 62.1853C118.837 62.1056 116.434 62.4289 111.504 64.8941C110.652 65.32 109.838 65.7211 109.059 66.105C104.278 68.4611 100.811 70.1694 98.0064 72.9739C97.8154 73.1649 97.6254 73.3548 97.4366 73.5435C88.5819 82.3948 82.2153 88.7589 79.9216 98.7678C78.8139 103.601 78.5395 108.916 78.5922 114.737C78.6167 117.451 78.7098 120.18 78.8059 122.998C78.8126 123.193 78.8193 123.389 78.8259 123.585C78.9275 126.572 79.0271 129.659 79.0271 132.708C79.0271 137.758 80.3607 143.129 82.172 148.944C83.1256 152.006 83.7864 155.055 84.3597 157.817C84.4455 158.231 84.5291 158.636 84.6113 159.035C85.0984 161.398 85.5366 163.525 86.0942 165.631C87.403 170.575 89.3232 175.499 91.494 180.744C91.8896 181.7 92.296 182.672 92.7081 183.657C94.498 187.938 96.3943 192.474 97.9721 197.038C99.7759 202.256 102.008 207.133 104.804 211.841C105.974 213.811 107.017 214.773 108.921 216.529C109.739 217.283 110.715 218.184 111.929 219.374C113.587 220.999 116.377 222.262 120.561 223.139C123.749 223.808 126.961 224.12 130.322 224.447C131.416 224.553 132.525 224.661 133.655 224.783C143.71 225.87 155.378 225.559 165.69 224.399C170.444 223.865 174.297 223.163 176.947 221.675C179.156 220.434 181.854 219.279 184.038 218.344C184.857 217.994 185.604 217.674 186.226 217.393C188.98 216.145 190.722 215.095 191.875 213.903C193.315 212.413 195.102 210.819 196.595 209.487C197.237 208.914 197.825 208.39 198.308 207.943C200.217 206.176 201.507 204.759 202.346 203.338C204.858 199.087 207.59 195.114 210.214 191.355C210.557 190.864 210.898 190.377 211.236 189.893C213.528 186.617 215.707 183.502 217.759 180.261C223.117 171.8 223.68 159.406 221.903 147.479C220.013 134.789 215.798 121.2 209.119 111.048C202.402 100.837 195.89 91.8677 187.253 85.1739C185.164 83.5547 183.091 81.9392 181.028 80.3311C175.759 76.2241 170.551 72.1647 165.281 68.212C160.388 64.5425 152.262 62.5867 146.157 63.1563C145.983 63.1726 145.805 63.1894 145.623 63.2066C143.756 63.383 141.496 63.5965 139.12 63.5965H138.961L138.803 63.5898C134.45 63.4054 131.003 63.0647 128.18 62.765C127.85 62.7299 127.534 62.6961 127.229 62.6635C124.83 62.4071 123.17 62.2296 121.623 62.1853Z" fill="#BF954D"/>
<path fill-rule="evenodd" clip-rule="evenodd" d="M135.535 4H135.635C143.898 4 154.134 4.06281 163.75 6.7554C168.32 8.03489 173.063 8.58013 178.511 9.20641C179.416 9.31048 180.341 9.41679 181.288 9.52908C187.633 10.2817 194.804 11.3001 201.753 14.168C205.651 15.7766 209.325 16.5742 213.753 17.5355C215.538 17.9231 217.446 18.3374 219.541 18.8422C228.945 21.1082 238.583 26.703 245.604 31.3304C246.363 31.8306 247.183 32.3611 248.045 32.9186C251.012 34.8375 254.474 37.0764 257.631 39.5007C261.758 42.6702 266.078 46.6659 269.01 51.7956C269.48 52.618 269.954 53.4457 270.431 54.2784C274.476 61.3375 278.73 68.7617 282.335 76.4516C282.537 76.883 282.757 77.3394 282.987 77.8191C284.487 80.9382 286.46 85.0429 287.269 89.6927C287.525 91.1637 287.72 92.4632 287.9 93.6544C288.266 96.0876 288.564 98.0692 289.169 100.139C289.542 101.416 290.023 102.61 290.661 104.197C290.758 104.439 290.859 104.69 290.963 104.951C291.698 106.786 292.592 109.091 293.167 111.704C293.415 112.835 293.688 114.017 293.97 115.237C294.808 118.873 295.724 122.844 296.317 126.797C298.659 142.408 297.995 159.984 295.655 175.196C295.407 176.804 295.185 178.613 294.948 180.542C294.335 185.537 293.623 191.338 292.117 196.543C290.587 201.829 287.329 206.263 284.728 209.629C284.187 210.329 283.672 210.987 283.184 211.61C281.037 214.355 279.402 216.444 278.254 218.658C272.402 229.953 265.198 239.922 257.363 249.406C242.507 267.39 226.171 281.913 202.66 289.902C193.964 292.857 184.506 295.798 174.261 296.367C167.822 296.725 161.483 296.587 155.408 296.455C153.27 296.408 151.166 296.363 149.101 296.339C140.952 296.248 132.751 295.503 125.005 294.757C122.782 294.542 120.492 294.572 117.721 294.608C117.034 294.617 116.318 294.626 115.567 294.632C112.069 294.661 107.872 294.609 103.749 293.678C90.5539 290.699 78.9267 286.64 67.988 276.543C62.8075 271.761 59.8929 266.063 57.4754 261.132C55.1822 256.454 52.1978 252.251 48.7036 247.369C41.5659 237.395 35.2629 226.321 29.4361 216.083L29.0443 215.395C22.105 203.204 16.4967 190.308 11.5693 177.528C11.1314 176.392 10.6741 175.23 10.2071 174.043C6.46975 164.545 2.10599 153.454 2.00865 141.482C1.83704 120.374 4.15859 97.4886 14.2592 77.2873C18.3272 69.1514 24.0253 62.3525 29.1647 56.2203C30.3645 54.7887 31.5338 53.3935 32.6449 52.026C39.6668 43.3836 46.7412 36.3316 56.4936 29.9292C62.4444 26.0226 68.9189 23.2816 75.0461 20.965C77.3154 20.107 79.4743 19.3276 81.564 18.5732C85.3863 17.1933 88.9766 15.8971 92.5854 14.3573C106.626 8.36659 119.231 4.43478 135.435 4.00267L135.535 4ZM135.737 19C122.15 19.3764 111.508 22.5918 98.4719 28.154C94.498 29.8496 90.1791 31.4115 86.0909 32.89C84.1007 33.6097 82.1652 34.3097 80.3508 34.9957C74.5165 37.2015 69.2765 39.4809 64.7255 42.4686C56.5949 47.8062 50.6255 53.6831 44.2866 61.4849C42.8705 63.2278 41.4985 64.8707 40.1769 66.4532C35.1663 72.453 30.8815 77.5838 27.6757 83.9955C19.1313 101.084 16.8441 121.183 17.0082 141.36C17.0814 150.373 20.3534 158.76 24.1974 168.612C24.6469 169.764 25.1042 170.937 25.5652 172.132C30.351 184.545 35.6525 196.683 42.0802 207.975L42.2992 208.359C48.2497 218.813 54.2225 229.306 60.9016 238.639L61.025 238.811C64.3779 243.496 68.0517 248.629 70.9443 254.53C73.3493 259.436 75.2373 262.821 78.1622 265.521C86.3194 273.05 94.9982 276.324 107.052 279.046C109.344 279.564 112.026 279.66 115.446 279.633C115.996 279.628 116.576 279.62 117.179 279.612C120.002 279.572 123.32 279.525 126.444 279.826C134.212 280.575 141.833 281.257 149.269 281.34C151.678 281.367 153.989 281.417 156.242 281.466C162.126 281.594 167.614 281.713 173.429 281.39C181.462 280.944 189.239 278.62 197.834 275.699C217.734 268.937 231.915 256.659 245.798 239.853C253.233 230.854 259.738 221.788 264.936 211.757C266.796 208.168 269.504 204.728 271.675 201.969C272.093 201.439 272.49 200.933 272.858 200.457C275.463 197.087 277.051 194.644 277.708 192.372C278.87 188.359 279.334 184.534 279.871 180.112C280.14 177.895 280.427 175.53 280.829 172.915C282.999 158.81 283.549 142.796 281.483 129.022C280.984 125.694 280.261 122.559 279.464 119.101C279.156 117.768 278.838 116.386 278.517 114.927C278.227 113.611 277.743 112.289 277.037 110.525C276.953 110.315 276.865 110.095 276.772 109.866C276.152 108.329 275.369 106.39 274.772 104.347C273.867 101.251 273.325 97.6705 272.896 94.8342C272.752 93.8764 272.62 93.0035 272.491 92.2628C272.064 89.8059 271.083 87.7378 269.552 84.5105C269.301 83.98 269.034 83.4181 268.753 82.8181C265.427 75.7216 261.489 68.8479 257.403 61.714C256.933 60.8923 256.46 60.0671 255.986 59.2377C254.481 56.6048 251.943 54.0455 248.495 51.3972C245.867 49.379 243.121 47.602 240.252 45.745C239.298 45.1277 238.331 44.5015 237.349 43.8547C230.598 39.4052 222.77 35.0495 216.027 33.4248C214.668 33.0972 213.202 32.7796 211.662 32.4462C206.826 31.3986 201.267 30.1946 196.031 28.0336C191.147 26.0181 185.779 25.1668 179.521 24.4247C178.694 24.3266 177.845 24.23 176.978 24.1314C171.598 23.5197 165.524 22.829 159.706 21.1999C152.385 19.15 144.178 19.0012 135.737 19Z" fill="#BF954D"/>
</svg>
