<svg width="300" height="300" viewBox="0 0 300 300" fill="none" xmlns="http://www.w3.org/2000/svg">
<path fill-rule="evenodd" clip-rule="evenodd" d="M148.934 99.623C152.47 106.769 164.258 108.71 165.393 99.623C166.529 90.5355 169.277 76.1147 171.514 67.1606C175.975 49.321 176.577 29.7897 186.604 14.0335C189.216 9.92727 193.243 -0.153962 200.123 3.97312C202.737 5.54187 202.9 9.89809 203.266 12.4606C204.487 21.0168 203.131 29.346 201.064 37.6106C197.354 52.4585 193.943 68.4085 189.118 82.8793C187.706 87.1189 184.089 99.623 183.146 103.313C181.618 109.285 191.475 111.954 194.15 114.629C194.15 114.629 199.052 110.983 199.493 110.542C204.131 105.904 207.825 100.51 212.696 96.0813C215.902 93.1668 217.795 89.598 220.556 86.3355C229.945 75.2397 243.312 63.7501 256.079 56.7855C260.42 54.4189 267.389 48.3627 272.739 50.4981C278.487 52.7939 273.785 60.3439 273.008 61.7522C269.566 67.998 261.468 74.1418 255.502 80.9605C244.198 93.8813 234.868 100.567 218.983 113.685C215.716 116.385 209.75 121.058 209.75 125.631C209.75 130.204 213.01 136.633 213.01 148.894C213.01 150.63 216.81 148.367 217.412 148.265C222.208 147.467 227.048 147.069 231.873 146.379C246.862 144.238 262.135 143.444 277.141 144.808C283.645 145.398 290.662 146.071 293.802 152.352C294.725 154.2 292.185 157.644 291.145 157.99C285.55 159.854 276.235 159.088 270.475 159.983C260.854 161.477 244.723 163.829 230.614 165.242C225.804 165.723 221.627 165.931 217.098 167.442C216.381 167.679 213.218 168.388 213.01 169.013C212.633 170.144 206.489 184.269 209.75 187.801C213.01 191.333 230.686 208.911 239.102 215.225C249.75 223.21 257.952 234.279 265.823 244.775C268.048 247.739 273.385 254.908 267.395 256.406C260.631 258.096 250.716 248.923 246.333 245.09C238.104 237.889 202.008 201.077 194.15 198.877C190.593 197.881 185.618 200 184.089 200.765C179.796 202.91 186.706 217.25 187.548 219.94C193.087 237.669 198.439 257.198 201.064 275.581C201.86 281.148 202.008 286.6 202.008 292.244C202.008 294.3 201.625 297.333 198.864 296.644C193.239 295.237 190.862 287.423 188.177 283.127C174.582 261.375 177.37 236.106 171.514 212.71C170.71 209.495 157.368 211.137 157.368 211.137C157.368 211.137 157.368 215.767 157.368 216.481C157.368 221.646 156.537 226.467 156.112 231.571C155.537 238.466 140.95 302.858 131.277 293.185C127.258 289.167 127.421 279.769 128.448 274.639C131.498 259.387 134.152 244.048 136.935 228.742C137.902 223.421 138.089 217.944 139.135 212.71C139.252 212.133 139.764 208.623 139.764 208.623C139.764 208.623 132.844 205.746 130.019 204.535C127.364 203.398 125.264 200.41 123.733 198.877C123.733 198.877 122.314 200.848 122.16 201.077C121.129 202.623 120.11 203.975 119.016 205.479C115.585 210.198 112.335 215.112 108.644 219.625C97.6665 233.04 84.9165 243.665 72.8061 255.777C69.6249 258.956 61.5519 269.314 55.8311 267.408C53.5124 266.635 54.2582 261.154 54.2582 259.55C54.2582 253.235 59.6769 244.7 64.004 240.373C72.4686 231.908 79.5436 220.944 88.8373 213.337C96.5394 207.035 104.454 198.352 111.473 191.333C114.144 188.662 116.187 175.837 108.644 173.1C100.81 170.257 91.4479 174.985 83.4936 174.985C64.227 174.985 44.7395 177.713 25.652 176.244C20.4957 175.848 10.827 176.365 6.47489 173.1C2.98947 170.485 6.39989 166.531 9.30405 165.242C17.0936 161.779 23.9707 161.594 32.2541 160.84C40.1124 160.125 47.9874 159.921 55.8311 159.269C64.4121 158.552 95.6573 163.746 102.044 157.99C105.06 155.271 103.564 141.426 104.871 136.633C104.871 136.633 100.408 134.7 98.8977 133.49C91.129 127.275 82.8373 121.181 74.6915 115.258C61.9207 105.969 50.5457 93.8334 37.2832 85.3939C31.407 81.6534 23.7946 73.0137 19.3645 67.4751C18.0416 65.8209 15.0707 61.4293 17.7916 59.6147C26.152 54.0418 36.0707 61.2939 42.9415 65.5876C53.3415 72.0876 63.5624 78.9314 73.4353 86.3355C80.2769 91.4689 88.7477 95.9918 94.8102 102.054C99.3144 106.558 103.823 111.065 108.329 115.571C109.204 116.448 110.98 119.025 113.358 120.288C121.451 124.584 132.535 106.769 132.535 106.769C132.535 106.769 130.775 103.879 130.019 102.369C128.66 99.6501 127.602 96.7418 126.562 93.8813C121.314 79.4522 115.252 63.1168 112.729 47.9835C111.514 40.696 111.473 33.1356 111.473 25.6647C111.473 21.2543 111.185 16.5523 116.816 17.4918C124.404 18.7564 130.9 30.5377 133.477 36.9814C137.416 46.8293 138.504 57.1855 140.708 67.4751C143.135 78.8022 144.486 90.6314 148.934 99.623Z" fill="#939878"/>
</svg>
