<svg width="300" height="300" viewBox="0 0 300 300" fill="none" xmlns="http://www.w3.org/2000/svg">
<path fill-rule="evenodd" clip-rule="evenodd" d="M206.44 239.062C202.305 234.385 198.307 229.654 194.334 224.554C193.17 223.259 192.033 221.938 190.896 220.616L190.895 220.615C188.221 217.508 185.548 214.403 182.536 211.636C174.374 204.137 165.423 197.911 156.445 191.665C154.699 190.45 152.952 189.235 151.21 188.01C150.738 190.75 150.291 193.502 149.898 196.273C149.647 198.642 149.328 200.993 149.01 203.337C148.317 208.453 147.628 213.537 147.66 218.706C147.722 228.698 149.756 238.47 151.804 248.308C152.011 249.301 152.218 250.295 152.423 251.29C154.663 262.16 159.323 266.404 159.323 277.505C159.323 295.298 141.251 292.088 139.163 291.196C139.137 291.185 139.11 291.173 139.08 291.161L138.957 291.11C137.398 290.465 132.247 288.334 130.8 281.46C130.459 279.837 130.096 273.294 130.093 272.97L130.05 254.137C129.741 247.944 129.946 241.807 130.15 235.679C130.334 230.146 130.518 224.619 130.324 219.063C130.152 214.148 129.486 209.318 128.816 204.463C128.441 201.748 128.065 199.024 127.774 196.273C127.308 192.996 126.76 189.747 126.182 186.512C123.796 188.079 121.407 189.62 119.024 191.157C108.567 197.903 98.2471 204.56 89.0203 212.855C81.3699 219.733 75.4277 228.214 69.6912 236.869C64.3277 244.961 60.2544 253.801 56.6334 263.459C53.0421 270.57 44.3531 273.428 37.2421 269.836C30.1311 266.245 27.2737 257.556 30.8646 250.445C41.4715 233.725 54.6707 221.124 68.0108 208.389C68.3685 208.047 68.7262 207.706 69.0841 207.364C74.7803 201.924 80.3625 196.376 85.7065 190.548C93.7719 181.754 101.11 172.601 108.324 163.029C100.134 161.653 91.9114 160.452 83.5167 160.32C75.8021 160.199 68.1595 161.155 60.5073 162.112L60.5047 162.112C58.035 162.421 55.5643 162.73 53.0898 163.003C46.5446 163.725 40.1097 164.627 33.6518 165.532C30.0065 166.043 26.3539 166.555 22.67 167.037C14.7043 167.137 8.15591 160.751 8.05585 152.785C7.95579 144.819 14.3416 138.271 22.3073 138.171C25.4593 138.502 28.5896 138.854 31.7124 139.206L31.7135 139.206C38.6991 139.992 45.6477 140.773 52.7206 141.311C54.9928 141.483 57.2636 141.684 59.5337 141.885C67.3931 142.581 75.2447 143.275 83.1211 142.795C90.4929 142.346 97.6782 141.035 104.81 139.472C104.404 138.923 103.994 138.374 103.582 137.827C102.546 136.56 101.393 135 100.093 133.242C96.9302 128.964 92.9008 123.514 87.5997 118.263C76.4066 107.175 61.4957 96.2646 50.8958 88.5085C47.1941 85.7999 44.0181 83.4759 41.7098 81.6635C35.9433 76.1671 35.7239 67.023 41.2204 61.2565C46.7168 55.4899 55.8609 55.2706 61.6275 60.767C63.8259 63.3061 66.7115 66.967 70.0839 71.2455C78.1472 81.4754 88.9935 95.2359 99.8831 105.633C105.284 110.791 110.846 114.673 115.21 117.718C116.998 118.967 118.586 120.075 119.878 121.072C121.404 122.158 122.939 123.215 124.478 124.256C125.135 121.086 125.855 117.946 126.575 114.809C128.084 108.238 129.591 101.673 130.502 94.8414C130.892 91.9221 130.991 88.976 131.091 86.0291C131.149 84.3323 131.206 82.6346 131.319 80.9422L130.729 48.4119L130.587 29.7885C131.093 21.8383 137.959 15.7942 145.909 16.3001C153.859 16.806 159.903 23.6713 159.398 31.6218L154.663 51.3142L149.276 81.892C149.222 83.26 149.139 84.6285 149.055 85.9971L149.055 85.9984C148.861 89.1788 148.668 92.3599 148.849 95.5356C149.258 102.702 150.525 109.589 151.861 116.489L160.804 107.612C161.554 106.779 162.939 105.487 164.765 103.783C168.457 100.34 173.947 95.2179 179.612 88.8296C190.03 77.0815 201.314 61.6702 209.212 50.8838C212.361 46.583 214.972 43.0175 216.775 40.7127C222.245 34.9213 231.388 34.6608 237.179 40.1312C242.97 45.6013 243.231 54.7445 237.761 60.5358C235.875 62.1924 233.098 64.5095 229.758 67.2966C219.506 75.8522 203.945 88.8371 192.542 100.745C185.116 108.499 179.9 115.901 177.5 119.309C177.189 119.75 176.925 120.124 176.71 120.423C174.108 124.826 171.724 129.303 169.384 133.789C173.409 134.232 177.406 134.727 181.415 135.223C186.13 135.807 190.86 136.392 195.668 136.899C197.061 136.94 198.453 136.993 199.844 137.046L199.847 137.046C213.2 137.552 225.446 135.812 238.437 132.725C242.385 131.788 246.337 130.849 250.324 130.064L275.654 125.067C283.554 124.042 290.8 129.624 291.825 137.525C292.849 145.425 287.267 152.671 279.367 153.695L252.944 152.602C249.719 152.722 246.497 152.791 243.278 152.86L243.276 152.86C231.107 153.122 219.217 153.866 207.262 156.16C203.787 156.827 200.31 157.494 196.786 157.974C193.41 158.697 190.073 159.441 186.751 160.182L186.749 160.182C180.841 161.5 174.981 162.806 169.033 163.965C172.073 168.038 174.999 172.174 177.926 176.31C183.457 184.128 188.99 191.948 195.294 199.344C197.724 202.194 200.417 204.802 203.112 207.411C204.682 208.932 206.253 210.453 207.772 212.023C213.071 216.774 218.197 221.216 223.802 225.196C227.33 227.702 231.081 229.733 235.054 231.784C235.523 232.023 244.32 237.866 247.526 240.616C252.786 245.128 252.796 250.652 252.798 251.853C252.798 251.899 252.798 251.938 252.798 251.97C252.798 259.937 246.331 266.404 238.364 266.404C223.925 266.404 222.644 257.39 206.44 239.062Z" fill="#C9907C"/>
</svg>
