<svg width="300" height="300" viewBox="0 0 300 300" fill="none" xmlns="http://www.w3.org/2000/svg">
<path fill-rule="evenodd" clip-rule="evenodd" d="M87.3288 261.724C111.229 269.852 162.177 283.17 203.72 261.622C221.9 252.193 232.184 242.969 246.512 227.903C259.857 213.869 269.951 202.361 276.714 184.279C285.371 161.128 284.89 136.331 285.758 112.112C286.168 100.659 287.55 89.2214 287.283 77.7643C287.143 71.7235 286.075 51.5464 275.321 49.4851C261.651 46.867 254.822 67.0296 253.401 76.102C249.729 99.5393 251.792 132.479 252.357 155.95C252.46 160.186 255.266 181.226 248.704 185.696C246.707 187.058 245.313 181.838 245.051 179.433C243.675 166.827 244.073 162.879 244.53 150.208C245.399 126.023 250.974 90.6021 244.007 65.6635C242.745 61.1466 237.757 49.2501 231.119 47.0231C214.139 41.3283 215.499 72.2481 215.826 79.2334C216.582 95.4247 219.322 94.7488 221.044 111.067C222.563 125.464 222.935 139.961 224.176 154.384C224.515 158.329 230.347 182.88 224.624 187.672C223.091 188.956 199.213 164.419 197.037 66.1864C196.761 53.6946 186.908 38.4029 172.509 46.8766C165.047 51.268 164.042 67.2694 164.681 73.492C168.118 106.962 168.501 129.912 179.763 160.12C185.463 175.407 211.425 208.218 205.701 208.855C198.035 209.71 174.178 173.597 168.386 163.442C147.047 126.019 156.004 108.459 147.511 67.5269C146.557 62.9311 140.653 19.2621 119.235 27.7938C109.315 31.7442 107.535 47.3948 107.451 54.9755C107.059 90.8933 126.112 141.726 142.762 170.562C147.92 179.495 166.752 198.948 173.553 206.572C176.413 209.779 182.476 217.802 178.25 218.576C168.238 220.406 155.357 202.235 150.591 197.701C140.492 188.094 134.169 185.167 127.768 172.44C112.477 142.032 109.844 108.242 95.2699 77.6677C94.3237 75.6788 82.7555 55.8364 68.6546 58.3579C58.8001 60.12 51.802 67.7698 50.9105 90.7147C50.4117 103.577 53.247 122.37 56.7984 133.935C66.0735 164.143 86.8412 191.66 112.493 210.226C130.452 223.223 148.816 234.777 169.162 243.067C171.402 243.981 175.649 247.636 173.553 248.844C162.341 255.318 143.564 248.199 133.576 244.681C92.6985 230.291 69.4801 205.013 52.6452 164.003C43.0193 140.553 47.6359 139.311 37.3422 115.764C35.8875 112.44 30.1461 110.9 27.1514 111.609C13.2001 114.918 14.4392 139.337 14.5035 148.185C14.7771 185.413 28.1861 210.891 52.5132 237.778C57.4469 243.23 75.9505 257.855 87.3288 261.724Z" fill="#CF6F49"/>
</svg>
