<svg width="300" height="300" viewBox="0 0 300 300" fill="none" xmlns="http://www.w3.org/2000/svg">
<path fill-rule="evenodd" clip-rule="evenodd" d="M151.606 283.406C137.599 280.175 118.741 268.937 112.259 264.85C68.3835 237.187 38.1452 195.641 18.7279 148.177C12.6552 133.333 9.69863 127.453 6.15384 111.857C4.04681 102.587 11.1822 96.8428 18.7279 111.857C26.8555 122.853 51.4188 146.956 58.2858 158.783C94.9029 202.174 99.3042 207.95 115.106 221.93C123.075 228.979 130.424 237.53 142.638 251.029C145.986 254.73 154.043 261.151 158.543 264.207C160.517 262.232 156.812 256.904 155.971 255.529C149.745 245.341 142.525 235.46 136.044 225.316C114.334 191.335 102.342 151.178 94.9029 111.857C93.5239 104.569 89.8755 75.4418 99.4025 71.359C105.836 68.6022 116.703 95.4853 118.366 99.6433C129.89 128.453 142.246 157.028 154.043 185.782C157.292 193.702 159.353 202.028 162.721 209.888C167.304 220.583 171.126 231.187 175.256 242.03C175.437 242.504 179.953 252.44 181.363 251.029C183.451 248.941 180.762 240.996 180.399 238.816C178.41 226.882 178.47 214.238 178.47 202.174C178.47 162.452 185.44 123.856 197.112 86.1439C200.767 74.3361 205.392 64.7499 211.254 54.0028C212.654 51.4373 216.772 42.298 221.54 44.6819C227.227 47.5253 225.718 77.6703 225.718 83.2511C225.718 126.627 216.087 170.594 209.969 213.424C208.43 224.195 206.048 234.847 204.183 245.565C202.319 256.283 213.868 234.163 216.176 229.975C218.485 225.787 226.58 207.755 230.759 197.678C247.148 158.15 245.417 139.455 266.859 102.215C269.485 97.654 286.502 68.3608 292.572 77.4659C296.649 83.5813 295.465 94.7093 295.465 101.572C295.465 121.035 292.454 140.271 286.465 158.783C270.591 207.85 248.955 270.589 191.648 282.528C180.442 284.862 170.367 287.734 151.606 283.406Z" fill="#CF6F49"/>
</svg>
