<svg width="300" height="300" viewBox="0 0 300 300" fill="none" xmlns="http://www.w3.org/2000/svg">
<path fill-rule="evenodd" clip-rule="evenodd" d="M109.026 51.3839C101.846 58.3271 86.0649 53.865 75.7861 53.865C54.8725 53.865 33.2412 55.2406 17.4213 71.0623C13.454 75.0295 10.7905 81.8832 9.60433 87.2173C8.03568 94.2727 5.70201 101.834 7.51983 109.103C13.5979 133.417 46.5327 140.748 57.0255 161.735C61.3156 170.314 40.8511 177.215 36.7031 179.975C10.8923 197.141 8.2252 219.304 10.1255 232.607C13.4681 256.002 31.4076 275.624 54.9409 278.986C69.7922 281.108 85.063 274.157 98.7141 269.606C110.123 265.804 126.95 252.196 139.883 258.662C151.494 264.468 163.09 278.744 172.192 287.845C180.47 296.122 199.961 294.718 210.233 293.578C215.474 292.995 222.341 290.902 226.909 287.845C266.365 261.434 226.875 228.693 227.43 223.227C228.339 214.263 247.299 218.34 260.78 213.847C286.637 205.228 305.975 176.087 298.302 149.228C293.187 131.329 274.616 122.226 258.696 116.92C252.158 114.741 231.922 117.369 228.993 108.582C227.284 103.455 231.404 67.2284 230.272 55.6723C225.996 12.0254 180.393 -0.369448 151.359 8.00373C129.11 14.4187 118.538 42.1843 109.026 51.3839Z" fill="#D88D3A"/>
</svg>
