<svg width="357" height="357" viewBox="0 0 357 357" fill="none" xmlns="http://www.w3.org/2000/svg">
<path d="M20.7396 45.859C14.7693 42.7552 10.6914 36.5135 10.6914 29.3195C10.6914 19.0309 19.0319 10.6904 29.3205 10.6904C36.5145 10.6904 42.7561 14.7683 45.8599 20.7386C48.9637 14.7683 55.2054 10.6904 62.3994 10.6904C69.5935 10.6904 75.8351 14.7683 78.9389 20.7386C82.0427 14.7683 88.2843 10.6904 95.4783 10.6904C102.672 10.6904 108.914 14.7683 112.018 20.7386C115.122 14.7683 121.363 10.6904 128.557 10.6904C135.751 10.6904 141.993 14.7683 145.097 20.7386C148.201 14.7683 154.442 10.6904 161.636 10.6904C168.83 10.6904 175.072 14.7683 178.176 20.7386C181.279 14.7683 187.521 10.6904 194.715 10.6904C201.909 10.6904 208.151 14.7683 211.255 20.7386C214.358 14.7683 220.6 10.6904 227.794 10.6904C234.988 10.6904 241.23 14.7683 244.334 20.7386C247.437 14.7683 253.679 10.6904 260.873 10.6904C268.067 10.6904 274.309 14.7683 277.412 20.7386C280.516 14.7683 286.758 10.6904 293.952 10.6904C301.146 10.6904 307.388 14.7683 310.491 20.7386C313.595 14.7683 319.837 10.6904 327.031 10.6904C337.319 10.6904 345.66 19.0309 345.66 29.3195C345.66 36.5136 341.582 42.7552 335.612 45.859C341.582 48.9628 345.66 55.2044 345.66 62.3984C345.66 69.5925 341.582 75.8341 335.612 78.9379C341.582 82.0417 345.66 88.2833 345.66 95.4774C345.66 102.671 341.582 108.913 335.612 112.017C341.582 115.121 345.66 121.362 345.66 128.556C345.66 135.75 341.582 141.992 335.612 145.096C341.582 148.2 345.66 154.441 345.66 161.635C345.66 168.829 341.582 175.071 335.612 178.175C341.582 181.279 345.66 187.52 345.66 194.714C345.66 201.908 341.582 208.15 335.612 211.254C341.582 214.357 345.66 220.599 345.66 227.793C345.66 234.987 341.582 241.229 335.612 244.333C341.582 247.436 345.66 253.678 345.66 260.872C345.66 268.066 341.582 274.308 335.612 277.411C341.582 280.515 345.66 286.757 345.66 293.951C345.66 301.145 341.582 307.387 335.612 310.49C341.582 313.594 345.66 319.836 345.66 327.03C345.66 337.318 337.319 345.659 327.031 345.659C319.837 345.659 313.595 341.581 310.491 335.611C307.388 341.581 301.146 345.659 293.952 345.659C286.758 345.659 280.516 341.581 277.412 335.611C274.309 341.581 268.067 345.659 260.873 345.659C253.679 345.659 247.437 341.581 244.334 335.611C241.23 341.581 234.988 345.659 227.794 345.659C220.6 345.659 214.358 341.581 211.255 335.611C208.151 341.581 201.909 345.659 194.715 345.659C187.521 345.659 181.279 341.581 178.176 335.611C175.072 341.581 168.83 345.659 161.636 345.659C154.442 345.659 148.201 341.581 145.097 335.611C141.993 341.581 135.751 345.659 128.557 345.659C121.363 345.659 115.122 341.581 112.018 335.611C108.914 341.581 102.672 345.659 95.4783 345.659C88.2843 345.659 82.0427 341.581 78.9389 335.611C75.8351 341.581 69.5935 345.659 62.3994 345.659C55.2054 345.659 48.9637 341.581 45.8599 335.611C42.7561 341.581 36.5145 345.659 29.3205 345.659C19.0319 345.659 10.6914 337.318 10.6914 327.03C10.6914 319.836 14.7693 313.594 20.7396 310.49C14.7693 307.387 10.6914 301.145 10.6914 293.951C10.6914 286.757 14.7693 280.515 20.7396 277.411C14.7693 274.308 10.6914 268.066 10.6914 260.872C10.6914 253.678 14.7693 247.436 20.7396 244.333C14.7693 241.229 10.6914 234.987 10.6914 227.793C10.6914 220.599 14.7693 214.357 20.7396 211.254C14.7693 208.15 10.6914 201.908 10.6914 194.714C10.6914 187.52 14.7693 181.279 20.7396 178.175C14.7693 175.071 10.6914 168.829 10.6914 161.635C10.6914 154.441 14.7693 148.2 20.7396 145.096C14.7693 141.992 10.6914 135.75 10.6914 128.556C10.6914 121.362 14.7693 115.121 20.7396 112.017C14.7693 108.913 10.6914 102.671 10.6914 95.4774C10.6914 88.2833 14.7693 82.0417 20.7396 78.9379C14.7693 75.8341 10.6914 69.5925 10.6914 62.3984C10.6914 55.2044 14.7693 48.9628 20.7396 45.859Z" fill="#43A363"/>
</svg>
