<svg width="357" height="357" viewBox="0 0 357 357" fill="none" xmlns="http://www.w3.org/2000/svg">
<path d="M80.2835 14.3785L99.671 36.8345C101.092 38.4809 103.644 38.4809 105.066 36.8345L124.94 13.8149C126.361 12.1685 128.913 12.1685 130.334 13.8149L150.208 36.8345C151.629 38.4809 154.181 38.4809 155.603 36.8345L175.477 13.8149C176.898 12.1685 179.45 12.1685 180.871 13.8149L200.746 36.8346C202.167 38.4809 204.719 38.4809 206.14 36.8346L226.014 13.8148C227.436 12.1685 229.988 12.1685 231.409 13.8148L251.283 36.8345C252.705 38.4809 255.256 38.4809 256.678 36.8345L276.065 14.3785C277.641 12.5532 280.537 12.7874 281.799 14.8422L304.072 51.1057C304.365 51.5828 304.766 51.9842 305.243 52.2772L340.715 74.0637C342.979 75.4547 342.979 78.7457 340.715 80.1367L309.462 99.3324C307.197 100.723 307.197 104.014 309.462 105.405L340.715 124.601C342.979 125.992 342.979 129.283 340.715 130.674L309.462 149.87C307.197 151.261 307.197 154.552 309.462 155.943L340.715 175.138C342.979 176.529 342.979 179.82 340.715 181.211L309.462 200.407C307.197 201.798 307.197 205.089 309.462 206.48L340.715 225.676C342.979 227.067 342.979 230.358 340.715 231.749L309.462 250.945C307.197 252.336 307.197 255.627 309.462 257.018L340.715 276.213C342.979 277.604 342.979 280.895 340.715 282.286L305.243 304.072C304.766 304.365 304.365 304.767 304.072 305.244L282.286 340.715C280.895 342.98 277.603 342.98 276.213 340.715L257.017 309.462C255.626 307.198 252.335 307.198 250.944 309.462L231.748 340.715C230.357 342.98 227.066 342.98 225.675 340.715L206.479 309.462C205.088 307.198 201.797 307.198 200.406 309.462L181.211 340.715C179.82 342.98 176.529 342.98 175.138 340.715L155.942 309.462C154.551 307.198 151.26 307.198 149.869 309.462L130.673 340.715C129.282 342.98 125.991 342.98 124.6 340.715L105.405 309.462C104.014 307.198 100.723 307.198 99.3319 309.462L80.1361 340.715C78.7452 342.98 75.4541 342.98 74.0631 340.715L52.2766 305.244C51.9836 304.767 51.5822 304.365 51.1051 304.072L15.6341 282.286C13.3694 280.895 13.3694 277.604 15.6341 276.213L46.8872 257.017C49.1519 255.626 49.1519 252.335 46.8872 250.944L15.6341 231.749C13.3694 230.358 13.3694 227.067 15.6341 225.676L46.8871 206.48C49.1518 205.089 49.1518 201.798 46.8872 200.407L15.634 181.211C13.3694 179.82 13.3694 176.529 15.634 175.138L46.8871 155.942C49.1517 154.551 49.1517 151.26 46.8871 149.869L15.6341 130.674C13.3694 129.283 13.3694 125.992 15.6341 124.601L46.8871 105.405C49.1517 104.014 49.1517 100.723 46.8871 99.3321L15.6341 80.1365C13.3694 78.7455 13.3694 75.4544 15.6341 74.0635L51.1053 52.2771C51.5824 51.9841 51.9837 51.5828 52.2768 51.1056L74.5497 14.8422C75.8118 12.7874 78.7077 12.5532 80.2835 14.3785Z" fill="#F4ADB3"/>
</svg>
