<svg width="357" height="357" viewBox="0 0 357 357" fill="none" xmlns="http://www.w3.org/2000/svg">
<path d="M178.174 300.253C163.678 300.339 151.857 288.657 151.771 274.161L151.552 237.004C147.952 252.509 140.521 267.069 129.68 279.244L125.578 283.851C115.938 294.677 99.3463 295.639 88.5197 285.999C77.6932 276.359 76.7314 259.767 86.3715 248.941L90.4734 244.334C97.0016 237.003 100.81 227.768 101.452 218.153C89.6919 241.192 69.0739 258.643 44.1426 266.346L38.2492 268.167C24.3988 272.446 9.70184 264.687 5.4227 250.836C1.14356 236.986 8.90265 222.289 22.7531 218.01L28.6465 216.189C94.7503 195.766 123.892 56.0952 178.539 56.0952C233.186 56.0952 261.598 195.766 327.701 216.189L333.595 218.01C347.445 222.289 355.204 236.986 350.925 250.836C346.646 264.687 331.949 272.446 318.099 268.167L312.205 266.346C287.274 258.643 266.656 241.192 254.896 218.153C255.538 227.768 259.346 237.003 265.874 244.334L269.976 248.941C279.616 259.767 278.655 276.359 267.828 285.999C257.002 295.639 240.41 294.677 230.77 283.851L226.668 279.244C215.827 267.069 208.395 252.509 204.796 237.004L204.577 274.161C204.491 288.657 192.67 300.339 178.174 300.253Z" fill="#43A363"/>
</svg>
