<svg width="357" height="357" viewBox="0 0 357 357" fill="none" xmlns="http://www.w3.org/2000/svg">
<path d="M178.174 354.568C150.491 354.568 127.723 333.523 124.996 306.559C104.001 323.697 73.0205 322.478 53.4456 302.903C33.8706 283.328 32.652 252.348 49.7897 231.353C22.8258 228.626 1.78125 205.858 1.78125 178.175C1.78125 150.492 22.8259 127.724 49.7898 124.996C32.6521 104.001 33.8707 73.021 53.4456 53.446C73.0206 33.8711 104.001 32.6525 124.996 49.7902C127.723 22.8263 150.491 1.78174 178.174 1.78174C205.857 1.78174 228.625 22.8263 231.353 49.7902C252.348 32.6524 283.328 33.8711 302.903 53.446C322.478 73.021 323.696 104.001 306.559 124.996C333.523 127.724 354.567 150.492 354.567 178.175C354.567 205.858 333.523 228.626 306.559 231.353C323.697 252.348 322.478 283.328 302.903 302.903C283.328 322.478 252.348 323.697 231.353 306.559C228.625 333.523 205.857 354.568 178.174 354.568Z" fill="#F5BD33"/>
</svg>
