<svg width="357" height="357" viewBox="0 0 357 357" fill="none" xmlns="http://www.w3.org/2000/svg">
<path d="M186.343 2.02862C180.088 -0.676205 176.261 -0.676205 170.006 2.02862C148.494 11.3304 158.623 90.5025 167.144 139.484C148.554 93.3731 115.409 20.7631 92.2272 24.2034C85.4862 25.2038 82.234 27.2223 78.3457 32.819C66.0975 50.4486 107.317 103.887 139.745 141.274C101.074 110.389 46.0068 71.3715 28.8886 84.3249C23.4543 88.4371 21.5694 91.7685 20.8434 98.5445C18.494 120.47 83.7718 148.476 130.502 165.623C81.3863 157.536 10.7806 149.766 2.02862 170.006C-0.676205 176.261 -0.676205 180.089 2.02862 186.344C10.7806 206.583 81.3862 198.813 130.502 190.726C83.7717 207.874 18.494 235.88 20.8433 257.805C21.5694 264.581 23.4542 267.912 28.8886 272.025C46.0067 284.978 101.073 245.961 139.745 215.076C107.316 252.463 66.0973 305.901 78.3455 323.531C82.2338 329.127 85.4859 331.146 92.227 332.146C115.409 335.586 148.554 262.975 167.144 216.864C158.623 265.846 148.494 345.019 170.006 354.321C176.261 357.026 180.088 357.026 186.343 354.321C207.855 345.019 197.725 265.84 189.204 216.859C207.793 262.97 240.94 335.587 264.123 332.146C270.864 331.146 274.116 329.127 278.005 323.531C290.253 305.901 249.034 252.463 216.606 215.076C255.277 245.961 310.343 284.978 327.462 272.025C332.896 267.912 334.781 264.581 335.507 257.805C337.856 235.88 272.579 207.874 225.849 190.726C274.964 198.813 345.569 206.583 354.321 186.344C357.026 180.089 357.026 176.261 354.321 170.006C345.569 149.766 274.964 157.536 225.849 165.623C272.579 148.475 337.856 120.47 335.507 98.5445C334.781 91.7685 332.896 88.4371 327.461 84.3249C310.343 71.3715 255.276 110.389 216.605 141.274C249.033 103.888 290.253 50.4486 278.004 32.819C274.116 27.2223 270.864 25.2038 264.123 24.2034C240.94 20.763 207.793 93.3784 189.204 139.489C197.725 90.5079 207.855 11.3307 186.343 2.02862Z" fill="#F4ADB3"/>
</svg>
