<svg width="357" height="357" viewBox="0 0 357 357" fill="none" xmlns="http://www.w3.org/2000/svg">
<path d="M1.73938e-06 177.581C2.2807e-06 267.114 178.175 177.581 178.175 177.581C178.175 177.581 1.19806e-06 88.0481 1.73938e-06 177.581Z" fill="#E55733"/>
<path d="M356.35 177.581C356.35 267.114 178.175 177.581 178.175 177.581C178.175 177.581 356.35 88.0481 356.35 177.581Z" fill="#E55733"/>
<path d="M89.0882 331.885C166.626 376.651 178.176 177.581 178.176 177.581C178.176 177.581 11.5505 287.119 89.0882 331.885Z" fill="#E55733"/>
<path d="M267.262 23.277C344.8 68.0435 178.175 177.581 178.175 177.581C178.175 177.581 189.724 -21.4894 267.262 23.277Z" fill="#E55733"/>
<path d="M267.261 331.885C189.724 376.651 178.174 177.581 178.174 177.581C178.174 177.581 344.799 287.119 267.261 331.885Z" fill="#E55733"/>
<path d="M89.0876 23.277C11.5499 68.0435 178.175 177.581 178.175 177.581C178.175 177.581 166.625 -21.4894 89.0876 23.277Z" fill="#E55733"/>
</svg>
