<svg width="357" height="357" viewBox="0 0 357 357" fill="none" xmlns="http://www.w3.org/2000/svg">
<path fill-rule="evenodd" clip-rule="evenodd" d="M93.8403 129.225C87.3885 117.186 83.7557 103.586 83.7557 89.1897C83.7557 39.9316 126.284 0 178.746 0V80.3003C185.913 68.6329 195.861 58.6232 208.337 51.3668C250.916 26.6008 306.816 43.2864 333.193 88.6352L263.392 129.234C277.119 129.59 290.803 133.201 303.36 140.397C346.098 164.889 359.598 221.642 333.513 267.16L263.652 227.124C270.104 239.163 273.737 252.763 273.737 267.16C273.737 316.418 231.208 356.35 178.746 356.35V276.049C171.579 287.717 161.632 297.726 149.156 304.983C106.577 329.749 50.6764 313.063 24.2996 267.714L94.1004 227.115C80.3738 226.759 66.6895 223.149 54.1322 215.953C11.3944 191.461 -2.10544 134.707 23.9793 89.1898L93.8403 129.225ZM178.796 177.97C178.78 177.941 178.763 177.912 178.746 177.883L178.746 177.97C178.763 177.97 178.78 177.97 178.796 177.97ZM178.746 178.379V178.466L178.696 178.379L178.746 178.379Z" fill="#F4ADB3"/>
</svg>
