<svg width="357" height="357" viewBox="0 0 357 357" fill="none" xmlns="http://www.w3.org/2000/svg">
<path d="M128.646 46.6934C177.449 95.4422 177.867 177.615 177.867 177.615C177.867 177.615 99.1586 180.75 50.3557 132.001C1.5528 83.2524 1.13561 1.07975 1.13561 1.07975C1.13561 1.07975 79.8435 -2.05542 128.646 46.6934Z" fill="#E55733"/>
<path d="M227.086 46.6934C178.283 95.4422 177.866 177.615 177.866 177.615C177.866 177.615 256.574 180.75 305.377 132.001C354.18 83.2524 354.597 1.07975 354.597 1.07975C354.597 1.07975 275.889 -2.05542 227.086 46.6934Z" fill="#E55733"/>
<path d="M128.646 308.468C177.449 259.719 177.867 177.547 177.867 177.547C177.867 177.547 99.1586 174.411 50.3557 223.16C1.5528 271.909 1.13561 354.082 1.13561 354.082C1.13561 354.082 79.8435 357.217 128.646 308.468Z" fill="#E55733"/>
<path d="M227.086 308.468C178.283 259.719 177.866 177.547 177.866 177.547C177.866 177.547 256.574 174.411 305.377 223.16C354.18 271.909 354.597 354.082 354.597 354.082C354.597 354.082 275.889 357.217 227.086 308.468Z" fill="#E55733"/>
</svg>
