<svg width="357" height="357" viewBox="0 0 357 357" fill="none" xmlns="http://www.w3.org/2000/svg">
<path d="M184.114 88.6949C205.907 85.7913 222.718 67.1308 222.718 44.5437C222.718 19.9429 202.776 0 178.175 0C153.574 0 133.631 19.9429 133.631 44.5437C133.631 67.1308 150.443 85.7913 172.236 88.6949V163.836L119.102 110.703C132.459 93.2403 131.152 68.1576 115.18 52.1861C97.7851 34.7907 69.5816 34.7907 52.1862 52.1861C34.7908 69.5815 34.7908 97.785 52.1862 115.18C68.1576 131.152 93.2401 132.459 110.703 119.103L163.836 172.236H88.6949C85.7913 150.443 67.1308 133.631 44.5437 133.631C19.9429 133.631 0 153.574 0 178.175C-3.0224e-06 202.776 19.9429 222.718 44.5437 222.718C67.1308 222.718 85.7913 205.907 88.6949 184.114H163.836L110.703 237.247C93.2402 223.89 68.1578 225.198 52.1864 241.169C34.791 258.564 34.791 286.768 52.1864 304.163C69.5818 321.559 97.7853 321.559 115.181 304.163C131.152 288.192 132.46 263.109 119.103 245.646L172.236 192.513V267.655C150.443 270.558 133.631 289.219 133.631 311.806C133.631 336.407 153.574 356.35 178.175 356.35C202.776 356.35 222.718 336.407 222.718 311.806C222.718 289.219 205.907 270.558 184.114 267.655V192.513L237.247 245.646C223.89 263.109 225.198 288.192 241.169 304.163C258.565 321.559 286.768 321.559 304.163 304.163C321.559 286.768 321.559 258.565 304.163 241.169C288.192 225.198 263.109 223.89 245.646 237.247L192.513 184.114H267.655C270.558 205.907 289.219 222.718 311.806 222.718C336.407 222.718 356.35 202.776 356.35 178.175C356.35 153.574 336.407 133.631 311.806 133.631C289.219 133.631 270.558 150.443 267.655 172.236H192.513L245.646 119.103C263.109 132.459 288.192 131.152 304.163 115.18C321.559 97.7851 321.559 69.5816 304.163 52.1862C286.768 34.7908 258.564 34.7908 241.169 52.1862C225.197 68.1577 223.89 93.2402 237.247 110.703L184.114 163.836V88.6949Z" fill="#F4ADB3"/>
</svg>
