<svg width="300" height="300" viewBox="0 0 300 300" fill="none" xmlns="http://www.w3.org/2000/svg">
<path d="M286.337 127.576C291.926 127.576 301.001 131.965 298.333 146.965C297.54 151.426 298.019 153.111 296.225 157.727C295.27 160.181 294.192 162.634 292.882 164.99C291.587 167.32 290.185 169.6 288.577 171.722C284.107 177.679 278.43 183.266 272.082 188.385C263.385 195.397 253.581 201.65 244.418 206.784C223.101 220.441 201.149 230.56 178.019 237.242C155.064 243.874 130.978 247.001 105.369 247.227C93.7753 247.125 81.2626 246.795 69.3196 244.788C60.633 243.328 52.2408 240.988 44.616 237.354C37.2259 233.831 30.7332 229.233 24.951 223.949C16.5124 216.237 9.59887 207.063 3.54558 197.858C0.466322 193.194 -0.116795 177.645 4.54792 174.565C9.21225 171.486 15.4992 172.773 18.5784 177.437C22.9345 184.011 27.7597 190.601 33.4649 196.424C38.6239 201.69 44.5183 206.324 51.5103 209.628C57.4692 212.446 64.047 214.172 70.8283 215.298C81.7107 217.106 93.111 217.346 103.672 217.43C127.477 218.042 149.916 215.738 171.506 210.501C193.427 205.183 214.491 196.944 235.1 185.203C243.189 179.939 251.891 173.716 259.364 166.679C264.178 162.146 268.358 157.215 271.546 152.088C273.54 146.527 275.126 141.283 276.368 135.649C277.874 128.826 283.334 127.576 286.337 127.576Z" fill="#2E3120"/>
<path fill-rule="evenodd" clip-rule="evenodd" d="M209.399 57.9891C215.354 60.5325 214.974 72.3623 215.52 77.818C217.222 94.8408 218.5 115.414 212.865 131.801C210.729 138.014 203.833 152.221 194.811 149.704C189.5 148.223 186.686 138.46 185.324 134.007C179.962 116.481 185.373 99.9735 186.241 81.9513C186.94 67.4418 192.687 50.8509 209.399 57.9891Z" fill="#2E3120"/>
<path fill-rule="evenodd" clip-rule="evenodd" d="M90.5539 57.9891C84.5991 60.5325 84.9788 72.3623 84.4332 77.818C82.7311 94.8408 81.4533 115.414 87.0879 131.801C89.2243 138.014 96.12 152.221 105.142 149.704C110.453 148.223 113.267 138.46 114.63 134.007C119.991 116.481 114.58 99.9735 113.712 81.9513C113.013 67.4418 107.266 50.8509 90.5539 57.9891Z" fill="#2E3120"/>
</svg>
