<svg width="300" height="300" viewBox="0 0 300 300" fill="none" xmlns="http://www.w3.org/2000/svg">
<path d="M21.0204 208.002C14.4648 206.141 10.4648 200.364 10.4648 192.141C10.4648 171.891 26.862 125.747 49.7425 127.507C51.4919 127.641 58.4647 131.565 58.4647 133.391C58.4647 138.382 57.5295 143.239 56.6869 148.141C56.0404 151.903 53.1314 159.252 55.2703 161.391C73.61 179.731 95.4733 196.341 119.909 204.53C131.353 208.365 142.764 211.395 154.909 212.03C166.486 212.636 178.944 212.861 190.381 210.864C199.553 209.262 207.88 205.202 215.743 200.364C221.826 196.62 227.379 193.42 231.993 187.919C236.331 182.746 240.956 177.937 245.465 172.891C249.33 168.566 252.383 164.147 255.465 159.252C256.875 157.012 254.686 153.549 253.937 151.364C250.816 142.261 245.797 124.986 256.798 119.141C262.186 116.279 272.523 117.015 276.242 122.53C279.579 127.477 281.68 133.198 284.298 138.53C288.691 147.477 294.011 164.647 296.215 174.419C296.847 177.225 296.827 187.008 292.937 188.308C281.465 192.141 277.715 188.308 273.465 185.641C271.37 184.824 266.506 178.447 266.27 182.808C266.126 185.482 264.752 188.458 263.743 190.919C262.029 195.096 260.565 199.179 258.243 203.086C251.36 214.661 242.906 225.826 232.159 234.086C219.857 243.541 205.703 248.726 190.659 251.975C171.851 256.037 153.204 254.366 135.27 247.808C116.927 241.1 98.0339 234.045 81.6314 223.516C69.768 215.901 58.4647 205.516 49.7425 193.266C47.2148 190.016 45.9494 185.534 45.0898 186.516C43.407 188.439 42.3837 192.828 41.2704 195.086C39.8033 198.061 38.1605 201.022 36.2704 203.752C33.6394 207.553 27.5759 209.864 21.0204 208.002Z" fill="#CF6F49"/>
</svg>
