<svg width="357" height="713" viewBox="0 0 357 713" fill="none" xmlns="http://www.w3.org/2000/svg">
<path d="M178.859 56.6738C137.272 56.6738 103.559 92.044 103.559 135.675V166.209H80.3706C36.7393 166.209 1.36914 199.922 1.36914 241.509C1.36914 283.096 36.7393 316.809 80.3707 316.809C80.3707 316.809 145.097 312.058 145.097 385.703C145.097 482.386 98.9217 551.869 166.89 559.469C174.657 560.338 179.136 560.33 186.905 559.469C255.086 551.911 212.621 482.386 212.621 385.703C212.621 312.058 277.347 316.809 277.347 316.809C320.979 316.809 356.349 283.096 356.349 241.509C356.349 199.922 320.979 166.209 277.347 166.209H254.159V135.675C254.159 92.044 220.446 56.6738 178.859 56.6738Z" fill="#E55733"/>
</svg>
