<svg width="357" height="713" viewBox="0 0 357 713" fill="none" xmlns="http://www.w3.org/2000/svg">
<path d="M187.084 31.9349V5.40967H169.267V31.9351L145.153 19.0954L138.787 36.9813L169.267 53.2109V70.746L135.309 52.6644L128.942 70.5503L169.267 92.0219V110.407L127.807 88.3313L121.441 106.217L169.267 131.683V150.301L118.557 123.299L112.19 141.185L169.267 171.576V188.535L112.421 158.267L106.055 176.152L169.267 209.811V223.569L112.421 193.301L106.055 211.187L169.267 244.845V263.432L112.421 233.164L106.055 251.05L169.267 284.708V298.75L112.421 268.481L106.055 286.367L169.267 320.026V335.466L112.421 305.198L106.055 323.083L169.267 356.742V374.979L112.421 344.711L106.055 362.597L169.267 396.255V416.591L112.421 386.323L106.055 404.209L169.267 437.867V452.958L112.421 422.689L106.055 440.575L169.267 474.233V493.637L118.112 466.399L111.745 484.285L169.267 514.913V528.962L126.858 506.38L120.492 524.266L169.267 550.237V566.714L141.987 552.188L135.62 570.074L169.267 587.99L169.267 710.693H187.084L187.084 587.99L220.731 570.074L214.364 552.188L187.084 566.714V550.237L235.859 524.266L229.492 506.38L187.084 528.961V514.913L244.605 484.284L238.239 466.399L187.084 493.637V474.233L250.296 440.575L243.929 422.689L187.084 452.957V437.867L250.296 404.208L243.929 386.323L187.084 416.591V396.255L250.296 362.597L243.929 344.711L187.084 374.979V356.742L250.296 323.083L243.929 305.197L187.084 335.466V320.026L250.296 286.367L243.929 268.481L187.084 298.75V284.708L250.296 251.05L243.929 233.164L187.084 263.432V244.845L250.296 211.186L243.929 193.301L187.084 223.569V209.811L250.296 176.152L243.929 158.267L187.084 188.535V171.576L244.16 141.185L237.793 123.299L187.084 150.3V131.683L234.91 106.217L228.543 88.3312L187.084 110.407V92.0218L227.409 70.5502L221.042 52.6644L187.084 70.7459V53.2108L217.564 36.9812L211.197 19.0954L187.084 31.9349Z" fill="#336BB7"/>
</svg>
